<?xml version="1.0" encoding="UTF-8"?>
<svg version="1.1" xmlns="http://www.w3.org/2000/svg" width="1000" height="1000">
<path d="M0 0 C330 0 660 0 1000 0 C1000 330 1000 660 1000 1000 C670 1000 340 1000 0 1000 C0 670 0 340 0 0 Z " fill="#FEFEFE" transform="translate(0,0)"/>
<path d="M0 0 C1.55843377 0.41946633 3.11694862 0.83863152 4.67553711 1.25752258 C8.03639723 2.1614307 11.39671674 3.06731219 14.75662231 3.97476196 C20.13956936 5.42857104 25.52365501 6.87812995 30.90795898 8.3269043 C36.65824447 9.87430595 42.40847533 11.42190792 48.15834045 12.97087097 C62.88220995 16.93693085 77.6100916 20.88787966 92.33984375 24.83203125 C94.50935437 25.41303235 96.67886426 25.99403617 98.84837341 26.57504272 C107.30693225 28.84017269 115.76556892 31.10501166 124.22439575 33.36914062 C129.17323431 34.69381657 134.12182153 36.01942854 139.07031059 37.34540939 C141.89943394 38.10308665 144.72888547 38.8595289 147.55836487 39.61587524 C156.18831756 41.92551919 164.80965194 44.26058828 173.41357422 46.66552734 C174.95529103 47.09438826 176.49703327 47.52315776 178.0388031 47.951828 C180.8495842 48.73357451 183.65679054 49.52665661 186.46229553 50.32710266 C187.6928215 50.66992783 188.92334747 51.01275299 190.19116211 51.3659668 C191.24782578 51.66544724 192.30448944 51.96492767 193.39317322 52.27348328 C199.62471477 53.54425773 204.7984839 52.7905617 210.8840332 51.14404297 C211.59390821 50.95457627 212.30378323 50.76510958 213.0351696 50.56990147 C215.3955497 49.93768294 217.75235813 49.29307147 220.109375 48.6484375 C221.80238877 48.19234648 223.49561651 47.73704913 225.18904114 47.28248596 C229.77401636 46.04948923 234.35605035 44.80587061 238.93766022 43.56043625 C243.76578085 42.25005927 248.59661131 40.94975363 253.42724609 39.64868164 C261.45709242 37.48489316 269.48553732 35.31597819 277.51318359 33.14404297 C288.87432333 30.07098907 300.24082103 27.01815242 311.609375 23.97265625 C313.39008721 23.49549354 315.17079807 23.0183258 316.95150757 22.54115295 C323.89182155 20.68156789 330.83233192 18.82271652 337.77294922 16.96426392 C342.79158475 15.62031321 347.80997094 14.27543482 352.828125 12.9296875 C353.63030079 12.71458464 354.43247658 12.49948177 355.25896072 12.27786064 C365.53582506 9.52091454 375.80448789 6.73578235 386.06439209 3.91638756 C390.35167953 2.73929297 394.64075917 1.56873158 398.92938232 0.39651489 C402.20343349 -0.50237818 405.47404131 -1.41306405 408.74462891 -2.32446289 C410.66813545 -2.85100371 412.59179035 -3.37700302 414.515625 -3.90234375 C415.79200081 -4.26451492 415.79200081 -4.26451492 417.09416199 -4.63400269 C424.84386256 -6.72465218 424.84386256 -6.72465218 428.49609375 -5.09375 C431.6395269 -0.82167177 432.76372249 3.80775684 434.07714844 8.85668945 C434.31710761 9.75359466 434.55706678 10.65049986 434.80429745 11.57458401 C435.59954368 14.55432963 436.38372303 17.53687323 437.16796875 20.51953125 C437.72805024 22.62642573 438.28883997 24.73313205 438.85029602 26.83966064 C440.34865491 32.46882953 441.83765513 38.10043373 443.3247261 43.73259354 C444.85643741 49.52809253 446.39607585 55.32148364 447.93530273 61.11499023 C449.76523164 68.00426824 451.59451451 74.89371328 453.41990662 81.78419495 C456.76556963 94.4112254 460.13318382 107.03181729 463.546875 119.640625 C463.90754264 120.97473001 464.26815006 122.3088513 464.62869263 123.64299011 C466.54691771 130.73853238 466.54691771 130.73853238 468.47570801 137.83120728 C473.80861752 157.39241546 473.80861752 157.39241546 475.13452148 166.55493164 C475.6523144 169.92215887 476.52930163 173.07705008 477.49609375 176.34375 C477.82609375 177.47683594 478.15609375 178.60992187 478.49609375 179.77734375 C479.43646852 182.85166216 479.43646852 182.85166216 480.5625 185.5546875 C481.43523729 187.75296301 481.97760919 189.77908552 482.43359375 192.09375 C483.30556974 196.19676878 484.40141395 200.17353535 485.66796875 204.171875 C486.25903281 206.1235016 486.78324746 208.09588678 487.26171875 210.078125 C489.5078061 218.77660875 493.17461268 223.66002466 499.49609375 229.90625 C500.69621229 231.27025027 501.88468046 232.64463223 503.05859375 234.03125 C505.4110297 236.74142966 507.86143085 239.27914601 510.43359375 241.78125 C513.34933576 244.63009162 515.80864904 247.57868431 518.24609375 250.84375 C522.21404375 255.9759488 526.76308131 259.34693854 532.0546875 262.99609375 C534.49609375 264.90625 534.49609375 264.90625 535.49609375 267.90625 C536.82268796 268.58622797 538.15751251 269.25018409 539.49609375 269.90625 C541.15604406 271.37730944 542.76354461 272.90822143 544.33622742 274.472229 C545.0447084 275.17285497 545.0447084 275.17285497 545.76750213 275.88763499 C547.34677601 277.45192309 548.91883505 279.02326307 550.4909668 280.59472656 C551.62253355 281.71867102 552.75450167 282.84221152 553.88684082 283.96537781 C556.95975728 287.01635271 560.0260788 290.07387263 563.09058356 293.13329411 C565.00524506 295.04431245 566.92119833 296.95402594 568.83759499 298.86330414 C575.52253684 305.52375528 582.20174161 312.18990462 588.8762207 318.86083984 C595.09922988 325.08021131 601.33525377 331.28632177 607.57733315 337.48654771 C612.93572196 342.81026277 618.2844678 348.14353903 623.62589675 353.48426986 C626.8164111 356.67399058 630.01079261 359.8595931 633.21509361 363.03546906 C636.2278067 366.02205094 639.22836508 369.02032739 642.21999359 372.02802467 C643.31980488 373.12965421 644.42390248 374.22702361 645.5325489 375.31976128 C647.0458453 376.81265739 648.54290365 378.32017233 650.03691101 379.83233643 C650.87884349 380.67225758 651.72077597 381.51217873 652.58822155 382.37755203 C654.82570126 385.34311251 655.4131836 387.20493506 655.49609375 390.90625 C654.58918285 392.74219799 654.58918285 392.74219799 652.99491882 394.39237976 C652.33932669 395.07592215 651.68373455 395.75946453 651.00827599 396.46372032 C650.17925585 397.26975512 649.35023571 398.07578991 648.49609375 398.90625 C647.75802093 399.62424125 647.75802093 399.62424125 647.00503755 400.35673738 C643.27480317 403.96862556 639.49547532 407.52681741 635.70550537 411.07584 C631.83672341 414.70041122 627.98131139 418.33913758 624.12641907 421.97846985 C623.305125 422.75369669 622.48383094 423.52892352 621.63764918 424.32764208 C610.05079834 435.28140695 598.603803 446.38112805 587.15549183 457.47931385 C577.88373093 466.4595018 568.56764407 475.38200664 559.12524414 484.18286133 C513.55071993 526.7221797 480.23335433 560.87938288 471.65206909 624.09823608 C470.33856048 633.76322663 467.84029566 642.99677187 465.08550072 652.33581161 C463.93140322 656.29352808 462.88358427 660.27863727 461.82763672 664.26342773 C461.42280102 665.77326841 461.01734533 667.28294299 460.61126709 668.79244995 C460.40925438 669.54418865 460.20724167 670.29592735 459.99910736 671.07044601 C459.11310645 674.36579571 458.22622568 677.66090833 457.33928108 680.95600414 C456.18269455 685.25308058 455.02677787 689.55033703 453.87109375 693.84765625 C453.64620144 694.68367937 453.42130913 695.51970249 453.1896019 696.38105965 C450.05056887 708.05498873 446.95392659 719.73945457 443.8866539 731.43243027 C442.64429685 736.16218244 441.39430074 740.88992176 440.14395332 745.61756706 C438.97574199 750.03848097 437.82050483 754.46251657 436.67506027 758.88938046 C436.14284773 760.93667955 435.60389894 762.98205571 435.06176758 765.02674866 C434.40701639 767.4962465 433.76307459 769.96864609 433.13208008 772.44432068 C432.84212158 773.52415726 432.55216309 774.60399384 432.25341797 775.71655273 C432.00888885 776.65280991 431.76435974 777.58906708 431.51242065 778.55369568 C430.28332647 781.39875549 429.22819943 782.4624306 426.49609375 783.90625 C424.45849609 783.90289307 424.45849609 783.90289307 422.20703125 783.34472656 C421.32241211 783.13303833 420.43779297 782.9213501 419.52636719 782.70324707 C418.52637695 782.44023804 417.52638672 782.177229 416.49609375 781.90625 C415.38008789 781.62422729 414.26408203 781.34220459 413.11425781 781.05163574 C409.10944157 780.02337568 405.1149987 778.96026211 401.12109375 777.890625 C399.58948859 777.48284662 398.05781445 777.07532726 396.52607727 776.66804504 C392.38156758 775.56514572 388.23812075 774.45830203 384.09488297 773.35063553 C380.59526103 772.41555129 377.09503313 771.48274677 373.59480381 770.54993916 C361.55998009 767.34255343 349.52762055 764.12597844 337.49609375 760.90625 C336.13261181 760.54137859 336.13261181 760.54137859 334.74158478 760.16913605 C322.2965304 756.83852853 309.85262248 753.50365535 297.40939713 750.16622162 C294.81175393 749.46959748 292.21403806 748.77324494 289.61630249 748.07696533 C273.38908529 743.72722744 257.16335299 739.37322282 240.95913124 734.93846703 C236.69545496 733.77242463 232.4303517 732.61160337 228.1656189 731.44943237 C224.91690054 730.56087307 221.67094771 729.66270959 218.42504883 728.76391602 C216.50744982 728.24058771 214.58973343 727.71768929 212.671875 727.1953125 C211.83124512 726.95901627 210.99061523 726.72272003 210.12451172 726.47926331 C200.37197783 723.84874842 192.90276806 725.62180626 183.31640625 728.296875 C181.95598254 728.66921286 180.59531766 729.04067045 179.23443604 729.41133118 C176.26860798 730.22073146 173.30428839 731.03537308 170.34100342 731.85403442 C162.96613724 733.89088247 155.58362747 735.89977883 148.20193863 737.91172981 C145.49827534 738.64890476 142.79489768 739.38712125 140.09152222 740.12535095 C125.28745653 744.16438363 110.46525676 748.13388487 95.63671875 752.08203125 C94.48985973 752.38742451 93.34300072 752.69281776 92.1613884 753.00746536 C81.83297213 755.75726989 71.50361759 758.50354232 61.17388916 761.24841309 C55.75997491 762.68711104 50.34645357 764.12727953 44.93317795 765.56837845 C42.83591309 766.12641516 40.73850502 766.68391395 38.64094925 767.24085617 C27.61886934 770.16783677 16.6111454 773.13518081 5.63378906 776.22607422 C4.22622439 776.62066849 4.22622439 776.62066849 2.79022408 777.02323437 C-1.61301031 778.2577078 -6.01292406 779.50185079 -10.40737915 780.76722717 C-11.95032595 781.20198289 -13.49339899 781.6362909 -15.03662109 782.07006836 C-16.07014017 782.37465753 -16.07014017 782.37465753 -17.12453842 782.68540001 C-20.91767713 783.73741478 -23.7385453 784.19683767 -27.50390625 782.90625 C-30.38466336 780.02549289 -30.85909208 776.55026544 -31.86035156 772.70898438 C-32.08910477 771.85360958 -32.31785797 770.99823479 -32.55354309 770.11693954 C-33.31950771 767.24630538 -34.07569654 764.37318511 -34.83203125 761.5 C-35.37387463 759.46197379 -35.91634822 757.42411503 -36.45941162 755.38641357 C-37.6228584 751.01584127 -38.78207526 746.64417725 -39.93798828 742.27160645 C-41.75931462 735.38210136 -43.58970993 728.49502791 -45.421875 721.60839844 C-47.29118083 714.58059868 -49.15995814 707.55266137 -51.0255127 700.52386475 C-56.58890683 679.56379559 -62.200189 658.61676668 -67.82756042 637.67379761 C-69.09340423 632.96197428 -70.35804898 628.24982913 -71.62279892 623.5377121 C-71.80578663 622.85596169 -71.98877434 622.17421127 -72.17730713 621.47180176 C-72.48055562 620.33017657 -72.48055562 620.33017657 -72.78993034 619.16548824 C-73.410791 616.8717801 -74.0497254 614.58531894 -74.69751167 612.29918003 C-76.6847218 605.19695701 -78.54050786 598.17277603 -79.71406591 590.8856259 C-84.87809163 558.99951719 -100.77514742 541.5501463 -123.70267916 519.83031678 C-128.32300905 515.41971569 -132.85337246 510.91840808 -137.39437866 506.42643738 C-144.9988595 498.92656725 -152.65084202 491.47980793 -160.34716797 484.07446289 C-168.24893115 476.47109623 -176.12472176 468.84249065 -183.96435547 461.17504883 C-184.45076738 460.69934564 -184.9371793 460.22364244 -185.43833096 459.733524 C-190.74933391 454.53833713 -196.05515209 449.3378668 -201.35993004 444.13632488 C-203.23009485 442.30289178 -205.10030132 440.46950117 -206.97055054 438.63615417 C-207.8830785 437.74137491 -208.79560647 436.84659565 -209.7357868 435.92470187 C-215.15023318 430.62056477 -220.58528596 425.33871589 -226.04009748 420.07610476 C-229.41395613 416.81897873 -232.77870034 413.55253377 -236.14218903 410.28470421 C-237.70468963 408.77156866 -239.27160474 407.26297663 -240.84317398 405.75926208 C-242.98405036 403.7102365 -245.10928194 401.64617468 -247.2315979 399.57795715 C-247.85929726 398.98528559 -248.48699662 398.39261403 -249.13371718 397.78198272 C-251.84691596 395.10971402 -253.34350891 393.38680675 -254.56770325 389.71907234 C-254.49258935 386.40728565 -254.04469851 385.56055388 -251.75546265 383.22938538 C-251.10186138 382.54758272 -250.44826012 381.86578007 -249.77485275 381.16331673 C-249.02544041 380.41848471 -248.27602806 379.67365269 -247.50390625 378.90625 C-246.30146208 377.6688548 -246.30146208 377.6688548 -245.0747261 376.40646172 C-242.23073286 373.49453807 -239.35789491 370.61339928 -236.47900391 367.73608398 C-235.37909016 366.63317224 -234.27937968 365.53005777 -233.17985535 364.42675781 C-230.2131696 361.45129543 -227.24330211 358.47902922 -224.27254534 355.50763202 C-222.41235202 353.64672486 -220.55287385 351.78510615 -218.69364548 349.92323494 C-212.19542186 343.41578058 -205.69464136 336.9108933 -199.19140625 330.40844727 C-193.14803505 324.36567702 -187.11026723 318.31734801 -181.07509387 312.26639122 C-175.87589333 307.05408294 -170.67281178 301.84567022 -165.46673429 296.64023072 C-162.36504462 293.53879497 -159.26489845 290.43585547 -156.16865921 287.32897758 C-153.25594288 284.40652505 -150.33839028 281.4889861 -147.41718483 278.57501984 C-146.35169959 277.51057342 -145.28788813 276.44444826 -144.22596931 275.37644386 C-138.87489104 269.99671305 -133.49496648 264.86120315 -127.38991356 260.32972813 C-123.59470648 257.46526719 -120.24351852 254.10776875 -116.7890625 250.84765625 C-114.50390625 248.90625 -114.50390625 248.90625 -112.50390625 248.90625 C-112.30023438 248.36613281 -112.0965625 247.82601562 -111.88671875 247.26953125 C-109.94576141 243.95235839 -107.21403833 241.62962702 -104.37890625 239.09375 C-103.79431641 238.56112549 -103.20972656 238.02850098 -102.60742188 237.47973633 C-98.91208788 234.12484264 -95.16163656 230.84445391 -91.28515625 227.69921875 C-86.08292021 222.46275747 -83.68095771 217.51493963 -82.1171875 210.4453125 C-81.92924118 209.65530853 -81.74129486 208.86530457 -81.5476532 208.05136108 C-80.95573523 205.54786149 -80.38579777 203.03995759 -79.81640625 200.53125 C-79.42396234 198.85643363 -79.03009359 197.18195046 -78.63476562 195.5078125 C-77.73869312 191.69511505 -76.85234037 187.88056394 -75.99382019 184.05921936 C-75.66401607 182.60986652 -75.32272528 181.16308503 -74.97065735 179.71897888 C-73.84524324 174.98832944 -73.20697774 170.37431604 -72.77488708 165.53434753 C-71.06337149 147.6160905 -65.96440536 130.52613448 -61.17401505 113.24435043 C-59.93282836 108.75370006 -58.70959922 104.25816521 -57.48510742 99.76293945 C-55.98184685 94.24819083 -54.47698167 88.73390594 -52.96388245 83.22184753 C-49.8572883 71.90177466 -46.79768317 60.57039931 -43.79117393 49.22333336 C-43.16054907 46.84346542 -42.52880506 44.46389747 -41.89668274 42.08442688 C-39.52618064 33.16192386 -39.52618064 33.16192386 -37.16793823 24.23617554 C-36.1073832 20.21116327 -35.03461455 16.18950027 -33.9609375 12.16796875 C-33.49831009 10.39885132 -33.49831009 10.39885132 -33.02633667 8.59399414 C-32.73638824 7.51456543 -32.44643982 6.43513672 -32.14770508 5.32299805 C-31.77758049 3.92527412 -31.77758049 3.92527412 -31.39997864 2.49931335 C-26.40459921 -11.95636626 -11.38317091 -3.08296501 0 0 Z " fill="#040403" transform="translate(299.50390625,111.09375)"/>
<path d="M0 0 C3.30281742 0.76610974 5.91472987 1.89375557 8.90234375 3.51953125 C9.86390381 4.04087646 10.82546387 4.56222168 11.81616211 5.09936523 C13.36122437 5.94736694 13.36122437 5.94736694 14.9375 6.8125 C16.0107251 7.39781494 17.0839502 7.98312988 18.18969727 8.58618164 C25.84151197 12.7752384 33.43517464 17.05952825 40.99633789 21.40966797 C47.76182362 25.30196525 54.56102205 29.13078209 61.375 32.9375 C69.42847774 37.4377007 77.47204181 41.95442305 85.5 46.5 C93.48774107 51.02207659 101.48878029 55.5196512 109.5 60 C118.44990193 65.00531552 127.38473999 70.0363346 136.30737305 75.09008789 C141.41195843 77.97911848 146.52345234 80.85513601 151.64453125 83.71484375 C152.75699219 84.33617187 153.86945313 84.9575 155.015625 85.59765625 C157.14374327 86.78526728 159.27259712 87.97156161 161.40234375 89.15625 C166.18217429 91.82362245 170.9451849 94.51784118 175.66796875 97.28515625 C176.88456177 97.9968396 176.88456177 97.9968396 178.12573242 98.72290039 C180 100 180 100 181 102 C179.83520508 104.38818359 179.83520508 104.38818359 178.01953125 107.3984375 C177.02481812 109.06120728 177.02481812 109.06120728 176.01000977 110.75756836 C175.27766995 111.96347818 174.54516262 113.16928628 173.8125 114.375 C173.06689842 115.61487794 172.32203077 116.85519752 171.57788086 118.09594727 C170.08286961 120.58592793 168.5835261 123.07321001 167.08007812 125.55810547 C165.33016728 128.45097521 163.59135696 131.3502557 161.859375 134.25390625 C156.22392113 143.69757256 150.51990969 153.09971205 144.8125 162.5 C144.45808838 163.08394531 144.10367676 163.66789063 143.73852539 164.26953125 C139.97042336 170.47762677 136.19704699 176.68237621 132.40510559 182.87594604 C130.83349593 185.44377503 129.26468517 188.01330821 127.69613647 190.58300781 C126.94691546 191.80864279 126.19630856 193.03343178 125.44424438 194.25732422 C124.39818845 195.95980323 123.3571911 197.66538724 122.31640625 199.37109375 C121.72287354 200.33974365 121.12934082 201.30839355 120.51782227 202.30639648 C119.10014823 204.82227193 117.99846175 207.29428244 117 210 C119.67247634 212.34287418 119.67247634 212.34287418 123 213 C124.24427436 211.35745387 124.24427436 211.35745387 125.44140625 209.171875 C125.93415039 208.32310791 126.42689453 207.47434082 126.93457031 206.59985352 C127.47178711 205.65940186 128.00900391 204.7189502 128.5625 203.75 C129.73395262 201.73207084 130.90722075 199.71519484 132.08203125 197.69921875 C132.71189941 196.61688965 133.34176758 195.53456055 133.99072266 194.41943359 C137.51164806 188.42744317 141.13304268 182.49683334 144.75 176.5625 C146.2113139 174.16168731 147.67202849 171.76051013 149.1328125 169.359375 C149.80860352 168.24884766 150.48439453 167.13832031 151.18066406 165.99414062 C155.37625557 159.08931853 159.51913772 152.15298531 163.66259766 145.21679688 C167.50178581 138.79223905 171.35222127 132.37465274 175.21679688 125.96533203 C176.83605924 123.27262109 178.44238986 120.57262145 180.046875 117.87109375 C180.92623114 116.41354802 181.80637217 114.95647537 182.6875 113.5 C183.26552368 112.51302124 183.26552368 112.51302124 183.85522461 111.50610352 C186.45678367 107.25570987 186.45678367 107.25570987 188.78515625 106.15966797 C191.99862137 105.92800944 193.70690876 107.13674179 196.48828125 108.7265625 C198.11854248 109.64610718 198.11854248 109.64610718 199.78173828 110.58422852 C200.95877387 111.26428665 202.13569148 111.94454902 203.3125 112.625 C204.53303678 113.31877988 205.7542371 114.01139361 206.97607422 114.70288086 C209.46618114 116.1145839 211.9522959 117.53294044 214.43505859 118.95751953 C218.56181055 121.3248111 222.70544929 123.66177005 226.85009766 125.99755859 C229.63551368 127.56842932 232.41750704 129.14523697 235.19921875 130.72265625 C239.36033148 133.07858565 243.53091475 135.41686432 247.70703125 137.74609375 C249.39094971 138.68569946 249.39094971 138.68569946 251.10888672 139.64428711 C253.26449942 140.84604831 255.42101805 142.04618657 257.57861328 143.24438477 C263.15377646 146.35352255 268.62029486 149.56314427 274 153 C272.40596353 163.92745504 269.31582299 174.51537859 266.453125 185.16015625 C265.88759569 187.27583484 265.32244993 189.39161599 264.75765991 191.50749207 C263.24122751 197.18406988 261.71939136 202.85918572 260.19641876 208.53401184 C258.61155527 214.44278319 257.03140231 220.35281409 255.45068359 226.26269531 C252.88047632 235.86942339 250.30714545 245.47530966 247.73144531 255.08056641 C244.82227444 265.92942881 241.91810282 276.77961886 239.0168457 287.63059998 C236.78644662 295.97244878 234.55329257 304.31355961 232.31980896 312.65458298 C231.63218141 315.22317426 230.94501061 317.79188736 230.25793457 320.36062622 C225.64213896 337.61360149 221.00508798 354.85475124 216 372 C206.96806545 370.5726947 198.21050873 368.30160391 189.3984375 365.90625 C187.84128066 365.48662388 186.28401088 365.06741664 184.72663879 364.64859009 C181.37137106 363.74536656 178.01686354 362.83939088 174.66293335 361.93121338 C169.29247569 360.4770294 163.92043586 359.02875458 158.5480957 357.58154297 C152.80853175 356.03518308 147.06905321 354.48851162 141.33009338 352.93991089 C126.56441127 348.95608639 111.79321983 344.99308413 97.01953125 341.0390625 C94.8402081 340.45567507 92.66088681 339.87228071 90.48156738 339.28887939 C81.97775492 337.01256415 73.47385633 334.73657133 64.96966553 332.46166992 C42.28893874 326.39387585 19.6169667 320.30199832 -3 314 C-3.12178614 275.36893839 -3.02634847 236.74395683 -2.59428024 198.11487961 C-2.56298688 195.29389023 -2.53284385 192.47289061 -2.50296021 189.65188599 C-2.24347129 165.42590617 -1.76180235 141.21552403 -1 117 C1.92062713 120.58068811 4.3056465 124.09342736 6.53125 128.1484375 C6.84904419 128.72405426 7.16683838 129.29967102 7.4942627 129.89273071 C8.50064623 131.7177355 9.50050335 133.54621609 10.5 135.375 C11.17012407 136.59399685 11.84069341 137.81274904 12.51171875 139.03125 C13.78525728 141.34396387 15.05723259 143.65750742 16.328125 145.97167969 C18.18491607 149.33494435 20.0771138 152.67419173 22 156 C23.98498051 155.07487334 25.96286018 154.13449763 27.9375 153.1875 C29.03964844 152.66542969 30.14179687 152.14335938 31.27734375 151.60546875 C34.28740777 150.23205279 34.28740777 150.23205279 35 147 C34.03784379 144.61133841 34.03784379 144.61133841 32.4921875 142.046875 C31.92395264 141.04648193 31.35571777 140.04608887 30.77026367 139.01538086 C30.14482666 137.93780518 29.51938965 136.86022949 28.875 135.75 C28.23989502 134.6369751 27.60479004 133.5239502 26.95043945 132.37719727 C25.62626358 130.05722275 24.29899518 127.73937588 22.96630859 125.42431641 C21.12700234 122.22117392 19.303384 119.00987499 17.48828125 115.79296875 C16.93696533 114.81658447 16.38564941 113.8402002 15.81762695 112.83422852 C14.73256064 110.9060704 13.65165067 108.97556729 12.57495117 107.04272461 C9.88097695 102.22564313 7.13199779 97.52362814 3.9921875 92.98193359 C0.21052571 86.69378864 -1.5421884 81.93319258 -1.26171875 74.55859375 C-1.2460083 73.71693665 -1.23029785 72.87527954 -1.21411133 72.00811768 C-1.17730292 70.09032381 -1.13237072 68.17267493 -1.0809021 66.25521851 C-0.99158753 62.66151141 -0.93895427 59.06838194 -0.8918457 55.47387695 C-0.7908807 47.78969615 -0.66608006 40.10604639 -0.53643799 32.42230225 C-0.47490978 28.75421082 -0.41528078 25.08608849 -0.35546875 21.41796875 C-0.23878677 14.27861539 -0.12007904 7.1392971 0 0 Z " fill="#A53AFD" transform="translate(505,510)"/>
<path d="M0 0 C0.16604736 0.64960693 0.33209473 1.29921387 0.50317383 1.96850586 C1.26961522 4.95903627 2.04102548 7.94826422 2.8125 10.9375 C3.07353516 11.95908203 3.33457031 12.98066406 3.60351562 14.03320312 C4.99621081 19.41485243 6.52622163 24.68536635 8.33227539 29.94165039 C9.37745171 33.16354493 10.08553142 36.44378673 10.8125 39.75 C12.30356056 46.3403842 14.04505085 52.82650068 15.9375 59.3125 C17.93921317 66.17730551 19.80586991 73.05283304 21.5 80 C23.15966569 86.7994262 24.97740117 93.53110453 26.9375 100.25 C29.42958115 108.79975532 31.6269616 117.40022747 33.74755859 126.04882812 C35.59564299 133.52796418 37.65345015 140.92708385 39.8137207 148.32128906 C41.81722098 155.22626859 43.5960942 162.17358431 45.26391602 169.16699219 C46.19612355 173.02255382 47.2276314 176.78204891 48.515625 180.53515625 C49.99960446 184.86496224 51.0750702 189.22171665 52.0625 193.6875 C52.9391793 197.62023406 53.81270294 201.45377129 55.12109375 205.26953125 C56 208 56 208 56 212 C53.515625 213.88671875 53.515625 213.88671875 50.25 215.6875 C49.18265625 216.28949219 48.1153125 216.89148438 47.015625 217.51171875 C44.59866405 218.70454533 42.6271391 219.52175866 40 220 C40 220.66 40 221.32 40 222 C38.6875 222.72916667 37.375 223.45833333 36.0625 224.1875 C35.24265625 224.64382813 34.4228125 225.10015625 33.578125 225.5703125 C31.92483837 226.48713509 30.26881306 227.39904647 28.609375 228.3046875 C25.17631032 230.18469911 21.83158817 232.06392953 18.625 234.3125 C16 236 16 236 13 236 C13 236.66 13 237.32 13 238 C11.82244141 238.56267578 11.82244141 238.56267578 10.62109375 239.13671875 C4.66337638 242.03882156 -0.71681447 245.01065582 -6 249 C-10.55172414 252 -10.55172414 252 -14 252 C-14 252.66 -14 253.32 -14 254 C-15.17755859 254.56267578 -15.17755859 254.56267578 -16.37890625 255.13671875 C-22.34441509 258.04261692 -27.68833177 261.04228642 -33 265 C-34.67861472 265.98183125 -36.35810859 266.96280409 -38.05859375 267.90625 C-40.36040393 269.20304447 -42.61542497 270.56848391 -44.875 271.9375 C-48.19018643 273.92863332 -51.51387905 275.89975683 -54.875 277.8125 C-55.57367187 278.21082031 -56.27234375 278.60914063 -56.9921875 279.01953125 C-58.98792806 279.99410495 -60.83153434 280.54783115 -63 281 C-63 281.66 -63 282.32 -63 283 C-64.3125 283.72916667 -65.625 284.45833333 -66.9375 285.1875 C-67.75734375 285.64382813 -68.5771875 286.10015625 -69.421875 286.5703125 C-71.07516163 287.48713509 -72.73118694 288.39904647 -74.390625 289.3046875 C-77.82368968 291.18469911 -81.16841183 293.06392953 -84.375 295.3125 C-87 297 -87 297 -90 297 C-90 297.66 -90 298.32 -90 299 C-91.3125 299.72916667 -92.625 300.45833333 -93.9375 301.1875 C-94.75734375 301.64382813 -95.5771875 302.10015625 -96.421875 302.5703125 C-98.07516163 303.48713509 -99.73118694 304.39904647 -101.390625 305.3046875 C-104.82368968 307.18469911 -108.16841183 309.06392953 -111.375 311.3125 C-114 313 -114 313 -117 313 C-117 313.66 -117 314.32 -117 315 C-117.78503906 315.37511719 -118.57007813 315.75023437 -119.37890625 316.13671875 C-125.33662362 319.03882156 -130.71681447 322.01065582 -136 326 C-140.55172414 329 -140.55172414 329 -144 329 C-144 329.66 -144 330.32 -144 331 C-144.78503906 331.37511719 -145.57007813 331.75023437 -146.37890625 332.13671875 C-153.47970918 335.56839662 -153.47970918 335.56839662 -160.0625 339.875 C-163 342 -163 342 -166 342 C-166 342.66 -166 343.32 -166 344 C-167.3125 344.72916667 -168.625 345.45833333 -169.9375 346.1875 C-170.75734375 346.64382813 -171.5771875 347.10015625 -172.421875 347.5703125 C-174.07516163 348.48713509 -175.73118694 349.39904647 -177.390625 350.3046875 C-180.82368968 352.18469911 -184.16841183 354.06392953 -187.375 356.3125 C-190 358 -190 358 -193 358 C-193 358.66 -193 359.32 -193 360 C-194.01707031 360.54527344 -194.01707031 360.54527344 -195.0546875 361.1015625 C-200.81118981 364.21103051 -206.45281586 367.4345571 -212.00390625 370.8984375 C-214 372 -214 372 -216 372 C-216.17391821 362.60429225 -216.34014666 353.20845695 -216.5 343.8125 C-216.51187725 343.11463127 -216.5237545 342.41676254 -216.53599167 341.69774628 C-216.96846344 316.13028065 -217.12894788 290.57135571 -217 265 C-210.48091997 261.58900166 -203.80701622 258.84852347 -196.953125 256.18359375 C-195.20524689 255.49874657 -195.20524689 255.49874657 -193.42205811 254.80006409 C-190.32350224 253.58674476 -187.22373383 252.37663405 -184.12329102 251.16815186 C-181.073386 249.9785776 -178.02504467 248.78501175 -174.9765625 247.59179688 C-170.12890426 245.69478632 -165.28051962 243.79964959 -160.43164062 241.90576172 C-148.61423234 237.28800023 -136.80750041 232.64302409 -125 228 C-125.99 224.04 -126.98 220.08 -128 216 C-142.67869757 220.97598212 -157.04610539 226.69198543 -171.4375 232.4375 C-176.03990711 234.27068123 -180.64295093 236.10226077 -185.24609375 237.93359375 C-186.34504974 238.37093842 -187.44400574 238.80828308 -188.57626343 239.25888062 C-195.24325177 241.91012572 -201.91431778 244.55037454 -208.59765625 247.16015625 C-209.71979774 247.6001017 -209.71979774 247.6001017 -210.86460876 248.04893494 C-215.88084299 250 -215.88084299 250 -217 250 C-217.76232568 236.25107201 -218.1401602 222.56174792 -218.09765625 208.79296875 C-218.09578325 206.96210265 -218.09436354 205.13123605 -218.09336853 203.30036926 C-218.08961259 198.56103039 -218.07984458 193.82172385 -218.06866455 189.08239746 C-218.05829846 184.21444129 -218.0538389 179.34647973 -218.04882812 174.47851562 C-218.03821351 164.98566314 -218.02122428 155.49283429 -218 146 C-208.66668252 145.96954906 -199.33335899 145.94907774 -190 145.9375 C-189.31475754 145.93664398 -188.62951508 145.93578796 -187.92350769 145.93490601 C-167.26509746 145.9120866 -146.64097086 146.07676169 -126 147 C-126 143.37 -126 139.74 -126 136 C-127.01046387 136.00523682 -128.02092773 136.01047363 -129.06201172 136.01586914 C-158.72063402 136.15462677 -188.34996829 135.69374063 -218 135 C-219.20994726 80.29316857 -219.20994726 80.29316857 -219 58 C-208.40409415 55.06530491 -197.80838656 52.1633122 -187.125 49.5625 C-178.57493866 47.47494364 -170.15352762 45.02442781 -161.71801758 42.51806641 C-155.28064329 40.62102982 -148.84093855 38.95051225 -142.29345703 37.48583984 C-135.78836207 36.00818934 -129.40952712 34.1476816 -123.00708008 32.28100586 C-117.03418251 30.55093643 -111.04105123 28.97328165 -105 27.5 C-96.22887433 25.35752765 -87.56349144 22.91347182 -78.890625 20.40625 C-69.94520351 17.82278464 -60.94417101 15.47337696 -51.90332031 13.24804688 C-42.18748126 10.85379994 -32.56946585 8.20431895 -22.95703125 5.42578125 C-18.43962537 4.12121953 -13.91415686 2.85172328 -9.375 1.625 C-8.20710937 1.30789062 -7.03921875 0.99078125 -5.8359375 0.6640625 C-3 0 -3 0 0 0 Z " fill="#15FD00" transform="translate(721,118)"/>
<path d="M0 0 C3.30037971 2.12958417 5.93748217 4.87345292 8.68741989 7.6501255 C9.33195531 8.29295207 9.97649073 8.93577864 10.64055753 9.59808481 C12.80258375 11.75681251 14.95737657 13.92261887 17.11228561 16.08844948 C18.65922444 17.63595234 20.20660359 19.18301516 21.75439072 20.72966957 C25.95892353 24.93362757 30.1572529 29.14373217 34.35451794 33.35494471 C38.74052115 37.75343378 43.13217275 42.14627569 47.52323532 46.53971291 C54.89387097 53.91586241 62.2610037 61.29549533 69.62546921 68.67780495 C77.21068979 76.28138538 84.79800947 83.88286106 92.38816452 91.48151588 C92.85607193 91.94994874 93.32397934 92.4183816 93.80606577 92.9010094 C96.15344799 95.25100171 98.50087383 97.60095044 100.84831572 99.95088315 C120.32055907 119.44404272 139.7856548 138.94432663 159.24607468 158.44928932 C157.59484564 162.67764367 154.46272339 165.52598304 151.31339645 168.66958046 C150.39225866 169.60068997 150.39225866 169.60068997 149.45251203 170.55060977 C147.39075735 172.63207047 145.32188729 174.70630778 143.25291061 176.78058815 C141.774304 178.27008847 140.2960877 179.75997632 138.81823349 181.25022316 C134.80057542 185.29839817 130.77617702 189.33980432 126.74958324 193.37908959 C124.23574702 195.9010062 121.7229648 198.42396858 119.21046829 200.94721985 C111.35367951 208.83672356 103.49249606 216.72181264 95.62543178 224.60107023 C86.53459087 233.70618423 77.4587746 242.82593622 68.39550757 251.95849591 C61.39370583 259.01198419 54.37860478 266.05206284 47.35324121 273.08208293 C43.15487128 277.28385885 38.96248545 281.49122772 34.78390884 285.71269608 C30.8560456 289.68016965 26.91201377 293.63080797 22.95475197 297.56895256 C21.50304582 299.01938759 20.05734528 300.47586143 18.61807823 301.93864059 C16.65666663 303.93025934 14.67504461 305.89925326 12.68668747 307.8639164 C11.83364961 308.74549273 11.83364961 308.74549273 10.96337867 309.64487869 C9.33699799 311.22528744 9.33699799 311.22528744 6.24607468 313.44928932 C1.8593108 313.34456162 -1.16154471 311.94584345 -4.92970657 309.78132057 C-5.90955521 309.22500954 -6.88940384 308.6686985 -7.89894485 308.09552956 C-8.94421341 307.49039528 -9.98948196 306.885261 -11.06642532 306.26178932 C-13.32018511 304.97767806 -15.57409558 303.69383124 -17.82814407 302.41022682 C-18.99017884 301.7446906 -20.1521254 301.07900036 -21.31398392 300.41315651 C-26.64850312 297.3676723 -32.01470238 294.37952771 -37.37892532 291.38678932 C-45.65654312 286.75301666 -53.92821458 282.1087061 -62.19142532 277.44928932 C-63.10810989 276.93358376 -64.02479446 276.41787819 -64.96925735 275.88654518 C-70.95768658 272.50477273 -76.87372032 269.0158285 -82.75392532 265.44928932 C-82.05783157 264.34069557 -81.36173782 263.23210182 -80.64455032 262.08991432 C-77.55791675 257.15043479 -74.5286217 252.17686383 -71.50392532 247.19928932 C-70.90765335 246.21855446 -70.31138138 245.2378196 -69.69704056 244.22736549 C-68.40507626 242.10209004 -67.11333648 239.97667809 -65.82179642 237.85114479 C-64.0274063 234.89919298 -62.23159863 231.94811291 -60.43504715 228.99747658 C-58.92926065 226.52396034 -57.42444944 224.04985163 -55.91981888 221.5756321 C-55.19646577 220.3865289 -54.47276394 219.19763776 -53.7486763 218.0089817 C-48.99542868 210.20503455 -44.32943753 202.35863199 -39.75392532 194.44928932 C-42.06392532 193.12928932 -44.37392532 191.80928932 -46.75392532 190.44928932 C-47.03284622 191.18381325 -47.31176712 191.91833717 -47.59914017 192.6751194 C-48.65634951 195.21488044 -49.83087671 197.47263194 -51.23048782 199.83600807 C-51.72862991 200.67937721 -52.226772 201.52274635 -52.74000931 202.39167213 C-53.28085159 203.29756081 -53.82169388 204.20344948 -54.37892532 205.13678932 C-54.94361526 206.08779518 -55.50830521 207.03880104 -56.09010696 208.01862526 C-62.5967466 218.93389923 -69.27501869 229.74441945 -75.97609329 240.5410862 C-78.22408362 244.218381 -80.3797655 247.94695698 -82.51198196 251.69245338 C-82.92182327 252.27220924 -83.33166458 252.8519651 -83.75392532 253.44928932 C-84.41392532 253.44928932 -85.07392532 253.44928932 -85.75392532 253.44928932 C-86.06330032 254.23303932 -86.37267532 255.01678932 -86.69142532 255.82428932 C-87.75392532 258.44928932 -87.75392532 258.44928932 -88.75392532 260.44928932 C-92.78600118 259.85142035 -95.72955608 258.56143103 -99.26955032 256.56257057 C-100.87975052 255.66030739 -100.87975052 255.66030739 -102.52248001 254.73981667 C-103.68302714 254.08058927 -104.84350717 253.42124373 -106.00392532 252.76178932 C-107.21352191 252.0809658 -108.42348876 251.40079974 -109.63380814 250.72126198 C-112.12501251 249.3213625 -114.61411511 247.91783125 -117.10158157 246.51130104 C-121.53057079 244.00824488 -125.97303843 241.52947004 -130.41505814 239.04963112 C-140.32566876 233.51388299 -150.2120635 227.93563761 -160.09083939 222.34333229 C-167.13398112 218.35849208 -174.19114983 214.39921191 -181.25392532 210.44928932 C-190.20668508 205.44237553 -199.14381535 200.40877161 -208.07008743 195.3548069 C-215.30669524 191.26027104 -222.55916946 187.19459813 -229.81642532 183.13678932 C-238.48925745 178.28724901 -247.1436085 173.40907826 -255.75392532 168.44928932 C-255.75392532 167.78928932 -255.75392532 167.12928932 -255.75392532 166.44928932 C-230.20251668 165.15380708 -204.64987114 164.13733568 -179.07844925 163.3268528 C-162.0045398 162.78490952 -144.94249106 162.12614351 -127.87892532 161.32428932 C-110.81990635 160.52429436 -93.8311348 160.2064854 -76.75392532 160.44928932 C-76.75392532 155.82928932 -76.75392532 151.20928932 -76.75392532 146.44928932 C-77.99625931 146.49940163 -79.23859329 146.54951393 -80.51857376 146.60114479 C-85.39750297 146.79780463 -90.27645474 146.99390003 -95.15541458 147.18979836 C-97.38743334 147.27944608 -99.61944832 147.36918808 -101.8514595 147.45902443 C-114.95378619 147.98604421 -128.05640905 148.50223207 -141.16017532 148.99225807 C-143.50164687 149.08030643 -145.84311822 149.16835975 -148.18458939 149.25641823 C-151.56405609 149.38340767 -154.94354246 149.50958306 -158.32313919 149.63306618 C-172.19131613 150.11279547 -172.19131613 150.11279547 -186.03908157 150.97663307 C-193.80853009 151.58027297 -201.57975906 151.73171212 -209.36842728 151.89512062 C-213.76142609 151.98760535 -218.15415623 152.09132819 -222.54689407 152.19538307 C-223.41643723 152.2158419 -224.28598038 152.23630074 -225.18187332 152.25737953 C-236.71015919 152.53531259 -248.23216329 152.97480998 -259.75392532 153.44928932 C-257.12981925 150.47110082 -254.06215399 148.73319342 -250.64455032 146.75397682 C-250.04603256 146.40545158 -249.4475148 146.05692635 -248.83086014 145.69783974 C-247.55304016 144.95441558 -246.27400024 144.213085 -244.99385452 143.47367287 C-242.31701093 141.92752742 -239.64600254 140.37142992 -236.97459793 138.81591225 C-235.66104695 138.05122584 -234.3471862 137.28707127 -233.03300858 136.5234623 C-228.71059412 134.01136826 -224.40912597 131.4700163 -220.12892532 128.88678932 C-213.44095553 124.85228318 -206.72457043 120.86659105 -200.00392532 116.88678932 C-199.42559952 116.54429146 -198.84727371 116.20179359 -198.25142288 115.84891701 C-195.27518434 114.0864008 -192.29877609 112.32417145 -189.3222847 110.56208229 C-183.6317075 107.19304854 -177.94294166 103.82095782 -172.25392532 100.44928932 C-170.01044101 99.11985335 -167.76695141 97.79042629 -165.52345657 96.46100807 C-161.5365011 94.09838917 -157.54968848 91.73552969 -153.56309891 89.37229347 C-141.74317135 82.36549714 -129.9205892 75.36328193 -118.08937454 68.37555885 C-107.45611807 62.09410736 -96.83314919 55.79529579 -86.20949173 49.49762917 C-80.55802449 46.14752747 -74.90592802 42.79848752 -69.25392532 39.44928932 C-67.00392268 38.11596045 -64.75392268 36.78262712 -62.50392532 35.44928932 C-58.00392532 32.78262266 -53.50392532 30.11595599 -49.00392532 27.44928932 C-47.8883223 26.78783913 -46.77271927 26.12638893 -45.62331009 25.44489479 C-43.39327618 24.1240994 -41.16200989 22.80538237 -38.92946243 21.4888401 C-33.62891471 18.35964315 -28.34517698 15.21063844 -23.10161209 11.98707008 C-20.61220717 10.45839652 -18.11576677 8.94143341 -15.61867142 7.42536354 C-14.42514025 6.69618099 -13.2351215 5.96121531 -12.0488472 5.22028542 C-10.40863768 4.19632072 -8.75537611 3.19335235 -7.10158157 2.19147682 C-5.69404617 1.32305153 -5.69404617 1.32305153 -4.25807571 0.43708229 C-1.75392532 -0.55071068 -1.75392532 -0.55071068 0 0 Z " fill="#56DFFD" transform="translate(781.7539253234863,340.5507106781006)"/>
<path d="M0 0 C0.99 0 1.98 0 3 0 C3.35078613 0.63164063 3.70157227 1.26328125 4.06298828 1.9140625 C10.07996841 12.73566071 16.0990652 23.55043685 22.38574219 34.21826172 C23.55710566 36.21799819 24.71377456 38.22640649 25.85644531 40.24267578 C28.5275532 44.93870465 31.21279514 49.38070134 34.546875 53.63671875 C43.73952017 66.1484902 43.65449518 77.66534364 43.34765625 92.58203125 C43.32244494 94.76951827 43.29989665 96.95703732 43.2797699 99.14457703 C43.23271782 103.89554551 43.17145128 108.6460535 43.10083008 113.39672852 C42.98926141 121.24737194 42.93994122 129.09795517 42.90234375 136.94921875 C42.8886762 139.71114159 42.87484378 142.47306358 42.86096191 145.23498535 C42.85751565 145.92714441 42.8540694 146.61930346 42.8505187 147.33243704 C42.81048142 155.17679223 42.75261431 163.02100443 42.69335938 170.86523438 C42.68795608 171.58113959 42.68255278 172.29704481 42.67698574 173.03464413 C42.66886285 174.11015325 42.66886285 174.11015325 42.66057587 175.20738983 C42.6496119 176.65933736 42.63864846 178.11128489 42.62768555 179.56323242 C42.62223362 180.28325455 42.6167817 181.00327668 42.61116457 181.74511766 C42.57258313 186.8739271 42.53692695 192.00275168 42.50268555 197.1315918 C42.07964262 260.33087365 42.07964262 260.33087365 41 291 C39.93096436 291.26225121 39.93096436 291.26225121 38.84033203 291.52980042 C27.06516194 294.42040458 15.34482322 297.35543901 3.75390625 300.921875 C1.03374106 301.70310871 -1.6154282 302.37614676 -4.375 302.96875 C-9.17604333 304.0037788 -13.85437033 305.35896169 -18.5625 306.75 C-26.41746733 309.03714843 -34.3041923 311.11535094 -42.25 313.0625 C-49.72789338 314.89633193 -57.12446012 316.86319165 -64.48925781 319.10571289 C-71.64015296 321.25252037 -78.88723104 322.99101434 -86.13671875 324.76953125 C-91.97136999 326.21155532 -97.75072469 327.74923836 -103.5 329.5 C-111.29919324 331.87499991 -119.18675437 333.82025695 -127.10375977 335.76074219 C-133.97091752 337.45682429 -140.75450868 339.33666972 -147.52539062 341.38012695 C-152.31795583 342.82110264 -157.0967529 344.01552739 -162 345 C-163.68817053 345.37196978 -165.37567752 345.74696405 -167.0625 346.125 C-168.375 346.41666667 -169.6875 346.70833333 -171 347 C-171.62849414 344.85518747 -172.25260258 342.70908965 -172.875 340.5625 C-173.39707031 338.77005859 -173.39707031 338.77005859 -173.9296875 336.94140625 C-174.70483598 334.18536162 -175.36036266 331.42410776 -175.9609375 328.625 C-177.00274286 323.82565476 -178.35901175 319.14546022 -179.75 314.4375 C-182.03714843 306.58253267 -184.11535094 298.6958077 -186.0625 290.75 C-187.89633193 283.27210662 -189.86319165 275.87553988 -192.10571289 268.51074219 C-194.25252037 261.35984704 -195.99101434 254.11276896 -197.76953125 246.86328125 C-199.21155532 241.02863001 -200.74923836 235.24927531 -202.5 229.5 C-204.87588033 221.69791557 -206.82163232 213.80736306 -208.76293945 205.88745117 C-210.43685304 199.11023473 -212.2911616 192.41781485 -214.31640625 185.73828125 C-215.8436573 180.66066737 -217.04613611 175.55786015 -218.1875 170.3828125 C-219.15931177 166.33671156 -220.31194745 162.36202382 -221.5 158.375 C-221.71479004 157.65151367 -221.92958008 156.92802734 -222.15087891 156.18261719 C-223.09803628 153.00126994 -224.05402082 149.82309212 -225.0234375 146.6484375 C-225.30445313 145.69195313 -225.58546875 144.73546875 -225.875 143.75 C-226.11992187 142.94046875 -226.36484375 142.1309375 -226.6171875 141.296875 C-227.08757329 138.47456028 -226.96255802 136.70222711 -226 134 C-224.03125 132.375 -224.03125 132.375 -221.5 131 C-220.60152344 130.50242187 -219.70304688 130.00484375 -218.77734375 129.4921875 C-217.86082031 128.99976563 -216.94429687 128.50734375 -216 128 C-215.15566406 127.50757813 -214.31132812 127.01515625 -213.44140625 126.5078125 C-207.40677966 123 -207.40677966 123 -204 123 C-204 122.34 -204 121.68 -204 121 C-201.7140617 119.4670058 -199.44192427 118.06139469 -197.0625 116.6875 C-196.37897461 116.28668213 -195.69544922 115.88586426 -194.99121094 115.47290039 C-192.9982661 114.30799351 -190.99940865 113.15376391 -189 112 C-188.04480469 111.43796875 -187.08960938 110.8759375 -186.10546875 110.296875 C-180.39278017 107 -180.39278017 107 -177 107 C-177 106.34 -177 105.68 -177 105 C-175.12890625 103.66796875 -175.12890625 103.66796875 -172.5625 102.1875 C-171.19738281 101.39472656 -171.19738281 101.39472656 -169.8046875 100.5859375 C-166.53767098 98.73857161 -163.26577433 96.9020327 -159.97265625 95.1015625 C-158.32655036 94.18235089 -156.71988153 93.19296879 -155.125 92.1875 C-153 91 -153 91 -150 91 C-150 90.34 -150 89.68 -150 89 C-148.12890625 87.66796875 -148.12890625 87.66796875 -145.5625 86.1875 C-144.19738281 85.39472656 -144.19738281 85.39472656 -142.8046875 84.5859375 C-139.53767098 82.73857161 -136.26577433 80.9020327 -132.97265625 79.1015625 C-131.32655036 78.18235089 -129.71988153 77.19296879 -128.125 76.1875 C-126 75 -126 75 -123 75 C-123 74.34 -123 73.68 -123 73 C-121.12890625 71.66796875 -121.12890625 71.66796875 -118.5625 70.1875 C-117.655 69.66285156 -116.7475 69.13820313 -115.8125 68.59765625 C-114.884375 68.07042969 -113.95625 67.54320312 -113 67 C-111.7315625 66.25556641 -111.7315625 66.25556641 -110.4375 65.49609375 C-104.38158832 62 -104.38158832 62 -101 62 C-101 61.34 -101 60.68 -101 60 C-98.7140617 58.4670058 -96.44192427 57.06139469 -94.0625 55.6875 C-93.37897461 55.28668213 -92.69544922 54.88586426 -91.99121094 54.47290039 C-89.9982661 53.30799351 -87.99940865 52.15376391 -86 51 C-85.04480469 50.43796875 -84.08960938 49.8759375 -83.10546875 49.296875 C-77.39278017 46 -77.39278017 46 -74 46 C-74 45.34 -74 44.68 -74 44 C-72.12890625 42.66796875 -72.12890625 42.66796875 -69.5625 41.1875 C-68.65242187 40.65898438 -67.74234375 40.13046875 -66.8046875 39.5859375 C-63.53767098 37.73857161 -60.26577433 35.9020327 -56.97265625 34.1015625 C-55.32655036 33.18235089 -53.71988153 32.19296879 -52.125 31.1875 C-50 30 -50 30 -47 30 C-47 29.34 -47 28.68 -47 28 C-45.12890625 26.66796875 -45.12890625 26.66796875 -42.5625 25.1875 C-41.65242187 24.65898438 -40.74234375 24.13046875 -39.8046875 23.5859375 C-36.53767098 21.73857161 -33.26577433 19.9020327 -29.97265625 18.1015625 C-28.32655036 17.18235089 -26.71988153 16.19296879 -25.125 15.1875 C-23 14 -23 14 -20 14 C-20 13.34 -20 12.68 -20 12 C-18.12890625 10.66796875 -18.12890625 10.66796875 -15.5625 9.1875 C-14.65757812 8.6615625 -13.75265625 8.135625 -12.8203125 7.59375 C-9.46519828 5.69778518 -6.10146801 3.81960214 -2.71484375 1.98046875 C-1.02817906 1.11580598 -1.02817906 1.11580598 0 0 Z " fill="#FE0000" transform="translate(450,535)"/>
<path d="M0 0 C3.54823215 1.39025746 6.82695785 2.92774571 10.1484375 4.80078125 C11.14166016 5.35894531 12.13488281 5.91710937 13.15820312 6.4921875 C14.21974609 7.09289062 15.28128906 7.69359375 16.375 8.3125 C17.48552734 8.93769531 18.59605469 9.56289063 19.74023438 10.20703125 C23.16208957 12.13461805 26.58140134 14.06664454 30 16 C31.49321777 16.84377197 31.49321777 16.84377197 33.01660156 17.70458984 C36.78887582 19.83621398 40.56083496 21.96838951 44.33154297 24.1027832 C51.37635198 28.08889971 58.43540991 32.04906258 65.5 36 C73.51122063 40.48034932 81.51216954 44.9780803 89.5 49.5 C107.61761871 59.75428096 125.79177067 69.90757148 144 80 C144 80.66 144 81.32 144 82 C143.03126953 82.3724585 143.03126953 82.3724585 142.04296875 82.75244141 C122.76813523 90.17167025 103.53603853 97.6989784 84.3125 105.25 C83.11343018 105.72076965 81.91436035 106.19153931 80.67895508 106.67657471 C77.15676185 108.05965786 73.63492968 109.4436553 70.11328125 110.828125 C68.43155319 111.48891556 68.43155319 111.48891556 66.71585083 112.16305542 C61.44080341 114.23899619 56.17173322 116.32793413 50.91552734 118.45117188 C49.98210007 118.82779968 49.04867279 119.20442749 48.08695984 119.59246826 C46.35536938 120.29276675 44.62499376 120.99607954 42.89607239 121.70294189 C37.21924682 124 37.21924682 124 35 124 C35.433125 125.03060547 35.433125 125.03060547 35.875 126.08203125 C36.24625 126.98308594 36.6175 127.88414062 37 128.8125 C37.37125 129.70582031 37.7425 130.59914063 38.125 131.51953125 C39 134 39 134 39 137 C39.60244034 136.7576915 40.20488068 136.515383 40.82557678 136.26573181 C48.56943745 133.15188124 56.31519888 130.0427806 64.0625 126.9375 C64.99671469 126.56304371 64.99671469 126.56304371 65.9498024 126.18102264 C82.48764328 119.55386011 99.04735395 112.99199781 115.6875 106.625 C117.26851663 106.01850485 118.84949083 105.41189907 120.43041992 104.80517578 C126.87725762 102.33314591 133.32870057 99.87538901 139.79296875 97.44921875 C141.6538732 96.73757344 143.51457479 96.02539725 145.375 95.3125 C146.17252686 95.02133301 146.97005371 94.73016602 147.79174805 94.43017578 C150.10760563 93.57640413 150.10760563 93.57640413 153 92 C153.73571144 89.95877084 153.73571144 89.95877084 154 88 C154.66 88.66 155.32 89.32 156 90 C157.06395996 90.13946045 158.12791992 90.2789209 159.22412109 90.42260742 C163.2925495 91.04473552 165.84250781 92.22938328 169.4140625 94.23828125 C169.99159271 94.56032028 170.56912292 94.88235931 171.16415405 95.2141571 C172.37538705 95.89236606 173.58367249 96.57586405 174.7890625 97.2644043 C176.62100934 98.31022182 178.46174126 99.33894798 180.3046875 100.36523438 C194.50015621 108.34641538 194.50015621 108.34641538 197.7265625 114.53515625 C198.19602295 115.41840576 198.6654834 116.30165527 199.14916992 117.21166992 C199.63619385 118.15244385 200.12321777 119.09321777 200.625 120.0625 C201.67352159 122.04026213 202.72435214 124.01680166 203.77734375 125.9921875 C204.57374268 127.49023926 204.57374268 127.49023926 205.38623047 129.01855469 C208.32833484 134.45410365 211.46721922 139.77459751 214.60986328 145.09594727 C215.04153809 145.83127686 215.47321289 146.56660645 215.91796875 147.32421875 C216.29719482 147.96447998 216.6764209 148.60474121 217.06713867 149.2644043 C218 151 218 151 219 154 C217.60749527 154.05304543 217.60749527 154.05304543 216.18685913 154.10716248 C207.33455941 154.44448403 198.48229294 154.78266688 189.63005638 155.12164211 C185.08167445 155.29578518 180.53328227 155.46964965 175.98486328 155.64282227 C147.4883762 156.72474285 147.4883762 156.72474285 119 158 C119 162.29 119 166.58 119 171 C120.7198259 170.92483154 120.7198259 170.92483154 122.47439575 170.84814453 C133.33041565 170.37405899 144.18657107 169.90319066 155.04286385 169.43539429 C160.62288484 169.19485036 166.20285372 168.95321105 171.78271484 168.70898438 C177.17723416 168.47291176 182.57187533 168.23982624 187.96660995 168.00872803 C190.01490676 167.92047386 192.06315911 167.83118086 194.11136246 167.74078369 C205.08246902 167.25728078 216.01575225 166.85254669 227 167 C233.05676647 177.38302824 233.05676647 177.38302824 232.81420898 180.01928711 C231.74622554 182.61735298 230.6428851 183.16242859 228.1875 184.48828125 C226.96546875 185.16443481 226.96546875 185.16443481 225.71875 185.85424805 C224.8215625 186.33547119 223.924375 186.81669434 223 187.3125 C221.06102601 188.38536121 219.12358676 189.46099972 217.1875 190.5390625 C216.16914063 191.10399414 215.15078125 191.66892578 214.1015625 192.25097656 C209.00463201 195.12522169 204.0050164 198.15690661 199 201.1875 C189.87341828 206.69543471 180.70431586 212.1235605 171.5 217.5 C162.46605028 222.77809376 153.46184466 228.09991412 144.5 233.5 C134.92512743 239.2694745 125.29816211 244.94353963 115.64648438 250.58300781 C106.2051681 256.10124283 96.81275707 261.69528562 87.4465332 267.34033203 C78.96058588 272.44574241 70.41717638 277.44818243 61.86373901 282.43917847 C51.40609395 288.5457009 41.03597205 294.78746948 30.71166992 301.11669922 C27.48259628 303.091577 24.24162451 305.04580877 21 307 C20.38533875 307.38065613 19.77067749 307.76131226 19.13739014 308.15350342 C17.24484446 309.32439855 15.34070308 310.47411241 13.43359375 311.62109375 C12.84981461 311.98880386 12.26603546 312.35651398 11.66456604 312.73536682 C9.99389648 313.72436523 9.99389648 313.72436523 7 315 C2.63675002 313.69747934 -0.32339816 309.94742352 -3.44134521 306.79916382 C-4.08588063 306.15633725 -4.73041605 305.51351068 -5.39448285 304.85120451 C-7.55650907 302.69247682 -9.71130189 300.52667045 -11.86621094 298.36083984 C-13.41314977 296.81333698 -14.96052891 295.26627416 -16.50831604 293.71961975 C-20.71284885 289.51566176 -24.91117822 285.30555716 -29.10844326 281.09434462 C-33.49444647 276.69585554 -37.88609808 272.30301363 -42.27716064 267.90957642 C-49.64779629 260.53342691 -57.01492902 253.15379399 -64.37939453 245.77148438 C-71.96461512 238.16790394 -79.55193479 230.56642827 -87.14208984 222.96777344 C-87.60999726 222.49934058 -88.07790467 222.03090772 -88.55999109 221.54827993 C-90.90737331 219.19828762 -93.25479915 216.84833888 -95.60224104 214.49840617 C-115.0744844 195.0052466 -134.53958012 175.50496269 -154 156 C-152.34828196 151.74238754 -149.16802712 148.89589215 -145.98898315 145.74847412 C-145.36657435 145.12435646 -144.74416554 144.5002388 -144.10289586 143.85720849 C-142.01326453 141.76427936 -139.91655845 139.67858492 -137.81982422 137.59277344 C-136.3215818 136.09509507 -134.82377946 134.59697636 -133.3263855 133.09844971 C-129.25672032 129.02820978 -125.18091 124.96417371 -121.10399008 120.9012022 C-116.84563664 116.65533563 -112.5929313 112.40381967 -108.33963013 108.15289307 C-100.28302218 100.10250589 -92.2213287 92.05723134 -84.15780747 84.01376939 C-74.97866661 74.85696891 -65.80519162 65.69450129 -56.63219428 56.53154707 C-37.76110544 37.68137377 -18.88289259 18.83834853 0 0 Z " fill="#FD8D01" transform="translate(213,345)"/>
<path d="M0 0 C15.58669084 3.39956631 31.03080468 7.35253524 46.34472656 11.81933594 C52.19985185 13.51663448 58.07802201 15.05434067 64 16.5 C70.79938 18.15984865 77.53112621 19.97730205 84.25 21.9375 C92.89499513 24.45855173 101.59373137 26.67525675 110.33886719 28.82006836 C116.78224631 30.41216422 123.14113815 32.17276188 129.48925781 34.10571289 C135.60978802 35.94318914 141.79454722 37.47761619 148 39 C154.88301648 40.68861052 161.71977481 42.43543893 168.5 44.5 C176.3862421 46.89999111 184.35964267 48.89654866 192.36523438 50.85742188 C193.32494141 51.09267578 194.28464844 51.32792969 195.2734375 51.5703125 C196.11310059 51.77414551 196.95276367 51.97797852 197.81787109 52.18798828 C202.56104767 53.39834621 207.27731698 54.71199554 212 56 C212 81.74 212 107.48 212 134 C190.42041461 134 168.88117491 133.94220606 147.3125 133.5 C144.82227163 133.45151336 142.33203722 133.40333607 139.84179688 133.35546875 C133.89445628 133.24050476 127.94721057 133.12149694 122 133 C122 136.3 122 139.6 122 143 C123.54171875 142.97679687 125.0834375 142.95359375 126.671875 142.9296875 C146.11076511 142.74607168 165.51311963 143.32747779 184.9375 144 C185.62843246 144.02391563 186.31936493 144.04783127 187.03123474 144.07247162 C195.68780572 144.37291831 204.34404201 144.68238062 213 145 C213.92596705 170.83349565 214.09025506 196.65310004 214.0625 222.5 C214.06164398 223.30280647 214.06078796 224.10561295 214.05990601 224.93274689 C214.04843288 234.95518746 214.02823845 244.97759222 214 255 C198.58757078 261.23530526 198.58757078 261.23530526 191.265625 263.703125 C178.93424949 267.95985015 166.86409581 272.91849944 154.75 277.75 C152.31652449 278.71774529 149.88293151 279.68519525 147.44921875 280.65234375 C136.88748944 284.76832447 136.88748944 284.76832447 126.42730713 289.12872314 C124 290 124 290 120 290 C117 285.92857143 117 285.92857143 117 283 C116.34 282.67 115.68 282.34 115 282 C114.73832031 281.18402344 114.47664062 280.36804688 114.20703125 279.52734375 C112.60285212 274.83940279 110.1858911 270.82640489 107.6875 266.5625 C106.59184123 264.66962187 105.49681024 262.77638026 104.40234375 260.8828125 C103.83757324 259.90860352 103.27280273 258.93439453 102.69091797 257.93066406 C100.01053899 253.28508664 97.38127227 248.61100857 94.75 243.9375 C89.54981064 234.71712186 84.30119046 225.52493854 79.03973389 216.33944702 C73.68959797 206.99578828 68.4154121 197.61152666 63.17944336 188.20336914 C58.33969896 179.53672042 53.34060467 170.96714718 48.26513672 162.43652344 C47.70584473 161.48938477 47.14655273 160.54224609 46.5703125 159.56640625 C46.07289551 158.73052979 45.57547852 157.89465332 45.06298828 157.03344727 C44 155 44 155 44 153 C43.08476562 153.5053125 42.16953125 154.010625 41.2265625 154.53125 C40.02616155 155.18771927 38.82563413 155.8439573 37.625 156.5 C37.02171875 156.83386719 36.4184375 157.16773438 35.796875 157.51171875 C31.2265625 160 31.2265625 160 29 160 C36.2755466 172.90993559 43.59140318 185.79602118 50.95697021 198.65478516 C55.73064168 206.99169292 60.44926919 215.35767955 65.125 223.75 C69.69590577 231.95404028 74.36609123 240.09114072 79.125 248.1875 C85.21113561 258.54946202 91.02344584 269.04028383 96.71191406 279.625 C97.89935648 281.81443135 99.11042752 283.98795828 100.3359375 286.15625 C100.8455603 287.0675769 100.8455603 287.0675769 101.36547852 287.99731445 C102.23383749 289.54710801 103.11064463 291.09216013 103.98828125 292.63671875 C105 295 105 295 104 298 C101.70703125 299.203125 101.70703125 299.203125 98.8125 300.25 C97.39904297 300.78367187 97.39904297 300.78367187 95.95703125 301.328125 C88.40709289 303.04356674 82.98123106 299.00590391 76.6875 295.3125 C74.61889063 294.12039755 72.54986577 292.92901587 70.48046875 291.73828125 C69.41231934 291.12033691 68.34416992 290.50239258 67.24365234 289.86572266 C62.02252179 286.86257049 56.76061059 283.93325624 51.5 281 C42.53996086 275.9906589 33.59717341 270.95170561 24.6640625 265.89453125 C17.62053653 261.90963231 10.56309283 257.95010006 3.5 254 C-5.44449317 248.99770938 -14.3826666 243.98459769 -23.28759766 238.91210938 C-27.89431309 236.29340388 -32.51456069 233.70956998 -37.18414307 231.20422363 C-38.94390279 230.25914845 -40.69951653 229.30636655 -42.45507812 228.35351562 C-44.69362888 227.14027481 -46.93953156 225.9404787 -49.19335938 224.75585938 C-50.7025293 223.93311523 -50.7025293 223.93311523 -52.2421875 223.09375 C-53.1379248 222.61615234 -54.03366211 222.13855469 -54.95654297 221.64648438 C-57 220 -57 220 -57.83276367 217.4621582 C-58.0366287 214.46072932 -57.43873921 212.52630763 -56.4375 209.6875 C-54.32641147 203.27415863 -52.66113255 196.80895221 -51.0625 190.25 C-49.35420772 183.28361297 -47.59117456 176.36169296 -45.5 169.5 C-43.43514401 162.71987585 -41.68860529 155.88299519 -40 149 C-38.14508483 141.43910214 -36.16216649 133.95834029 -33.89453125 126.51171875 C-32.05709254 120.39082418 -30.52246517 114.20578441 -29 108 C-27.31138919 101.11698235 -25.56452657 94.28023478 -23.5 87.5 C-21.46176558 80.80142324 -19.73022906 74.04986436 -18.0625 67.25 C-15.97960557 58.75819965 -13.71080365 50.35011667 -11.25683594 41.95874023 C-8.99124787 34.13830437 -7.01243306 26.25531369 -5.09179688 18.34375 C-3.58302142 12.16495529 -1.89120053 6.07288266 0 0 Z " fill="#FDEF00" transform="translate(279,118)"/>
<path d="M0 0 C0.79517921 34.33862987 1.14133924 68.65238959 1 103 C-2.69135499 101.60675183 -6.07313667 99.9403689 -9.515625 98.015625 C-10.58989746 97.41693604 -11.66416992 96.81824707 -12.77099609 96.20141602 C-13.91906738 95.55744873 -15.06713867 94.91348145 -16.25 94.25 C-17.45251279 93.57782187 -18.65515138 92.90586875 -19.85791016 92.23413086 C-22.34071188 90.8469227 -24.82250744 89.45793564 -27.30371094 88.06787109 C-30.82565271 86.095819 -34.35370481 84.13498123 -37.8828125 82.17578125 C-43.07047448 79.29460221 -48.23903833 76.38123748 -53.40087891 73.45410156 C-55.64005581 72.201374 -57.8944649 70.9933809 -60.16796875 69.8046875 C-67.98223813 65.50638973 -71.89943996 60.79081802 -75.99804688 52.89599609 C-77.11022149 50.79142785 -78.29007659 48.73480641 -79.484375 46.67578125 C-86 35.39005665 -86 35.39005665 -86 33 C-85.48588562 32.79892136 -84.97177124 32.59784271 -84.44207764 32.39067078 C-78.94018137 30.23873954 -73.43839752 28.08652109 -67.93667603 25.93414307 C-65.81623591 25.10461664 -63.69577295 24.27514865 -61.57528687 23.44573975 C-46.33136312 17.48393604 -46.33136312 17.48393604 -31.09765625 11.49609375 C-30.1338353 11.11643715 -30.1338353 11.11643715 -29.15054321 10.72911072 C-26.29655622 9.60472991 -23.44316868 8.47887399 -20.59082031 7.3503418 C-1.94796946 0 -1.94796946 0 0 0 Z " fill="#FDEF00" transform="translate(493,387)"/>
<path d="M0 0 C0.13462646 1.13199829 0.13462646 1.13199829 0.27197266 2.28686523 C0.71749134 6.00442183 1.16944341 9.72116276 1.625 13.4375 C1.70970551 14.13007904 1.79441101 14.82265808 1.88168335 15.53622437 C3.01638885 24.75851476 4.26323792 33.95856347 5.63671875 43.1484375 C5.77533325 44.07795731 5.91394775 45.00747711 6.0567627 45.96516418 C6.74583395 50.57088334 7.44534788 55.17477669 8.15673828 59.77709961 C8.41324685 61.47246915 8.66960199 63.16786192 8.92578125 64.86328125 C9.04950607 65.64315399 9.1732309 66.42302673 9.30070496 67.22653198 C9.80249215 70.58245875 10.08915923 72.73252231 9 76 C6.27734375 77.60546875 6.27734375 77.60546875 2.9375 79.1875 C1.83277344 79.71730469 0.72804688 80.24710938 -0.41015625 80.79296875 C-1.26480469 81.19128906 -2.11945312 81.58960938 -3 82 C-4.6251777 80.67954312 -6.25034816 79.35907734 -7.87548828 78.03857422 C-9.31124161 76.87208651 -10.7471172 75.70574926 -12.18310547 74.53955078 C-15.83581724 71.57276445 -19.48689426 68.60403867 -23.1328125 65.62890625 C-30.02427135 60.00966508 -36.95129836 54.44672656 -43.96191406 48.97680664 C-49.74884775 44.4456074 -55.38441333 39.7413653 -61 35 C-58.365197 32.20351591 -55.84299153 30.08224349 -52.5 28.1875 C-51.37078125 27.52814453 -51.37078125 27.52814453 -50.21875 26.85546875 C-48 26 -48 26 -46.03515625 26.08203125 C-43.1355901 27.38989698 -41.23542385 29.30698873 -38.9375 31.5 C-35.20883758 35.00218723 -31.42496166 38.35100744 -27.4375 41.5625 C-22.83806712 45.27108146 -18.44037972 49.15146867 -14.09375 53.15234375 C-11.93666737 55.13945339 -11.93666737 55.13945339 -9 57 C-9.59859944 48.34487745 -10.96063882 39.90745911 -12.5 31.375 C-13.89514516 23.59407612 -15.24864496 15.8721517 -16 8 C-13.71125827 6.66141476 -11.41930344 5.32898986 -9.125 4 C-8.47402344 3.6184375 -7.82304688 3.236875 -7.15234375 2.84375 C-2.2265625 0 -2.2265625 0 0 0 Z " fill="#020104" transform="translate(571,652)"/>
<path d="M0 0 C0 4.95 0 9.9 0 15 C-1.90523438 15.74765625 -3.81046875 16.4953125 -5.7734375 17.265625 C-7.6534921 18.00372051 -9.53354574 18.74181845 -11.41357422 19.47998047 C-12.70324259 19.98628045 -13.99295486 20.4924686 -15.28271484 20.99853516 C-22.86529216 23.97382773 -30.44261414 26.96116787 -38 30 C-35.00478549 31.99680967 -32.74021955 32.80181732 -29.3125 33.8125 C-23.40775352 35.57797291 -17.52316887 37.39549244 -11.64575195 39.24926758 C-7.44507337 40.56755712 -3.2360536 41.78969897 1 43 C1.495 50.425 1.495 50.425 2 58 C-1.87378657 57.3543689 -4.86011173 56.83682407 -8.43798828 55.58886719 C-9.67054855 55.16272125 -9.67054855 55.16272125 -10.92800903 54.72796631 C-11.79996918 54.42070618 -12.67192932 54.11344604 -13.5703125 53.796875 C-14.48779266 53.47720764 -15.40527283 53.15754028 -16.35055542 52.82818604 C-18.28953923 52.15131833 -20.22768504 51.47204587 -22.16503906 50.79052734 C-25.09221469 49.76152516 -28.02240111 48.74150218 -30.953125 47.72265625 C-40.43204921 44.41251725 -49.789914 41.00708632 -59 37 C-59 33.04 -59 29.08 -59 25 C-53.59686136 22.56357041 -48.19318982 20.12832767 -42.7890625 17.6940918 C-40.95819338 16.86920705 -39.12745973 16.04402153 -37.296875 15.21850586 C-32.03416116 12.84537969 -26.76887817 10.4781325 -21.49951172 8.11981201 C-19.85451984 7.38283541 -18.2102915 6.64415177 -16.56689453 5.90362549 C-14.33864592 4.90036827 -12.10733928 3.90427102 -9.875 2.91015625 C-9.21798096 2.61265976 -8.56096191 2.31516327 -7.8840332 2.00865173 C-5.06167018 0.76021375 -3.12559654 0 0 0 Z " fill="#070400" transform="translate(325,482)"/>
<path d="M0 0 C20.46 0 40.92 0 62 0 C66 8 66 8 65 12 C63.19398706 14.04874108 61.40051027 15.92787949 59.4375 17.8125 C58.89391846 18.34512451 58.35033691 18.87774902 57.7902832 19.42651367 C54.23172544 22.88816827 50.57306712 26.20685212 46.79296875 29.42578125 C44.33417866 31.58458823 42.07292218 33.91666105 39.78125 36.25 C37.2880497 38.69945994 34.63959829 40.95106322 31.98828125 43.2265625 C29.36938809 45.56247113 26.95094746 48.06621718 24.54296875 50.6171875 C23 52 23 52 20 53 C19.29634398 51.4447088 18.61270622 49.88035173 17.9375 48.3125 C17.55464844 47.44238281 17.17179688 46.57226562 16.77734375 45.67578125 C15.84696645 42.47322621 15.78330128 41.11147854 17 38 C18.91159128 35.90718753 20.75190631 34.09894226 22.875 32.25 C23.45564209 31.72921875 24.03628418 31.2084375 24.63452148 30.671875 C29.1926669 26.61632461 33.88206013 22.73123647 38.66015625 18.9375 C40.8902138 17.0909081 42.95267756 15.04732244 45 13 C31.47 13 17.94 13 4 13 C0 3 0 3 0 0 Z " fill="#000300" transform="translate(590,310)"/>
<path d="M0 0 C32.35040947 -0.11714633 64.66320177 0.00477727 97 1 C97 4.63 97 8.26 97 12 C75.53483368 12.14252371 54.12336333 11.79969516 32.67120361 11.07287598 C28.96191668 10.94837457 25.25243431 10.82997575 21.54296875 10.7109375 C14.36178458 10.47965302 7.18082952 10.2420723 0 10 C0 6.7 0 3.4 0 0 Z " fill="#000400" transform="translate(596,255)"/>
<path d="M0 0 C0 3.63 0 7.26 0 11 C-6.39697347 13.68260178 -12.86633238 16.03684441 -19.4375 18.25 C-20.23075684 18.52021973 -21.02401367 18.79043945 -21.84130859 19.06884766 C-22.5936377 19.31940918 -23.3459668 19.5699707 -24.12109375 19.828125 C-24.7958374 20.0540332 -25.47058105 20.27994141 -26.16577148 20.51269531 C-28 21 -28 21 -31 21 C-31 21.66 -31 22.32 -31 23 C-30.13487793 23.11786865 -29.26975586 23.2357373 -28.37841797 23.35717773 C-24.99113671 24.00168645 -22.13417314 24.9865996 -18.9453125 26.28515625 C-17.28242188 26.95708008 -17.28242188 26.95708008 -15.5859375 27.64257812 C-14.44382812 28.11115234 -13.30171875 28.57972656 -12.125 29.0625 C-10.9596875 29.53494141 -9.794375 30.00738281 -8.59375 30.49414062 C-5.72690456 31.65732791 -2.86247193 32.82610058 0 34 C0 37.63 0 41.26 0 45 C-3.55048623 44.28990275 -6.1011805 43.67597719 -9.33129883 42.32592773 C-10.151772 41.98565048 -10.97224518 41.64537323 -11.81758118 41.29478455 C-12.6885997 40.92809158 -13.55961823 40.56139862 -14.45703125 40.18359375 C-15.35999435 39.80767593 -16.26295746 39.43175812 -17.19328308 39.04444885 C-20.06817075 37.84642994 -22.94034754 36.64205955 -25.8125 35.4375 C-27.76479843 34.62262621 -29.71727047 33.80816824 -31.66992188 32.99414062 C-36.44864034 31.00090788 -41.22493809 29.0019758 -46 27 C-46 23.7 -46 20.4 -46 17 C-37.26064022 13.266062 -28.43200222 9.82621407 -19.53271484 6.49584961 C-17.34188581 5.67509435 -15.15334302 4.84842897 -12.96484375 4.02148438 C-11.56784129 3.49704154 -10.17071073 2.97293975 -8.7734375 2.44921875 C-7.79544693 2.07901863 -7.79544693 2.07901863 -6.79769897 1.70133972 C-2.22926906 0 -2.22926906 0 0 0 Z " fill="#070700" transform="translate(395,234)"/>
<path d="M0 0 C0 20.79 0 41.58 0 63 C-3.08742439 59.14071951 -5.31980495 55.86551926 -7.64453125 51.58984375 C-7.97740646 50.98169327 -8.31028168 50.37354279 -8.65324402 49.7469635 C-9.7109132 47.81293499 -10.76205529 45.87546033 -11.8125 43.9375 C-13.19159225 41.40362374 -14.57394022 38.87153895 -15.95703125 36.33984375 C-16.29300323 35.72217133 -16.62897522 35.1044989 -16.97512817 34.46810913 C-19.76716171 29.35863133 -22.72466952 24.36429242 -25.7565918 19.39282227 C-27 17 -27 17 -27 14 C-25.56705502 13.15885829 -24.12845595 12.32734313 -22.6875 11.5 C-21.88699219 11.0359375 -21.08648437 10.571875 -20.26171875 10.09375 C-18 9 -18 9 -15 9 C-15 8.34 -15 7.68 -15 7 C-12.87767021 5.82823482 -10.75242209 4.66245215 -8.625 3.5 C-8.02171875 3.16613281 -7.4184375 2.83226562 -6.796875 2.48828125 C-2.2265625 0 -2.2265625 0 0 0 Z " fill="#F90303" transform="translate(494,511)"/>
<path d="M0 0 C2.5 1 2.5 1 3.5 2 C4.03150427 9.66884729 2.41225665 16.9883214 1 24.5 C0.75846742 25.81238106 0.51757667 27.12488041 0.27734375 28.4375 C-0.30881759 31.62621771 -0.90143409 34.81359166 -1.5 38 C-2.985 38.495 -2.985 38.495 -4.5 39 C-7.1875 37.5625 -7.1875 37.5625 -9.5 36 C-8.40863407 27.94246854 -7.22168056 19.9490358 -5.5 12 C-6.1290625 12.50789063 -6.758125 13.01578125 -7.40625 13.5390625 C-9.18675565 14.97097518 -10.9735762 16.39506027 -12.765625 17.8125 C-14.44654175 19.1572334 -16.10803603 20.52724803 -17.734375 21.9375 C-19.61356592 23.51077612 -21.31486652 24.88867675 -23.5 26 C-26.875 25.4375 -26.875 25.4375 -29.5 24 C-30.16 23.67 -30.82 23.34 -31.5 23 C-31.5 22.34 -31.5 21.68 -31.5 21 C-29.89868164 19.59887695 -29.89868164 19.59887695 -27.66015625 17.98828125 C-26.43522461 17.09786133 -26.43522461 17.09786133 -25.18554688 16.18945312 C-24.31994141 15.57005859 -23.45433594 14.95066406 -22.5625 14.3125 C-20.88582552 13.10149617 -19.21004153 11.88925845 -17.53515625 10.67578125 C-16.70193848 10.07588379 -15.8687207 9.47598633 -15.01025391 8.85791016 C-11.73827555 6.43622612 -8.58994426 3.87228409 -5.45678711 1.27416992 C-3.5 0 -3.5 0 0 0 Z " fill="#030809" transform="translate(757.5,498)"/>
<path d="M0 0 C3.8320473 1.43904812 7.32956452 3.20108455 10.90234375 5.1953125 C12.03438232 5.8255835 13.1664209 6.45585449 14.33276367 7.10522461 C15.53440796 7.77836613 16.73598568 8.45162651 17.9375 9.125 C19.15915978 9.8069035 20.38092104 10.48862522 21.6027832 11.17016602 C29.76509874 15.72768247 37.90811111 20.31837112 46 25 C46 25.33 46 25.66 46 26 C38.08 26.33 30.16 26.66 22 27 C22 30.96 22 34.92 22 39 C21.67 39 21.34 39 21 39 C21 35.37 21 31.74 21 28 C19.02 28 17.04 28 15 28 C13.02116875 24.49641438 11.04575975 20.99092421 9.07348633 17.48364258 C8.40222183 16.29105795 7.73002852 15.09899561 7.05688477 13.9074707 C6.08885925 12.19360118 5.12446007 10.47768503 4.16015625 8.76171875 C3.57886963 7.73006592 2.99758301 6.69841309 2.39868164 5.63549805 C1 3 1 3 0 0 Z " fill="#EF8805" transform="translate(435,470)"/>
<path d="M0 0 C4.62 0 9.24 0 14 0 C6.5 6 6.5 6 2 6 C1.34 4.02 0.68 2.04 0 0 Z " fill="#DC800D" transform="translate(458,510)"/>
<path d="M0 0 C0.99 2.31 1.98 4.62 3 7 C-0.77545388 5.90931332 -3.47043472 5.0916909 -6 2 C-3 0 -3 0 0 0 Z " fill="#DFD40F" transform="translate(392,427)"/>
</svg>
