<?xml version="1.0" encoding="UTF-8"?>
<svg version="1.1" xmlns="http://www.w3.org/2000/svg" width="1000" height="1000">
<path d="M0 0 C330 0 660 0 1000 0 C1000 330 1000 660 1000 1000 C670 1000 340 1000 0 1000 C0 670 0 340 0 0 Z " fill="#FEFEFE" transform="translate(0,0)"/>
<path d="M0 0 C1.55843377 0.41946633 3.11694862 0.83863152 4.67553711 1.25752258 C8.03639723 2.1614307 11.39671674 3.06731219 14.75662231 3.97476196 C20.13956936 5.42857104 25.52365501 6.87812995 30.90795898 8.3269043 C36.65824447 9.87430595 42.40847533 11.42190792 48.15834045 12.97087097 C62.88220995 16.93693085 77.6100916 20.88787966 92.33984375 24.83203125 C94.50935437 25.41303235 96.67886426 25.99403617 98.84837341 26.57504272 C107.30693225 28.84017269 115.76556892 31.10501166 124.22439575 33.36914062 C129.17323431 34.69381657 134.12182153 36.01942854 139.07031059 37.34540939 C141.89943394 38.10308665 144.72888547 38.8595289 147.55836487 39.61587524 C156.18831756 41.92551919 164.80965194 44.26058828 173.41357422 46.66552734 C174.95529103 47.09438826 176.49703327 47.52315776 178.0388031 47.951828 C180.8495842 48.73357451 183.65679054 49.52665661 186.46229553 50.32710266 C187.6928215 50.66992783 188.92334747 51.01275299 190.19116211 51.3659668 C191.24782578 51.66544724 192.30448944 51.96492767 193.39317322 52.27348328 C199.62471477 53.54425773 204.7984839 52.7905617 210.8840332 51.14404297 C211.59390821 50.95457627 212.30378323 50.76510958 213.0351696 50.56990147 C215.3955497 49.93768294 217.75235813 49.29307147 220.109375 48.6484375 C221.80238877 48.19234648 223.49561651 47.73704913 225.18904114 47.28248596 C229.77401636 46.04948923 234.35605035 44.80587061 238.93766022 43.56043625 C243.76578085 42.25005927 248.59661131 40.94975363 253.42724609 39.64868164 C261.45709242 37.48489316 269.48553732 35.31597819 277.51318359 33.14404297 C288.87432333 30.07098907 300.24082103 27.01815242 311.609375 23.97265625 C313.39008721 23.49549354 315.17079807 23.0183258 316.95150757 22.54115295 C323.89182155 20.68156789 330.83233192 18.82271652 337.77294922 16.96426392 C342.79158475 15.62031321 347.80997094 14.27543482 352.828125 12.9296875 C353.63030079 12.71458464 354.43247658 12.49948177 355.25896072 12.27786064 C365.53582506 9.52091454 375.80448789 6.73578235 386.06439209 3.91638756 C390.35167953 2.73929297 394.64075917 1.56873158 398.92938232 0.39651489 C402.20343349 -0.50237818 405.47404131 -1.41306405 408.74462891 -2.32446289 C410.66813545 -2.85100371 412.59179035 -3.37700302 414.515625 -3.90234375 C415.79200081 -4.26451492 415.79200081 -4.26451492 417.09416199 -4.63400269 C424.84386256 -6.72465218 424.84386256 -6.72465218 428.49609375 -5.09375 C431.6395269 -0.82167177 432.76372249 3.80775684 434.07714844 8.85668945 C434.31710761 9.75359466 434.55706678 10.65049986 434.80429745 11.57458401 C435.59954368 14.55432963 436.38372303 17.53687323 437.16796875 20.51953125 C437.72805024 22.62642573 438.28883997 24.73313205 438.85029602 26.83966064 C440.34865491 32.46882953 441.83765513 38.10043373 443.3247261 43.73259354 C444.85643741 49.52809253 446.39607585 55.32148364 447.93530273 61.11499023 C449.76523164 68.00426824 451.59451451 74.89371328 453.41990662 81.78419495 C456.76556963 94.4112254 460.13318382 107.03181729 463.546875 119.640625 C463.90754264 120.97473001 464.26815006 122.3088513 464.62869263 123.64299011 C466.54691771 130.73853238 466.54691771 130.73853238 468.47570801 137.83120728 C473.80861752 157.39241546 473.80861752 157.39241546 475.13452148 166.55493164 C475.6523144 169.92215887 476.52930163 173.07705008 477.49609375 176.34375 C477.82609375 177.47683594 478.15609375 178.60992187 478.49609375 179.77734375 C479.43646852 182.85166216 479.43646852 182.85166216 480.5625 185.5546875 C481.43523729 187.75296301 481.97760919 189.77908552 482.43359375 192.09375 C483.30556974 196.19676878 484.40141395 200.17353535 485.66796875 204.171875 C486.25903281 206.1235016 486.78324746 208.09588678 487.26171875 210.078125 C489.5078061 218.77660875 493.17461268 223.66002466 499.49609375 229.90625 C500.69621229 231.27025027 501.88468046 232.64463223 503.05859375 234.03125 C505.4110297 236.74142966 507.86143085 239.27914601 510.43359375 241.78125 C513.34933576 244.63009162 515.80864904 247.57868431 518.24609375 250.84375 C522.21404375 255.9759488 526.76308131 259.34693854 532.0546875 262.99609375 C534.49609375 264.90625 534.49609375 264.90625 535.49609375 267.90625 C536.82268796 268.58622797 538.15751251 269.25018409 539.49609375 269.90625 C541.15604406 271.37730944 542.76354461 272.90822143 544.33622742 274.472229 C545.0447084 275.17285497 545.0447084 275.17285497 545.76750213 275.88763499 C547.34677601 277.45192309 548.91883505 279.02326307 550.4909668 280.59472656 C551.62253355 281.71867102 552.75450167 282.84221152 553.88684082 283.96537781 C556.95975728 287.01635271 560.0260788 290.07387263 563.09058356 293.13329411 C565.00524506 295.04431245 566.92119833 296.95402594 568.83759499 298.86330414 C575.52253684 305.52375528 582.20174161 312.18990462 588.8762207 318.86083984 C595.09922988 325.08021131 601.33525377 331.28632177 607.57733315 337.48654771 C612.93572196 342.81026277 618.2844678 348.14353903 623.62589675 353.48426986 C626.8164111 356.67399058 630.01079261 359.8595931 633.21509361 363.03546906 C636.2278067 366.02205094 639.22836508 369.02032739 642.21999359 372.02802467 C643.31980488 373.12965421 644.42390248 374.22702361 645.5325489 375.31976128 C647.0458453 376.81265739 648.54290365 378.32017233 650.03691101 379.83233643 C650.87884349 380.67225758 651.72077597 381.51217873 652.58822155 382.37755203 C654.82593796 385.34342623 655.41351648 387.20448806 655.49609375 390.90625 C654.58695126 392.75056648 654.58695126 392.75056648 652.99095154 394.40725708 C652.33537703 395.09073338 651.67980251 395.77420967 651.00436211 396.47839737 C645.98073272 401.34096791 640.89472319 406.12956518 635.75933838 410.87396622 C631.90577461 414.4363464 628.06674585 418.01429332 624.22901917 421.59371948 C623.41099575 422.35668138 622.59297234 423.11964328 621.75016034 423.90572524 C610.17682506 434.72120696 598.76990767 445.71195687 587.36274052 456.70213127 C578.13647825 465.58162934 568.859379 474.39063591 559.42700195 483.05126953 C510.82484571 527.75530448 479.81186494 564.77531838 469.2300806 631.13118839 C466.28017316 649.55145745 461.3351469 667.34355127 456.27265739 685.2781601 C454.14111517 692.84975709 452.11760565 700.4506784 450.08604634 708.04957902 C449.22816435 711.25559538 448.36602624 714.46046245 447.50378746 717.66530937 C445.18936044 726.27419494 442.91719124 734.89371169 440.6636467 743.51870728 C439.53570331 747.82915344 438.39804279 752.1370502 437.26202393 756.44537354 C436.39879663 759.73807975 435.55144844 763.03459659 434.70458984 766.33154297 C434.1958623 768.26162416 433.6863183 770.19149042 433.17578125 772.12109375 C432.85232727 773.4129232 432.85232727 773.4129232 432.52233887 774.73085022 C432.20746521 775.90036476 432.20746521 775.90036476 431.88623047 777.09350586 C431.71276093 777.76328964 431.53929138 778.43307343 431.36056519 779.12315369 C430.16957454 781.57974271 428.86328866 782.57503613 426.49609375 783.90625 C424.45849609 783.90289307 424.45849609 783.90289307 422.20703125 783.34472656 C421.32241211 783.13303833 420.43779297 782.9213501 419.52636719 782.70324707 C418.52637695 782.44023804 417.52638672 782.177229 416.49609375 781.90625 C415.38008789 781.62422729 414.26408203 781.34220459 413.11425781 781.05163574 C409.10944157 780.02337568 405.1149987 778.96026211 401.12109375 777.890625 C399.58948859 777.48284662 398.05781445 777.07532726 396.52607727 776.66804504 C392.38156758 775.56514572 388.23812075 774.45830203 384.09488297 773.35063553 C380.59526103 772.41555129 377.09503313 771.48274677 373.59480381 770.54993916 C361.55998009 767.34255343 349.52762055 764.12597844 337.49609375 760.90625 C336.13261181 760.54137859 336.13261181 760.54137859 334.74158478 760.16913605 C322.2965304 756.83852853 309.85262248 753.50365535 297.40939713 750.16622162 C294.81175393 749.46959748 292.21403806 748.77324494 289.61630249 748.07696533 C273.38908529 743.72722744 257.16335299 739.37322282 240.95913124 734.93846703 C236.69545496 733.77242463 232.4303517 732.61160337 228.1656189 731.44943237 C224.91690054 730.56087307 221.67094771 729.66270959 218.42504883 728.76391602 C216.50744982 728.24058771 214.58973343 727.71768929 212.671875 727.1953125 C211.83124512 726.95901627 210.99061523 726.72272003 210.12451172 726.47926331 C208.95553345 726.16395912 208.95553345 726.16395912 207.76293945 725.84228516 C207.10203812 725.65993317 206.44113678 725.47758118 205.76020813 725.28970337 C200.37078064 724.37694289 195.56442434 724.92207219 190.33666992 726.36132812 C189.14262543 726.68522018 187.94858093 727.00911224 186.71835327 727.34281921 C185.40856405 727.70762078 184.09880139 728.07251775 182.7890625 728.4375 C181.38789385 728.82068819 179.98648884 729.20301301 178.58486938 729.58454895 C175.55127766 730.41195941 172.51920352 731.2446472 169.4881897 732.08145142 C164.60421459 733.42951363 159.71696154 734.76538571 154.82885742 736.09838867 C153.99084626 736.32691749 153.1528351 736.5554463 152.28942966 736.79090023 C150.56603047 737.2608131 148.84261524 737.73066711 147.11918449 738.20046425 C144.45575758 738.92683866 141.79262943 739.65430088 139.12953186 740.38188171 C125.93328639 743.98464073 112.72285178 747.53228317 99.50390625 751.05078125 C98.06722721 751.43323155 98.06722721 751.43323155 96.60152435 751.82340813 C88.87442886 753.87991671 81.14658315 755.9336 73.41851807 757.98646164 C66.80068644 759.74445231 60.18321035 761.50377051 53.56640625 763.265625 C52.65659248 763.50787371 51.74677872 763.75012241 50.80939484 763.99971199 C38.76946783 767.20781129 26.74570098 770.46923777 14.73828125 773.796875 C13.4056972 774.16533717 12.07309165 774.53372157 10.74046326 774.90202332 C4.79316649 776.54732219 -1.15058782 778.20366268 -7.08862305 779.88208008 C-9.10845763 780.44389463 -11.12838875 781.00536226 -13.1484375 781.56640625 C-14.03963287 781.82339294 -14.93082825 782.08037964 -15.84902954 782.34515381 C-23.45400216 784.43713992 -23.45400216 784.43713992 -27.50390625 782.90625 C-30.21256228 780.19759397 -30.51197139 777.79236636 -31.49316406 774.0859375 C-31.68292564 773.37678129 -31.87268723 772.66762508 -32.06819916 771.93697929 C-32.70428098 769.55340657 -33.3305716 767.16736817 -33.95703125 764.78125 C-34.40882595 763.08090047 -34.86125353 761.380719 -35.31427002 759.68069458 C-36.2890334 756.01766848 -37.2595534 752.35355391 -38.22680664 748.6885376 C-39.76493305 742.86071838 -41.31226075 737.03536845 -42.86132812 731.21044922 C-44.46762077 725.16881588 -46.07338979 719.12704675 -47.67602539 713.08444214 C-52.85634583 693.55397125 -58.09048716 674.03811116 -63.33403015 654.52453613 C-63.98335986 652.10772389 -64.63244295 649.69084561 -65.28137207 647.27392578 C-65.57327988 646.18730982 -65.57327988 646.18730982 -65.87108481 645.07874203 C-66.28473043 643.536884 -66.69747609 641.99478397 -67.1089319 640.45234013 C-68.14328905 636.58027054 -69.19246804 632.71379126 -70.28253365 628.85700989 C-72.63818066 620.42831344 -74.72948052 612.02890747 -76.36910689 603.42922223 C-83.56288658 566.05972451 -96.4321295 544.02510498 -124.10825491 518.30940771 C-128.73883919 513.96068539 -133.24543335 509.48652223 -137.76785278 505.02590942 C-145.33098875 497.59688886 -152.9594916 490.2408178 -160.64892578 482.94287109 C-168.53697363 475.45596088 -176.3857512 467.93144757 -184.18408203 460.35107422 C-184.66944305 459.87931188 -185.15480407 459.40754954 -185.654873 458.92149137 C-190.00943507 454.68776309 -194.35968928 450.44961718 -198.70980668 446.21132302 C-201.51938958 443.47408239 -204.32946863 440.73735281 -207.1399231 438.00100708 C-208.05024296 437.1145082 -208.96056282 436.22800932 -209.89846814 435.31464684 C-215.29214319 430.06867972 -220.71013347 424.84950393 -226.15260863 419.65418792 C-229.51276842 416.44570396 -232.86435827 413.22834494 -236.21536255 410.0103035 C-237.77137658 408.52124595 -239.33184416 407.03682649 -240.89700699 405.55738831 C-243.02879423 403.54202919 -245.14503409 401.51154268 -247.2585144 399.47702026 C-247.88348529 398.8945805 -248.50845617 398.31214073 -249.15236557 397.71205127 C-251.87156557 395.06675631 -253.34532659 393.38117153 -254.56602097 389.7253809 C-254.49293973 386.40852474 -254.04777276 385.56368444 -251.75546265 383.22938538 C-251.10186138 382.54758272 -250.44826012 381.86578007 -249.77485275 381.16331673 C-249.02544041 380.41848471 -248.27602806 379.67365269 -247.50390625 378.90625 C-246.30146208 377.6688548 -246.30146208 377.6688548 -245.0747261 376.40646172 C-242.23073286 373.49453807 -239.35789491 370.61339928 -236.47900391 367.73608398 C-235.37909016 366.63317224 -234.27937968 365.53005777 -233.17985535 364.42675781 C-230.2131696 361.45129543 -227.24330211 358.47902922 -224.27254534 355.50763202 C-222.41235202 353.64672486 -220.55287385 351.78510615 -218.69364548 349.92323494 C-212.19542186 343.41578058 -205.69464136 336.9108933 -199.19140625 330.40844727 C-193.14803505 324.36567702 -187.11026723 318.31734801 -181.07509387 312.26639122 C-175.87589333 307.05408294 -170.67281178 301.84567022 -165.46673429 296.64023072 C-162.36504462 293.53879497 -159.26489845 290.43585547 -156.16865921 287.32897758 C-153.25594288 284.40652505 -150.33839028 281.4889861 -147.41718483 278.57501984 C-146.35169959 277.51057342 -145.28788813 276.44444826 -144.22596931 275.37644386 C-138.87489104 269.99671305 -133.49496648 264.86120315 -127.38991356 260.32972813 C-123.59470648 257.46526719 -120.24351852 254.10776875 -116.7890625 250.84765625 C-114.50390625 248.90625 -114.50390625 248.90625 -112.50390625 248.90625 C-112.30023438 248.36613281 -112.0965625 247.82601562 -111.88671875 247.26953125 C-109.94576141 243.95235839 -107.21403833 241.62962702 -104.37890625 239.09375 C-103.79431641 238.56112549 -103.20972656 238.02850098 -102.60742188 237.47973633 C-98.91208788 234.12484264 -95.16163656 230.84445391 -91.28515625 227.69921875 C-86.08292021 222.46275747 -83.68095771 217.51493963 -82.1171875 210.4453125 C-81.92924118 209.65530853 -81.74129486 208.86530457 -81.5476532 208.05136108 C-80.95573523 205.54786149 -80.38579777 203.03995759 -79.81640625 200.53125 C-79.42396234 198.85643363 -79.03009359 197.18195046 -78.63476562 195.5078125 C-77.73869312 191.69511505 -76.85234037 187.88056394 -75.99382019 184.05921936 C-75.66401607 182.60986652 -75.32272528 181.16308503 -74.97065735 179.71897888 C-73.84524324 174.98832944 -73.20697774 170.37431604 -72.77488708 165.53434753 C-71.06337149 147.6160905 -65.96440536 130.52613448 -61.17401505 113.24435043 C-59.93282836 108.75370006 -58.70959922 104.25816521 -57.48510742 99.76293945 C-55.98184685 94.24819083 -54.47698167 88.73390594 -52.96388245 83.22184753 C-49.8572883 71.90177466 -46.79768317 60.57039931 -43.79117393 49.22333336 C-43.16054907 46.84346542 -42.52880506 44.46389747 -41.89668274 42.08442688 C-39.52618064 33.16192386 -39.52618064 33.16192386 -37.16793823 24.23617554 C-36.1073832 20.21116327 -35.03461455 16.18950027 -33.9609375 12.16796875 C-33.49831009 10.39885132 -33.49831009 10.39885132 -33.02633667 8.59399414 C-32.73638824 7.51456543 -32.44643982 6.43513672 -32.14770508 5.32299805 C-31.77758049 3.92527412 -31.77758049 3.92527412 -31.39997864 2.49931335 C-26.40459921 -11.95636626 -11.38317091 -3.08296501 0 0 Z " fill="#040404" transform="translate(299.50390625,111.09375)"/>
<path d="M0 0 C3.30281742 0.76610974 5.91472987 1.89375557 8.90234375 3.51953125 C9.86390381 4.04087646 10.82546387 4.56222168 11.81616211 5.09936523 C13.36122437 5.94736694 13.36122437 5.94736694 14.9375 6.8125 C16.0107251 7.39781494 17.0839502 7.98312988 18.18969727 8.58618164 C25.84151197 12.7752384 33.43517464 17.05952825 40.99633789 21.40966797 C47.76182362 25.30196525 54.56102205 29.13078209 61.375 32.9375 C69.42847774 37.4377007 77.47204181 41.95442305 85.5 46.5 C93.48774107 51.02207659 101.48878029 55.5196512 109.5 60 C118.4593421 65.01059503 127.40281974 70.04829051 136.3359375 75.10546875 C143.37946347 79.09036769 150.43690717 83.04989994 157.5 87 C166.4593421 92.01059503 175.40281974 97.04829051 184.3359375 102.10546875 C191.37946347 106.09036769 198.43690717 110.04989994 205.5 114 C214.44847286 119.00451631 223.38216681 124.0342403 232.30297852 129.08789062 C237.43161783 131.99094417 242.56802726 134.87927745 247.71484375 137.75 C248.83632813 138.37583984 249.9578125 139.00167969 251.11328125 139.64648438 C253.26723646 140.84748525 255.42212695 142.04681086 257.578125 143.24414062 C263.15347117 146.35332778 268.62014054 149.56304569 274 153 C272.40596353 163.92745504 269.31582299 174.51537859 266.453125 185.16015625 C265.88759569 187.27583484 265.32244993 189.39161599 264.75765991 191.50749207 C263.24122751 197.18406988 261.71939136 202.85918572 260.19641876 208.53401184 C258.61155527 214.44278319 257.03140231 220.35281409 255.45068359 226.26269531 C252.88047632 235.86942339 250.30714545 245.47530966 247.73144531 255.08056641 C244.82227444 265.92942881 241.91810282 276.77961886 239.0168457 287.63059998 C236.78644662 295.97244878 234.55329257 304.31355961 232.31980896 312.65458298 C231.63218141 315.22317426 230.94501061 317.79188736 230.25793457 320.36062622 C225.64213896 337.61360149 221.00508798 354.85475124 216 372 C206.96806545 370.5726947 198.21050873 368.30160391 189.3984375 365.90625 C187.84128066 365.48662388 186.28401088 365.06741664 184.72663879 364.64859009 C181.37137106 363.74536656 178.01686354 362.83939088 174.66293335 361.93121338 C169.29247569 360.4770294 163.92043586 359.02875458 158.5480957 357.58154297 C152.80853175 356.03518308 147.06905321 354.48851162 141.33009338 352.93991089 C126.56441127 348.95608639 111.79321983 344.99308413 97.01953125 341.0390625 C94.8402081 340.45567507 92.66088681 339.87228071 90.48156738 339.28887939 C81.97775492 337.01256415 73.47385633 334.73657133 64.96966553 332.46166992 C59.97426157 331.12529257 54.97916541 329.78776982 49.98425865 328.44953537 C48.16748347 327.96298979 46.35060775 327.4768194 44.53360939 326.99110794 C28.66467744 322.74888406 12.8306069 318.38262905 -3 314 C-3.13234662 260.78835707 -2.85298764 207.59357809 -2.16577756 154.3863734 C-2.04951586 145.36212528 -1.940589 136.33779213 -1.83159184 127.31345391 C-1.31774951 84.87401628 -0.71413067 42.43654836 0 0 Z " fill="#A53AFD" transform="translate(505,510)"/>
<path d="M0 0 C3.54823215 1.39025746 6.82695785 2.92774571 10.1484375 4.80078125 C11.14166016 5.35894531 12.13488281 5.91710937 13.15820312 6.4921875 C14.21974609 7.09289062 15.28128906 7.69359375 16.375 8.3125 C17.48552734 8.93769531 18.59605469 9.56289063 19.74023438 10.20703125 C23.16208957 12.13461805 26.58140134 14.06664454 30 16 C31.49321777 16.84377197 31.49321777 16.84377197 33.01660156 17.70458984 C36.78887582 19.83621398 40.56083496 21.96838951 44.33154297 24.1027832 C51.37635198 28.08889971 58.43540991 32.04906258 65.5 36 C74.4593421 41.01059503 83.40281974 46.04829051 92.3359375 51.10546875 C99.37946347 55.09036769 106.43690717 59.04989994 113.5 63 C122.4593421 68.01059503 131.40281974 73.04829051 140.3359375 78.10546875 C147.37946347 82.09036769 154.43690717 86.04989994 161.5 90 C170.4593421 95.01059503 179.40281974 100.04829051 188.3359375 105.10546875 C195.37946347 109.09036769 202.43690717 113.04989994 209.5 117 C218.4470437 122.00371703 227.37959486 127.03214417 236.29858398 132.08569336 C241.45127779 135.00277501 246.61261808 137.90338679 251.78515625 140.78515625 C252.91566406 141.41550781 254.04617188 142.04585937 255.2109375 142.6953125 C257.39073322 143.90969753 259.57166376 145.12204857 261.75390625 146.33203125 C266.63727147 149.05348999 271.416865 151.79572271 276 155 C273.33865944 157.05511094 270.6464314 158.87479464 267.74609375 160.57421875 C266.48539062 161.31575195 266.48539062 161.31575195 265.19921875 162.07226562 C264.28785156 162.60529297 263.37648438 163.13832031 262.4375 163.6875 C260.4464716 164.8578297 258.45559293 166.02841416 256.46484375 167.19921875 C255.41280762 167.81716309 254.36077148 168.43510742 253.27685547 169.07177734 C247.67635511 172.36731838 242.0888037 175.68467555 236.5 179 C228.33716906 183.83983735 220.17118139 188.67427424 212 193.5 C200.47797995 200.30505777 188.96656448 207.12798115 177.45556641 213.95166016 C171.80409916 217.30176185 166.1520027 220.6508018 160.5 224 C158.24999736 225.33332887 155.99999736 226.66666221 153.75 228 C149.25 230.66666667 144.75 233.33333333 140.25 236 C139.13584717 236.6602417 138.02169434 237.3204834 136.8737793 238.00073242 C134.62785889 239.3316422 132.38192793 240.66253418 130.13598633 241.9934082 C125.02685567 245.02094512 119.91780526 248.04861703 114.80917358 251.07699585 C102.98924603 258.08379219 91.16666387 265.08600739 79.33544922 272.07373047 C69.30678617 277.99802662 59.28736029 283.93789682 49.26786804 289.87768555 C45.05681721 292.3739558 40.8449457 294.86883788 36.6328125 297.36328125 C34.81829601 298.4379977 33.00379505 299.51274034 31.18930054 300.5874939 C29.49520688 301.59082303 27.80095102 302.59387826 26.10668945 303.59692383 C25.05956787 304.21720459 24.01244629 304.83748535 22.93359375 305.4765625 C21.93440918 306.0634082 20.93522461 306.65025391 19.90576172 307.25488281 C17.9634492 308.42138003 16.04266509 309.62446987 14.14501953 310.86230469 C12.82219971 311.71550293 12.82219971 311.71550293 11.47265625 312.5859375 C10.7031665 313.09946777 9.93367676 313.61299805 9.14086914 314.14208984 C7 315 7 315 5.26877975 314.44117165 C1.9461111 312.33054991 -0.68629137 309.58100226 -3.44134521 306.79916382 C-4.08588063 306.15633725 -4.73041605 305.51351068 -5.39448285 304.85120451 C-7.55650907 302.69247682 -9.71130189 300.52667045 -11.86621094 298.36083984 C-13.41314977 296.81333698 -14.96052891 295.26627416 -16.50831604 293.71961975 C-20.71284885 289.51566176 -24.91117822 285.30555716 -29.10844326 281.09434462 C-33.49444647 276.69585554 -37.88609808 272.30301363 -42.27716064 267.90957642 C-49.64779629 260.53342691 -57.01492902 253.15379399 -64.37939453 245.77148438 C-71.96461512 238.16790394 -79.55193479 230.56642827 -87.14208984 222.96777344 C-87.60999726 222.49934058 -88.07790467 222.03090772 -88.55999109 221.54827993 C-90.90737331 219.19828762 -93.25479915 216.84833888 -95.60224104 214.49840617 C-115.0744844 195.0052466 -134.53958012 175.50496269 -154 156 C-152.34828196 151.74238754 -149.16802712 148.89589215 -145.98898315 145.74847412 C-145.36657435 145.12435646 -144.74416554 144.5002388 -144.10289586 143.85720849 C-142.01326453 141.76427936 -139.91655845 139.67858492 -137.81982422 137.59277344 C-136.3215818 136.09509507 -134.82377946 134.59697636 -133.3263855 133.09844971 C-129.25672032 129.02820978 -125.18091 124.96417371 -121.10399008 120.9012022 C-116.84563664 116.65533563 -112.5929313 112.40381967 -108.33963013 108.15289307 C-100.28302218 100.10250589 -92.2213287 92.05723134 -84.15780747 84.01376939 C-74.97866661 74.85696891 -65.80519162 65.69450129 -56.63219428 56.53154707 C-37.76110544 37.68137377 -18.88289259 18.83834853 0 0 Z " fill="#FE8D01" transform="translate(213,345)"/>
<path d="M0 0 C0.15913941 33.06916848 -0.11665538 66.12659574 -0.50509644 99.19296265 C-0.80929496 125.14533427 -1.05823113 151.09758372 -1.23837018 177.05109143 C-1.25390394 179.28482406 -1.26958259 181.51855562 -1.28530693 183.75228691 C-1.37893147 197.0600818 -1.4720363 210.36787926 -1.5541687 223.67575073 C-1.74238029 254.1255855 -1.93508579 284.56546482 -3 315 C-4.06903564 315.26225121 -4.06903564 315.26225121 -5.15966797 315.52980042 C-16.93483806 318.42040458 -28.65517678 321.35543901 -40.24609375 324.921875 C-42.96625894 325.70310871 -45.6154282 326.37614676 -48.375 326.96875 C-53.17604333 328.0037788 -57.85437033 329.35896169 -62.5625 330.75 C-70.41746733 333.03714843 -78.3041923 335.11535094 -86.25 337.0625 C-93.72789338 338.89633193 -101.12446012 340.86319165 -108.48925781 343.10571289 C-115.64015296 345.25252037 -122.88723104 346.99101434 -130.13671875 348.76953125 C-135.97136999 350.21155532 -141.75072469 351.74923836 -147.5 353.5 C-155.29919324 355.87499991 -163.18675437 357.82025695 -171.10375977 359.76074219 C-177.97091752 361.45682429 -184.75450868 363.33666972 -191.52539062 365.38012695 C-196.31795583 366.82110264 -201.0967529 368.01552739 -206 369 C-207.68817053 369.37196978 -209.37567752 369.74696405 -211.0625 370.125 C-212.375 370.41666667 -213.6875 370.70833333 -215 371 C-215.62849414 368.85518747 -216.25260258 366.70908965 -216.875 364.5625 C-217.39707031 362.77005859 -217.39707031 362.77005859 -217.9296875 360.94140625 C-218.70483598 358.18536162 -219.36036266 355.42410776 -219.9609375 352.625 C-221.00274286 347.82565476 -222.35901175 343.14546022 -223.75 338.4375 C-226.03714843 330.58253267 -228.11535094 322.6958077 -230.0625 314.75 C-231.89633193 307.27210662 -233.86319165 299.87553988 -236.10571289 292.51074219 C-238.25252037 285.35984704 -239.99101434 278.11276896 -241.76953125 270.86328125 C-243.21155532 265.02863001 -244.74923836 259.24927531 -246.5 253.5 C-248.87588033 245.69791557 -250.82163232 237.80736306 -252.76293945 229.88745117 C-254.43685304 223.11023473 -256.2911616 216.41781485 -258.31640625 209.73828125 C-259.8436573 204.66066737 -261.04613611 199.55786015 -262.1875 194.3828125 C-263.15931177 190.33671156 -264.31194745 186.36202382 -265.5 182.375 C-265.71479004 181.65151367 -265.92958008 180.92802734 -266.15087891 180.18261719 C-267.09803628 177.00126994 -268.05402082 173.82309212 -269.0234375 170.6484375 C-269.30445313 169.69195313 -269.58546875 168.73546875 -269.875 167.75 C-270.11992187 166.94046875 -270.36484375 166.1309375 -270.6171875 165.296875 C-271.08333129 162.50001224 -270.92963605 160.68215569 -270 158 C-268.28515625 156.62890625 -268.28515625 156.62890625 -266.0625 155.5625 C-261.59409603 153.31757384 -257.39383599 150.80214744 -253.1640625 148.13671875 C-251 147 -251 147 -248 147 C-248 146.34 -248 145.68 -248 145 C-246.12890625 143.66796875 -246.12890625 143.66796875 -243.5625 142.1875 C-242.65242188 141.65898438 -241.74234375 141.13046875 -240.8046875 140.5859375 C-237.53767098 138.73857161 -234.26577433 136.9020327 -230.97265625 135.1015625 C-229.32655036 134.18235089 -227.71988153 133.19296879 -226.125 132.1875 C-224 131 -224 131 -221 131 C-221 130.34 -221 129.68 -221 129 C-219.12890625 127.66796875 -219.12890625 127.66796875 -216.5625 126.1875 C-215.19738281 125.39472656 -215.19738281 125.39472656 -213.8046875 124.5859375 C-210.53767098 122.73857161 -207.26577433 120.9020327 -203.97265625 119.1015625 C-202.32655036 118.18235089 -200.71988153 117.19296879 -199.125 116.1875 C-197 115 -197 115 -194 115 C-194 114.34 -194 113.68 -194 113 C-192.12890625 111.66796875 -192.12890625 111.66796875 -189.5625 110.1875 C-188.19738281 109.39472656 -188.19738281 109.39472656 -186.8046875 108.5859375 C-183.53767098 106.73857161 -180.26577433 104.9020327 -176.97265625 103.1015625 C-175.32655036 102.18235089 -173.71988153 101.19296879 -172.125 100.1875 C-170 99 -170 99 -167 99 C-167 98.34 -167 97.68 -167 97 C-165.12890625 95.66796875 -165.12890625 95.66796875 -162.5625 94.1875 C-161.655 93.66285156 -160.7475 93.13820313 -159.8125 92.59765625 C-158.884375 92.07042969 -157.95625 91.54320312 -157 91 C-155.7315625 90.25556641 -155.7315625 90.25556641 -154.4375 89.49609375 C-148.38158832 86 -148.38158832 86 -145 86 C-145 85.34 -145 84.68 -145 84 C-142.7140617 82.4670058 -140.44192427 81.06139469 -138.0625 79.6875 C-137.37897461 79.28668213 -136.69544922 78.88586426 -135.99121094 78.47290039 C-133.9982661 77.30799351 -131.99940865 76.15376391 -130 75 C-129.04480469 74.43796875 -128.08960938 73.8759375 -127.10546875 73.296875 C-121.39278017 70 -121.39278017 70 -118 70 C-118 69.34 -118 68.68 -118 68 C-116.12890625 66.66796875 -116.12890625 66.66796875 -113.5625 65.1875 C-112.65242187 64.65898438 -111.74234375 64.13046875 -110.8046875 63.5859375 C-107.53767098 61.73857161 -104.26577433 59.9020327 -100.97265625 58.1015625 C-99.32655036 57.18235089 -97.71988153 56.19296879 -96.125 55.1875 C-94 54 -94 54 -91 54 C-91 53.34 -91 52.68 -91 52 C-89.12890625 50.66796875 -89.12890625 50.66796875 -86.5625 49.1875 C-85.65242187 48.65898438 -84.74234375 48.13046875 -83.8046875 47.5859375 C-80.53767098 45.73857161 -77.26577433 43.9020327 -73.97265625 42.1015625 C-72.32655036 41.18235089 -70.71988153 40.19296879 -69.125 39.1875 C-67 38 -67 38 -64 38 C-64 37.34 -64 36.68 -64 36 C-62.12890625 34.66796875 -62.12890625 34.66796875 -59.5625 33.1875 C-58.65242187 32.65898438 -57.74234375 32.13046875 -56.8046875 31.5859375 C-53.53767098 29.73857161 -50.26577433 27.9020327 -46.97265625 26.1015625 C-45.32655036 25.18235089 -43.71988153 24.19296879 -42.125 23.1875 C-40 22 -40 22 -37 22 C-37 21.34 -37 20.68 -37 20 C-35.12890625 18.66796875 -35.12890625 18.66796875 -32.5625 17.1875 C-31.655 16.66285156 -30.7475 16.13820313 -29.8125 15.59765625 C-28.4203125 14.80681641 -28.4203125 14.80681641 -27 14 C-26.154375 13.50371094 -25.30875 13.00742187 -24.4375 12.49609375 C-18.38158832 9 -18.38158832 9 -15 9 C-15 8.34 -15 7.68 -15 7 C-12.87767021 5.82823482 -10.75242209 4.66245215 -8.625 3.5 C-7.72007812 2.99919922 -7.72007812 2.99919922 -6.796875 2.48828125 C-2.2265625 0 -2.2265625 0 0 0 Z " fill="#FE0000" transform="translate(494,511)"/>
<path d="M0 0 C3.30037971 2.12958417 5.93748217 4.87345292 8.68741989 7.6501255 C9.33195531 8.29295207 9.97649073 8.93577864 10.64055753 9.59808481 C12.80258375 11.75681251 14.95737657 13.92261887 17.11228561 16.08844948 C18.65922444 17.63595234 20.20660359 19.18301516 21.75439072 20.72966957 C25.95892353 24.93362757 30.1572529 29.14373217 34.35451794 33.35494471 C38.74052115 37.75343378 43.13217275 42.14627569 47.52323532 46.53971291 C54.89387097 53.91586241 62.2610037 61.29549533 69.62546921 68.67780495 C77.21068979 76.28138538 84.79800947 83.88286106 92.38816452 91.48151588 C92.85607193 91.94994874 93.32397934 92.4183816 93.80606577 92.9010094 C96.15344799 95.25100171 98.50087383 97.60095044 100.84831572 99.95088315 C120.32055907 119.44404272 139.7856548 138.94432663 159.24607468 158.44928932 C157.59484564 162.67764367 154.46272339 165.52598304 151.31339645 168.66958046 C150.39225866 169.60068997 150.39225866 169.60068997 149.45251203 170.55060977 C147.39075735 172.63207047 145.32188729 174.70630778 143.25291061 176.78058815 C141.774304 178.27008847 140.2960877 179.75997632 138.81823349 181.25022316 C134.80057542 185.29839817 130.77617702 189.33980432 126.74958324 193.37908959 C124.23574702 195.9010062 121.7229648 198.42396858 119.21046829 200.94721985 C111.35367951 208.83672356 103.49249606 216.72181264 95.62543178 224.60107023 C86.53459087 233.70618423 77.4587746 242.82593622 68.39550757 251.95849591 C61.39370583 259.01198419 54.37860478 266.05206284 47.35324121 273.08208293 C43.15487128 277.28385885 38.96248545 281.49122772 34.78390884 285.71269608 C30.8560456 289.68016965 26.91201377 293.63080797 22.95475197 297.56895256 C21.50304582 299.01938759 20.05734528 300.47586143 18.61807823 301.93864059 C16.65666663 303.93025934 14.67504461 305.89925326 12.68668747 307.8639164 C11.83364961 308.74549273 11.83364961 308.74549273 10.96337867 309.64487869 C9.33699799 311.22528744 9.33699799 311.22528744 6.24607468 313.44928932 C1.8593108 313.34456162 -1.16154471 311.94584345 -4.92970657 309.78132057 C-5.90955521 309.22500954 -6.88940384 308.6686985 -7.89894485 308.09552956 C-8.94421341 307.49039528 -9.98948196 306.885261 -11.06642532 306.26178932 C-13.32018511 304.97767806 -15.57409558 303.69383124 -17.82814407 302.41022682 C-18.99017884 301.7446906 -20.1521254 301.07900036 -21.31398392 300.41315651 C-26.6485016 297.36767317 -32.01463731 294.37940862 -37.37892532 291.38678932 C-46.29678732 286.39709106 -55.19757417 281.37781588 -64.0903511 276.34357643 C-71.13368496 272.35870686 -78.19099116 268.39930065 -85.25392532 264.44928932 C-94.21326742 259.4386943 -103.15674506 254.40099881 -112.08986282 249.34382057 C-119.1333888 245.35892163 -126.19083249 241.39938939 -133.25392532 237.44928932 C-142.21326742 232.4386943 -151.15674506 227.40099881 -160.08986282 222.34382057 C-167.1333888 218.35892163 -174.19083249 214.39938939 -181.25392532 210.44928932 C-190.21413437 205.43820945 -199.15935949 200.40156597 -208.09206009 195.34162331 C-213.02186036 192.5512897 -217.95809084 189.77332674 -222.90626907 187.01569557 C-238.98693327 178.05321521 -254.97714328 168.93885887 -270.75392532 159.44928932 C-267.07232778 156.32823577 -263.23180903 153.92360343 -259.00392532 151.63678932 C-251.92740273 147.73135389 -244.98553962 143.62654951 -238.06642532 139.44928932 C-228.83465893 133.88017192 -219.56348478 128.38692258 -210.25392532 122.94928932 C-201.07524492 117.58629403 -191.92631261 112.17874947 -182.81642532 106.69928932 C-181.80813675 106.09471901 -180.79984818 105.4901487 -179.7610054 104.86725807 C-174.64311305 101.79710287 -169.53843576 98.70742238 -164.44923782 95.58991432 C-162.44677222 94.37614402 -160.44417359 93.16259317 -158.44142532 91.94928932 C-157.5217598 91.3785569 -156.60209427 90.80782448 -155.65456009 90.21979713 C-154.8043428 89.70771706 -153.95412552 89.19563698 -153.07814407 88.66803932 C-152.3365303 88.21364479 -151.59491653 87.75925026 -150.83082962 87.2910862 C-148.26167438 86.24977348 -147.35733349 86.62944608 -144.75392532 87.44928932 C-142.11967649 88.71032926 -139.52736117 90.00512215 -136.93751907 91.35163307 C-136.17324097 91.74491798 -135.40896286 92.1382029 -134.62152481 92.54340553 C-132.14267328 93.82041106 -129.66700247 95.10344932 -127.19142532 96.38678932 C-125.48697757 97.2667033 -123.78238747 98.14634158 -122.07765579 99.02570534 C-112.40798749 104.01823879 -102.75321206 109.03854057 -93.13673782 114.13288307 C-86.8885716 117.44218278 -80.61443788 120.7019918 -74.34132767 123.96369362 C-69.6056387 126.42854477 -64.88029307 128.90970897 -60.17580032 131.43366432 C-59.30246048 131.90030495 -58.42912064 132.36694557 -57.52931595 132.84772682 C-55.88460388 133.72795942 -54.24252442 134.61313457 -52.6035347 135.50397682 C-51.87456985 135.8932737 -51.14560501 136.28257057 -50.39455032 136.68366432 C-49.76065384 137.02623268 -49.12675735 137.36880104 -48.47365189 137.72175026 C-46.60465312 138.64410079 -46.60465312 138.64410079 -43.75392532 138.44928932 C-42.10392532 135.14928932 -40.45392532 131.84928932 -38.75392532 128.44928932 C-53.58008542 119.96230316 -68.77280735 112.21228334 -83.97104263 104.4216404 C-90.00822 101.32454718 -96.01836227 98.17817888 -102.01662064 95.00641823 C-108.47948268 91.58915411 -114.95891528 88.20412297 -121.44142532 84.82428932 C-122.97790726 84.02317726 -122.97790726 84.02317726 -124.54542923 83.20588112 C-126.9481173 81.95340729 -129.35093831 80.70118948 -131.75392532 79.44928932 C-131.75392532 78.45928932 -131.75392532 77.46928932 -131.75392532 76.44928932 C-130.16286087 75.16926003 -130.16286087 75.16926003 -127.89064407 73.87507057 C-127.03768753 73.3809568 -126.18473099 72.88684303 -125.30592728 72.37775612 C-124.36064163 71.84448708 -123.41535599 71.31121803 -122.44142532 70.76178932 C-120.40721341 69.58792988 -118.37337547 68.4134222 -116.33986282 67.23835182 C-115.26188431 66.61992409 -114.18390579 66.00149635 -113.07326126 65.36432838 C-107.54092631 62.17253408 -102.05611324 58.90119802 -96.56642532 55.63678932 C-94.27104633 54.27578346 -91.9754895 52.91508199 -89.67970657 51.55475807 C-88.52295456 50.8690716 -87.36621628 50.18336197 -86.20949173 49.49762917 C-80.55802449 46.14752747 -74.90592802 42.79848752 -69.25392532 39.44928932 C-67.00392268 38.11596045 -64.75392268 36.78262712 -62.50392532 35.44928932 C-58.00392532 32.78262266 -53.50392532 30.11595599 -49.00392532 27.44928932 C-47.8883223 26.78783913 -46.77271927 26.12638893 -45.62331009 25.44489479 C-43.39327618 24.1240994 -41.16200989 22.80538237 -38.92946243 21.4888401 C-33.62891471 18.35964315 -28.34517698 15.21063844 -23.10161209 11.98707008 C-20.61220717 10.45839652 -18.11576677 8.94143341 -15.61867142 7.42536354 C-14.42514025 6.69618099 -13.2351215 5.96121531 -12.0488472 5.22028542 C-10.40863768 4.19632072 -8.75537611 3.19335235 -7.10158157 2.19147682 C-5.69404617 1.32305153 -5.69404617 1.32305153 -4.25807571 0.43708229 C-1.75392532 -0.55071068 -1.75392532 -0.55071068 0 0 Z " fill="#56DFFD" transform="translate(781.7539253234863,340.5507106781006)"/>
<path d="M0 0 C15.58669084 3.39956631 31.03080468 7.35253524 46.34472656 11.81933594 C52.19985185 13.51663448 58.07802201 15.05434067 64 16.5 C70.79938 18.15984865 77.53112621 19.97730205 84.25 21.9375 C92.89499513 24.45855173 101.59373137 26.67525675 110.33886719 28.82006836 C116.78224631 30.41216422 123.14113815 32.17276188 129.48925781 34.10571289 C135.60978802 35.94318914 141.79454722 37.47761619 148 39 C154.88301648 40.68861052 161.71977481 42.43543893 168.5 44.5 C176.3862421 46.89999111 184.35964267 48.89654866 192.36523438 50.85742188 C193.32494141 51.09267578 194.28464844 51.32792969 195.2734375 51.5703125 C196.11310059 51.77414551 196.95276367 51.97797852 197.81787109 52.18798828 C202.56158401 53.39848308 207.27941842 54.70262573 212 56 C213.13948854 88.19308822 213.12442918 120.38292759 213.07202661 152.59103835 C213.06060003 159.74529219 213.05528901 166.89954731 213.05032361 174.05380809 C213.0400282 188.70254803 213.02258197 203.35127368 213 218 C209.86899944 216.75962114 206.81821765 215.47305476 203.8046875 213.96875 C203.01682861 213.57582764 202.22896973 213.18290527 201.41723633 212.77807617 C200.57829834 212.35631104 199.73936035 211.9345459 198.875 211.5 C197.98901123 211.05567627 197.10302246 210.61135254 196.19018555 210.15356445 C188.7886998 206.42685491 181.45164789 202.58554473 174.12890625 198.70703125 C167.11773763 194.99686783 160.07074725 191.35544189 153.02832031 187.70507812 C145.84332422 183.97522314 138.70056328 180.17674542 131.59765625 176.29296875 C129.18519757 174.85146753 129.18519757 174.85146753 127 175 C124.525 180.445 124.525 180.445 122 186 C124.37638672 187.23363281 124.37638672 187.23363281 126.80078125 188.4921875 C146.6228733 198.78776722 146.6228733 198.78776722 156.5 204 C164.88023608 208.42212046 173.28660328 212.79314357 181.69604492 217.15942383 C189.19895773 221.05727429 196.68802054 224.98054906 204.1640625 228.9296875 C204.87949219 229.30738281 205.59492188 229.68507813 206.33203125 230.07421875 C206.94796143 230.39994873 207.5638916 230.72567871 208.19848633 231.0612793 C210.12149658 232.06330863 212.05956623 233.03222252 214 234 C214.91003904 263.59821303 215.13048855 293.16984909 215.06866455 322.78076172 C215.05818241 328.36099853 215.05381535 333.94124043 215.04882812 339.52148438 C215.03830408 350.34766883 215.02138514 361.1738319 215 372 C212.4516926 370.73332471 209.90421424 369.46502706 207.35717773 368.19580078 C206.28431644 367.66283134 206.28431644 367.66283134 205.18978119 367.11909485 C199.37321174 364.21814836 193.69521248 361.11883889 188.0625 357.875 C186.08494 356.74686175 184.10706396 355.61927736 182.12890625 354.4921875 C181.12359863 353.91823242 180.11829102 353.34427734 179.08251953 352.75292969 C173.90368213 349.80789147 168.70119789 346.90530458 163.5 344 C154.5403742 338.98991506 145.59717754 333.95170794 136.6640625 328.89453125 C129.62053653 324.90963231 122.56309283 320.95010006 115.5 317 C106.5406579 311.98940497 97.59718026 306.95170949 88.6640625 301.89453125 C81.62053653 297.90963231 74.56309283 293.95010006 67.5 290 C58.5406579 284.98940497 49.59718026 279.95170949 40.6640625 274.89453125 C33.62053653 270.90963231 26.56309283 266.95010006 19.5 263 C10.54494451 257.9918023 1.60491241 252.95797192 -7.32275391 247.90112305 C-13.41898923 244.45071042 -19.52922969 241.02632694 -25.64672852 237.61376953 C-36.51670992 231.54867668 -47.3119744 225.38047195 -58 219 C-57.30895418 212.55326996 -55.55142743 206.52811221 -53.75 200.3125 C-51.51646645 192.48629876 -49.36133143 184.65819888 -47.4375 176.75 C-45.58459629 169.15362703 -43.4914639 161.65035436 -41.30273438 154.14453125 C-39.05629525 146.36530216 -37.10841015 138.52420406 -35.17993164 130.66113281 C-33.58783578 124.21775369 -31.82723812 117.85886185 -29.89428711 111.51074219 C-28.05681086 105.39021198 -26.52238381 99.20545278 -25 93 C-23.14508483 85.43910214 -21.16216649 77.95834029 -18.89453125 70.51171875 C-17.05709066 64.39081792 -15.52257797 58.20576118 -14 52 C-12.14199196 44.43180038 -10.16860327 36.93532507 -7.90551758 29.47875977 C-4.97412281 19.7354521 -2.52292873 9.85523119 0 0 Z " fill="#FEF000" transform="translate(279,118)"/>
<path d="M0 0 C0.16604736 0.64960693 0.33209473 1.29921387 0.50317383 1.96850586 C1.26961522 4.95903627 2.04102548 7.94826422 2.8125 10.9375 C3.07353516 11.95908203 3.33457031 12.98066406 3.60351562 14.03320312 C4.99621081 19.41485243 6.52622163 24.68536635 8.33227539 29.94165039 C9.37745171 33.16354493 10.08553142 36.44378673 10.8125 39.75 C12.28533598 46.25708532 14.00199517 52.65970316 15.875 59.0625 C18.09669757 66.6689186 20.11432114 74.30349025 22 82 C24.08647386 90.5101686 26.36656522 98.93661533 28.8203125 107.34765625 C30.75434585 114.02057761 32.45840476 120.73286014 34.10571289 127.48144531 C35.81445407 134.41440237 37.76551585 141.26364542 39.76293945 148.11816406 C41.77958496 155.09150169 43.57979842 162.1051632 45.26367188 169.16601562 C46.1959716 173.02190333 47.2275213 176.78172811 48.515625 180.53515625 C49.99960446 184.86496224 51.0750702 189.22171665 52.0625 193.6875 C52.9391793 197.62023406 53.81270294 201.45377129 55.12109375 205.26953125 C56 208 56 208 56 212 C53.515625 213.88671875 53.515625 213.88671875 50.25 215.6875 C49.18265625 216.28949219 48.1153125 216.89148438 47.015625 217.51171875 C44.59866405 218.70454533 42.6271391 219.52175866 40 220 C40 220.66 40 221.32 40 222 C38.82244141 222.56267578 38.82244141 222.56267578 37.62109375 223.13671875 C31.66337638 226.03882156 26.28318553 229.01065582 21 233 C16.44827586 236 16.44827586 236 13 236 C13 236.66 13 237.32 13 238 C11.82244141 238.56267578 11.82244141 238.56267578 10.62109375 239.13671875 C4.66337638 242.03882156 -0.71681447 245.01065582 -6 249 C-10.55172414 252 -10.55172414 252 -14 252 C-14 252.66 -14 253.32 -14 254 C-15.17755859 254.56267578 -15.17755859 254.56267578 -16.37890625 255.13671875 C-22.34441509 258.04261692 -27.68833177 261.04228642 -33 265 C-34.67861472 265.98183125 -36.35810859 266.96280409 -38.05859375 267.90625 C-40.36040393 269.20304447 -42.61542497 270.56848391 -44.875 271.9375 C-48.19018643 273.92863332 -51.51387905 275.89975683 -54.875 277.8125 C-55.57367187 278.21082031 -56.27234375 278.60914063 -56.9921875 279.01953125 C-58.98792806 279.99410495 -60.83153434 280.54783115 -63 281 C-63 281.66 -63 282.32 -63 283 C-65.1383541 284.1879745 -67.27707316 285.37520107 -69.41796875 286.55859375 C-71.09524118 287.49492284 -72.76507326 288.44475273 -74.42578125 289.41015625 C-75.19277344 289.85230469 -75.95976563 290.29445313 -76.75 290.75 C-77.44609375 291.15734375 -78.1421875 291.5646875 -78.859375 291.984375 C-81.32103251 293.15231469 -83.2862704 293.69351464 -86 294 C-88.27880859 293.17407227 -88.27880859 293.17407227 -90.6484375 291.81640625 C-91.5556958 291.30891846 -92.4629541 290.80143066 -93.39770508 290.27856445 C-94.3802124 289.71226318 -95.36271973 289.14596191 -96.375 288.5625 C-98.53080441 287.35624624 -100.68845174 286.15328192 -102.84765625 284.953125 C-104.00023926 284.31052734 -105.15282227 283.66792969 -106.34033203 283.00585938 C-112.75508011 279.46456664 -119.29190137 276.15325649 -125.8125 272.8125 C-128.46786258 271.44872298 -131.12261448 270.08375933 -133.77734375 268.71875 C-134.41058563 268.39336243 -135.04382751 268.06797485 -135.69625854 267.73272705 C-141.50442134 264.74607531 -147.28555221 261.71012915 -153.05932617 258.65771484 C-159.56553603 255.22066208 -166.0941253 251.82741616 -172.625 248.4375 C-182.4428612 243.34044048 -192.23524135 238.19802145 -202 233 C-202.33 233.66 -202.66 234.32 -203 235 C-203.33 234.01 -203.66 233.02 -204 232 C-205.65609634 231.32010916 -207.31465488 230.64534807 -208.9873867 230.00748062 C-212.50657982 228.53146237 -215.47331791 226.90663014 -218 224 C-220.68432243 217.23228077 -219.76250161 209.27380473 -219.5859375 202.140625 C-219.58229114 199.9363725 -219.58487679 197.73210195 -219.5933075 195.52786255 C-219.59900362 189.6456459 -219.5202567 183.76737274 -219.4250679 177.88603973 C-219.34178373 171.83776217 -219.33708493 165.78948791 -219.32592773 159.74072266 C-219.29960034 150.19859945 -219.23179659 140.65779083 -219.12744141 131.11621094 C-219.00651887 119.95431025 -218.97224656 108.79521851 -219.01171875 97.6328125 C-219.01643464 96.17468267 -219.02113477 94.71655279 -219.02581787 93.25842285 C-219.03464381 90.56237656 -219.04387276 87.86633248 -219.05328369 85.17028809 C-219.07527679 76.11350023 -219.03756771 67.05670724 -219 58 C-215.53962465 57.04872416 -212.07847235 56.10030449 -208.6171875 55.15234375 C-207.65063232 54.88659546 -206.68407715 54.62084717 -205.68823242 54.3470459 C-199.52124555 52.65985138 -193.33877866 51.06759234 -187.125 49.5625 C-178.577206 47.46487657 -170.15405037 45.02458313 -161.71801758 42.51806641 C-155.28064329 40.62102982 -148.84093855 38.95051225 -142.29345703 37.48583984 C-135.78836207 36.00818934 -129.40952712 34.1476816 -123.00708008 32.28100586 C-117.03418251 30.55093643 -111.04105123 28.97328165 -105 27.5 C-96.22887433 25.35752765 -87.56349144 22.91347182 -78.890625 20.40625 C-69.94520351 17.82278464 -60.94417101 15.47337696 -51.90332031 13.24804688 C-42.18748126 10.85379994 -32.56946585 8.20431895 -22.95703125 5.42578125 C-18.43962537 4.12121953 -13.91415686 2.85172328 -9.375 1.625 C-8.20710937 1.30789062 -7.03921875 0.99078125 -5.8359375 0.6640625 C-3 0 -3 0 0 0 Z " fill="#15FE00" transform="translate(721,118)"/>
<path d="M0 0 C0.33 0.66 0.66 1.32 1 2 C0.06421005 4.35981813 -0.93347808 6.69631264 -2 9 C-1.27055176 9.28359375 -0.54110352 9.5671875 0.21044922 9.859375 C2.74823182 10.89705401 5.18083784 12.02579797 7.6328125 13.25 C8.51122803 13.68820068 9.38964355 14.12640137 10.29467773 14.57788086 C11.69568726 15.28182983 11.69568726 15.28182983 13.125 16 C14.103479 16.49056885 15.08195801 16.9811377 16.09008789 17.48657227 C24.61217971 21.77487286 33.05508457 26.20341674 41.48388672 30.67138672 C46.14602445 33.13319086 50.8239891 35.56468245 55.5 38 C63.30779757 42.06907989 71.10682532 46.15420065 78.89575195 50.25927734 C88.25443007 55.19078439 97.62744936 60.09492396 107 65 C105.70046886 67.59906228 104.3674411 68.03119513 101.8125 69.375 C98.96847347 70.89874713 96.2583877 72.44856563 93.625 74.3125 C91 76 91 76 88 76 C88 76.66 88 77.32 88 78 C87.21496094 78.37511719 86.42992187 78.75023437 85.62109375 79.13671875 C79.66337638 82.03882156 74.28318553 85.01065582 69 89 C64.44827586 92 64.44827586 92 61 92 C61 92.66 61 93.32 61 94 C60.21496094 94.37511719 59.42992187 94.75023437 58.62109375 95.13671875 C51.52029082 98.56839662 51.52029082 98.56839662 44.9375 102.875 C42 105 42 105 39 105 C39 105.66 39 106.32 39 107 C37.6875 107.72916667 36.375 108.45833333 35.0625 109.1875 C34.24265625 109.64382813 33.4228125 110.10015625 32.578125 110.5703125 C30.92483837 111.48713509 29.26881306 112.39904647 27.609375 113.3046875 C24.17631032 115.18469911 20.83158817 117.06392953 17.625 119.3125 C15 121 15 121 12 121 C12 121.66 12 122.32 12 123 C11.32195313 123.36351562 10.64390625 123.72703125 9.9453125 124.1015625 C4.18881019 127.21103051 -1.45281586 130.4345571 -7.00390625 133.8984375 C-9 135 -9 135 -11 135 C-11.17873558 126.1043847 -11.34409465 117.20854257 -11.5 108.3125 C-11.51187725 107.6351757 -11.5237545 106.95785141 -11.53599167 106.26000214 C-11.95068016 82.38097086 -12.08917312 58.50744185 -12.0625 34.625 C-12.06164398 33.85298374 -12.06078796 33.08096748 -12.05990601 32.28555679 C-12.04866156 22.85701346 -12.02880878 13.42850731 -12 4 C-9.03 4.99 -6.06 5.98 -3 7 C-2.690625 6.030625 -2.38125 5.06125 -2.0625 4.0625 C-1 1 -1 1 0 0 Z " fill="#16FC01" transform="translate(516,355)"/>
<path d="M0 0 C5.30108527 4.17319479 9.34855467 8.73849208 13.546875 14.0078125 C16.09483513 17.1156747 18.76011806 20.06291515 21.5 23 C25.83883369 27.66319017 29.92069841 32.4790292 33.91796875 37.44140625 C36.85174972 41.04670931 39.91625844 44.5225893 43 48 C41.35 51.63 39.7 55.26 38 59 C23.72109164 58.4019246 9.57702188 57.00111519 -4.625 55.4375 C-6.80724528 55.20074391 -8.98953675 54.9644132 -11.171875 54.72851562 C-16.44845764 54.15723157 -21.72445196 53.58075654 -27 53 C-25.6926925 49.56068166 -24.18963666 46.38699095 -22.375 43.1875 C-21.92898438 42.39730469 -21.48296875 41.60710937 -21.0234375 40.79296875 C-20.68570313 40.20128906 -20.34796875 39.60960937 -20 39 C-5.9914691 40.60033354 8.01495571 42.20433721 22 44 C21.35937622 43.32179199 21.35937622 43.32179199 20.70581055 42.62988281 C16.49201012 38.1666815 12.28671658 33.69561316 8.08691406 29.21923828 C6.2384644 27.25358462 4.38223859 25.29569729 2.5234375 23.33984375 C1.53605399 22.28944244 0.54904472 21.23868914 -0.4375 20.1875 C-1.30246094 19.27355469 -2.16742187 18.35960937 -3.05859375 17.41796875 C-5.95687934 13.80823277 -5.95687934 13.80823277 -6 11 C-4.78515625 8.203125 -4.78515625 8.203125 -3.0625 5.25 C-2.49660156 4.26515625 -1.93070313 3.2803125 -1.34765625 2.265625 C-0.90292969 1.51796875 -0.45820312 0.7703125 0 0 Z " fill="#010505" transform="translate(759,452)"/>
<path d="M0 0 C7.69142895 -0.20421516 15.15365739 0.42535719 22.7890625 1.3125 C24.56571793 1.5122644 24.56571793 1.5122644 26.37826538 1.71606445 C30.12778615 2.13885265 33.87638051 2.5693014 37.625 3 C40.18093205 3.28957081 42.73692116 3.57863842 45.29296875 3.8671875 C51.5293176 4.5723066 57.76492578 5.28370205 64 6 C63.31936595 9.75305445 62.362366 12.50567892 60.4375 15.8125 C59.98246094 16.60269531 59.52742188 17.39289063 59.05859375 18.20703125 C58.53458984 19.09455078 58.53458984 19.09455078 58 20 C56.83428467 19.84853516 55.66856934 19.69707031 54.4675293 19.54101562 C50.14599892 18.98001613 45.82414883 18.42151414 41.50219727 17.86376953 C39.63101515 17.62193925 37.75992065 17.37943006 35.88891602 17.13623047 C33.20091078 16.78695373 30.51260081 16.44011282 27.82421875 16.09375 C26.98662521 15.9843811 26.14903168 15.87501221 25.28605652 15.7623291 C22.16971947 15.36268273 19.14549641 15 16 15 C16.49628906 15.4846875 16.99257813 15.969375 17.50390625 16.46875 C21.46200222 20.37427164 25.23613245 24.35448355 28.859375 28.5703125 C33.7821666 34.15786063 38.9173704 39.55814695 44 45 C42.85112887 48.61221644 41.61667691 52.00775797 39.875 55.375 C39.52179688 56.06335938 39.16859375 56.75171875 38.8046875 57.4609375 C38.53914063 57.96882813 38.27359375 58.47671875 38 59 C37.34 59 36.68 59 36 59 C34.6672812 57.53309441 33.41086131 55.99677499 32.1875 54.4375 C28.44896147 49.76432684 24.62077225 45.19787046 20.6875 40.6875 C19.57411466 39.4089448 18.46083418 38.13029828 17.34765625 36.8515625 C16.79352051 36.21508789 16.23938477 35.57861328 15.66845703 34.92285156 C12.97228577 31.81558717 10.29856611 28.68921291 7.625 25.5625 C3.44830645 20.68028849 -0.74997233 15.81869334 -5 11 C-3.55049545 7.2089881 -1.84827434 3.6125362 0 0 Z " fill="#050500" transform="translate(346,263)"/>
</svg>
