<?xml version="1.0" encoding="UTF-8"?>
<svg version="1.1" xmlns="http://www.w3.org/2000/svg" width="1000" height="1000">
<path d="M0 0 C330 0 660 0 1000 0 C1000 330 1000 660 1000 1000 C670 1000 340 1000 0 1000 C0 670 0 340 0 0 Z " fill="#FEFEFE" transform="translate(0,0)"/>
<path d="M0 0 C1.55843377 0.41946633 3.11694862 0.83863152 4.67553711 1.25752258 C8.03639723 2.1614307 11.39671674 3.06731219 14.75662231 3.97476196 C20.13956936 5.42857104 25.52365501 6.87812995 30.90795898 8.3269043 C36.65824447 9.87430595 42.40847533 11.42190792 48.15834045 12.97087097 C62.88220995 16.93693085 77.6100916 20.88787966 92.33984375 24.83203125 C94.50935437 25.41303235 96.67886426 25.99403617 98.84837341 26.57504272 C107.30693225 28.84017269 115.76556892 31.10501166 124.22439575 33.36914062 C129.17323431 34.69381657 134.12182153 36.01942854 139.07031059 37.34540939 C141.89943394 38.10308665 144.72888547 38.8595289 147.55836487 39.61587524 C156.18831756 41.92551919 164.80965194 44.26058828 173.41357422 46.66552734 C174.95529103 47.09438826 176.49703327 47.52315776 178.0388031 47.951828 C180.8495842 48.73357451 183.65679054 49.52665661 186.46229553 50.32710266 C187.6928215 50.66992783 188.92334747 51.01275299 190.19116211 51.3659668 C191.24782578 51.66544724 192.30448944 51.96492767 193.39317322 52.27348328 C199.62471477 53.54425773 204.7984839 52.7905617 210.8840332 51.14404297 C211.59390821 50.95457627 212.30378323 50.76510958 213.0351696 50.56990147 C215.3955497 49.93768294 217.75235813 49.29307147 220.109375 48.6484375 C221.80238877 48.19234648 223.49561651 47.73704913 225.18904114 47.28248596 C229.77401636 46.04948923 234.35605035 44.80587061 238.93766022 43.56043625 C243.76578085 42.25005927 248.59661131 40.94975363 253.42724609 39.64868164 C261.45709242 37.48489316 269.48553732 35.31597819 277.51318359 33.14404297 C288.87432333 30.07098907 300.24082103 27.01815242 311.609375 23.97265625 C313.39008721 23.49549354 315.17079807 23.0183258 316.95150757 22.54115295 C323.89182155 20.68156789 330.83233192 18.82271652 337.77294922 16.96426392 C342.79158475 15.62031321 347.80997094 14.27543482 352.828125 12.9296875 C353.63030079 12.71458464 354.43247658 12.49948177 355.25896072 12.27786064 C365.53582506 9.52091454 375.80448789 6.73578235 386.06439209 3.91638756 C390.35167953 2.73929297 394.64075917 1.56873158 398.92938232 0.39651489 C402.20343349 -0.50237818 405.47404131 -1.41306405 408.74462891 -2.32446289 C410.66813545 -2.85100371 412.59179035 -3.37700302 414.515625 -3.90234375 C415.79200081 -4.26451492 415.79200081 -4.26451492 417.09416199 -4.63400269 C424.84386256 -6.72465218 424.84386256 -6.72465218 428.49609375 -5.09375 C431.6395269 -0.82167177 432.76372249 3.80775684 434.07714844 8.85668945 C434.31710761 9.75359466 434.55706678 10.65049986 434.80429745 11.57458401 C435.59954368 14.55432963 436.38372303 17.53687323 437.16796875 20.51953125 C437.72805024 22.62642573 438.28883997 24.73313205 438.85029602 26.83966064 C440.34865491 32.46882953 441.83765513 38.10043373 443.3247261 43.73259354 C444.85643741 49.52809253 446.39607585 55.32148364 447.93530273 61.11499023 C449.76523164 68.00426824 451.59451451 74.89371328 453.41990662 81.78419495 C456.76556963 94.4112254 460.13318382 107.03181729 463.546875 119.640625 C463.90754264 120.97473001 464.26815006 122.3088513 464.62869263 123.64299011 C466.54691771 130.73853238 466.54691771 130.73853238 468.47570801 137.83120728 C473.80861752 157.39241546 473.80861752 157.39241546 475.13452148 166.55493164 C475.6523144 169.92215887 476.52930163 173.07705008 477.49609375 176.34375 C477.82609375 177.47683594 478.15609375 178.60992187 478.49609375 179.77734375 C479.43646852 182.85166216 479.43646852 182.85166216 480.5625 185.5546875 C481.43523729 187.75296301 481.97760919 189.77908552 482.43359375 192.09375 C483.30556974 196.19676878 484.40141395 200.17353535 485.66796875 204.171875 C486.25903281 206.1235016 486.78324746 208.09588678 487.26171875 210.078125 C489.5078061 218.77660875 493.17461268 223.66002466 499.49609375 229.90625 C500.69621229 231.27025027 501.88468046 232.64463223 503.05859375 234.03125 C505.4110297 236.74142966 507.86143085 239.27914601 510.43359375 241.78125 C513.34933576 244.63009162 515.80864904 247.57868431 518.24609375 250.84375 C522.21404375 255.9759488 526.76308131 259.34693854 532.0546875 262.99609375 C534.49609375 264.90625 534.49609375 264.90625 535.49609375 267.90625 C536.82268796 268.58622797 538.15751251 269.25018409 539.49609375 269.90625 C541.15604406 271.37730944 542.76354461 272.90822143 544.33622742 274.472229 C545.0447084 275.17285497 545.0447084 275.17285497 545.76750213 275.88763499 C547.34677601 277.45192309 548.91883505 279.02326307 550.4909668 280.59472656 C551.62253355 281.71867102 552.75450167 282.84221152 553.88684082 283.96537781 C556.95975728 287.01635271 560.0260788 290.07387263 563.09058356 293.13329411 C565.00524506 295.04431245 566.92119833 296.95402594 568.83759499 298.86330414 C575.52253684 305.52375528 582.20174161 312.18990462 588.8762207 318.86083984 C595.09922988 325.08021131 601.33525377 331.28632177 607.57733315 337.48654771 C612.93572196 342.81026277 618.2844678 348.14353903 623.62589675 353.48426986 C626.8164111 356.67399058 630.01079261 359.8595931 633.21509361 363.03546906 C636.2278067 366.02205094 639.22836508 369.02032739 642.21999359 372.02802467 C643.31980488 373.12965421 644.42390248 374.22702361 645.5325489 375.31976128 C647.0458453 376.81265739 648.54290365 378.32017233 650.03691101 379.83233643 C650.87884349 380.67225758 651.72077597 381.51217873 652.58822155 382.37755203 C654.82570126 385.34311251 655.4131836 387.20493506 655.49609375 390.90625 C654.58918285 392.74219799 654.58918285 392.74219799 652.99491882 394.39237976 C652.33932669 395.07592215 651.68373455 395.75946453 651.00827599 396.46372032 C650.17925585 397.26975512 649.35023571 398.07578991 648.49609375 398.90625 C647.75802093 399.62424125 647.75802093 399.62424125 647.00503755 400.35673738 C643.27480317 403.96862556 639.49547532 407.52681741 635.70550537 411.07584 C631.83672341 414.70041122 627.98131139 418.33913758 624.12641907 421.97846985 C623.305125 422.75369669 622.48383094 423.52892352 621.63764918 424.32764208 C610.05079834 435.28140695 598.603803 446.38112805 587.15549183 457.47931385 C577.8837307 466.45950203 568.56763395 475.38199558 559.12524414 484.18286133 C514.51519401 525.82281145 480.67420256 559.62665179 472.048572 621.5895443 C470.4312323 633.2071994 467.48544344 644.31807261 464.22080803 655.57840919 C462.81206763 660.48746713 461.511387 665.42463597 460.20166016 670.36083984 C459.69261629 672.26145768 459.18295274 674.16190965 458.67266846 676.06219482 C458.41914864 677.00708519 458.16562881 677.95197556 457.90442657 678.92549896 C456.53542116 684.02563181 455.16485536 689.12534525 453.79443359 694.22509766 C452.69481608 698.31798796 451.59541235 702.41093565 450.49609375 706.50390625 C450.23184223 707.4875264 449.96759071 708.47114655 449.69533157 709.48457336 C446.55975647 721.15944271 443.4499081 732.84038843 440.39238358 744.53594398 C439.26330936 748.84916482 438.12502548 753.15996921 436.98846436 757.47122192 C436.14902348 760.67466559 435.32540978 763.88189263 434.50244141 767.08959961 C434.01420114 768.94277099 433.52517058 770.79573443 433.03515625 772.6484375 C432.73073608 773.86889015 432.73073608 773.86889015 432.42016602 775.11399841 C431.60013189 778.15789757 430.97911563 780.43822178 428.6812439 782.6647644 C426.01896497 784.17732909 425.13800617 784.07135218 422.20703125 783.34472656 C421.32241211 783.13303833 420.43779297 782.9213501 419.52636719 782.70324707 C418.52637695 782.44023804 417.52638672 782.177229 416.49609375 781.90625 C415.38008789 781.62422729 414.26408203 781.34220459 413.11425781 781.05163574 C409.10944157 780.02337568 405.1149987 778.96026211 401.12109375 777.890625 C399.58948859 777.48284662 398.05781445 777.07532726 396.52607727 776.66804504 C392.38156758 775.56514572 388.23812075 774.45830203 384.09488297 773.35063553 C380.59526103 772.41555129 377.09503313 771.48274677 373.59480381 770.54993916 C361.55998009 767.34255343 349.52762055 764.12597844 337.49609375 760.90625 C336.13261181 760.54137859 336.13261181 760.54137859 334.74158478 760.16913605 C322.2965304 756.83852853 309.85262248 753.50365535 297.40939713 750.16622162 C294.81175393 749.46959748 292.21403806 748.77324494 289.61630249 748.07696533 C273.38908529 743.72722744 257.16335299 739.37322282 240.95913124 734.93846703 C236.69545496 733.77242463 232.4303517 732.61160337 228.1656189 731.44943237 C224.91690054 730.56087307 221.67094771 729.66270959 218.42504883 728.76391602 C216.50744982 728.24058771 214.58973343 727.71768929 212.671875 727.1953125 C211.83124512 726.95901627 210.99061523 726.72272003 210.12451172 726.47926331 C208.95553345 726.16395912 208.95553345 726.16395912 207.76293945 725.84228516 C207.10203812 725.65993317 206.44113678 725.47758118 205.76020813 725.28970337 C200.37078064 724.37694289 195.56442434 724.92207219 190.33666992 726.36132812 C189.14262543 726.68522018 187.94858093 727.00911224 186.71835327 727.34281921 C185.40856405 727.70762078 184.09880139 728.07251775 182.7890625 728.4375 C181.38789385 728.82068819 179.98648884 729.20301301 178.58486938 729.58454895 C175.55127766 730.41195941 172.51920352 731.2446472 169.4881897 732.08145142 C164.60421459 733.42951363 159.71696154 734.76538571 154.82885742 736.09838867 C153.99084626 736.32691749 153.1528351 736.5554463 152.28942966 736.79090023 C150.56603047 737.2608131 148.84261524 737.73066711 147.11918449 738.20046425 C144.45575758 738.92683866 141.79262943 739.65430088 139.12953186 740.38188171 C125.93328639 743.98464073 112.72285178 747.53228317 99.50390625 751.05078125 C98.06722721 751.43323155 98.06722721 751.43323155 96.60152435 751.82340813 C88.87442886 753.87991671 81.14658315 755.9336 73.41851807 757.98646164 C66.80068644 759.74445231 60.18321035 761.50377051 53.56640625 763.265625 C52.65659248 763.50787371 51.74677872 763.75012241 50.80939484 763.99971199 C38.76946783 767.20781129 26.74570098 770.46923777 14.73828125 773.796875 C13.4056972 774.16533717 12.07309165 774.53372157 10.74046326 774.90202332 C4.79316649 776.54732219 -1.15058782 778.20366268 -7.08862305 779.88208008 C-9.10845763 780.44389463 -11.12838875 781.00536226 -13.1484375 781.56640625 C-14.03963287 781.82339294 -14.93082825 782.08037964 -15.84902954 782.34515381 C-23.45400216 784.43713992 -23.45400216 784.43713992 -27.50390625 782.90625 C-30.16817275 780.2419835 -30.46468865 777.97021369 -31.4296875 774.32397461 C-31.70481108 773.29593578 -31.70481108 773.29593578 -31.98549271 772.24712849 C-32.60226947 769.93595279 -33.20923482 767.62230989 -33.81640625 765.30859375 C-34.25733485 763.64898471 -34.69889966 761.98954459 -35.14105225 760.33026123 C-36.09774415 756.73498256 -37.0501805 753.13861273 -37.99938965 749.54135132 C-39.51662067 743.79180399 -41.04307714 738.04473271 -42.57128906 732.2980957 C-44.18870209 726.21456402 -45.80560098 720.13089893 -47.41949463 714.0464325 C-53.10115397 692.62876902 -58.83925825 671.22632519 -64.58203125 649.82498169 C-66.20793186 643.76564254 -67.83265891 637.70598923 -69.45703125 631.64624023 C-69.98349881 629.68231165 -70.50996771 627.71838342 -71.03643799 625.75445557 C-71.29144325 624.80319038 -71.54644852 623.8519252 -71.80918121 622.8718338 C-72.49976023 620.2957907 -73.19037597 617.71975744 -73.88104248 615.14373779 C-74.20802093 613.91243936 -74.20802093 613.91243936 -74.541605 612.65626621 C-75.01265937 610.91589212 -75.50025523 609.17993015 -76.00232506 607.44824886 C-77.53003523 602.06713079 -78.73084692 596.7423389 -79.62236011 591.22569084 C-84.9353784 559.16609071 -100.59209025 541.72356098 -123.70267916 519.83031678 C-128.32300905 515.41971569 -132.85337246 510.91840808 -137.39437866 506.42643738 C-144.9988595 498.92656725 -152.65084202 491.47980793 -160.34716797 484.07446289 C-168.24893115 476.47109623 -176.12472176 468.84249065 -183.96435547 461.17504883 C-184.45076738 460.69934564 -184.9371793 460.22364244 -185.43833096 459.733524 C-190.74933391 454.53833713 -196.05515209 449.3378668 -201.35993004 444.13632488 C-203.23009485 442.30289178 -205.10030132 440.46950117 -206.97055054 438.63615417 C-207.8830785 437.74137491 -208.79560647 436.84659565 -209.7357868 435.92470187 C-215.15023318 430.62056477 -220.58528596 425.33871589 -226.04009748 420.07610476 C-229.41395613 416.81897873 -232.77870034 413.55253377 -236.14218903 410.28470421 C-237.70468963 408.77156866 -239.27160474 407.26297663 -240.84317398 405.75926208 C-242.98405036 403.7102365 -245.10928194 401.64617468 -247.2315979 399.57795715 C-247.85929726 398.98528559 -248.48699662 398.39261403 -249.13371718 397.78198272 C-251.84691596 395.10971402 -253.34350891 393.38680675 -254.56770325 389.71907234 C-254.49258935 386.40728565 -254.04469851 385.56055388 -251.75546265 383.22938538 C-251.10186138 382.54758272 -250.44826012 381.86578007 -249.77485275 381.16331673 C-249.02544041 380.41848471 -248.27602806 379.67365269 -247.50390625 378.90625 C-246.30146208 377.6688548 -246.30146208 377.6688548 -245.0747261 376.40646172 C-242.23073286 373.49453807 -239.35789491 370.61339928 -236.47900391 367.73608398 C-235.37909016 366.63317224 -234.27937968 365.53005777 -233.17985535 364.42675781 C-230.2131696 361.45129543 -227.24330211 358.47902922 -224.27254534 355.50763202 C-222.41235202 353.64672486 -220.55287385 351.78510615 -218.69364548 349.92323494 C-212.19542186 343.41578058 -205.69464136 336.9108933 -199.19140625 330.40844727 C-193.14803505 324.36567702 -187.11026723 318.31734801 -181.07509387 312.26639122 C-175.87589333 307.05408294 -170.67281178 301.84567022 -165.46673429 296.64023072 C-162.36504462 293.53879497 -159.26489845 290.43585547 -156.16865921 287.32897758 C-153.25594288 284.40652505 -150.33839028 281.4889861 -147.41718483 278.57501984 C-146.35169959 277.51057342 -145.28788813 276.44444826 -144.22596931 275.37644386 C-138.87489104 269.99671305 -133.49496648 264.86120315 -127.38991356 260.32972813 C-123.59470648 257.46526719 -120.24351852 254.10776875 -116.7890625 250.84765625 C-114.50390625 248.90625 -114.50390625 248.90625 -112.50390625 248.90625 C-112.30023438 248.36613281 -112.0965625 247.82601562 -111.88671875 247.26953125 C-109.94576141 243.95235839 -107.21403833 241.62962702 -104.37890625 239.09375 C-103.79431641 238.56112549 -103.20972656 238.02850098 -102.60742188 237.47973633 C-98.91208788 234.12484264 -95.16163656 230.84445391 -91.28515625 227.69921875 C-86.08292021 222.46275747 -83.68095771 217.51493963 -82.1171875 210.4453125 C-81.92924118 209.65530853 -81.74129486 208.86530457 -81.5476532 208.05136108 C-80.95573523 205.54786149 -80.38579777 203.03995759 -79.81640625 200.53125 C-79.42396234 198.85643363 -79.03009359 197.18195046 -78.63476562 195.5078125 C-77.73869312 191.69511505 -76.85234037 187.88056394 -75.99382019 184.05921936 C-75.66401607 182.60986652 -75.32272528 181.16308503 -74.97065735 179.71897888 C-73.84524324 174.98832944 -73.20697774 170.37431604 -72.77488708 165.53434753 C-71.06337149 147.6160905 -65.96440536 130.52613448 -61.17401505 113.24435043 C-59.93282836 108.75370006 -58.70959922 104.25816521 -57.48510742 99.76293945 C-55.98184685 94.24819083 -54.47698167 88.73390594 -52.96388245 83.22184753 C-49.8572883 71.90177466 -46.79768317 60.57039931 -43.79117393 49.22333336 C-43.16054907 46.84346542 -42.52880506 44.46389747 -41.89668274 42.08442688 C-39.52618064 33.16192386 -39.52618064 33.16192386 -37.16793823 24.23617554 C-36.1073832 20.21116327 -35.03461455 16.18950027 -33.9609375 12.16796875 C-33.49831009 10.39885132 -33.49831009 10.39885132 -33.02633667 8.59399414 C-32.73638824 7.51456543 -32.44643982 6.43513672 -32.14770508 5.32299805 C-31.77758049 3.92527412 -31.77758049 3.92527412 -31.39997864 2.49931335 C-26.40459921 -11.95636626 -11.38317091 -3.08296501 0 0 Z " fill="#040403" transform="translate(299.50390625,111.09375)"/>
<path d="M0 0 C0.16604736 0.64960693 0.33209473 1.29921387 0.50317383 1.96850586 C1.26961522 4.95903627 2.04102548 7.94826422 2.8125 10.9375 C3.07353516 11.95908203 3.33457031 12.98066406 3.60351562 14.03320312 C4.99621081 19.41485243 6.52622163 24.68536635 8.33227539 29.94165039 C9.37745171 33.16354493 10.08553142 36.44378673 10.8125 39.75 C12.30356056 46.3403842 14.04505085 52.82650068 15.9375 59.3125 C17.93921317 66.17730551 19.80586991 73.05283304 21.5 80 C23.15966569 86.7994262 24.97740117 93.53110453 26.9375 100.25 C29.42958115 108.79975532 31.6269616 117.40022747 33.74755859 126.04882812 C35.59564299 133.52796418 37.65345015 140.92708385 39.8137207 148.32128906 C41.81722098 155.22626859 43.5960942 162.17358431 45.26391602 169.16699219 C46.19612355 173.02255382 47.2276314 176.78204891 48.515625 180.53515625 C49.99960446 184.86496224 51.0750702 189.22171665 52.0625 193.6875 C52.9391793 197.62023406 53.81270294 201.45377129 55.12109375 205.26953125 C56 208 56 208 56 212 C53.515625 213.88671875 53.515625 213.88671875 50.25 215.6875 C49.18265625 216.28949219 48.1153125 216.89148438 47.015625 217.51171875 C44.59866405 218.70454533 42.6271391 219.52175866 40 220 C40 220.66 40 221.32 40 222 C38.6875 222.72916667 37.375 223.45833333 36.0625 224.1875 C35.24265625 224.64382813 34.4228125 225.10015625 33.578125 225.5703125 C31.92483837 226.48713509 30.26881306 227.39904647 28.609375 228.3046875 C25.17631032 230.18469911 21.83158817 232.06392953 18.625 234.3125 C16 236 16 236 13 236 C13 236.66 13 237.32 13 238 C11.82244141 238.56267578 11.82244141 238.56267578 10.62109375 239.13671875 C4.66337638 242.03882156 -0.71681447 245.01065582 -6 249 C-10.55172414 252 -10.55172414 252 -14 252 C-14 252.66 -14 253.32 -14 254 C-15.17755859 254.56267578 -15.17755859 254.56267578 -16.37890625 255.13671875 C-22.34441509 258.04261692 -27.68833177 261.04228642 -33 265 C-34.67861472 265.98183125 -36.35810859 266.96280409 -38.05859375 267.90625 C-40.36040393 269.20304447 -42.61542497 270.56848391 -44.875 271.9375 C-48.19018643 273.92863332 -51.51387905 275.89975683 -54.875 277.8125 C-55.57367187 278.21082031 -56.27234375 278.60914063 -56.9921875 279.01953125 C-58.98792806 279.99410495 -60.83153434 280.54783115 -63 281 C-63 281.66 -63 282.32 -63 283 C-64.3125 283.72916667 -65.625 284.45833333 -66.9375 285.1875 C-67.75734375 285.64382813 -68.5771875 286.10015625 -69.421875 286.5703125 C-71.07516163 287.48713509 -72.73118694 288.39904647 -74.390625 289.3046875 C-77.82368968 291.18469911 -81.16841183 293.06392953 -84.375 295.3125 C-87 297 -87 297 -90 297 C-90 297.66 -90 298.32 -90 299 C-90.78503906 299.37511719 -91.57007813 299.75023437 -92.37890625 300.13671875 C-98.33662362 303.03882156 -103.71681447 306.01065582 -109 310 C-113.55172414 313 -113.55172414 313 -117 313 C-117 313.66 -117 314.32 -117 315 C-117.78503906 315.37511719 -118.57007813 315.75023437 -119.37890625 316.13671875 C-125.33662362 319.03882156 -130.71681447 322.01065582 -136 326 C-140.55172414 329 -140.55172414 329 -144 329 C-144 329.66 -144 330.32 -144 331 C-144.78503906 331.37511719 -145.57007813 331.75023437 -146.37890625 332.13671875 C-153.47970918 335.56839662 -153.47970918 335.56839662 -160.0625 339.875 C-163 342 -163 342 -166 342 C-166 342.66 -166 343.32 -166 344 C-167.3125 344.72916667 -168.625 345.45833333 -169.9375 346.1875 C-170.75734375 346.64382813 -171.5771875 347.10015625 -172.421875 347.5703125 C-174.07516163 348.48713509 -175.73118694 349.39904647 -177.390625 350.3046875 C-180.82368968 352.18469911 -184.16841183 354.06392953 -187.375 356.3125 C-190 358 -190 358 -193 358 C-193 358.66 -193 359.32 -193 360 C-194.01707031 360.54527344 -194.01707031 360.54527344 -195.0546875 361.1015625 C-200.81118981 364.21103051 -206.45281586 367.4345571 -212.00390625 370.8984375 C-214 372 -214 372 -216 372 C-216.81025175 330.98628173 -217.13895782 289.99192814 -217.07202661 248.97082114 C-217.0604542 241.74112312 -217.05525537 234.5114236 -217.05032361 227.28171849 C-217.04012548 212.52113428 -217.02194404 197.76057219 -217 183 C-202.81 183 -188.62 183 -174 183 C-174 179.37 -174 175.74 -174 172 C-195.78 171.505 -195.78 171.505 -218 171 C-218.66364535 142.22623392 -219.09942217 113.46833058 -219.0625 84.6875 C-219.06164398 84.01539993 -219.06078796 83.34329987 -219.05990601 82.65083313 C-219.04865064 74.43386104 -219.02878049 66.21692886 -219 58 C-215.53962465 57.04872416 -212.07847235 56.10030449 -208.6171875 55.15234375 C-207.65063232 54.88659546 -206.68407715 54.62084717 -205.68823242 54.3470459 C-199.52124555 52.65985138 -193.33877866 51.06759234 -187.125 49.5625 C-178.577206 47.46487657 -170.15405037 45.02458313 -161.71801758 42.51806641 C-155.28064329 40.62102982 -148.84093855 38.95051225 -142.29345703 37.48583984 C-135.78836207 36.00818934 -129.40952712 34.1476816 -123.00708008 32.28100586 C-117.03418251 30.55093643 -111.04105123 28.97328165 -105 27.5 C-96.22887433 25.35752765 -87.56349144 22.91347182 -78.890625 20.40625 C-69.94520351 17.82278464 -60.94417101 15.47337696 -51.90332031 13.24804688 C-42.18748126 10.85379994 -32.56946585 8.20431895 -22.95703125 5.42578125 C-18.43962537 4.12121953 -13.91415686 2.85172328 -9.375 1.625 C-8.20710937 1.30789062 -7.03921875 0.99078125 -5.8359375 0.6640625 C-3 0 -3 0 0 0 Z " fill="#15FD00" transform="translate(721,118)"/>
<path d="M0 0 C3.30281742 0.76610974 5.91472987 1.89375557 8.90234375 3.51953125 C9.86390381 4.04087646 10.82546387 4.56222168 11.81616211 5.09936523 C13.36122437 5.94736694 13.36122437 5.94736694 14.9375 6.8125 C16.0107251 7.39781494 17.0839502 7.98312988 18.18969727 8.58618164 C25.84151197 12.7752384 33.43517464 17.05952825 40.99633789 21.40966797 C47.76182362 25.30196525 54.56102205 29.13078209 61.375 32.9375 C69.42847774 37.4377007 77.47204181 41.95442305 85.5 46.5 C93.48774107 51.02207659 101.48878029 55.5196512 109.5 60 C118.4593421 65.01059503 127.40281974 70.04829051 136.3359375 75.10546875 C143.37946347 79.09036769 150.43690717 83.04989994 157.5 87 C166.44847286 92.00451631 175.38216681 97.0342403 184.30297852 102.08789062 C189.43161783 104.99094417 194.56802726 107.87927745 199.71484375 110.75 C201.39707031 111.68875977 201.39707031 111.68875977 203.11328125 112.64648438 C205.26723646 113.84748525 207.42212695 115.04681086 209.578125 116.24414062 C220.98932949 122.60779398 220.98932949 122.60779398 226 126 C226 126.66 226 127.32 226 128 C226.99 128.33 227.98 128.66 229 129 C228.39438232 129.08854248 227.78876465 129.17708496 227.16479492 129.26831055 C224.38769238 130.2069568 223.85136924 131.21303387 222.36328125 133.70703125 C221.87738525 134.5067334 221.39148926 135.30643555 220.89086914 136.13037109 C220.37000732 137.01547363 219.84914551 137.90057617 219.3125 138.8125 C218.75361084 139.73885254 218.19472168 140.66520508 217.61889648 141.61962891 C216.39268863 143.65344551 215.17166301 145.69039303 213.95507812 147.72998047 C211.93907642 151.1018994 209.90316937 154.46130122 207.859375 157.81640625 C204.9783572 162.54715904 202.10332227 167.28144843 199.234375 172.01953125 C196.50617107 176.52395325 193.76660466 181.02114902 191.015625 185.51171875 C190.38970459 186.53475098 189.76378418 187.5577832 189.11889648 188.61181641 C187.96166705 190.50210901 186.802502 192.39121882 185.64086914 194.27880859 C183.01106094 198.5790477 180.48256401 202.9046341 178.09375 207.34375 C174.67669604 213.67569422 170.94333976 219.80266027 167.1875 225.9375 C166.4486297 227.14860229 165.71002854 228.35986881 164.97167969 229.57128906 C163.43376608 232.09419057 161.89469811 234.61638274 160.35498047 237.13818359 C157.99159627 241.0111974 155.63725214 244.88965422 153.28515625 248.76953125 C152.90268234 249.40032089 152.52020844 250.03111053 152.12614441 250.68101501 C150.64127894 253.13005415 149.15652702 255.57916193 147.67221069 258.02853394 C146.65178593 259.71204654 145.63059206 261.39509289 144.609375 263.078125 C143.98998047 264.09970703 143.37058594 265.12128906 142.73242188 266.17382812 C141.18840667 268.69264437 139.6091985 271.18429112 138.015625 273.671875 C135.82732177 276.63663531 135.82732177 276.63663531 136 279 C139.96 280.98 139.96 280.98 144 283 C144.26321045 282.29166016 144.5264209 281.58332031 144.79760742 280.85351562 C146.06632796 277.84259061 147.56956232 275.15236028 149.23828125 272.34375 C149.88692139 271.24949707 150.53556152 270.15524414 151.20385742 269.02783203 C151.90649859 267.85174479 152.60938526 266.67580418 153.3125 265.5 C154.0382369 264.28112867 154.76390344 263.06221544 155.48950195 261.84326172 C162.4258333 250.21205125 169.54611954 238.69714177 176.74072266 227.22412109 C177.92367534 225.33717681 179.10491855 223.44915972 180.28442383 221.56005859 C181.38578138 219.79619381 182.49077775 218.03459294 183.6003418 216.27587891 C186.64080901 211.4023678 189.31639528 206.46223538 191.83789062 201.30249023 C193.44967799 198.10905186 195.30935895 195.12609602 197.25 192.125 C203.94687329 181.58076384 210.39264607 170.88358353 216.85398865 160.19419861 C219.14426843 156.40701717 221.44901671 152.62902036 223.76171875 148.85546875 C224.86210736 147.04955727 225.96237629 145.24357286 227.0625 143.4375 C227.56894043 142.61733398 228.07538086 141.79716797 228.59716797 140.95214844 C229.0510791 140.20352539 229.50499023 139.45490234 229.97265625 138.68359375 C230.36718994 138.03962646 230.76172363 137.39565918 231.16821289 136.73217773 C232.21643782 134.86952956 232.21643782 134.86952956 232 132 C237.16886114 132.49896718 240.80024923 133.64840804 245.30859375 136.203125 C245.87900894 136.52279236 246.44942413 136.84245972 247.03712463 137.17181396 C248.84328468 138.18760241 250.64020778 139.21861998 252.4375 140.25 C253.63812168 140.92675826 254.83929011 141.60254751 256.04101562 142.27734375 C262.12220475 145.70603588 268.11806423 149.23905966 274 153 C272.40596353 163.92745504 269.31582299 174.51537859 266.453125 185.16015625 C265.88759569 187.27583484 265.32244993 189.39161599 264.75765991 191.50749207 C263.24122751 197.18406988 261.71939136 202.85918572 260.19641876 208.53401184 C258.61155527 214.44278319 257.03140231 220.35281409 255.45068359 226.26269531 C252.88047632 235.86942339 250.30714545 245.47530966 247.73144531 255.08056641 C244.82227444 265.92942881 241.91810282 276.77961886 239.0168457 287.63059998 C236.78644662 295.97244878 234.55329257 304.31355961 232.31980896 312.65458298 C231.63218141 315.22317426 230.94501061 317.79188736 230.25793457 320.36062622 C225.64213896 337.61360149 221.00508798 354.85475124 216 372 C206.96806545 370.5726947 198.21050873 368.30160391 189.3984375 365.90625 C187.84128066 365.48662388 186.28401088 365.06741664 184.72663879 364.64859009 C181.37137106 363.74536656 178.01686354 362.83939088 174.66293335 361.93121338 C169.29247569 360.4770294 163.92043586 359.02875458 158.5480957 357.58154297 C152.80853175 356.03518308 147.06905321 354.48851162 141.33009338 352.93991089 C126.56441127 348.95608639 111.79321983 344.99308413 97.01953125 341.0390625 C94.8402081 340.45567507 92.66088681 339.87228071 90.48156738 339.28887939 C81.97775492 337.01256415 73.47385633 334.73657133 64.96966553 332.46166992 C42.28893874 326.39387585 19.6169667 320.30199832 -3 314 C-3.02348685 303.79211293 -3.04109567 293.5842326 -3.05181217 283.3763237 C-3.05696342 278.63303401 -3.06391404 273.8897632 -3.07543945 269.14648438 C-3.1269137 247.40657211 -3.04246299 225.71952637 -2 204 C-1.18088135 204.47099121 -0.3617627 204.94198242 0.48217773 205.42724609 C12.59715664 212.38697871 24.80333875 219.18481025 37 226 C39.07535607 223.35971892 40.72678097 220.77217731 42.1875 217.75 C42.53167969 217.04359375 42.87585938 216.3371875 43.23046875 215.609375 C43.61138672 214.81273437 43.61138672 214.81273437 44 214 C43.38817871 213.64397705 42.77635742 213.2879541 42.14599609 212.92114258 C40.84782959 212.16546997 40.84782959 212.16546997 39.5234375 211.39453125 C38.55212891 210.8315332 37.58082031 210.26853516 36.58007812 209.68847656 C34.42054103 208.42446963 32.27088339 207.14344921 30.13085938 205.84667969 C23.80260547 202.04341024 17.665887 198.83366599 10.69189453 196.38061523 C5.7265836 193.84403028 1.44314002 191.49058895 -2 187 C-3.21431072 182.06234224 -2.90445352 177.24907826 -2.62109375 172.21484375 C-2.57352637 170.7153755 -2.53110018 169.21573675 -2.49339294 167.71598816 C-2.40742352 164.49347268 -2.29727251 161.27301136 -2.17132568 158.05181885 C-1.98400969 152.96859474 -1.91868894 147.8885593 -1.88525391 142.80224609 C-1.87955352 141.94087666 -1.87385313 141.07950722 -1.86798 140.19203568 C-1.85676951 138.42612135 -1.84585936 136.6602051 -1.83524132 134.89428711 C-1.80323806 130.32828602 -1.74889136 125.76256507 -1.69506836 121.19677734 C-1.68431809 120.27019192 -1.67356783 119.34360649 -1.6624918 118.38894272 C-1.64047268 116.49286284 -1.61835516 114.5967841 -1.59614182 112.70070648 C-1.56205023 109.77388644 -1.52873142 106.84705852 -1.49563599 103.92022705 C-1.10325209 69.27834357 -0.60575149 34.63880578 0 0 Z " fill="#A53AFD" transform="translate(505,510)"/>
<path d="M0 0 C15.58669084 3.39956631 31.03080468 7.35253524 46.34472656 11.81933594 C52.19985185 13.51663448 58.07802201 15.05434067 64 16.5 C70.79938 18.15984865 77.53112621 19.97730205 84.25 21.9375 C92.89499513 24.45855173 101.59373137 26.67525675 110.33886719 28.82006836 C116.78224631 30.41216422 123.14113815 32.17276188 129.48925781 34.10571289 C135.60978802 35.94318914 141.79454722 37.47761619 148 39 C154.88301648 40.68861052 161.71977481 42.43543893 168.5 44.5 C176.3862421 46.89999111 184.35964267 48.89654866 192.36523438 50.85742188 C198.94016105 52.46913997 205.47758034 54.18724245 212 56 C213.01057027 82.30976686 213.08878232 108.61247059 213.0625 134.9375 C213.06164398 135.80095158 213.06078796 136.66440315 213.05990601 137.55401993 C213.04839801 148.36936725 213.02815541 159.18468345 213 170 C204.45841792 170.06534544 195.91680008 170.10326664 187.375 170.125 C186.70719891 170.12671204 186.03939781 170.12842407 185.35136032 170.13018799 C156.57991693 170.19483093 127.82576769 169.64304586 99.0625 169 C97.99239433 168.97608437 96.92228867 168.95216873 95.81975555 168.92752838 C82.54622953 168.62982464 69.27299509 168.32047525 56 168 C56 171.63 56 175.26 56 179 C56.9077417 178.99492432 57.8154834 178.98984863 58.75073242 178.98461914 C69.35033004 178.95224891 79.93846404 179.12119609 90.53491211 179.37231445 C93.29859983 179.43717379 96.06236584 179.49706422 98.82617188 179.55664062 C100.65104864 179.59865643 102.4759187 179.64096484 104.30078125 179.68359375 C105.09309647 179.70030624 105.88541168 179.71701874 106.70173645 179.73423767 C111.65873178 179.85662766 116.60316146 180.08346667 121.55318165 180.36528111 C131.24163098 180.91304536 140.90583434 181.17974139 150.60878372 181.26036072 C153.18141338 181.28191914 155.75394227 181.30886359 158.32650757 181.33703613 C164.69009096 181.40578882 171.05374252 181.46666899 177.41741943 181.52606201 C182.85252634 181.57691723 188.28756547 181.63158033 193.72257614 181.69187927 C196.25811525 181.71842599 198.79366128 181.73922473 201.32925415 181.7598877 C202.86485112 181.7764709 204.40044503 181.79334094 205.93603516 181.81054688 C206.64129837 181.81473129 207.34656158 181.81891571 208.07319641 181.82322693 C212.88610681 181.88610681 212.88610681 181.88610681 214 183 C214.1255301 185.34861992 214.18612166 187.669155 214.20532227 190.01953125 C214.22016741 191.13493349 214.22016741 191.13493349 214.23531246 192.27286911 C214.26732008 194.78604608 214.29196469 197.29923879 214.31640625 199.8125 C214.33713955 201.61004991 214.35818373 203.40759626 214.3795166 205.20513916 C214.43598101 210.11140694 214.48515213 215.01772351 214.53242874 219.92408752 C214.56239485 222.98924406 214.59426936 226.05437523 214.62667847 229.11950684 C215.12584568 276.74573297 215.10462048 324.37182202 215 372 C211.32423383 370.56138929 207.93214097 368.9433197 204.484375 367.015625 C203.41074707 366.4172583 202.33711914 365.8188916 201.23095703 365.20239258 C200.08224121 364.55810303 198.93352539 363.91381348 197.75 363.25 C196.54163898 362.57487211 195.33314075 361.89998976 194.12451172 361.2253418 C191.63573744 359.83540509 189.14800874 358.44362327 186.66113281 357.05029297 C183.24244366 355.13503038 179.82073533 353.22521434 176.3984375 351.31640625 C165.88063703 345.44502366 155.39284169 339.52515891 144.94287109 333.53393555 C135.06815131 327.87990728 125.13222174 322.33564446 115.19824219 316.78662109 C101.00114452 308.85575386 86.81539433 300.90569362 72.66357422 292.89428711 C65.62024036 288.90941754 58.56293416 284.95001133 51.5 281 C42.5406579 275.98940497 33.59718026 270.95170949 24.6640625 265.89453125 C17.62053653 261.90963231 10.56309283 257.95010006 3.5 254 C-5.44449317 248.99770938 -14.3826666 243.98459769 -23.28759766 238.91210938 C-27.89431309 236.29340388 -32.51456069 233.70956998 -37.18414307 231.20422363 C-38.94390279 230.25914845 -40.69951653 229.30636655 -42.45507812 228.35351562 C-44.69362888 227.14027481 -46.93953156 225.9404787 -49.19335938 224.75585938 C-50.7025293 223.93311523 -50.7025293 223.93311523 -52.2421875 223.09375 C-53.1379248 222.61615234 -54.03366211 222.13855469 -54.95654297 221.64648438 C-57 220 -57 220 -57.83276367 217.4621582 C-58.0366287 214.46072932 -57.43873921 212.52630763 -56.4375 209.6875 C-54.32641147 203.27415863 -52.66113255 196.80895221 -51.0625 190.25 C-49.35420772 183.28361297 -47.59117456 176.36169296 -45.5 169.5 C-43.43514401 162.71987585 -41.68860529 155.88299519 -40 149 C-38.14508483 141.43910214 -36.16216649 133.95834029 -33.89453125 126.51171875 C-32.05709254 120.39082418 -30.52246517 114.20578441 -29 108 C-27.31138919 101.11698235 -25.56452657 94.28023478 -23.5 87.5 C-21.46176558 80.80142324 -19.73022906 74.04986436 -18.0625 67.25 C-15.97960557 58.75819965 -13.71080365 50.35011667 -11.25683594 41.95874023 C-8.99124787 34.13830437 -7.01243306 26.25531369 -5.09179688 18.34375 C-3.58302142 12.16495529 -1.89120053 6.07288266 0 0 Z " fill="#FDF000" transform="translate(279,118)"/>
<path d="M0 0 C3.30037971 2.12958417 5.93748217 4.87345292 8.68741989 7.6501255 C9.33195531 8.29295207 9.97649073 8.93577864 10.64055753 9.59808481 C12.80258375 11.75681251 14.95737657 13.92261887 17.11228561 16.08844948 C18.65922444 17.63595234 20.20660359 19.18301516 21.75439072 20.72966957 C25.95892353 24.93362757 30.1572529 29.14373217 34.35451794 33.35494471 C38.74052115 37.75343378 43.13217275 42.14627569 47.52323532 46.53971291 C54.89387097 53.91586241 62.2610037 61.29549533 69.62546921 68.67780495 C77.21068979 76.28138538 84.79800947 83.88286106 92.38816452 91.48151588 C92.85607193 91.94994874 93.32397934 92.4183816 93.80606577 92.9010094 C96.15344799 95.25100171 98.50087383 97.60095044 100.84831572 99.95088315 C120.32055907 119.44404272 139.7856548 138.94432663 159.24607468 158.44928932 C157.59484564 162.67764367 154.46272339 165.52598304 151.31339645 168.66958046 C150.39225866 169.60068997 150.39225866 169.60068997 149.45251203 170.55060977 C147.39075735 172.63207047 145.32188729 174.70630778 143.25291061 176.78058815 C141.774304 178.27008847 140.2960877 179.75997632 138.81823349 181.25022316 C134.80057542 185.29839817 130.77617702 189.33980432 126.74958324 193.37908959 C124.23574702 195.9010062 121.7229648 198.42396858 119.21046829 200.94721985 C111.35367951 208.83672356 103.49249606 216.72181264 95.62543178 224.60107023 C86.53459087 233.70618423 77.4587746 242.82593622 68.39550757 251.95849591 C61.39370583 259.01198419 54.37860478 266.05206284 47.35324121 273.08208293 C43.15487128 277.28385885 38.96248545 281.49122772 34.78390884 285.71269608 C30.8560456 289.68016965 26.91201377 293.63080797 22.95475197 297.56895256 C21.50304582 299.01938759 20.05734528 300.47586143 18.61807823 301.93864059 C16.65666663 303.93025934 14.67504461 305.89925326 12.68668747 307.8639164 C11.83364961 308.74549273 11.83364961 308.74549273 10.96337867 309.64487869 C9.33699799 311.22528744 9.33699799 311.22528744 6.24607468 313.44928932 C1.65788576 313.3505312 -1.5088557 311.751744 -5.45705032 309.50007057 C-6.52052689 308.89872292 -7.58400345 308.29737526 -8.67970657 307.67780495 C-9.77669876 307.04551979 -10.87369095 306.41323463 -12.00392532 305.76178932 C-13.08544876 305.1488401 -14.1669722 304.53589088 -15.28126907 303.90436745 C-17.42033154 302.68775954 -19.55394562 301.46151599 -21.6816597 300.22516823 C-23.70077284 299.05804895 -25.73322145 297.91364785 -27.77931595 296.79450417 C-28.69390579 296.28226295 -29.60849564 295.77002174 -30.55080032 295.24225807 C-31.3638765 294.79777321 -32.17695267 294.35328835 -33.01466751 293.89533424 C-33.58862259 293.41813942 -34.16257767 292.9409446 -34.75392532 292.44928932 C-34.75392532 287.99139274 -33.99935098 286.69756034 -31.74611282 282.96100807 C-31.09561966 281.87295876 -30.4451265 280.78490944 -29.77492142 279.66388893 C-29.05980642 278.48805704 -28.34446925 277.31236024 -27.62892532 276.13678932 C-26.90115811 274.92701494 -26.17411494 273.71680472 -25.44777298 272.50617409 C-23.58838163 269.41259386 -21.71814216 266.32575042 -19.84328079 263.24152565 C-18.80042592 261.52579333 -17.75955102 259.80885801 -16.71876907 258.09186745 C-13.76821777 253.22494797 -10.81020557 248.36274828 -7.83986282 243.50788307 C-7.33422806 242.67498756 -6.82859329 241.84209206 -6.30763626 240.98395729 C-5.21834633 239.206929 -4.11056384 237.44116644 -2.98927689 235.6841526 C-2.4295015 234.79324928 -1.8697261 233.90234596 -1.29298782 232.98444557 C-0.78203568 232.18530739 -0.27108353 231.3861692 0.25535202 230.56281471 C1.59279588 228.34114171 1.59279588 228.34114171 0.24607468 225.44928932 C-2.76239951 224.22408668 -2.76239951 224.22408668 -5.75392532 223.44928932 C-13.80865815 236.3862591 -21.77116209 249.37689564 -29.66383743 262.41315651 C-31.01325256 264.64109962 -32.36436901 266.8680133 -33.71730423 269.09382057 C-35.14247772 271.44188872 -36.5610209 273.79323216 -37.97414017 276.14850807 C-38.69612448 277.34262955 -39.41828668 278.5366435 -40.14064407 279.73053932 C-40.78606155 280.80368385 -41.43147903 281.87682838 -42.09645462 282.98249245 C-43.75392532 285.44928932 -43.75392532 285.44928932 -45.75392532 286.44928932 C-48.06276321 285.40802956 -48.06276321 285.40802956 -50.97658157 283.75788307 C-52.05971634 283.14992897 -53.1428511 282.54197487 -54.25880814 281.91559792 C-55.4447521 281.23945391 -56.63062258 280.56318097 -57.81642532 279.88678932 C-59.03962379 279.19672848 -60.26326258 278.50744759 -61.48732376 277.81891823 C-64.01153685 276.39771119 -66.53330801 274.97230807 -69.05324173 273.5435276 C-73.49859182 271.02476062 -77.960107 268.53518121 -82.42164993 266.04523659 C-92.33093369 260.51252046 -102.21436128 254.93433685 -112.09083939 249.34333229 C-119.13398112 245.35849208 -126.19114983 241.39921191 -133.25392532 237.44928932 C-142.21326742 232.4386943 -151.15674506 227.40099881 -160.08986282 222.34382057 C-167.1333888 218.35892163 -174.19083249 214.39938939 -181.25392532 210.44928932 C-190.20096902 205.44557229 -199.13352019 200.41714515 -208.05250931 195.36359596 C-213.20520311 192.44651431 -218.36654341 189.54590253 -223.53908157 186.66413307 C-224.66958939 186.03378151 -225.8000972 185.40342995 -226.96486282 184.75397682 C-229.14465854 183.53959179 -231.32558908 182.32724075 -233.50783157 181.11725807 C-243.44705809 175.57820996 -243.44705809 175.57820996 -247.75392532 172.44928932 C-247.75392532 172.11928932 -247.75392532 171.78928932 -247.75392532 171.44928932 C-238.56513369 171.21721516 -229.55022706 171.86267769 -220.41026688 172.67417336 C-209.09684898 173.6737876 -197.79475011 174.61998596 -186.44142532 175.01178932 C-165.34706096 175.7493931 -144.34541675 177.21922272 -123.3403511 179.26862526 C-98.54412142 181.67115029 -73.65523973 183.62114928 -48.75392532 184.44928932 C-48.42392532 179.49928932 -48.09392532 174.54928932 -47.75392532 169.44928932 C-49.1329805 169.48014626 -50.51203568 169.51100319 -51.9328804 169.54279518 C-61.2759782 169.53749785 -70.58109687 168.66901541 -79.89064407 167.95319557 C-81.94081751 167.79834601 -83.99101428 167.64380517 -86.04123306 167.48955727 C-90.3204174 167.16675097 -94.59938116 166.8412057 -98.8781929 166.51349831 C-104.34839133 166.09462668 -109.81897869 165.68112412 -115.2897253 165.26948071 C-119.51670839 164.95108667 -123.7435317 164.63061323 -127.97030449 164.30944061 C-129.98719486 164.15628991 -132.00412031 164.00360042 -134.02108192 163.85139084 C-136.84193514 163.63804847 -139.66257628 163.42209196 -142.48317337 163.20539284 C-143.30674835 163.14353294 -144.13032333 163.08167305 -144.97885513 163.01793861 C-148.68428797 162.73072738 -152.36833781 162.39255202 -156.05502701 161.91961098 C-158.79160295 161.57165036 -161.45619461 161.2926564 -164.20705032 161.16803932 C-164.98145462 161.13130104 -165.75585892 161.09456276 -166.55373001 161.0567112 C-167.36229446 161.02126198 -168.17085892 160.98581276 -169.00392532 160.94928932 C-169.86147415 160.90868385 -170.71902298 160.86807838 -171.60255814 160.82624245 C-174.31955334 160.6976624 -177.0367032 160.57297511 -179.75392532 160.44928932 C-183.33743519 160.28617081 -186.92072017 160.11895631 -190.50392532 159.94928932 C-191.31248978 159.9138401 -192.12105423 159.87839088 -192.95412064 159.84186745 C-196.61438163 159.66822211 -200.22811913 159.42340785 -203.86232376 158.94709206 C-207.67300674 158.4596402 -211.43391253 158.18558268 -215.26955032 157.98444557 C-216.69159733 157.9069784 -218.11363476 157.8293352 -219.5356636 157.75153542 C-220.26658218 157.71244057 -220.99750076 157.67334572 -221.75056839 157.63306618 C-235.12711382 156.91313347 -248.44241762 155.98649046 -261.75392532 154.44928932 C-258.16538944 151.44525297 -254.49567835 149.00277897 -250.44923782 146.65632057 C-249.85354996 146.30921028 -249.25786209 145.96209999 -248.64412308 145.60447121 C-247.37809462 144.86730285 -246.1110197 144.13192915 -244.84297562 143.39823341 C-242.18864166 141.86237552 -239.539437 140.31777034 -236.88994217 138.77358437 C-235.58736432 138.01450455 -234.2845308 137.2558633 -232.98143387 136.49767494 C-228.67727525 133.99257582 -224.39307014 131.45928983 -220.12892532 128.88678932 C-213.44095553 124.85228318 -206.72457043 120.86659105 -200.00392532 116.88678932 C-199.42559952 116.54429146 -198.84727371 116.20179359 -198.25142288 115.84891701 C-195.27518434 114.0864008 -192.29877609 112.32417145 -189.3222847 110.56208229 C-183.6317075 107.19304854 -177.94294166 103.82095782 -172.25392532 100.44928932 C-170.01044101 99.11985335 -167.76695141 97.79042629 -165.52345657 96.46100807 C-161.5365011 94.09838917 -157.54968848 91.73552969 -153.56309891 89.37229347 C-141.74317135 82.36549714 -129.9205892 75.36328193 -118.08937454 68.37555885 C-107.45611807 62.09410736 -96.83314919 55.79529579 -86.20949173 49.49762917 C-80.55802449 46.14752747 -74.90592802 42.79848752 -69.25392532 39.44928932 C-67.00392268 38.11596045 -64.75392268 36.78262712 -62.50392532 35.44928932 C-58.00392532 32.78262266 -53.50392532 30.11595599 -49.00392532 27.44928932 C-47.8883223 26.78783913 -46.77271927 26.12638893 -45.62331009 25.44489479 C-43.39327618 24.1240994 -41.16200989 22.80538237 -38.92946243 21.4888401 C-33.62891471 18.35964315 -28.34517698 15.21063844 -23.10161209 11.98707008 C-20.61220717 10.45839652 -18.11576677 8.94143341 -15.61867142 7.42536354 C-14.42514025 6.69618099 -13.2351215 5.96121531 -12.0488472 5.22028542 C-10.40863768 4.19632072 -8.75537611 3.19335235 -7.10158157 2.19147682 C-5.69404617 1.32305153 -5.69404617 1.32305153 -4.25807571 0.43708229 C-1.75392532 -0.55071068 -1.75392532 -0.55071068 0 0 Z " fill="#56DFFD" transform="translate(781.7539253234863,340.5507106781006)"/>
<path d="M0 0 C3.54823215 1.39025746 6.82695785 2.92774571 10.1484375 4.80078125 C11.14166016 5.35894531 12.13488281 5.91710937 13.15820312 6.4921875 C14.21974609 7.09289062 15.28128906 7.69359375 16.375 8.3125 C17.48552734 8.93769531 18.59605469 9.56289063 19.74023438 10.20703125 C23.16208957 12.13461805 26.58140134 14.06664454 30 16 C31.49321777 16.84377197 31.49321777 16.84377197 33.01660156 17.70458984 C36.78887582 19.83621398 40.56083496 21.96838951 44.33154297 24.1027832 C51.37635198 28.08889971 58.43540991 32.04906258 65.5 36 C74.4593421 41.01059503 83.40281974 46.04829051 92.3359375 51.10546875 C99.37946347 55.09036769 106.43690717 59.04989994 113.5 63 C122.4593421 68.01059503 131.40281974 73.04829051 140.3359375 78.10546875 C147.37946347 82.09036769 154.43690717 86.04989994 161.5 90 C170.4593421 95.01059503 179.40281974 100.04829051 188.3359375 105.10546875 C195.37946382 109.09036789 202.43694226 113.04983673 209.5 117 C226.04460777 126.25448319 242.55641582 135.56702537 259 145 C259 145.33 259 145.66 259 146 C252.06013047 146.24933663 245.30613049 145.89147236 238.4206543 145.09790039 C227.65831787 143.91440817 216.87929461 143.09760759 206.08203125 142.30859375 C204.04324569 142.15721759 202.00448371 142.00552351 199.96574402 141.85353088 C194.66081115 141.45861306 189.35565546 141.06678761 184.05041504 140.67602539 C175.52407984 140.04792138 166.99796133 139.41694785 158.47211266 138.78227425 C155.51431611 138.56284355 152.55634082 138.34595396 149.5983429 138.1292572 C147.78015364 137.99439967 145.96197188 137.85944108 144.14379883 137.72436523 C143.33279221 137.66564743 142.52178558 137.60692963 141.686203 137.5464325 C136.7649144 137.17779034 131.89406327 136.63466507 127 136 C125.30364043 135.8813649 123.60549446 135.78415908 121.90625 135.71875 C121.02066406 135.68136719 120.13507813 135.64398438 119.22265625 135.60546875 C118.32417969 135.57066406 117.42570312 135.53585937 116.5 135.5 C110.27579 135.25889 104.17106319 134.86510232 98 134 C97.67 139.28 97.34 144.56 97 150 C99.16691406 149.98324219 101.33382812 149.96648437 103.56640625 149.94921875 C111.37846144 149.92985152 119.14186852 150.30061847 126.9375 150.8125 C127.62373444 150.85634827 128.30996887 150.90019653 129.01699829 150.94537354 C140.20900323 151.66378736 151.36246636 152.65289237 162.52368164 153.75317383 C175.79150855 155.04363736 189.08132358 156.01810588 202.375 157 C222.60059755 158.49503323 242.80617103 160.12311344 263 162 C260.37209857 164.79561603 257.89257367 166.83652025 254.54296875 168.69921875 C253.68582275 169.18124756 252.82867676 169.66327637 251.94555664 170.15991211 C251.03539795 170.66401611 250.12523926 171.16812012 249.1875 171.6875 C247.27273719 172.76438075 245.35867713 173.84251196 243.4453125 174.921875 C242.50977539 175.44845703 241.57423828 175.97503906 240.61035156 176.51757812 C237.22830878 178.4382444 233.88845976 180.42168122 230.5625 182.4375 C224.64627137 186.01573931 218.70495775 189.54905374 212.75 193.0625 C204.43286748 197.97137533 196.12039042 202.88799736 187.8125 207.8125 C186.11432129 208.8190564 186.11432129 208.8190564 184.38183594 209.84594727 C182.07304855 211.21446615 179.76429921 212.5830492 177.45556641 213.95166016 C172.92338578 216.63826619 168.39078554 219.32416406 163.8581543 222.01000977 C161.63168057 223.32938362 159.40528 224.64888093 157.17895508 225.96850586 C151.89444394 229.10068408 146.60928007 232.23173859 141.32189941 235.35906982 C138.81762443 236.84036292 136.31370542 238.32225712 133.80981445 239.80419922 C132.61321541 240.51218295 131.41644098 241.21987034 130.21948242 241.92724609 C128.56254799 242.90648194 126.90625913 243.88680989 125.25 244.8671875 C124.30640625 245.42519043 123.3628125 245.98319336 122.390625 246.55810547 C120.5650629 247.6591849 118.77385881 248.81742746 117 250 C112.6411848 250.58672035 110.43189076 249.33983163 106.87109375 246.90234375 C101.37682288 243.24408654 95.77245759 239.87154709 90.0625 236.5625 C89.03962891 235.96759766 88.01675781 235.37269531 86.96289062 234.75976562 C78.40395128 229.79155671 69.8117252 224.88199096 61.21365356 219.98196411 C52.14520768 214.81355217 43.11561078 209.58198584 34.10888672 204.30664062 C24.98290095 198.97009152 15.8042886 193.72742325 6.61328125 188.50390625 C5.50597656 187.87355469 4.39867187 187.24320313 3.2578125 186.59375 C2.19981445 185.99175781 1.14181641 185.38976562 0.05175781 184.76953125 C-3.675768 182.60816269 -7.33760852 180.34893336 -10.98095703 178.04882812 C-13.06450353 176.76950948 -13.06450353 176.76950948 -16 177 C-16.84114171 178.43294498 -17.67265687 179.87154405 -18.5 181.3125 C-18.9640625 182.11300781 -19.428125 182.91351562 -19.90625 183.73828125 C-21.21767886 186.0314118 -21.21767886 186.0314118 -21 189 C-19.99755249 189.5576001 -19.99755249 189.5576001 -18.97485352 190.12646484 C3.6094912 202.70023144 3.6094912 202.70023144 14.4140625 209.11010742 C20.72671615 212.8522449 27.07909848 216.52370921 33.4375 220.1875 C34.54182373 220.82405518 35.64614746 221.46061035 36.78393555 222.11645508 C42.4131047 225.36010085 48.04409588 228.60056919 53.67578125 231.83984375 C60.12301805 235.54985272 66.56320248 239.27191359 73 243 C74.05993164 243.61246582 75.11986328 244.22493164 76.21191406 244.85595703 C79.27032096 246.62629142 82.32340555 248.40545426 85.375 250.1875 C86.29055664 250.71617676 87.20611328 251.24485352 88.14941406 251.78955078 C92.22855364 254.18369313 95.88805071 256.35780237 99 260 C92.10800959 264.76556323 84.96693535 268.98235031 77.6875 273.125 C68.97368431 278.11213301 60.30741733 283.16732658 51.7121582 288.35644531 C43.32433752 293.4184261 34.8933146 298.406647 26.46118164 303.39428711 C24.83684204 304.35540405 24.83684204 304.35540405 23.1796875 305.3359375 C22.13651367 305.94791992 21.09333984 306.55990234 20.01855469 307.19042969 C18.02807642 308.38368631 16.05879412 309.61313751 14.11425781 310.87988281 C13.23350586 311.44803711 12.35275391 312.01619141 11.4453125 312.6015625 C10.67977051 313.11283691 9.91422852 313.62411133 9.12548828 314.15087891 C7 315 7 315 5.26974106 314.44062233 C1.94600878 312.33102356 -0.68609152 309.58120405 -3.44134521 306.79916382 C-4.08588063 306.15633725 -4.73041605 305.51351068 -5.39448285 304.85120451 C-7.55650907 302.69247682 -9.71130189 300.52667045 -11.86621094 298.36083984 C-13.41314977 296.81333698 -14.96052891 295.26627416 -16.50831604 293.71961975 C-20.71284885 289.51566176 -24.91117822 285.30555716 -29.10844326 281.09434462 C-33.49444647 276.69585554 -37.88609808 272.30301363 -42.27716064 267.90957642 C-49.64779629 260.53342691 -57.01492902 253.15379399 -64.37939453 245.77148438 C-71.96461512 238.16790394 -79.55193479 230.56642827 -87.14208984 222.96777344 C-87.60999726 222.49934058 -88.07790467 222.03090772 -88.55999109 221.54827993 C-90.90737331 219.19828762 -93.25479915 216.84833888 -95.60224104 214.49840617 C-115.0744844 195.0052466 -134.53958012 175.50496269 -154 156 C-152.34828196 151.74238754 -149.16802712 148.89589215 -145.98898315 145.74847412 C-145.36657435 145.12435646 -144.74416554 144.5002388 -144.10289586 143.85720849 C-142.01326453 141.76427936 -139.91655845 139.67858492 -137.81982422 137.59277344 C-136.3215818 136.09509507 -134.82377946 134.59697636 -133.3263855 133.09844971 C-129.25672032 129.02820978 -125.18091 124.96417371 -121.10399008 120.9012022 C-116.84563664 116.65533563 -112.5929313 112.40381967 -108.33963013 108.15289307 C-100.28302218 100.10250589 -92.2213287 92.05723134 -84.15780747 84.01376939 C-74.97866661 74.85696891 -65.80519162 65.69450129 -56.63219428 56.53154707 C-37.76110544 37.68137377 -18.88289259 18.83834853 0 0 Z " fill="#FD8D01" transform="translate(213,345)"/>
<path d="M0 0 C2.78153626 0.84015021 4.94468028 1.93378597 7.43823242 3.42236328 C8.37070801 3.97335693 9.30318359 4.52435059 10.26391602 5.09204102 C11.76752686 5.99418335 11.76752686 5.99418335 13.30151367 6.91455078 C15.47427348 8.20041237 17.64746525 9.4855443 19.82104492 10.77001953 C20.94333496 11.43565918 22.065625 12.10129883 23.22192383 12.78710938 C28.62095462 15.97430173 34.05452038 19.10083605 39.48901367 22.22705078 C41.66745553 23.48216115 43.8458406 24.73737011 46.02416992 25.99267578 C47.10843262 26.61722656 48.19269531 27.24177734 49.30981445 27.88525391 C53.75100527 30.44482893 58.18962589 33.0088435 62.62817383 35.57299805 C65.86807819 37.44331738 69.11006304 39.30998865 72.35229492 41.17626953 C76.52577344 43.57973153 80.68850405 46.00049584 84.84448242 48.43408203 C86.76763107 49.55262051 88.69080676 50.67111249 90.61401367 51.78955078 C91.94106323 52.5739856 91.94106323 52.5739856 93.29492188 53.37426758 C94.10147217 53.84131104 94.90802246 54.30835449 95.73901367 54.78955078 C96.79475586 55.40830078 96.79475586 55.40830078 97.87182617 56.03955078 C98.44674805 56.28705078 99.02166992 56.53455078 99.61401367 56.78955078 C100.27401367 56.45955078 100.93401367 56.12955078 101.61401367 55.78955078 C101.94401367 56.77955078 102.27401367 57.76955078 102.61401367 58.78955078 C104.81545045 60.35393118 104.81545045 60.35393118 107.58276367 61.79345703 C108.62005615 62.36394775 109.65734863 62.93443848 110.72607422 63.5222168 C111.84409424 64.12606201 112.96211426 64.72990723 114.11401367 65.35205078 C116.42336041 66.62151528 118.73195331 67.89235208 121.03979492 69.16455078 C122.1711084 69.78587891 123.30242187 70.40720703 124.46801758 71.04736328 C128.45078264 73.25293611 132.38653353 75.52874746 136.30151367 77.85205078 C136.94604492 78.23425781 137.59057617 78.61646484 138.25463867 79.01025391 C139.60713234 79.81354515 140.95916948 80.61760545 142.31079102 81.42236328 C145.03900305 83.04182347 147.77358133 84.65026978 150.50854492 86.25830078 C152.54371509 87.4561938 154.57887146 88.65411027 156.61401367 89.85205078 C157.58943115 90.42511963 158.56484863 90.99818848 159.56982422 91.58862305 C160.47128174 92.12028076 161.37273926 92.65193848 162.30151367 93.19970703 C163.51387695 93.91332397 163.51387695 93.91332397 164.75073242 94.64135742 C166.61401367 95.78955078 166.61401367 95.78955078 167.61401367 96.78955078 C167.71444772 99.11988147 167.75019038 101.4205722 167.7434082 103.75146484 C167.74603668 104.84759346 167.74603668 104.84759346 167.74871826 105.96586609 C167.75315763 108.41232613 167.75018081 110.85871483 167.74682617 113.30517578 C167.74750119 115.03114841 167.74847287 116.75712095 167.74972534 118.48309326 C167.75120712 122.13522225 167.74904185 125.78732695 167.74438477 129.43945312 C167.73883786 134.00068974 167.74195441 138.56186604 167.74783707 143.12310028 C167.77375611 167.02796754 167.40347203 190.89763832 166.61401367 214.78955078 C165.54497803 215.05180199 165.54497803 215.05180199 164.4543457 215.3193512 C152.67917562 218.20995536 140.95883689 221.14498979 129.36791992 224.71142578 C126.64775473 225.49265949 123.99858547 226.16569754 121.23901367 226.75830078 C116.43797034 227.79332958 111.75964335 229.14851247 107.05151367 230.53955078 C99.19654634 232.82669922 91.30982137 234.90490172 83.36401367 236.85205078 C75.88612029 238.68588271 68.48955355 240.65274243 61.12475586 242.89526367 C53.97386071 245.04207115 46.72678264 246.78056512 39.47729492 248.55908203 C33.64264368 250.0011061 27.86328899 251.53878914 22.11401367 253.28955078 C14.31482043 255.66455069 6.4272593 257.60980773 -1.48974609 259.55029297 C-8.35690385 261.24637507 -15.14049501 263.1262205 -21.91137695 265.16967773 C-26.70394216 266.61065342 -31.48273923 267.80507817 -36.38598633 268.78955078 C-38.07415686 269.16152056 -39.76166385 269.53651483 -41.44848633 269.91455078 C-42.76098633 270.20621745 -44.07348633 270.49788411 -45.38598633 270.78955078 C-46.01448047 268.64473825 -46.6385889 266.49864044 -47.26098633 264.35205078 C-47.78305664 262.55960938 -47.78305664 262.55960938 -48.31567383 260.73095703 C-49.09082231 257.9749124 -49.74634898 255.21365854 -50.34692383 252.41455078 C-51.38872918 247.61520554 -52.74499808 242.935011 -54.13598633 238.22705078 C-56.42313476 230.37208345 -58.50133727 222.48535848 -60.44848633 214.53955078 C-62.28231826 207.0616574 -64.24917798 199.66509066 -66.49169922 192.30029297 C-68.63850669 185.14939782 -70.37700067 177.90231975 -72.15551758 170.65283203 C-73.59754165 164.81818079 -75.13522469 159.0388261 -76.88598633 153.28955078 C-79.26186665 145.48746635 -81.20761865 137.59691384 -83.14892578 129.67700195 C-84.82283937 122.89978551 -86.67714793 116.20736563 -88.70239258 109.52783203 C-90.22964363 104.45021816 -91.43212243 99.34741094 -92.57348633 94.17236328 C-93.5452981 90.12626234 -94.69793377 86.1515746 -95.88598633 82.16455078 C-96.10077637 81.44106445 -96.31556641 80.71757813 -96.53686523 79.97216797 C-97.48402261 76.79082072 -98.44000715 73.6126429 -99.40942383 70.43798828 C-99.69043945 69.48150391 -99.97145508 68.52501953 -100.26098633 67.53955078 C-100.5059082 66.73001953 -100.75083008 65.92048828 -101.00317383 65.08642578 C-101.47355962 62.26411106 -101.34854435 60.49177789 -100.38598633 57.78955078 C-98.41723633 56.16455078 -98.41723633 56.16455078 -95.88598633 54.78955078 C-94.98750977 54.29197266 -94.0890332 53.79439453 -93.16333008 53.28173828 C-92.24680664 52.78931641 -91.3302832 52.29689453 -90.38598633 51.78955078 C-89.54165039 51.29712891 -88.69731445 50.80470703 -87.82739258 50.29736328 C-81.79276599 46.78955078 -81.79276599 46.78955078 -78.38598633 46.78955078 C-78.38598633 46.12955078 -78.38598633 45.46955078 -78.38598633 44.78955078 C-76.10004803 43.25655658 -73.8279106 41.85094547 -71.44848633 40.47705078 C-70.76496094 40.07623291 -70.08143555 39.67541504 -69.37719727 39.26245117 C-67.38425242 38.09754429 -65.38539498 36.9433147 -63.38598633 35.78955078 C-62.43079102 35.22751953 -61.4755957 34.66548828 -60.49145508 34.08642578 C-54.7787665 30.78955078 -54.7787665 30.78955078 -51.38598633 30.78955078 C-51.38598633 30.12955078 -51.38598633 29.46955078 -51.38598633 28.78955078 C-49.51489258 27.45751953 -49.51489258 27.45751953 -46.94848633 25.97705078 C-46.0384082 25.44853516 -45.12833008 24.92001953 -44.19067383 24.37548828 C-40.92365731 22.52812239 -37.65176065 20.69158348 -34.35864258 18.89111328 C-32.71253668 17.97190167 -31.10586786 16.98251957 -29.51098633 15.97705078 C-27.38598633 14.78955078 -27.38598633 14.78955078 -24.38598633 14.78955078 C-24.38598633 14.12955078 -24.38598633 13.46955078 -24.38598633 12.78955078 C-22.51489258 11.45751953 -22.51489258 11.45751953 -19.94848633 9.97705078 C-18.58723633 9.18621094 -18.58723633 9.18621094 -17.19848633 8.37939453 C-13.90950861 6.52020852 -10.61431185 4.67430152 -7.29614258 2.86767578 C-1.91595972 -0.16899184 -1.91595972 -0.16899184 0 0 Z " fill="#FE0000" transform="translate(324.385986328125,611.21044921875)"/>
<path d="M0 0 C0.03131968 13.499989 0.05122328 26.99997937 0.0625 40.5 C0.06378403 42.02606621 0.06378403 42.02606621 0.06509399 43.58296204 C0.08934953 76.30836697 -0.09784716 109.02707731 -0.5 141.75 C-0.51195782 142.72353424 -0.52391563 143.69706848 -0.53623581 144.70010376 C-0.68159303 156.46686307 -0.83587624 168.23348753 -1 180 C-17.9822844 170.7489634 -34.88947731 161.38030243 -51.47973633 151.43920898 C-56.66435905 148.34032507 -61.91009322 145.3965459 -67.22265625 142.52294922 C-71.89066649 139.96325795 -76.47296353 137.25960025 -81.0625 134.5625 C-92.89362007 127.63585974 -104.76329065 120.77782358 -116.64306641 113.93505859 C-120.13192703 111.92395246 -123.61894828 109.90969005 -127.10546875 107.89453125 C-128.28205212 107.21474214 -129.45864705 106.53497305 -130.63525391 105.85522461 C-132.85268378 104.57401834 -135.06982559 103.29231333 -137.28662109 102.01000977 C-143.16097076 98.61742993 -149.05612428 95.26936584 -155 92 C-155 91.34 -155 90.68 -155 90 C-152.84790039 88.4753418 -152.84790039 88.4753418 -149.84765625 86.69921875 C-148.76033203 86.05146484 -147.67300781 85.40371094 -146.55273438 84.73632812 C-145.38935866 84.05332453 -144.22594697 83.37038221 -143.0625 82.6875 C-141.94552734 82.02298828 -140.82855469 81.35847656 -139.67773438 80.67382812 C-136.46096393 78.76640588 -133.23350214 76.87889222 -130 75 C-129.10265137 74.4735791 -128.20530273 73.9471582 -127.28076172 73.40478516 C-126.48557129 72.94765137 -125.69038086 72.49051758 -124.87109375 72.01953125 C-124.18845459 71.62483643 -123.50581543 71.2301416 -122.80249023 70.82348633 C-121 70 -121 70 -118 70 C-118 69.34 -118 68.68 -118 68 C-116.12890625 66.66796875 -116.12890625 66.66796875 -113.5625 65.1875 C-112.19738281 64.39472656 -112.19738281 64.39472656 -110.8046875 63.5859375 C-107.53767098 61.73857161 -104.26577433 59.9020327 -100.97265625 58.1015625 C-99.32655036 57.18235089 -97.71988153 56.19296879 -96.125 55.1875 C-94 54 -94 54 -91 54 C-91 53.34 -91 52.68 -91 52 C-89.12890625 50.66796875 -89.12890625 50.66796875 -86.5625 49.1875 C-85.65242188 48.65898438 -84.74234375 48.13046875 -83.8046875 47.5859375 C-80.53767098 45.73857161 -77.26577433 43.9020327 -73.97265625 42.1015625 C-72.32655036 41.18235089 -70.71988153 40.19296879 -69.125 39.1875 C-67 38 -67 38 -64 38 C-64 37.34 -64 36.68 -64 36 C-62.12890625 34.66796875 -62.12890625 34.66796875 -59.5625 33.1875 C-58.65242188 32.65898438 -57.74234375 32.13046875 -56.8046875 31.5859375 C-53.53767098 29.73857161 -50.26577433 27.9020327 -46.97265625 26.1015625 C-45.32655036 25.18235089 -43.71988153 24.19296879 -42.125 23.1875 C-40 22 -40 22 -37 22 C-37 21.34 -37 20.68 -37 20 C-35.12890625 18.66796875 -35.12890625 18.66796875 -32.5625 17.1875 C-31.655 16.66285156 -30.7475 16.13820313 -29.8125 15.59765625 C-28.884375 15.07042969 -27.95625 14.54320312 -27 14 C-26.154375 13.50371094 -25.30875 13.00742187 -24.4375 12.49609375 C-18.38158832 9 -18.38158832 9 -15 9 C-15 8.34 -15 7.68 -15 7 C-12.87767021 5.82823482 -10.75242209 4.66245215 -8.625 3.5 C-8.02171875 3.16613281 -7.4184375 2.83226562 -6.796875 2.48828125 C-2.2265625 0 -2.2265625 0 0 0 Z " fill="#FC0101" transform="translate(494,511)"/>
<path d="M0 0 C0 5.28 0 10.56 0 16 C-1.37929688 16.37511719 -2.75859375 16.75023437 -4.1796875 17.13671875 C-6.07812621 17.65364139 -7.97656361 18.17056882 -9.875 18.6875 C-10.86701416 18.95715576 -11.85902832 19.22681152 -12.88110352 19.50463867 C-17.66759534 20.8081662 -22.45060709 22.1210239 -27.22265625 23.4765625 C-28.0213916 23.70255127 -28.82012695 23.92854004 -29.64306641 24.16137695 C-31.12949956 24.58320258 -32.61492641 25.00859712 -34.09912109 25.43823242 C-38.40486834 26.65725551 -42.57080777 27.46295322 -47 28 C-47 28.66 -47 29.32 -47 30 C-46.35651611 30.08628662 -45.71303223 30.17257324 -45.05004883 30.26147461 C-40.85570183 31.27707532 -37.11819327 33.03211845 -33.19921875 34.81640625 C-32.36284378 35.19232407 -31.52646881 35.56824188 -30.66474915 35.95555115 C-28.00345615 37.15303272 -25.34546612 38.3576547 -22.6875 39.5625 C-20.87977073 40.37742675 -19.0718303 41.19188528 -17.26367188 42.00585938 C-12.83998264 43.99848862 -8.41924117 45.9975264 -4 48 C-4 53.61 -4 59.22 -4 65 C-7.91234427 63.69588524 -11.25254264 62.50656587 -14.89453125 60.7421875 C-15.83490234 60.28884033 -16.77527344 59.83549316 -17.74414062 59.3684082 C-18.75669922 58.8755835 -19.76925781 58.38275879 -20.8125 57.875 C-21.87533203 57.36090576 -22.93816406 56.84681152 -24.03320312 56.31713867 C-26.38438726 55.17926883 -28.73484433 54.03999555 -31.08447266 52.89892578 C-34.60491794 51.19015191 -38.12918318 49.48937728 -41.65422058 47.7901001 C-44.68885027 46.32698912 -47.72250336 44.86186129 -50.75595093 43.39630127 C-52.25245016 42.67354178 -53.74921566 41.95133337 -55.24624634 41.22967529 C-57.35266434 40.21376394 -59.45774753 39.19513779 -61.5625 38.17578125 C-62.19987595 37.86901962 -62.83725189 37.562258 -63.49394226 37.24620056 C-67.8857567 35.1142433 -67.8857567 35.1142433 -69 34 C-69.07258946 31.81360547 -69.08373783 29.62499611 -69.0625 27.4375 C-69.05347656 26.23996094 -69.04445312 25.04242188 -69.03515625 23.80859375 C-69.02355469 22.88175781 -69.01195312 21.95492188 -69 21 C-63.83547076 18.68415951 -58.6572739 16.84876411 -53.25 15.1875 C-51.56506696 14.66287988 -49.88017224 14.1381367 -48.1953125 13.61328125 C-47.33711914 13.34725098 -46.47892578 13.0812207 -45.59472656 12.80712891 C-42.23972383 11.76350461 -38.89029315 10.70269687 -35.54101562 9.64086914 C-27.37346544 7.05178214 -19.19853837 4.48948318 -11 2 C-10.27167969 1.773125 -9.54335938 1.54625 -8.79296875 1.3125 C-5.64349519 0.35771223 -3.35529176 0 0 0 Z " fill="#050300" transform="translate(305,455)"/>
<path d="M0 0 C4.09942509 1.54309425 5.88274157 4.15259646 8.4375 7.625 C9.3194635 8.80629657 10.20368824 9.98590733 11.08984375 11.1640625 C11.55890137 11.78829102 12.02795898 12.41251953 12.51123047 13.05566406 C15.09715337 16.43288446 17.80226939 19.71193033 20.5 23 C26.1412682 29.89781879 31.59639286 36.91485078 37 44 C39.3269914 47.00499968 41.66311025 50.00268489 44 53 C42.02 56.63 40.04 60.26 38 64 C35.58267941 63.8834287 33.16650284 63.75680925 30.75 63.625 C29.75613281 63.57859375 29.75613281 63.57859375 28.7421875 63.53125 C23.48856617 63.23387521 18.38969569 62.45017961 13.20800781 61.54833984 C7.65391459 60.59898723 2.07555241 59.81191207 -3.5 59 C-12.01714195 57.7597336 -20.51563052 56.44873884 -29 55 C-30 52 -30 52 -28.78515625 49.30078125 C-28.21667969 48.31464844 -27.64820313 47.32851563 -27.0625 46.3125 C-26.49660156 45.31863281 -25.93070313 44.32476563 -25.34765625 43.30078125 C-24.90292969 42.54152344 -24.45820312 41.78226563 -24 41 C-15.04157583 41.54434331 -6.37386103 42.89016832 2.4375 44.5625 C4.89377405 45.02616484 7.35078236 45.48596092 9.80859375 45.94140625 C11.41432251 46.24606812 11.41432251 46.24606812 13.05249023 46.55688477 C15.75933996 46.96382026 18.26906383 47.08550938 21 47 C14.74669566 39.58958816 8.47279139 32.19793718 2.14941406 24.84716797 C1.21751842 23.76272798 0.28821493 22.67605379 -0.63818359 21.58691406 C-1.57114859 20.49973722 -2.51757159 19.42400672 -3.47509766 18.35839844 C-4.71030486 16.95645764 -5.86259424 15.48239096 -7 14 C-6.31659476 8.76055983 -2.88719457 4.34181169 0 0 Z " fill="#030104" transform="translate(568,706)"/>
<path d="M0 0 C24.42138853 -0.1054184 48.83309036 -0.08920798 73.25 0.4375 C74.69587494 0.4669722 74.69587494 0.4669722 76.17095947 0.49703979 C86.15273177 0.70499784 96.05785587 1.01734622 106 2 C106 5.63 106 9.26 106 13 C82.51622711 13.10260437 59.04123676 13.11353826 35.5625 12.5625 C34.68564545 12.54285187 33.80879089 12.52320374 32.90536499 12.50296021 C21.91497787 12.25110391 10.96660995 11.77591693 0 11 C0 7.37 0 3.74 0 0 Z " fill="#000400" transform="translate(548,291)"/>
<path d="M0 0 C0 3.96 0 7.92 0 12 C-9.12158287 15.57251765 -18.23813592 18.80138609 -27.67749023 21.43823242 C-31.11828672 22.18241188 -31.11828672 22.18241188 -34 24 C-23.11 28.29 -12.22 32.58 -1 37 C-1 41.29 -1 45.58 -1 50 C-4.63216432 48.78927856 -8.01027498 47.63760385 -11.48901367 46.13647461 C-12.31974899 45.77947983 -13.15048431 45.42248505 -14.00639343 45.05467224 C-14.88471329 44.67440384 -15.76303314 44.29413544 -16.66796875 43.90234375 C-17.58459793 43.50801651 -18.50122711 43.11368927 -19.44563293 42.70741272 C-22.36058641 41.45307683 -25.27412964 40.195508 -28.1875 38.9375 C-31.1117632 37.67634993 -34.03632707 36.41590941 -36.96150208 35.15687561 C-38.77839113 34.37471031 -40.59472555 33.59125511 -42.41044617 32.80638123 C-43.23172501 32.4525386 -44.05300385 32.09869598 -44.89916992 31.73413086 C-45.62053635 31.42261581 -46.34190277 31.11110077 -47.08512878 30.79014587 C-48.69688208 30.12507754 -50.34589658 29.55136781 -52 29 C-52 25.37 -52 21.74 -52 18 C-51.00782471 17.63237549 -50.01564941 17.26475098 -48.9934082 16.88598633 C-45.24880701 15.49827966 -41.50459896 14.10951479 -37.76049805 12.72045898 C-36.15187816 12.12382416 -34.54315722 11.5274617 -32.93432617 10.93139648 C-30.59786607 10.06569033 -28.26180095 9.19892496 -25.92578125 8.33203125 C-24.78050461 7.90810593 -24.78050461 7.90810593 -23.61209106 7.47561646 C-20.09296424 6.16890357 -16.58349405 4.84566969 -13.09521484 3.45849609 C-11.94359863 3.00168457 -10.79198242 2.54487305 -9.60546875 2.07421875 C-8.6105542 1.67162842 -7.61563965 1.26903809 -6.59057617 0.85424805 C-4 0 -4 0 0 0 Z " fill="#090800" transform="translate(329,267)"/>
<path d="M0 0 C3.6964721 0.73929442 6.33012919 1.42492819 9.69848633 2.85766602 C11.0493206 3.42814415 11.0493206 3.42814415 12.42744446 4.01014709 C13.3859581 4.42058762 14.34447174 4.83102814 15.33203125 5.25390625 C16.32377853 5.67421616 17.31552582 6.09452606 18.33732605 6.52757263 C21.49761696 7.86812618 24.65507219 9.21521871 27.8125 10.5625 C29.95749851 11.47374003 32.10267875 12.38455239 34.24804688 13.29492188 C39.50081794 15.52499482 44.75105579 17.76093546 50 20 C50 23.63 50 27.26 50 31 C43.05977903 33.56758585 36.11802825 36.13097447 29.17480469 38.69042969 C26.81141972 39.56231393 24.44846227 40.43535792 22.0859375 41.30957031 C18.69642199 42.56357731 15.30540726 43.81344992 11.9140625 45.0625 C10.85256989 45.45622803 9.79107727 45.84995605 8.69741821 46.25561523 C7.22611954 46.79617554 7.22611954 46.79617554 5.72509766 47.34765625 C4.85905914 47.66742432 3.99302063 47.98719238 3.10073853 48.31665039 C1 49 1 49 -1 49 C-1 45.04 -1 41.08 -1 37 C6.45151444 33.93091613 13.96918273 31.261629 21.625 28.75 C22.72457031 28.38648438 23.82414063 28.02296875 24.95703125 27.6484375 C27.63711752 26.76284378 30.31810177 25.88008793 33 25 C31.82026611 24.56917114 31.82026611 24.56917114 30.61669922 24.12963867 C27.67474109 23.05334955 24.73397022 21.97389168 21.79394531 20.89233398 C19.90518478 20.19858695 18.01510192 19.50844346 16.125 18.81835938 C14.92617188 18.37685547 13.72734375 17.93535156 12.4921875 17.48046875 C11.39245605 17.07723389 10.29272461 16.67399902 9.15966797 16.25854492 C6.00494209 15.00196851 3.01343087 13.56229914 0 12 C0 8.04 0 4.08 0 0 Z " fill="#000400" transform="translate(661,275)"/>
<path d="M0 0 C2.10714613 0.89544184 4.15811021 1.80572095 6.16015625 2.91796875 C5.50641316 8.4300267 4.70181273 13.88764882 3.75 19.35546875 C3.61823868 20.12101074 3.48647736 20.88655273 3.35072327 21.67529297 C2.93474685 24.08981743 2.51624668 26.50389624 2.09765625 28.91796875 C1.81298314 30.56767937 1.5284764 32.21741871 1.24414062 33.8671875 C0.55140009 37.8844488 -0.1436022 41.9013128 -0.83984375 45.91796875 C-1.82984375 46.24796875 -2.81984375 46.57796875 -3.83984375 46.91796875 C-7.02734375 44.98046875 -7.02734375 44.98046875 -9.83984375 42.91796875 C-9.1928433 33.0512119 -6.96604663 23.55016225 -4.83984375 13.91796875 C-6.38164495 15.11976108 -7.92309936 16.32200072 -9.46289062 17.52636719 C-10.75828477 18.53933149 -12.05516807 19.55039426 -13.35351562 20.55957031 C-16.65702453 23.14179637 -19.8077044 25.76646579 -22.83984375 28.66796875 C-25.83984375 30.91796875 -25.83984375 30.91796875 -28.96484375 31.04296875 C-32.14828493 29.79727438 -34.22626112 28.09155431 -36.83984375 25.91796875 C-35.80988281 25.13035156 -34.77992188 24.34273437 -33.71875 23.53125 C-33.03844727 23.01062988 -32.35814453 22.49000977 -31.65722656 21.95361328 C-30.14115857 20.79505894 -28.62355262 19.63851467 -27.10449219 18.48388672 C-23.06549094 15.40928647 -19.0579368 12.30542082 -15.1015625 9.125 C-14.34480225 8.52453857 -13.58804199 7.92407715 -12.80834961 7.30541992 C-11.35027449 6.14707896 -9.90148432 4.97693516 -8.46313477 3.79418945 C-3.51974885 -0.10167087 -3.51974885 -0.10167087 0 0 Z " fill="#020607" transform="translate(801.83984375,524.08203125)"/>
</svg>
