<?xml version="1.0" encoding="UTF-8"?>
<svg version="1.1" xmlns="http://www.w3.org/2000/svg" width="1000" height="1000">
<path d="M0 0 C330 0 660 0 1000 0 C1000 330 1000 660 1000 1000 C670 1000 340 1000 0 1000 C0 670 0 340 0 0 Z " fill="#FEFEFE" transform="translate(0,0)"/>
<path d="M0 0 C1.55843377 0.41946633 3.11694862 0.83863152 4.67553711 1.25752258 C8.03639723 2.1614307 11.39671674 3.06731219 14.75662231 3.97476196 C20.13956936 5.42857104 25.52365501 6.87812995 30.90795898 8.3269043 C36.65824447 9.87430595 42.40847533 11.42190792 48.15834045 12.97087097 C62.88220995 16.93693085 77.6100916 20.88787966 92.33984375 24.83203125 C94.50935437 25.41303235 96.67886426 25.99403617 98.84837341 26.57504272 C107.30693225 28.84017269 115.76556892 31.10501166 124.22439575 33.36914062 C129.17323431 34.69381657 134.12182153 36.01942854 139.07031059 37.34540939 C141.89943394 38.10308665 144.72888547 38.8595289 147.55836487 39.61587524 C156.18831756 41.92551919 164.80965194 44.26058828 173.41357422 46.66552734 C174.95529103 47.09438826 176.49703327 47.52315776 178.0388031 47.951828 C180.8495842 48.73357451 183.65679054 49.52665661 186.46229553 50.32710266 C187.6928215 50.66992783 188.92334747 51.01275299 190.19116211 51.3659668 C191.24782578 51.66544724 192.30448944 51.96492767 193.39317322 52.27348328 C199.62471477 53.54425773 204.7984839 52.7905617 210.8840332 51.14404297 C211.59390821 50.95457627 212.30378323 50.76510958 213.0351696 50.56990147 C215.3955497 49.93768294 217.75235813 49.29307147 220.109375 48.6484375 C221.80238877 48.19234648 223.49561651 47.73704913 225.18904114 47.28248596 C229.77401636 46.04948923 234.35605035 44.80587061 238.93766022 43.56043625 C243.76578085 42.25005927 248.59661131 40.94975363 253.42724609 39.64868164 C261.45709242 37.48489316 269.48553732 35.31597819 277.51318359 33.14404297 C288.87432333 30.07098907 300.24082103 27.01815242 311.609375 23.97265625 C313.39008721 23.49549354 315.17079807 23.0183258 316.95150757 22.54115295 C323.89182155 20.68156789 330.83233192 18.82271652 337.77294922 16.96426392 C342.79158475 15.62031321 347.80997094 14.27543482 352.828125 12.9296875 C353.63030079 12.71458464 354.43247658 12.49948177 355.25896072 12.27786064 C365.53582506 9.52091454 375.80448789 6.73578235 386.06439209 3.91638756 C390.35167953 2.73929297 394.64075917 1.56873158 398.92938232 0.39651489 C402.20343349 -0.50237818 405.47404131 -1.41306405 408.74462891 -2.32446289 C410.66813545 -2.85100371 412.59179035 -3.37700302 414.515625 -3.90234375 C415.79200081 -4.26451492 415.79200081 -4.26451492 417.09416199 -4.63400269 C424.84386256 -6.72465218 424.84386256 -6.72465218 428.49609375 -5.09375 C431.6395269 -0.82167177 432.76372249 3.80775684 434.07714844 8.85668945 C434.31710761 9.75359466 434.55706678 10.65049986 434.80429745 11.57458401 C435.59954368 14.55432963 436.38372303 17.53687323 437.16796875 20.51953125 C437.72805024 22.62642573 438.28883997 24.73313205 438.85029602 26.83966064 C440.34865491 32.46882953 441.83765513 38.10043373 443.3247261 43.73259354 C444.85643741 49.52809253 446.39607585 55.32148364 447.93530273 61.11499023 C449.76523164 68.00426824 451.59451451 74.89371328 453.41990662 81.78419495 C456.76556963 94.4112254 460.13318382 107.03181729 463.546875 119.640625 C463.90754264 120.97473001 464.26815006 122.3088513 464.62869263 123.64299011 C466.54691771 130.73853238 466.54691771 130.73853238 468.47570801 137.83120728 C473.80861752 157.39241546 473.80861752 157.39241546 475.13452148 166.55493164 C475.6523144 169.92215887 476.52930163 173.07705008 477.49609375 176.34375 C477.82609375 177.47683594 478.15609375 178.60992187 478.49609375 179.77734375 C479.43646852 182.85166216 479.43646852 182.85166216 480.5625 185.5546875 C481.43523729 187.75296301 481.97760919 189.77908552 482.43359375 192.09375 C483.30556974 196.19676878 484.40141395 200.17353535 485.66796875 204.171875 C486.25903281 206.1235016 486.78324746 208.09588678 487.26171875 210.078125 C489.5078061 218.77660875 493.17461268 223.66002466 499.49609375 229.90625 C500.69621229 231.27025027 501.88468046 232.64463223 503.05859375 234.03125 C505.4110297 236.74142966 507.86143085 239.27914601 510.43359375 241.78125 C513.34933576 244.63009162 515.80864904 247.57868431 518.24609375 250.84375 C522.21404375 255.9759488 526.76308131 259.34693854 532.0546875 262.99609375 C534.49609375 264.90625 534.49609375 264.90625 535.49609375 267.90625 C536.82268796 268.58622797 538.15751251 269.25018409 539.49609375 269.90625 C541.15604406 271.37730944 542.76354461 272.90822143 544.33622742 274.472229 C545.0447084 275.17285497 545.0447084 275.17285497 545.76750213 275.88763499 C547.34677601 277.45192309 548.91883505 279.02326307 550.4909668 280.59472656 C551.62253355 281.71867102 552.75450167 282.84221152 553.88684082 283.96537781 C556.95975728 287.01635271 560.0260788 290.07387263 563.09058356 293.13329411 C565.00524506 295.04431245 566.92119833 296.95402594 568.83759499 298.86330414 C575.52253684 305.52375528 582.20174161 312.18990462 588.8762207 318.86083984 C595.09922988 325.08021131 601.33525377 331.28632177 607.57733315 337.48654771 C612.93572196 342.81026277 618.2844678 348.14353903 623.62589675 353.48426986 C626.8164111 356.67399058 630.01079261 359.8595931 633.21509361 363.03546906 C636.2278067 366.02205094 639.22836508 369.02032739 642.21999359 372.02802467 C643.31980488 373.12965421 644.42390248 374.22702361 645.5325489 375.31976128 C647.0458453 376.81265739 648.54290365 378.32017233 650.03691101 379.83233643 C650.87884349 380.67225758 651.72077597 381.51217873 652.58822155 382.37755203 C654.82570126 385.34311251 655.4131836 387.20493506 655.49609375 390.90625 C654.58918285 392.74219799 654.58918285 392.74219799 652.99491882 394.39237976 C652.33932669 395.07592215 651.68373455 395.75946453 651.00827599 396.46372032 C650.17925585 397.26975512 649.35023571 398.07578991 648.49609375 398.90625 C647.75802093 399.62424125 647.75802093 399.62424125 647.00503755 400.35673738 C643.27480317 403.96862556 639.49547532 407.52681741 635.70550537 411.07584 C631.83672341 414.70041122 627.98131139 418.33913758 624.12641907 421.97846985 C623.305125 422.75369669 622.48383094 423.52892352 621.63764918 424.32764208 C610.05079834 435.28140695 598.603803 446.38112805 587.15549183 457.47931385 C577.88373093 466.4595018 568.56764407 475.38200664 559.12524414 484.18286133 C513.55071993 526.7221797 480.23335433 560.87938288 471.65206909 624.09823608 C470.33856048 633.76322663 467.84029566 642.99677187 465.08550072 652.33581161 C463.93140322 656.29352808 462.88358427 660.27863727 461.82763672 664.26342773 C461.42280102 665.77326841 461.01734533 667.28294299 460.61126709 668.79244995 C460.40925438 669.54418865 460.20724167 670.29592735 459.99910736 671.07044601 C459.11310645 674.36579571 458.22622568 677.66090833 457.33928108 680.95600414 C456.18269455 685.25308058 455.02677787 689.55033703 453.87109375 693.84765625 C453.64620144 694.68367937 453.42130913 695.51970249 453.1896019 696.38105965 C450.05056887 708.05498873 446.95392659 719.73945457 443.8866539 731.43243027 C442.64429685 736.16218244 441.39430074 740.88992176 440.14395332 745.61756706 C438.97574199 750.03848097 437.82050483 754.46251657 436.67506027 758.88938046 C436.14284773 760.93667955 435.60389894 762.98205571 435.06176758 765.02674866 C434.40701639 767.4962465 433.76307459 769.96864609 433.13208008 772.44432068 C432.84212158 773.52415726 432.55216309 774.60399384 432.25341797 775.71655273 C432.00888885 776.65280991 431.76435974 777.58906708 431.51242065 778.55369568 C430.28332647 781.39875549 429.22819943 782.4624306 426.49609375 783.90625 C424.45849609 783.90289307 424.45849609 783.90289307 422.20703125 783.34472656 C421.32241211 783.13303833 420.43779297 782.9213501 419.52636719 782.70324707 C418.52637695 782.44023804 417.52638672 782.177229 416.49609375 781.90625 C415.38008789 781.62422729 414.26408203 781.34220459 413.11425781 781.05163574 C409.10944157 780.02337568 405.1149987 778.96026211 401.12109375 777.890625 C399.58948859 777.48284662 398.05781445 777.07532726 396.52607727 776.66804504 C392.38156758 775.56514572 388.23812075 774.45830203 384.09488297 773.35063553 C380.59526103 772.41555129 377.09503313 771.48274677 373.59480381 770.54993916 C361.55998009 767.34255343 349.52762055 764.12597844 337.49609375 760.90625 C336.13261181 760.54137859 336.13261181 760.54137859 334.74158478 760.16913605 C322.2965304 756.83852853 309.85262248 753.50365535 297.40939713 750.16622162 C294.81175393 749.46959748 292.21403806 748.77324494 289.61630249 748.07696533 C273.38908529 743.72722744 257.16335299 739.37322282 240.95913124 734.93846703 C236.69545496 733.77242463 232.4303517 732.61160337 228.1656189 731.44943237 C224.91690054 730.56087307 221.67094771 729.66270959 218.42504883 728.76391602 C216.50744982 728.24058771 214.58973343 727.71768929 212.671875 727.1953125 C211.83124512 726.95901627 210.99061523 726.72272003 210.12451172 726.47926331 C208.95553345 726.16395912 208.95553345 726.16395912 207.76293945 725.84228516 C207.10203812 725.65993317 206.44113678 725.47758118 205.76020813 725.28970337 C200.37078064 724.37694289 195.56442434 724.92207219 190.33666992 726.36132812 C189.14262543 726.68522018 187.94858093 727.00911224 186.71835327 727.34281921 C185.40856405 727.70762078 184.09880139 728.07251775 182.7890625 728.4375 C181.38789385 728.82068819 179.98648884 729.20301301 178.58486938 729.58454895 C175.55127766 730.41195941 172.51920352 731.2446472 169.4881897 732.08145142 C164.60421459 733.42951363 159.71696154 734.76538571 154.82885742 736.09838867 C153.99084626 736.32691749 153.1528351 736.5554463 152.28942966 736.79090023 C150.56603047 737.2608131 148.84261524 737.73066711 147.11918449 738.20046425 C144.45575758 738.92683866 141.79262943 739.65430088 139.12953186 740.38188171 C125.93328639 743.98464073 112.72285178 747.53228317 99.50390625 751.05078125 C98.06722721 751.43323155 98.06722721 751.43323155 96.60152435 751.82340813 C88.87442886 753.87991671 81.14658315 755.9336 73.41851807 757.98646164 C66.80068644 759.74445231 60.18321035 761.50377051 53.56640625 763.265625 C52.65659248 763.50787371 51.74677872 763.75012241 50.80939484 763.99971199 C38.76946783 767.20781129 26.74570098 770.46923777 14.73828125 773.796875 C13.4056972 774.16533717 12.07309165 774.53372157 10.74046326 774.90202332 C4.79316649 776.54732219 -1.15058782 778.20366268 -7.08862305 779.88208008 C-9.10845763 780.44389463 -11.12838875 781.00536226 -13.1484375 781.56640625 C-14.03963287 781.82339294 -14.93082825 782.08037964 -15.84902954 782.34515381 C-23.45400216 784.43713992 -23.45400216 784.43713992 -27.50390625 782.90625 C-30.38466336 780.02549289 -30.85909208 776.55026544 -31.86035156 772.70898438 C-32.08910477 771.85360958 -32.31785797 770.99823479 -32.55354309 770.11693954 C-33.31950771 767.24630538 -34.07569654 764.37318511 -34.83203125 761.5 C-35.37387463 759.46197379 -35.91634822 757.42411503 -36.45941162 755.38641357 C-37.6228584 751.01584127 -38.78207526 746.64417725 -39.93798828 742.27160645 C-41.75931462 735.38210136 -43.58970993 728.49502791 -45.421875 721.60839844 C-47.29118083 714.58059868 -49.15995814 707.55266137 -51.0255127 700.52386475 C-56.58890683 679.56379559 -62.200189 658.61676668 -67.82756042 637.67379761 C-69.09340423 632.96197428 -70.35804898 628.24982913 -71.62279892 623.5377121 C-71.80578663 622.85596169 -71.98877434 622.17421127 -72.17730713 621.47180176 C-72.48055562 620.33017657 -72.48055562 620.33017657 -72.78993034 619.16548824 C-73.410791 616.8717801 -74.0497254 614.58531894 -74.69751167 612.29918003 C-76.6847218 605.19695701 -78.54050786 598.17277603 -79.71406591 590.8856259 C-84.87809163 558.99951719 -100.77514742 541.5501463 -123.70267916 519.83031678 C-128.32300905 515.41971569 -132.85337246 510.91840808 -137.39437866 506.42643738 C-144.9988595 498.92656725 -152.65084202 491.47980793 -160.34716797 484.07446289 C-168.24893115 476.47109623 -176.12472176 468.84249065 -183.96435547 461.17504883 C-184.45076738 460.69934564 -184.9371793 460.22364244 -185.43833096 459.733524 C-190.74933391 454.53833713 -196.05515209 449.3378668 -201.35993004 444.13632488 C-203.23009485 442.30289178 -205.10030132 440.46950117 -206.97055054 438.63615417 C-207.8830785 437.74137491 -208.79560647 436.84659565 -209.7357868 435.92470187 C-215.15023318 430.62056477 -220.58528596 425.33871589 -226.04009748 420.07610476 C-229.41395613 416.81897873 -232.77870034 413.55253377 -236.14218903 410.28470421 C-237.70468963 408.77156866 -239.27160474 407.26297663 -240.84317398 405.75926208 C-242.98405036 403.7102365 -245.10928194 401.64617468 -247.2315979 399.57795715 C-247.85929726 398.98528559 -248.48699662 398.39261403 -249.13371718 397.78198272 C-251.84691596 395.10971402 -253.34350891 393.38680675 -254.56770325 389.71907234 C-254.49258935 386.40728565 -254.04469851 385.56055388 -251.75546265 383.22938538 C-251.10186138 382.54758272 -250.44826012 381.86578007 -249.77485275 381.16331673 C-249.02544041 380.41848471 -248.27602806 379.67365269 -247.50390625 378.90625 C-246.30146208 377.6688548 -246.30146208 377.6688548 -245.0747261 376.40646172 C-242.23073286 373.49453807 -239.35789491 370.61339928 -236.47900391 367.73608398 C-235.37909016 366.63317224 -234.27937968 365.53005777 -233.17985535 364.42675781 C-230.2131696 361.45129543 -227.24330211 358.47902922 -224.27254534 355.50763202 C-222.41235202 353.64672486 -220.55287385 351.78510615 -218.69364548 349.92323494 C-212.19542186 343.41578058 -205.69464136 336.9108933 -199.19140625 330.40844727 C-193.14803505 324.36567702 -187.11026723 318.31734801 -181.07509387 312.26639122 C-175.87589333 307.05408294 -170.67281178 301.84567022 -165.46673429 296.64023072 C-162.36504462 293.53879497 -159.26489845 290.43585547 -156.16865921 287.32897758 C-153.25594288 284.40652505 -150.33839028 281.4889861 -147.41718483 278.57501984 C-146.35169959 277.51057342 -145.28788813 276.44444826 -144.22596931 275.37644386 C-138.87489104 269.99671305 -133.49496648 264.86120315 -127.38991356 260.32972813 C-123.59470648 257.46526719 -120.24351852 254.10776875 -116.7890625 250.84765625 C-114.50390625 248.90625 -114.50390625 248.90625 -112.50390625 248.90625 C-112.30023438 248.36613281 -112.0965625 247.82601562 -111.88671875 247.26953125 C-109.94576141 243.95235839 -107.21403833 241.62962702 -104.37890625 239.09375 C-103.79431641 238.56112549 -103.20972656 238.02850098 -102.60742188 237.47973633 C-98.91208788 234.12484264 -95.16163656 230.84445391 -91.28515625 227.69921875 C-86.08292021 222.46275747 -83.68095771 217.51493963 -82.1171875 210.4453125 C-81.92924118 209.65530853 -81.74129486 208.86530457 -81.5476532 208.05136108 C-80.95573523 205.54786149 -80.38579777 203.03995759 -79.81640625 200.53125 C-79.42396234 198.85643363 -79.03009359 197.18195046 -78.63476562 195.5078125 C-77.73869312 191.69511505 -76.85234037 187.88056394 -75.99382019 184.05921936 C-75.66401607 182.60986652 -75.32272528 181.16308503 -74.97065735 179.71897888 C-73.84524324 174.98832944 -73.20697774 170.37431604 -72.77488708 165.53434753 C-71.06337149 147.6160905 -65.96440536 130.52613448 -61.17401505 113.24435043 C-59.93282836 108.75370006 -58.70959922 104.25816521 -57.48510742 99.76293945 C-55.98184685 94.24819083 -54.47698167 88.73390594 -52.96388245 83.22184753 C-49.8572883 71.90177466 -46.79768317 60.57039931 -43.79117393 49.22333336 C-43.16054907 46.84346542 -42.52880506 44.46389747 -41.89668274 42.08442688 C-39.52618064 33.16192386 -39.52618064 33.16192386 -37.16793823 24.23617554 C-36.1073832 20.21116327 -35.03461455 16.18950027 -33.9609375 12.16796875 C-33.49831009 10.39885132 -33.49831009 10.39885132 -33.02633667 8.59399414 C-32.73638824 7.51456543 -32.44643982 6.43513672 -32.14770508 5.32299805 C-31.77758049 3.92527412 -31.77758049 3.92527412 -31.39997864 2.49931335 C-26.40459921 -11.95636626 -11.38317091 -3.08296501 0 0 Z " fill="#040403" transform="translate(299.50390625,111.09375)"/>
<path d="M0 0 C3.30281742 0.76610974 5.91472987 1.89375557 8.90234375 3.51953125 C9.86390381 4.04087646 10.82546387 4.56222168 11.81616211 5.09936523 C13.36122437 5.94736694 13.36122437 5.94736694 14.9375 6.8125 C16.0107251 7.39781494 17.0839502 7.98312988 18.18969727 8.58618164 C25.84151197 12.7752384 33.43517464 17.05952825 40.99633789 21.40966797 C47.76182362 25.30196525 54.56102205 29.13078209 61.375 32.9375 C69.42847774 37.4377007 77.47204181 41.95442305 85.5 46.5 C93.48774107 51.02207659 101.48878029 55.5196512 109.5 60 C118.44474838 65.00243335 127.37439136 70.03064295 136.29199219 75.08129883 C141.48395664 78.01966276 146.68269776 80.94549149 151.890625 83.85546875 C153.60668945 84.81453125 153.60668945 84.81453125 155.35742188 85.79296875 C157.57684785 87.03237186 159.79687621 88.27069703 162.01757812 89.5078125 C163.01724609 90.06597656 164.01691406 90.62414062 165.046875 91.19921875 C166.37477051 91.93918091 166.37477051 91.93918091 167.72949219 92.6940918 C169.52719116 93.72805866 171.27446147 94.84964098 173 96 C173.36076355 98.97390747 173.36076355 98.97390747 173.34057617 102.83642578 C173.34101425 103.53897491 173.34145233 104.24152405 173.34190369 104.96536255 C173.33981021 107.29229326 173.31645395 109.61850736 173.29296875 111.9453125 C173.28737476 113.55670783 173.28310373 115.16810825 173.28010559 116.7795105 C173.26864126 121.0244145 173.23916068 125.26901142 173.20599365 129.51379395 C173.17532682 133.84378912 173.16160752 138.17383382 173.14648438 142.50390625 C173.11429221 151.00276091 173.06151159 159.5013069 173 168 C177.62 168 182.24 168 187 168 C187 147.21 187 126.42 187 105 C191.30062412 106.43354137 194.42137217 107.63097024 198.24609375 109.80078125 C199.23609375 110.35894531 200.22609375 110.91710937 201.24609375 111.4921875 C202.29925781 112.09289062 203.35242188 112.69359375 204.4375 113.3125 C205.54351563 113.93769531 206.64953125 114.56289063 207.7890625 115.20703125 C211.19530363 117.13348005 214.59771379 119.06657729 218 121 C220.90090988 122.64160746 223.8029024 124.28128603 226.70507812 125.9206543 C228.57018309 126.97458197 230.43476586 128.02943429 232.29882812 129.08520508 C237.42863929 131.98953139 242.56658982 134.87847569 247.71484375 137.75 C248.83632813 138.37583984 249.9578125 139.00167969 251.11328125 139.64648438 C253.26723646 140.84748525 255.42212695 142.04681086 257.578125 143.24414062 C263.15347117 146.35332778 268.62014054 149.56304569 274 153 C272.40596353 163.92745504 269.31582299 174.51537859 266.453125 185.16015625 C265.88759569 187.27583484 265.32244993 189.39161599 264.75765991 191.50749207 C263.24122751 197.18406988 261.71939136 202.85918572 260.19641876 208.53401184 C258.61155527 214.44278319 257.03140231 220.35281409 255.45068359 226.26269531 C252.88047632 235.86942339 250.30714545 245.47530966 247.73144531 255.08056641 C244.82227444 265.92942881 241.91810282 276.77961886 239.0168457 287.63059998 C236.78644662 295.97244878 234.55329257 304.31355961 232.31980896 312.65458298 C231.63218141 315.22317426 230.94501061 317.79188736 230.25793457 320.36062622 C225.64213896 337.61360149 221.00508798 354.85475124 216 372 C206.96806545 370.5726947 198.21050873 368.30160391 189.3984375 365.90625 C187.84128066 365.48662388 186.28401088 365.06741664 184.72663879 364.64859009 C181.37137106 363.74536656 178.01686354 362.83939088 174.66293335 361.93121338 C169.29247569 360.4770294 163.92043586 359.02875458 158.5480957 357.58154297 C152.80853175 356.03518308 147.06905321 354.48851162 141.33009338 352.93991089 C126.56441127 348.95608639 111.79321983 344.99308413 97.01953125 341.0390625 C94.8402081 340.45567507 92.66088681 339.87228071 90.48156738 339.28887939 C81.97775492 337.01256415 73.47385633 334.73657133 64.96966553 332.46166992 C42.28893874 326.39387585 19.6169667 320.30199832 -3 314 C-3.02351559 303.8266544 -3.04110946 293.65331562 -3.05181217 283.47994804 C-3.05695749 278.7524098 -3.06389622 274.02489058 -3.07543945 269.29736328 C-3.12886207 246.8414101 -2.98260065 224.43750659 -2 202 C7.99972132 207.19678977 17.75114575 212.73249184 27.46679688 218.44189453 C34.76195335 222.71926231 42.10970057 226.88946031 49.5 231 C57.86907209 235.65667274 66.17670477 240.40382512 74.4375 245.25 C81.71775545 249.51675099 89.01165849 253.75290578 96.375 257.875 C97.12450928 258.29813477 97.87401855 258.72126953 98.64624023 259.15722656 C102.11285698 261.2672092 102.11285698 261.2672092 106 262 C107.98 258.37 109.96 254.74 112 251 C110.35 250.34 108.7 249.68 107 249 C105.5017027 248.24861311 104.01609867 247.47147822 102.54296875 246.671875 C101.26425903 245.97795654 101.26425903 245.97795654 99.9597168 245.27001953 C99.04488525 244.76841309 98.13005371 244.26680664 97.1875 243.75 C96.22046143 243.22132324 95.25342285 242.69264648 94.25708008 242.14794922 C86.14556275 237.68579995 78.14853759 233.04089807 70.16772461 228.35009766 C63.07527442 224.18863277 55.9333403 220.12735772 48.75 216.125 C39.49241082 210.96558571 30.26528401 205.75632908 21.0625 200.5 C20.47762817 200.16647522 19.89275635 199.83295044 19.29016113 199.48931885 C17.60027575 198.52538529 15.91145379 197.55958817 14.22265625 196.59375 C13.26109619 196.04396484 12.29953613 195.49417969 11.30883789 194.92773438 C10.21692139 194.29158203 9.12500488 193.65542969 8 193 C6.71788383 192.48352654 6.71788383 192.48352654 5.40986633 191.95661926 C2.40278926 190.57848028 0.31389532 189.37587359 -2 187 C-3.32650746 182.11931234 -2.94569884 177.3231673 -2.65234375 172.32421875 C-2.6022501 170.81679021 -2.55754553 169.30917443 -2.51780701 167.80143738 C-2.42726278 164.55974422 -2.31148073 161.32027404 -2.17938232 158.08001709 C-1.98377545 152.98504801 -1.91621075 147.89374943 -1.88330078 142.79541016 C-1.87772376 141.9344725 -1.87214674 141.07353485 -1.86640072 140.18650818 C-1.85551294 138.42184905 -1.84496165 136.65718782 -1.83473778 134.89252472 C-1.80357362 130.32710383 -1.74899218 125.76197707 -1.69506836 121.19677734 C-1.68431558 120.27018311 -1.67356279 119.34358887 -1.66248417 118.38891602 C-1.64047005 116.49284501 -1.61835506 114.59677517 -1.59614182 112.70070648 C-1.56205023 109.77388644 -1.52873142 106.84705852 -1.49563599 103.92022705 C-1.10325209 69.27834357 -0.60575149 34.63880578 0 0 Z " fill="#A53AFD" transform="translate(505,510)"/>
<path d="M0 0 C3.54823215 1.39025746 6.82695785 2.92774571 10.1484375 4.80078125 C11.14166016 5.35894531 12.13488281 5.91710937 13.15820312 6.4921875 C14.21974609 7.09289062 15.28128906 7.69359375 16.375 8.3125 C17.48552734 8.93769531 18.59605469 9.56289063 19.74023438 10.20703125 C23.16208957 12.13461805 26.58140134 14.06664454 30 16 C31.49321777 16.84377197 31.49321777 16.84377197 33.01660156 17.70458984 C36.77202909 19.82669429 40.5271618 21.94931431 44.28100586 24.07421875 C55.4988854 30.42165029 66.74941499 36.71077354 78 43 C76.75672163 46.38985605 75.36877594 49.12996003 73.19921875 52.01171875 C72.64097412 52.7601001 72.08272949 53.50848145 71.50756836 54.27954102 C70.60663452 55.47148071 70.60663452 55.47148071 69.6875 56.6875 C68.41069528 58.39786814 67.13467138 60.10881941 65.859375 61.8203125 C65.21291016 62.6855957 64.56644531 63.55087891 63.90039062 64.44238281 C61.04219592 68.28904876 58.23669978 72.17279205 55.4375 76.0625 C54.90600342 76.80008545 54.37450684 77.5376709 53.8269043 78.29760742 C52.75393455 79.78689528 51.68126101 81.2763966 50.60888672 82.76611328 C47.90987872 86.51359784 45.20461116 90.25655845 42.5 94 C41.41663696 95.49997854 40.33330362 96.99997854 39.25 98.5 C6.75 143.5 6.75 143.5 5.12426758 145.75097656 C4.04332809 147.24768701 2.96243599 148.74443168 1.8815918 150.24121094 C-0.8629754 154.04182637 -3.60841966 157.84180298 -6.35546875 161.640625 C-12.9335302 170.73926997 -19.48667984 179.85488682 -26 189 C-23.77122275 191.64573501 -23.77122275 191.64573501 -21 194 C-18.52629993 193.81719654 -17.38520927 193.39636062 -15.65063477 191.61157227 C-15.25158936 191.01916748 -14.85254395 190.4267627 -14.44140625 189.81640625 C-13.98000244 189.14552979 -13.51859863 188.47465332 -13.04321289 187.78344727 C-12.55457764 187.05053467 -12.06594238 186.31762207 -11.5625 185.5625 C-10.4906886 183.99924163 -9.41773439 182.4367663 -8.34375 180.875 C-7.79203125 180.06675781 -7.2403125 179.25851562 -6.671875 178.42578125 C-4.03042644 174.59321219 -1.29806005 170.82819073 1.4375 167.0625 C2.53006543 165.55347049 3.62251274 164.04435545 4.71484375 162.53515625 C5.25737793 161.78637207 5.79991211 161.03758789 6.35888672 160.26611328 C8.53454876 157.2618742 10.70619019 154.25474227 12.87744141 151.24731445 C13.95883817 149.74953274 15.04054377 148.25197396 16.12255859 146.75463867 C18.84797564 142.98290738 21.56984601 139.20870258 24.28515625 135.4296875 C29.47601572 128.21222258 34.70192377 121.03006248 40.0625 113.9375 C44.64289343 107.87331715 49.06894418 101.71557372 53.43212891 95.49365234 C58.1184213 88.8130636 62.8900722 82.19660658 67.6796875 75.58984375 C69.98920069 72.40343082 72.28404773 69.20703903 74.5703125 66.00390625 C75.15498291 65.18720459 75.73965332 64.37050293 76.34204102 63.52905273 C77.46003221 61.96684764 78.57526341 60.40266236 79.68725586 58.83618164 C82.24334818 55.27212161 84.74895675 51.97817391 88 49 C101.10103216 56.08890142 114.12626756 63.29758007 127.08203125 70.6484375 C133.20794217 74.12301745 139.35269923 77.56344355 145.5 81 C154.45943664 86.01042509 163.40282063 91.04829102 172.3359375 96.10546875 C179.37946347 100.09036769 186.43690717 104.04989994 193.5 108 C202.45877999 113.01028066 211.40285744 118.04563544 220.33374023 123.10546875 C225.28760646 125.90981622 230.24868463 128.70019677 235.22265625 131.46875 C248.94123263 139.10720261 262.526556 146.93660896 276 155 C273.33865944 157.05511094 270.6464314 158.87479464 267.74609375 160.57421875 C266.48539062 161.31575195 266.48539062 161.31575195 265.19921875 162.07226562 C264.28785156 162.60529297 263.37648438 163.13832031 262.4375 163.6875 C260.4464716 164.8578297 258.45559293 166.02841416 256.46484375 167.19921875 C255.41280762 167.81716309 254.36077148 168.43510742 253.27685547 169.07177734 C247.67635511 172.36731838 242.0888037 175.68467555 236.5 179 C228.33716906 183.83983735 220.17118139 188.67427424 212 193.5 C200.47797995 200.30505777 188.96656448 207.12798115 177.45556641 213.95166016 C171.80409916 217.30176185 166.15199612 220.6507907 160.5 224 C159.40260498 224.65033203 158.30520996 225.30066406 157.17456055 225.97070312 C151.90773188 229.0919009 146.6407891 232.21290549 141.37347412 235.33328247 C138.8888338 236.80520741 136.40425346 238.2772336 133.91967773 239.74926758 C132.73660226 240.45016456 131.55349747 241.15101207 130.37036133 241.85180664 C128.72860387 242.82425573 127.08695601 243.79688982 125.4453125 244.76953125 C124.04563232 245.59868042 124.04563232 245.59868042 122.61767578 246.44458008 C119.97444968 247.97198964 119.97444968 247.97198964 117.47216797 249.7644043 C115 251 115 251 112.5324707 250.87133789 C109.6281523 249.87205973 107.14366584 248.59104794 104.48046875 247.05859375 C103.45888672 246.47529297 102.43730469 245.89199219 101.38476562 245.29101562 C100.32966797 244.67935547 99.27457031 244.06769531 98.1875 243.4375 C97.11306641 242.82197266 96.03863281 242.20644531 94.93164062 241.57226562 C92.28412482 240.05435656 89.64048144 238.53010236 87 237 C86.71125 237.928125 86.4225 238.85625 86.125 239.8125 C85 243 85 243 83 246 C83 246.99 83 247.98 83 249 C84.59153584 250.35340779 84.59153584 250.35340779 86.71875 251.48046875 C87.86923828 252.14272461 87.86923828 252.14272461 89.04296875 252.81835938 C90.25919922 253.49608398 90.25919922 253.49608398 91.5 254.1875 C92.31082031 254.65091797 93.12164062 255.11433594 93.95703125 255.59179688 C95.96587291 256.73801829 97.98008805 257.87343772 100 259 C95.24147076 263.17130649 89.83887065 266.11758654 84.375 269.25 C82.20132378 270.50694973 80.02816573 271.76479588 77.85546875 273.0234375 C76.7267334 273.67666992 75.59799805 274.32990234 74.43505859 275.00292969 C68.83263018 278.26006291 63.25958615 281.56630703 57.6875 284.875 C56.57624756 285.5345166 55.46499512 286.1940332 54.32006836 286.87353516 C52.04592994 288.2234117 49.77192375 289.57351105 47.49804688 290.92382812 C43.88042845 293.07158216 40.26070533 295.21577385 36.640625 297.359375 C35.7313903 297.89783554 35.7313903 297.89783554 34.80378723 298.44717407 C31.90470958 300.16403765 29.00553121 301.88073059 26.10620117 303.59716797 C25.05924072 304.21736816 24.01228027 304.83756836 22.93359375 305.4765625 C21.93440918 306.0634082 20.93522461 306.65025391 19.90576172 307.25488281 C17.9634492 308.42138003 16.04266509 309.62446987 14.14501953 310.86230469 C12.82219971 311.71550293 12.82219971 311.71550293 11.47265625 312.5859375 C10.7031665 313.09946777 9.93367676 313.61299805 9.14086914 314.14208984 C7 315 7 315 5.26877975 314.44117165 C1.9461111 312.33054991 -0.68629137 309.58100226 -3.44134521 306.79916382 C-4.08588063 306.15633725 -4.73041605 305.51351068 -5.39448285 304.85120451 C-7.55650907 302.69247682 -9.71130189 300.52667045 -11.86621094 298.36083984 C-13.41314977 296.81333698 -14.96052891 295.26627416 -16.50831604 293.71961975 C-20.71284885 289.51566176 -24.91117822 285.30555716 -29.10844326 281.09434462 C-33.49444647 276.69585554 -37.88609808 272.30301363 -42.27716064 267.90957642 C-49.64779629 260.53342691 -57.01492902 253.15379399 -64.37939453 245.77148438 C-71.96461512 238.16790394 -79.55193479 230.56642827 -87.14208984 222.96777344 C-87.60999726 222.49934058 -88.07790467 222.03090772 -88.55999109 221.54827993 C-90.90737331 219.19828762 -93.25479915 216.84833888 -95.60224104 214.49840617 C-115.0744844 195.0052466 -134.53958012 175.50496269 -154 156 C-152.34828196 151.74238754 -149.16802712 148.89589215 -145.98898315 145.74847412 C-145.36657435 145.12435646 -144.74416554 144.5002388 -144.10289586 143.85720849 C-142.01326453 141.76427936 -139.91655845 139.67858492 -137.81982422 137.59277344 C-136.3215818 136.09509507 -134.82377946 134.59697636 -133.3263855 133.09844971 C-129.25672032 129.02820978 -125.18091 124.96417371 -121.10399008 120.9012022 C-116.84563664 116.65533563 -112.5929313 112.40381967 -108.33963013 108.15289307 C-100.28302218 100.10250589 -92.2213287 92.05723134 -84.15780747 84.01376939 C-74.97866661 74.85696891 -65.80519162 65.69450129 -56.63219428 56.53154707 C-37.76110544 37.68137377 -18.88289259 18.83834853 0 0 Z " fill="#FD8D01" transform="translate(213,345)"/>
<path d="M0 0 C0.16604736 0.64960693 0.33209473 1.29921387 0.50317383 1.96850586 C1.26961522 4.95903627 2.04102548 7.94826422 2.8125 10.9375 C3.07353516 11.95908203 3.33457031 12.98066406 3.60351562 14.03320312 C4.99621081 19.41485243 6.52622163 24.68536635 8.33227539 29.94165039 C9.37745171 33.16354493 10.08553142 36.44378673 10.8125 39.75 C12.28533598 46.25708532 14.00199517 52.65970316 15.875 59.0625 C18.09669757 66.6689186 20.11432114 74.30349025 22 82 C24.08647386 90.5101686 26.36656522 98.93661533 28.8203125 107.34765625 C30.75434585 114.02057761 32.45840476 120.73286014 34.10571289 127.48144531 C35.81445407 134.41440237 37.76551585 141.26364542 39.76293945 148.11816406 C41.77958496 155.09150169 43.57979842 162.1051632 45.26367188 169.16601562 C46.1959716 173.02190333 47.2275213 176.78172811 48.515625 180.53515625 C49.99960446 184.86496224 51.0750702 189.22171665 52.0625 193.6875 C52.9391793 197.62023406 53.81270294 201.45377129 55.12109375 205.26953125 C56 208 56 208 56 212 C53.515625 213.88671875 53.515625 213.88671875 50.25 215.6875 C49.18265625 216.28949219 48.1153125 216.89148438 47.015625 217.51171875 C44.59866405 218.70454533 42.6271391 219.52175866 40 220 C40 220.66 40 221.32 40 222 C38.6875 222.72916667 37.375 223.45833333 36.0625 224.1875 C35.24265625 224.64382813 34.4228125 225.10015625 33.578125 225.5703125 C31.92483837 226.48713509 30.26881306 227.39904647 28.609375 228.3046875 C25.17631032 230.18469911 21.83158817 232.06392953 18.625 234.3125 C16 236 16 236 13 236 C13 236.66 13 237.32 13 238 C11.82244141 238.56267578 11.82244141 238.56267578 10.62109375 239.13671875 C4.66337638 242.03882156 -0.71681447 245.01065582 -6 249 C-10.55172414 252 -10.55172414 252 -14 252 C-14 252.66 -14 253.32 -14 254 C-15.45537568 254.83848804 -16.91440373 255.67063934 -18.375 256.5 C-19.18710937 256.9640625 -19.99921875 257.428125 -20.8359375 257.90625 C-23 259 -23 259 -25 259 C-25 227.65 -25 196.3 -25 164 C-29.95 164 -34.9 164 -40 164 C-39.97779388 165.30212433 -39.95558777 166.60424866 -39.93270874 167.9458313 C-39.72999538 180.21691157 -39.58009103 192.48765228 -39.48187828 204.76002693 C-39.42968721 211.06956887 -39.35890172 217.3777594 -39.24560547 223.68652344 C-39.13694907 229.77502586 -39.07715826 235.86222871 -39.05122757 241.95162582 C-39.03274945 244.27464134 -38.99666357 246.59758562 -38.94269943 248.92004776 C-38.87007651 252.17498615 -38.86010798 255.42455761 -38.86474609 258.68017578 C-38.82879333 259.64043167 -38.79284058 260.60068756 -38.75579834 261.59004211 C-38.79894144 264.38870203 -38.94342817 266.40358602 -40 269 C-43.04500643 271.67277763 -46.3487479 273.29611597 -50 275 C-51.6329003 275.92367085 -53.2593218 276.85902467 -54.875 277.8125 C-57.57343444 279.35090635 -59.95443408 280.36493805 -63 281 C-63 281.66 -63 282.32 -63 283 C-64.3125 283.72916667 -65.625 284.45833333 -66.9375 285.1875 C-67.75734375 285.64382813 -68.5771875 286.10015625 -69.421875 286.5703125 C-71.07516163 287.48713509 -72.73118694 288.39904647 -74.390625 289.3046875 C-77.82368968 291.18469911 -81.16841183 293.06392953 -84.375 295.3125 C-87 297 -87 297 -90 297 C-90 297.66 -90 298.32 -90 299 C-90.78503906 299.37511719 -91.57007813 299.75023437 -92.37890625 300.13671875 C-98.33662362 303.03882156 -103.71681447 306.01065582 -109 310 C-113.55172414 313 -113.55172414 313 -117 313 C-117 313.66 -117 314.32 -117 315 C-117.78503906 315.37511719 -118.57007813 315.75023437 -119.37890625 316.13671875 C-125.33662362 319.03882156 -130.71681447 322.01065582 -136 326 C-140.55172414 329 -140.55172414 329 -144 329 C-144 329.66 -144 330.32 -144 331 C-144.78503906 331.37511719 -145.57007813 331.75023437 -146.37890625 332.13671875 C-153.47970918 335.56839662 -153.47970918 335.56839662 -160.0625 339.875 C-163 342 -163 342 -166 342 C-166 342.66 -166 343.32 -166 344 C-167.3125 344.72916667 -168.625 345.45833333 -169.9375 346.1875 C-170.75734375 346.64382813 -171.5771875 347.10015625 -172.421875 347.5703125 C-174.07516163 348.48713509 -175.73118694 349.39904647 -177.390625 350.3046875 C-180.82368968 352.18469911 -184.16841183 354.06392953 -187.375 356.3125 C-190 358 -190 358 -193 358 C-193 358.66 -193 359.32 -193 360 C-194.01707031 360.54527344 -194.01707031 360.54527344 -195.0546875 361.1015625 C-200.81118981 364.21103051 -206.45281586 367.4345571 -212.00390625 370.8984375 C-214 372 -214 372 -216 372 C-216.35002164 350.54191654 -216.68186918 329.08357853 -217 307.625 C-217.01189708 306.82386953 -217.02379416 306.02273906 -217.03605175 305.19733191 C-217.73854279 257.81744659 -218.1908703 210.44794349 -218.125 163.0625 C-218.12328796 161.82171944 -218.12157593 160.58093887 -218.11981201 159.3025589 C-218.09784941 144.53497384 -218.05905145 129.76748269 -218 115 C-192.84829256 114.94834093 -167.70862197 114.91028218 -142.5625 115.5 C-140.31967145 115.54864005 -138.07683276 115.59681452 -135.83398438 115.64453125 C-130.55585933 115.75776702 -125.2779038 115.8769002 -120 116 C-120 112.7 -120 109.4 -120 106 C-120.72407547 106.00222061 -121.44815094 106.00444122 -122.19416809 106.00672913 C-131.40027012 106.03365163 -140.60636618 106.05178302 -149.8125 106.0625 C-150.54268341 106.06335602 -151.27286682 106.06421204 -152.025177 106.06509399 C-174.37218188 106.08825663 -196.66435684 105.82724604 -219 105 C-219 89.49 -219 73.98 -219 58 C-206.7257781 54.65248494 -194.54212294 51.38879715 -182.20703125 48.3515625 C-175.32069475 46.60446115 -168.52710673 44.54118512 -161.71801758 42.51806641 C-155.28064329 40.62102982 -148.84093855 38.95051225 -142.29345703 37.48583984 C-135.78836207 36.00818934 -129.40952712 34.1476816 -123.00708008 32.28100586 C-117.03418251 30.55093643 -111.04105123 28.97328165 -105 27.5 C-96.22887433 25.35752765 -87.56349144 22.91347182 -78.890625 20.40625 C-69.94520351 17.82278464 -60.94417101 15.47337696 -51.90332031 13.24804688 C-42.18748126 10.85379994 -32.56946585 8.20431895 -22.95703125 5.42578125 C-18.43962537 4.12121953 -13.91415686 2.85172328 -9.375 1.625 C-8.20710937 1.30789062 -7.03921875 0.99078125 -5.8359375 0.6640625 C-3 0 -3 0 0 0 Z " fill="#15FD00" transform="translate(721,118)"/>
<path d="M0 0 C15.58669084 3.39956631 31.03080468 7.35253524 46.34472656 11.81933594 C52.19985185 13.51663448 58.07802201 15.05434067 64 16.5 C70.79938 18.15984865 77.53112621 19.97730205 84.25 21.9375 C92.89499513 24.45855173 101.59373137 26.67525675 110.33886719 28.82006836 C116.78224631 30.41216422 123.14113815 32.17276188 129.48925781 34.10571289 C135.60978802 35.94318914 141.79454722 37.47761619 148 39 C154.88301648 40.68861052 161.71977481 42.43543893 168.5 44.5 C176.3862421 46.89999111 184.35964267 48.89654866 192.36523438 50.85742188 C193.32494141 51.09267578 194.28464844 51.32792969 195.2734375 51.5703125 C196.11310059 51.77414551 196.95276367 51.97797852 197.81787109 52.18798828 C202.56104767 53.39834621 207.27731698 54.71199554 212 56 C212 72.17 212 88.34 212 105 C186.71778248 105 186.71778248 105 178.27978516 104.83227539 C177.29409546 104.81437454 176.30840576 104.79647369 175.29284668 104.7780304 C172.12487669 104.7199479 168.95697224 104.65892998 165.7890625 104.59765625 C163.52062202 104.55508835 161.25217916 104.51264642 158.98373413 104.47032166 C154.2591491 104.38170075 149.53459496 104.2916169 144.81005859 104.20043945 C138.85585535 104.08563989 132.90159084 103.97447561 126.94729996 103.86432838 C101.95928404 103.40058003 76.97672644 102.89702289 52 102 C52 105.3 52 108.6 52 112 C53.14765587 111.99705429 53.14765587 111.99705429 54.3184967 111.99404907 C95.27495478 111.90372034 136.21162935 112.78250273 177.14879227 113.97003937 C181.21639051 114.08769048 185.28404004 114.20354249 189.35168457 114.31958008 C197.2345054 114.54470136 205.11727078 114.77169108 213 115 C213.34553887 139.64567169 213.67806458 164.29150877 214 188.9375 C214.01189708 189.84713879 214.02379416 190.75677757 214.03605175 191.69398117 C214.65354314 238.96303961 215.20472841 286.22603704 215.125 333.5 C215.12328796 334.52294537 215.12157593 335.54589073 215.11981201 336.59983444 C215.09847224 348.39997859 215.06094303 360.19999266 215 372 C212.4516926 370.73332471 209.90421424 369.46502706 207.35717773 368.19580078 C206.28431644 367.66283134 206.28431644 367.66283134 205.18978119 367.11909485 C199.37321174 364.21814836 193.69521248 361.11883889 188.0625 357.875 C186.08494 356.74686175 184.10706396 355.61927736 182.12890625 354.4921875 C181.12359863 353.91823242 180.11829102 353.34427734 179.08251953 352.75292969 C173.90368213 349.80789147 168.70119789 346.90530458 163.5 344 C154.5403742 338.98991506 145.59717754 333.95170794 136.6640625 328.89453125 C129.62053653 324.90963231 122.56309283 320.95010006 115.5 317 C106.5406579 311.98940497 97.59718026 306.95170949 88.6640625 301.89453125 C81.62053266 297.90963012 74.56268916 293.9508265 67.5 290 C65.4231656 288.83595798 63.34634267 287.67189552 61.26953125 286.5078125 C57.00200634 284.11682112 52.72751498 281.73884478 48.44921875 279.3671875 C46.36188482 278.20329419 44.27464175 277.0392379 42.1875 275.875 C41.22070312 275.34261719 40.25390625 274.81023437 39.2578125 274.26171875 C38.36191406 273.76027344 37.46601563 273.25882812 36.54296875 272.7421875 C35.3677063 272.09032471 35.3677063 272.09032471 34.16870117 271.42529297 C31.78624321 269.85951682 29.94662727 268.07429766 28 266 C33.43359375 258.4765625 38.8671875 250.953125 44.30078125 243.4296875 C44.82986084 242.69709717 45.35894043 241.96450684 45.90405273 241.2097168 C46.97510785 239.72675522 48.04623509 238.24384574 49.11743164 236.76098633 C51.85340657 232.97337746 54.58808057 229.18484125 57.3203125 225.39453125 C64.16910413 215.89670723 71.05909458 206.4307292 78 197 C75.48580485 194.30621949 73.32759923 192.55194754 70 191 C69.28457031 192.01835937 68.56914062 193.03671875 67.83203125 194.0859375 C60.84108473 204.02194048 53.76923426 213.89593655 46.64111328 223.73388672 C43.92351827 227.486448 41.21205396 231.24343325 38.5 235 C37.43362353 236.476584 36.36721715 237.95314641 35.30078125 239.4296875 C34.76662598 240.16928711 34.2324707 240.90888672 33.68212891 241.67089844 C28.78808594 248.44726563 23.89404297 255.22363281 19 262 C9.14940311 257.36068663 -0.2508697 251.95741101 -9.70703125 246.57421875 C-15.0141287 243.55310223 -20.34132609 240.56955299 -25.67529297 237.59619141 C-36.53786554 231.54080035 -47.3216343 225.37470525 -58 219 C-57.30895418 212.55326996 -55.55142743 206.52811221 -53.75 200.3125 C-51.51646645 192.48629876 -49.36133143 184.65819888 -47.4375 176.75 C-45.58459629 169.15362703 -43.4914639 161.65035436 -41.30273438 154.14453125 C-39.05629525 146.36530216 -37.10841015 138.52420406 -35.17993164 130.66113281 C-33.58783578 124.21775369 -31.82723812 117.85886185 -29.89428711 111.51074219 C-28.05681086 105.39021198 -26.52238381 99.20545278 -25 93 C-23.14508483 85.43910214 -21.16216649 77.95834029 -18.89453125 70.51171875 C-17.05709066 64.39081792 -15.52257797 58.20576118 -14 52 C-12.14199196 44.43180038 -10.16860327 36.93532507 -7.90551758 29.47875977 C-4.97412281 19.7354521 -2.52292873 9.85523119 0 0 Z " fill="#FDF000" transform="translate(279,118)"/>
<path d="M0 0 C3.10406327 0.78604186 5.27716757 1.77059561 8.00463867 3.42236328 C8.92929932 3.9736792 9.85395996 4.52499512 10.80664062 5.09301758 C11.79623779 5.69412354 12.78583496 6.29522949 13.80541992 6.91455078 C15.95754242 8.1970584 18.1112498 9.47690943 20.26635742 10.75439453 C21.38751953 11.41938965 22.50868164 12.08438477 23.66381836 12.76953125 C29.3558684 16.11787898 35.14669772 19.29068818 40.93041992 22.47705078 C49.85985728 27.39727482 58.73276525 32.39066184 67.47265625 37.6418457 C71.51378046 40.12089284 71.51378046 40.12089284 76.11791992 40.78955078 C77.13656215 41.77055435 78.13287784 42.77481333 79.11791992 43.78955078 C80.90025616 44.91350052 82.71660414 45.98411775 84.55151367 47.02001953 C85.66099365 47.6498877 86.77047363 48.27975586 87.91357422 48.92871094 C89.12748737 49.61155385 90.34143694 50.29433202 91.55541992 50.97705078 C92.81587803 51.69057648 94.07604595 52.40461501 95.3359375 53.11914062 C97.95684911 54.60510363 100.57900354 56.08884031 103.2019043 57.57128906 C106.91531501 59.67220125 110.61985218 61.78829637 114.32104492 63.91064453 C114.90151581 64.24343918 115.48198669 64.57623383 116.08004761 64.91911316 C117.24345267 65.58613436 118.40685398 66.25316211 119.57025146 66.92019653 C132.15731256 74.1333277 144.79907258 81.24437655 157.47265625 88.30419922 C160.69787209 90.11520182 163.90706636 91.95319895 167.11791992 93.78955078 C167.14152511 104.10276896 167.15907193 114.41598029 167.16973209 124.72922039 C167.17485911 129.52269663 167.18176051 134.31615385 167.19335938 139.10961914 C167.25285416 164.35500826 166.96862394 189.55762112 166.11791992 214.78955078 C165.04888428 215.05180199 165.04888428 215.05180199 163.95825195 215.3193512 C152.18308187 218.20995536 140.46274314 221.14498979 128.87182617 224.71142578 C126.15166098 225.49265949 123.50249172 226.16569754 120.74291992 226.75830078 C115.94187659 227.79332958 111.2635496 229.14851247 106.55541992 230.53955078 C98.70045259 232.82669922 90.81372762 234.90490172 82.86791992 236.85205078 C75.39002654 238.68588271 67.9934598 240.65274243 60.62866211 242.89526367 C53.47776696 245.04207115 46.23068889 246.78056512 38.98120117 248.55908203 C33.14654993 250.0011061 27.36719524 251.53878914 21.61791992 253.28955078 C13.81872668 255.66455069 5.93116555 257.60980773 -1.98583984 259.55029297 C-8.8529976 261.24637507 -15.63658876 263.1262205 -22.4074707 265.16967773 C-27.20003591 266.61065342 -31.97883298 267.80507817 -36.88208008 268.78955078 C-38.57025061 269.16152056 -40.2577576 269.53651483 -41.94458008 269.91455078 C-43.25708008 270.20621745 -44.56958008 270.49788411 -45.88208008 270.78955078 C-46.51057422 268.64473825 -47.13468265 266.49864044 -47.75708008 264.35205078 C-48.27915039 262.55960938 -48.27915039 262.55960938 -48.81176758 260.73095703 C-49.58691606 257.9749124 -50.24244273 255.21365854 -50.84301758 252.41455078 C-51.88482293 247.61520554 -53.24109183 242.935011 -54.63208008 238.22705078 C-56.91922851 230.37208345 -58.99743102 222.48535848 -60.94458008 214.53955078 C-62.77841201 207.0616574 -64.74527173 199.66509066 -66.98779297 192.30029297 C-69.13460044 185.14939782 -70.87309442 177.90231975 -72.65161133 170.65283203 C-74.0936354 164.81818079 -75.63131844 159.0388261 -77.38208008 153.28955078 C-79.7579604 145.48746635 -81.7037124 137.59691384 -83.64501953 129.67700195 C-85.31893312 122.89978551 -87.17324168 116.20736563 -89.19848633 109.52783203 C-90.72573738 104.45021816 -91.92821618 99.34741094 -93.06958008 94.17236328 C-94.04139185 90.12626234 -95.19402752 86.1515746 -96.38208008 82.16455078 C-96.59687012 81.44106445 -96.81166016 80.71757813 -97.03295898 79.97216797 C-97.98011636 76.79082072 -98.9361009 73.6126429 -99.90551758 70.43798828 C-100.1865332 69.48150391 -100.46754883 68.52501953 -100.75708008 67.53955078 C-101.00200195 66.73001953 -101.24692383 65.92048828 -101.49926758 65.08642578 C-101.96965337 62.26411106 -101.8446381 60.49177789 -100.88208008 57.78955078 C-98.91333008 56.16455078 -98.91333008 56.16455078 -96.38208008 54.78955078 C-95.48360352 54.29197266 -94.58512695 53.79439453 -93.65942383 53.28173828 C-92.74290039 52.78931641 -91.82637695 52.29689453 -90.88208008 51.78955078 C-90.03774414 51.29712891 -89.1934082 50.80470703 -88.32348633 50.29736328 C-82.28885974 46.78955078 -82.28885974 46.78955078 -78.88208008 46.78955078 C-78.88208008 46.12955078 -78.88208008 45.46955078 -78.88208008 44.78955078 C-76.59614178 43.25655658 -74.32400435 41.85094547 -71.94458008 40.47705078 C-71.26105469 40.07623291 -70.5775293 39.67541504 -69.87329102 39.26245117 C-67.88034617 38.09754429 -65.88148873 36.9433147 -63.88208008 35.78955078 C-62.92688477 35.22751953 -61.97168945 34.66548828 -60.98754883 34.08642578 C-55.27486025 30.78955078 -55.27486025 30.78955078 -51.88208008 30.78955078 C-51.88208008 30.12955078 -51.88208008 29.46955078 -51.88208008 28.78955078 C-50.01098633 27.45751953 -50.01098633 27.45751953 -47.44458008 25.97705078 C-46.53450195 25.44853516 -45.62442383 24.92001953 -44.68676758 24.37548828 C-41.41975106 22.52812239 -38.1478544 20.69158348 -34.85473633 18.89111328 C-33.20863043 17.97190167 -31.60196161 16.98251957 -30.00708008 15.97705078 C-27.88208008 14.78955078 -27.88208008 14.78955078 -24.88208008 14.78955078 C-24.88208008 14.12955078 -24.88208008 13.46955078 -24.88208008 12.78955078 C-23.01098633 11.45751953 -23.01098633 11.45751953 -20.44458008 9.97705078 C-19.08333008 9.18621094 -19.08333008 9.18621094 -17.69458008 8.37939453 C-14.40560236 6.52020852 -11.1104056 4.67430152 -7.79223633 2.86767578 C-2.40085852 -0.17531047 -2.40085852 -0.17531047 0 0 Z " fill="#FE0000" transform="translate(324.882080078125,611.21044921875)"/>
<path d="M0 0 C3.30037971 2.12958417 5.93748217 4.87345292 8.68741989 7.6501255 C9.33195531 8.29295207 9.97649073 8.93577864 10.64055753 9.59808481 C12.80258375 11.75681251 14.95737657 13.92261887 17.11228561 16.08844948 C18.65922444 17.63595234 20.20660359 19.18301516 21.75439072 20.72966957 C25.95892353 24.93362757 30.1572529 29.14373217 34.35451794 33.35494471 C38.74052115 37.75343378 43.13217275 42.14627569 47.52323532 46.53971291 C54.89387097 53.91586241 62.2610037 61.29549533 69.62546921 68.67780495 C77.21068979 76.28138538 84.79800947 83.88286106 92.38816452 91.48151588 C92.85607193 91.94994874 93.32397934 92.4183816 93.80606577 92.9010094 C96.15344799 95.25100171 98.50087383 97.60095044 100.84831572 99.95088315 C120.32055907 119.44404272 139.7856548 138.94432663 159.24607468 158.44928932 C157.59484564 162.67764367 154.46272339 165.52598304 151.31339645 168.66958046 C150.39225866 169.60068997 150.39225866 169.60068997 149.45251203 170.55060977 C147.39075735 172.63207047 145.32188729 174.70630778 143.25291061 176.78058815 C141.774304 178.27008847 140.2960877 179.75997632 138.81823349 181.25022316 C134.80057542 185.29839817 130.77617702 189.33980432 126.74958324 193.37908959 C124.23574702 195.9010062 121.7229648 198.42396858 119.21046829 200.94721985 C111.35367951 208.83672356 103.49249606 216.72181264 95.62543178 224.60107023 C86.53459087 233.70618423 77.4587746 242.82593622 68.39550757 251.95849591 C61.39370583 259.01198419 54.37860478 266.05206284 47.35324121 273.08208293 C43.15487128 277.28385885 38.96248545 281.49122772 34.78390884 285.71269608 C30.8560456 289.68016965 26.91201377 293.63080797 22.95475197 297.56895256 C21.50304582 299.01938759 20.05734528 300.47586143 18.61807823 301.93864059 C16.65666663 303.93025934 14.67504461 305.89925326 12.68668747 307.8639164 C12.11799556 308.45163395 11.54930366 309.03935151 10.96337867 309.64487869 C9.33699799 311.22528744 9.33699799 311.22528744 6.24607468 313.44928932 C1.8593108 313.34456162 -1.16154471 311.94584345 -4.92970657 309.78132057 C-5.90955521 309.22500954 -6.88940384 308.6686985 -7.89894485 308.09552956 C-8.94421341 307.49039528 -9.98948196 306.885261 -11.06642532 306.26178932 C-13.32018511 304.97767806 -15.57409558 303.69383124 -17.82814407 302.41022682 C-18.99017884 301.7446906 -20.1521254 301.07900036 -21.31398392 300.41315651 C-26.64850168 297.36767312 -32.01464099 294.37941539 -37.37892532 291.38678932 C-46.41336151 286.33163865 -55.4331842 281.25103102 -64.4419136 276.15021706 C-72.53682589 271.567057 -80.64489295 267.00740305 -88.75392532 262.44928932 C-88.88023137 217.40586209 -88.76256112 172.36748292 -88.34820557 127.32562447 C-88.31663975 123.84791371 -88.28657812 120.3701928 -88.25688553 116.89246559 C-88.20906961 111.33828578 -88.15675875 105.78416476 -88.10104752 100.23005867 C-88.08107788 98.19360696 -88.06227581 96.15714334 -88.04483414 94.12066841 C-88.00414318 89.45382985 -87.94594286 84.78879904 -87.84697342 80.12281227 C-87.76152639 76.05085199 -87.77764022 71.9893254 -87.82762527 67.91687965 C-87.81865123 65.74750109 -87.80835828 63.57812751 -87.79664993 61.40876198 C-87.82564912 60.401714 -87.8546483 59.39466602 -87.88452625 58.35710144 C-87.77856277 51.4606579 -87.77856277 51.4606579 -84.77246475 48.49348831 C-82.49018322 46.95851032 -80.21550611 45.67090149 -77.75392532 44.44928932 C-76.89170364 43.91448952 -76.02948196 43.37968971 -75.14113235 42.82868385 C-74.43843216 42.41731178 -73.73573196 42.00593971 -73.01173782 41.58210182 C-72.18778519 41.09765602 -71.36383255 40.61321022 -70.51491165 40.11408424 C-69.64503616 39.60595192 -68.77516068 39.0978196 -67.87892532 38.57428932 C-65.92695872 37.42739842 -63.9751426 36.28025137 -62.02345657 35.13288307 C-61.00203568 34.53330788 -59.98061478 33.93373268 -58.92824173 33.31598854 C-54.5911802 30.7655215 -50.26261394 28.2008597 -45.93532181 25.63385963 C-43.68755195 24.30138935 -41.4383609 22.97131364 -39.18776321 21.64362526 C-33.79387394 18.45837588 -28.41545152 15.25414711 -23.07895279 11.9734745 C-20.59541147 10.44834417 -18.10484968 8.93489904 -15.61363602 7.4223423 C-14.42224682 6.69443185 -13.23437183 5.96073594 -12.05022049 5.22110939 C-10.40955656 4.19686455 -8.75583429 3.19362629 -7.10158157 2.19147682 C-5.69404617 1.32305153 -5.69404617 1.32305153 -4.25807571 0.43708229 C-1.75392532 -0.55071068 -1.75392532 -0.55071068 0 0 Z " fill="#56E0FD" transform="translate(781.7539253234863,340.5507106781006)"/>
<path d="M0 0 C-0.14148541 19.20836691 -0.28758511 38.4166972 -0.4375 57.625 C-0.44301424 58.33221758 -0.44852847 59.03943516 -0.4542098 59.76808357 C-0.73252364 95.42988614 -1.02061809 131.09101404 -1.5625 166.75 C-1.5736018 167.48090096 -1.5847036 168.21180191 -1.59614182 168.96485138 C-1.72351208 177.31002137 -1.85702528 185.65508195 -2 194 C-2.7292569 193.60177032 -3.45851379 193.20354065 -4.20986938 192.79324341 C-8.99561775 190.18109712 -13.78149016 187.56983577 -18.5859375 184.9921875 C-29.13344928 179.31707413 -39.62039327 173.55960576 -50.00244141 167.58691406 C-56.72607054 163.71997598 -63.48000765 159.91015791 -70.25 156.125 C-71.29518799 155.54057129 -72.34037598 154.95614258 -73.41723633 154.35400391 C-75.54526011 153.1646078 -77.67343469 151.97548147 -79.80175781 150.78662109 C-93.99168706 142.85975833 -108.17289426 134.91816921 -122.31445312 126.90527344 C-127.37958184 124.03759374 -132.45310934 121.18607508 -137.5390625 118.35546875 C-158.9324031 106.44486323 -158.9324031 106.44486323 -169 100 C-165.31840246 96.87894644 -161.47788371 94.47431411 -157.25 92.1875 C-150.1734774 88.28206457 -143.2316143 84.17726018 -136.3125 80 C-127.08073562 74.43088381 -117.80961198 68.93754079 -108.5 63.5 C-99.46600497 58.22198539 -90.46184312 52.90008495 -81.5 47.5 C-71.93016952 41.73356369 -62.30873532 36.06163086 -52.66159058 30.42605591 C-43.92593476 25.32158501 -35.22935205 20.15826539 -26.5625 14.9375 C-1.75297309 0 -1.75297309 0 0 0 Z " fill="#56DFFD" transform="translate(680,400)"/>
<path d="M0 0 C0.03129541 13.52082237 0.05121531 27.0416461 0.0625 40.5625 C0.06378403 42.08985023 0.06378403 42.08985023 0.06509399 43.64805603 C0.08919209 76.18513927 -0.09518706 108.71543913 -0.5 141.25 C-0.51793673 142.69236464 -0.51793673 142.69236464 -0.53623581 144.16386795 C-0.68147761 155.77604259 -0.8357414 167.38807884 -1 179 C-5.29721939 177.61782485 -8.99235065 176.028964 -12.90234375 173.76171875 C-14.02769531 173.11332031 -15.15304687 172.46492187 -16.3125 171.796875 C-17.52084322 171.09376699 -18.7291763 170.39064156 -19.9375 169.6875 C-21.19885322 168.95900215 -22.46057713 168.23114579 -23.72265625 167.50390625 C-25.64365631 166.39691884 -27.56444592 165.28958693 -29.48410034 164.18026733 C-35.13470497 160.91541501 -40.81289757 157.7008322 -46.5 154.5 C-52.63857499 151.04076426 -58.76772635 147.56602412 -64.87890625 144.05859375 C-67.27334859 142.68474078 -69.66784148 141.31097614 -72.0625 139.9375 C-72.65720093 139.59640198 -73.25190186 139.25530396 -73.86462402 138.90386963 C-81.60926421 134.46575513 -89.39472936 130.11510148 -97.25 125.875 C-105.91383374 121.19643459 -114.43432027 116.30231514 -122.91918945 111.30712891 C-128.11657161 108.25114466 -133.33173969 105.2365609 -138.59375 102.29296875 C-139.65730713 101.69798584 -140.72086426 101.10300293 -141.81665039 100.48999023 C-143.86010008 99.3506907 -145.90607607 98.21590776 -147.95483398 97.08618164 C-148.86563721 96.57821045 -149.77644043 96.07023926 -150.71484375 95.546875 C-151.52042725 95.10182617 -152.32601074 94.65677734 -153.15600586 94.19824219 C-155 93 -155 93 -156 91 C-150.3125 87.5 -150.3125 87.5 -148.54394531 86.4128418 C-145.54510759 84.56891839 -142.54865443 82.72140885 -139.55859375 80.86328125 C-122.0325 70 -122.0325 70 -118 70 C-118 69.34 -118 68.68 -118 68 C-116.12890625 66.66796875 -116.12890625 66.66796875 -113.5625 65.1875 C-112.19738281 64.39472656 -112.19738281 64.39472656 -110.8046875 63.5859375 C-107.53767098 61.73857161 -104.26577433 59.9020327 -100.97265625 58.1015625 C-99.32655036 57.18235089 -97.71988153 56.19296879 -96.125 55.1875 C-94 54 -94 54 -91 54 C-91 53.34 -91 52.68 -91 52 C-89.12890625 50.66796875 -89.12890625 50.66796875 -86.5625 49.1875 C-85.65242188 48.65898438 -84.74234375 48.13046875 -83.8046875 47.5859375 C-80.53767098 45.73857161 -77.26577433 43.9020327 -73.97265625 42.1015625 C-72.32655036 41.18235089 -70.71988153 40.19296879 -69.125 39.1875 C-67 38 -67 38 -64 38 C-64 37.34 -64 36.68 -64 36 C-62.12890625 34.66796875 -62.12890625 34.66796875 -59.5625 33.1875 C-58.65242188 32.65898438 -57.74234375 32.13046875 -56.8046875 31.5859375 C-53.53767098 29.73857161 -50.26577433 27.9020327 -46.97265625 26.1015625 C-45.32655036 25.18235089 -43.71988153 24.19296879 -42.125 23.1875 C-40 22 -40 22 -37 22 C-37 21.34 -37 20.68 -37 20 C-35.12890625 18.66796875 -35.12890625 18.66796875 -32.5625 17.1875 C-31.655 16.66285156 -30.7475 16.13820313 -29.8125 15.59765625 C-28.4203125 14.80681641 -28.4203125 14.80681641 -27 14 C-26.154375 13.50371094 -25.30875 13.00742187 -24.4375 12.49609375 C-18.38158832 9 -18.38158832 9 -15 9 C-15 8.34 -15 7.68 -15 7 C-12.87767021 5.82823482 -10.75242209 4.66245215 -8.625 3.5 C-8.02171875 3.16613281 -7.4184375 2.83226562 -6.796875 2.48828125 C-2.2265625 0 -2.2265625 0 0 0 Z " fill="#FD0101" transform="translate(494,511)"/>
<path d="M0 0 C4.95 0 9.9 0 15 0 C18.58601164 8.40770046 21.82871999 16.86143558 24.8125 25.5 C25.21919922 26.65242187 25.62589844 27.80484375 26.04492188 28.9921875 C26.62016602 30.65121094 26.62016602 30.65121094 27.20703125 32.34375 C27.5522583 33.33568359 27.89748535 34.32761719 28.25317383 35.34960938 C29 38 29 38 29 42 C29.66 42 30.32 42 31 42 C31.30744141 40.28296875 31.30744141 40.28296875 31.62109375 38.53125 C33.13977095 31.70188574 35.73719503 25.22642872 38.22290039 18.70410156 C39.07021094 16.47975739 39.9078413 14.25194214 40.74414062 12.0234375 C41.27809128 10.60916551 41.81257667 9.19509526 42.34765625 7.78125 C42.72423119 6.78140076 42.72423119 6.78140076 43.1084137 5.76135254 C44.88363526 1.11636474 44.88363526 1.11636474 46 0 C48.53049402 -0.07313567 51.03304837 -0.09247527 53.5625 -0.0625 C54.62887695 -0.05573242 54.62887695 -0.05573242 55.71679688 -0.04882812 C57.47790013 -0.03700864 59.23896036 -0.01907263 61 0 C60.38805407 3.5199753 59.46197356 6.6236477 58.09814453 9.92285156 C57.51215988 11.35023651 57.51215988 11.35023651 56.91433716 12.80645752 C56.49143402 13.82423279 56.06853088 14.84200806 55.6328125 15.890625 C55.19742157 16.9498114 54.76203064 18.0089978 54.31344604 19.10028076 C52.92153816 22.48528566 51.52377327 25.86782686 50.125 29.25 C48.73388238 32.61809588 47.34413573 35.98673248 45.95797729 39.35687256 C45.09618543 41.45174345 44.23153177 43.54544012 43.36355591 45.63775635 C41.00544722 51.3654891 38.88641792 57.09952217 37 63 C32.38 63 27.76 63 23 63 C22.5047583 61.55838501 22.5047583 61.55838501 21.99951172 60.08764648 C17.32241356 46.59564642 12.13357243 33.31310969 6.93359375 20.01586914 C5.78889012 17.08587175 4.64817631 14.15434484 3.5078125 11.22265625 C2.97826462 9.87446556 2.97826462 9.87446556 2.4380188 8.4990387 C2.11703217 7.67314743 1.79604553 6.84725616 1.46533203 5.99633789 C1.18142609 5.27039932 0.89752014 4.54446075 0.60501099 3.79652405 C0 2 0 2 0 0 Z " fill="#030105" transform="translate(655,686)"/>
<path d="M0 0 C6.59414644 -0.18741155 12.84106481 0.53574537 19.359375 1.49609375 C20.95957489 1.72559471 20.95957489 1.72559471 22.59210205 1.95973206 C24.83473142 2.28244954 27.07697618 2.60784997 29.31884766 2.93579102 C32.75208987 3.43780558 36.18644794 3.93151744 39.62109375 4.42382812 C41.8047572 4.73910096 43.9883534 5.05483997 46.171875 5.37109375 C47.19794861 5.51904892 48.22402222 5.66700409 49.28118896 5.81944275 C50.23608215 5.95951248 51.19097534 6.09958221 52.17480469 6.24389648 C53.01227234 6.36603012 53.84973999 6.48816376 54.71258545 6.61399841 C56.84627653 6.97405914 58.9100661 7.44289333 61 8 C60.51675181 13.15464734 57.81389239 16.81550319 55 21 C47.46460702 20.13983623 40.03767306 18.8078141 32.57617188 17.4609375 C26.7252682 16.4218108 20.91389197 15.5871082 15 15 C15.54527344 15.59425781 16.09054687 16.18851563 16.65234375 16.80078125 C21.56199782 22.19720444 26.27837359 27.69997976 30.84375 33.390625 C33.37734222 36.45663877 36.08350708 39.32424936 38.8828125 42.1484375 C40 44 40 44 39.83984375 46.42578125 C38.96154262 49.11787633 37.86097469 51.36704348 36.4375 53.8125 C35.98246094 54.60269531 35.52742188 55.39289062 35.05859375 56.20703125 C34.70925781 56.79871094 34.35992187 57.39039063 34 58 C29.94571209 54.10279705 26.39350179 49.94513948 22.875 45.5625 C22.3080542 44.86020264 21.7411084 44.15790527 21.15698242 43.43432617 C12.2792169 32.41249652 3.6043043 21.23598956 -5 10 C-3.35 6.7 -1.7 3.4 0 0 Z " fill="#070400" transform="translate(244,552)"/>
<path d="M0 0 C27.78607988 -0.21356216 55.5555842 0.37170696 83.33483887 0.92712402 C89.51745233 1.05005559 95.70013531 1.16938688 101.8828125 1.2890625 C113.9219438 1.5226092 125.96099559 1.76000703 138 2 C138 2.33 138 2.66 138 3 C122.16 3 106.32 3 90 3 C90 5.64 90 8.28 90 11 C80.62501569 11.03038859 71.25002544 11.05089936 61.875 11.0625 C61.1880455 11.06335602 60.501091 11.06421204 59.7933197 11.06509399 C39.84456301 11.08708094 19.92953121 10.97899452 0 10 C0 6.7 0 3.4 0 0 Z " fill="#0D0C00" transform="translate(331,220)"/>
<path d="M0 0 C5.71480789 3.28297474 5.71480789 3.28297474 6.81762695 6.05566406 C7.08631807 10.39356886 6.03166972 14.2297189 4.98046875 18.421875 C4.7618367 19.32246643 4.54320465 20.22305786 4.31794739 21.15093994 C3.85465151 23.04832426 3.38616631 24.94444802 2.9128418 26.83935547 C2.18742815 29.75028831 1.48225457 32.66560389 0.77929688 35.58203125 C0.32671691 37.42477334 -0.12701907 39.26723197 -0.58203125 41.109375 C-0.79358353 41.98535339 -1.0051358 42.86133179 -1.22309875 43.76385498 C-1.75253499 45.85946304 -2.36816754 47.93295777 -3 50 C-3.99 50.495 -3.99 50.495 -5 51 C-7.80971674 49.56128962 -10.36890087 47.73992039 -13 46 C-11.69141249 38.82519603 -9.92840997 31.8703488 -7.875 24.875 C-7.59785156 23.91851562 -7.32070313 22.96203125 -7.03515625 21.9765625 C-6.36043779 19.64994713 -5.6820117 17.32448578 -5 15 C-8.25077684 17.26972284 -11.50048426 19.54097212 -14.75 21.8125 C-15.67039062 22.45509766 -16.59078125 23.09769531 -17.5390625 23.75976562 C-18.42851562 24.38173828 -19.31796875 25.00371094 -20.234375 25.64453125 C-21.05131836 26.21534424 -21.86826172 26.78615723 -22.70996094 27.37426758 C-24.22668504 28.45101233 -25.71814262 29.56433532 -27.18066406 30.71362305 C-29 32 -29 32 -30.875 31.9375 C-33.8312527 30.63327087 -36.36462398 28.8567422 -39 27 C-37.88375742 23.65127226 -37.55028196 23.43825901 -34.66796875 21.7578125 C-33.96075684 21.33733643 -33.25354492 20.91686035 -32.52490234 20.48364258 C-31.36788818 19.8111145 -31.36788818 19.8111145 -30.1875 19.125 C-22.98036209 14.83734876 -15.89382003 10.4022882 -8.875 5.8125 C-7.99223389 5.23580566 -7.10946777 4.65911133 -6.19995117 4.06494141 C-4.13194183 2.71201506 -2.06521445 1.35718738 0 0 Z " fill="#070600" transform="translate(378,268)"/>
<path d="M0 0 C5.87960053 1.90601048 11.61323343 3.97730363 17.31640625 6.35546875 C18.05833725 6.66196854 18.80026825 6.96846832 19.56468201 7.28425598 C21.89848703 8.24913729 24.23051311 9.21823398 26.5625 10.1875 C28.15938866 10.84858889 29.75639292 11.50939861 31.35351562 12.16992188 C35.23701846 13.77672976 39.11893362 15.38731654 43 17 C43 19.97 43 22.94 43 26 C37.03766803 28.28075215 31.07452159 30.55935652 25.1105957 32.8359375 C23.0800943 33.61138249 21.04982033 34.38742331 19.01977539 35.1640625 C16.10882614 36.27759468 13.19707679 37.38901068 10.28515625 38.5 C9.3716188 38.84998047 8.45808136 39.19996094 7.51686096 39.56054688 C6.67606491 39.88087891 5.83526886 40.20121094 4.96899414 40.53125 C4.22508926 40.81548828 3.48118439 41.09972656 2.71473694 41.39257812 C1 42 1 42 0 42 C0 38.37 0 34.74 0 31 C0.78238037 30.7326001 1.56476074 30.4652002 2.37084961 30.18969727 C5.89410746 28.98364791 9.41581581 27.77313635 12.9375 26.5625 C14.16919922 26.14162109 15.40089844 25.72074219 16.66992188 25.28710938 C17.83974609 24.88427734 19.00957031 24.48144531 20.21484375 24.06640625 C21.29886475 23.69459229 22.38288574 23.32277832 23.49975586 22.93969727 C25.90585315 22.23185713 25.90585315 22.23185713 27 21 C18.09 17.7 9.18 14.4 0 11 C0 7.37 0 3.74 0 0 Z " fill="#000800" transform="translate(605,207)"/>
</svg>
