<?xml version="1.0" encoding="UTF-8"?>
<svg version="1.1" xmlns="http://www.w3.org/2000/svg" width="1000" height="1000">
<path d="M0 0 C330 0 660 0 1000 0 C1000 330 1000 660 1000 1000 C670 1000 340 1000 0 1000 C0 670 0 340 0 0 Z " fill="#FEFEFE" transform="translate(0,0)"/>
<path d="M0 0 C1.55843377 0.41946633 3.11694862 0.83863152 4.67553711 1.25752258 C8.03639723 2.1614307 11.39671674 3.06731219 14.75662231 3.97476196 C20.13956936 5.42857104 25.52365501 6.87812995 30.90795898 8.3269043 C36.65824447 9.87430595 42.40847533 11.42190792 48.15834045 12.97087097 C62.88220995 16.93693085 77.6100916 20.88787966 92.33984375 24.83203125 C94.50935437 25.41303235 96.67886426 25.99403617 98.84837341 26.57504272 C107.30693225 28.84017269 115.76556892 31.10501166 124.22439575 33.36914062 C129.17323431 34.69381657 134.12182153 36.01942854 139.07031059 37.34540939 C141.89943394 38.10308665 144.72888547 38.8595289 147.55836487 39.61587524 C156.18831756 41.92551919 164.80965194 44.26058828 173.41357422 46.66552734 C174.95529103 47.09438826 176.49703327 47.52315776 178.0388031 47.951828 C180.8495842 48.73357451 183.65679054 49.52665661 186.46229553 50.32710266 C187.6928215 50.66992783 188.92334747 51.01275299 190.19116211 51.3659668 C191.24782578 51.66544724 192.30448944 51.96492767 193.39317322 52.27348328 C199.62471477 53.54425773 204.7984839 52.7905617 210.8840332 51.14404297 C211.59390821 50.95457627 212.30378323 50.76510958 213.0351696 50.56990147 C215.3955497 49.93768294 217.75235813 49.29307147 220.109375 48.6484375 C221.80238877 48.19234648 223.49561651 47.73704913 225.18904114 47.28248596 C229.77401636 46.04948923 234.35605035 44.80587061 238.93766022 43.56043625 C243.76578085 42.25005927 248.59661131 40.94975363 253.42724609 39.64868164 C261.45709242 37.48489316 269.48553732 35.31597819 277.51318359 33.14404297 C288.87432333 30.07098907 300.24082103 27.01815242 311.609375 23.97265625 C313.39008721 23.49549354 315.17079807 23.0183258 316.95150757 22.54115295 C323.89182155 20.68156789 330.83233192 18.82271652 337.77294922 16.96426392 C342.79158475 15.62031321 347.80997094 14.27543482 352.828125 12.9296875 C353.63030079 12.71458464 354.43247658 12.49948177 355.25896072 12.27786064 C365.53582506 9.52091454 375.80448789 6.73578235 386.06439209 3.91638756 C390.35167953 2.73929297 394.64075917 1.56873158 398.92938232 0.39651489 C402.20343349 -0.50237818 405.47404131 -1.41306405 408.74462891 -2.32446289 C410.66813545 -2.85100371 412.59179035 -3.37700302 414.515625 -3.90234375 C415.79200081 -4.26451492 415.79200081 -4.26451492 417.09416199 -4.63400269 C424.84386256 -6.72465218 424.84386256 -6.72465218 428.49609375 -5.09375 C431.6395269 -0.82167177 432.76372249 3.80775684 434.07714844 8.85668945 C434.31710761 9.75359466 434.55706678 10.65049986 434.80429745 11.57458401 C435.59954368 14.55432963 436.38372303 17.53687323 437.16796875 20.51953125 C437.72805024 22.62642573 438.28883997 24.73313205 438.85029602 26.83966064 C440.34865491 32.46882953 441.83765513 38.10043373 443.3247261 43.73259354 C444.85643741 49.52809253 446.39607585 55.32148364 447.93530273 61.11499023 C449.76523164 68.00426824 451.59451451 74.89371328 453.41990662 81.78419495 C456.76556963 94.4112254 460.13318382 107.03181729 463.546875 119.640625 C463.90754264 120.97473001 464.26815006 122.3088513 464.62869263 123.64299011 C466.54691771 130.73853238 466.54691771 130.73853238 468.47570801 137.83120728 C473.80861752 157.39241546 473.80861752 157.39241546 475.13452148 166.55493164 C475.6523144 169.92215887 476.52930163 173.07705008 477.49609375 176.34375 C477.82609375 177.47683594 478.15609375 178.60992187 478.49609375 179.77734375 C479.43646852 182.85166216 479.43646852 182.85166216 480.5625 185.5546875 C481.43523729 187.75296301 481.97760919 189.77908552 482.43359375 192.09375 C483.30556974 196.19676878 484.40141395 200.17353535 485.66796875 204.171875 C486.25903281 206.1235016 486.78324746 208.09588678 487.26171875 210.078125 C489.5078061 218.77660875 493.17461268 223.66002466 499.49609375 229.90625 C500.69621229 231.27025027 501.88468046 232.64463223 503.05859375 234.03125 C505.4110297 236.74142966 507.86143085 239.27914601 510.43359375 241.78125 C513.34933576 244.63009162 515.80864904 247.57868431 518.24609375 250.84375 C522.21404375 255.9759488 526.76308131 259.34693854 532.0546875 262.99609375 C534.49609375 264.90625 534.49609375 264.90625 535.49609375 267.90625 C536.82268796 268.58622797 538.15751251 269.25018409 539.49609375 269.90625 C541.15604406 271.37730944 542.76354461 272.90822143 544.33622742 274.472229 C545.0447084 275.17285497 545.0447084 275.17285497 545.76750213 275.88763499 C547.34677601 277.45192309 548.91883505 279.02326307 550.4909668 280.59472656 C551.62253355 281.71867102 552.75450167 282.84221152 553.88684082 283.96537781 C556.95975728 287.01635271 560.0260788 290.07387263 563.09058356 293.13329411 C565.00524506 295.04431245 566.92119833 296.95402594 568.83759499 298.86330414 C575.52253684 305.52375528 582.20174161 312.18990462 588.8762207 318.86083984 C595.09922988 325.08021131 601.33525377 331.28632177 607.57733315 337.48654771 C612.93572196 342.81026277 618.2844678 348.14353903 623.62589675 353.48426986 C626.8164111 356.67399058 630.01079261 359.8595931 633.21509361 363.03546906 C636.2278067 366.02205094 639.22836508 369.02032739 642.21999359 372.02802467 C643.31980488 373.12965421 644.42390248 374.22702361 645.5325489 375.31976128 C647.0458453 376.81265739 648.54290365 378.32017233 650.03691101 379.83233643 C650.87884349 380.67225758 651.72077597 381.51217873 652.58822155 382.37755203 C654.82593796 385.34342623 655.41351648 387.20448806 655.49609375 390.90625 C654.58695126 392.75056648 654.58695126 392.75056648 652.99095154 394.40725708 C652.33537703 395.09073338 651.67980251 395.77420967 651.00436211 396.47839737 C645.98073272 401.34096791 640.89472319 406.12956518 635.75933838 410.87396622 C631.90577461 414.4363464 628.06674585 418.01429332 624.22901917 421.59371948 C623.41099575 422.35668138 622.59297234 423.11964328 621.75016034 423.90572524 C610.17682506 434.72120696 598.76990767 445.71195687 587.36274052 456.70213127 C578.13647825 465.58162934 568.859379 474.39063591 559.42700195 483.05126953 C510.82484571 527.75530448 479.81186494 564.77531838 469.2300806 631.13118839 C466.28017316 649.55145745 461.3351469 667.34355127 456.27265739 685.2781601 C454.14111517 692.84975709 452.11760565 700.4506784 450.08604634 708.04957902 C449.22816435 711.25559538 448.36602624 714.46046245 447.50378746 717.66530937 C445.18936044 726.27419494 442.91719124 734.89371169 440.6636467 743.51870728 C439.53570331 747.82915344 438.39804279 752.1370502 437.26202393 756.44537354 C436.39879663 759.73807975 435.55144844 763.03459659 434.70458984 766.33154297 C434.1958623 768.26162416 433.6863183 770.19149042 433.17578125 772.12109375 C432.85232727 773.4129232 432.85232727 773.4129232 432.52233887 774.73085022 C432.20746521 775.90036476 432.20746521 775.90036476 431.88623047 777.09350586 C431.71276093 777.76328964 431.53929138 778.43307343 431.36056519 779.12315369 C430.16957454 781.57974271 428.86328866 782.57503613 426.49609375 783.90625 C424.45849609 783.90289307 424.45849609 783.90289307 422.20703125 783.34472656 C421.32241211 783.13303833 420.43779297 782.9213501 419.52636719 782.70324707 C418.52637695 782.44023804 417.52638672 782.177229 416.49609375 781.90625 C415.38008789 781.62422729 414.26408203 781.34220459 413.11425781 781.05163574 C409.10944157 780.02337568 405.1149987 778.96026211 401.12109375 777.890625 C399.58948859 777.48284662 398.05781445 777.07532726 396.52607727 776.66804504 C392.38156758 775.56514572 388.23812075 774.45830203 384.09488297 773.35063553 C380.59526103 772.41555129 377.09503313 771.48274677 373.59480381 770.54993916 C361.55998009 767.34255343 349.52762055 764.12597844 337.49609375 760.90625 C336.13261181 760.54137859 336.13261181 760.54137859 334.74158478 760.16913605 C322.2965304 756.83852853 309.85262248 753.50365535 297.40939713 750.16622162 C294.81175393 749.46959748 292.21403806 748.77324494 289.61630249 748.07696533 C273.38908529 743.72722744 257.16335299 739.37322282 240.95913124 734.93846703 C236.69545496 733.77242463 232.4303517 732.61160337 228.1656189 731.44943237 C224.91690054 730.56087307 221.67094771 729.66270959 218.42504883 728.76391602 C216.50744982 728.24058771 214.58973343 727.71768929 212.671875 727.1953125 C211.83124512 726.95901627 210.99061523 726.72272003 210.12451172 726.47926331 C208.95553345 726.16395912 208.95553345 726.16395912 207.76293945 725.84228516 C207.10203812 725.65993317 206.44113678 725.47758118 205.76020813 725.28970337 C200.37078064 724.37694289 195.56442434 724.92207219 190.33666992 726.36132812 C189.14262543 726.68522018 187.94858093 727.00911224 186.71835327 727.34281921 C185.40856405 727.70762078 184.09880139 728.07251775 182.7890625 728.4375 C181.38789385 728.82068819 179.98648884 729.20301301 178.58486938 729.58454895 C175.55127766 730.41195941 172.51920352 731.2446472 169.4881897 732.08145142 C164.60421459 733.42951363 159.71696154 734.76538571 154.82885742 736.09838867 C153.99084626 736.32691749 153.1528351 736.5554463 152.28942966 736.79090023 C150.56603047 737.2608131 148.84261524 737.73066711 147.11918449 738.20046425 C144.45575758 738.92683866 141.79262943 739.65430088 139.12953186 740.38188171 C125.93328639 743.98464073 112.72285178 747.53228317 99.50390625 751.05078125 C98.06722721 751.43323155 98.06722721 751.43323155 96.60152435 751.82340813 C88.87442886 753.87991671 81.14658315 755.9336 73.41851807 757.98646164 C66.80068644 759.74445231 60.18321035 761.50377051 53.56640625 763.265625 C52.65659248 763.50787371 51.74677872 763.75012241 50.80939484 763.99971199 C38.76946783 767.20781129 26.74570098 770.46923777 14.73828125 773.796875 C13.4056972 774.16533717 12.07309165 774.53372157 10.74046326 774.90202332 C4.79316649 776.54732219 -1.15058782 778.20366268 -7.08862305 779.88208008 C-9.10845763 780.44389463 -11.12838875 781.00536226 -13.1484375 781.56640625 C-14.03963287 781.82339294 -14.93082825 782.08037964 -15.84902954 782.34515381 C-23.45400216 784.43713992 -23.45400216 784.43713992 -27.50390625 782.90625 C-30.21256228 780.19759397 -30.51197139 777.79236636 -31.49316406 774.0859375 C-31.68292564 773.37678129 -31.87268723 772.66762508 -32.06819916 771.93697929 C-32.70428098 769.55340657 -33.3305716 767.16736817 -33.95703125 764.78125 C-34.40882595 763.08090047 -34.86125353 761.380719 -35.31427002 759.68069458 C-36.2890334 756.01766848 -37.2595534 752.35355391 -38.22680664 748.6885376 C-39.76493305 742.86071838 -41.31226075 737.03536845 -42.86132812 731.21044922 C-44.46762077 725.16881588 -46.07338979 719.12704675 -47.67602539 713.08444214 C-52.85634583 693.55397125 -58.09048716 674.03811116 -63.33403015 654.52453613 C-63.98335986 652.10772389 -64.63244295 649.69084561 -65.28137207 647.27392578 C-65.57327988 646.18730982 -65.57327988 646.18730982 -65.87108481 645.07874203 C-66.28473043 643.536884 -66.69747609 641.99478397 -67.1089319 640.45234013 C-68.14328905 636.58027054 -69.19246804 632.71379126 -70.28253365 628.85700989 C-72.63818066 620.42831344 -74.72948052 612.02890747 -76.36910689 603.42922223 C-83.56288658 566.05972451 -96.4321295 544.02510498 -124.10825491 518.30940771 C-128.73883919 513.96068539 -133.24543335 509.48652223 -137.76785278 505.02590942 C-145.33098875 497.59688886 -152.9594916 490.2408178 -160.64892578 482.94287109 C-168.53697363 475.45596088 -176.3857512 467.93144757 -184.18408203 460.35107422 C-184.66944305 459.87931188 -185.15480407 459.40754954 -185.654873 458.92149137 C-190.00943507 454.68776309 -194.35968928 450.44961718 -198.70980668 446.21132302 C-201.51938958 443.47408239 -204.32946863 440.73735281 -207.1399231 438.00100708 C-208.05024296 437.1145082 -208.96056282 436.22800932 -209.89846814 435.31464684 C-215.29214319 430.06867972 -220.71013347 424.84950393 -226.15260863 419.65418792 C-229.51276842 416.44570396 -232.86435827 413.22834494 -236.21536255 410.0103035 C-237.77137658 408.52124595 -239.33184416 407.03682649 -240.89700699 405.55738831 C-243.02879423 403.54202919 -245.14503409 401.51154268 -247.2585144 399.47702026 C-247.88348529 398.8945805 -248.50845617 398.31214073 -249.15236557 397.71205127 C-251.87156557 395.06675631 -253.34532659 393.38117153 -254.56602097 389.7253809 C-254.49293973 386.40852474 -254.04777276 385.56368444 -251.75546265 383.22938538 C-251.10186138 382.54758272 -250.44826012 381.86578007 -249.77485275 381.16331673 C-249.02544041 380.41848471 -248.27602806 379.67365269 -247.50390625 378.90625 C-246.30146208 377.6688548 -246.30146208 377.6688548 -245.0747261 376.40646172 C-242.23073286 373.49453807 -239.35789491 370.61339928 -236.47900391 367.73608398 C-235.37909016 366.63317224 -234.27937968 365.53005777 -233.17985535 364.42675781 C-230.2131696 361.45129543 -227.24330211 358.47902922 -224.27254534 355.50763202 C-222.41235202 353.64672486 -220.55287385 351.78510615 -218.69364548 349.92323494 C-212.19542186 343.41578058 -205.69464136 336.9108933 -199.19140625 330.40844727 C-193.14803505 324.36567702 -187.11026723 318.31734801 -181.07509387 312.26639122 C-175.87589333 307.05408294 -170.67281178 301.84567022 -165.46673429 296.64023072 C-162.36504462 293.53879497 -159.26489845 290.43585547 -156.16865921 287.32897758 C-153.25594288 284.40652505 -150.33839028 281.4889861 -147.41718483 278.57501984 C-146.35169959 277.51057342 -145.28788813 276.44444826 -144.22596931 275.37644386 C-138.87489104 269.99671305 -133.49496648 264.86120315 -127.38991356 260.32972813 C-123.59470648 257.46526719 -120.24351852 254.10776875 -116.7890625 250.84765625 C-114.50390625 248.90625 -114.50390625 248.90625 -112.50390625 248.90625 C-112.30023438 248.36613281 -112.0965625 247.82601562 -111.88671875 247.26953125 C-109.94576141 243.95235839 -107.21403833 241.62962702 -104.37890625 239.09375 C-103.79431641 238.56112549 -103.20972656 238.02850098 -102.60742188 237.47973633 C-98.91208788 234.12484264 -95.16163656 230.84445391 -91.28515625 227.69921875 C-86.08292021 222.46275747 -83.68095771 217.51493963 -82.1171875 210.4453125 C-81.92924118 209.65530853 -81.74129486 208.86530457 -81.5476532 208.05136108 C-80.95573523 205.54786149 -80.38579777 203.03995759 -79.81640625 200.53125 C-79.42396234 198.85643363 -79.03009359 197.18195046 -78.63476562 195.5078125 C-77.73869312 191.69511505 -76.85234037 187.88056394 -75.99382019 184.05921936 C-75.66401607 182.60986652 -75.32272528 181.16308503 -74.97065735 179.71897888 C-73.84524324 174.98832944 -73.20697774 170.37431604 -72.77488708 165.53434753 C-71.06337149 147.6160905 -65.96440536 130.52613448 -61.17401505 113.24435043 C-59.93282836 108.75370006 -58.70959922 104.25816521 -57.48510742 99.76293945 C-55.98184685 94.24819083 -54.47698167 88.73390594 -52.96388245 83.22184753 C-49.8572883 71.90177466 -46.79768317 60.57039931 -43.79117393 49.22333336 C-43.16054907 46.84346542 -42.52880506 44.46389747 -41.89668274 42.08442688 C-39.52618064 33.16192386 -39.52618064 33.16192386 -37.16793823 24.23617554 C-36.1073832 20.21116327 -35.03461455 16.18950027 -33.9609375 12.16796875 C-33.49831009 10.39885132 -33.49831009 10.39885132 -33.02633667 8.59399414 C-32.73638824 7.51456543 -32.44643982 6.43513672 -32.14770508 5.32299805 C-31.77758049 3.92527412 -31.77758049 3.92527412 -31.39997864 2.49931335 C-26.40459921 -11.95636626 -11.38317091 -3.08296501 0 0 Z " fill="#040404" transform="translate(299.50390625,111.09375)"/>
<path d="M0 0 C3.30281742 0.76610974 5.91472987 1.89375557 8.90234375 3.51953125 C9.86390381 4.04087646 10.82546387 4.56222168 11.81616211 5.09936523 C13.36122437 5.94736694 13.36122437 5.94736694 14.9375 6.8125 C16.0107251 7.39781494 17.0839502 7.98312988 18.18969727 8.58618164 C25.84151197 12.7752384 33.43517464 17.05952825 40.99633789 21.40966797 C47.76182362 25.30196525 54.56102205 29.13078209 61.375 32.9375 C69.42847774 37.4377007 77.47204181 41.95442305 85.5 46.5 C93.48774107 51.02207659 101.48878029 55.5196512 109.5 60 C118.4593421 65.01059503 127.40281974 70.04829051 136.3359375 75.10546875 C143.37946347 79.09036769 150.43690717 83.04989994 157.5 87 C166.4593421 92.01059503 175.40281974 97.04829051 184.3359375 102.10546875 C191.37946347 106.09036769 198.43690717 110.04989994 205.5 114 C214.44847286 119.00451631 223.38216681 124.0342403 232.30297852 129.08789062 C237.43161783 131.99094417 242.56802726 134.87927745 247.71484375 137.75 C248.83632813 138.37583984 249.9578125 139.00167969 251.11328125 139.64648438 C253.26723646 140.84748525 255.42212695 142.04681086 257.578125 143.24414062 C263.15347117 146.35332778 268.62014054 149.56304569 274 153 C272.40596353 163.92745504 269.31582299 174.51537859 266.453125 185.16015625 C265.88759569 187.27583484 265.32244993 189.39161599 264.75765991 191.50749207 C263.24122751 197.18406988 261.71939136 202.85918572 260.19641876 208.53401184 C258.61155527 214.44278319 257.03140231 220.35281409 255.45068359 226.26269531 C252.88047632 235.86942339 250.30714545 245.47530966 247.73144531 255.08056641 C244.82227444 265.92942881 241.91810282 276.77961886 239.0168457 287.63059998 C236.78644662 295.97244878 234.55329257 304.31355961 232.31980896 312.65458298 C231.63218141 315.22317426 230.94501061 317.79188736 230.25793457 320.36062622 C225.64213896 337.61360149 221.00508798 354.85475124 216 372 C206.96806545 370.5726947 198.21050873 368.30160391 189.3984375 365.90625 C187.84128066 365.48662388 186.28401088 365.06741664 184.72663879 364.64859009 C181.37137106 363.74536656 178.01686354 362.83939088 174.66293335 361.93121338 C169.29247569 360.4770294 163.92043586 359.02875458 158.5480957 357.58154297 C152.80853175 356.03518308 147.06905321 354.48851162 141.33009338 352.93991089 C126.56441127 348.95608639 111.79321983 344.99308413 97.01953125 341.0390625 C94.8402081 340.45567507 92.66088681 339.87228071 90.48156738 339.28887939 C81.97775492 337.01256415 73.47385633 334.73657133 64.96966553 332.46166992 C59.97426157 331.12529257 54.97916541 329.78776982 49.98425865 328.44953537 C48.16748347 327.96298979 46.35060775 327.4768194 44.53360939 326.99110794 C28.66467744 322.74888406 12.8306069 318.38262905 -3 314 C-3.13234662 260.78835707 -2.85298764 207.59357809 -2.16577756 154.3863734 C-2.04951586 145.36212528 -1.940589 136.33779213 -1.83159184 127.31345391 C-1.31774951 84.87401628 -0.71413067 42.43654836 0 0 Z " fill="#A53AFD" transform="translate(505,510)"/>
<path d="M0 0 C0.16604736 0.64960693 0.33209473 1.29921387 0.50317383 1.96850586 C1.26961522 4.95903627 2.04102548 7.94826422 2.8125 10.9375 C3.07353516 11.95908203 3.33457031 12.98066406 3.60351562 14.03320312 C4.99621081 19.41485243 6.52622163 24.68536635 8.33227539 29.94165039 C9.37745171 33.16354493 10.08553142 36.44378673 10.8125 39.75 C12.30356056 46.3403842 14.04505085 52.82650068 15.9375 59.3125 C17.93921317 66.17730551 19.80586991 73.05283304 21.5 80 C23.15966569 86.7994262 24.97740117 93.53110453 26.9375 100.25 C29.42958115 108.79975532 31.6269616 117.40022747 33.74755859 126.04882812 C35.59564299 133.52796418 37.65345015 140.92708385 39.8137207 148.32128906 C41.81722098 155.22626859 43.5960942 162.17358431 45.26391602 169.16699219 C46.19612355 173.02255382 47.2276314 176.78204891 48.515625 180.53515625 C49.99960446 184.86496224 51.0750702 189.22171665 52.0625 193.6875 C52.9391793 197.62023406 53.81270294 201.45377129 55.12109375 205.26953125 C56 208 56 208 56 212 C53.515625 213.88671875 53.515625 213.88671875 50.25 215.6875 C49.18265625 216.28949219 48.1153125 216.89148438 47.015625 217.51171875 C44.59866405 218.70454533 42.6271391 219.52175866 40 220 C40 220.66 40 221.32 40 222 C38.82244141 222.56267578 38.82244141 222.56267578 37.62109375 223.13671875 C31.66337638 226.03882156 26.28318553 229.01065582 21 233 C16.44827586 236 16.44827586 236 13 236 C13 236.66 13 237.32 13 238 C11.82244141 238.56267578 11.82244141 238.56267578 10.62109375 239.13671875 C4.66337638 242.03882156 -0.71681447 245.01065582 -6 249 C-10.55172414 252 -10.55172414 252 -14 252 C-14 252.66 -14 253.32 -14 254 C-15.17755859 254.56267578 -15.17755859 254.56267578 -16.37890625 255.13671875 C-22.33631829 258.03867284 -27.70515265 261.02886449 -33 265 C-36.28234704 267.06318957 -36.28234704 267.06318957 -38.86328125 266.8359375 C-41.88509809 265.65372762 -43.03925651 263.8197623 -45 261.25 C-48.49759034 256.80898069 -52.12688151 252.61614732 -56 248.5 C-60.45992086 243.74027608 -64.63806889 238.83520893 -68.72265625 233.74609375 C-71.21826469 230.73680948 -73.83765143 227.86061346 -76.5 225 C-80.76920779 220.41242561 -84.75758739 215.66556996 -88.6875 210.78125 C-91.19971626 207.75980072 -93.82408984 204.87566706 -96.5 202 C-100.85867325 197.31368679 -104.96709325 192.47766306 -108.984375 187.4921875 C-111.59099903 184.26926864 -114.28543427 181.13219123 -117 178 C-117.92039062 178.46019531 -117.92039062 178.46019531 -118.859375 178.9296875 C-120.90625 179.953125 -122.953125 180.9765625 -125 182 C-122.60338802 186.33827389 -119.67603479 189.91010441 -116.4375 193.625 C-115.90664795 194.23964111 -115.3757959 194.85428223 -114.82885742 195.48754883 C-110.75272995 200.18749256 -106.56675988 204.7768093 -102.359375 209.359375 C-100.00778406 211.99128804 -97.77668738 214.68939509 -95.5625 217.4375 C-91.90428985 221.97316443 -88.05257035 226.2570117 -84.08618164 230.51928711 C-80.30509442 234.60661006 -76.80310034 238.88043244 -73.3125 243.21875 C-70.80028005 246.24020373 -68.17586114 249.12428201 -65.5 252 C-59.28117565 258.6884978 -53.43916663 265.65712505 -48 273 C-59.02702703 281 -59.02702703 281 -63 281 C-63 281.66 -63 282.32 -63 283 C-64.3125 283.72916667 -65.625 284.45833333 -66.9375 285.1875 C-67.75734375 285.64382813 -68.5771875 286.10015625 -69.421875 286.5703125 C-71.07516163 287.48713509 -72.73118694 288.39904647 -74.390625 289.3046875 C-77.82368968 291.18469911 -81.16841183 293.06392953 -84.375 295.3125 C-87 297 -87 297 -90 297 C-90 297.66 -90 298.32 -90 299 C-90.78503906 299.37511719 -91.57007813 299.75023437 -92.37890625 300.13671875 C-98.33662362 303.03882156 -103.71681447 306.01065582 -109 310 C-113.55172414 313 -113.55172414 313 -117 313 C-117 313.66 -117 314.32 -117 315 C-117.78503906 315.37511719 -118.57007813 315.75023437 -119.37890625 316.13671875 C-125.33662362 319.03882156 -130.71681447 322.01065582 -136 326 C-140.55172414 329 -140.55172414 329 -144 329 C-144 329.66 -144 330.32 -144 331 C-144.78503906 331.37511719 -145.57007813 331.75023437 -146.37890625 332.13671875 C-153.47970918 335.56839662 -153.47970918 335.56839662 -160.0625 339.875 C-163 342 -163 342 -166 342 C-166 342.66 -166 343.32 -166 344 C-167.3125 344.72916667 -168.625 345.45833333 -169.9375 346.1875 C-170.75734375 346.64382813 -171.5771875 347.10015625 -172.421875 347.5703125 C-174.07516163 348.48713509 -175.73118694 349.39904647 -177.390625 350.3046875 C-180.82368968 352.18469911 -184.16841183 354.06392953 -187.375 356.3125 C-190 358 -190 358 -193 358 C-193 358.66 -193 359.32 -193 360 C-194.01707031 360.54527344 -194.01707031 360.54527344 -195.0546875 361.1015625 C-200.81118981 364.21103051 -206.45281586 367.4345571 -212.00390625 370.8984375 C-214 372 -214 372 -216 372 C-218.83153897 180.52965028 -218.83153897 180.52965028 -219 58 C-215.53962465 57.04872416 -212.07847235 56.10030449 -208.6171875 55.15234375 C-207.65063232 54.88659546 -206.68407715 54.62084717 -205.68823242 54.3470459 C-199.52124555 52.65985138 -193.33877866 51.06759234 -187.125 49.5625 C-178.577206 47.46487657 -170.15405037 45.02458313 -161.71801758 42.51806641 C-155.28064329 40.62102982 -148.84093855 38.95051225 -142.29345703 37.48583984 C-135.78836207 36.00818934 -129.40952712 34.1476816 -123.00708008 32.28100586 C-117.03418251 30.55093643 -111.04105123 28.97328165 -105 27.5 C-96.22887433 25.35752765 -87.56349144 22.91347182 -78.890625 20.40625 C-69.94520351 17.82278464 -60.94417101 15.47337696 -51.90332031 13.24804688 C-42.18748126 10.85379994 -32.56946585 8.20431895 -22.95703125 5.42578125 C-18.43962537 4.12121953 -13.91415686 2.85172328 -9.375 1.625 C-8.20710937 1.30789062 -7.03921875 0.99078125 -5.8359375 0.6640625 C-3 0 -3 0 0 0 Z " fill="#15FD00" transform="translate(721,118)"/>
<path d="M0 0 C3.30037971 2.12958417 5.93748217 4.87345292 8.68741989 7.6501255 C9.33195531 8.29295207 9.97649073 8.93577864 10.64055753 9.59808481 C12.80258375 11.75681251 14.95737657 13.92261887 17.11228561 16.08844948 C18.65922444 17.63595234 20.20660359 19.18301516 21.75439072 20.72966957 C25.95892353 24.93362757 30.1572529 29.14373217 34.35451794 33.35494471 C38.74052115 37.75343378 43.13217275 42.14627569 47.52323532 46.53971291 C54.89387097 53.91586241 62.2610037 61.29549533 69.62546921 68.67780495 C77.21068979 76.28138538 84.79800947 83.88286106 92.38816452 91.48151588 C92.85607193 91.94994874 93.32397934 92.4183816 93.80606577 92.9010094 C96.15344799 95.25100171 98.50087383 97.60095044 100.84831572 99.95088315 C120.32055907 119.44404272 139.7856548 138.94432663 159.24607468 158.44928932 C157.59484564 162.67764367 154.46272339 165.52598304 151.31339645 168.66958046 C150.39225866 169.60068997 150.39225866 169.60068997 149.45251203 170.55060977 C147.39075735 172.63207047 145.32188729 174.70630778 143.25291061 176.78058815 C141.774304 178.27008847 140.2960877 179.75997632 138.81823349 181.25022316 C134.80057542 185.29839817 130.77617702 189.33980432 126.74958324 193.37908959 C124.23574702 195.9010062 121.7229648 198.42396858 119.21046829 200.94721985 C111.35367951 208.83672356 103.49249606 216.72181264 95.62543178 224.60107023 C86.53459087 233.70618423 77.4587746 242.82593622 68.39550757 251.95849591 C61.39370583 259.01198419 54.37860478 266.05206284 47.35324121 273.08208293 C43.15487128 277.28385885 38.96248545 281.49122772 34.78390884 285.71269608 C30.8560456 289.68016965 26.91201377 293.63080797 22.95475197 297.56895256 C21.50304582 299.01938759 20.05734528 300.47586143 18.61807823 301.93864059 C16.65666663 303.93025934 14.67504461 305.89925326 12.68668747 307.8639164 C11.83364961 308.74549273 11.83364961 308.74549273 10.96337867 309.64487869 C9.33699799 311.22528744 9.33699799 311.22528744 6.24607468 313.44928932 C1.8593108 313.34456162 -1.16154471 311.94584345 -4.92970657 309.78132057 C-5.90955521 309.22500954 -6.88940384 308.6686985 -7.89894485 308.09552956 C-8.94421341 307.49039528 -9.98948196 306.885261 -11.06642532 306.26178932 C-13.32018511 304.97767806 -15.57409558 303.69383124 -17.82814407 302.41022682 C-18.99017884 301.7446906 -20.1521254 301.07900036 -21.31398392 300.41315651 C-26.6485016 297.36767317 -32.01463731 294.37940862 -37.37892532 291.38678932 C-46.29678732 286.39709106 -55.19757417 281.37781588 -64.0903511 276.34357643 C-71.13368496 272.35870686 -78.19099116 268.39930065 -85.25392532 264.44928932 C-94.21326742 259.4386943 -103.15674506 254.40099881 -112.08986282 249.34382057 C-119.1333888 245.35892163 -126.19083249 241.39938939 -133.25392532 237.44928932 C-142.21326742 232.4386943 -151.15674506 227.40099881 -160.08986282 222.34382057 C-167.1333888 218.35892163 -174.19083249 214.39938939 -181.25392532 210.44928932 C-190.21413437 205.43820945 -199.15935949 200.40156597 -208.09206009 195.34162331 C-213.02186036 192.5512897 -217.95809084 189.77332674 -222.90626907 187.01569557 C-238.98693327 178.05321521 -254.97714328 168.93885887 -270.75392532 159.44928932 C-267.07232778 156.32823577 -263.23180903 153.92360343 -259.00392532 151.63678932 C-251.92740273 147.73135389 -244.98553962 143.62654951 -238.06642532 139.44928932 C-228.83466094 133.88017313 -219.5635373 128.38683011 -210.25392532 122.94928932 C-201.2199303 117.67127471 -192.21576844 112.34937428 -183.25392532 106.94928932 C-173.68409484 101.18285301 -164.06266064 95.51092018 -154.4155159 89.87534523 C-145.67985155 84.77086935 -136.98363243 79.60697621 -128.31642532 74.38678932 C-114.13759015 65.8619341 -114.13759015 65.8619341 -108.37892532 62.51178932 C-107.33994095 61.90464088 -106.30095657 61.29749245 -105.23048782 60.67194557 C-102.75392532 59.44928932 -102.75392532 59.44928932 -99.75392532 59.44928932 C-97.87892532 61.43366432 -97.87892532 61.43366432 -95.75392532 64.19928932 C-92.3987774 68.44769091 -88.95087449 72.49639752 -85.25392532 76.44928932 C-80.98352111 81.03569163 -76.99625084 85.78382761 -73.06642532 90.66803932 C-70.11216169 94.22114018 -66.98479109 97.58952612 -63.83766556 100.97101784 C-60.86676904 104.18227983 -58.05431456 107.47556747 -55.31642532 110.88678932 C-51.95046267 115.07166239 -48.42216515 119.0324333 -44.75392532 122.94928932 C-40.29520337 127.71020266 -36.11594909 132.61396496 -32.03126907 137.70319557 C-29.53565592 140.71248553 -26.91617409 143.58857784 -24.25392532 146.44928932 C-19.16736206 151.91874077 -14.43281861 157.62645819 -9.75392532 163.44928932 C-8.09592053 165.45675648 -6.42603484 167.45354571 -4.75392532 169.44928932 C-1.51422269 169.10217833 -0.77394048 168.4731395 1.38669968 165.89850807 C2.00029343 165.09026588 2.61388718 164.2820237 3.24607468 163.44928932 C2.62861374 162.78284401 2.0111528 162.1163987 1.37498093 161.42975807 C-2.93208048 156.74246902 -7.14230411 152.04110731 -11.12892532 147.07428932 C-14.99546717 142.27868442 -19.10244516 137.78050265 -23.30983353 133.28791237 C-27.23285257 129.07517809 -30.87296252 124.68524479 -34.47658157 120.19538307 C-36.97219001 117.1860988 -39.59157675 114.30990278 -42.25392532 111.44928932 C-46.52313311 106.86171493 -50.51151271 102.11485928 -54.44142532 97.23053932 C-57.39568896 93.67743846 -60.52305956 90.30905252 -63.67018509 86.92756081 C-66.64108161 83.71629882 -69.45353609 80.42301117 -72.19142532 77.01178932 C-76.14781178 72.08955807 -80.35393802 67.45784048 -84.68141556 62.86359596 C-91.75392532 55.33093286 -91.75392532 55.33093286 -91.75392532 52.44928932 C-91.19632523 52.13290504 -90.63872513 51.81652077 -90.06422806 51.49054909 C-75.90492067 43.44898244 -75.90492067 43.44898244 -61.89528275 35.15094948 C-54.47384911 30.66502689 -47.01168878 26.24741726 -39.54030228 21.84528542 C-34.01765887 18.58825688 -28.50937158 15.31314094 -23.04722977 11.95534706 C-20.57186659 10.4349953 -18.08952556 8.9262528 -15.60658646 7.41831398 C-14.41821725 6.69206359 -13.23334389 5.9600601 -12.0521431 5.22220802 C-10.41084848 4.19758024 -8.75647864 3.19398658 -7.10158157 2.19147682 C-5.69404617 1.32305153 -5.69404617 1.32305153 -4.25807571 0.43708229 C-1.75392532 -0.55071068 -1.75392532 -0.55071068 0 0 Z " fill="#56E0FD" transform="translate(781.7539253234863,340.5507106781006)"/>
<path d="M0 0 C15.58669084 3.39956631 31.03080468 7.35253524 46.34472656 11.81933594 C52.19985185 13.51663448 58.07802201 15.05434067 64 16.5 C70.79938 18.15984865 77.53112621 19.97730205 84.25 21.9375 C92.89499513 24.45855173 101.59373137 26.67525675 110.33886719 28.82006836 C116.78224631 30.41216422 123.14113815 32.17276188 129.48925781 34.10571289 C135.60978802 35.94318914 141.79454722 37.47761619 148 39 C154.88301648 40.68861052 161.71977481 42.43543893 168.5 44.5 C176.3862421 46.89999111 184.35964267 48.89654866 192.36523438 50.85742188 C193.32494141 51.09267578 194.28464844 51.32792969 195.2734375 51.5703125 C196.11310059 51.77414551 196.95276367 51.97797852 197.81787109 52.18798828 C200.78737795 52.94574337 203.7427593 53.74258894 206.69888306 54.55075073 C207.69110682 54.8218611 208.68333057 55.09297146 209.70562172 55.37229729 C210.46276655 55.57943918 211.21991138 55.78658108 212 56 C212.71669602 81.37045319 213.22195341 106.73588971 213.50522685 132.11476946 C213.54641295 135.77338479 213.58943792 139.43197782 213.63235503 143.09057319 C213.7582945 153.84186137 213.87829204 164.59321025 213.99619293 175.34458923 C214.05152409 180.38881181 214.10780194 185.43302332 214.16434312 190.47723246 C214.84196894 250.98642057 215.32955191 311.4864979 215 372 C212.46158121 370.73779981 209.92394277 369.47407051 207.38671875 368.20947266 C206.67543823 367.85599258 205.96415771 367.50251251 205.23132324 367.13832092 C199.05432639 364.05713386 193.00724202 360.7754108 187 357.375 C185.94240479 356.78017822 184.88480957 356.18535645 183.79516602 355.57250977 C175.46724403 350.87203069 167.21681193 346.04425737 158.9753418 341.19433594 C150.90580743 336.47012314 142.71971626 331.98590477 134.45483398 327.61303711 C132.60165623 326.62596721 130.7605625 325.61586906 128.93237305 324.58325195 C125.94159467 322.91212985 125.94159467 322.91212985 122.43676758 321.46948242 C118.6399022 319.63607606 115.92893799 318.04361776 113 315 C111.254768 308.98627997 111.69204721 303.25835699 112.0625 297.0625 C112.12310184 295.24465123 112.17771014 293.42659432 112.22680664 291.60839844 C112.34698591 287.613637 112.50913592 283.62333723 112.70019531 279.63134766 C113.03942659 272.43750579 113.25167131 265.2415828 113.4609375 258.04296875 C114.65143661 218.57153567 114.65143661 218.57153567 116 202 C111.38 202 106.76 202 102 202 C102.01740234 203.32249756 102.03480469 204.64499512 102.05273438 206.00756836 C102.22450363 225.96198097 101.40312197 245.86743258 100.60931396 265.80157471 C100.42479343 270.46198019 100.24586884 275.12260061 100.06640625 279.78320312 C99.71626635 288.85568151 99.36015238 297.92791393 99 307 C97.11021804 306.06261421 95.22131127 305.12346392 93.33276367 304.18359375 C92.28078293 303.66079834 91.22880219 303.13800293 90.14494324 302.59936523 C85.4496011 300.21154249 80.88193607 297.61858801 76.3125 295 C74.29846022 293.85366906 72.28412685 292.70785384 70.26953125 291.5625 C69.23908691 290.97597656 68.20864258 290.38945312 67.14697266 289.78515625 C61.94416478 286.83380395 56.72175963 283.91764752 51.5 281 C42.54044368 275.98979008 33.59717822 270.95170833 24.6640625 265.89453125 C17.62053653 261.90963231 10.56309283 257.95010006 3.5 254 C-5.44449317 248.99770938 -14.3826666 243.98459769 -23.28759766 238.91210938 C-27.89431309 236.29340388 -32.51456069 233.70956998 -37.18414307 231.20422363 C-38.94390279 230.25914845 -40.69951653 229.30636655 -42.45507812 228.35351562 C-44.69362888 227.14027481 -46.93953156 225.9404787 -49.19335938 224.75585938 C-50.7025293 223.93311523 -50.7025293 223.93311523 -52.2421875 223.09375 C-53.1379248 222.61615234 -54.03366211 222.13855469 -54.95654297 221.64648438 C-57 220 -57 220 -57.83276367 217.4621582 C-58.0366287 214.46072932 -57.43873921 212.52630763 -56.4375 209.6875 C-54.32641147 203.27415863 -52.66113255 196.80895221 -51.0625 190.25 C-49.35420772 183.28361297 -47.59117456 176.36169296 -45.5 169.5 C-43.43514401 162.71987585 -41.68860529 155.88299519 -40 149 C-38.14508483 141.43910214 -36.16216649 133.95834029 -33.89453125 126.51171875 C-32.05709254 120.39082418 -30.52246517 114.20578441 -29 108 C-27.31138919 101.11698235 -25.56452657 94.28023478 -23.5 87.5 C-21.46176558 80.80142324 -19.73022906 74.04986436 -18.0625 67.25 C-15.97960557 58.75819965 -13.71080365 50.35011667 -11.25683594 41.95874023 C-8.99124787 34.13830437 -7.01243306 26.25531369 -5.09179688 18.34375 C-3.58302142 12.16495529 -1.89120053 6.07288266 0 0 Z " fill="#FDF000" transform="translate(279,118)"/>
<path d="M0 0 C0.15913941 33.06916848 -0.11665538 66.12659574 -0.50509644 99.19296265 C-0.80929496 125.14533427 -1.05823113 151.09758372 -1.23837018 177.05109143 C-1.25390394 179.28482406 -1.26958259 181.51855562 -1.28530693 183.75228691 C-1.37893147 197.0600818 -1.4720363 210.36787926 -1.5541687 223.67575073 C-1.74238029 254.1255855 -1.93508579 284.56546482 -3 315 C-4.06903564 315.26225121 -4.06903564 315.26225121 -5.15966797 315.52980042 C-16.93483806 318.42040458 -28.65517678 321.35543901 -40.24609375 324.921875 C-42.96625894 325.70310871 -45.6154282 326.37614676 -48.375 326.96875 C-53.17604333 328.0037788 -57.85437033 329.35896169 -62.5625 330.75 C-70.41746733 333.03714843 -78.3041923 335.11535094 -86.25 337.0625 C-93.72789338 338.89633193 -101.12446012 340.86319165 -108.48925781 343.10571289 C-115.64015296 345.25252037 -122.88723104 346.99101434 -130.13671875 348.76953125 C-135.97136999 350.21155532 -141.75072469 351.74923836 -147.5 353.5 C-155.29919324 355.87499991 -163.18675437 357.82025695 -171.10375977 359.76074219 C-177.97091752 361.45682429 -184.75450868 363.33666972 -191.52539062 365.38012695 C-196.31795583 366.82110264 -201.0967529 368.01552739 -206 369 C-207.68817053 369.37196978 -209.37567752 369.74696405 -211.0625 370.125 C-212.375 370.41666667 -213.6875 370.70833333 -215 371 C-215.62849414 368.85518747 -216.25260258 366.70908965 -216.875 364.5625 C-217.39707031 362.77005859 -217.39707031 362.77005859 -217.9296875 360.94140625 C-218.70483598 358.18536162 -219.36036266 355.42410776 -219.9609375 352.625 C-221.00274286 347.82565476 -222.35901175 343.14546022 -223.75 338.4375 C-226.03714843 330.58253267 -228.11535094 322.6958077 -230.0625 314.75 C-231.89633193 307.27210662 -233.86319165 299.87553988 -236.10571289 292.51074219 C-238.25252037 285.35984704 -239.99101434 278.11276896 -241.76953125 270.86328125 C-243.21155532 265.02863001 -244.74923836 259.24927531 -246.5 253.5 C-248.87588033 245.69791557 -250.82163232 237.80736306 -252.76293945 229.88745117 C-254.43685304 223.11023473 -256.2911616 216.41781485 -258.31640625 209.73828125 C-259.8436573 204.66066737 -261.04613611 199.55786015 -262.1875 194.3828125 C-263.15931177 190.33671156 -264.31194745 186.36202382 -265.5 182.375 C-265.71479004 181.65151367 -265.92958008 180.92802734 -266.15087891 180.18261719 C-267.09803628 177.00126994 -268.05402082 173.82309212 -269.0234375 170.6484375 C-269.30445313 169.69195313 -269.58546875 168.73546875 -269.875 167.75 C-270.11992187 166.94046875 -270.36484375 166.1309375 -270.6171875 165.296875 C-271.08757329 162.47456028 -270.96255802 160.70222711 -270 158 C-268.03125 156.375 -268.03125 156.375 -265.5 155 C-264.60152344 154.50242187 -263.70304688 154.00484375 -262.77734375 153.4921875 C-261.86082031 152.99976563 -260.94429687 152.50734375 -260 152 C-259.15566406 151.50757813 -258.31132812 151.01515625 -257.44140625 150.5078125 C-251.40677966 147 -251.40677966 147 -248 147 C-248 146.34 -248 145.68 -248 145 C-245.7140617 143.4670058 -243.44192427 142.06139469 -241.0625 140.6875 C-240.37897461 140.28668213 -239.69544922 139.88586426 -238.99121094 139.47290039 C-236.9982661 138.30799351 -234.99940865 137.15376391 -233 136 C-232.04480469 135.43796875 -231.08960938 134.8759375 -230.10546875 134.296875 C-224.39278017 131 -224.39278017 131 -221 131 C-221 130.34 -221 129.68 -221 129 C-219.12890625 127.66796875 -219.12890625 127.66796875 -216.5625 126.1875 C-215.19738281 125.39472656 -215.19738281 125.39472656 -213.8046875 124.5859375 C-210.53767098 122.73857161 -207.26577433 120.9020327 -203.97265625 119.1015625 C-202.32655036 118.18235089 -200.71988153 117.19296879 -199.125 116.1875 C-197 115 -197 115 -194 115 C-194 114.34 -194 113.68 -194 113 C-192.12890625 111.66796875 -192.12890625 111.66796875 -189.5625 110.1875 C-188.19738281 109.39472656 -188.19738281 109.39472656 -186.8046875 108.5859375 C-183.53767098 106.73857161 -180.26577433 104.9020327 -176.97265625 103.1015625 C-175.32655036 102.18235089 -173.71988153 101.19296879 -172.125 100.1875 C-170 99 -170 99 -167 99 C-167 98.34 -167 97.68 -167 97 C-165.12890625 95.66796875 -165.12890625 95.66796875 -162.5625 94.1875 C-161.655 93.66285156 -160.7475 93.13820313 -159.8125 92.59765625 C-158.884375 92.07042969 -157.95625 91.54320312 -157 91 C-155.7315625 90.25556641 -155.7315625 90.25556641 -154.4375 89.49609375 C-148.38158832 86 -148.38158832 86 -145 86 C-145 85.34 -145 84.68 -145 84 C-142.63041318 82.42921729 -140.27216528 80.97880959 -137.8125 79.5625 C-137.13896484 79.16740234 -136.46542969 78.77230469 -135.77148438 78.36523438 C-134.45171731 77.59140022 -133.1290109 76.82255433 -131.80322266 76.05908203 C-130.26301547 75.15447619 -128.75803789 74.19033283 -127.26171875 73.21484375 C-125 72 -125 72 -121 72 C-120.83808792 94.64916483 -121.27298072 117.25689666 -121.92712402 139.89575195 C-122.05096141 144.21491783 -122.16975746 148.53422261 -122.2890625 152.85351562 C-122.52129472 161.23581662 -122.75927782 169.61793853 -123 178 C-118.71 178 -114.42 178 -110 178 C-109.94465088 175.94273682 -109.88930176 173.88547363 -109.83227539 171.76586914 C-109.81289351 171.04643505 -109.79351162 170.32700096 -109.7735424 169.58576584 C-109.67246173 165.83090203 -109.57214955 162.07601946 -109.47293091 158.32110596 C-109.26942571 150.64058259 -109.061766 142.96027893 -108.83383274 135.28043652 C-108.70652104 130.98391782 -108.58272686 126.68730358 -108.4609375 122.390625 C-108.43684248 121.54200205 -108.41274746 120.6933791 -108.38792229 119.8190403 C-108.10361997 109.5966061 -107.95682079 99.39892242 -108.1015625 89.171875 C-108.11426928 87.26555045 -108.12596627 85.3592188 -108.13647461 83.45288086 C-108.15502092 80.12178614 -108.25235857 76.80647195 -108.39672852 73.47875977 C-108.47296425 69.41702004 -108.32579131 65.89202504 -107 62 C-102.5932658 57.74778278 -97.33416856 54 -91 54 C-91 53.34 -91 52.68 -91 52 C-89.12890625 50.66796875 -89.12890625 50.66796875 -86.5625 49.1875 C-85.65242187 48.65898438 -84.74234375 48.13046875 -83.8046875 47.5859375 C-80.53767098 45.73857161 -77.26577433 43.9020327 -73.97265625 42.1015625 C-72.32655036 41.18235089 -70.71988153 40.19296879 -69.125 39.1875 C-67 38 -67 38 -64 38 C-64 37.34 -64 36.68 -64 36 C-62.12890625 34.66796875 -62.12890625 34.66796875 -59.5625 33.1875 C-58.65242187 32.65898438 -57.74234375 32.13046875 -56.8046875 31.5859375 C-53.53767098 29.73857161 -50.26577433 27.9020327 -46.97265625 26.1015625 C-45.32655036 25.18235089 -43.71988153 24.19296879 -42.125 23.1875 C-40 22 -40 22 -37 22 C-37 21.34 -37 20.68 -37 20 C-35.12890625 18.66796875 -35.12890625 18.66796875 -32.5625 17.1875 C-31.655 16.66285156 -30.7475 16.13820313 -29.8125 15.59765625 C-28.4203125 14.80681641 -28.4203125 14.80681641 -27 14 C-26.154375 13.50371094 -25.30875 13.00742187 -24.4375 12.49609375 C-18.38158832 9 -18.38158832 9 -15 9 C-15 8.34 -15 7.68 -15 7 C-12.87767021 5.82823482 -10.75242209 4.66245215 -8.625 3.5 C-7.72007812 2.99919922 -7.72007812 2.99919922 -6.796875 2.48828125 C-2.2265625 0 -2.2265625 0 0 0 Z " fill="#FE0000" transform="translate(494,511)"/>
<path d="M0 0 C3.54823215 1.39025746 6.82695785 2.92774571 10.1484375 4.80078125 C11.14166016 5.35894531 12.13488281 5.91710937 13.15820312 6.4921875 C14.21974609 7.09289062 15.28128906 7.69359375 16.375 8.3125 C17.48552734 8.93769531 18.59605469 9.56289063 19.74023438 10.20703125 C23.16208957 12.13461805 26.58140134 14.06664454 30 16 C31.49321777 16.84377197 31.49321777 16.84377197 33.01660156 17.70458984 C36.78887582 19.83621398 40.56083496 21.96838951 44.33154297 24.1027832 C51.37635198 28.08889971 58.43540991 32.04906258 65.5 36 C74.4593421 41.01059503 83.40281974 46.04829051 92.3359375 51.10546875 C99.37946481 55.09036845 106.43704414 59.04965334 113.5 63 C136.20238784 75.70592849 136.20238784 75.70592849 146.43945312 81.54980469 C148.86035847 82.92091241 151.29497486 84.26372665 153.734375 85.6015625 C155.11507916 86.37932878 156.49532434 87.15791071 157.875 87.9375 C158.49391113 88.26661377 159.11282227 88.59572754 159.75048828 88.93481445 C161.4296875 89.90234375 161.4296875 89.90234375 164 92 C165.49312778 97.56448254 165.14780677 103.43649527 165.12109375 109.15625 C165.11822861 110.253927 165.11536346 111.351604 165.1124115 112.48254395 C165.04203874 125.16466844 164.55637307 137.82870187 164.0625 150.5 C163.87428853 155.49206761 163.69011385 160.48427578 163.5078125 165.4765625 C163.4627507 166.7063382 163.4176889 167.93611389 163.3712616 169.20315552 C162.89447491 182.48318867 162.58571481 195.76653621 162.34204102 209.05273438 C162.32573639 209.84958649 162.30943176 210.6464386 162.29263306 211.46743774 C162.26264902 212.93299852 162.23637989 214.39864236 162.21469116 215.86434937 C162.15145364 218.84252192 161.95006542 221.14980375 161 224 C158.73779297 225.57470703 158.73779297 225.57470703 155.7421875 227.2578125 C154.6497876 227.87841553 153.5573877 228.49901855 152.43188477 229.13842773 C151.85157501 229.46253632 151.27126526 229.7866449 150.67337036 230.12057495 C148.85953817 231.13363573 147.05194934 232.15706241 145.24584961 233.18383789 C143.4501585 234.20466571 141.65421493 235.22499076 139.85636902 236.24201965 C135.15539769 238.90174208 130.5187806 241.6482065 125.89819336 244.44482422 C119.60030966 248.25090246 113.26922456 252.00056085 106.9375 255.75 C106.0583342 256.27072586 106.0583342 256.27072586 105.16140747 256.80197144 C96.55723283 261.89791431 87.94873247 266.98652647 79.33837891 272.07202148 C69.30870723 277.99683295 59.28833273 283.93732034 49.26786804 289.87768555 C45.05681721 292.3739558 40.8449457 294.86883788 36.6328125 297.36328125 C34.81829601 298.4379977 33.00379505 299.51274034 31.18930054 300.5874939 C29.49520688 301.59082303 27.80095102 302.59387826 26.10668945 303.59692383 C25.05956787 304.21720459 24.01244629 304.83748535 22.93359375 305.4765625 C21.93440918 306.0634082 20.93522461 306.65025391 19.90576172 307.25488281 C17.9634492 308.42138003 16.04266509 309.62446987 14.14501953 310.86230469 C12.82219971 311.71550293 12.82219971 311.71550293 11.47265625 312.5859375 C10.7031665 313.09946777 9.93367676 313.61299805 9.14086914 314.14208984 C7 315 7 315 5.26877975 314.44117165 C1.9461111 312.33054991 -0.68629137 309.58100226 -3.44134521 306.79916382 C-4.08588063 306.15633725 -4.73041605 305.51351068 -5.39448285 304.85120451 C-7.55650907 302.69247682 -9.71130189 300.52667045 -11.86621094 298.36083984 C-13.41314977 296.81333698 -14.96052891 295.26627416 -16.50831604 293.71961975 C-20.71284885 289.51566176 -24.91117822 285.30555716 -29.10844326 281.09434462 C-33.49444647 276.69585554 -37.88609808 272.30301363 -42.27716064 267.90957642 C-49.64779629 260.53342691 -57.01492902 253.15379399 -64.37939453 245.77148438 C-71.96461512 238.16790394 -79.55193479 230.56642827 -87.14208984 222.96777344 C-87.60999726 222.49934058 -88.07790467 222.03090772 -88.55999109 221.54827993 C-90.90737331 219.19828762 -93.25479915 216.84833888 -95.60224104 214.49840617 C-115.0744844 195.0052466 -134.53958012 175.50496269 -154 156 C-152.34828196 151.74238754 -149.16802712 148.89589215 -145.98898315 145.74847412 C-145.36657435 145.12435646 -144.74416554 144.5002388 -144.10289586 143.85720849 C-142.01326453 141.76427936 -139.91655845 139.67858492 -137.81982422 137.59277344 C-136.3215818 136.09509507 -134.82377946 134.59697636 -133.3263855 133.09844971 C-129.25672032 129.02820978 -125.18091 124.96417371 -121.10399008 120.9012022 C-116.84563664 116.65533563 -112.5929313 112.40381967 -108.33963013 108.15289307 C-100.28302218 100.10250589 -92.2213287 92.05723134 -84.15780747 84.01376939 C-74.97866661 74.85696891 -65.80519162 65.69450129 -56.63219428 56.53154707 C-37.76110544 37.68137377 -18.88289259 18.83834853 0 0 Z " fill="#FE8D00" transform="translate(213,345)"/>
<path d="M0 0 C3.29548379 1.26562529 6.39549831 2.67039341 9.4921875 4.36328125 C10.77863159 5.06493408 10.77863159 5.06493408 12.09106445 5.78076172 C13.00976318 6.28623535 13.92846191 6.79170898 14.875 7.3125 C15.8446167 7.84375488 16.8142334 8.37500977 17.81323242 8.92236328 C26.61047007 13.75663258 35.34917077 18.69226026 44.078125 23.6484375 C48.12074325 25.94176824 52.17318715 28.21628051 56.234375 30.4765625 C69.94991415 38.11088296 83.53057411 45.93901366 97 54 C94.33865944 56.05511094 91.6464314 57.87479464 88.74609375 59.57421875 C87.905625 60.06857422 87.06515625 60.56292969 86.19921875 61.07226562 C85.28785156 61.60529297 84.37648438 62.13832031 83.4375 62.6875 C81.4464716 63.8578297 79.45559293 65.02841416 77.46484375 66.19921875 C76.41280762 66.81716309 75.36077148 67.43510742 74.27685547 68.07177734 C68.6763556 71.36731809 63.0887381 74.68456577 57.5 78 C51.07227859 81.81246262 44.64400985 85.62386661 38.203125 89.4140625 C36.38536568 90.48428841 34.56765613 91.55459884 32.75 92.625 C31.87891602 93.13764404 31.00783203 93.65028809 30.11035156 94.1784668 C25.2458516 97.05085961 20.40915099 99.96391656 15.59375 102.91796875 C14.53446289 103.56749512 13.47517578 104.21702148 12.38378906 104.88623047 C10.33107524 106.14798741 8.28084252 107.41379178 6.23339844 108.68408203 C5.3159082 109.24853027 4.39841797 109.81297852 3.453125 110.39453125 C2.23351074 111.15020386 2.23351074 111.15020386 0.98925781 111.92114258 C-1 113 -1 113 -3 113 C-3.23915054 88.33070229 -3.00684697 63.71686782 -2.0625 39.0625 C-2.01893372 37.91046082 -1.97536743 36.75842163 -1.93048096 35.57147217 C-1.47485865 23.69963824 -0.98471531 11.84176491 0 0 Z " fill="#FC8D01" transform="translate(392,446)"/>
<path d="M0 0 C4.95 0 9.9 0 15 0 C15.35827881 1.11560303 15.71655762 2.23120605 16.08569336 3.38061523 C17.41139191 7.50579618 18.74108961 11.62967866 20.07202148 15.75317383 C20.64831579 17.54058028 21.22351396 19.32834053 21.79760742 21.11645508 C22.62132834 23.68143246 23.4489382 26.24512612 24.27734375 28.80859375 C24.53466782 29.6127623 24.79199188 30.41693085 25.05711365 31.24546814 C26.0092416 34.90891406 26.0092416 34.90891406 28 38 C28.41886475 36.91468994 28.83772949 35.82937988 29.26928711 34.71118164 C30.81902333 30.6977752 32.37223265 26.68572058 33.92651367 22.67407227 C34.59966857 20.93518361 35.27187167 19.19592619 35.94311523 17.45629883 C36.90620961 14.9607827 37.87268109 12.46659801 38.83984375 9.97265625 C39.14091537 9.19036148 39.441987 8.40806671 39.75218201 7.60206604 C41.88612829 2.11387171 41.88612829 2.11387171 43 1 C45.35313555 0.92728259 47.70833668 0.91629132 50.0625 0.9375 C51.35285156 0.94652344 52.64320313 0.95554687 53.97265625 0.96484375 C54.97167969 0.97644531 55.97070312 0.98804688 57 1 C56.37414922 4.68892492 55.34172818 7.88343763 53.8828125 11.32519531 C53.44565918 12.36266907 53.00850586 13.40014282 52.55810547 14.46905518 C51.84871826 16.13179474 51.84871826 16.13179474 51.125 17.828125 C50.64047363 18.97287292 50.15594727 20.11762085 49.65673828 21.29705811 C48.37172394 24.32961953 47.08236867 27.36028873 45.79125977 30.39025879 C44.73578373 32.87100198 43.68566497 35.35399642 42.63565063 37.83705521 C41.38481121 40.79356297 40.129848 43.74831685 38.875 46.703125 C38.4020752 47.81971497 37.92915039 48.93630493 37.44189453 50.08673096 C37.00474121 51.11159607 36.56758789 52.13646118 36.1171875 53.19238281 C35.53880127 54.55209198 35.53880127 54.55209198 34.94873047 55.93927002 C34 58 34 58 33 59 C30.98035801 59.07244053 28.95832876 59.08377188 26.9375 59.0625 C25.83277344 59.05347656 24.72804688 59.04445313 23.58984375 59.03515625 C22.73519531 59.02355469 21.88054687 59.01195312 21 59 C18.40722106 51.898838 15.8166191 44.79688509 13.22878361 37.69392014 C12.02704336 34.39565387 10.8245587 31.09766302 9.62036133 27.80029297 C8.2355641 24.00829702 6.85402612 20.21512084 5.47265625 16.421875 C5.04034195 15.23946228 4.60802765 14.05704956 4.16261292 12.83880615 C3.76227341 11.73796692 3.3619339 10.63712769 2.94946289 9.50292969 C2.59638565 8.53474304 2.24330841 7.5665564 1.87953186 6.56903076 C1 4 1 4 0 0 Z " fill="#050000" transform="translate(347,695)"/>
<path d="M0 0 C4.29 0 8.58 0 13 0 C17.9875084 13.18666994 22.90853548 26.39706812 27.7454834 39.63967896 C28.29051759 41.13086823 28.83666192 42.62165222 29.38391113 44.11203003 C30.15629725 46.21675584 30.92443507 48.32298343 31.69140625 50.4296875 C32.13685791 51.64897949 32.58230957 52.86827148 33.04125977 54.12451172 C34 57 34 57 34 59 C29.05 59 24.1 59 19 59 C17.62932558 54.91112134 16.25964478 50.82193483 14.89233398 46.73193359 C14.42837172 45.34502873 13.9638678 43.95830493 13.4987793 42.57177734 C12.82452892 40.5613645 12.15232852 38.55027535 11.48046875 36.5390625 C10.87561646 34.73236084 10.87561646 34.73236084 10.25854492 32.88916016 C8.7676323 28.28193647 7.39146802 23.63822674 6 19 C1.05 31.54 -3.9 44.08 -9 57 C-13.95 57 -18.9 57 -24 57 C-16.56850074 37.76121737 -8.23752237 18.90313539 0 0 Z " fill="#060500" transform="translate(382,255)"/>
<path d="M0 0 C1.49352474 4.07097235 2.98684167 8.14202085 4.47998047 12.21313477 C4.98611068 13.59303764 5.49229399 14.97292103 5.99853516 16.3527832 C6.36470947 17.35088013 6.36470947 17.35088013 6.73828125 18.36914062 C6.98114868 19.03074188 7.22401611 19.69234314 7.47424316 20.37399292 C7.95934292 21.69794315 8.44299102 23.02242619 8.9251709 24.34744263 C10.01615356 27.34238992 11.12714017 30.32542289 12.28710938 33.29443359 C12.66158203 34.2633252 13.03605469 35.2322168 13.421875 36.23046875 C13.7528418 37.06344482 14.08380859 37.8964209 14.42480469 38.75463867 C15.07732979 41.30186845 14.93400903 42.56416886 14 45 C12.25 47.3125 12.25 47.3125 10 49 C5.63329517 48.61731839 2.11006062 46.74157242 -1.76953125 44.796875 C-2.40936447 44.47720764 -3.04919769 44.15754028 -3.7084198 43.82818604 C-5.05876791 43.15184527 -6.4076465 42.47256348 -7.75512695 41.79052734 C-9.7920394 40.76034806 -11.83400433 39.74080256 -13.87695312 38.72265625 C-20.44506833 35.4309147 -26.86170186 32.05552092 -33 28 C-30.34958394 24.2697848 -28.49975108 22.11693074 -24 21 C-21.26098633 21.95043945 -21.26098633 21.95043945 -18.33203125 23.61328125 C-17.27435547 24.20173828 -16.21667969 24.79019531 -15.12695312 25.39648438 C-14.03318359 26.02876953 -12.93941406 26.66105469 -11.8125 27.3125 C-10.70712891 27.93318359 -9.60175781 28.55386719 -8.46289062 29.19335938 C-6.42088555 30.34112859 -4.38308084 31.49642384 -2.35083008 32.66137695 C-0.92002847 33.47611215 0.52731899 34.2636595 2 35 C-3.445 21.14 -3.445 21.14 -9 7 C-3.4 0 -3.4 0 0 0 Z " fill="#020607" transform="translate(802,499)"/>
<path d="M0 0 C4.08849273 1.23023611 7.70377121 3.14826753 11.4777832 5.12524414 C12.29196213 5.54555405 13.10614105 5.96586395 13.94499207 6.39891052 C16.53580239 7.73807659 19.12204015 9.08581615 21.70825195 10.43383789 C23.4677226 11.34521488 25.22748508 12.25602871 26.98754883 13.16625977 C31.29369241 15.39477368 35.59575651 17.63098551 39.89575195 19.87133789 C39.89575195 22.87133789 39.89575195 22.87133789 37.20825195 25.62133789 C35.6965332 26.98071289 35.6965332 26.98071289 33.89575195 27.87133789 C29.83831608 27.40522203 26.89197662 25.95296437 23.3762207 23.92993164 C21.84384766 23.05498047 21.84384766 23.05498047 20.28051758 22.16235352 C19.22541992 21.55069336 18.17032227 20.9390332 17.08325195 20.30883789 C16.00881836 19.69331055 14.93438477 19.0777832 13.82739258 18.44360352 C11.17987677 16.92569445 8.53623339 15.40144026 5.89575195 13.87133789 C6.35800171 15.01348755 6.35800171 15.01348755 6.82958984 16.17871094 C8.21916149 19.63355615 9.58886101 23.09594699 10.95825195 26.55883789 C11.44358398 27.75702148 11.92891602 28.95520508 12.42895508 30.18969727 C13.11054687 31.92509766 13.11054687 31.92509766 13.8059082 33.69555664 C14.4421814 35.29016724 14.4421814 35.29016724 15.09130859 36.91699219 C16.00172517 40.26052816 16.29499056 41.69258761 14.89575195 44.87133789 C12.70420457 46.7784352 10.36927349 48.35364191 7.89575195 49.87133789 C5.72608836 43.96858425 3.57328185 38.05988326 1.43212891 32.14672852 C0.70163224 30.13554997 -0.03272329 28.12576871 -0.77099609 26.11743164 C-1.83104922 23.23169185 -2.87715798 20.34122422 -3.9206543 17.44946289 C-4.25392227 16.5514093 -4.58719025 15.65335571 -4.93055725 14.72808838 C-5.23094406 13.88751892 -5.53133087 13.04694946 -5.84082031 12.1809082 C-6.10951431 11.44366516 -6.37820831 10.70642212 -6.65504456 9.94683838 C-7.17911264 7.52543343 -6.95295591 6.18339941 -6.10424805 3.87133789 C-3.03419149 -0.18552256 -3.03419149 -0.18552256 0 0 Z " fill="#000600" transform="translate(570.104248046875,259.128662109375)"/>
</svg>
