<?xml version="1.0" encoding="UTF-8"?>
<svg version="1.1" xmlns="http://www.w3.org/2000/svg" width="1000" height="1000">
<path d="M0 0 C330 0 660 0 1000 0 C1000 330 1000 660 1000 1000 C670 1000 340 1000 0 1000 C0 670 0 340 0 0 Z " fill="#FEFEFE" transform="translate(0,0)"/>
<path d="M0 0 C1.55843377 0.41946633 3.11694862 0.83863152 4.67553711 1.25752258 C8.03639723 2.1614307 11.39671674 3.06731219 14.75662231 3.97476196 C20.13956936 5.42857104 25.52365501 6.87812995 30.90795898 8.3269043 C36.65824447 9.87430595 42.40847533 11.42190792 48.15834045 12.97087097 C62.88220995 16.93693085 77.6100916 20.88787966 92.33984375 24.83203125 C94.50935437 25.41303235 96.67886426 25.99403617 98.84837341 26.57504272 C107.30693225 28.84017269 115.76556892 31.10501166 124.22439575 33.36914062 C129.17323431 34.69381657 134.12182153 36.01942854 139.07031059 37.34540939 C141.89943394 38.10308665 144.72888547 38.8595289 147.55836487 39.61587524 C156.18831756 41.92551919 164.80965194 44.26058828 173.41357422 46.66552734 C174.95529103 47.09438826 176.49703327 47.52315776 178.0388031 47.951828 C180.8495842 48.73357451 183.65679054 49.52665661 186.46229553 50.32710266 C187.6928215 50.66992783 188.92334747 51.01275299 190.19116211 51.3659668 C191.24782578 51.66544724 192.30448944 51.96492767 193.39317322 52.27348328 C199.62471477 53.54425773 204.7984839 52.7905617 210.8840332 51.14404297 C211.59390821 50.95457627 212.30378323 50.76510958 213.0351696 50.56990147 C215.3955497 49.93768294 217.75235813 49.29307147 220.109375 48.6484375 C221.80238877 48.19234648 223.49561651 47.73704913 225.18904114 47.28248596 C229.77401636 46.04948923 234.35605035 44.80587061 238.93766022 43.56043625 C243.76578085 42.25005927 248.59661131 40.94975363 253.42724609 39.64868164 C261.45709242 37.48489316 269.48553732 35.31597819 277.51318359 33.14404297 C288.87432333 30.07098907 300.24082103 27.01815242 311.609375 23.97265625 C313.39008721 23.49549354 315.17079807 23.0183258 316.95150757 22.54115295 C323.89182155 20.68156789 330.83233192 18.82271652 337.77294922 16.96426392 C342.79158475 15.62031321 347.80997094 14.27543482 352.828125 12.9296875 C353.63030079 12.71458464 354.43247658 12.49948177 355.25896072 12.27786064 C365.53582506 9.52091454 375.80448789 6.73578235 386.06439209 3.91638756 C390.35167953 2.73929297 394.64075917 1.56873158 398.92938232 0.39651489 C402.20343349 -0.50237818 405.47404131 -1.41306405 408.74462891 -2.32446289 C410.66813545 -2.85100371 412.59179035 -3.37700302 414.515625 -3.90234375 C415.79200081 -4.26451492 415.79200081 -4.26451492 417.09416199 -4.63400269 C424.84386256 -6.72465218 424.84386256 -6.72465218 428.49609375 -5.09375 C431.6395269 -0.82167177 432.76372249 3.80775684 434.07714844 8.85668945 C434.31710761 9.75359466 434.55706678 10.65049986 434.80429745 11.57458401 C435.59954368 14.55432963 436.38372303 17.53687323 437.16796875 20.51953125 C437.72805024 22.62642573 438.28883997 24.73313205 438.85029602 26.83966064 C440.34865491 32.46882953 441.83765513 38.10043373 443.3247261 43.73259354 C444.85643741 49.52809253 446.39607585 55.32148364 447.93530273 61.11499023 C449.76523164 68.00426824 451.59451451 74.89371328 453.41990662 81.78419495 C456.76556963 94.4112254 460.13318382 107.03181729 463.546875 119.640625 C463.90754264 120.97473001 464.26815006 122.3088513 464.62869263 123.64299011 C466.54691771 130.73853238 466.54691771 130.73853238 468.47570801 137.83120728 C473.80861752 157.39241546 473.80861752 157.39241546 475.13452148 166.55493164 C475.6523144 169.92215887 476.52930163 173.07705008 477.49609375 176.34375 C477.82609375 177.47683594 478.15609375 178.60992187 478.49609375 179.77734375 C479.43646852 182.85166216 479.43646852 182.85166216 480.5625 185.5546875 C481.43523729 187.75296301 481.97760919 189.77908552 482.43359375 192.09375 C483.30556974 196.19676878 484.40141395 200.17353535 485.66796875 204.171875 C486.25903281 206.1235016 486.78324746 208.09588678 487.26171875 210.078125 C489.5078061 218.77660875 493.17461268 223.66002466 499.49609375 229.90625 C500.69621229 231.27025027 501.88468046 232.64463223 503.05859375 234.03125 C505.4110297 236.74142966 507.86143085 239.27914601 510.43359375 241.78125 C513.34933576 244.63009162 515.80864904 247.57868431 518.24609375 250.84375 C522.21404375 255.9759488 526.76308131 259.34693854 532.0546875 262.99609375 C534.49609375 264.90625 534.49609375 264.90625 535.49609375 267.90625 C536.82268796 268.58622797 538.15751251 269.25018409 539.49609375 269.90625 C541.15604406 271.37730944 542.76354461 272.90822143 544.33622742 274.472229 C545.0447084 275.17285497 545.0447084 275.17285497 545.76750213 275.88763499 C547.34677601 277.45192309 548.91883505 279.02326307 550.4909668 280.59472656 C551.62253355 281.71867102 552.75450167 282.84221152 553.88684082 283.96537781 C556.95975728 287.01635271 560.0260788 290.07387263 563.09058356 293.13329411 C565.00524506 295.04431245 566.92119833 296.95402594 568.83759499 298.86330414 C575.52253684 305.52375528 582.20174161 312.18990462 588.8762207 318.86083984 C595.09922988 325.08021131 601.33525377 331.28632177 607.57733315 337.48654771 C612.93572196 342.81026277 618.2844678 348.14353903 623.62589675 353.48426986 C626.8164111 356.67399058 630.01079261 359.8595931 633.21509361 363.03546906 C636.2278067 366.02205094 639.22836508 369.02032739 642.21999359 372.02802467 C643.31980488 373.12965421 644.42390248 374.22702361 645.5325489 375.31976128 C647.0458453 376.81265739 648.54290365 378.32017233 650.03691101 379.83233643 C650.87884349 380.67225758 651.72077597 381.51217873 652.58822155 382.37755203 C654.82570126 385.34311251 655.4131836 387.20493506 655.49609375 390.90625 C654.58918285 392.74219799 654.58918285 392.74219799 652.99491882 394.39237976 C652.33932669 395.07592215 651.68373455 395.75946453 651.00827599 396.46372032 C650.17925585 397.26975512 649.35023571 398.07578991 648.49609375 398.90625 C647.75802093 399.62424125 647.75802093 399.62424125 647.00503755 400.35673738 C643.27480317 403.96862556 639.49547532 407.52681741 635.70550537 411.07584 C631.83672341 414.70041122 627.98131139 418.33913758 624.12641907 421.97846985 C623.305125 422.75369669 622.48383094 423.52892352 621.63764918 424.32764208 C610.05079834 435.28140695 598.603803 446.38112805 587.15549183 457.47931385 C577.88373093 466.4595018 568.56764407 475.38200664 559.12524414 484.18286133 C513.55071993 526.7221797 480.23335433 560.87938288 471.65206909 624.09823608 C470.33856048 633.76322663 467.84029566 642.99677187 465.08550072 652.33581161 C463.93140322 656.29352808 462.88358427 660.27863727 461.82763672 664.26342773 C461.42280102 665.77326841 461.01734533 667.28294299 460.61126709 668.79244995 C460.40925438 669.54418865 460.20724167 670.29592735 459.99910736 671.07044601 C459.11310645 674.36579571 458.22622568 677.66090833 457.33928108 680.95600414 C456.18269455 685.25308058 455.02677787 689.55033703 453.87109375 693.84765625 C453.64620144 694.68367937 453.42130913 695.51970249 453.1896019 696.38105965 C450.05056887 708.05498873 446.95392659 719.73945457 443.8866539 731.43243027 C442.64429685 736.16218244 441.39430074 740.88992176 440.14395332 745.61756706 C438.97574199 750.03848097 437.82050483 754.46251657 436.67506027 758.88938046 C436.14284773 760.93667955 435.60389894 762.98205571 435.06176758 765.02674866 C434.40701639 767.4962465 433.76307459 769.96864609 433.13208008 772.44432068 C432.84212158 773.52415726 432.55216309 774.60399384 432.25341797 775.71655273 C432.00888885 776.65280991 431.76435974 777.58906708 431.51242065 778.55369568 C430.28332647 781.39875549 429.22819943 782.4624306 426.49609375 783.90625 C424.45849609 783.90289307 424.45849609 783.90289307 422.20703125 783.34472656 C421.32241211 783.13303833 420.43779297 782.9213501 419.52636719 782.70324707 C418.52637695 782.44023804 417.52638672 782.177229 416.49609375 781.90625 C415.38008789 781.62422729 414.26408203 781.34220459 413.11425781 781.05163574 C409.10944157 780.02337568 405.1149987 778.96026211 401.12109375 777.890625 C399.58948859 777.48284662 398.05781445 777.07532726 396.52607727 776.66804504 C392.38156758 775.56514572 388.23812075 774.45830203 384.09488297 773.35063553 C380.59526103 772.41555129 377.09503313 771.48274677 373.59480381 770.54993916 C361.55998009 767.34255343 349.52762055 764.12597844 337.49609375 760.90625 C336.13261181 760.54137859 336.13261181 760.54137859 334.74158478 760.16913605 C322.2965304 756.83852853 309.85262248 753.50365535 297.40939713 750.16622162 C294.81175393 749.46959748 292.21403806 748.77324494 289.61630249 748.07696533 C273.38908529 743.72722744 257.16335299 739.37322282 240.95913124 734.93846703 C236.69545496 733.77242463 232.4303517 732.61160337 228.1656189 731.44943237 C224.91690054 730.56087307 221.67094771 729.66270959 218.42504883 728.76391602 C216.50744982 728.24058771 214.58973343 727.71768929 212.671875 727.1953125 C211.83124512 726.95901627 210.99061523 726.72272003 210.12451172 726.47926331 C208.95553345 726.16395912 208.95553345 726.16395912 207.76293945 725.84228516 C207.10203812 725.65993317 206.44113678 725.47758118 205.76020813 725.28970337 C200.37078064 724.37694289 195.56442434 724.92207219 190.33666992 726.36132812 C189.14262543 726.68522018 187.94858093 727.00911224 186.71835327 727.34281921 C185.40856405 727.70762078 184.09880139 728.07251775 182.7890625 728.4375 C181.38789385 728.82068819 179.98648884 729.20301301 178.58486938 729.58454895 C175.55127766 730.41195941 172.51920352 731.2446472 169.4881897 732.08145142 C164.60421459 733.42951363 159.71696154 734.76538571 154.82885742 736.09838867 C153.99084626 736.32691749 153.1528351 736.5554463 152.28942966 736.79090023 C150.56603047 737.2608131 148.84261524 737.73066711 147.11918449 738.20046425 C144.45575758 738.92683866 141.79262943 739.65430088 139.12953186 740.38188171 C125.93328639 743.98464073 112.72285178 747.53228317 99.50390625 751.05078125 C98.06722721 751.43323155 98.06722721 751.43323155 96.60152435 751.82340813 C88.87442886 753.87991671 81.14658315 755.9336 73.41851807 757.98646164 C66.80068644 759.74445231 60.18321035 761.50377051 53.56640625 763.265625 C52.65659248 763.50787371 51.74677872 763.75012241 50.80939484 763.99971199 C38.76946783 767.20781129 26.74570098 770.46923777 14.73828125 773.796875 C13.4056972 774.16533717 12.07309165 774.53372157 10.74046326 774.90202332 C4.79316649 776.54732219 -1.15058782 778.20366268 -7.08862305 779.88208008 C-9.10845763 780.44389463 -11.12838875 781.00536226 -13.1484375 781.56640625 C-14.03963287 781.82339294 -14.93082825 782.08037964 -15.84902954 782.34515381 C-23.45400216 784.43713992 -23.45400216 784.43713992 -27.50390625 782.90625 C-30.38466336 780.02549289 -30.85909208 776.55026544 -31.86035156 772.70898438 C-32.08910477 771.85360958 -32.31785797 770.99823479 -32.55354309 770.11693954 C-33.31950771 767.24630538 -34.07569654 764.37318511 -34.83203125 761.5 C-35.37387463 759.46197379 -35.91634822 757.42411503 -36.45941162 755.38641357 C-37.6228584 751.01584127 -38.78207526 746.64417725 -39.93798828 742.27160645 C-41.75931462 735.38210136 -43.58970993 728.49502791 -45.421875 721.60839844 C-47.29118083 714.58059868 -49.15995814 707.55266137 -51.0255127 700.52386475 C-56.58890683 679.56379559 -62.200189 658.61676668 -67.82756042 637.67379761 C-69.09340423 632.96197428 -70.35804898 628.24982913 -71.62279892 623.5377121 C-71.80578663 622.85596169 -71.98877434 622.17421127 -72.17730713 621.47180176 C-72.48055562 620.33017657 -72.48055562 620.33017657 -72.78993034 619.16548824 C-73.410791 616.8717801 -74.0497254 614.58531894 -74.69751167 612.29918003 C-76.6847218 605.19695701 -78.54050786 598.17277603 -79.71406591 590.8856259 C-84.87809163 558.99951719 -100.77514742 541.5501463 -123.70267916 519.83031678 C-128.32300905 515.41971569 -132.85337246 510.91840808 -137.39437866 506.42643738 C-144.9988595 498.92656725 -152.65084202 491.47980793 -160.34716797 484.07446289 C-168.24893115 476.47109623 -176.12472176 468.84249065 -183.96435547 461.17504883 C-184.45076738 460.69934564 -184.9371793 460.22364244 -185.43833096 459.733524 C-190.74933391 454.53833713 -196.05515209 449.3378668 -201.35993004 444.13632488 C-203.23009485 442.30289178 -205.10030132 440.46950117 -206.97055054 438.63615417 C-207.8830785 437.74137491 -208.79560647 436.84659565 -209.7357868 435.92470187 C-215.15023318 430.62056477 -220.58528596 425.33871589 -226.04009748 420.07610476 C-229.41395613 416.81897873 -232.77870034 413.55253377 -236.14218903 410.28470421 C-237.70468963 408.77156866 -239.27160474 407.26297663 -240.84317398 405.75926208 C-242.98405036 403.7102365 -245.10928194 401.64617468 -247.2315979 399.57795715 C-247.85929726 398.98528559 -248.48699662 398.39261403 -249.13371718 397.78198272 C-251.84691596 395.10971402 -253.34350891 393.38680675 -254.56770325 389.71907234 C-254.49258935 386.40728565 -254.04469851 385.56055388 -251.75546265 383.22938538 C-251.10186138 382.54758272 -250.44826012 381.86578007 -249.77485275 381.16331673 C-249.02544041 380.41848471 -248.27602806 379.67365269 -247.50390625 378.90625 C-246.30146208 377.6688548 -246.30146208 377.6688548 -245.0747261 376.40646172 C-242.23073286 373.49453807 -239.35789491 370.61339928 -236.47900391 367.73608398 C-235.37909016 366.63317224 -234.27937968 365.53005777 -233.17985535 364.42675781 C-230.2131696 361.45129543 -227.24330211 358.47902922 -224.27254534 355.50763202 C-222.41235202 353.64672486 -220.55287385 351.78510615 -218.69364548 349.92323494 C-212.19542186 343.41578058 -205.69464136 336.9108933 -199.19140625 330.40844727 C-193.14803505 324.36567702 -187.11026723 318.31734801 -181.07509387 312.26639122 C-175.87589333 307.05408294 -170.67281178 301.84567022 -165.46673429 296.64023072 C-162.36504462 293.53879497 -159.26489845 290.43585547 -156.16865921 287.32897758 C-153.25594288 284.40652505 -150.33839028 281.4889861 -147.41718483 278.57501984 C-146.35169959 277.51057342 -145.28788813 276.44444826 -144.22596931 275.37644386 C-138.87489104 269.99671305 -133.49496648 264.86120315 -127.38991356 260.32972813 C-123.59470648 257.46526719 -120.24351852 254.10776875 -116.7890625 250.84765625 C-114.50390625 248.90625 -114.50390625 248.90625 -112.50390625 248.90625 C-112.30023438 248.36613281 -112.0965625 247.82601562 -111.88671875 247.26953125 C-109.94576141 243.95235839 -107.21403833 241.62962702 -104.37890625 239.09375 C-103.79431641 238.56112549 -103.20972656 238.02850098 -102.60742188 237.47973633 C-98.91208788 234.12484264 -95.16163656 230.84445391 -91.28515625 227.69921875 C-86.08292021 222.46275747 -83.68095771 217.51493963 -82.1171875 210.4453125 C-81.92924118 209.65530853 -81.74129486 208.86530457 -81.5476532 208.05136108 C-80.95573523 205.54786149 -80.38579777 203.03995759 -79.81640625 200.53125 C-79.42396234 198.85643363 -79.03009359 197.18195046 -78.63476562 195.5078125 C-77.73869312 191.69511505 -76.85234037 187.88056394 -75.99382019 184.05921936 C-75.66401607 182.60986652 -75.32272528 181.16308503 -74.97065735 179.71897888 C-73.84524324 174.98832944 -73.20697774 170.37431604 -72.77488708 165.53434753 C-71.06337149 147.6160905 -65.96440536 130.52613448 -61.17401505 113.24435043 C-59.93282836 108.75370006 -58.70959922 104.25816521 -57.48510742 99.76293945 C-55.98184685 94.24819083 -54.47698167 88.73390594 -52.96388245 83.22184753 C-49.8572883 71.90177466 -46.79768317 60.57039931 -43.79117393 49.22333336 C-43.16054907 46.84346542 -42.52880506 44.46389747 -41.89668274 42.08442688 C-39.52618064 33.16192386 -39.52618064 33.16192386 -37.16793823 24.23617554 C-36.1073832 20.21116327 -35.03461455 16.18950027 -33.9609375 12.16796875 C-33.49831009 10.39885132 -33.49831009 10.39885132 -33.02633667 8.59399414 C-32.73638824 7.51456543 -32.44643982 6.43513672 -32.14770508 5.32299805 C-31.77758049 3.92527412 -31.77758049 3.92527412 -31.39997864 2.49931335 C-26.40459921 -11.95636626 -11.38317091 -3.08296501 0 0 Z " fill="#040403" transform="translate(299.50390625,111.09375)"/>
<path d="M0 0 C3.54823215 1.39025746 6.82695785 2.92774571 10.1484375 4.80078125 C11.14166016 5.35894531 12.13488281 5.91710937 13.15820312 6.4921875 C14.21974609 7.09289062 15.28128906 7.69359375 16.375 8.3125 C17.48552734 8.93769531 18.59605469 9.56289063 19.74023438 10.20703125 C23.16208957 12.13461805 26.58140134 14.06664454 30 16 C31.49321777 16.84377197 31.49321777 16.84377197 33.01660156 17.70458984 C36.78887582 19.83621398 40.56083496 21.96838951 44.33154297 24.1027832 C51.37635198 28.08889971 58.43540991 32.04906258 65.5 36 C74.4593421 41.01059503 83.40281974 46.04829051 92.3359375 51.10546875 C99.37946401 55.09036799 106.43696193 59.04980134 113.5 63 C121.59179676 67.52674796 129.67727057 72.06432399 137.75 76.625 C138.9865332 77.32302734 138.9865332 77.32302734 140.24804688 78.03515625 C141.97394343 79.01118051 143.6865238 80.01106795 145.38612366 81.03219604 C148.21089147 82.65574061 151.10915877 83.89417604 154.11973572 85.13577271 C168.20669022 91.37702991 168.20669022 91.37702991 171.19747543 97.41922379 C173.03536369 104.40295677 172.55901155 111.55277777 172.26953125 118.703125 C172.25277681 120.99521095 172.24533094 123.28738207 172.24674988 125.57952881 C172.22569059 131.58073 172.07920922 137.57239699 171.90551758 143.57086182 C171.75045549 149.70405595 171.71540369 155.83784406 171.66992188 161.97265625 C171.56333446 173.985334 171.32407812 185.99135776 171 198 C175.62 198 180.24 198 185 198 C184.9278125 195.9065625 184.855625 193.813125 184.78125 191.65625 C183.83559705 162.43906612 183.89483365 133.22956837 184 104 C187.8398661 105.19408568 191.25494504 106.5414608 194.73828125 108.546875 C196.07246094 109.30871094 196.07246094 109.30871094 197.43359375 110.0859375 C198.38363281 110.63507813 199.33367187 111.18421875 200.3125 111.75 C202.38118392 112.93286286 204.45020609 114.1151343 206.51953125 115.296875 C207.58768066 115.90853516 208.65583008 116.52019531 209.75634766 117.15039062 C214.98618012 120.13256816 220.24353122 123.06511427 225.5 126 C261.68054428 146.24545125 261.68054428 146.24545125 276 155 C273.33865944 157.05511094 270.6464314 158.87479464 267.74609375 160.57421875 C266.48539062 161.31575195 266.48539062 161.31575195 265.19921875 162.07226562 C264.28785156 162.60529297 263.37648438 163.13832031 262.4375 163.6875 C260.4464716 164.8578297 258.45559293 166.02841416 256.46484375 167.19921875 C255.41280762 167.81716309 254.36077148 168.43510742 253.27685547 169.07177734 C247.67635527 172.36731829 242.08878284 175.68464064 236.5 179 C227.1894583 184.52039214 217.87317196 190.03091254 208.55004883 195.5300293 C202.44332691 199.13576711 196.35605251 202.77265896 190.29980469 206.46264648 C186.10812809 209 186.10812809 209 185 209 C185 205.7 185 202.4 185 199 C180.38 199 175.76 199 171 199 C171.41765625 200.81371094 171.41765625 200.81371094 171.84375 202.6640625 C172.6986961 207.99557859 173.10447544 212.91998806 171 218 C165.5154939 223.757825 157.57509135 226.8433388 150.515625 230.24462891 C144.71854582 233.13914275 139.22665318 236.52039289 133.6875 239.875 C131.41790299 241.22473731 129.14705921 242.57238028 126.875 243.91796875 C125.74320312 244.59005371 124.61140625 245.26213867 123.4453125 245.95458984 C117.69480978 249.36910386 111.94103059 252.77809147 106.1875 256.1875 C105.06110107 256.85507324 103.93470215 257.52264648 102.77416992 258.21044922 C94.96500571 262.83789169 87.1512817 267.45756259 79.33544922 272.07373047 C69.30678617 277.99802662 59.28736029 283.93789682 49.26786804 289.87768555 C45.05681721 292.3739558 40.8449457 294.86883788 36.6328125 297.36328125 C34.81829601 298.4379977 33.00379505 299.51274034 31.18930054 300.5874939 C29.49520688 301.59082303 27.80095102 302.59387826 26.10668945 303.59692383 C25.05956787 304.21720459 24.01244629 304.83748535 22.93359375 305.4765625 C21.93440918 306.0634082 20.93522461 306.65025391 19.90576172 307.25488281 C17.9634492 308.42138003 16.04266509 309.62446987 14.14501953 310.86230469 C12.82219971 311.71550293 12.82219971 311.71550293 11.47265625 312.5859375 C10.7031665 313.09946777 9.93367676 313.61299805 9.14086914 314.14208984 C7 315 7 315 5.26877975 314.44117165 C1.9461111 312.33054991 -0.68629137 309.58100226 -3.44134521 306.79916382 C-4.08588063 306.15633725 -4.73041605 305.51351068 -5.39448285 304.85120451 C-7.55650907 302.69247682 -9.71130189 300.52667045 -11.86621094 298.36083984 C-13.41314977 296.81333698 -14.96052891 295.26627416 -16.50831604 293.71961975 C-20.71284885 289.51566176 -24.91117822 285.30555716 -29.10844326 281.09434462 C-33.49444647 276.69585554 -37.88609808 272.30301363 -42.27716064 267.90957642 C-49.64779629 260.53342691 -57.01492902 253.15379399 -64.37939453 245.77148438 C-71.96461512 238.16790394 -79.55193479 230.56642827 -87.14208984 222.96777344 C-87.60999726 222.49934058 -88.07790467 222.03090772 -88.55999109 221.54827993 C-90.90737331 219.19828762 -93.25479915 216.84833888 -95.60224104 214.49840617 C-115.0744844 195.0052466 -134.53958012 175.50496269 -154 156 C-152.34828196 151.74238754 -149.16802712 148.89589215 -145.98898315 145.74847412 C-145.36657435 145.12435646 -144.74416554 144.5002388 -144.10289586 143.85720849 C-142.01326453 141.76427936 -139.91655845 139.67858492 -137.81982422 137.59277344 C-136.3215818 136.09509507 -134.82377946 134.59697636 -133.3263855 133.09844971 C-129.25672032 129.02820978 -125.18091 124.96417371 -121.10399008 120.9012022 C-116.84563664 116.65533563 -112.5929313 112.40381967 -108.33963013 108.15289307 C-100.28302218 100.10250589 -92.2213287 92.05723134 -84.15780747 84.01376939 C-74.97866661 74.85696891 -65.80519162 65.69450129 -56.63219428 56.53154707 C-37.76110544 37.68137377 -18.88289259 18.83834853 0 0 Z " fill="#FD8D01" transform="translate(213,345)"/>
<path d="M0 0 C15.58669084 3.39956631 31.03080468 7.35253524 46.34472656 11.81933594 C52.19985185 13.51663448 58.07802201 15.05434067 64 16.5 C70.79938 18.15984865 77.53112621 19.97730205 84.25 21.9375 C92.89499513 24.45855173 101.59373137 26.67525675 110.33886719 28.82006836 C116.78224631 30.41216422 123.14113815 32.17276188 129.48925781 34.10571289 C135.60978802 35.94318914 141.79454722 37.47761619 148 39 C154.88301648 40.68861052 161.71977481 42.43543893 168.5 44.5 C176.3862421 46.89999111 184.35964267 48.89654866 192.36523438 50.85742188 C193.32494141 51.09267578 194.28464844 51.32792969 195.2734375 51.5703125 C196.11310059 51.77414551 196.95276367 51.97797852 197.81787109 52.18798828 C200.78737795 52.94574337 203.7427593 53.74258894 206.69888306 54.55075073 C207.69110682 54.8218611 208.68333057 55.09297146 209.70562172 55.37229729 C210.46276655 55.57943918 211.21991138 55.78658108 212 56 C212.71669602 81.37045319 213.22195341 106.73588971 213.50522685 132.11476946 C213.54641295 135.77338479 213.58943792 139.43197782 213.63235503 143.09057319 C213.7582945 153.84186137 213.87829204 164.59321025 213.99619293 175.34458923 C214.05152409 180.38881181 214.10780194 185.43302332 214.16434312 190.47723246 C214.84196894 250.98642057 215.32955191 311.4864979 215 372 C211.32423383 370.56138929 207.93214097 368.9433197 204.484375 367.015625 C203.41074707 366.4172583 202.33711914 365.8188916 201.23095703 365.20239258 C200.08224121 364.55810303 198.93352539 363.91381348 197.75 363.25 C196.54163898 362.57487211 195.33314075 361.89998976 194.12451172 361.2253418 C191.63573744 359.83540509 189.14800874 358.44362327 186.66113281 357.05029297 C183.24244366 355.13503038 179.82073533 353.22521434 176.3984375 351.31640625 C163.21852025 343.95929789 150.08449718 336.52546224 137 329 C135.64696777 328.22269531 135.64696777 328.22269531 134.26660156 327.4296875 C131.5931399 325.89280193 128.92123697 324.35324847 126.25 322.8125 C125.02434326 322.10734253 125.02434326 322.10734253 123.77392578 321.38793945 C123.02868652 320.95698975 122.28344727 320.52604004 121.515625 320.08203125 C120.52997559 319.51319214 120.52997559 319.51319214 119.52441406 318.93286133 C118 318 118 318 117 317 C116.88130611 315.06087079 116.83255992 313.1174384 116.81054688 311.17480469 C116.7937941 309.91705734 116.77704132 308.65931 116.75978088 307.3634491 C116.74605815 305.96625818 116.7323826 304.5690668 116.71875 303.171875 C116.70095601 301.72637848 116.68267176 300.28088792 116.66392517 298.83540344 C116.6246933 295.74943517 116.58829365 292.66345205 116.5541687 289.5774231 C116.47380343 282.32854932 116.37976 275.07985003 116.28530693 267.83114815 C116.2643281 266.21890037 116.24352221 264.60665033 116.22288704 262.99439812 C116.04761951 249.3480384 115.77794052 235.70578813 115.4375 222.0625 C115.01726991 205.03709534 114.88484272 188.03048281 115 171 C110.38 171 105.76 171 101 171 C101.02505615 171.99144012 101.0501123 172.98288025 101.07592773 174.00436401 C101.39390442 186.62767105 101.70093182 199.25123104 102 211.875 C102.0237545 212.87739716 102.047509 213.87979431 102.07198334 214.91256714 C102.81182434 246.28157285 103.31186947 277.62113358 103 309 C93.88686602 304.51091919 84.86926055 299.94675049 76.0625 294.875 C74.08494 293.74686175 72.10706396 292.61927736 70.12890625 291.4921875 C69.12359863 290.91823242 68.11829102 290.34427734 67.08251953 289.75292969 C61.90368213 286.80789147 56.70119789 283.90530458 51.5 281 C42.5403742 275.98991506 33.59717754 270.95170794 24.6640625 265.89453125 C17.62053653 261.90963231 10.56309283 257.95010006 3.5 254 C-5.44449317 248.99770938 -14.3826666 243.98459769 -23.28759766 238.91210938 C-27.89431309 236.29340388 -32.51456069 233.70956998 -37.18414307 231.20422363 C-38.94390279 230.25914845 -40.69951653 229.30636655 -42.45507812 228.35351562 C-44.69362888 227.14027481 -46.93953156 225.9404787 -49.19335938 224.75585938 C-50.7025293 223.93311523 -50.7025293 223.93311523 -52.2421875 223.09375 C-53.1379248 222.61615234 -54.03366211 222.13855469 -54.95654297 221.64648438 C-57 220 -57 220 -57.83276367 217.4621582 C-58.0366287 214.46072932 -57.43873921 212.52630763 -56.4375 209.6875 C-54.32641147 203.27415863 -52.66113255 196.80895221 -51.0625 190.25 C-49.35420772 183.28361297 -47.59117456 176.36169296 -45.5 169.5 C-43.43514401 162.71987585 -41.68860529 155.88299519 -40 149 C-38.14508483 141.43910214 -36.16216649 133.95834029 -33.89453125 126.51171875 C-32.05709254 120.39082418 -30.52246517 114.20578441 -29 108 C-27.31138919 101.11698235 -25.56452657 94.28023478 -23.5 87.5 C-21.46176558 80.80142324 -19.73022906 74.04986436 -18.0625 67.25 C-15.97960557 58.75819965 -13.71080365 50.35011667 -11.25683594 41.95874023 C-8.99124787 34.13830437 -7.01243306 26.25531369 -5.09179688 18.34375 C-3.58302142 12.16495529 -1.89120053 6.07288266 0 0 Z " fill="#FDEF00" transform="translate(279,118)"/>
<path d="M0 0 C3.30281742 0.76610974 5.91472987 1.89375557 8.90234375 3.51953125 C9.86390381 4.04087646 10.82546387 4.56222168 11.81616211 5.09936523 C13.36122437 5.94736694 13.36122437 5.94736694 14.9375 6.8125 C16.0107251 7.39781494 17.0839502 7.98312988 18.18969727 8.58618164 C25.82825421 12.76798031 33.40972143 17.04332375 40.95678711 21.38769531 C49.17809503 26.11949568 57.45496848 30.74973621 65.73999023 35.36889648 C66.74360596 35.92907471 67.74722168 36.48925293 68.78125 37.06640625 C69.66876953 37.56084229 70.55628906 38.05527832 71.47070312 38.56469727 C72.72270508 39.27517212 72.72270508 39.27517212 74 40 C74.8647655 40.37778752 75.729531 40.75557505 76.62050152 41.14481068 C79 43 79 43 79.61523914 46.14903545 C79.61063018 47.45890328 79.60602121 48.76877111 79.60127258 50.11833191 C79.60554471 50.8477675 79.60981683 51.5772031 79.61421841 52.3287428 C79.62247312 54.77992101 79.59492522 57.22939869 79.56762695 59.68041992 C79.56621701 61.4345343 79.56700742 63.18865163 79.56983948 64.94276428 C79.57127713 69.71128678 79.54183106 74.47918351 79.50696969 79.24756026 C79.47576419 84.22834735 79.47278004 89.20914795 79.46684265 94.1900177 C79.4512871 103.62487021 79.41023549 113.05943387 79.3600952 122.49415904 C79.30425494 133.23400766 79.27672863 143.9738699 79.25161803 154.71382749 C79.19932113 176.80938404 79.11034132 198.90466368 79 221 C83.62 221 88.24 221 93 221 C93 165.23 93 109.46 93 52 C97.02924796 53.34308265 99.80698758 54.28453137 103.30078125 56.328125 C104.09967773 56.7907373 104.89857422 57.25334961 105.72167969 57.72998047 C106.57665039 58.23158691 107.43162109 58.73319336 108.3125 59.25 C110.19861502 60.34218909 112.08536044 61.43329009 113.97265625 62.5234375 C115.45209717 63.37953613 115.45209717 63.37953613 116.96142578 64.25292969 C122.03385808 67.16939486 127.14156698 70.0222075 132.25 72.875 C133.29373779 73.45854248 134.33747559 74.04208496 135.4128418 74.64331055 C137.54229774 75.83366028 139.67193709 77.02368198 141.80175781 78.21337891 C155.99598877 86.14264472 170.17991492 94.08932498 184.32763672 102.10131836 C191.45439096 106.1345107 198.60029491 110.13266829 205.75 114.125 C216.22831257 119.9787786 226.63568449 125.94694327 237 132 C236.39284625 135.31220768 235.25904038 137.26103429 233.15625 139.87109375 C232.57439941 140.60303955 231.99254883 141.33498535 231.39306641 142.08911133 C230.76835449 142.86407959 230.14364258 143.63904785 229.5 144.4375 C225.38031701 149.63393008 221.33388715 154.81411089 217.625 160.3125 C211.81127936 168.87726035 205.43394897 177.01719485 199.13037109 185.22412109 C193.06243122 193.13066205 187.02937219 201.06402539 181 209 C180.12456543 210.15218018 180.12456543 210.15218018 179.23144531 211.32763672 C170.7952137 222.43649706 170.7952137 222.43649706 163 234 C163.86625 234.433125 163.86625 234.433125 164.75 234.875 C167.875 236.4375 167.875 236.4375 171 238 C171.35078613 237.51869629 171.70157227 237.03739258 172.06298828 236.54150391 C179.26755237 226.67169454 186.5715208 216.89845664 194.10253906 207.27514648 C197.94730731 202.36112636 201.72566684 197.40524741 205.44921875 192.3984375 C207.57441152 189.55234075 209.73274305 186.73244702 211.89453125 183.9140625 C212.59980957 182.99343018 213.30508789 182.07279785 214.03173828 181.12426758 C215.43280373 179.29685299 216.83600706 177.47107481 218.24169922 175.6472168 C221.27518145 171.68685791 224.23253744 167.72195421 226.96484375 163.546875 C230.50467282 158.14309816 234.43667923 153.05446831 238.375 147.9375 C239.47908203 146.49600586 239.47908203 146.49600586 240.60546875 145.02539062 C242.40115773 142.6816667 244.19936723 140.33992644 246 138 C251.66480248 140.17239951 256.90965145 143.01262809 262.25 145.875 C263.26835938 146.40480469 264.28671875 146.93460938 265.3359375 147.48046875 C266.30273438 147.99996094 267.26953125 148.51945313 268.265625 149.0546875 C269.15024414 149.52374512 270.03486328 149.99280273 270.94628906 150.47607422 C273 152 273 152 273.6855011 153.82116699 C274.04738548 156.32828431 273.73918992 157.94232201 273.08569336 160.38525391 C272.85540436 161.26485275 272.62511536 162.1444516 272.3878479 163.05070496 C272.12450653 164.01623795 271.86116516 164.98177094 271.58984375 165.9765625 C271.17887955 167.52836967 271.17887955 167.52836967 270.75961304 169.11152649 C269.82818994 172.61856192 268.88282423 176.12168807 267.9375 179.625 C267.26313377 182.15156543 266.58957268 184.67834587 265.91674805 187.20532227 C264.23376853 193.51932982 262.53991075 199.83037544 260.84295559 206.14063931 C259.37381593 211.60516279 257.90965142 217.07100195 256.44824219 222.53759766 C256.23278496 223.34352891 256.01732773 224.14946016 255.79534149 224.97981358 C255.35467719 226.62818696 254.9140161 228.27656121 254.47335815 229.92493629 C245.15160424 264.78852885 235.76207674 299.6339701 226.35274887 334.4740181 C225.68995181 336.92842069 225.02740536 339.38289083 224.36489868 341.83737183 C223.33455788 345.65419073 222.3032396 349.47074418 221.27110672 353.28707886 C220.89382715 354.6825379 220.51683469 356.0780746 220.14014816 357.47369385 C219.62771722 359.37193048 219.11406321 361.26983681 218.6003418 363.16772461 C218.31362106 364.22833603 218.02690033 365.28894745 217.73149109 366.38169861 C217.20419259 368.26911243 216.61970756 370.14087731 216 372 C206.96806545 370.5726947 198.21050873 368.30160391 189.3984375 365.90625 C187.84128066 365.48662388 186.28401088 365.06741664 184.72663879 364.64859009 C181.37137106 363.74536656 178.01686354 362.83939088 174.66293335 361.93121338 C169.29247569 360.4770294 163.92043586 359.02875458 158.5480957 357.58154297 C152.80853175 356.03518308 147.06905321 354.48851162 141.33009338 352.93991089 C126.56441127 348.95608639 111.79321983 344.99308413 97.01953125 341.0390625 C94.8402081 340.45567507 92.66088681 339.87228071 90.48156738 339.28887939 C81.97775492 337.01256415 73.47385633 334.73657133 64.96966553 332.46166992 C59.97426157 331.12529257 54.97916541 329.78776982 49.98425865 328.44953537 C48.16748347 327.96298979 46.35060775 327.4768194 44.53360939 326.99110794 C28.66467744 322.74888406 12.8306069 318.38262905 -3 314 C-3.15159931 262.87803122 -2.77693253 211.77093461 -2.16577756 160.65281832 C-2.06161908 151.91977741 -1.96274402 143.18668041 -1.86432838 134.45357323 C-1.35914071 89.6336761 -0.77009446 44.81617982 0 0 Z " fill="#A53AFD" transform="translate(505,510)"/>
<path d="M0 0 C0.16604736 0.64960693 0.33209473 1.29921387 0.50317383 1.96850586 C1.26961522 4.95903627 2.04102548 7.94826422 2.8125 10.9375 C3.07353516 11.95908203 3.33457031 12.98066406 3.60351562 14.03320312 C4.99621081 19.41485243 6.52622163 24.68536635 8.33227539 29.94165039 C9.37745171 33.16354493 10.08553142 36.44378673 10.8125 39.75 C12.30356056 46.3403842 14.04505085 52.82650068 15.9375 59.3125 C17.93921317 66.17730551 19.80586991 73.05283304 21.5 80 C23.15966569 86.7994262 24.97740117 93.53110453 26.9375 100.25 C29.42958115 108.79975532 31.6269616 117.40022747 33.74755859 126.04882812 C35.59564299 133.52796418 37.65345015 140.92708385 39.8137207 148.32128906 C41.81722098 155.22626859 43.5960942 162.17358431 45.26391602 169.16699219 C46.19612355 173.02255382 47.2276314 176.78204891 48.515625 180.53515625 C49.99960446 184.86496224 51.0750702 189.22171665 52.0625 193.6875 C52.9391793 197.62023406 53.81270294 201.45377129 55.12109375 205.26953125 C56 208 56 208 56 212 C53.515625 213.88671875 53.515625 213.88671875 50.25 215.6875 C49.18265625 216.28949219 48.1153125 216.89148438 47.015625 217.51171875 C44.59866405 218.70454533 42.6271391 219.52175866 40 220 C40 220.66 40 221.32 40 222 C38.6875 222.72916667 37.375 223.45833333 36.0625 224.1875 C35.24265625 224.64382813 34.4228125 225.10015625 33.578125 225.5703125 C31.92483837 226.48713509 30.26881306 227.39904647 28.609375 228.3046875 C25.17631032 230.18469911 21.83158817 232.06392953 18.625 234.3125 C16 236 16 236 13 236 C13 236.66 13 237.32 13 238 C11.56705502 238.84114171 10.12845595 239.67265687 8.6875 240.5 C7.88699219 240.9640625 7.08648438 241.428125 6.26171875 241.90625 C4 243 4 243 1 243 C-10.03121519 221.79595888 -20.81168469 200.47361977 -31.44726562 179.06835938 C-36.78034442 168.34851937 -42.2164986 157.69635978 -47.82348633 147.1171875 C-50.48782127 142.08918277 -53.07857604 137.02617345 -55.625 131.9375 C-56.05683594 131.08607422 -56.48867188 130.23464844 -56.93359375 129.35742188 C-57.33964844 128.54724609 -57.74570312 127.73707031 -58.1640625 126.90234375 C-58.51936035 126.19585693 -58.8746582 125.48937012 -59.24072266 124.76147461 C-60 123 -60 123 -60 121 C-60.94875 121.495 -61.8975 121.99 -62.875 122.5 C-66 124 -66 124 -68 124 C-60.85866427 139.07313901 -53.5523309 154.05596679 -46.08105469 168.96826172 C-44.47026845 172.1843621 -42.86388952 175.40263947 -41.2578125 178.62109375 C-40.22421549 180.68762864 -39.19037105 182.7540398 -38.15625 184.8203125 C-37.68127075 185.77229523 -37.2062915 186.72427795 -36.71691895 187.70510864 C-36.2721521 188.59149017 -35.82738525 189.4778717 -35.36914062 190.39111328 C-34.98262329 191.16335236 -34.59610596 191.93559143 -34.19787598 192.73123169 C-32.88757362 195.21293475 -31.44381453 197.59389127 -30 200 C-29.16638503 201.57235079 -28.3494258 203.15362859 -27.5480957 204.74267578 C-27.087845 205.65356964 -26.6275943 206.5644635 -26.15339661 207.50296021 C-25.66578354 208.47393646 -25.17817047 209.44491272 -24.67578125 210.4453125 C-24.16951706 211.45214081 -23.66325287 212.45896912 -23.14164734 213.49630737 C-22.07564835 215.61888183 -21.01079766 217.74203332 -19.94702148 219.86572266 C-18.31349114 223.12302364 -16.67148529 226.37596357 -15.02929688 229.62890625 C-13.99426523 231.69244437 -12.95974234 233.75623776 -11.92578125 235.8203125 C-11.43209549 236.79533722 -10.93840973 237.77036194 -10.42976379 238.77493286 C-9.97896957 239.6795224 -9.52817535 240.58411194 -9.0637207 241.51611328 C-8.46440483 242.70927658 -8.46440483 242.70927658 -7.85298157 243.92654419 C-7 246 -7 246 -7 249 C-9.53184488 251.35723489 -10.47190093 252 -14 252 C-14 252.66 -14 253.32 -14 254 C-15.17755859 254.56267578 -15.17755859 254.56267578 -16.37890625 255.13671875 C-22.34441509 258.04261692 -27.68833177 261.04228642 -33 265 C-34.67861472 265.98183125 -36.35810859 266.96280409 -38.05859375 267.90625 C-40.36040393 269.20304447 -42.61542497 270.56848391 -44.875 271.9375 C-48.19018643 273.92863332 -51.51387905 275.89975683 -54.875 277.8125 C-55.57367187 278.21082031 -56.27234375 278.60914063 -56.9921875 279.01953125 C-58.98792806 279.99410495 -60.83153434 280.54783115 -63 281 C-63 281.66 -63 282.32 -63 283 C-64.3125 283.72916667 -65.625 284.45833333 -66.9375 285.1875 C-67.75734375 285.64382813 -68.5771875 286.10015625 -69.421875 286.5703125 C-71.07516163 287.48713509 -72.73118694 288.39904647 -74.390625 289.3046875 C-77.82368968 291.18469911 -81.16841183 293.06392953 -84.375 295.3125 C-87 297 -87 297 -90 297 C-90 297.66 -90 298.32 -90 299 C-90.78503906 299.37511719 -91.57007813 299.75023437 -92.37890625 300.13671875 C-98.33662362 303.03882156 -103.71681447 306.01065582 -109 310 C-113.55172414 313 -113.55172414 313 -117 313 C-117 313.66 -117 314.32 -117 315 C-118.65 315.66 -120.3 316.32 -122 317 C-122 288.62 -122 260.24 -122 231 C-126.62 231 -131.24 231 -136 231 C-135.98889694 232.1835054 -135.97779388 233.3670108 -135.96635437 234.58638 C-135.86511161 245.72548231 -135.7900986 256.86449161 -135.74093914 268.00394917 C-135.71481622 273.73126168 -135.67936844 279.45820356 -135.62280273 285.18530273 C-135.56857993 290.70959821 -135.53859979 296.23353663 -135.52561378 301.75807762 C-135.51635645 303.86850801 -135.49827944 305.97891829 -135.47134972 308.08919716 C-135.43518909 311.03947198 -135.43004924 313.98826089 -135.43237305 316.9387207 C-135.41439667 317.81625504 -135.39642029 318.69378937 -135.37789917 319.59791565 C-135.39710593 321.84312234 -135.45449768 323.82225223 -136 326 C-138.85453034 328.512121 -140.20791815 329 -144 329 C-144 329.66 -144 330.32 -144 331 C-144.78503906 331.37511719 -145.57007813 331.75023437 -146.37890625 332.13671875 C-153.47970918 335.56839662 -153.47970918 335.56839662 -160.0625 339.875 C-163 342 -163 342 -166 342 C-166 342.66 -166 343.32 -166 344 C-167.3125 344.72916667 -168.625 345.45833333 -169.9375 346.1875 C-170.75734375 346.64382813 -171.5771875 347.10015625 -172.421875 347.5703125 C-174.07516163 348.48713509 -175.73118694 349.39904647 -177.390625 350.3046875 C-180.82368968 352.18469911 -184.16841183 354.06392953 -187.375 356.3125 C-190 358 -190 358 -193 358 C-193 358.66 -193 359.32 -193 360 C-194.01707031 360.54527344 -194.01707031 360.54527344 -195.0546875 361.1015625 C-200.81118981 364.21103051 -206.45281586 367.4345571 -212.00390625 370.8984375 C-214 372 -214 372 -216 372 C-218.83153897 180.52965028 -218.83153897 180.52965028 -219 58 C-215.53962465 57.04872416 -212.07847235 56.10030449 -208.6171875 55.15234375 C-207.65063232 54.88659546 -206.68407715 54.62084717 -205.68823242 54.3470459 C-199.52124555 52.65985138 -193.33877866 51.06759234 -187.125 49.5625 C-178.577206 47.46487657 -170.15405037 45.02458313 -161.71801758 42.51806641 C-155.28064329 40.62102982 -148.84093855 38.95051225 -142.29345703 37.48583984 C-135.78836207 36.00818934 -129.40952712 34.1476816 -123.00708008 32.28100586 C-117.03418251 30.55093643 -111.04105123 28.97328165 -105 27.5 C-96.22887433 25.35752765 -87.56349144 22.91347182 -78.890625 20.40625 C-69.94520351 17.82278464 -60.94417101 15.47337696 -51.90332031 13.24804688 C-42.18748126 10.85379994 -32.56946585 8.20431895 -22.95703125 5.42578125 C-18.43962537 4.12121953 -13.91415686 2.85172328 -9.375 1.625 C-8.20710937 1.30789062 -7.03921875 0.99078125 -5.8359375 0.6640625 C-3 0 -3 0 0 0 Z " fill="#15FD00" transform="translate(721,118)"/>
<path d="M0 0 C0.02377477 11.07995735 0.04123078 22.1599081 0.05181217 33.23988628 C0.05690528 38.39162316 0.06373506 43.54334193 0.07543945 48.69506836 C0.12839929 72.68313661 -0.03463968 96.65156169 -0.54183769 120.63454247 C-0.94242901 139.745495 -1.15398926 158.85444465 -1.28125 177.96875 C-1.29089387 179.39231177 -1.30054315 180.8158735 -1.31019783 182.2394352 C-1.3879486 193.79124089 -1.45759305 205.34309464 -1.52606201 216.8949585 C-1.58596769 226.98208593 -1.6492349 237.06918391 -1.71875 247.15625 C-1.72578194 248.18775806 -1.72578194 248.18775806 -1.73295593 249.24010468 C-1.88385224 271.16915508 -2.22023359 293.0836832 -3 315 C-4.06903564 315.26225121 -4.06903564 315.26225121 -5.15966797 315.52980042 C-16.93483806 318.42040458 -28.65517678 321.35543901 -40.24609375 324.921875 C-42.96625894 325.70310871 -45.6154282 326.37614676 -48.375 326.96875 C-53.17604333 328.0037788 -57.85437033 329.35896169 -62.5625 330.75 C-70.41746733 333.03714843 -78.3041923 335.11535094 -86.25 337.0625 C-93.72789338 338.89633193 -101.12446012 340.86319165 -108.48925781 343.10571289 C-115.64015296 345.25252037 -122.88723104 346.99101434 -130.13671875 348.76953125 C-135.97136999 350.21155532 -141.75072469 351.74923836 -147.5 353.5 C-155.29919324 355.87499991 -163.18675437 357.82025695 -171.10375977 359.76074219 C-177.97091752 361.45682429 -184.75450868 363.33666972 -191.52539062 365.38012695 C-196.31795583 366.82110264 -201.0967529 368.01552739 -206 369 C-207.68817053 369.37196978 -209.37567752 369.74696405 -211.0625 370.125 C-212.375 370.41666667 -213.6875 370.70833333 -215 371 C-215.62849414 368.85518747 -216.25260258 366.70908965 -216.875 364.5625 C-217.39707031 362.77005859 -217.39707031 362.77005859 -217.9296875 360.94140625 C-218.70483598 358.18536162 -219.36036266 355.42410776 -219.9609375 352.625 C-221.00274286 347.82565476 -222.35901175 343.14546022 -223.75 338.4375 C-226.03714843 330.58253267 -228.11535094 322.6958077 -230.0625 314.75 C-231.89633193 307.27210662 -233.86319165 299.87553988 -236.10571289 292.51074219 C-238.25252037 285.35984704 -239.99101434 278.11276896 -241.76953125 270.86328125 C-243.21155532 265.02863001 -244.74923836 259.24927531 -246.5 253.5 C-248.87588033 245.69791557 -250.82163232 237.80736306 -252.76293945 229.88745117 C-254.43685304 223.11023473 -256.2911616 216.41781485 -258.31640625 209.73828125 C-259.8436573 204.66066737 -261.04613611 199.55786015 -262.1875 194.3828125 C-263.15931177 190.33671156 -264.31194745 186.36202382 -265.5 182.375 C-265.71479004 181.65151367 -265.92958008 180.92802734 -266.15087891 180.18261719 C-267.09803628 177.00126994 -268.05402082 173.82309212 -269.0234375 170.6484375 C-269.30445313 169.69195313 -269.58546875 168.73546875 -269.875 167.75 C-270.11992187 166.94046875 -270.36484375 166.1309375 -270.6171875 165.296875 C-271.08757329 162.47456028 -270.96255802 160.70222711 -270 158 C-268.03125 156.375 -268.03125 156.375 -265.5 155 C-264.60152344 154.50242187 -263.70304688 154.00484375 -262.77734375 153.4921875 C-261.86082031 152.99976563 -260.94429687 152.50734375 -260 152 C-259.15566406 151.50757813 -258.31132812 151.01515625 -257.44140625 150.5078125 C-251.40677966 147 -251.40677966 147 -248 147 C-248 146.34 -248 145.68 -248 145 C-245.7140617 143.4670058 -243.44192427 142.06139469 -241.0625 140.6875 C-240.37897461 140.28668213 -239.69544922 139.88586426 -238.99121094 139.47290039 C-236.9982661 138.30799351 -234.99940865 137.15376391 -233 136 C-232.04480469 135.43796875 -231.08960938 134.8759375 -230.10546875 134.296875 C-224.39278017 131 -224.39278017 131 -221 131 C-221 130.34 -221 129.68 -221 129 C-219.12890625 127.66796875 -219.12890625 127.66796875 -216.5625 126.1875 C-215.19738281 125.39472656 -215.19738281 125.39472656 -213.8046875 124.5859375 C-210.53767098 122.73857161 -207.26577433 120.9020327 -203.97265625 119.1015625 C-202.32655036 118.18235089 -200.71988153 117.19296879 -199.125 116.1875 C-197 115 -197 115 -194 115 C-194 114.34 -194 113.68 -194 113 C-192.12890625 111.66796875 -192.12890625 111.66796875 -189.5625 110.1875 C-188.19738281 109.39472656 -188.19738281 109.39472656 -186.8046875 108.5859375 C-183.53767098 106.73857161 -180.26577433 104.9020327 -176.97265625 103.1015625 C-175.32655036 102.18235089 -173.71988153 101.19296879 -172.125 100.1875 C-170 99 -170 99 -167 99 C-167 98.34 -167 97.68 -167 97 C-165.12890625 95.66796875 -165.12890625 95.66796875 -162.5625 94.1875 C-161.655 93.66285156 -160.7475 93.13820313 -159.8125 92.59765625 C-158.884375 92.07042969 -157.95625 91.54320312 -157 91 C-155.7315625 90.25556641 -155.7315625 90.25556641 -154.4375 89.49609375 C-148.38158832 86 -148.38158832 86 -145 86 C-145 85.34 -145 84.68 -145 84 C-142.7140617 82.4670058 -140.44192427 81.06139469 -138.0625 79.6875 C-137.37897461 79.28668213 -136.69544922 78.88586426 -135.99121094 78.47290039 C-133.9982661 77.30799351 -131.99940865 76.15376391 -130 75 C-129.04480469 74.43796875 -128.08960938 73.8759375 -127.10546875 73.296875 C-121.39278017 70 -121.39278017 70 -118 70 C-118 69.34 -118 68.68 -118 68 C-111.25 64 -111.25 64 -109 64 C-108.67 95.68 -108.34 127.36 -108 160 C-103.38 160 -98.76 160 -94 160 C-94.03029297 158.73784668 -94.06058594 157.47569336 -94.09179688 156.17529297 C-94.3735263 144.20221846 -94.60851077 132.22901315 -94.80111694 120.25416565 C-94.92555017 112.69405587 -95.09434217 105.1364186 -95.29168701 97.57788086 C-95.41078356 92.64139663 -95.49095202 87.70478511 -95.56176758 82.76739502 C-95.60382499 80.38632015 -95.66185925 78.00547238 -95.73608398 75.62518311 C-95.83758885 72.28448928 -95.88232676 68.94745282 -95.9140625 65.60546875 C-95.97897385 64.12280266 -95.97897385 64.12280266 -96.04519653 62.61018372 C-96.03752583 59.80256711 -95.9268985 57.65290762 -95 55 C-92.31152427 52.32626023 -89.37232199 50.68446743 -86 49 C-84.51895546 48.1700087 -83.03950117 47.33716546 -81.5625 46.5 C-80.82902344 46.10425781 -80.09554687 45.70851563 -79.33984375 45.30078125 C-75.87058467 43.37212804 -72.52169009 41.25255709 -69.1640625 39.13671875 C-67 38 -67 38 -64 38 C-64 37.34 -64 36.68 -64 36 C-62.12890625 34.66796875 -62.12890625 34.66796875 -59.5625 33.1875 C-58.65242187 32.65898438 -57.74234375 32.13046875 -56.8046875 31.5859375 C-53.53767098 29.73857161 -50.26577433 27.9020327 -46.97265625 26.1015625 C-45.32655036 25.18235089 -43.71988153 24.19296879 -42.125 23.1875 C-40 22 -40 22 -37 22 C-37 21.34 -37 20.68 -37 20 C-35.12890625 18.66796875 -35.12890625 18.66796875 -32.5625 17.1875 C-31.655 16.66285156 -30.7475 16.13820313 -29.8125 15.59765625 C-28.4203125 14.80681641 -28.4203125 14.80681641 -27 14 C-26.154375 13.50371094 -25.30875 13.00742187 -24.4375 12.49609375 C-18.38158832 9 -18.38158832 9 -15 9 C-15 8.34 -15 7.68 -15 7 C-12.87767021 5.82823482 -10.75242209 4.66245215 -8.625 3.5 C-7.72007812 2.99919922 -7.72007812 2.99919922 -6.796875 2.48828125 C-2.2265625 0 -2.2265625 0 0 0 Z " fill="#FE0000" transform="translate(494,511)"/>
<path d="M0 0 C3.29825827 2.13155425 5.93591293 4.87486318 8.68543625 7.65111732 C9.32997167 8.2939439 9.97450709 8.93677047 10.63857388 9.59907663 C12.8006001 11.75780433 14.95539293 13.92361069 17.11030197 16.0894413 C18.6572408 17.63694416 20.20461995 19.18400698 21.75240707 20.73066139 C25.95693988 24.93461939 30.15526926 29.14472399 34.35253429 33.35593653 C38.7385375 37.7544256 43.13018911 42.14726751 47.52125168 46.54070473 C54.89188732 53.91685423 62.25902005 61.29648715 69.62348557 68.67879677 C77.20870615 76.28237721 84.79602583 83.88385288 92.38618088 91.48250771 C92.85408829 91.95094056 93.3219957 92.41937342 93.80408213 92.90200122 C96.15146435 95.25199353 98.49889018 97.60194227 100.84633207 99.95187497 C120.31857543 119.44503454 139.78367116 138.94531845 159.24409103 158.45028114 C157.592862 162.67863549 154.46073975 165.52697486 151.31141281 168.67057228 C150.39027502 169.60168179 150.39027502 169.60168179 149.45052838 170.55160159 C147.38877371 172.63306229 145.31990364 174.7072996 143.25092697 176.78157997 C141.77232036 178.27108029 140.29410406 179.76096814 138.81624985 181.25121498 C134.79859178 185.29938999 130.77419338 189.34079614 126.7475996 193.38008142 C124.23376337 195.90199802 121.72098116 198.4249604 119.20848465 200.94821167 C111.35169587 208.83771538 103.49051242 216.72280446 95.62344813 224.60206205 C86.53260723 233.70717605 77.45679095 242.82692804 68.39352393 251.95948774 C61.39172219 259.01297602 54.37662114 266.05305466 47.35125756 273.08307475 C43.15288763 277.28485067 38.9605018 281.49221954 34.7819252 285.7136879 C30.85406196 289.68116147 26.91003012 293.63179979 22.95276833 297.56994438 C21.50106218 299.02037941 20.05536163 300.47685325 18.61609459 301.93963242 C16.65468298 303.93125116 14.67306097 305.90024508 12.68470383 307.86490822 C11.83166597 308.74648455 11.83166597 308.74648455 10.96139503 309.64587051 C9.33501434 311.22627926 9.33501434 311.22627926 6.24409103 313.45028114 C1.6728552 313.35223788 -1.45432826 311.77647672 -5.37309647 309.50887489 C-6.90063553 308.63392372 -6.90063553 308.63392372 -8.45903397 307.74129677 C-9.50575272 307.12963661 -10.55247147 306.51797646 -11.63090897 305.88778114 C-12.70083084 305.2722538 -13.77075272 304.65672646 -14.87309647 304.02254677 C-17.50552289 302.50655119 -20.13278139 300.98229183 -22.75590897 299.45028114 C-22.14738034 296.13472215 -21.00487661 294.16700689 -18.91215897 291.54403114 C-18.33030838 290.80692909 -17.74845779 290.06982704 -17.14897537 289.31038857 C-16.52426346 288.53155312 -15.89955154 287.75271767 -15.25590897 286.95028114 C-13.96087363 285.3115621 -12.6666015 283.67223963 -11.37309647 282.03231239 C-10.74500076 281.23905556 -10.11690506 280.44579872 -9.46977615 279.6285038 C-7.39806742 276.99548594 -5.38047912 274.32591922 -3.38090897 271.63778114 C0.66153792 266.2104219 4.76196951 260.82883986 8.86909103 255.45028114 C14.23994022 248.41534918 19.57296404 241.35411137 24.86909103 234.26278114 C30.3042967 226.98697653 35.83952613 219.79726447 41.43647385 212.6453495 C45.8396879 207.00620146 50.10450617 201.28683868 54.24409103 195.45028114 C53.58819365 193.4676332 53.58819365 193.4676332 52.24409103 191.45028114 C50.60028114 190.72909375 48.93376516 190.05627089 47.24409103 189.45028114 C39.2435247 199.91878651 31.26167138 210.40002634 23.36909103 220.95028114 C18.14134489 227.93655512 12.86539037 234.87982041 7.52924728 241.78377724 C2.7445578 247.9882397 -2.00133929 254.2227321 -6.75590897 260.45028114 C-7.41494217 261.31346962 -8.07397537 262.1766581 -8.75297928 263.0660038 C-16.46056441 273.16428361 -24.16405868 283.26454867 -31.75590897 293.45028114 C-35.62511253 291.99699441 -39.1648368 290.21313861 -42.77934647 288.21199989 C-43.64020355 287.73672104 -43.64020355 287.73672104 -44.51845169 287.25184059 C-46.39095235 286.2168259 -48.26098941 285.17745071 -50.13090897 284.13778114 C-51.44235896 283.41124882 -52.75388326 282.68485061 -54.06547928 281.95858192 C-63.76865022 276.57965021 -73.43433155 271.13545552 -83.08403397 265.66121864 C-89.12827075 262.23418279 -95.19124701 258.84100396 -101.25590897 255.45028114 C-110.21475835 250.44012548 -119.15876717 245.40464527 -128.0896492 240.34481239 C-133.04351543 237.54046492 -138.0045936 234.75008438 -142.97856522 231.98153114 C-144.03688553 231.39178505 -145.09520584 230.80203896 -146.18559647 230.19442177 C-148.156898 229.09693282 -150.12938654 228.00157055 -152.10356522 226.90926552 C-154.0820311 225.80724915 -156.03738625 224.66312874 -157.97294998 223.48739052 C-161.00061899 221.73075787 -164.09567245 220.56623078 -167.38066483 219.36629677 C-173.78375803 216.75348574 -179.49576934 214.06507394 -183.75590897 208.45028114 C-187.24740562 197.94516484 -185.96795956 186.2923589 -185.32481766 175.40798378 C-185.10938003 171.37870973 -185.018406 167.34705479 -184.91801834 163.31356239 C-184.74892043 157.01865227 -184.48423524 150.73540179 -184.15239334 144.44710732 C-183.84493187 138.59317875 -183.72986073 132.77752733 -183.79692459 126.9163456 C-183.79947321 125.57780579 -183.80073131 124.23926282 -183.80060196 122.9007206 C-183.80956568 120.4465313 -183.8567929 117.99203963 -183.95084 115.53963661 C-183.93119934 110.74935402 -183.8776184 107.70715088 -180.60768509 104.04320717 C-176.03699602 100.483092 -171.14896517 97.72318558 -165.77153397 95.55965614 C-158.49093496 92.43009738 -151.88205351 88.5167125 -145.13090897 84.38778114 C-142.85142664 83.0248213 -140.56525864 81.67357004 -138.27934647 80.32137489 C-136.62757401 79.34080116 -136.62757401 79.34080116 -134.9424324 78.34041786 C-130.21720788 75.53757628 -125.48677809 72.74358108 -120.75590897 69.95028114 C-101.38723941 58.50905377 -82.0282809 47.05325991 -62.75590897 35.45028114 C-59.07094825 40.27309092 -56.20618584 45.11500105 -54.06865311 50.7859745 C-51.33642833 57.69668286 -48.00089558 64.30872634 -44.68950272 70.95418739 C-44.00732464 72.32752776 -43.3252018 73.70089555 -42.64313126 75.07428932 C-41.22312832 77.93066586 -39.79970634 80.78530972 -38.37431717 83.63900185 C-36.54676373 87.29953934 -34.73229353 90.9664026 -32.92074871 94.63488293 C-31.52143898 97.46316358 -30.11321231 100.28693245 -28.70242882 103.1095047 C-28.02893366 104.46070417 -27.35873952 105.81355422 -26.6919117 107.16805649 C-25.7635287 109.05156023 -24.82282091 110.92838217 -23.8787117 112.80404091 C-23.34672668 113.87308159 -22.81474167 114.94212227 -22.26663589 116.04355812 C-20.92499946 118.74690598 -20.92499946 118.74690598 -17.75590897 119.45028114 C-14.60570536 118.56708821 -14.60570536 118.56708821 -11.75590897 117.45028114 C-22.24928908 96.22612791 -22.24928908 96.22612791 -33.13090897 75.20028114 C-36.53379831 68.79702545 -39.86874982 62.36403815 -43.13090897 55.88778114 C-43.53615799 55.09017372 -43.94140701 54.2925663 -44.35893631 53.47078896 C-48.08868444 46.02374074 -51.24640295 38.3970502 -53.75590897 30.45028114 C-48.46136161 27.26454958 -43.1648019 24.08234501 -37.86047745 20.91291237 C-37.27940735 20.56559563 -36.69833725 20.21827888 -36.09965897 19.86043739 C-35.20853661 19.32780029 -35.20853661 19.32780029 -34.29941177 18.78440285 C-30.55105016 16.53916417 -26.82025498 14.26735071 -23.10043716 11.97515297 C-20.64848358 10.46697343 -18.18897448 8.97140685 -15.72822952 7.47762489 C-14.53946998 6.75174679 -13.35419403 6.02013231 -12.17250443 5.28280067 C-10.51532612 4.24977875 -8.84485455 3.23817457 -7.17387772 2.22762489 C-5.74724808 1.34965248 -5.74724808 1.34965248 -4.29179764 0.45394325 C-1.75590897 -0.54971886 -1.75590897 -0.54971886 0 0 Z " fill="#56E0FD" transform="translate(781.7559089660645,340.5497188568115)"/>
<path d="M0 0 C0.09466717 17.17157282 -0.1833459 34.3362865 -0.46356201 51.50482178 C-0.52505113 55.29356061 -0.58470308 59.08232839 -0.64453125 62.87109375 C-0.76127042 70.24742454 -0.87997266 77.6237219 -1 85 C-2.88978196 84.06261421 -4.77868873 83.12346392 -6.66723633 82.18359375 C-7.71921707 81.66079834 -8.77119781 81.13800293 -9.85505676 80.59936523 C-14.55038287 78.21155065 -19.11820279 75.61880764 -23.6875 73 C-25.68846167 71.86007933 -27.68977695 70.7207792 -29.69140625 69.58203125 C-30.72023926 68.99631348 -31.74907227 68.4105957 -32.80908203 67.80712891 C-37.1530039 65.3470134 -41.51595912 62.92167171 -45.87841797 60.49462891 C-55.38754073 55.20161291 -64.83211544 49.86890423 -74 44 C-70.31839607 40.87894103 -66.47787128 38.47435193 -62.25 36.1875 C-55.13348916 32.25921284 -48.14858709 28.1344019 -41.1875 23.9375 C-32.4125478 18.65162948 -23.63126108 13.37753955 -14.82363892 8.14627075 C-13.61054646 7.42534178 -12.39795818 6.70356377 -11.18588257 5.98092651 C-9.50017792 4.97605942 -7.81263453 3.97427879 -6.125 2.97265625 C-5.15820312 2.39781494 -4.19140625 1.82297363 -3.1953125 1.23071289 C-1 0 -1 0 0 0 Z " fill="#56DDFA" transform="translate(585,456)"/>
<path d="M0 0 C3.96 0 7.92 0 12 0 C16.84756493 9.19172888 20.64530253 18.73920811 24.5 28.375 C25.48134077 30.81744814 26.46386732 33.2594159 27.44677734 35.70123291 C28.08084078 37.27715483 28.71399548 38.85344273 29.34619141 40.43011475 C31.55391876 45.92779741 33.83095053 51.39113486 36.16992188 56.83447266 C37 59 37 59 37 61 C32.05 61 27.1 61 22 61 C17.54035814 50.00727241 13.18013891 38.99729023 9.17163086 27.83081055 C8.07091046 24.13518659 8.07091046 24.13518659 6 21 C5.61142822 22.14065918 5.22285645 23.28131836 4.82250977 24.45654297 C3.38334542 28.68001259 1.94232311 32.90284629 0.50073242 37.12548828 C-0.12347472 38.95474168 -0.74717478 40.78416819 -1.37036133 42.61376953 C-2.26511172 45.24036376 -3.16167131 47.86633431 -4.05859375 50.4921875 C-4.3377916 51.31306854 -4.61698944 52.13394958 -4.90464783 52.97970581 C-6.88612829 58.77225659 -6.88612829 58.77225659 -8 61 C-12.62 61 -17.24 61 -22 61 C-21.33943349 57.03660092 -20.8443874 54.16768356 -19.49707031 50.56201172 C-19.04089325 49.32945145 -19.04089325 49.32945145 -18.57550049 48.07199097 C-18.24636658 47.20003082 -17.91723267 46.32807068 -17.578125 45.4296875 C-17.2362616 44.51220734 -16.89439819 43.59472717 -16.54217529 42.64944458 C-15.81843016 40.71032862 -15.09207422 38.77218537 -14.36328125 36.83496094 C-13.26232527 33.90777009 -12.16951568 30.97764381 -11.078125 28.046875 C-7.55677073 18.61902458 -3.96307698 9.25238052 0 0 Z " fill="#060600" transform="translate(379,221)"/>
<path d="M0 0 C1.39456867 0.00574201 2.78910972 0.01875397 4.18359375 0.03515625 C6.15380493 0.05171265 6.15380493 0.05171265 8.16381836 0.06860352 C9.30471924 0.07819092 10.44562012 0.08777832 11.62109375 0.09765625 C7.15943935 13.00936106 2.54624714 25.85414524 -2.26074219 38.64135742 C-3.27778699 41.34872668 -4.28940538 44.05808671 -5.30078125 46.76757812 C-5.94890082 48.49621299 -6.59732579 50.22473338 -7.24609375 51.953125 C-7.54707977 52.7601738 -7.8480658 53.5672226 -8.15817261 54.39872742 C-10.2641026 59.9828526 -10.2641026 59.9828526 -11.37890625 61.09765625 C-15.37875103 61.24112271 -19.37720607 61.13977941 -23.37890625 61.09765625 C-26.7404213 53.81529119 -29.93723341 46.48383619 -32.98828125 39.06640625 C-33.40055969 38.06806763 -33.81283813 37.069729 -34.23760986 36.0411377 C-35.09895252 33.95424105 -35.95935642 31.86695671 -36.81884766 29.77929688 C-38.13734213 26.57716865 -39.45906871 23.37638869 -40.78125 20.17578125 C-41.62128203 18.13940057 -42.4611324 16.10294495 -43.30078125 14.06640625 C-43.89291412 12.63210266 -43.89291412 12.63210266 -44.49700928 11.16882324 C-44.86118958 10.28359985 -45.22536987 9.39837646 -45.60058594 8.48632812 C-45.92081726 7.70898315 -46.24104858 6.93163818 -46.57098389 6.1307373 C-47.22931082 4.47410286 -47.81518362 2.78882414 -48.37890625 1.09765625 C-43.09890625 1.09765625 -37.81890625 1.09765625 -32.37890625 1.09765625 C-31.75060913 2.77106079 -31.75060913 2.77106079 -31.10961914 4.47827148 C-29.55994763 8.60349069 -28.00671901 12.72736277 -26.45239258 16.85083008 C-25.77921453 18.63822264 -25.10701145 20.4259827 -24.43579102 22.21411133 C-23.47275676 24.77912287 -22.50626362 27.34280727 -21.5390625 29.90625 C-21.23799088 30.71041855 -20.93691925 31.5145871 -20.62672424 32.34312439 C-19.4668069 35.9937403 -19.4668069 35.9937403 -17.37890625 39.09765625 C-16.99033447 37.95176025 -16.6017627 36.80586426 -16.20141602 35.62524414 C-14.76378791 31.38823048 -13.32230779 27.15253594 -11.87963867 22.91723633 C-11.25488213 21.08133322 -10.63118152 19.24507043 -10.00854492 17.40844727 C-9.11522022 14.77395669 -8.21814968 12.14076809 -7.3203125 9.5078125 C-7.04111465 8.68177017 -6.76191681 7.85572784 -6.47425842 7.00465393 C-4.11910663 0.11904932 -4.11910663 0.11904932 0 0 Z " fill="#050000" transform="translate(409.37890625,677.90234375)"/>
<path d="M0 0 C1.65322266 0.01740234 1.65322266 0.01740234 3.33984375 0.03515625 C4.44457031 0.04417969 5.54929687 0.05320312 6.6875 0.0625 C7.54214844 0.07410156 8.39679687 0.08570313 9.27734375 0.09765625 C12.14067018 6.39985929 14.78658034 12.76439906 17.31640625 19.20703125 C17.68333588 20.13686829 18.0502655 21.06670532 18.42831421 22.02471924 C19.58814244 24.96498527 20.74530688 27.90629081 21.90234375 30.84765625 C22.68601716 32.83600875 23.46986974 34.82429065 24.25390625 36.8125 C27.92256744 46.1163336 27.92256744 46.1163336 29.46612549 50.05505371 C30.12559811 51.71556915 30.81500746 53.36417186 31.51318359 55.00878906 C32.27734375 57.09765625 32.27734375 57.09765625 32.27734375 60.09765625 C27.32734375 60.09765625 22.37734375 60.09765625 17.27734375 60.09765625 C15.4199509 54.88532857 13.56870369 49.67087518 11.72314453 44.4543457 C11.09430128 42.67965721 10.46377596 40.90556381 9.83154297 39.13208008 C8.92363826 36.58438831 8.02178301 34.03462516 7.12109375 31.484375 C6.83673462 30.69052902 6.55237549 29.89668304 6.25939941 29.07878113 C5.16656958 25.96937072 4.27734375 23.41911946 4.27734375 20.09765625 C3.61734375 20.09765625 2.95734375 20.09765625 2.27734375 20.09765625 C2.12676514 20.71552002 1.97618652 21.33338379 1.82104492 21.9699707 C-0.32314354 30.31473538 -3.30635606 38.26543014 -6.41015625 46.28515625 C-6.9269158 47.63197604 -7.44319497 48.97898025 -7.95898438 50.32617188 C-9.20716044 53.5858548 -10.46504783 56.84153937 -11.72265625 60.09765625 C-16.67265625 60.09765625 -21.62265625 60.09765625 -26.72265625 60.09765625 C-24.4555103 53.04837791 -21.84634049 46.18766579 -19.08984375 39.31640625 C-18.65253937 38.22171021 -18.21523499 37.12701416 -17.76467896 35.99914551 C-16.84650598 33.70269788 -15.92704177 31.40676614 -15.00634766 29.11132812 C-13.59148827 25.58227159 -12.18221357 22.05101996 -10.7734375 18.51953125 C-9.87923828 16.28502335 -8.98471856 14.05064368 -8.08984375 11.81640625 C-7.66694061 10.75611206 -7.24403748 9.69581787 -6.80831909 8.60339355 C-6.22233444 7.14552429 -6.22233444 7.14552429 -5.62451172 5.65820312 C-5.28048309 4.79932495 -4.93645447 3.94044678 -4.58200073 3.05554199 C-3.29271618 0.11810316 -3.29271618 0.11810316 0 0 Z " fill="#000400" transform="translate(587.72265625,281.90234375)"/>
<path d="M0 0 C2.64 1.98 5.28 3.96 8 6 C6.68941181 12.67208533 4.79443367 19.04967431 2.67700195 25.50195312 C1.72245802 28.45437141 1 30.87536577 1 34 C4.08510541 32.06531086 7.16776496 30.12675819 10.25 28.1875 C11.12269531 27.64029297 11.99539063 27.09308594 12.89453125 26.52929688 C13.73886719 25.99755859 14.58320312 25.46582031 15.453125 24.91796875 C16.22817383 24.43094482 17.00322266 23.9439209 17.80175781 23.44213867 C19.93766777 22.04089254 21.97445314 20.55547473 24 19 C27.82502165 20.55834215 30.14783821 23.07215896 33 26 C20.43305897 33.84254102 7.81091043 41.56194847 -5 49 C-8.465 47.02 -8.465 47.02 -12 45 C-11.28644075 38.8186855 -9.78875378 32.94355617 -8.1875 26.9375 C-7.91977783 25.92413574 -7.65205566 24.91077148 -7.3762207 23.86669922 C-1.41819741 1.41819741 -1.41819741 1.41819741 0 0 Z " fill="#050107" transform="translate(652,737)"/>
<path d="M0 0 C2.09050288 4.18100576 1.88904691 9.3870044 2.35717773 13.99169922 C2.55894312 15.96520936 2.77059473 17.93770072 2.98242188 19.91015625 C3.71118863 26.96806483 4.21601602 33.90382154 4 41 C1.69 41.99 -0.62 42.98 -3 44 C-7.36848754 40.20502898 -11.70405255 36.37699282 -16 32.5 C-24.26331902 24.96484002 -24.26331902 24.96484002 -33 18 C-32.505 16.515 -32.505 16.515 -32 15 C-28.4375 13.3125 -28.4375 13.3125 -25 12 C-22.39506131 14.43667603 -19.79118463 16.87448404 -17.1875 19.3125 C-16.44951172 20.00279297 -15.71152344 20.69308594 -14.95117188 21.40429688 C-14.23896484 22.07138672 -13.52675781 22.73847656 -12.79296875 23.42578125 C-12.1383667 24.03848877 -11.48376465 24.65119629 -10.80932617 25.2824707 C-9.17905198 26.83003229 -7.58078486 28.40210245 -6 30 C-6.63436715 20.99738533 -7.29753257 11.9975615 -8 3 C-2.25 0 -2.25 0 0 0 Z " fill="#020707" transform="translate(786,455)"/>
</svg>
