<?xml version="1.0" encoding="UTF-8"?>
<svg version="1.1" xmlns="http://www.w3.org/2000/svg" width="1000" height="1000">
<path d="M0 0 C330 0 660 0 1000 0 C1000 330 1000 660 1000 1000 C670 1000 340 1000 0 1000 C0 670 0 340 0 0 Z " fill="#FEFEFE" transform="translate(0,0)"/>
<path d="M0 0 C1.55843377 0.41946633 3.11694862 0.83863152 4.67553711 1.25752258 C8.03639723 2.1614307 11.39671674 3.06731219 14.75662231 3.97476196 C20.13956936 5.42857104 25.52365501 6.87812995 30.90795898 8.3269043 C36.65824447 9.87430595 42.40847533 11.42190792 48.15834045 12.97087097 C62.88220995 16.93693085 77.6100916 20.88787966 92.33984375 24.83203125 C94.50935437 25.41303235 96.67886426 25.99403617 98.84837341 26.57504272 C107.30693225 28.84017269 115.76556892 31.10501166 124.22439575 33.36914062 C129.17323431 34.69381657 134.12182153 36.01942854 139.07031059 37.34540939 C141.89943394 38.10308665 144.72888547 38.8595289 147.55836487 39.61587524 C156.18831756 41.92551919 164.80965194 44.26058828 173.41357422 46.66552734 C174.95529103 47.09438826 176.49703327 47.52315776 178.0388031 47.951828 C180.8495842 48.73357451 183.65679054 49.52665661 186.46229553 50.32710266 C187.6928215 50.66992783 188.92334747 51.01275299 190.19116211 51.3659668 C191.24782578 51.66544724 192.30448944 51.96492767 193.39317322 52.27348328 C199.62471477 53.54425773 204.7984839 52.7905617 210.8840332 51.14404297 C211.59390821 50.95457627 212.30378323 50.76510958 213.0351696 50.56990147 C215.3955497 49.93768294 217.75235813 49.29307147 220.109375 48.6484375 C221.80238877 48.19234648 223.49561651 47.73704913 225.18904114 47.28248596 C229.77401636 46.04948923 234.35605035 44.80587061 238.93766022 43.56043625 C243.76578085 42.25005927 248.59661131 40.94975363 253.42724609 39.64868164 C261.45709242 37.48489316 269.48553732 35.31597819 277.51318359 33.14404297 C288.87432333 30.07098907 300.24082103 27.01815242 311.609375 23.97265625 C313.39008721 23.49549354 315.17079807 23.0183258 316.95150757 22.54115295 C323.89182155 20.68156789 330.83233192 18.82271652 337.77294922 16.96426392 C342.79158475 15.62031321 347.80997094 14.27543482 352.828125 12.9296875 C353.63030079 12.71458464 354.43247658 12.49948177 355.25896072 12.27786064 C365.53582506 9.52091454 375.80448789 6.73578235 386.06439209 3.91638756 C390.35167953 2.73929297 394.64075917 1.56873158 398.92938232 0.39651489 C402.20343349 -0.50237818 405.47404131 -1.41306405 408.74462891 -2.32446289 C410.66813545 -2.85100371 412.59179035 -3.37700302 414.515625 -3.90234375 C415.79200081 -4.26451492 415.79200081 -4.26451492 417.09416199 -4.63400269 C424.84386256 -6.72465218 424.84386256 -6.72465218 428.49609375 -5.09375 C431.6395269 -0.82167177 432.76372249 3.80775684 434.07714844 8.85668945 C434.31710761 9.75359466 434.55706678 10.65049986 434.80429745 11.57458401 C435.59954368 14.55432963 436.38372303 17.53687323 437.16796875 20.51953125 C437.72805024 22.62642573 438.28883997 24.73313205 438.85029602 26.83966064 C440.34865491 32.46882953 441.83765513 38.10043373 443.3247261 43.73259354 C444.85643741 49.52809253 446.39607585 55.32148364 447.93530273 61.11499023 C449.76523164 68.00426824 451.59451451 74.89371328 453.41990662 81.78419495 C456.76556963 94.4112254 460.13318382 107.03181729 463.546875 119.640625 C463.90754264 120.97473001 464.26815006 122.3088513 464.62869263 123.64299011 C466.54691771 130.73853238 466.54691771 130.73853238 468.47570801 137.83120728 C473.80861752 157.39241546 473.80861752 157.39241546 475.13452148 166.55493164 C475.6523144 169.92215887 476.52930163 173.07705008 477.49609375 176.34375 C477.82609375 177.47683594 478.15609375 178.60992187 478.49609375 179.77734375 C479.43646852 182.85166216 479.43646852 182.85166216 480.5625 185.5546875 C481.43523729 187.75296301 481.97760919 189.77908552 482.43359375 192.09375 C483.30556974 196.19676878 484.40141395 200.17353535 485.66796875 204.171875 C486.25903281 206.1235016 486.78324746 208.09588678 487.26171875 210.078125 C489.5078061 218.77660875 493.17461268 223.66002466 499.49609375 229.90625 C500.69621229 231.27025027 501.88468046 232.64463223 503.05859375 234.03125 C505.4110297 236.74142966 507.86143085 239.27914601 510.43359375 241.78125 C513.34933576 244.63009162 515.80864904 247.57868431 518.24609375 250.84375 C522.21404375 255.9759488 526.76308131 259.34693854 532.0546875 262.99609375 C534.49609375 264.90625 534.49609375 264.90625 535.49609375 267.90625 C536.82268796 268.58622797 538.15751251 269.25018409 539.49609375 269.90625 C541.15604406 271.37730944 542.76354461 272.90822143 544.33622742 274.472229 C545.0447084 275.17285497 545.0447084 275.17285497 545.76750213 275.88763499 C547.34677601 277.45192309 548.91883505 279.02326307 550.4909668 280.59472656 C551.62253355 281.71867102 552.75450167 282.84221152 553.88684082 283.96537781 C556.95975728 287.01635271 560.0260788 290.07387263 563.09058356 293.13329411 C565.00524506 295.04431245 566.92119833 296.95402594 568.83759499 298.86330414 C575.52253684 305.52375528 582.20174161 312.18990462 588.8762207 318.86083984 C595.09922988 325.08021131 601.33525377 331.28632177 607.57733315 337.48654771 C612.93572196 342.81026277 618.2844678 348.14353903 623.62589675 353.48426986 C626.8164111 356.67399058 630.01079261 359.8595931 633.21509361 363.03546906 C636.2278067 366.02205094 639.22836508 369.02032739 642.21999359 372.02802467 C643.31980488 373.12965421 644.42390248 374.22702361 645.5325489 375.31976128 C647.0458453 376.81265739 648.54290365 378.32017233 650.03691101 379.83233643 C650.87884349 380.67225758 651.72077597 381.51217873 652.58822155 382.37755203 C654.82593796 385.34342623 655.41351648 387.20448806 655.49609375 390.90625 C654.58695126 392.75056648 654.58695126 392.75056648 652.99095154 394.40725708 C652.33537703 395.09073338 651.67980251 395.77420967 651.00436211 396.47839737 C645.98073272 401.34096791 640.89472319 406.12956518 635.75933838 410.87396622 C631.90577461 414.4363464 628.06674585 418.01429332 624.22901917 421.59371948 C623.41099575 422.35668138 622.59297234 423.11964328 621.75016034 423.90572524 C610.17682506 434.72120696 598.76990767 445.71195687 587.36274052 456.70213127 C578.13647825 465.58162934 568.859379 474.39063591 559.42700195 483.05126953 C510.82484571 527.75530448 479.81186494 564.77531838 469.2300806 631.13118839 C466.28017316 649.55145745 461.3351469 667.34355127 456.27265739 685.2781601 C454.14111517 692.84975709 452.11760565 700.4506784 450.08604634 708.04957902 C449.22816435 711.25559538 448.36602624 714.46046245 447.50378746 717.66530937 C445.18936044 726.27419494 442.91719124 734.89371169 440.6636467 743.51870728 C439.53570331 747.82915344 438.39804279 752.1370502 437.26202393 756.44537354 C436.39879663 759.73807975 435.55144844 763.03459659 434.70458984 766.33154297 C434.1958623 768.26162416 433.6863183 770.19149042 433.17578125 772.12109375 C432.85232727 773.4129232 432.85232727 773.4129232 432.52233887 774.73085022 C432.20746521 775.90036476 432.20746521 775.90036476 431.88623047 777.09350586 C431.71276093 777.76328964 431.53929138 778.43307343 431.36056519 779.12315369 C430.16957454 781.57974271 428.86328866 782.57503613 426.49609375 783.90625 C424.45849609 783.90289307 424.45849609 783.90289307 422.20703125 783.34472656 C421.32241211 783.13303833 420.43779297 782.9213501 419.52636719 782.70324707 C418.52637695 782.44023804 417.52638672 782.177229 416.49609375 781.90625 C415.38008789 781.62422729 414.26408203 781.34220459 413.11425781 781.05163574 C409.10944157 780.02337568 405.1149987 778.96026211 401.12109375 777.890625 C399.58948859 777.48284662 398.05781445 777.07532726 396.52607727 776.66804504 C392.38156758 775.56514572 388.23812075 774.45830203 384.09488297 773.35063553 C380.59526103 772.41555129 377.09503313 771.48274677 373.59480381 770.54993916 C361.55998009 767.34255343 349.52762055 764.12597844 337.49609375 760.90625 C336.13261181 760.54137859 336.13261181 760.54137859 334.74158478 760.16913605 C322.2965304 756.83852853 309.85262248 753.50365535 297.40939713 750.16622162 C294.81175393 749.46959748 292.21403806 748.77324494 289.61630249 748.07696533 C273.38908529 743.72722744 257.16335299 739.37322282 240.95913124 734.93846703 C236.69545496 733.77242463 232.4303517 732.61160337 228.1656189 731.44943237 C224.91690054 730.56087307 221.67094771 729.66270959 218.42504883 728.76391602 C216.50744982 728.24058771 214.58973343 727.71768929 212.671875 727.1953125 C211.83124512 726.95901627 210.99061523 726.72272003 210.12451172 726.47926331 C208.95553345 726.16395912 208.95553345 726.16395912 207.76293945 725.84228516 C207.10203812 725.65993317 206.44113678 725.47758118 205.76020813 725.28970337 C200.37078064 724.37694289 195.56442434 724.92207219 190.33666992 726.36132812 C189.14262543 726.68522018 187.94858093 727.00911224 186.71835327 727.34281921 C185.40856405 727.70762078 184.09880139 728.07251775 182.7890625 728.4375 C181.38789385 728.82068819 179.98648884 729.20301301 178.58486938 729.58454895 C175.55127766 730.41195941 172.51920352 731.2446472 169.4881897 732.08145142 C164.60421459 733.42951363 159.71696154 734.76538571 154.82885742 736.09838867 C153.99084626 736.32691749 153.1528351 736.5554463 152.28942966 736.79090023 C150.56603047 737.2608131 148.84261524 737.73066711 147.11918449 738.20046425 C144.45575758 738.92683866 141.79262943 739.65430088 139.12953186 740.38188171 C125.93328639 743.98464073 112.72285178 747.53228317 99.50390625 751.05078125 C98.06722721 751.43323155 98.06722721 751.43323155 96.60152435 751.82340813 C88.87442886 753.87991671 81.14658315 755.9336 73.41851807 757.98646164 C66.80068644 759.74445231 60.18321035 761.50377051 53.56640625 763.265625 C52.65659248 763.50787371 51.74677872 763.75012241 50.80939484 763.99971199 C38.76946783 767.20781129 26.74570098 770.46923777 14.73828125 773.796875 C13.4056972 774.16533717 12.07309165 774.53372157 10.74046326 774.90202332 C4.79316649 776.54732219 -1.15058782 778.20366268 -7.08862305 779.88208008 C-9.10845763 780.44389463 -11.12838875 781.00536226 -13.1484375 781.56640625 C-14.03963287 781.82339294 -14.93082825 782.08037964 -15.84902954 782.34515381 C-23.45400216 784.43713992 -23.45400216 784.43713992 -27.50390625 782.90625 C-30.21256228 780.19759397 -30.51197139 777.79236636 -31.49316406 774.0859375 C-31.68292564 773.37678129 -31.87268723 772.66762508 -32.06819916 771.93697929 C-32.70428098 769.55340657 -33.3305716 767.16736817 -33.95703125 764.78125 C-34.40882595 763.08090047 -34.86125353 761.380719 -35.31427002 759.68069458 C-36.2890334 756.01766848 -37.2595534 752.35355391 -38.22680664 748.6885376 C-39.76493305 742.86071838 -41.31226075 737.03536845 -42.86132812 731.21044922 C-44.46762077 725.16881588 -46.07338979 719.12704675 -47.67602539 713.08444214 C-52.85634583 693.55397125 -58.09048716 674.03811116 -63.33403015 654.52453613 C-63.98335986 652.10772389 -64.63244295 649.69084561 -65.28137207 647.27392578 C-65.57327988 646.18730982 -65.57327988 646.18730982 -65.87108481 645.07874203 C-66.28473043 643.536884 -66.69747609 641.99478397 -67.1089319 640.45234013 C-68.14328905 636.58027054 -69.19246804 632.71379126 -70.28253365 628.85700989 C-72.63818066 620.42831344 -74.72948052 612.02890747 -76.36910689 603.42922223 C-83.56288658 566.05972451 -96.4321295 544.02510498 -124.10825491 518.30940771 C-128.73883919 513.96068539 -133.24543335 509.48652223 -137.76785278 505.02590942 C-145.33098875 497.59688886 -152.9594916 490.2408178 -160.64892578 482.94287109 C-168.53697363 475.45596088 -176.3857512 467.93144757 -184.18408203 460.35107422 C-184.66944305 459.87931188 -185.15480407 459.40754954 -185.654873 458.92149137 C-190.00943507 454.68776309 -194.35968928 450.44961718 -198.70980668 446.21132302 C-201.51938958 443.47408239 -204.32946863 440.73735281 -207.1399231 438.00100708 C-208.05024296 437.1145082 -208.96056282 436.22800932 -209.89846814 435.31464684 C-215.29214319 430.06867972 -220.71013347 424.84950393 -226.15260863 419.65418792 C-229.51276842 416.44570396 -232.86435827 413.22834494 -236.21536255 410.0103035 C-237.77137658 408.52124595 -239.33184416 407.03682649 -240.89700699 405.55738831 C-243.02879423 403.54202919 -245.14503409 401.51154268 -247.2585144 399.47702026 C-247.88348529 398.8945805 -248.50845617 398.31214073 -249.15236557 397.71205127 C-251.87156557 395.06675631 -253.34532659 393.38117153 -254.56602097 389.7253809 C-254.49293973 386.40852474 -254.04777276 385.56368444 -251.75546265 383.22938538 C-251.10186138 382.54758272 -250.44826012 381.86578007 -249.77485275 381.16331673 C-249.02544041 380.41848471 -248.27602806 379.67365269 -247.50390625 378.90625 C-246.30146208 377.6688548 -246.30146208 377.6688548 -245.0747261 376.40646172 C-242.23073286 373.49453807 -239.35789491 370.61339928 -236.47900391 367.73608398 C-235.37909016 366.63317224 -234.27937968 365.53005777 -233.17985535 364.42675781 C-230.2131696 361.45129543 -227.24330211 358.47902922 -224.27254534 355.50763202 C-222.41235202 353.64672486 -220.55287385 351.78510615 -218.69364548 349.92323494 C-212.19542186 343.41578058 -205.69464136 336.9108933 -199.19140625 330.40844727 C-193.14803505 324.36567702 -187.11026723 318.31734801 -181.07509387 312.26639122 C-175.87589333 307.05408294 -170.67281178 301.84567022 -165.46673429 296.64023072 C-162.36504462 293.53879497 -159.26489845 290.43585547 -156.16865921 287.32897758 C-153.25594288 284.40652505 -150.33839028 281.4889861 -147.41718483 278.57501984 C-146.35169959 277.51057342 -145.28788813 276.44444826 -144.22596931 275.37644386 C-138.87489104 269.99671305 -133.49496648 264.86120315 -127.38991356 260.32972813 C-123.59470648 257.46526719 -120.24351852 254.10776875 -116.7890625 250.84765625 C-114.50390625 248.90625 -114.50390625 248.90625 -112.50390625 248.90625 C-112.30023438 248.36613281 -112.0965625 247.82601562 -111.88671875 247.26953125 C-109.94576141 243.95235839 -107.21403833 241.62962702 -104.37890625 239.09375 C-103.79431641 238.56112549 -103.20972656 238.02850098 -102.60742188 237.47973633 C-98.91208788 234.12484264 -95.16163656 230.84445391 -91.28515625 227.69921875 C-86.08292021 222.46275747 -83.68095771 217.51493963 -82.1171875 210.4453125 C-81.92924118 209.65530853 -81.74129486 208.86530457 -81.5476532 208.05136108 C-80.95573523 205.54786149 -80.38579777 203.03995759 -79.81640625 200.53125 C-79.42396234 198.85643363 -79.03009359 197.18195046 -78.63476562 195.5078125 C-77.73869312 191.69511505 -76.85234037 187.88056394 -75.99382019 184.05921936 C-75.66401607 182.60986652 -75.32272528 181.16308503 -74.97065735 179.71897888 C-73.84524324 174.98832944 -73.20697774 170.37431604 -72.77488708 165.53434753 C-71.06337149 147.6160905 -65.96440536 130.52613448 -61.17401505 113.24435043 C-59.93282836 108.75370006 -58.70959922 104.25816521 -57.48510742 99.76293945 C-55.98184685 94.24819083 -54.47698167 88.73390594 -52.96388245 83.22184753 C-49.8572883 71.90177466 -46.79768317 60.57039931 -43.79117393 49.22333336 C-43.16054907 46.84346542 -42.52880506 44.46389747 -41.89668274 42.08442688 C-39.52618064 33.16192386 -39.52618064 33.16192386 -37.16793823 24.23617554 C-36.1073832 20.21116327 -35.03461455 16.18950027 -33.9609375 12.16796875 C-33.49831009 10.39885132 -33.49831009 10.39885132 -33.02633667 8.59399414 C-32.73638824 7.51456543 -32.44643982 6.43513672 -32.14770508 5.32299805 C-31.77758049 3.92527412 -31.77758049 3.92527412 -31.39997864 2.49931335 C-26.40459921 -11.95636626 -11.38317091 -3.08296501 0 0 Z " fill="#040403" transform="translate(299.50390625,111.09375)"/>
<path d="M0 0 C0.16604736 0.64960693 0.33209473 1.29921387 0.50317383 1.96850586 C1.26961522 4.95903627 2.04102548 7.94826422 2.8125 10.9375 C3.07353516 11.95908203 3.33457031 12.98066406 3.60351562 14.03320312 C4.99621081 19.41485243 6.52622163 24.68536635 8.33227539 29.94165039 C9.37745171 33.16354493 10.08553142 36.44378673 10.8125 39.75 C12.28533598 46.25708532 14.00199517 52.65970316 15.875 59.0625 C18.09669757 66.6689186 20.11432114 74.30349025 22 82 C24.08647386 90.5101686 26.36656522 98.93661533 28.8203125 107.34765625 C30.75434585 114.02057761 32.45840476 120.73286014 34.10571289 127.48144531 C35.81445407 134.41440237 37.76551585 141.26364542 39.76293945 148.11816406 C41.77958496 155.09150169 43.57979842 162.1051632 45.26367188 169.16601562 C46.1959716 173.02190333 47.2275213 176.78172811 48.515625 180.53515625 C49.99960446 184.86496224 51.0750702 189.22171665 52.0625 193.6875 C52.9391793 197.62023406 53.81270294 201.45377129 55.12109375 205.26953125 C56 208 56 208 56 212 C53.515625 213.88671875 53.515625 213.88671875 50.25 215.6875 C49.18265625 216.28949219 48.1153125 216.89148438 47.015625 217.51171875 C44.59866405 218.70454533 42.6271391 219.52175866 40 220 C40 220.66 40 221.32 40 222 C38.6875 222.72916667 37.375 223.45833333 36.0625 224.1875 C35.24265625 224.64382813 34.4228125 225.10015625 33.578125 225.5703125 C31.92483837 226.48713509 30.26881306 227.39904647 28.609375 228.3046875 C25.17631032 230.18469911 21.83158817 232.06392953 18.625 234.3125 C16 236 16 236 13 236 C13 236.66 13 237.32 13 238 C11.82244141 238.56267578 11.82244141 238.56267578 10.62109375 239.13671875 C4.66337638 242.03882156 -0.71681447 245.01065582 -6 249 C-10.55172414 252 -10.55172414 252 -14 252 C-14 252.66 -14 253.32 -14 254 C-15.17755859 254.56267578 -15.17755859 254.56267578 -16.37890625 255.13671875 C-22.34441509 258.04261692 -27.68833177 261.04228642 -33 265 C-34.67861472 265.98183125 -36.35810859 266.96280409 -38.05859375 267.90625 C-40.36040393 269.20304447 -42.61542497 270.56848391 -44.875 271.9375 C-48.19018643 273.92863332 -51.51387905 275.89975683 -54.875 277.8125 C-55.57367187 278.21082031 -56.27234375 278.60914063 -56.9921875 279.01953125 C-58.98792806 279.99410495 -60.83153434 280.54783115 -63 281 C-63 281.66 -63 282.32 -63 283 C-64.3125 283.72916667 -65.625 284.45833333 -66.9375 285.1875 C-67.75734375 285.64382813 -68.5771875 286.10015625 -69.421875 286.5703125 C-71.07516163 287.48713509 -72.73118694 288.39904647 -74.390625 289.3046875 C-77.82368968 291.18469911 -81.16841183 293.06392953 -84.375 295.3125 C-87 297 -87 297 -90 297 C-90 297.66 -90 298.32 -90 299 C-90.78503906 299.37511719 -91.57007813 299.75023437 -92.37890625 300.13671875 C-98.33662362 303.03882156 -103.71681447 306.01065582 -109 310 C-113.55172414 313 -113.55172414 313 -117 313 C-117 313.66 -117 314.32 -117 315 C-117.78503906 315.37511719 -118.57007813 315.75023437 -119.37890625 316.13671875 C-125.33662362 319.03882156 -130.71681447 322.01065582 -136 326 C-140.55172414 329 -140.55172414 329 -144 329 C-144 329.66 -144 330.32 -144 331 C-144.78503906 331.37511719 -145.57007813 331.75023437 -146.37890625 332.13671875 C-153.47970918 335.56839662 -153.47970918 335.56839662 -160.0625 339.875 C-163 342 -163 342 -166 342 C-166 342.66 -166 343.32 -166 344 C-167.3125 344.72916667 -168.625 345.45833333 -169.9375 346.1875 C-170.75734375 346.64382813 -171.5771875 347.10015625 -172.421875 347.5703125 C-174.07516163 348.48713509 -175.73118694 349.39904647 -177.390625 350.3046875 C-180.82368968 352.18469911 -184.16841183 354.06392953 -187.375 356.3125 C-190 358 -190 358 -193 358 C-193 358.66 -193 359.32 -193 360 C-194.01707031 360.54527344 -194.01707031 360.54527344 -195.0546875 361.1015625 C-200.81118981 364.21103051 -206.45281586 367.4345571 -212.00390625 370.8984375 C-214 372 -214 372 -216 372 C-216.37142743 359.1353246 -216.65535124 346.27193211 -216.82899475 333.4029789 C-216.91235917 327.42638881 -217.02531069 321.45347661 -217.20703125 315.47900391 C-217.38145678 309.70796297 -217.47665315 303.94044706 -217.51803589 298.16697311 C-217.54750407 295.96971485 -217.60506187 293.77264088 -217.69168091 291.57689285 C-218.32572942 274.83132715 -218.32572942 274.83132715 -214.45542908 270.11964989 C-210.68843623 266.90664992 -206.5233033 264.7966255 -201.98645115 262.87656689 C-199.03151821 261.57263532 -196.39309635 259.90331054 -193.65625 258.19140625 C-191.6052744 256.97989359 -189.55315989 255.77030724 -187.5 254.5625 C-185.7598753 253.53459859 -184.01975494 252.5066898 -182.27980042 251.47850037 C-180.44842764 250.3965516 -178.61659205 249.31539 -176.78466797 248.234375 C-170.20605098 244.35145003 -163.63295446 240.4592189 -157.0625 236.5625 C-156.39362762 236.16589172 -155.72475525 235.76928345 -155.03561401 235.36065674 C-145.34262428 229.61035785 -135.68877584 223.79872173 -126.0625 217.9375 C-110.39188198 208.40052088 -110.39188198 208.40052088 -102.875 203.9375 C-102.18801025 203.52556396 -101.50102051 203.11362793 -100.79321289 202.68920898 C-96.23475582 200 -96.23475582 200 -94 200 C-94.5053125 199.15695312 -95.010625 198.31390625 -95.53125 197.4453125 C-96.50578125 195.80175781 -96.50578125 195.80175781 -97.5 194.125 C-98.47453125 192.48917969 -98.47453125 192.48917969 -99.46875 190.8203125 C-101 188 -101 188 -101 186 C-108.9031607 190.23210002 -116.67108727 194.67503664 -124.39599609 199.22143555 C-126.2329658 200.30247553 -128.07142385 201.38094584 -129.91015625 202.45898438 C-136.74727634 206.47201344 -143.55891376 210.52560381 -150.35292053 214.61116028 C-154.7194861 217.23575638 -159.09620288 219.84258735 -163.48046875 222.4375 C-164.10399734 222.8066452 -164.72752594 223.17579041 -165.36994934 223.55612183 C-166.65074016 224.3143287 -167.93154787 225.07250706 -169.21237183 225.83065796 C-182.0581816 233.43580765 -194.85270624 241.1192097 -207.58081055 248.91992188 C-208.6769165 249.58958984 -209.77302246 250.25925781 -210.90234375 250.94921875 C-212.34855103 251.83613403 -212.34855103 251.83613403 -213.82397461 252.7409668 C-216 254 -216 254 -217 254 C-217.75370667 237.45959652 -218.18614943 220.94307324 -218.31640625 204.38671875 C-218.33716806 202.09442905 -218.35821228 199.8021419 -218.3795166 197.50985718 C-218.43444911 191.47324125 -218.48418063 185.43659405 -218.53242874 179.39992142 C-218.56265366 175.66852988 -218.59442026 171.93715451 -218.62667847 168.20578003 C-218.94344189 131.46994844 -219.15561535 94.73719304 -219 58 C-215.53962465 57.04872416 -212.07847235 56.10030449 -208.6171875 55.15234375 C-207.65063232 54.88659546 -206.68407715 54.62084717 -205.68823242 54.3470459 C-199.52124555 52.65985138 -193.33877866 51.06759234 -187.125 49.5625 C-178.577206 47.46487657 -170.15405037 45.02458313 -161.71801758 42.51806641 C-155.28064329 40.62102982 -148.84093855 38.95051225 -142.29345703 37.48583984 C-135.78836207 36.00818934 -129.40952712 34.1476816 -123.00708008 32.28100586 C-117.03418251 30.55093643 -111.04105123 28.97328165 -105 27.5 C-96.22887433 25.35752765 -87.56349144 22.91347182 -78.890625 20.40625 C-69.94520351 17.82278464 -60.94417101 15.47337696 -51.90332031 13.24804688 C-42.18748126 10.85379994 -32.56946585 8.20431895 -22.95703125 5.42578125 C-18.43962537 4.12121953 -13.91415686 2.85172328 -9.375 1.625 C-8.20710937 1.30789062 -7.03921875 0.99078125 -5.8359375 0.6640625 C-3 0 -3 0 0 0 Z " fill="#15FD00" transform="translate(721,118)"/>
<path d="M0 0 C3.28704197 2.14249135 5.92795536 4.8827938 8.67551804 7.65706825 C9.32005346 8.29989482 9.96458888 8.94272139 10.62865567 9.60502756 C12.79068189 11.76375525 14.94547471 13.92956162 17.10038376 16.09539223 C18.64732259 17.64289509 20.19470173 19.18995791 21.74248886 20.73661232 C25.94702167 24.94057032 30.14535104 29.15067492 34.34261608 33.36188745 C38.72861929 37.76037653 43.1202709 42.15321844 47.51133347 46.54665565 C54.88196911 53.92280516 62.24910184 61.30243808 69.61356735 68.6847477 C77.19878794 76.28832813 84.78610762 83.8898038 92.37626266 91.48845863 C92.84417008 91.95689149 93.31207749 92.42532435 93.79416391 92.90795214 C96.14154613 95.25794445 98.48897197 97.60789319 100.83641386 99.9578259 C120.30865722 119.45098547 139.77375294 138.95126938 159.23417282 158.45623207 C157.58294379 162.68458642 154.45082154 165.53292579 151.3014946 168.67652321 C150.38035681 169.60763272 150.38035681 169.60763272 149.44061017 170.55755252 C147.3788555 172.63901322 145.30998543 174.71325053 143.24100876 176.7875309 C141.76240215 178.27703122 140.28418585 179.76691907 138.80633163 181.25716591 C134.78867357 185.30534092 130.76427517 189.34674707 126.73768139 193.38603234 C124.22384516 195.90794895 121.71106295 198.43091133 119.19856644 200.9541626 C111.34177765 208.84366631 103.4805942 216.72875539 95.61352992 224.60801297 C86.52268901 233.71312698 77.44687274 242.83287897 68.38360572 251.96543866 C61.38180397 259.01892694 54.36670292 266.05900559 47.34133935 273.08902568 C43.14296942 277.2908016 38.95058359 281.49817047 34.77200699 285.71963882 C30.84414374 289.6871124 26.90011191 293.63775072 22.94285011 297.57589531 C21.49114397 299.02633034 20.04544342 300.48280418 18.60617638 301.94558334 C16.64476477 303.93720209 14.66314276 305.90619601 12.67478561 307.87085915 C11.82174776 308.75243548 11.82174776 308.75243548 10.95147681 309.65182143 C9.32509613 311.23223019 9.32509613 311.23223019 6.23417282 313.45623207 C1.84740894 313.35150437 -1.17344656 311.9527862 -4.94160843 309.78826332 C-5.92145706 309.23195229 -6.90130569 308.67564125 -7.91084671 308.10247231 C-8.95611526 307.49733803 -10.00138382 306.89220375 -11.07832718 306.26873207 C-13.33208696 304.98462081 -15.58599743 303.70077398 -17.84004593 302.41716957 C-19.00208069 301.75163335 -20.16402725 301.08594311 -21.32588577 300.42009926 C-26.66040345 297.37461592 -32.02653917 294.38635137 -37.39082718 291.39373207 C-46.30868918 286.40403381 -55.20947603 281.38475863 -64.10225296 276.35051918 C-71.14558682 272.36564961 -78.20289302 268.4062434 -85.26582718 264.45623207 C-94.21057555 259.45379872 -103.14021854 254.42558912 -112.05781937 249.37493324 C-117.24978382 246.43656931 -122.44852494 243.51074058 -127.65645218 240.60076332 C-129.37251663 239.64170082 -129.37251663 239.64170082 -131.12324905 238.66326332 C-133.34267503 237.42386022 -135.56270339 236.18553504 -137.7834053 234.94841957 C-138.78307327 234.39025551 -139.78274124 233.83209145 -140.81270218 233.25701332 C-141.69796585 232.76370522 -142.58322952 232.27039711 -143.49531937 231.76214027 C-145.29301834 230.72817341 -147.04028865 229.60659109 -148.76582718 228.45623207 C-147.31998919 224.11871811 -144.04739918 223.16260535 -140.20332718 221.14373207 C-138.54442738 220.24778548 -136.886946 219.34920908 -135.23067093 218.44841957 C-134.34234573 217.96598793 -133.45402054 217.48355629 -132.5387764 216.98650551 C-127.73104411 214.33332132 -123.0010387 211.54866165 -118.26582718 208.76873207 C-109.82363939 203.82370387 -101.36774355 198.90401556 -92.89082718 194.01873207 C-91.81268753 193.39724281 -90.73454788 192.77575356 -89.62373734 192.13543129 C-85.24119517 189.60977687 -80.85798795 187.08527778 -76.47481155 184.56072426 C-73.19651664 182.67224718 -69.9186496 180.78302909 -66.64082718 178.89373207 C-65.58073441 178.28336098 -64.52064163 177.67298988 -63.42842484 177.0441227 C-57.89397819 173.85360747 -52.37188813 170.6434485 -46.86738968 167.40154457 C-45.75895706 166.75000404 -44.65052444 166.09846352 -43.50850296 165.42717934 C-41.38745224 164.17885427 -39.26854241 162.92688258 -37.15205765 161.67083168 C-36.20991409 161.11661537 -35.26777054 160.56239906 -34.29707718 159.99138832 C-33.46756546 159.50033607 -32.63805374 159.00928383 -31.7834053 158.50335121 C-29.76582718 157.45623207 -29.76582718 157.45623207 -27.76582718 157.45623207 C-30.40582718 152.83623207 -33.04582718 148.21623207 -35.76582718 143.45623207 C-43.84850711 147.83126066 -51.85425795 152.32410678 -59.82832718 156.89373207 C-61.05649939 157.59672557 -62.28468987 158.29968716 -63.51289749 159.00261879 C-80.95220701 168.98807782 -98.35469231 179.03597423 -115.70576859 189.17400551 C-124.35741658 194.22591682 -133.02363195 199.25254706 -141.71406937 204.23748207 C-146.2724503 206.85260449 -150.82275496 209.46983863 -155.30488968 212.21404457 C-155.94861526 212.60221352 -156.59234085 212.99038246 -157.25557327 213.3903141 C-158.85479875 214.35872165 -160.44374367 215.34405579 -162.03145218 216.33123207 C-165.6079397 217.80270122 -167.06793079 217.61714742 -170.76582718 216.45623207 C-173.97174164 214.89358873 -177.01663668 213.09501372 -180.07832718 211.26873207 C-181.96434867 210.16727688 -183.85109824 209.06706764 -185.73848343 207.96795082 C-186.72477737 207.39093422 -187.71107132 206.81391762 -188.72725296 206.21941566 C-193.79059266 203.28132798 -198.90342507 200.43281101 -204.01582718 197.58123207 C-205.06029007 196.99704506 -206.10475296 196.41285805 -207.18086624 195.8109684 C-212.47294634 192.85108063 -217.76853192 189.89755867 -223.06660843 186.94841957 C-239.09875184 178.01326808 -255.03685913 168.917042 -270.76582718 159.45623207 C-267.08422964 156.33517851 -263.24371088 153.93054618 -259.01582718 151.64373207 C-251.93930458 147.73829664 -244.99744148 143.63349225 -238.07832718 139.45623207 C-228.8465628 133.88711588 -219.57543916 128.39377286 -210.26582718 122.95623207 C-201.23183215 117.67821746 -192.2276703 112.35631703 -183.26582718 106.95623207 C-173.69095461 101.18675757 -164.06398929 95.51269244 -154.41231155 89.87322426 C-144.97099528 84.35498924 -135.57858425 78.76094645 -126.21236038 73.11590004 C-117.7257791 68.01010825 -109.1819755 63.00682989 -100.62755203 58.01604652 C-90.73772101 52.24216962 -80.93678562 46.33274286 -71.16402054 40.36327553 C-63.8663699 35.90845536 -56.53917903 31.5478859 -49.05879593 27.40764809 C-44.97536071 25.14678466 -40.94883863 22.80562273 -36.95332718 20.39373207 C-36.37631058 20.04786049 -35.79929398 19.70198891 -35.20479202 19.34563637 C-31.38029686 17.04885805 -27.5748487 14.72315264 -23.77887344 12.37949562 C-21.33461793 10.87537784 -18.88202746 9.38519242 -16.42808914 7.89693642 C-15.19824197 7.14682967 -13.97193715 6.39088288 -12.74931717 5.62905312 C-11.02045338 4.55274619 -9.2781145 3.49817735 -7.53535843 2.44451332 C-6.52062454 1.8210099 -5.50589066 1.19750648 -4.46040726 0.55510902 C-1.76582718 -0.54376793 -1.76582718 -0.54376793 0 0 Z " fill="#56DFFD" transform="translate(781.7658271789551,340.54376792907715)"/>
<path d="M0 0 C3.54823215 1.39025746 6.82695785 2.92774571 10.1484375 4.80078125 C11.14166016 5.35894531 12.13488281 5.91710937 13.15820312 6.4921875 C14.21974609 7.09289062 15.28128906 7.69359375 16.375 8.3125 C17.48552734 8.93769531 18.59605469 9.56289063 19.74023438 10.20703125 C23.16208957 12.13461805 26.58140134 14.06664454 30 16 C31.49321777 16.84377197 31.49321777 16.84377197 33.01660156 17.70458984 C36.78887582 19.83621398 40.56083496 21.96838951 44.33154297 24.1027832 C51.37635198 28.08889971 58.43540991 32.04906258 65.5 36 C74.4593421 41.01059503 83.40281974 46.04829051 92.3359375 51.10546875 C99.37946374 55.09036784 106.43693454 59.04985064 113.5 63 C124.36988702 69.07998085 135.21761433 75.19832678 146.05615234 81.33398438 C151.34861617 84.32915548 156.64321059 87.32055741 161.9375 90.3125 C163.88412327 91.41274504 165.8307387 92.51300396 167.77734375 93.61328125 C169.00312134 94.30611206 169.00312134 94.30611206 170.25366211 95.01293945 C171.11809937 95.50153442 171.11809937 95.50153442 172 96 C172 96.66 172 97.32 172 98 C169.71627212 99.49211931 167.43633672 100.8505115 165.0625 102.1875 C163.48750445 103.09370334 161.91333481 104.0013431 160.33984375 104.91015625 C159.47987793 105.40531738 158.61991211 105.90047852 157.73388672 106.41064453 C152.83151588 109.26065651 147.98170768 112.19809227 143.125 115.125 C134.41316188 120.3628288 125.68477345 125.57156767 116.9375 130.75 C115.82898682 131.40637451 114.72047363 132.06274902 113.57836914 132.73901367 C109.41653162 135.20281911 105.25446176 137.66623152 101.09191895 140.12884521 C96.41421571 142.89632283 91.7376744 145.66575236 87.0625 148.4375 C86.39547058 148.83289978 85.72844116 149.22829956 85.04119873 149.63568115 C74.01928678 156.17275761 63.04877705 162.79156865 52.11938477 169.48217773 C46.15050302 173.12700457 40.15259015 176.67337172 34 180 C35.12188841 183.08519311 36.4616463 185.86805649 38.125 188.6875 C40 192 40 192 40 194 C49.89717837 188.60573042 59.56917752 182.8760163 69.1875 177 C78.96539723 171.02742913 88.79106778 165.14910375 98.6875 159.375 C108.60539901 153.58640069 118.4837648 147.7375343 128.32128906 141.81298828 C134.21603231 138.26510489 140.12076874 134.73497239 146.0390625 131.2265625 C146.72936554 130.81718948 147.41966858 130.40781647 148.13088989 129.98603821 C151.60815578 127.92461406 155.08718405 125.86624386 158.56884766 123.81225586 C164.38361807 120.37646259 170.17498641 116.92686564 175.859375 113.27734375 C176.69412354 112.7452832 177.52887207 112.21322266 178.38891602 111.66503906 C179.86597962 110.71557662 181.33361876 109.75119905 182.78881836 108.76855469 C184.69921875 107.54296875 184.69921875 107.54296875 188 106 C191.93635667 107.18466063 195.43773899 109.25309355 199.0234375 111.23828125 C199.59734222 111.55513382 200.17124695 111.87198639 200.76254272 112.19844055 C202.63504339 113.23345525 204.50508045 114.27283043 206.375 115.3125 C207.68644999 116.03903233 208.9979743 116.76543053 210.30957031 117.49169922 C219.99084765 122.85849426 229.63542968 128.28911899 239.26171875 133.75390625 C243.42123413 136.11278452 247.59219745 138.45016628 251.76953125 140.77734375 C252.90229492 141.40882324 254.03505859 142.04030273 255.20214844 142.69091797 C257.3852591 143.90682369 259.569445 145.12080156 261.75488281 146.33251953 C266.63788765 149.05386853 271.41716559 151.79593287 276 155 C273.33865944 157.05511094 270.6464314 158.87479464 267.74609375 160.57421875 C266.48539062 161.31575195 266.48539062 161.31575195 265.19921875 162.07226562 C264.28785156 162.60529297 263.37648438 163.13832031 262.4375 163.6875 C260.4464716 164.8578297 258.45559293 166.02841416 256.46484375 167.19921875 C255.41280762 167.81716309 254.36077148 168.43510742 253.27685547 169.07177734 C247.67635511 172.36731838 242.0888037 175.68467555 236.5 179 C228.33716906 183.83983735 220.17118139 188.67427424 212 193.5 C200.47797995 200.30505777 188.96656448 207.12798115 177.45556641 213.95166016 C171.80409916 217.30176185 166.1520027 220.6508018 160.5 224 C158.24999736 225.33332887 155.99999736 226.66666221 153.75 228 C149.25 230.66666667 144.75 233.33333333 140.25 236 C139.13584717 236.6602417 138.02169434 237.3204834 136.8737793 238.00073242 C134.62785889 239.3316422 132.38192793 240.66253418 130.13598633 241.9934082 C125.02685567 245.02094512 119.91780526 248.04861703 114.80917358 251.07699585 C102.98924603 258.08379219 91.16666387 265.08600739 79.33544922 272.07373047 C69.30678617 277.99802662 59.28736029 283.93789682 49.26786804 289.87768555 C45.05681721 292.3739558 40.8449457 294.86883788 36.6328125 297.36328125 C34.81829601 298.4379977 33.00379505 299.51274034 31.18930054 300.5874939 C29.49520688 301.59082303 27.80095102 302.59387826 26.10668945 303.59692383 C25.05956787 304.21720459 24.01244629 304.83748535 22.93359375 305.4765625 C21.93440918 306.0634082 20.93522461 306.65025391 19.90576172 307.25488281 C17.9634492 308.42138003 16.04266509 309.62446987 14.14501953 310.86230469 C12.82219971 311.71550293 12.82219971 311.71550293 11.47265625 312.5859375 C10.7031665 313.09946777 9.93367676 313.61299805 9.14086914 314.14208984 C7 315 7 315 5.26877975 314.44117165 C1.9461111 312.33054991 -0.68629137 309.58100226 -3.44134521 306.79916382 C-4.08588063 306.15633725 -4.73041605 305.51351068 -5.39448285 304.85120451 C-7.55650907 302.69247682 -9.71130189 300.52667045 -11.86621094 298.36083984 C-13.41314977 296.81333698 -14.96052891 295.26627416 -16.50831604 293.71961975 C-20.71284885 289.51566176 -24.91117822 285.30555716 -29.10844326 281.09434462 C-33.49444647 276.69585554 -37.88609808 272.30301363 -42.27716064 267.90957642 C-49.64779629 260.53342691 -57.01492902 253.15379399 -64.37939453 245.77148438 C-71.96461512 238.16790394 -79.55193479 230.56642827 -87.14208984 222.96777344 C-87.60999726 222.49934058 -88.07790467 222.03090772 -88.55999109 221.54827993 C-90.90737331 219.19828762 -93.25479915 216.84833888 -95.60224104 214.49840617 C-115.0744844 195.0052466 -134.53958012 175.50496269 -154 156 C-152.34828196 151.74238754 -149.16802712 148.89589215 -145.98898315 145.74847412 C-145.36657435 145.12435646 -144.74416554 144.5002388 -144.10289586 143.85720849 C-142.01326453 141.76427936 -139.91655845 139.67858492 -137.81982422 137.59277344 C-136.3215818 136.09509507 -134.82377946 134.59697636 -133.3263855 133.09844971 C-129.25672032 129.02820978 -125.18091 124.96417371 -121.10399008 120.9012022 C-116.84563664 116.65533563 -112.5929313 112.40381967 -108.33963013 108.15289307 C-100.28302218 100.10250589 -92.2213287 92.05723134 -84.15780747 84.01376939 C-74.97866661 74.85696891 -65.80519162 65.69450129 -56.63219428 56.53154707 C-37.76110544 37.68137377 -18.88289259 18.83834853 0 0 Z " fill="#FD8D01" transform="translate(213,345)"/>
<path d="M0 0 C0.02343108 11.52899649 0.04106871 23.05798708 0.05181217 34.58700275 C0.05697501 39.94350859 0.0639486 45.29999784 0.07543945 50.65649414 C0.17187854 96.77999343 0.17187854 96.77999343 -1 119 C-1.6602417 119.3258609 -2.3204834 119.6517218 -3.00073242 119.98745728 C-7.5076026 122.22392715 -11.9774747 124.46481475 -16.3125 127.0234375 C-17.2288623 127.56154053 -18.14522461 128.09964355 -19.08935547 128.65405273 C-20.04986816 129.22196533 -21.01038086 129.78987793 -22 130.375 C-24.12726524 131.62427522 -26.25488158 132.87295275 -28.3828125 134.12109375 C-29.47368164 134.76159668 -30.56455078 135.40209961 -31.68847656 136.06201172 C-37.07000918 139.21142236 -42.47197683 142.32514629 -47.875 145.4375 C-48.95249512 146.05858643 -50.02999023 146.67967285 -51.14013672 147.31958008 C-55.52328871 149.84571298 -59.90717436 152.37057134 -64.29101562 154.89550781 C-76.06256572 161.67656415 -87.82750295 168.4683312 -99.5625 175.3125 C-100.54702148 175.88637451 -101.53154297 176.46024902 -102.54589844 177.05151367 C-107.11043083 179.7156929 -111.66723124 182.39152139 -116.20703125 185.09765625 C-117.39800415 185.80571411 -117.39800415 185.80571411 -118.61303711 186.52807617 C-120.07841017 187.40065719 -121.54161369 188.27689621 -123.00219727 189.1574707 C-127.77805783 192 -127.77805783 192 -130 192 C-129.57847656 192.77085937 -129.15695312 193.54171875 -128.72265625 194.3359375 C-128.17480469 195.33882812 -127.62695312 196.34171875 -127.0625 197.375 C-126.51722656 198.37273437 -125.97195313 199.37046875 -125.41015625 200.3984375 C-124.5850241 201.92070346 -123.77435609 203.45128783 -123 205 C-119.02489967 204.41086447 -116.19302975 203.17954805 -112.73828125 201.1484375 C-111.71541016 200.55224609 -110.69253906 199.95605469 -109.63867188 199.34179688 C-108.54103516 198.69275391 -107.44339844 198.04371094 -106.3125 197.375 C-105.15083078 196.69521082 -103.98871307 196.01618752 -102.82617188 195.33789062 C-100.41182554 193.92841697 -97.99944078 192.51567013 -95.58837891 191.10058594 C-90.07681375 187.86944454 -84.53697891 184.68731817 -79 181.5 C-76.8358155 180.25151354 -74.67175341 179.00281486 -72.5078125 177.75390625 C-68.14934612 175.23930564 -63.78987809 172.72645339 -59.4296875 170.21484375 C-46.76768156 162.91917926 -34.12534544 155.59108043 -21.5078125 148.21875 C-20.61868164 147.70054687 -19.72955078 147.18234375 -18.81347656 146.6484375 C-16.77411624 145.45356065 -14.74030636 144.24919417 -12.70996094 143.0390625 C-11.6274707 142.39710938 -10.54498047 141.75515625 -9.4296875 141.09375 C-8.43952637 140.50271484 -7.44936523 139.91167969 -6.42919922 139.30273438 C-4 138 -4 138 -2 138 C-1.97637949 155.61471412 -1.95888059 173.22942313 -1.94818783 190.84414959 C-1.94308557 199.02753425 -1.93613587 207.21090884 -1.92456055 215.39428711 C-1.82666894 285.94038909 -1.82666894 285.94038909 -3 315 C-4.06903564 315.26225121 -4.06903564 315.26225121 -5.15966797 315.52980042 C-16.93483806 318.42040458 -28.65517678 321.35543901 -40.24609375 324.921875 C-42.96625894 325.70310871 -45.6154282 326.37614676 -48.375 326.96875 C-53.17604333 328.0037788 -57.85437033 329.35896169 -62.5625 330.75 C-70.41746733 333.03714843 -78.3041923 335.11535094 -86.25 337.0625 C-93.72789338 338.89633193 -101.12446012 340.86319165 -108.48925781 343.10571289 C-115.64015296 345.25252037 -122.88723104 346.99101434 -130.13671875 348.76953125 C-135.97136999 350.21155532 -141.75072469 351.74923836 -147.5 353.5 C-155.29919324 355.87499991 -163.18675437 357.82025695 -171.10375977 359.76074219 C-177.97091752 361.45682429 -184.75450868 363.33666972 -191.52539062 365.38012695 C-196.31795583 366.82110264 -201.0967529 368.01552739 -206 369 C-207.68817053 369.37196978 -209.37567752 369.74696405 -211.0625 370.125 C-212.375 370.41666667 -213.6875 370.70833333 -215 371 C-215.62849414 368.85518747 -216.25260258 366.70908965 -216.875 364.5625 C-217.39707031 362.77005859 -217.39707031 362.77005859 -217.9296875 360.94140625 C-218.70483598 358.18536162 -219.36036266 355.42410776 -219.9609375 352.625 C-221.00274286 347.82565476 -222.35901175 343.14546022 -223.75 338.4375 C-226.03714843 330.58253267 -228.11535094 322.6958077 -230.0625 314.75 C-231.89633193 307.27210662 -233.86319165 299.87553988 -236.10571289 292.51074219 C-238.25252037 285.35984704 -239.99101434 278.11276896 -241.76953125 270.86328125 C-243.21155532 265.02863001 -244.74923836 259.24927531 -246.5 253.5 C-248.87588033 245.69791557 -250.82163232 237.80736306 -252.76293945 229.88745117 C-254.43685304 223.11023473 -256.2911616 216.41781485 -258.31640625 209.73828125 C-259.8436573 204.66066737 -261.04613611 199.55786015 -262.1875 194.3828125 C-263.15931177 190.33671156 -264.31194745 186.36202382 -265.5 182.375 C-265.71479004 181.65151367 -265.92958008 180.92802734 -266.15087891 180.18261719 C-267.09803628 177.00126994 -268.05402082 173.82309212 -269.0234375 170.6484375 C-269.30445313 169.69195313 -269.58546875 168.73546875 -269.875 167.75 C-270.11992187 166.94046875 -270.36484375 166.1309375 -270.6171875 165.296875 C-271.08757329 162.47456028 -270.96255802 160.70222711 -270 158 C-268.03125 156.375 -268.03125 156.375 -265.5 155 C-264.60152344 154.50242187 -263.70304688 154.00484375 -262.77734375 153.4921875 C-261.86082031 152.99976563 -260.94429687 152.50734375 -260 152 C-259.15566406 151.50757813 -258.31132812 151.01515625 -257.44140625 150.5078125 C-251.40677966 147 -251.40677966 147 -248 147 C-248 146.34 -248 145.68 -248 145 C-246.12890625 143.66796875 -246.12890625 143.66796875 -243.5625 142.1875 C-242.65242188 141.65898438 -241.74234375 141.13046875 -240.8046875 140.5859375 C-237.53767098 138.73857161 -234.26577433 136.9020327 -230.97265625 135.1015625 C-229.32655036 134.18235089 -227.71988153 133.19296879 -226.125 132.1875 C-224 131 -224 131 -221 131 C-221 130.34 -221 129.68 -221 129 C-219.12890625 127.66796875 -219.12890625 127.66796875 -216.5625 126.1875 C-215.19738281 125.39472656 -215.19738281 125.39472656 -213.8046875 124.5859375 C-210.53767098 122.73857161 -207.26577433 120.9020327 -203.97265625 119.1015625 C-202.32655036 118.18235089 -200.71988153 117.19296879 -199.125 116.1875 C-197 115 -197 115 -194 115 C-194 114.34 -194 113.68 -194 113 C-192.12890625 111.66796875 -192.12890625 111.66796875 -189.5625 110.1875 C-188.19738281 109.39472656 -188.19738281 109.39472656 -186.8046875 108.5859375 C-183.53767098 106.73857161 -180.26577433 104.9020327 -176.97265625 103.1015625 C-175.32655036 102.18235089 -173.71988153 101.19296879 -172.125 100.1875 C-170 99 -170 99 -167 99 C-167 98.34 -167 97.68 -167 97 C-165.12890625 95.66796875 -165.12890625 95.66796875 -162.5625 94.1875 C-161.655 93.66285156 -160.7475 93.13820313 -159.8125 92.59765625 C-158.884375 92.07042969 -157.95625 91.54320312 -157 91 C-155.7315625 90.25556641 -155.7315625 90.25556641 -154.4375 89.49609375 C-148.38158832 86 -148.38158832 86 -145 86 C-145 85.34 -145 84.68 -145 84 C-142.7140617 82.4670058 -140.44192427 81.06139469 -138.0625 79.6875 C-137.37897461 79.28668213 -136.69544922 78.88586426 -135.99121094 78.47290039 C-133.9982661 77.30799351 -131.99940865 76.15376391 -130 75 C-129.04480469 74.43796875 -128.08960938 73.8759375 -127.10546875 73.296875 C-121.39278017 70 -121.39278017 70 -118 70 C-118 69.34 -118 68.68 -118 68 C-116.12890625 66.66796875 -116.12890625 66.66796875 -113.5625 65.1875 C-112.65242187 64.65898438 -111.74234375 64.13046875 -110.8046875 63.5859375 C-107.53767098 61.73857161 -104.26577433 59.9020327 -100.97265625 58.1015625 C-99.32655036 57.18235089 -97.71988153 56.19296879 -96.125 55.1875 C-94 54 -94 54 -91 54 C-91 53.34 -91 52.68 -91 52 C-89.12890625 50.66796875 -89.12890625 50.66796875 -86.5625 49.1875 C-85.65242187 48.65898438 -84.74234375 48.13046875 -83.8046875 47.5859375 C-80.53767098 45.73857161 -77.26577433 43.9020327 -73.97265625 42.1015625 C-72.32655036 41.18235089 -70.71988153 40.19296879 -69.125 39.1875 C-67 38 -67 38 -64 38 C-64 37.34 -64 36.68 -64 36 C-62.12890625 34.66796875 -62.12890625 34.66796875 -59.5625 33.1875 C-58.65242187 32.65898438 -57.74234375 32.13046875 -56.8046875 31.5859375 C-53.53767098 29.73857161 -50.26577433 27.9020327 -46.97265625 26.1015625 C-45.32655036 25.18235089 -43.71988153 24.19296879 -42.125 23.1875 C-40 22 -40 22 -37 22 C-37 21.34 -37 20.68 -37 20 C-35.12890625 18.66796875 -35.12890625 18.66796875 -32.5625 17.1875 C-31.655 16.66285156 -30.7475 16.13820313 -29.8125 15.59765625 C-28.4203125 14.80681641 -28.4203125 14.80681641 -27 14 C-26.154375 13.50371094 -25.30875 13.00742187 -24.4375 12.49609375 C-18.38158832 9 -18.38158832 9 -15 9 C-15 8.34 -15 7.68 -15 7 C-12.87767021 5.82823482 -10.75242209 4.66245215 -8.625 3.5 C-7.72007812 2.99919922 -7.72007812 2.99919922 -6.796875 2.48828125 C-2.2265625 0 -2.2265625 0 0 0 Z " fill="#FD0000" transform="translate(494,511)"/>
<path d="M0 0 C15.58669084 3.39956631 31.03080468 7.35253524 46.34472656 11.81933594 C52.19985185 13.51663448 58.07802201 15.05434067 64 16.5 C70.79938 18.15984865 77.53112621 19.97730205 84.25 21.9375 C92.89499513 24.45855173 101.59373137 26.67525675 110.33886719 28.82006836 C116.78224631 30.41216422 123.14113815 32.17276188 129.48925781 34.10571289 C135.60978802 35.94318914 141.79454722 37.47761619 148 39 C154.88301648 40.68861052 161.71977481 42.43543893 168.5 44.5 C176.3862421 46.89999111 184.35964267 48.89654866 192.36523438 50.85742188 C193.32494141 51.09267578 194.28464844 51.32792969 195.2734375 51.5703125 C196.11310059 51.77414551 196.95276367 51.97797852 197.81787109 52.18798828 C202.56158401 53.39848308 207.27941842 54.70262573 212 56 C213.05979255 93.1081553 213.51870041 130.2130075 213.8269043 167.33416748 C213.91750691 177.93573506 214.04735875 188.53531541 214.23798275 199.13557053 C214.36398388 206.19318818 214.46060514 213.25076991 214.53388309 220.30913162 C214.57797006 224.41880697 214.6378539 228.52685983 214.73635864 232.63562012 C214.82743914 236.44553531 214.87671495 240.25366029 214.89340019 244.06460571 C214.90696804 245.44833814 214.9360069 246.83202235 214.98198128 248.21505737 C215.31333751 258.5347715 215.31333751 258.5347715 212.16964722 262.04203796 C209.84872074 263.62358125 207.54910815 264.82787752 205 266 C203.84292044 266.68551112 202.69321515 267.38375366 201.55419922 268.09887695 C200.48186035 268.72238037 199.40952148 269.34588379 198.3046875 269.98828125 C197.70931183 270.33577927 197.11393616 270.68327728 196.5005188 271.04130554 C194.62686144 272.13433101 192.75108157 273.22364175 190.875 274.3125 C188.41326057 275.7447197 185.95246728 277.17855573 183.4921875 278.61328125 C182.87544662 278.97279373 182.25870575 279.33230621 181.62327576 279.70271301 C176.63305182 282.61728702 171.67388434 285.58161761 166.72233582 288.56130981 C162.11943596 291.33084335 157.50647243 294.08289328 152.88671875 296.82421875 C152.21183411 297.22469925 151.53694946 297.62517975 150.84161377 298.03779602 C148.79040256 299.25463411 146.7389796 300.47111446 144.6875 301.6875 C142.61403981 302.91710729 140.54064778 304.14682582 138.46780396 305.37747192 C137.13794031 306.16590042 135.80697109 306.95246755 134.474823 307.73703003 C131.60571974 309.43026604 128.77242207 311.14664339 125.97119141 312.95166016 C125.10026855 313.51030762 124.2293457 314.06895508 123.33203125 314.64453125 C122.60346924 315.12897705 121.87490723 315.61342285 121.12426758 316.11254883 C118.27988066 317.30084287 116.91657463 316.93868357 114 316 C112.10484413 315.09228557 110.24451322 314.1101189 108.4140625 313.078125 C107.33044434 312.47154053 106.24682617 311.86495605 105.13037109 311.23999023 C103.9618324 310.57680402 102.79337747 309.9134702 101.625 309.25 C100.40869696 308.56589867 99.19205814 307.882394 97.97509766 307.19946289 C94.89200071 305.46709889 91.81348139 303.7267857 88.73657227 301.98345947 C86.15425234 300.5210343 83.56920337 299.06345449 80.984375 297.60546875 C77.23504856 295.48907009 73.48803929 293.36863518 69.7421875 291.24609375 C63.67286778 287.81029468 57.58727228 284.40386307 51.5 281 C42.54062315 275.98946746 33.59717993 270.9517093 24.6640625 265.89453125 C17.62053653 261.90963231 10.56309283 257.95010006 3.5 254 C-5.44449317 248.99770938 -14.3826666 243.98459769 -23.28759766 238.91210938 C-27.89431309 236.29340388 -32.51456069 233.70956998 -37.18414307 231.20422363 C-38.94390279 230.25914845 -40.69951653 229.30636655 -42.45507812 228.35351562 C-44.69362888 227.14027481 -46.93953156 225.9404787 -49.19335938 224.75585938 C-50.7025293 223.93311523 -50.7025293 223.93311523 -52.2421875 223.09375 C-53.1379248 222.61615234 -54.03366211 222.13855469 -54.95654297 221.64648438 C-57 220 -57 220 -57.83276367 217.4621582 C-58.0366287 214.46072932 -57.43873921 212.52630763 -56.4375 209.6875 C-54.32641147 203.27415863 -52.66113255 196.80895221 -51.0625 190.25 C-49.35420772 183.28361297 -47.59117456 176.36169296 -45.5 169.5 C-43.43514401 162.71987585 -41.68860529 155.88299519 -40 149 C-38.14508483 141.43910214 -36.16216649 133.95834029 -33.89453125 126.51171875 C-32.05709254 120.39082418 -30.52246517 114.20578441 -29 108 C-27.31138919 101.11698235 -25.56452657 94.28023478 -23.5 87.5 C-21.46176558 80.80142324 -19.73022906 74.04986436 -18.0625 67.25 C-15.97960557 58.75819965 -13.71080365 50.35011667 -11.25683594 41.95874023 C-8.99124787 34.13830437 -7.01243306 26.25531369 -5.09179688 18.34375 C-3.58302142 12.16495529 -1.89120053 6.07288266 0 0 Z " fill="#FEF000" transform="translate(279,118)"/>
<path d="M0 0 C2.5793457 1.17651367 2.5793457 1.17651367 5.17578125 2.66796875 C6.15562988 3.22427979 7.13547852 3.78059082 8.14501953 4.35375977 C9.19028809 4.95889404 10.23555664 5.56402832 11.3125 6.1875 C13.56625978 7.47161126 15.82017026 8.75545809 18.07421875 10.0390625 C19.23625351 10.70459872 20.39820007 11.37028896 21.56005859 12.03613281 C26.89457627 15.08161615 32.26071199 18.0698807 37.625 21.0625 C46.542862 26.05219826 55.44364885 31.07147344 64.33642578 36.10571289 C71.37975964 40.09058246 78.43706584 44.04998867 85.5 48 C94.44847286 53.00451631 103.38216681 58.0342403 112.30297852 63.08789062 C117.43161783 65.99094417 122.56802726 68.87927745 127.71484375 71.75 C129.39707031 72.68875977 129.39707031 72.68875977 131.11328125 73.64648438 C133.26723646 74.84748525 135.42212695 76.04681086 137.578125 77.24414062 C143.15347117 80.35332778 148.62014054 83.56304569 154 87 C152.40596353 97.92745504 149.31582299 108.51537859 146.453125 119.16015625 C145.88759569 121.27583484 145.32244993 123.39161599 144.75765991 125.50749207 C143.24122751 131.18406988 141.71939136 136.85918572 140.19641876 142.53401184 C138.61155527 148.44278319 137.03140231 154.35281409 135.45068359 160.26269531 C132.88047632 169.86942339 130.30714545 179.47530966 127.73144531 189.08056641 C124.82227444 199.92942881 121.91810282 210.77961886 119.0168457 221.63059998 C116.78644662 229.97244878 114.55329257 238.31355961 112.31980896 246.65458298 C111.63218141 249.22317426 110.94501061 251.79188736 110.25793457 254.36062622 C105.64213896 271.61360149 101.00508798 288.85475124 96 306 C86.96806545 304.5726947 78.21050873 302.30160391 69.3984375 299.90625 C67.84128066 299.48662388 66.28401088 299.06741664 64.72663879 298.64859009 C61.37137106 297.74536656 58.01686354 296.83939088 54.66293335 295.93121338 C49.29247569 294.4770294 43.92043586 293.02875458 38.5480957 291.58154297 C32.80853175 290.03518308 27.06905321 288.48851162 21.33009338 286.93991089 C6.56441127 282.95608639 -8.20678017 278.99308413 -22.98046875 275.0390625 C-25.1597919 274.45567507 -27.33911319 273.87228071 -29.51843262 273.28887939 C-38.02224508 271.01256415 -46.52614367 268.73657133 -55.03033447 266.46166992 C-77.71106126 260.39387585 -100.3830333 254.30199832 -123 248 C-123.10668216 207.07444882 -123.1108768 166.15274212 -122.59428024 125.22969437 C-122.5627947 122.71107359 -122.53272901 120.1924392 -122.50296021 117.67379761 C-122.40294112 109.36653802 -122.27817415 101.06091949 -122.09650707 92.75501728 C-122.01178243 88.61233987 -122.01157888 84.47755056 -122.05810547 80.33447266 C-122.08125789 67.54595986 -122.08125789 67.54595986 -119.35375977 63.64624023 C-116.97244922 61.95680601 -114.73088467 61.02359058 -112 60 C-110.06986636 58.92486993 -108.15371481 57.82437004 -106.25 56.703125 C-104.16839407 55.54896233 -102.08499309 54.39803245 -100 53.25 C-92.8110787 49.25824448 -85.63355882 45.26013522 -78.5625 41.0625 C-71.55287186 36.90196889 -64.5020036 32.81667439 -57.4375 28.75 C-49.72342359 24.30816959 -42.01734868 19.85357038 -34.33178711 15.36254883 C-32.30133963 14.17657962 -30.26962983 12.99276855 -28.23657227 11.8112793 C-24.00090339 9.3488801 -19.7764304 6.87686744 -15.6015625 4.3125 C-14.63814941 3.73133423 -14.63814941 3.73133423 -13.65527344 3.13842773 C-12.03147051 2.15706466 -10.41751579 1.15945317 -8.8046875 0.16015625 C-5.30380064 -1.28798219 -3.65754228 -0.85886297 0 0 Z " fill="#A53AFE" transform="translate(625,576)"/>
<path d="M0 0 C3.30281742 0.76610974 5.91472987 1.89375557 8.90234375 3.51953125 C9.86390381 4.04087646 10.82546387 4.56222168 11.81616211 5.09936523 C13.36122437 5.94736694 13.36122437 5.94736694 14.9375 6.8125 C16.0107251 7.39781494 17.0839502 7.98312988 18.18969727 8.58618164 C25.84151197 12.7752384 33.43517464 17.05952825 40.99633789 21.40966797 C47.76182291 25.30196484 54.56098858 29.13084245 61.375 32.9375 C70.90616715 38.26243134 80.41951673 43.61776575 89.91748047 49.00170898 C90.81998535 49.51290283 91.72249023 50.02409668 92.65234375 50.55078125 C93.44632568 51.00106689 94.24030762 51.45135254 95.05834961 51.9152832 C96.3559256 52.64018326 97.67058402 53.33529201 99 54 C99 54.66 99 55.32 99 56 C98.51982422 56.25990723 98.03964844 56.51981445 97.54492188 56.78759766 C85.32392737 63.41832069 73.26631131 70.29420933 61.2734375 77.328125 C54.86753277 81.08448808 48.43594955 84.79541402 42 88.5 C35.40041097 92.29901076 28.80662964 96.10697021 22.234375 99.953125 C21.14511719 100.59056641 20.05585937 101.22800781 18.93359375 101.88476562 C16.86747844 103.09528104 14.80231608 104.30742497 12.73828125 105.52148438 C11.34416016 106.33842773 11.34416016 106.33842773 9.921875 107.171875 C9.11331055 107.6472168 8.30474609 108.12255859 7.47167969 108.61230469 C4.69271236 110.17252301 1.85985069 111.59445133 -1 113 C-1.12471642 84.78530878 -0.97495035 56.58533921 -0.5 28.375 C-0.48804218 27.66445843 -0.47608437 26.95391685 -0.46376419 26.22184372 C-0.31603878 17.48110509 -0.16145007 8.74049654 0 0 Z " fill="#A43BFB" transform="translate(505,510)"/>
<path d="M0 0 C0 30.69 0 61.38 0 93 C-18.29526654 83.85236673 -18.29526654 83.85236673 -26.9375 78.875 C-28.90721245 77.75070686 -30.87727769 76.62703161 -32.84765625 75.50390625 C-33.85199707 74.93043457 -34.85633789 74.35696289 -35.89111328 73.76611328 C-41.20116651 70.74954935 -46.54044248 67.78543405 -51.875 64.8125 C-61.66678274 59.3458382 -71.37103033 53.74824324 -81 48 C-78.37589393 45.02181149 -75.30822866 43.2839041 -71.890625 41.3046875 C-71.28675964 40.95294464 -70.68289429 40.60120178 -70.06072998 40.23880005 C-68.12633708 39.11313235 -66.18835835 37.99382296 -64.25 36.875 C-61.73337334 35.41578495 -59.21817019 33.95412627 -56.703125 32.4921875 C-55.74964424 31.9385981 -55.74964424 31.9385981 -54.77690125 31.37382507 C-48.46602918 27.70337277 -42.2093343 23.94496502 -35.95599365 20.1776123 C-30.41341441 16.84068455 -24.86219728 13.51822899 -19.30639648 10.20336914 C-17.86955081 9.34497015 -16.43370896 8.48488905 -14.9987793 7.62329102 C-12.89094083 6.3580215 -10.77984768 5.09835449 -8.66796875 3.83984375 C-8.0253862 3.45247543 -7.38280365 3.06510712 -6.7207489 2.66600037 C-2.22792217 0 -2.22792217 0 0 0 Z " fill="#FBEE02" transform="translate(494,397)"/>
<path d="M0 0 C2.23843047 2.92145608 4.33114792 5.89793087 6.3125 9 C7.14201172 10.2684375 7.14201172 10.2684375 7.98828125 11.5625 C9 14 9 14 8.23339844 15.94702148 C7.0448753 17.92530555 5.80691102 19.56125978 4.27734375 21.28515625 C3.47623169 22.196604 3.47623169 22.196604 2.65893555 23.12646484 C2.09086182 23.76535645 1.52278809 24.40424805 0.9375 25.0625 C-3.05774007 29.60818067 -7.00583819 34.16991276 -10.8125 38.875 C-14.73226864 43.71664015 -18.82652736 48.37678858 -23 53 C-15.85835063 51.95723061 -8.7491011 50.80295991 -1.65234375 49.4921875 C-0.94075104 49.36080383 -0.22915833 49.22942017 0.5039978 49.09405518 C3.44093454 48.55003598 6.37734659 48.00327582 9.31323242 47.45361328 C11.49081498 47.04672606 13.66916869 46.64419669 15.84765625 46.2421875 C17.12648682 46.0035498 18.40531738 45.76491211 19.72290039 45.51904297 C23 45 23 45 27 45 C29.64 49.62 32.28 54.24 35 59 C31.70562871 60.64718565 30.01044302 61.32084852 26.54882812 61.82202148 C25.67270874 61.95233261 24.79658936 62.08264374 23.8939209 62.21690369 C22.9492395 62.35028641 22.00455811 62.48366913 21.03125 62.62109375 C20.04112915 62.76652115 19.0510083 62.91194855 18.03088379 63.06178284 C14.85482608 63.52682352 11.67749106 63.98236674 8.5 64.4375 C6.42308383 64.73959395 4.34625981 65.04232216 2.26953125 65.34570312 C-1.82757577 65.94381062 -5.92531348 66.53732344 -10.0234375 67.12841797 C-13.96873452 67.69987379 -17.9110815 68.28734868 -21.8515625 68.89111328 C-22.76885132 69.03130386 -23.68614014 69.17149445 -24.63122559 69.31593323 C-26.34914973 69.57959846 -28.06670625 69.84567473 -29.78381348 70.11460876 C-33.24737644 70.64553206 -36.48652116 71 -40 71 C-41.06368149 69.28428776 -42.10028172 67.55176399 -43.125 65.8125 C-43.70507812 64.84957031 -44.28515625 63.88664063 -44.8828125 62.89453125 C-46 60 -46 60 -45.4921875 57.51171875 C-43.6331991 54.38258383 -41.40795187 51.70935931 -39 49 C-35.19702126 44.61594112 -31.51233236 40.18317149 -28 35.5625 C-27.59386475 35.02874756 -27.18772949 34.49499512 -26.76928711 33.94506836 C-25.93835925 32.85279106 -25.10754952 31.76042388 -24.27685547 30.66796875 C-22.06513439 27.77877593 -19.81393075 24.9207897 -17.5625 22.0625 C-17.11213379 21.49063965 -16.66176758 20.9187793 -16.19775391 20.32958984 C-15.27698386 19.16070614 -14.356084 17.99192469 -13.43505859 16.82324219 C-11.91903995 14.89714024 -10.4064088 12.96841638 -8.89453125 11.0390625 C-8.38913818 10.39445068 -7.88374512 9.74983887 -7.36303711 9.08569336 C-6.38813455 7.84207279 -5.4136715 6.59810752 -4.43969727 5.35375977 C-1.11209205 1.11209205 -1.11209205 1.11209205 0 0 Z " fill="#040000" transform="translate(342,684)"/>
<path d="M0 0 C1.06099328 1.73835057 2.09826483 3.49119804 3.125 5.25 C3.70507812 6.22453125 4.28515625 7.1990625 4.8828125 8.203125 C6 11 6 11 5.453125 12.99609375 C4.97359375 13.65738281 4.4940625 14.31867188 4 15 C3.35289062 15.89332031 2.70578125 16.78664063 2.0390625 17.70703125 C1.24242187 18.73183594 0.44578125 19.75664062 -0.375 20.8125 C-1.03157593 21.65856812 -1.03157593 21.65856812 -1.70141602 22.52172852 C-5.5761606 27.49750831 -9.51583855 32.42136385 -13.46411133 37.33886719 C-18.21772625 43.25981014 -22.91042414 49.22723071 -27.59277344 55.20458984 C-30.12122416 58.43051396 -32.65472248 61.65247273 -35.1875 64.875 C-36.11851019 66.05987964 -37.04950178 67.2447739 -37.98046875 68.4296875 C-38.64691406 69.27789063 -39.31335938 70.12609375 -40 71 C-42.52805342 67.92402084 -44.85632222 64.87164119 -46.875 61.4375 C-47.32617188 60.69371094 -47.77734375 59.94992187 -48.2421875 59.18359375 C-49 57 -49 57 -48.44140625 55.09375 C-46.49061659 52.26008264 -44.31404742 49.65725922 -42.0625 47.0625 C-41.06764679 45.90109438 -40.07285693 44.73963449 -39.078125 43.578125 C-38.56830078 42.98580078 -38.05847656 42.39347656 -37.53320312 41.78320312 C-35.11426364 38.96983783 -32.71151306 36.1428627 -30.3125 33.3125 C-29.8597168 32.77866699 -29.40693359 32.24483398 -28.94042969 31.69482422 C-24.86459079 26.87268414 -20.90729147 21.95968516 -17 17 C-18.11632812 17.24234375 -19.23265625 17.4846875 -20.3828125 17.734375 C-29.44027867 19.68170082 -38.51225529 21.51649303 -47.625 23.1875 C-48.97295654 23.43741699 -48.97295654 23.43741699 -50.34814453 23.69238281 C-55.88733116 24.69464322 -61.39875119 25.43760281 -67 26 C-68.33592797 23.6889639 -69.66884431 21.37628245 -71 19.0625 C-71.3815625 18.40314453 -71.763125 17.74378906 -72.15625 17.06445312 C-75 12.11328125 -75 12.11328125 -75 11 C-59.59021207 8.13863896 -44.13518184 5.83409874 -28.60449219 3.7512207 C-27.11648735 3.55065697 -25.62853043 3.34973739 -24.140625 3.1484375 C-23.42791443 3.05219589 -22.71520386 2.95595428 -21.980896 2.85679626 C-17.04896824 2.17790845 -12.16616148 1.34617137 -7.28808594 0.35400391 C-4.82649006 -0.02684479 -2.48699629 -0.06005374 0 0 Z " fill="#010304" transform="translate(814,444)"/>
<path d="M0 0 C2.26171875 2.01171875 2.26171875 2.01171875 3.6875 4.6875 C4.43580078 5.99267578 4.43580078 5.99267578 5.19921875 7.32421875 C6 10 6 10 5.53515625 12.3203125 C3.29344602 16.23332324 0.56114749 19.66900949 -2.25 23.1875 C-3.5209828 24.79936132 -4.79181174 26.41134397 -6.0625 28.0234375 C-6.71476563 28.84682617 -7.36703125 29.67021484 -8.0390625 30.51855469 C-11.13191343 34.43236655 -14.19024712 38.37279886 -17.25 42.3125 C-17.83031982 43.05741699 -18.41063965 43.80233398 -19.00854492 44.56982422 C-21.66503751 47.98149441 -24.31135705 51.39970577 -26.92578125 54.84375 C-27.37469727 55.43373779 -27.82361328 56.02372559 -28.28613281 56.6315918 C-29.46610493 58.18555279 -30.64146313 59.74301438 -31.81640625 61.30078125 C-34.05164235 64.06383696 -36.44398793 66.53383019 -39 69 C-47 57 -47 57 -46.82421875 55.07421875 C-45.82649893 52.56336934 -44.54113683 50.89497294 -42.8125 48.8125 C-42.09835937 47.94367188 -41.38421875 47.07484375 -40.6484375 46.1796875 C-40.2369043 45.6856543 -39.82537109 45.19162109 -39.40136719 44.68261719 C-37.1823351 42.01823231 -34.97900196 39.34093375 -32.77416992 36.66479492 C-31.58107355 35.21794949 -30.38603202 33.77270508 -29.1887207 32.3293457 C-26.16337451 28.67330845 -23.19139772 24.98496494 -20.28344727 21.23461914 C-19.66502457 20.437621 -19.04660187 19.64062286 -18.40943909 18.81947327 C-17.94432419 18.21904709 -17.47920929 17.61862091 -17 17 C-17.56962967 17.1149733 -18.13925934 17.22994659 -18.72615051 17.34840393 C-24.64512588 18.54152237 -30.56616406 19.72395293 -36.48852539 20.90014648 C-38.69968734 21.34075481 -40.91030517 21.78410286 -43.12036133 22.23022461 C-46.2936992 22.87030331 -49.46885141 23.50056436 -52.64453125 24.12890625 C-53.63524124 24.33093155 -54.62595123 24.53295685 -55.64668274 24.74110413 C-56.56741074 24.92136642 -57.48813873 25.10162872 -58.43676758 25.28735352 C-59.65255241 25.53051048 -59.65255241 25.53051048 -60.89289856 25.77857971 C-63 26 -63 26 -66 25 C-67.82421875 22.34765625 -67.82421875 22.34765625 -69.6875 19.0625 C-70.31011719 17.98097656 -70.93273437 16.89945312 -71.57421875 15.78515625 C-73 13 -73 13 -73 11 C-59.77514946 8.25268238 -46.52732834 5.82311269 -33.18676758 3.70751953 C-30.27485619 3.24400794 -27.36501757 2.76868566 -24.45507812 2.29296875 C-22.57042624 1.99147562 -20.68566444 1.6906686 -18.80078125 1.390625 C-17.94752762 1.25005676 -17.09427399 1.10948853 -16.21516418 0.96466064 C-10.90196737 0.13587686 -5.3687148 -0.7139017 0 0 Z " fill="#000500" transform="translate(685,265)"/>
<path d="M0 0 C2.44998929 2.903691 4.70084924 5.9068208 6.8125 9.0625 C7.25207031 9.71347656 7.69164062 10.36445312 8.14453125 11.03515625 C9.23150503 13.5317216 8.86529173 14.45664857 8 17 C6.2184322 19.27034209 4.41962798 21.41593245 2.5 23.5625 C1.4000704 24.81816027 0.30112113 26.07467993 -0.796875 27.33203125 C-1.34150391 27.95287598 -1.88613281 28.5737207 -2.44726562 29.21337891 C-8.87048818 36.60412461 -14.88838414 44.35209022 -21 52 C-17.12562936 51.34677661 -13.25198686 50.68939462 -9.37890625 50.02856445 C-7.43264296 49.69731082 -5.48585978 49.36911639 -3.5390625 49.04101562 C4.02421315 47.7483129 11.51224365 46.28553787 18.98974609 44.56176758 C21.80010951 44.03730316 24.15941294 43.67503461 27 44 C28.7304151 46.14414436 29.99272175 48.00090175 31.3125 50.375 C31.67150391 50.97828125 32.03050781 51.5815625 32.40039062 52.203125 C35 56.65959821 35 56.65959821 35 59 C27.49785954 60.25188935 19.99447299 61.49610198 12.49023438 62.73535156 C9.94535518 63.15649756 7.40075045 63.57930596 4.85644531 64.00390625 C-9.39829073 66.38156482 -23.60719878 68.65015041 -38 70 C-44.07776692 60.57325948 -44.07776692 60.57325948 -43.73779297 58.06713867 C-42.92070622 55.77783573 -41.90562869 54.26049339 -40.41015625 52.34765625 C-39.87849854 51.6606665 -39.34684082 50.97367676 -38.79907227 50.26586914 C-38.22600342 49.53875732 -37.65293457 48.81164551 -37.0625 48.0625 C-36.47202881 47.30251709 -35.88155762 46.54253418 -35.27319336 45.75952148 C-34.07524067 44.21795363 -32.87481893 42.67830116 -31.671875 41.140625 C-29.44979042 38.29552605 -27.25649351 35.42931819 -25.0625 32.5625 C-20.39916394 26.50245282 -15.70241945 20.46855339 -10.99633789 14.44165039 C-7.27520843 9.66849065 -3.61361151 4.85507251 0 0 Z " fill="#040200" transform="translate(224,506)"/>
</svg>
