<?xml version="1.0" encoding="UTF-8"?>
<svg version="1.1" xmlns="http://www.w3.org/2000/svg" width="1000" height="1000">
<path d="M0 0 C330 0 660 0 1000 0 C1000 330 1000 660 1000 1000 C670 1000 340 1000 0 1000 C0 670 0 340 0 0 Z " fill="#FEFEFE" transform="translate(0,0)"/>
<path d="M0 0 C1.55843377 0.41946633 3.11694862 0.83863152 4.67553711 1.25752258 C8.03639723 2.1614307 11.39671674 3.06731219 14.75662231 3.97476196 C20.13956936 5.42857104 25.52365501 6.87812995 30.90795898 8.3269043 C36.65824447 9.87430595 42.40847533 11.42190792 48.15834045 12.97087097 C62.88220995 16.93693085 77.6100916 20.88787966 92.33984375 24.83203125 C94.50935437 25.41303235 96.67886426 25.99403617 98.84837341 26.57504272 C107.30693225 28.84017269 115.76556892 31.10501166 124.22439575 33.36914062 C129.17323431 34.69381657 134.12182153 36.01942854 139.07031059 37.34540939 C141.89943394 38.10308665 144.72888547 38.8595289 147.55836487 39.61587524 C156.18831756 41.92551919 164.80965194 44.26058828 173.41357422 46.66552734 C174.95529103 47.09438826 176.49703327 47.52315776 178.0388031 47.951828 C180.8495842 48.73357451 183.65679054 49.52665661 186.46229553 50.32710266 C187.6928215 50.66992783 188.92334747 51.01275299 190.19116211 51.3659668 C191.24782578 51.66544724 192.30448944 51.96492767 193.39317322 52.27348328 C199.62471477 53.54425773 204.7984839 52.7905617 210.8840332 51.14404297 C211.59390821 50.95457627 212.30378323 50.76510958 213.0351696 50.56990147 C215.3955497 49.93768294 217.75235813 49.29307147 220.109375 48.6484375 C221.80238877 48.19234648 223.49561651 47.73704913 225.18904114 47.28248596 C229.77401636 46.04948923 234.35605035 44.80587061 238.93766022 43.56043625 C243.76578085 42.25005927 248.59661131 40.94975363 253.42724609 39.64868164 C261.45709242 37.48489316 269.48553732 35.31597819 277.51318359 33.14404297 C288.87432333 30.07098907 300.24082103 27.01815242 311.609375 23.97265625 C313.39008721 23.49549354 315.17079807 23.0183258 316.95150757 22.54115295 C323.89182155 20.68156789 330.83233192 18.82271652 337.77294922 16.96426392 C342.79158475 15.62031321 347.80997094 14.27543482 352.828125 12.9296875 C353.63030079 12.71458464 354.43247658 12.49948177 355.25896072 12.27786064 C365.53582506 9.52091454 375.80448789 6.73578235 386.06439209 3.91638756 C390.35167953 2.73929297 394.64075917 1.56873158 398.92938232 0.39651489 C402.20343349 -0.50237818 405.47404131 -1.41306405 408.74462891 -2.32446289 C410.66813545 -2.85100371 412.59179035 -3.37700302 414.515625 -3.90234375 C415.79200081 -4.26451492 415.79200081 -4.26451492 417.09416199 -4.63400269 C424.84386256 -6.72465218 424.84386256 -6.72465218 428.49609375 -5.09375 C431.6395269 -0.82167177 432.76372249 3.80775684 434.07714844 8.85668945 C434.31710761 9.75359466 434.55706678 10.65049986 434.80429745 11.57458401 C435.59954368 14.55432963 436.38372303 17.53687323 437.16796875 20.51953125 C437.72805024 22.62642573 438.28883997 24.73313205 438.85029602 26.83966064 C440.34865491 32.46882953 441.83765513 38.10043373 443.3247261 43.73259354 C444.85643741 49.52809253 446.39607585 55.32148364 447.93530273 61.11499023 C449.76523164 68.00426824 451.59451451 74.89371328 453.41990662 81.78419495 C456.76556963 94.4112254 460.13318382 107.03181729 463.546875 119.640625 C463.90754264 120.97473001 464.26815006 122.3088513 464.62869263 123.64299011 C466.54691771 130.73853238 466.54691771 130.73853238 468.47570801 137.83120728 C473.80861752 157.39241546 473.80861752 157.39241546 475.13452148 166.55493164 C475.6523144 169.92215887 476.52930163 173.07705008 477.49609375 176.34375 C477.82609375 177.47683594 478.15609375 178.60992187 478.49609375 179.77734375 C479.43646852 182.85166216 479.43646852 182.85166216 480.5625 185.5546875 C481.43523729 187.75296301 481.97760919 189.77908552 482.43359375 192.09375 C483.30556974 196.19676878 484.40141395 200.17353535 485.66796875 204.171875 C486.25903281 206.1235016 486.78324746 208.09588678 487.26171875 210.078125 C489.5078061 218.77660875 493.17461268 223.66002466 499.49609375 229.90625 C500.69621229 231.27025027 501.88468046 232.64463223 503.05859375 234.03125 C505.4110297 236.74142966 507.86143085 239.27914601 510.43359375 241.78125 C513.34933576 244.63009162 515.80864904 247.57868431 518.24609375 250.84375 C522.21404375 255.9759488 526.76308131 259.34693854 532.0546875 262.99609375 C534.49609375 264.90625 534.49609375 264.90625 535.49609375 267.90625 C536.82268796 268.58622797 538.15751251 269.25018409 539.49609375 269.90625 C541.15604406 271.37730944 542.76354461 272.90822143 544.33622742 274.472229 C545.0447084 275.17285497 545.0447084 275.17285497 545.76750213 275.88763499 C547.34677601 277.45192309 548.91883505 279.02326307 550.4909668 280.59472656 C551.62253355 281.71867102 552.75450167 282.84221152 553.88684082 283.96537781 C556.95975728 287.01635271 560.0260788 290.07387263 563.09058356 293.13329411 C565.00524506 295.04431245 566.92119833 296.95402594 568.83759499 298.86330414 C575.52253684 305.52375528 582.20174161 312.18990462 588.8762207 318.86083984 C595.09922988 325.08021131 601.33525377 331.28632177 607.57733315 337.48654771 C612.93572196 342.81026277 618.2844678 348.14353903 623.62589675 353.48426986 C626.8164111 356.67399058 630.01079261 359.8595931 633.21509361 363.03546906 C636.2278067 366.02205094 639.22836508 369.02032739 642.21999359 372.02802467 C643.31980488 373.12965421 644.42390248 374.22702361 645.5325489 375.31976128 C647.0458453 376.81265739 648.54290365 378.32017233 650.03691101 379.83233643 C650.87884349 380.67225758 651.72077597 381.51217873 652.58822155 382.37755203 C654.82593796 385.34342623 655.41351648 387.20448806 655.49609375 390.90625 C654.58695126 392.75056648 654.58695126 392.75056648 652.99095154 394.40725708 C652.33537703 395.09073338 651.67980251 395.77420967 651.00436211 396.47839737 C645.98073272 401.34096791 640.89472319 406.12956518 635.75933838 410.87396622 C631.90577461 414.4363464 628.06674585 418.01429332 624.22901917 421.59371948 C623.41099575 422.35668138 622.59297234 423.11964328 621.75016034 423.90572524 C610.17682506 434.72120696 598.76990767 445.71195687 587.36274052 456.70213127 C578.13647825 465.58162934 568.859379 474.39063591 559.42700195 483.05126953 C510.82484571 527.75530448 479.81186494 564.77531838 469.2300806 631.13118839 C466.28017316 649.55145745 461.3351469 667.34355127 456.27265739 685.2781601 C454.14111517 692.84975709 452.11760565 700.4506784 450.08604634 708.04957902 C449.22816435 711.25559538 448.36602624 714.46046245 447.50378746 717.66530937 C445.18936044 726.27419494 442.91719124 734.89371169 440.6636467 743.51870728 C439.53570331 747.82915344 438.39804279 752.1370502 437.26202393 756.44537354 C436.39879663 759.73807975 435.55144844 763.03459659 434.70458984 766.33154297 C434.1958623 768.26162416 433.6863183 770.19149042 433.17578125 772.12109375 C432.85232727 773.4129232 432.85232727 773.4129232 432.52233887 774.73085022 C432.20746521 775.90036476 432.20746521 775.90036476 431.88623047 777.09350586 C431.71276093 777.76328964 431.53929138 778.43307343 431.36056519 779.12315369 C430.16957454 781.57974271 428.86328866 782.57503613 426.49609375 783.90625 C424.45849609 783.90289307 424.45849609 783.90289307 422.20703125 783.34472656 C421.32241211 783.13303833 420.43779297 782.9213501 419.52636719 782.70324707 C418.52637695 782.44023804 417.52638672 782.177229 416.49609375 781.90625 C415.38008789 781.62422729 414.26408203 781.34220459 413.11425781 781.05163574 C409.10944157 780.02337568 405.1149987 778.96026211 401.12109375 777.890625 C399.58948859 777.48284662 398.05781445 777.07532726 396.52607727 776.66804504 C392.38156758 775.56514572 388.23812075 774.45830203 384.09488297 773.35063553 C380.59526103 772.41555129 377.09503313 771.48274677 373.59480381 770.54993916 C361.55998009 767.34255343 349.52762055 764.12597844 337.49609375 760.90625 C336.13261181 760.54137859 336.13261181 760.54137859 334.74158478 760.16913605 C322.2965304 756.83852853 309.85262248 753.50365535 297.40939713 750.16622162 C294.81175393 749.46959748 292.21403806 748.77324494 289.61630249 748.07696533 C273.38908529 743.72722744 257.16335299 739.37322282 240.95913124 734.93846703 C236.69545496 733.77242463 232.4303517 732.61160337 228.1656189 731.44943237 C224.91690054 730.56087307 221.67094771 729.66270959 218.42504883 728.76391602 C216.50744982 728.24058771 214.58973343 727.71768929 212.671875 727.1953125 C211.83124512 726.95901627 210.99061523 726.72272003 210.12451172 726.47926331 C208.95553345 726.16395912 208.95553345 726.16395912 207.76293945 725.84228516 C207.10203812 725.65993317 206.44113678 725.47758118 205.76020813 725.28970337 C200.37078064 724.37694289 195.56442434 724.92207219 190.33666992 726.36132812 C189.14262543 726.68522018 187.94858093 727.00911224 186.71835327 727.34281921 C185.40856405 727.70762078 184.09880139 728.07251775 182.7890625 728.4375 C181.38789385 728.82068819 179.98648884 729.20301301 178.58486938 729.58454895 C175.55127766 730.41195941 172.51920352 731.2446472 169.4881897 732.08145142 C164.60421459 733.42951363 159.71696154 734.76538571 154.82885742 736.09838867 C153.99084626 736.32691749 153.1528351 736.5554463 152.28942966 736.79090023 C150.56603047 737.2608131 148.84261524 737.73066711 147.11918449 738.20046425 C144.45575758 738.92683866 141.79262943 739.65430088 139.12953186 740.38188171 C125.93328639 743.98464073 112.72285178 747.53228317 99.50390625 751.05078125 C98.06722721 751.43323155 98.06722721 751.43323155 96.60152435 751.82340813 C88.87442886 753.87991671 81.14658315 755.9336 73.41851807 757.98646164 C66.80068644 759.74445231 60.18321035 761.50377051 53.56640625 763.265625 C52.65659248 763.50787371 51.74677872 763.75012241 50.80939484 763.99971199 C38.76946783 767.20781129 26.74570098 770.46923777 14.73828125 773.796875 C13.4056972 774.16533717 12.07309165 774.53372157 10.74046326 774.90202332 C4.79316649 776.54732219 -1.15058782 778.20366268 -7.08862305 779.88208008 C-9.10845763 780.44389463 -11.12838875 781.00536226 -13.1484375 781.56640625 C-14.03963287 781.82339294 -14.93082825 782.08037964 -15.84902954 782.34515381 C-23.45400216 784.43713992 -23.45400216 784.43713992 -27.50390625 782.90625 C-30.21256228 780.19759397 -30.51197139 777.79236636 -31.49316406 774.0859375 C-31.68292564 773.37678129 -31.87268723 772.66762508 -32.06819916 771.93697929 C-32.70428098 769.55340657 -33.3305716 767.16736817 -33.95703125 764.78125 C-34.40882595 763.08090047 -34.86125353 761.380719 -35.31427002 759.68069458 C-36.2890334 756.01766848 -37.2595534 752.35355391 -38.22680664 748.6885376 C-39.76493305 742.86071838 -41.31226075 737.03536845 -42.86132812 731.21044922 C-44.46762077 725.16881588 -46.07338979 719.12704675 -47.67602539 713.08444214 C-52.85634583 693.55397125 -58.09048716 674.03811116 -63.33403015 654.52453613 C-63.98335986 652.10772389 -64.63244295 649.69084561 -65.28137207 647.27392578 C-65.57327988 646.18730982 -65.57327988 646.18730982 -65.87108481 645.07874203 C-66.28473043 643.536884 -66.69747609 641.99478397 -67.1089319 640.45234013 C-68.14328905 636.58027054 -69.19246804 632.71379126 -70.28253365 628.85700989 C-72.63818066 620.42831344 -74.72948052 612.02890747 -76.36910689 603.42922223 C-83.56288658 566.05972451 -96.4321295 544.02510498 -124.10825491 518.30940771 C-128.73883919 513.96068539 -133.24543335 509.48652223 -137.76785278 505.02590942 C-145.33098875 497.59688886 -152.9594916 490.2408178 -160.64892578 482.94287109 C-168.53697363 475.45596088 -176.3857512 467.93144757 -184.18408203 460.35107422 C-184.66944305 459.87931188 -185.15480407 459.40754954 -185.654873 458.92149137 C-190.00943507 454.68776309 -194.35968928 450.44961718 -198.70980668 446.21132302 C-201.51938958 443.47408239 -204.32946863 440.73735281 -207.1399231 438.00100708 C-208.05024296 437.1145082 -208.96056282 436.22800932 -209.89846814 435.31464684 C-215.29214319 430.06867972 -220.71013347 424.84950393 -226.15260863 419.65418792 C-229.51276842 416.44570396 -232.86435827 413.22834494 -236.21536255 410.0103035 C-237.77137658 408.52124595 -239.33184416 407.03682649 -240.89700699 405.55738831 C-243.02879423 403.54202919 -245.14503409 401.51154268 -247.2585144 399.47702026 C-247.88348529 398.8945805 -248.50845617 398.31214073 -249.15236557 397.71205127 C-251.87156557 395.06675631 -253.34532659 393.38117153 -254.56602097 389.7253809 C-254.49293973 386.40852474 -254.04777276 385.56368444 -251.75546265 383.22938538 C-251.10186138 382.54758272 -250.44826012 381.86578007 -249.77485275 381.16331673 C-249.02544041 380.41848471 -248.27602806 379.67365269 -247.50390625 378.90625 C-246.30146208 377.6688548 -246.30146208 377.6688548 -245.0747261 376.40646172 C-242.23073286 373.49453807 -239.35789491 370.61339928 -236.47900391 367.73608398 C-235.37909016 366.63317224 -234.27937968 365.53005777 -233.17985535 364.42675781 C-230.2131696 361.45129543 -227.24330211 358.47902922 -224.27254534 355.50763202 C-222.41235202 353.64672486 -220.55287385 351.78510615 -218.69364548 349.92323494 C-212.19542186 343.41578058 -205.69464136 336.9108933 -199.19140625 330.40844727 C-193.14803505 324.36567702 -187.11026723 318.31734801 -181.07509387 312.26639122 C-175.87589333 307.05408294 -170.67281178 301.84567022 -165.46673429 296.64023072 C-162.36504462 293.53879497 -159.26489845 290.43585547 -156.16865921 287.32897758 C-153.25594288 284.40652505 -150.33839028 281.4889861 -147.41718483 278.57501984 C-146.35169959 277.51057342 -145.28788813 276.44444826 -144.22596931 275.37644386 C-138.87489104 269.99671305 -133.49496648 264.86120315 -127.38991356 260.32972813 C-123.59470648 257.46526719 -120.24351852 254.10776875 -116.7890625 250.84765625 C-114.50390625 248.90625 -114.50390625 248.90625 -112.50390625 248.90625 C-112.30023438 248.36613281 -112.0965625 247.82601562 -111.88671875 247.26953125 C-109.94576141 243.95235839 -107.21403833 241.62962702 -104.37890625 239.09375 C-103.79431641 238.56112549 -103.20972656 238.02850098 -102.60742188 237.47973633 C-98.91208788 234.12484264 -95.16163656 230.84445391 -91.28515625 227.69921875 C-86.08292021 222.46275747 -83.68095771 217.51493963 -82.1171875 210.4453125 C-81.92924118 209.65530853 -81.74129486 208.86530457 -81.5476532 208.05136108 C-80.95573523 205.54786149 -80.38579777 203.03995759 -79.81640625 200.53125 C-79.42396234 198.85643363 -79.03009359 197.18195046 -78.63476562 195.5078125 C-77.73869312 191.69511505 -76.85234037 187.88056394 -75.99382019 184.05921936 C-75.66401607 182.60986652 -75.32272528 181.16308503 -74.97065735 179.71897888 C-73.84524324 174.98832944 -73.20697774 170.37431604 -72.77488708 165.53434753 C-71.06337149 147.6160905 -65.96440536 130.52613448 -61.17401505 113.24435043 C-59.93282836 108.75370006 -58.70959922 104.25816521 -57.48510742 99.76293945 C-55.98184685 94.24819083 -54.47698167 88.73390594 -52.96388245 83.22184753 C-49.8572883 71.90177466 -46.79768317 60.57039931 -43.79117393 49.22333336 C-43.16054907 46.84346542 -42.52880506 44.46389747 -41.89668274 42.08442688 C-39.52618064 33.16192386 -39.52618064 33.16192386 -37.16793823 24.23617554 C-36.1073832 20.21116327 -35.03461455 16.18950027 -33.9609375 12.16796875 C-33.49831009 10.39885132 -33.49831009 10.39885132 -33.02633667 8.59399414 C-32.73638824 7.51456543 -32.44643982 6.43513672 -32.14770508 5.32299805 C-31.77758049 3.92527412 -31.77758049 3.92527412 -31.39997864 2.49931335 C-26.40459921 -11.95636626 -11.38317091 -3.08296501 0 0 Z " fill="#040403" transform="translate(299.50390625,111.09375)"/>
<path d="M0 0 C3.30281742 0.76610974 5.91472987 1.89375557 8.90234375 3.51953125 C9.86390381 4.04087646 10.82546387 4.56222168 11.81616211 5.09936523 C13.36122437 5.94736694 13.36122437 5.94736694 14.9375 6.8125 C16.0107251 7.39781494 17.0839502 7.98312988 18.18969727 8.58618164 C25.84151197 12.7752384 33.43517464 17.05952825 40.99633789 21.40966797 C47.76182362 25.30196525 54.56102205 29.13078209 61.375 32.9375 C69.42847774 37.4377007 77.47204181 41.95442305 85.5 46.5 C93.48774107 51.02207659 101.48878029 55.5196512 109.5 60 C118.44990193 65.00531552 127.38473999 70.0363346 136.30737305 75.09008789 C141.41195843 77.97911848 146.52345234 80.85513601 151.64453125 83.71484375 C152.75699219 84.33617187 153.86945313 84.9575 155.015625 85.59765625 C157.14374327 86.78526728 159.27259712 87.97156161 161.40234375 89.15625 C167.67381917 92.65603114 173.86573857 96.26481897 180 100 C179.43181869 103.53990892 178.54519034 106.18576519 176.734375 109.2734375 C176.02776733 110.49232666 176.02776733 110.49232666 175.30688477 111.73583984 C174.79311279 112.6067627 174.27934082 113.47768555 173.75 114.375 C172.64909525 116.27045925 171.54885773 118.16630615 170.44921875 120.0625 C169.87864746 121.0421875 169.30807617 122.021875 168.72021484 123.03125 C165.96237527 127.7907347 163.26284175 132.58273442 160.5625 137.375 C159.46750866 139.31383639 158.37245625 141.25263829 157.27734375 143.19140625 C155.12172386 147.01060931 152.96845005 150.83112471 150.81640625 154.65234375 C145.12006291 164.75898482 139.37471512 174.83449561 133.5625 184.875 C127.42682271 195.47771507 121.41056687 206.14268568 115.44140625 216.83984375 C111.917763 223.15417213 108.36946941 229.45439467 104.8125 235.75 C104.27157715 236.70865967 103.7306543 237.66731934 103.17333984 238.6550293 C102.41657959 239.99368042 102.41657959 239.99368042 101.64453125 241.359375 C101.20471924 242.13764648 100.76490723 242.91591797 100.31176758 243.71777344 C98.90548669 246.16443522 97.45890638 248.58441183 96 251 C99.96 253.475 99.96 253.475 104 256 C104.26989746 255.28658447 104.53979492 254.57316895 104.81787109 253.83813477 C106.0165699 250.96021786 107.3975562 248.31297393 108.9140625 245.58984375 C109.50203613 244.5318457 110.09000977 243.47384766 110.69580078 242.38378906 C111.33243652 241.24651367 111.96907227 240.10923828 112.625 238.9375 C113.29548836 237.73539518 113.96589703 236.5332459 114.63623047 235.33105469 C120.40522261 225.00105697 126.27163314 214.72716827 132.1552887 204.46218872 C136.02174698 197.71649328 139.865061 190.95822959 143.6875 184.1875 C144.21448486 183.25413818 144.74146973 182.32077637 145.28442383 181.35913086 C146.85682027 178.57305684 148.42854659 175.78660602 150 173 C157.38936622 159.89668289 164.81205772 146.81335598 172.28335571 133.75662231 C177.56393851 124.52764215 182.81174123 115.28121847 188 106 C191.89066683 106.59131856 194.73737097 107.75915008 198.1484375 109.703125 C199.63827148 110.54520508 199.63827148 110.54520508 201.15820312 111.40429688 C202.21974609 112.01337891 203.28128906 112.62246094 204.375 113.25 C205.48552734 113.87970703 206.59605469 114.50941406 207.74023438 115.15820312 C210.04425838 116.46525592 212.34665526 117.77518088 214.64746094 119.08789062 C218.66125959 121.37714718 222.68359138 123.65102997 226.70727539 125.92285156 C228.57168804 126.97575004 230.43545647 128.02979006 232.29858398 129.08496094 C237.42840984 131.98948754 242.56649271 134.87842153 247.71484375 137.75 C248.83632813 138.37583984 249.9578125 139.00167969 251.11328125 139.64648438 C253.26723646 140.84748525 255.42212695 142.04681086 257.578125 143.24414062 C263.15347117 146.35332778 268.62014054 149.56304569 274 153 C272.40596353 163.92745504 269.31582299 174.51537859 266.453125 185.16015625 C265.88759569 187.27583484 265.32244993 189.39161599 264.75765991 191.50749207 C263.24122751 197.18406988 261.71939136 202.85918572 260.19641876 208.53401184 C258.61155527 214.44278319 257.03140231 220.35281409 255.45068359 226.26269531 C252.88047632 235.86942339 250.30714545 245.47530966 247.73144531 255.08056641 C244.82227444 265.92942881 241.91810282 276.77961886 239.0168457 287.63059998 C236.78644662 295.97244878 234.55329257 304.31355961 232.31980896 312.65458298 C231.63218141 315.22317426 230.94501061 317.79188736 230.25793457 320.36062622 C225.64213896 337.61360149 221.00508798 354.85475124 216 372 C206.96806545 370.5726947 198.21050873 368.30160391 189.3984375 365.90625 C187.84128066 365.48662388 186.28401088 365.06741664 184.72663879 364.64859009 C181.37137106 363.74536656 178.01686354 362.83939088 174.66293335 361.93121338 C169.29247569 360.4770294 163.92043586 359.02875458 158.5480957 357.58154297 C152.80853175 356.03518308 147.06905321 354.48851162 141.33009338 352.93991089 C126.56441127 348.95608639 111.79321983 344.99308413 97.01953125 341.0390625 C94.8402081 340.45567507 92.66088681 339.87228071 90.48156738 339.28887939 C81.97775492 337.01256415 73.47385633 334.73657133 64.96966553 332.46166992 C42.28893874 326.39387585 19.6169667 320.30199832 -3 314 C-3.02335721 305.14946939 -3.04103258 296.29894969 -3.05181217 287.44839478 C-3.05699054 283.33700457 -3.06399433 279.22563573 -3.07543945 275.11425781 C-3.08645043 271.13309525 -3.09231462 267.151953 -3.09487724 263.17077637 C-3.09669918 261.66564617 -3.10025518 260.16051685 -3.10573006 258.65539551 C-3.14150107 248.39633673 -2.75789884 238.23150006 -2 228 C6 232 14 236 22 240 C22.86646667 238.56988027 23.71781829 237.13059381 24.5625 235.6875 C25.03816406 234.88699219 25.51382813 234.08648438 26.00390625 233.26171875 C27.342681 230.90841521 27.342681 230.90841521 26 228 C23.22541768 226.17018222 23.22541768 226.17018222 19.77734375 224.42578125 C18.84723228 223.9327375 18.84723228 223.9327375 17.89833069 223.42973328 C15.91601815 222.38157833 13.926989 221.34695749 11.9375 220.3125 C10.59263532 219.6043955 9.24822803 218.89542156 7.90429688 218.18554688 C4.60811313 216.44690991 1.30577576 214.72034302 -2 213 C-2.28573016 141.99508231 -1.24149401 70.99259424 0 0 Z " fill="#A53AFD" transform="translate(505,510)"/>
<path d="M0 0 C3.54823215 1.39025746 6.82695785 2.92774571 10.1484375 4.80078125 C11.14294922 5.35967041 12.13746094 5.91855957 13.16210938 6.49438477 C14.22236328 7.09436279 15.28261719 7.69434082 16.375 8.3125 C17.47392578 8.93116943 18.57285156 9.54983887 19.70507812 10.18725586 C23.13863781 12.12145845 26.56960654 14.06018835 30 16 C32.14842021 17.21357228 34.29685714 18.42711495 36.4453125 19.640625 C39.3970817 21.30831626 42.34846792 22.97666002 45.29833984 24.64770508 C50.85064237 27.79238547 56.41658354 30.91088451 62 34 C60.37981549 39.43238337 58.38130039 44.47145313 55.95703125 49.59765625 C55.32671019 50.93635068 54.6965938 52.27514149 54.06665039 53.61401367 C53.73150421 54.32447845 53.39635803 55.03494324 53.05105591 55.76693726 C51.20428352 59.69057119 49.37591845 63.62276528 47.546875 67.5546875 C47.1603476 68.38550842 46.77382019 69.21632935 46.37557983 70.07232666 C38.05478323 87.9661231 29.82065711 105.88067981 22 124 C24.97 124.99 27.94 125.98 31 127 C31.26087402 126.16291504 31.52174805 125.32583008 31.79052734 124.46337891 C33.09627736 120.72430549 34.67537939 117.16810498 36.3515625 113.5859375 C36.84857918 112.51246819 36.84857918 112.51246819 37.3556366 111.41731262 C38.07038215 109.87361498 38.78640201 108.33050682 39.50357056 106.78793335 C46.77572599 91.14073728 53.86615272 75.41909651 60.82080078 59.62841797 C63.73980153 53.01065544 66.66678455 46.42294664 70 40 C73.54269146 40.68146703 76.28263585 42.12609852 79.41796875 43.88671875 C81.03300293 44.78898193 81.03300293 44.78898193 82.68066406 45.70947266 C83.8496627 46.36872056 85.01860658 47.02806556 86.1875 47.6875 C87.40178103 48.36809915 88.61630288 49.04826881 89.83105469 49.72802734 C92.33263741 51.12883468 94.8327061 52.53228875 97.33154297 53.93798828 C100.72929143 55.84897803 104.13153209 57.75183502 107.53515625 59.65234375 C118.48795496 65.77028493 129.41925988 71.92555004 140.33691406 78.10595703 C147.3800558 82.09079724 154.43722451 86.05007741 161.5 90 C170.4593421 95.01059503 179.40281974 100.04829051 188.3359375 105.10546875 C195.37946347 109.09036769 202.43690717 113.04989994 209.5 117 C218.4470437 122.00371703 227.37959486 127.03214417 236.29858398 132.08569336 C241.45127779 135.00277501 246.61261808 137.90338679 251.78515625 140.78515625 C252.91566406 141.41550781 254.04617188 142.04585937 255.2109375 142.6953125 C257.39073322 143.90969753 259.57166376 145.12204857 261.75390625 146.33203125 C266.63727147 149.05348999 271.416865 151.79572271 276 155 C273.33865944 157.05511094 270.6464314 158.87479464 267.74609375 160.57421875 C266.48539062 161.31575195 266.48539062 161.31575195 265.19921875 162.07226562 C264.28785156 162.60529297 263.37648438 163.13832031 262.4375 163.6875 C260.4464716 164.8578297 258.45559293 166.02841416 256.46484375 167.19921875 C255.41280762 167.81716309 254.36077148 168.43510742 253.27685547 169.07177734 C247.67635511 172.36731838 242.0888037 175.68467555 236.5 179 C228.33716906 183.83983735 220.17118139 188.67427424 212 193.5 C200.47797995 200.30505777 188.96656448 207.12798115 177.45556641 213.95166016 C171.80409916 217.30176185 166.1520027 220.6508018 160.5 224 C158.24999736 225.33332887 155.99999736 226.66666221 153.75 228 C140.25 236 140.25 236 136.86914062 238.00341797 C134.63860831 239.32525081 132.40813866 240.64718942 130.17773438 241.96923828 C124.89362526 245.10116411 119.60887165 248.23198016 114.32189941 251.35906982 C111.81762443 252.84036292 109.31370542 254.32225712 106.80981445 255.80419922 C105.61321541 256.51218295 104.41644098 257.21987034 103.21948242 257.92724609 C101.56254799 258.90648194 99.90625913 259.88680989 98.25 260.8671875 C97.30640625 261.42519043 96.3628125 261.98319336 95.390625 262.55810547 C93.5650629 263.6591849 91.77385881 264.81742746 90 266 C85.85888706 265.66984194 82.77202193 263.97538554 79.1875 261.96484375 C78.04474609 261.32869141 76.90199219 260.69253906 75.72460938 260.03710938 C74.48304268 259.33729322 73.24150709 258.63742188 72 257.9375 C70.70157216 257.21217361 69.40273663 256.48757659 68.10351562 255.76367188 C65.40466056 254.2591705 62.70758722 252.75154518 60.01171875 251.24169922 C54.4490896 248.12937941 48.86548679 245.05526115 43.28173828 241.98104858 C40.30170562 240.34020332 37.32261157 238.69765768 34.34375 237.0546875 C33.45381348 236.56390968 33.45381348 236.56390968 32.54589844 236.06321716 C28.67645395 233.92818638 24.81076681 231.78647612 20.94714355 229.64093018 C18.27572254 228.15773946 15.60311862 226.6766876 12.93041992 225.19580078 C11.65655136 224.48918797 10.38326337 223.78152735 9.1105957 223.07275391 C7.34603746 222.09012243 5.57931227 221.11138534 3.8125 220.1328125 C2.80832031 219.57480957 1.80414063 219.01680664 0.76953125 218.44189453 C-1.777956 217.11560224 -4.31408336 216.01090144 -7 215 C-7.28875 215.7425 -7.5775 216.485 -7.875 217.25 C-9 220 -9 220 -10.125 222.125 C-11.21144273 224.10823854 -11.21144273 224.10823854 -11 227 C-9.83726562 227.60585938 -8.67453125 228.21171875 -7.4765625 228.8359375 C2.88519819 234.25181558 13.15236697 239.8093542 23.35302734 245.52197266 C26.36298672 247.202686 29.37839685 248.8733626 32.39453125 250.54296875 C46.32438101 258.25674092 60.20191358 266.05278755 74 274 C71.55542967 276.70787093 68.88919938 278.39149616 65.75 280.23046875 C64.67935303 280.86098145 63.60870605 281.49149414 62.50561523 282.14111328 C61.33710131 282.82328413 60.16856226 283.50541195 59 284.1875 C57.79537098 284.89518853 56.59102952 285.60336676 55.38696289 286.31201172 C52.87123186 287.79210979 50.35425848 289.27006223 47.83642578 290.74658203 C42.27068484 294.01280386 36.72053433 297.30531246 31.17016602 300.5975647 C29.48430614 301.59724492 27.79782587 302.59587868 26.11132812 303.59448242 C24.53834961 304.52611206 24.53834961 304.52611206 22.93359375 305.4765625 C21.93440918 306.0634082 20.93522461 306.65025391 19.90576172 307.25488281 C17.9634492 308.42138003 16.04266509 309.62446987 14.14501953 310.86230469 C12.82219971 311.71550293 12.82219971 311.71550293 11.47265625 312.5859375 C10.7031665 313.09946777 9.93367676 313.61299805 9.14086914 314.14208984 C7 315 7 315 5.26877975 314.44117165 C1.9461111 312.33054991 -0.68629137 309.58100226 -3.44134521 306.79916382 C-4.08588063 306.15633725 -4.73041605 305.51351068 -5.39448285 304.85120451 C-7.55650907 302.69247682 -9.71130189 300.52667045 -11.86621094 298.36083984 C-13.41314977 296.81333698 -14.96052891 295.26627416 -16.50831604 293.71961975 C-20.71284885 289.51566176 -24.91117822 285.30555716 -29.10844326 281.09434462 C-33.49444647 276.69585554 -37.88609808 272.30301363 -42.27716064 267.90957642 C-49.64779629 260.53342691 -57.01492902 253.15379399 -64.37939453 245.77148438 C-71.96461512 238.16790394 -79.55193479 230.56642827 -87.14208984 222.96777344 C-87.60999726 222.49934058 -88.07790467 222.03090772 -88.55999109 221.54827993 C-90.90737331 219.19828762 -93.25479915 216.84833888 -95.60224104 214.49840617 C-115.0744844 195.0052466 -134.53958012 175.50496269 -154 156 C-152.34828196 151.74238754 -149.16802712 148.89589215 -145.98898315 145.74847412 C-145.36657435 145.12435646 -144.74416554 144.5002388 -144.10289586 143.85720849 C-142.01326453 141.76427936 -139.91655845 139.67858492 -137.81982422 137.59277344 C-136.3215818 136.09509507 -134.82377946 134.59697636 -133.3263855 133.09844971 C-129.25672032 129.02820978 -125.18091 124.96417371 -121.10399008 120.9012022 C-116.84563664 116.65533563 -112.5929313 112.40381967 -108.33963013 108.15289307 C-100.28302218 100.10250589 -92.2213287 92.05723134 -84.15780747 84.01376939 C-74.97866661 74.85696891 -65.80519162 65.69450129 -56.63219428 56.53154707 C-37.76110544 37.68137377 -18.88289259 18.83834853 0 0 Z " fill="#FD8D01" transform="translate(213,345)"/>
<path d="M0 0 C15.58669084 3.39956631 31.03080468 7.35253524 46.34472656 11.81933594 C52.19985185 13.51663448 58.07802201 15.05434067 64 16.5 C70.79938 18.15984865 77.53112621 19.97730205 84.25 21.9375 C92.89499513 24.45855173 101.59373137 26.67525675 110.33886719 28.82006836 C116.78224631 30.41216422 123.14113815 32.17276188 129.48925781 34.10571289 C135.60978802 35.94318914 141.79454722 37.47761619 148 39 C154.88301648 40.68861052 161.71977481 42.43543893 168.5 44.5 C176.3862421 46.89999111 184.35964267 48.89654866 192.36523438 50.85742188 C193.32494141 51.09267578 194.28464844 51.32792969 195.2734375 51.5703125 C196.11310059 51.77414551 196.95276367 51.97797852 197.81787109 52.18798828 C202.56158401 53.39848308 207.27941842 54.70262573 212 56 C212.9698136 85.34847269 213.12773998 114.67149923 213.06866455 144.03411865 C213.05820531 149.80854916 213.05381994 155.58298451 213.04882812 161.35742188 C213.03828641 172.57162666 213.02135335 183.78581092 213 195 C209.59099405 193.90539933 206.32098165 192.78577427 203.12524414 191.16821289 C202.4275441 190.81767349 201.72984406 190.46713409 201.01100159 190.10597229 C200.27647263 189.731978 199.54194366 189.3579837 198.78515625 188.97265625 C198.01119003 188.58307236 197.23722382 188.19348846 196.43980408 187.792099 C193.97875581 186.5527147 191.5204592 185.30799782 189.0625 184.0625 C186.60777577 182.82126052 184.15245623 181.58123774 181.69590759 180.34361267 C180.17211214 179.57566016 178.64939006 178.80557271 177.12794495 178.03297424 C172.81125517 175.85451675 168.46412973 173.85862078 164 172 C163.731875 172.845625 163.46375 173.69125 163.1875 174.5625 C161.9521405 178.13854067 160.523012 181.53860908 159 185 C159.83539307 185.25434814 160.67078613 185.50869629 161.53149414 185.77075195 C165.34850209 187.1235101 168.8968737 188.83197203 172.49609375 190.66796875 C173.56199486 191.20482048 173.56199486 191.20482048 174.64942932 191.7525177 C176.91407337 192.89368992 179.17597231 194.04016597 181.4375 195.1875 C184.39308693 196.6838648 187.35003526 198.17748765 190.30859375 199.66796875 C191.03033783 200.03163544 191.75208191 200.39530212 192.49569702 200.76998901 C199.59486803 204.32938289 206.78170661 207.69020971 214 211 C214.18470664 219.64550315 214.34846241 228.2913544 214.5 236.9375 C214.51781588 237.95316544 214.51781588 237.95316544 214.53599167 238.98934937 C215.04650587 268.49230974 215.08551844 297.99324245 215.0625 327.5 C215.06164398 328.6051231 215.06078796 329.7102462 215.05990601 330.84885788 C215.04849347 344.56592144 215.02838514 358.28296142 215 372 C212.4516926 370.73332471 209.90421424 369.46502706 207.35717773 368.19580078 C206.28431644 367.66283134 206.28431644 367.66283134 205.18978119 367.11909485 C199.37321174 364.21814836 193.69521248 361.11883889 188.0625 357.875 C186.08494 356.74686175 184.10706396 355.61927736 182.12890625 354.4921875 C181.12359863 353.91823242 180.11829102 353.34427734 179.08251953 352.75292969 C173.90368213 349.80789147 168.70119789 346.90530458 163.5 344 C154.5403742 338.98991506 145.59717754 333.95170794 136.6640625 328.89453125 C129.62053653 324.90963231 122.56309283 320.95010006 115.5 317 C106.5406579 311.98940497 97.59718026 306.95170949 88.6640625 301.89453125 C81.62053599 297.90963201 74.56303807 293.95019866 67.5 290 C57.528745 284.42183739 47.56661463 278.82823284 37.6328125 273.18359375 C33.74802087 270.9785833 29.84525342 268.8100141 25.9296875 266.66015625 C24.95483398 266.11891113 23.97998047 265.57766602 22.97558594 265.02001953 C21.11740188 263.98843773 19.25367398 262.96676046 17.38378906 261.95654297 C16.5584668 261.49521973 15.73314453 261.03389648 14.8828125 260.55859375 C14.15465332 260.15954834 13.42649414 259.76050293 12.67626953 259.34936523 C11 258 11 258 10.06884766 256.2902832 C9.96207467 252.73837768 11.51517349 249.93036299 13.015625 246.796875 C13.34268936 246.09011627 13.66975372 245.38335754 14.00672913 244.65518188 C15.07718324 242.3483313 16.16361832 240.04938641 17.25 237.75 C17.98843125 236.16413612 18.72564885 234.57770657 19.46166992 232.99072266 C21.2921579 229.04900396 23.13419499 225.11281772 24.97967529 221.17810059 C27.44315636 215.91927512 29.87925822 210.64787404 32.3125 205.375 C32.74916992 204.44268555 33.18583984 203.51037109 33.63574219 202.54980469 C35.41124695 198.7148839 37.06954133 194.95667623 38.30859375 190.9140625 C40.46283395 184.16307239 43.64870828 177.80197549 46.63668823 171.3894043 C48.15420962 168.13248003 49.66120207 164.87071953 51.16893005 161.60925293 C51.94700511 159.92646721 52.7256242 158.24393295 53.504776 156.56164551 C57.18734538 148.60837212 60.83016647 140.63729035 64.4564209 132.65820312 C65.42058575 130.53720841 66.38650897 128.41702068 67.35253906 126.296875 C67.94218142 125.00005643 68.53170627 123.70318443 69.12109375 122.40625 C69.6308374 121.28541016 70.14058105 120.16457031 70.66577148 119.00976562 C71.8402259 116.36041996 72.9457991 113.69905558 74 111 C73.2575 110.855625 72.515 110.71125 71.75 110.5625 C69.47914894 110.09800774 67.24539967 109.57094564 65 109 C64.61481201 109.8758374 64.22962402 110.7516748 63.83276367 111.65405273 C61.95590824 115.91737046 60.07273389 120.17788135 58.1875 124.4375 C57.83829498 125.22677887 57.48908997 126.01605774 57.12930298 126.82925415 C52.77412071 136.65996684 48.35149777 146.45579906 43.8125 156.203125 C43.38415359 157.12323868 42.95580719 158.04335236 42.51448059 158.99134827 C40.42117715 163.48245864 38.31987061 167.96966451 36.2097168 172.45288086 C35.43531782 174.10787914 34.66098207 175.762907 33.88671875 177.41796875 C33.53734253 178.15416443 33.18796631 178.89036011 32.82800293 179.64886475 C31.16539633 183.21189846 29.70988825 186.73845047 28.50610352 190.48339844 C27.01700589 195.11486836 25.0866292 199.45067982 23.015625 203.84765625 C22.63694275 204.6626207 22.2582605 205.47758514 21.86810303 206.31724548 C20.66662112 208.90114737 19.45871911 211.48197677 18.25 214.0625 C17.06076952 216.60963752 15.87299569 219.15743865 14.68713379 221.70614624 C13.90993564 223.37564025 13.1305775 225.04413053 12.34899902 226.71157837 C10.48691833 230.7036255 8.6839717 234.70531427 7.00195312 238.77685547 C6.69126892 239.52164658 6.38058472 240.26643768 6.06048584 241.03379822 C5.4835037 242.42967769 4.91911529 243.83085419 4.36968994 245.23780823 C2.51125013 249.7226791 2.51125013 249.7226791 0.05834961 251.05322266 C-2.54653027 250.98586839 -3.86986933 250.30311449 -6.10546875 248.96484375 C-6.91201904 248.49191895 -7.71856934 248.01899414 -8.54956055 247.53173828 C-9.85534058 246.74259033 -9.85534058 246.74259033 -11.1875 245.9375 C-13.07207028 244.8279882 -14.95752652 243.71998021 -16.84375 242.61328125 C-17.84019531 242.02498535 -18.83664062 241.43668945 -19.86328125 240.83056641 C-25.25942778 237.68141427 -30.72614419 234.65917727 -36.1875 231.625 C-43.53788831 227.54132263 -50.81844872 223.37482019 -58 219 C-57.30895418 212.55326996 -55.55142743 206.52811221 -53.75 200.3125 C-51.51646645 192.48629876 -49.36133143 184.65819888 -47.4375 176.75 C-45.58459629 169.15362703 -43.4914639 161.65035436 -41.30273438 154.14453125 C-39.05629525 146.36530216 -37.10841015 138.52420406 -35.17993164 130.66113281 C-33.58783578 124.21775369 -31.82723812 117.85886185 -29.89428711 111.51074219 C-28.05681086 105.39021198 -26.52238381 99.20545278 -25 93 C-23.14508483 85.43910214 -21.16216649 77.95834029 -18.89453125 70.51171875 C-17.05709066 64.39081792 -15.52257797 58.20576118 -14 52 C-12.14199196 44.43180038 -10.16860327 36.93532507 -7.90551758 29.47875977 C-4.97412281 19.7354521 -2.52292873 9.85523119 0 0 Z " fill="#FDF000" transform="translate(279,118)"/>
<path d="M0 0 C3.30037971 2.12958417 5.93748217 4.87345292 8.68741989 7.6501255 C9.33195531 8.29295207 9.97649073 8.93577864 10.64055753 9.59808481 C12.80258375 11.75681251 14.95737657 13.92261887 17.11228561 16.08844948 C18.65922444 17.63595234 20.20660359 19.18301516 21.75439072 20.72966957 C25.95892353 24.93362757 30.1572529 29.14373217 34.35451794 33.35494471 C38.74052115 37.75343378 43.13217275 42.14627569 47.52323532 46.53971291 C54.89387097 53.91586241 62.2610037 61.29549533 69.62546921 68.67780495 C77.21068979 76.28138538 84.79800947 83.88286106 92.38816452 91.48151588 C92.85607193 91.94994874 93.32397934 92.4183816 93.80606577 92.9010094 C96.15344799 95.25100171 98.50087383 97.60095044 100.84831572 99.95088315 C120.32055907 119.44404272 139.7856548 138.94432663 159.24607468 158.44928932 C157.59484564 162.67764367 154.46272339 165.52598304 151.31339645 168.66958046 C150.39225866 169.60068997 150.39225866 169.60068997 149.45251203 170.55060977 C147.39075735 172.63207047 145.32188729 174.70630778 143.25291061 176.78058815 C141.774304 178.27008847 140.2960877 179.75997632 138.81823349 181.25022316 C134.80057542 185.29839817 130.77617702 189.33980432 126.74958324 193.37908959 C124.23574702 195.9010062 121.7229648 198.42396858 119.21046829 200.94721985 C111.35367951 208.83672356 103.49249606 216.72181264 95.62543178 224.60107023 C86.53459087 233.70618423 77.4587746 242.82593622 68.39550757 251.95849591 C61.39370583 259.01198419 54.37860478 266.05206284 47.35324121 273.08208293 C43.15487128 277.28385885 38.96248545 281.49122772 34.78390884 285.71269608 C30.8560456 289.68016965 26.91201377 293.63080797 22.95475197 297.56895256 C21.50304582 299.01938759 20.05734528 300.47586143 18.61807823 301.93864059 C16.65666663 303.93025934 14.67504461 305.89925326 12.68668747 307.8639164 C11.83364961 308.74549273 11.83364961 308.74549273 10.96337867 309.64487869 C9.33699799 311.22528744 9.33699799 311.22528744 6.24607468 313.44928932 C1.8593108 313.34456162 -1.16154471 311.94584345 -4.92970657 309.78132057 C-5.90955521 309.22500954 -6.88940384 308.6686985 -7.89894485 308.09552956 C-8.94421341 307.49039528 -9.98948196 306.885261 -11.06642532 306.26178932 C-13.32018511 304.97767806 -15.57409558 303.69383124 -17.82814407 302.41022682 C-18.99017884 301.7446906 -20.1521254 301.07900036 -21.31398392 300.41315651 C-26.64850129 297.36767335 -32.0146242 294.37938472 -37.37892532 291.38678932 C-46.61972419 286.21671478 -55.84418211 281.01815839 -65.05714798 275.79865456 C-70.60794503 272.65516874 -76.17216946 269.53748606 -81.75392532 266.44928932 C-81.16125502 262.53159344 -79.97022293 259.66625668 -78.01564407 256.23053932 C-77.44845657 255.22579567 -76.88126907 254.22105202 -76.29689407 253.18586159 C-75.68458939 252.11779274 -75.0722847 251.04972389 -74.44142532 249.94928932 C-73.81494095 248.84448219 -73.18845657 247.73967506 -72.54298782 246.60138893 C-70.61975575 243.21363506 -68.68716452 239.83134 -66.75392532 236.44928932 C-65.62443135 234.46134189 -64.49549255 232.47307887 -63.36720657 230.48444557 C-58.97226637 222.75376526 -54.55750187 215.05604619 -49.87306595 207.49592018 C-48.59400005 205.54559768 -48.59400005 205.54559768 -48.75392532 203.44928932 C-51.04036344 201.67733058 -51.04036344 201.67733058 -53.75392532 200.44928932 C-57.784551 201.79283121 -58.13428978 203.44777723 -60.12501907 207.15241432 C-60.44359879 207.73817238 -60.7621785 208.32393044 -61.09041214 208.92743874 C-62.13246324 210.8469833 -63.16169937 212.77310969 -64.19142532 214.69928932 C-65.26901789 216.68981456 -66.35010159 218.67841551 -67.43149185 220.66687965 C-68.15841944 222.00384656 -68.88431677 223.34137414 -69.60919571 224.6794529 C-72.80271537 230.56786836 -76.09850788 236.39438373 -79.44142532 242.19928932 C-82.92915121 248.25581212 -86.37708901 254.33008016 -89.75392532 260.44928932 C-93.75839145 259.21175113 -97.28808779 257.75324062 -100.92970657 255.68366432 C-101.90955521 255.13057594 -102.88940384 254.57748756 -103.89894485 254.00763893 C-104.94421341 253.41088356 -105.98948196 252.81412819 -107.06642532 252.19928932 C-109.32024346 250.92439395 -111.57415225 249.64965883 -113.82814407 248.37507057 C-114.99013569 247.71580743 -116.15208227 247.05646492 -117.31398392 246.39704323 C-122.65680211 243.37184781 -128.01867477 240.38094735 -133.37892532 237.38678932 C-142.29649313 232.39656142 -151.19757118 227.37781757 -160.0903511 222.34357643 C-167.13368496 218.35870686 -174.19099116 214.39930065 -181.25392532 210.44928932 C-190.21413437 205.43820945 -199.15935949 200.40156597 -208.09206009 195.34162331 C-213.02186036 192.5512897 -217.95809084 189.77332674 -222.90626907 187.01569557 C-238.98693327 178.05321521 -254.97714328 168.93885887 -270.75392532 159.44928932 C-267.07232778 156.32823577 -263.23180903 153.92360343 -259.00392532 151.63678932 C-251.92740273 147.73135389 -244.98553962 143.62654951 -238.06642532 139.44928932 C-228.83466094 133.88017313 -219.5635373 128.38683011 -210.25392532 122.94928932 C-200.20099362 117.07597189 -190.19433355 111.13242656 -180.22243118 105.12214088 C-170.90005379 99.51342335 -161.51513339 94.01431705 -152.1113472 88.5435276 C-146.72281831 85.40310952 -141.36108414 82.23660933 -136.09376907 78.89460182 C-134.84744705 78.10714577 -134.84744705 78.10714577 -133.57594681 77.30378151 C-132.08130562 76.35146045 -130.59438398 75.38685612 -129.11745071 74.40729713 C-124.44831965 71.43237865 -124.44831965 71.43237865 -121.18751907 71.51178932 C-120.38443314 71.82116432 -119.5813472 72.13053932 -118.75392532 72.44928932 C-117.78583939 72.81280495 -116.81775345 73.17632057 -115.82033157 73.55085182 C-105.23329464 78.15391136 -94.92759083 83.28568257 -84.63307571 88.50251198 C-76.15874431 92.79297808 -67.61519455 96.92227306 -59.03953934 101.00631142 C-46.91817988 106.78701526 -34.86968529 112.7157838 -22.81642532 118.63678932 C-20.46426355 119.79119167 -18.11205024 120.94548904 -15.7597847 122.09967995 C-10.0905734 124.88167936 -4.42198769 127.66494988 1.24607468 130.44928932 C3.53067225 128.16469175 4.21737215 126.32391588 5.37107468 123.32428932 C5.7242778 122.4142112 6.07748093 121.50413307 6.44138718 120.56647682 C6.70693405 119.86780495 6.97248093 119.16913307 7.24607468 118.44928932 C3.72715386 116.67463899 0.20553361 114.90540152 -3.31642532 113.13678932 C-4.26839798 112.65661354 -5.22037064 112.17643776 -6.20119095 111.6817112 C-13.22922522 108.15646717 -20.30465433 104.74171188 -27.40236282 101.35944557 C-39.43233542 95.62482196 -51.40312573 89.77266393 -63.36403275 83.89557838 C-66.84426694 82.1856097 -70.32539633 80.47747412 -73.8066597 78.76960182 C-84.80916623 73.36938989 -95.80715936 67.96181672 -106.75392532 62.44928932 C-103.41146687 59.66611315 -100.06206957 57.34505229 -96.28126907 55.19928932 C-95.22754105 54.5973777 -94.17381302 53.99546608 -93.08815384 53.37531471 C-91.96723343 52.73972633 -90.84631302 52.10413795 -89.69142532 51.44928932 C-87.32267367 50.09654564 -84.95608723 48.74004162 -82.58986282 47.38288307 C-82.00090729 47.04542564 -81.41195175 46.70796822 -80.80514908 46.36028481 C-75.77176026 43.47135178 -70.78413418 40.51190398 -65.81642532 37.51178932 C-57.00053021 32.19123069 -48.15668954 26.91961165 -39.28517532 21.69220924 C-33.85538587 18.48981854 -28.44020177 15.27031403 -23.06988907 11.96894264 C-20.5886624 10.44504748 -18.10044284 8.93278686 -15.61162186 7.42133522 C-14.42111057 6.69381291 -13.23409352 5.96053953 -12.05076981 5.22138405 C-10.4099296 4.19703641 -8.75602046 3.19371263 -7.10158157 2.19147682 C-5.69404617 1.32305153 -5.69404617 1.32305153 -4.25807571 0.43708229 C-1.75392532 -0.55071068 -1.75392532 -0.55071068 0 0 Z " fill="#56DFFD" transform="translate(781.7539253234863,340.5507106781006)"/>
<path d="M0 0 C0.16604736 0.64960693 0.33209473 1.29921387 0.50317383 1.96850586 C1.26961522 4.95903627 2.04102548 7.94826422 2.8125 10.9375 C3.07353516 11.95908203 3.33457031 12.98066406 3.60351562 14.03320312 C4.99621081 19.41485243 6.52622163 24.68536635 8.33227539 29.94165039 C9.37745171 33.16354493 10.08553142 36.44378673 10.8125 39.75 C12.28533598 46.25708532 14.00199517 52.65970316 15.875 59.0625 C18.09669757 66.6689186 20.11432114 74.30349025 22 82 C24.08647386 90.5101686 26.36656522 98.93661533 28.8203125 107.34765625 C30.75434585 114.02057761 32.45840476 120.73286014 34.10571289 127.48144531 C35.81445407 134.41440237 37.76551585 141.26364542 39.76293945 148.11816406 C41.77958496 155.09150169 43.57979842 162.1051632 45.26367188 169.16601562 C46.1959716 173.02190333 47.2275213 176.78172811 48.515625 180.53515625 C49.99960446 184.86496224 51.0750702 189.22171665 52.0625 193.6875 C52.9391793 197.62023406 53.81270294 201.45377129 55.12109375 205.26953125 C56 208 56 208 56 212 C53.515625 213.88671875 53.515625 213.88671875 50.25 215.6875 C49.18265625 216.28949219 48.1153125 216.89148438 47.015625 217.51171875 C44.59866405 218.70454533 42.6271391 219.52175866 40 220 C40 220.66 40 221.32 40 222 C38.82244141 222.56267578 38.82244141 222.56267578 37.62109375 223.13671875 C31.66337638 226.03882156 26.28318553 229.01065582 21 233 C16.44827586 236 16.44827586 236 13 236 C13 236.66 13 237.32 13 238 C11.82244141 238.56267578 11.82244141 238.56267578 10.62109375 239.13671875 C4.66337638 242.03882156 -0.71681447 245.01065582 -6 249 C-10.55172414 252 -10.55172414 252 -14 252 C-14 252.66 -14 253.32 -14 254 C-15.17755859 254.56267578 -15.17755859 254.56267578 -16.37890625 255.13671875 C-22.34441509 258.04261692 -27.68833177 261.04228642 -33 265 C-34.67708031 265.98093377 -36.3550375 266.96105776 -38.0546875 267.90234375 C-40.38231681 269.21572495 -42.65601303 270.60808364 -44.9375 272 C-46.62333551 273.00280352 -48.31077948 274.00290908 -50 275 C-50.72832031 275.4434375 -51.45664062 275.886875 -52.20703125 276.34375 C-52.88121094 276.7253125 -53.55539062 277.106875 -54.25 277.5 C-54.83265625 277.8403125 -55.4153125 278.180625 -56.015625 278.53125 C-60.85811021 279.67514414 -66.40871184 275.93872053 -70.66015625 273.859375 C-71.30634918 273.54461716 -71.95254211 273.22985931 -72.61831665 272.90556335 C-74.76814004 271.85727604 -76.91531139 270.80367224 -79.0625 269.75 C-80.59009466 269.00366826 -82.11784931 268.25766391 -83.64575195 267.51196289 C-86.96506827 265.89111134 -90.28321479 264.26789527 -93.60058594 262.64306641 C-99.3169454 259.84371263 -105.03734095 257.05265722 -110.7578125 254.26171875 C-114.73455413 252.32067928 -118.7110698 250.37917736 -122.6875 248.4375 C-123.63400421 247.97541138 -124.58050842 247.51332275 -125.55569458 247.03723145 C-155.86802504 232.23383378 -155.86802504 232.23383378 -170.6875 224.375 C-183.3070803 217.73180312 -196.15044029 211.57148668 -209.02172852 205.43530273 C-212.0295253 203.98577103 -215.01510715 202.49601549 -218 201 C-218.17388585 188.41675909 -218.34011871 175.83342658 -218.5 163.25 C-218.51187725 162.31554928 -218.5237545 161.38109856 -218.53599167 160.41833115 C-218.9672962 126.27661766 -219.1336359 92.14442764 -219 58 C-215.53962465 57.04872416 -212.07847235 56.10030449 -208.6171875 55.15234375 C-207.65063232 54.88659546 -206.68407715 54.62084717 -205.68823242 54.3470459 C-199.52124555 52.65985138 -193.33877866 51.06759234 -187.125 49.5625 C-178.577206 47.46487657 -170.15405037 45.02458313 -161.71801758 42.51806641 C-155.28064329 40.62102982 -148.84093855 38.95051225 -142.29345703 37.48583984 C-135.78836207 36.00818934 -129.40952712 34.1476816 -123.00708008 32.28100586 C-117.03418251 30.55093643 -111.04105123 28.97328165 -105 27.5 C-96.22887433 25.35752765 -87.56349144 22.91347182 -78.890625 20.40625 C-69.94520351 17.82278464 -60.94417101 15.47337696 -51.90332031 13.24804688 C-42.18748126 10.85379994 -32.56946585 8.20431895 -22.95703125 5.42578125 C-18.43962537 4.12121953 -13.91415686 2.85172328 -9.375 1.625 C-8.20710937 1.30789062 -7.03921875 0.99078125 -5.8359375 0.6640625 C-3 0 -3 0 0 0 Z " fill="#15FE00" transform="translate(721,118)"/>
<path d="M0 0 C2.02453405 0.94529087 4.01612114 1.96261307 5.98046875 3.02734375 C7.13490479 3.64931641 8.28934082 4.27128906 9.47875977 4.91210938 C10.7151332 5.58700754 11.95137711 6.26214304 13.1875 6.9375 C14.46581977 7.63000915 15.74438619 8.32206319 17.02319336 9.01367188 C25.89474808 13.81954688 34.73094846 18.6885483 43.53320312 23.62011719 C53.34078842 29.10630801 63.17243217 34.54969152 73 40 C73.59804443 40.33167175 74.19608887 40.66334351 74.81225586 41.00506592 C88.29127002 48.4785473 101.78878794 55.91007961 115.375 63.1875 C124.46822008 68.05845114 133.47581397 73.059198 142.4387207 78.16552734 C149.4313946 82.14002953 156.48151865 85.99779078 163.5625 89.8125 C187.95709248 102.95709248 187.95709248 102.95709248 190 105 C190.09881639 106.58376956 190.12798986 108.17194038 190.12939453 109.75878906 C190.13250641 110.78167526 190.13561829 111.80456146 190.13882446 112.85844421 C190.13684052 113.98281387 190.13485657 115.10718353 190.1328125 116.265625 C190.13413177 117.43080154 190.13545105 118.59597809 190.1368103 119.79646301 C190.13873735 123.61433514 190.13237183 127.43213525 190.125 131.25 C190.12411377 132.5374411 190.12322754 133.8248822 190.12231445 135.15133667 C190.1050231 156.44779913 189.78396861 177.71817115 189 199 C188.04299194 199.2333606 188.04299194 199.2333606 187.06665039 199.47143555 C175.21420661 202.37149026 163.41837035 205.33280912 151.75390625 208.921875 C149.03374106 209.70310871 146.3845718 210.37614676 143.625 210.96875 C138.82395667 212.0037788 134.14562967 213.35896169 129.4375 214.75 C121.58253267 217.03714843 113.6958077 219.11535094 105.75 221.0625 C98.27210662 222.89633193 90.87553988 224.86319165 83.51074219 227.10571289 C76.35984704 229.25252037 69.11276896 230.99101434 61.86328125 232.76953125 C56.02863001 234.21155532 50.24927531 235.74923836 44.5 237.5 C36.70080676 239.87499991 28.81324563 241.82025695 20.89624023 243.76074219 C14.02908248 245.45682429 7.24549132 247.33666972 0.47460938 249.38012695 C-4.31795583 250.82110264 -9.0967529 252.01552739 -14 253 C-15.68817053 253.37196978 -17.37567752 253.74696405 -19.0625 254.125 C-20.375 254.41666667 -21.6875 254.70833333 -23 255 C-23.62849414 252.85518747 -24.25260258 250.70908965 -24.875 248.5625 C-25.22304688 247.36753906 -25.57109375 246.17257812 -25.9296875 244.94140625 C-26.70483598 242.18536162 -27.36036266 239.42410776 -27.9609375 236.625 C-29.00274286 231.82565476 -30.35901175 227.14546022 -31.75 222.4375 C-34.03714843 214.58253267 -36.11535094 206.6958077 -38.0625 198.75 C-39.89633193 191.27210662 -41.86319165 183.87553988 -44.10571289 176.51074219 C-46.25252037 169.35984704 -47.99101434 162.11276896 -49.76953125 154.86328125 C-51.21155532 149.02863001 -52.74923836 143.24927531 -54.5 137.5 C-56.87588033 129.69791557 -58.82163232 121.80736306 -60.76293945 113.88745117 C-62.43685304 107.11023473 -64.2911616 100.41781485 -66.31640625 93.73828125 C-67.8436573 88.66066737 -69.04613611 83.55786015 -70.1875 78.3828125 C-71.15931177 74.33671156 -72.31194745 70.36202382 -73.5 66.375 C-73.71479004 65.65151367 -73.92958008 64.92802734 -74.15087891 64.18261719 C-75.09803628 61.00126994 -76.05402082 57.82309212 -77.0234375 54.6484375 C-77.44496094 53.21371094 -77.44496094 53.21371094 -77.875 51.75 C-78.11992187 50.94046875 -78.36484375 50.1309375 -78.6171875 49.296875 C-79.08757329 46.47456028 -78.96255802 44.70222711 -78 42 C-76.03125 40.375 -76.03125 40.375 -73.5 39 C-72.60152344 38.50242187 -71.70304688 38.00484375 -70.77734375 37.4921875 C-69.86082031 36.99976563 -68.94429687 36.50734375 -68 36 C-67.15566406 35.50757813 -66.31132812 35.01515625 -65.44140625 34.5078125 C-59.40677966 31 -59.40677966 31 -56 31 C-56 30.34 -56 29.68 -56 29 C-54.12890625 27.66796875 -54.12890625 27.66796875 -51.5625 26.1875 C-50.65242188 25.65898438 -49.74234375 25.13046875 -48.8046875 24.5859375 C-45.53767098 22.73857161 -42.26577433 20.9020327 -38.97265625 19.1015625 C-37.32655036 18.18235089 -35.71988153 17.19296879 -34.125 16.1875 C-32 15 -32 15 -29 15 C-29 14.34 -29 13.68 -29 13 C-27.12890625 11.66796875 -27.12890625 11.66796875 -24.5625 10.1875 C-23.65242188 9.65898438 -22.74234375 9.13046875 -21.8046875 8.5859375 C-18.53614906 6.73771103 -15.26461272 4.89743468 -11.96484375 3.10546875 C-9.82698825 1.93966338 -9.82698825 1.93966338 -7.25 0.125 C-4.29281228 -1.35359386 -3.16175073 -0.87862497 0 0 Z " fill="#FE0000" transform="translate(302,627)"/>
<path d="M0 0 C0.32883869 68.33268019 -0.70829159 136.68080371 -2 205 C-12.19888623 199.9789588 -22.25223429 194.77780026 -32.1875 189.25 C-33.44449793 188.55405082 -34.70157944 187.85825258 -35.95874023 187.16259766 C-44.40777745 182.47932297 -52.79760357 177.69755583 -61.16723633 172.8737793 C-66.24323326 169.96166756 -71.37327619 167.27449332 -76.640625 164.72265625 C-81.38358037 162.29051286 -85.9951893 159.63985528 -90.625 157 C-99.12694097 152.15373285 -107.6860026 147.43345467 -116.3125 142.8125 C-125.72240874 137.77012897 -135.08709132 132.66001477 -144.40429688 127.44873047 C-147.55319513 125.69124719 -150.70606467 123.94095532 -153.859375 122.19140625 C-154.76382103 121.68949516 -154.76382103 121.68949516 -155.6865387 121.17744446 C-158.11237539 119.83127524 -160.53822875 118.48513629 -162.96432495 117.13943481 C-168.9959147 113.79330957 -175.02289479 110.4426742 -181 107 C-177.71012585 103.31534095 -174.36279286 101.22105818 -170 99 C-169.01 99 -168.02 99 -167 99 C-167 98.34 -167 97.68 -167 97 C-165.12890625 95.66796875 -165.12890625 95.66796875 -162.5625 94.1875 C-161.655 93.66285156 -160.7475 93.13820313 -159.8125 92.59765625 C-158.884375 92.07042969 -157.95625 91.54320312 -157 91 C-155.7315625 90.25556641 -155.7315625 90.25556641 -154.4375 89.49609375 C-148.38158832 86 -148.38158832 86 -145 86 C-145 85.34 -145 84.68 -145 84 C-142.7140617 82.4670058 -140.44192427 81.06139469 -138.0625 79.6875 C-137.37897461 79.28668213 -136.69544922 78.88586426 -135.99121094 78.47290039 C-133.9982661 77.30799351 -131.99940865 76.15376391 -130 75 C-129.04480469 74.43796875 -128.08960938 73.8759375 -127.10546875 73.296875 C-121.39278017 70 -121.39278017 70 -118 70 C-118 69.34 -118 68.68 -118 68 C-116.12890625 66.66796875 -116.12890625 66.66796875 -113.5625 65.1875 C-112.19738281 64.39472656 -112.19738281 64.39472656 -110.8046875 63.5859375 C-107.53767098 61.73857161 -104.26577433 59.9020327 -100.97265625 58.1015625 C-99.32655036 57.18235089 -97.71988153 56.19296879 -96.125 55.1875 C-94 54 -94 54 -91 54 C-91 53.34 -91 52.68 -91 52 C-89.12890625 50.66796875 -89.12890625 50.66796875 -86.5625 49.1875 C-85.65242188 48.65898438 -84.74234375 48.13046875 -83.8046875 47.5859375 C-80.53767098 45.73857161 -77.26577433 43.9020327 -73.97265625 42.1015625 C-72.32655036 41.18235089 -70.71988153 40.19296879 -69.125 39.1875 C-67 38 -67 38 -64 38 C-64 37.34 -64 36.68 -64 36 C-62.12890625 34.66796875 -62.12890625 34.66796875 -59.5625 33.1875 C-58.65242188 32.65898438 -57.74234375 32.13046875 -56.8046875 31.5859375 C-53.53767098 29.73857161 -50.26577433 27.9020327 -46.97265625 26.1015625 C-45.32655036 25.18235089 -43.71988153 24.19296879 -42.125 23.1875 C-40 22 -40 22 -37 22 C-37 21.34 -37 20.68 -37 20 C-35.12890625 18.66796875 -35.12890625 18.66796875 -32.5625 17.1875 C-31.655 16.66285156 -30.7475 16.13820313 -29.8125 15.59765625 C-28.4203125 14.80681641 -28.4203125 14.80681641 -27 14 C-26.154375 13.50371094 -25.30875 13.00742187 -24.4375 12.49609375 C-18.38158832 9 -18.38158832 9 -15 9 C-15 8.34 -15 7.68 -15 7 C-12.87767021 5.82823482 -10.75242209 4.66245215 -8.625 3.5 C-8.02171875 3.16613281 -7.4184375 2.83226562 -6.796875 2.48828125 C-2.2265625 0 -2.2265625 0 0 0 Z " fill="#FD0000" transform="translate(494,511)"/>
<path d="M0 0 C11.47094055 5.09314319 22.8613476 10.27092791 34.0625 15.9375 C35.26635891 16.5428835 36.47029939 17.14810484 37.67431641 17.75317383 C45.20483269 21.54593083 52.68308413 25.43106875 60.13012695 29.38476562 C73.23696878 36.32811046 86.55140323 42.86433955 99.9375 49.25 C101.31107666 49.90524658 101.31107666 49.90524658 102.71240234 50.57373047 C108.33147771 53.25260543 108.33147771 53.25260543 113.95184326 55.92877197 C118.22069325 57.96041132 122.4863541 59.99853634 126.74856567 62.04406738 C128.16176434 62.72090353 129.57604751 63.39548013 130.99142456 64.06774902 C132.97361883 65.00954665 134.95199935 65.95894056 136.9296875 66.91015625 C138.65034424 67.73205444 138.65034424 67.73205444 140.40576172 68.57055664 C143 70 143 70 144 72 C143.49210938 72.24234375 142.98421875 72.4846875 142.4609375 72.734375 C139.04903306 74.39560188 135.79282109 76.05984911 132.6875 78.25 C130 80 130 80 127 80 C127 80.66 127 81.32 127 82 C126.21496094 82.37511719 125.42992187 82.75023437 124.62109375 83.13671875 C118.66337638 86.03882156 113.28318553 89.01065582 108 93 C103.44827586 96 103.44827586 96 100 96 C100 96.66 100 97.32 100 98 C99.21496094 98.37511719 98.42992187 98.75023437 97.62109375 99.13671875 C91.66337638 102.03882156 86.28318553 105.01065582 81 109 C76.44827586 112 76.44827586 112 73 112 C73 112.66 73 113.32 73 114 C72.21496094 114.37511719 71.42992187 114.75023437 70.62109375 115.13671875 C63.52029082 118.56839662 63.52029082 118.56839662 56.9375 122.875 C54 125 54 125 51 125 C51 125.66 51 126.32 51 127 C49.6875 127.72916667 48.375 128.45833333 47.0625 129.1875 C46.24265625 129.64382813 45.4228125 130.10015625 44.578125 130.5703125 C42.92483837 131.48713509 41.26881306 132.39904647 39.609375 133.3046875 C36.17631032 135.18469911 32.83158817 137.06392953 29.625 139.3125 C27 141 27 141 24 141 C24 141.66 24 142.32 24 143 C23.32195313 143.36351562 22.64390625 143.72703125 21.9453125 144.1015625 C16.18881019 147.21103051 10.54718414 150.4345571 4.99609375 153.8984375 C3 155 3 155 1 155 C0.17696872 117.53917538 -0.09300313 80.09428632 -0.0625 42.625 C-0.06164398 41.56599613 -0.06078796 40.50699226 -0.05990601 39.41589737 C-0.04849822 26.277248 -0.02839677 13.13862326 0 0 Z " fill="#16FD01" transform="translate(504,335)"/>
<path d="M0 0 C21.70044952 0.74474916 43.34663402 2.43821902 65 4 C63.38177485 8.94951648 61.38492515 13.38914472 59 18 C51.68284072 18.18466017 44.68615467 17.45957146 37.4375 16.5 C30.57640971 15.59497205 23.92662334 14.79849823 17 15 C20.87481093 19.65258335 24.95246829 23.99634017 29.3125 28.19921875 C30.24191406 29.09833984 31.17132813 29.99746094 32.12890625 30.92382812 C33.57695786 32.31770093 35.02531195 33.71136234 36.48779297 35.09008789 C37.92192894 36.44576121 39.33632419 37.82222317 40.75 39.19921875 C41.59046875 40.00190186 42.4309375 40.80458496 43.296875 41.6315918 C45 44 45 44 44.82641602 46.64648438 C43.96550661 49.09823229 43.02882876 51.45382171 41.9375 53.8125 C41.57527344 54.60269531 41.21304688 55.39289063 40.83984375 56.20703125 C40.56269531 56.79871094 40.28554688 57.39039063 40 58 C32.92267737 54.89288275 27.98599156 48.07304727 23.0390625 42.32421875 C20.4524634 39.37589219 17.79153734 36.50094691 15.125 33.625 C10.6858754 28.83215754 6.25246317 24.03619927 1.921875 19.14453125 C0.73540592 17.82060539 -0.47871216 16.52020966 -1.734375 15.26171875 C-3.1875 13.75 -3.1875 13.75 -5 11 C-4.30536577 6.74536537 -2.21144427 3.64274014 0 0 Z " fill="#040400" transform="translate(382,263)"/>
<path d="M0 0 C3.74498544 3.6564676 7.22795652 7.45717681 10.625 11.4375 C11.14715088 12.04730713 11.66930176 12.65711426 12.20727539 13.28540039 C16.19195589 17.97279972 19.99619022 22.7811547 23.75952148 27.64672852 C29.22955011 34.66605445 35.11932182 41.32463558 41 48 C39.5500211 51.79225251 37.83101449 55.37810284 36 59 C24.42571916 58.46930586 13.08405209 57.18353472 1.625 55.5 C-1.48655105 55.04907846 -4.59860422 54.60173839 -7.7109375 54.15625 C-8.80725494 53.99866211 -8.80725494 53.99866211 -9.92572021 53.83789062 C-15.27548299 53.07821175 -20.61808883 52.4745573 -26 52 C-27 49 -27 49 -26.03125 46.51953125 C-25.5259375 45.62621094 -25.020625 44.73289062 -24.5 43.8125 C-24.0153125 42.91144531 -23.530625 42.01039063 -23.03125 41.08203125 C-21 39 -21 39 -17.88061523 38.80151367 C-13.83279779 39.00855209 -9.87940712 39.475402 -5.87890625 40.09375 C-5.13414536 40.20473022 -4.38938446 40.31571045 -3.62205505 40.43005371 C-1.26812444 40.78193352 1.08466969 41.14084447 3.4375 41.5 C5.04354961 41.74135289 6.64966886 41.98224284 8.25585938 42.22265625 C12.17139824 42.80975621 16.0859345 43.40315977 20 44 C14.91454262 37.68607762 9.7788358 31.49692915 4.1875 25.625 C2.1088601 23.43101644 0.04755955 21.22298348 -2 19 C-2.80824219 18.14148438 -3.61648438 17.28296875 -4.44921875 16.3984375 C-6 14 -6 14 -5.91015625 11.48828125 C-4.95619472 8.88024051 -3.83430879 6.58714586 -2.4375 4.1875 C-1.75494141 3.00220703 -1.75494141 3.00220703 -1.05859375 1.79296875 C-0.70925781 1.20128906 -0.35992188 0.60960937 0 0 Z " fill="#030105" transform="translate(550,722)"/>
<path d="M0 0 C2.97 0.99 5.94 1.98 9 3 C9.12851148 13.06673292 8.77196354 22.96366393 8 33 C8.57967529 32.38890381 9.15935059 31.77780762 9.7565918 31.14819336 C11.91570025 28.88679431 14.08804917 26.63923887 16.27026367 24.40014648 C17.21166298 23.42858347 18.14760601 22.45170238 19.07788086 21.46948242 C20.41633519 20.05821618 21.77629757 18.66744685 23.13671875 17.27734375 C24.35427856 16.01265259 24.35427856 16.01265259 25.59643555 14.72241211 C28 13 28 13 30.65942383 13.16625977 C32.88769221 13.95999467 34.93296007 14.85164448 37 16 C35.49089988 19.54120058 33.42880686 21.81604365 30.7109375 24.51953125 C29.85113281 25.37740234 28.99132812 26.23527344 28.10546875 27.11914062 C26.75388672 28.45235352 26.75388672 28.45235352 25.375 29.8125 C24.05822266 31.12831055 24.05822266 31.12831055 22.71484375 32.47070312 C8.63712477 46.45429174 8.63712477 46.45429174 4 48 C0.8125 46.5625 0.8125 46.5625 -2 45 C-1.88083752 40.03770655 -1.75653889 35.07557668 -1.62768555 30.11352539 C-1.58464114 28.42898972 -1.54294777 26.74441892 -1.50268555 25.05981445 C-1.44423571 22.62440446 -1.38076577 20.18916642 -1.31640625 17.75390625 C-1.29969376 17.01290176 -1.28298126 16.27189728 -1.26576233 15.50843811 C-1.12128378 10.29243803 -0.62934763 5.18035967 0 0 Z " fill="#050300" transform="translate(218,467)"/>
<path d="M0 0 C1.58114208 0.77250085 3.16039461 1.5489473 4.734375 2.3359375 C4.13776848 11.85900019 2.74188836 21.1877086 1.171875 30.5859375 C0.93511561 32.02466868 0.69878487 33.46347047 0.46289062 34.90234375 C-0.10835707 38.38103379 -0.68534627 41.85874107 -1.265625 45.3359375 C-4.34308408 44.12128533 -7.32739304 42.85946518 -10.265625 41.3359375 C-9.14719238 31.96014068 -7.92125272 22.63563362 -6.265625 13.3359375 C-6.90794067 13.89522949 -6.90794067 13.89522949 -7.56323242 14.46582031 C-9.52563981 16.17355201 -11.48937078 17.87975477 -13.453125 19.5859375 C-14.12666016 20.17246094 -14.80019531 20.75898437 -15.49414062 21.36328125 C-17.41170123 23.02828509 -19.33661983 24.68421543 -21.265625 26.3359375 C-22.19890625 27.13515625 -23.1321875 27.934375 -24.09375 28.7578125 C-26.265625 30.3359375 -26.265625 30.3359375 -28.828125 30.3359375 C-31.689507 29.16203719 -33.15012721 27.55430304 -35.265625 25.3359375 C-29.98884378 20.54349851 -24.63388448 15.89707772 -19.015625 11.5078125 C-16.95856093 9.8831994 -14.95198761 8.23235186 -12.953125 6.5390625 C-11.80763977 5.59593122 -10.66181007 4.65321814 -9.515625 3.7109375 C-8.98485352 3.2483252 -8.45408203 2.78571289 -7.90722656 2.30908203 C-4.93386314 -0.09133785 -3.82554848 -0.77792254 0 0 Z " fill="#030708" transform="translate(750.265625,501.6640625)"/>
</svg>
