<?xml version="1.0" encoding="UTF-8"?>
<svg version="1.1" xmlns="http://www.w3.org/2000/svg" width="1000" height="1000">
<path d="M0 0 C330 0 660 0 1000 0 C1000 330 1000 660 1000 1000 C670 1000 340 1000 0 1000 C0 670 0 340 0 0 Z " fill="#FEFEFE" transform="translate(0,0)"/>
<path d="M0 0 C1.55843377 0.41946633 3.11694862 0.83863152 4.67553711 1.25752258 C8.03639723 2.1614307 11.39671674 3.06731219 14.75662231 3.97476196 C20.13956936 5.42857104 25.52365501 6.87812995 30.90795898 8.3269043 C36.65824447 9.87430595 42.40847533 11.42190792 48.15834045 12.97087097 C62.88220995 16.93693085 77.6100916 20.88787966 92.33984375 24.83203125 C94.50935437 25.41303235 96.67886426 25.99403617 98.84837341 26.57504272 C107.30693225 28.84017269 115.76556892 31.10501166 124.22439575 33.36914062 C129.17323431 34.69381657 134.12182153 36.01942854 139.07031059 37.34540939 C141.89943394 38.10308665 144.72888547 38.8595289 147.55836487 39.61587524 C156.18831756 41.92551919 164.80965194 44.26058828 173.41357422 46.66552734 C174.95529103 47.09438826 176.49703327 47.52315776 178.0388031 47.951828 C180.8495842 48.73357451 183.65679054 49.52665661 186.46229553 50.32710266 C187.6928215 50.66992783 188.92334747 51.01275299 190.19116211 51.3659668 C191.24782578 51.66544724 192.30448944 51.96492767 193.39317322 52.27348328 C199.62471477 53.54425773 204.7984839 52.7905617 210.8840332 51.14404297 C211.59390821 50.95457627 212.30378323 50.76510958 213.0351696 50.56990147 C215.3955497 49.93768294 217.75235813 49.29307147 220.109375 48.6484375 C221.80238877 48.19234648 223.49561651 47.73704913 225.18904114 47.28248596 C229.77401636 46.04948923 234.35605035 44.80587061 238.93766022 43.56043625 C243.76578085 42.25005927 248.59661131 40.94975363 253.42724609 39.64868164 C261.45709242 37.48489316 269.48553732 35.31597819 277.51318359 33.14404297 C288.87432333 30.07098907 300.24082103 27.01815242 311.609375 23.97265625 C313.39008721 23.49549354 315.17079807 23.0183258 316.95150757 22.54115295 C323.89182155 20.68156789 330.83233192 18.82271652 337.77294922 16.96426392 C342.79158475 15.62031321 347.80997094 14.27543482 352.828125 12.9296875 C353.63030079 12.71458464 354.43247658 12.49948177 355.25896072 12.27786064 C365.53582506 9.52091454 375.80448789 6.73578235 386.06439209 3.91638756 C390.35167953 2.73929297 394.64075917 1.56873158 398.92938232 0.39651489 C402.20343349 -0.50237818 405.47404131 -1.41306405 408.74462891 -2.32446289 C410.66813545 -2.85100371 412.59179035 -3.37700302 414.515625 -3.90234375 C415.79200081 -4.26451492 415.79200081 -4.26451492 417.09416199 -4.63400269 C424.84386256 -6.72465218 424.84386256 -6.72465218 428.49609375 -5.09375 C431.6395269 -0.82167177 432.76372249 3.80775684 434.07714844 8.85668945 C434.31710761 9.75359466 434.55706678 10.65049986 434.80429745 11.57458401 C435.59954368 14.55432963 436.38372303 17.53687323 437.16796875 20.51953125 C437.72805024 22.62642573 438.28883997 24.73313205 438.85029602 26.83966064 C440.34865491 32.46882953 441.83765513 38.10043373 443.3247261 43.73259354 C444.85643741 49.52809253 446.39607585 55.32148364 447.93530273 61.11499023 C449.76523164 68.00426824 451.59451451 74.89371328 453.41990662 81.78419495 C456.76556963 94.4112254 460.13318382 107.03181729 463.546875 119.640625 C463.90754264 120.97473001 464.26815006 122.3088513 464.62869263 123.64299011 C466.54691771 130.73853238 466.54691771 130.73853238 468.47570801 137.83120728 C473.80861752 157.39241546 473.80861752 157.39241546 475.13452148 166.55493164 C475.6523144 169.92215887 476.52930163 173.07705008 477.49609375 176.34375 C477.82609375 177.47683594 478.15609375 178.60992187 478.49609375 179.77734375 C479.43646852 182.85166216 479.43646852 182.85166216 480.5625 185.5546875 C481.43523729 187.75296301 481.97760919 189.77908552 482.43359375 192.09375 C483.30556974 196.19676878 484.40141395 200.17353535 485.66796875 204.171875 C486.25903281 206.1235016 486.78324746 208.09588678 487.26171875 210.078125 C489.5078061 218.77660875 493.17461268 223.66002466 499.49609375 229.90625 C500.69621229 231.27025027 501.88468046 232.64463223 503.05859375 234.03125 C505.4110297 236.74142966 507.86143085 239.27914601 510.43359375 241.78125 C513.34933576 244.63009162 515.80864904 247.57868431 518.24609375 250.84375 C522.21404375 255.9759488 526.76308131 259.34693854 532.0546875 262.99609375 C534.49609375 264.90625 534.49609375 264.90625 535.49609375 267.90625 C536.82268796 268.58622797 538.15751251 269.25018409 539.49609375 269.90625 C541.15604406 271.37730944 542.76354461 272.90822143 544.33622742 274.472229 C545.0447084 275.17285497 545.0447084 275.17285497 545.76750213 275.88763499 C547.34677601 277.45192309 548.91883505 279.02326307 550.4909668 280.59472656 C551.62253355 281.71867102 552.75450167 282.84221152 553.88684082 283.96537781 C556.95975728 287.01635271 560.0260788 290.07387263 563.09058356 293.13329411 C565.00524506 295.04431245 566.92119833 296.95402594 568.83759499 298.86330414 C575.52253684 305.52375528 582.20174161 312.18990462 588.8762207 318.86083984 C595.09922988 325.08021131 601.33525377 331.28632177 607.57733315 337.48654771 C612.93572196 342.81026277 618.2844678 348.14353903 623.62589675 353.48426986 C626.8164111 356.67399058 630.01079261 359.8595931 633.21509361 363.03546906 C636.2278067 366.02205094 639.22836508 369.02032739 642.21999359 372.02802467 C643.31980488 373.12965421 644.42390248 374.22702361 645.5325489 375.31976128 C647.0458453 376.81265739 648.54290365 378.32017233 650.03691101 379.83233643 C650.87884349 380.67225758 651.72077597 381.51217873 652.58822155 382.37755203 C654.82570126 385.34311251 655.4131836 387.20493506 655.49609375 390.90625 C654.58918285 392.74219799 654.58918285 392.74219799 652.99491882 394.39237976 C652.33932669 395.07592215 651.68373455 395.75946453 651.00827599 396.46372032 C650.17925585 397.26975512 649.35023571 398.07578991 648.49609375 398.90625 C647.75802093 399.62424125 647.75802093 399.62424125 647.00503755 400.35673738 C643.27480317 403.96862556 639.49547532 407.52681741 635.70550537 411.07584 C631.83672341 414.70041122 627.98131139 418.33913758 624.12641907 421.97846985 C623.305125 422.75369669 622.48383094 423.52892352 621.63764918 424.32764208 C610.05079834 435.28140695 598.603803 446.38112805 587.15549183 457.47931385 C577.88373093 466.4595018 568.56764407 475.38200664 559.12524414 484.18286133 C513.55071993 526.7221797 480.23335433 560.87938288 471.65206909 624.09823608 C470.33856048 633.76322663 467.84029566 642.99677187 465.08550072 652.33581161 C463.93140322 656.29352808 462.88358427 660.27863727 461.82763672 664.26342773 C461.42280102 665.77326841 461.01734533 667.28294299 460.61126709 668.79244995 C460.40925438 669.54418865 460.20724167 670.29592735 459.99910736 671.07044601 C459.11310645 674.36579571 458.22622568 677.66090833 457.33928108 680.95600414 C456.18269455 685.25308058 455.02677787 689.55033703 453.87109375 693.84765625 C453.64620144 694.68367937 453.42130913 695.51970249 453.1896019 696.38105965 C450.05056887 708.05498873 446.95392659 719.73945457 443.8866539 731.43243027 C442.64429685 736.16218244 441.39430074 740.88992176 440.14395332 745.61756706 C438.97574199 750.03848097 437.82050483 754.46251657 436.67506027 758.88938046 C436.14284773 760.93667955 435.60389894 762.98205571 435.06176758 765.02674866 C434.40701639 767.4962465 433.76307459 769.96864609 433.13208008 772.44432068 C432.84212158 773.52415726 432.55216309 774.60399384 432.25341797 775.71655273 C432.00888885 776.65280991 431.76435974 777.58906708 431.51242065 778.55369568 C430.28332647 781.39875549 429.22819943 782.4624306 426.49609375 783.90625 C424.45849609 783.90289307 424.45849609 783.90289307 422.20703125 783.34472656 C421.32241211 783.13303833 420.43779297 782.9213501 419.52636719 782.70324707 C418.52637695 782.44023804 417.52638672 782.177229 416.49609375 781.90625 C415.38008789 781.62422729 414.26408203 781.34220459 413.11425781 781.05163574 C409.10944157 780.02337568 405.1149987 778.96026211 401.12109375 777.890625 C399.58948859 777.48284662 398.05781445 777.07532726 396.52607727 776.66804504 C392.38156758 775.56514572 388.23812075 774.45830203 384.09488297 773.35063553 C380.59526103 772.41555129 377.09503313 771.48274677 373.59480381 770.54993916 C361.55998009 767.34255343 349.52762055 764.12597844 337.49609375 760.90625 C336.13261181 760.54137859 336.13261181 760.54137859 334.74158478 760.16913605 C322.2965304 756.83852853 309.85262248 753.50365535 297.40939713 750.16622162 C294.81175393 749.46959748 292.21403806 748.77324494 289.61630249 748.07696533 C273.38908529 743.72722744 257.16335299 739.37322282 240.95913124 734.93846703 C236.69545496 733.77242463 232.4303517 732.61160337 228.1656189 731.44943237 C224.91690054 730.56087307 221.67094771 729.66270959 218.42504883 728.76391602 C216.50744982 728.24058771 214.58973343 727.71768929 212.671875 727.1953125 C211.83124512 726.95901627 210.99061523 726.72272003 210.12451172 726.47926331 C208.95553345 726.16395912 208.95553345 726.16395912 207.76293945 725.84228516 C207.10203812 725.65993317 206.44113678 725.47758118 205.76020813 725.28970337 C200.37078064 724.37694289 195.56442434 724.92207219 190.33666992 726.36132812 C189.14262543 726.68522018 187.94858093 727.00911224 186.71835327 727.34281921 C185.40856405 727.70762078 184.09880139 728.07251775 182.7890625 728.4375 C181.38789385 728.82068819 179.98648884 729.20301301 178.58486938 729.58454895 C175.55127766 730.41195941 172.51920352 731.2446472 169.4881897 732.08145142 C164.60421459 733.42951363 159.71696154 734.76538571 154.82885742 736.09838867 C153.99084626 736.32691749 153.1528351 736.5554463 152.28942966 736.79090023 C150.56603047 737.2608131 148.84261524 737.73066711 147.11918449 738.20046425 C144.45575758 738.92683866 141.79262943 739.65430088 139.12953186 740.38188171 C125.93328639 743.98464073 112.72285178 747.53228317 99.50390625 751.05078125 C98.06722721 751.43323155 98.06722721 751.43323155 96.60152435 751.82340813 C88.87442886 753.87991671 81.14658315 755.9336 73.41851807 757.98646164 C66.80068644 759.74445231 60.18321035 761.50377051 53.56640625 763.265625 C52.65659248 763.50787371 51.74677872 763.75012241 50.80939484 763.99971199 C38.76946783 767.20781129 26.74570098 770.46923777 14.73828125 773.796875 C13.4056972 774.16533717 12.07309165 774.53372157 10.74046326 774.90202332 C4.79316649 776.54732219 -1.15058782 778.20366268 -7.08862305 779.88208008 C-9.10845763 780.44389463 -11.12838875 781.00536226 -13.1484375 781.56640625 C-14.03963287 781.82339294 -14.93082825 782.08037964 -15.84902954 782.34515381 C-23.45400216 784.43713992 -23.45400216 784.43713992 -27.50390625 782.90625 C-30.38466336 780.02549289 -30.85909208 776.55026544 -31.86035156 772.70898438 C-32.08910477 771.85360958 -32.31785797 770.99823479 -32.55354309 770.11693954 C-33.31950771 767.24630538 -34.07569654 764.37318511 -34.83203125 761.5 C-35.37387463 759.46197379 -35.91634822 757.42411503 -36.45941162 755.38641357 C-37.6228584 751.01584127 -38.78207526 746.64417725 -39.93798828 742.27160645 C-41.75931462 735.38210136 -43.58970993 728.49502791 -45.421875 721.60839844 C-47.29118083 714.58059868 -49.15995814 707.55266137 -51.0255127 700.52386475 C-56.58890683 679.56379559 -62.200189 658.61676668 -67.82756042 637.67379761 C-69.09340423 632.96197428 -70.35804898 628.24982913 -71.62279892 623.5377121 C-71.80578663 622.85596169 -71.98877434 622.17421127 -72.17730713 621.47180176 C-72.48055562 620.33017657 -72.48055562 620.33017657 -72.78993034 619.16548824 C-73.410791 616.8717801 -74.0497254 614.58531894 -74.69751167 612.29918003 C-76.6847218 605.19695701 -78.54050786 598.17277603 -79.71406591 590.8856259 C-84.87809163 558.99951719 -100.77514742 541.5501463 -123.70267916 519.83031678 C-128.32300905 515.41971569 -132.85337246 510.91840808 -137.39437866 506.42643738 C-144.9988595 498.92656725 -152.65084202 491.47980793 -160.34716797 484.07446289 C-168.24893115 476.47109623 -176.12472176 468.84249065 -183.96435547 461.17504883 C-184.45076738 460.69934564 -184.9371793 460.22364244 -185.43833096 459.733524 C-190.74933391 454.53833713 -196.05515209 449.3378668 -201.35993004 444.13632488 C-203.23009485 442.30289178 -205.10030132 440.46950117 -206.97055054 438.63615417 C-207.8830785 437.74137491 -208.79560647 436.84659565 -209.7357868 435.92470187 C-215.15023318 430.62056477 -220.58528596 425.33871589 -226.04009748 420.07610476 C-229.41395613 416.81897873 -232.77870034 413.55253377 -236.14218903 410.28470421 C-237.70468963 408.77156866 -239.27160474 407.26297663 -240.84317398 405.75926208 C-242.98405036 403.7102365 -245.10928194 401.64617468 -247.2315979 399.57795715 C-247.85929726 398.98528559 -248.48699662 398.39261403 -249.13371718 397.78198272 C-251.84691596 395.10971402 -253.34350891 393.38680675 -254.56770325 389.71907234 C-254.49258935 386.40728565 -254.04469851 385.56055388 -251.75546265 383.22938538 C-251.10186138 382.54758272 -250.44826012 381.86578007 -249.77485275 381.16331673 C-249.02544041 380.41848471 -248.27602806 379.67365269 -247.50390625 378.90625 C-246.30146208 377.6688548 -246.30146208 377.6688548 -245.0747261 376.40646172 C-242.23073286 373.49453807 -239.35789491 370.61339928 -236.47900391 367.73608398 C-235.37909016 366.63317224 -234.27937968 365.53005777 -233.17985535 364.42675781 C-230.2131696 361.45129543 -227.24330211 358.47902922 -224.27254534 355.50763202 C-222.41235202 353.64672486 -220.55287385 351.78510615 -218.69364548 349.92323494 C-212.19542186 343.41578058 -205.69464136 336.9108933 -199.19140625 330.40844727 C-193.14803505 324.36567702 -187.11026723 318.31734801 -181.07509387 312.26639122 C-175.87589333 307.05408294 -170.67281178 301.84567022 -165.46673429 296.64023072 C-162.36504462 293.53879497 -159.26489845 290.43585547 -156.16865921 287.32897758 C-153.25594288 284.40652505 -150.33839028 281.4889861 -147.41718483 278.57501984 C-146.35169959 277.51057342 -145.28788813 276.44444826 -144.22596931 275.37644386 C-138.87489104 269.99671305 -133.49496648 264.86120315 -127.38991356 260.32972813 C-123.59470648 257.46526719 -120.24351852 254.10776875 -116.7890625 250.84765625 C-114.50390625 248.90625 -114.50390625 248.90625 -112.50390625 248.90625 C-112.30023438 248.36613281 -112.0965625 247.82601562 -111.88671875 247.26953125 C-109.94576141 243.95235839 -107.21403833 241.62962702 -104.37890625 239.09375 C-103.79431641 238.56112549 -103.20972656 238.02850098 -102.60742188 237.47973633 C-98.91208788 234.12484264 -95.16163656 230.84445391 -91.28515625 227.69921875 C-86.08292021 222.46275747 -83.68095771 217.51493963 -82.1171875 210.4453125 C-81.92924118 209.65530853 -81.74129486 208.86530457 -81.5476532 208.05136108 C-80.95573523 205.54786149 -80.38579777 203.03995759 -79.81640625 200.53125 C-79.42396234 198.85643363 -79.03009359 197.18195046 -78.63476562 195.5078125 C-77.73869312 191.69511505 -76.85234037 187.88056394 -75.99382019 184.05921936 C-75.66401607 182.60986652 -75.32272528 181.16308503 -74.97065735 179.71897888 C-73.84524324 174.98832944 -73.20697774 170.37431604 -72.77488708 165.53434753 C-71.06337149 147.6160905 -65.96440536 130.52613448 -61.17401505 113.24435043 C-59.93282836 108.75370006 -58.70959922 104.25816521 -57.48510742 99.76293945 C-55.98184685 94.24819083 -54.47698167 88.73390594 -52.96388245 83.22184753 C-49.8572883 71.90177466 -46.79768317 60.57039931 -43.79117393 49.22333336 C-43.16054907 46.84346542 -42.52880506 44.46389747 -41.89668274 42.08442688 C-39.52618064 33.16192386 -39.52618064 33.16192386 -37.16793823 24.23617554 C-36.1073832 20.21116327 -35.03461455 16.18950027 -33.9609375 12.16796875 C-33.49831009 10.39885132 -33.49831009 10.39885132 -33.02633667 8.59399414 C-32.73638824 7.51456543 -32.44643982 6.43513672 -32.14770508 5.32299805 C-31.77758049 3.92527412 -31.77758049 3.92527412 -31.39997864 2.49931335 C-26.40459921 -11.95636626 -11.38317091 -3.08296501 0 0 Z " fill="#040403" transform="translate(299.50390625,111.09375)"/>
<path d="M0 0 C0.16604736 0.64960693 0.33209473 1.29921387 0.50317383 1.96850586 C1.26961522 4.95903627 2.04102548 7.94826422 2.8125 10.9375 C3.07353516 11.95908203 3.33457031 12.98066406 3.60351562 14.03320312 C4.99621081 19.41485243 6.52622163 24.68536635 8.33227539 29.94165039 C9.37745171 33.16354493 10.08553142 36.44378673 10.8125 39.75 C12.30356056 46.3403842 14.04505085 52.82650068 15.9375 59.3125 C17.93921317 66.17730551 19.80586991 73.05283304 21.5 80 C23.15966569 86.7994262 24.97740117 93.53110453 26.9375 100.25 C29.42958115 108.79975532 31.6269616 117.40022747 33.74755859 126.04882812 C35.59564299 133.52796418 37.65345015 140.92708385 39.8137207 148.32128906 C41.81722098 155.22626859 43.5960942 162.17358431 45.26391602 169.16699219 C46.19612355 173.02255382 47.2276314 176.78204891 48.515625 180.53515625 C49.99960446 184.86496224 51.0750702 189.22171665 52.0625 193.6875 C52.9391793 197.62023406 53.81270294 201.45377129 55.12109375 205.26953125 C56 208 56 208 56 212 C53.515625 213.88671875 53.515625 213.88671875 50.25 215.6875 C49.18265625 216.28949219 48.1153125 216.89148438 47.015625 217.51171875 C44.59866405 218.70454533 42.6271391 219.52175866 40 220 C40 220.66 40 221.32 40 222 C38.6875 222.72916667 37.375 223.45833333 36.0625 224.1875 C35.24265625 224.64382813 34.4228125 225.10015625 33.578125 225.5703125 C31.92483837 226.48713509 30.26881306 227.39904647 28.609375 228.3046875 C25.17631032 230.18469911 21.83158817 232.06392953 18.625 234.3125 C16 236 16 236 13 236 C13 236.66 13 237.32 13 238 C11.82244141 238.56267578 11.82244141 238.56267578 10.62109375 239.13671875 C4.66337638 242.03882156 -0.71681447 245.01065582 -6 249 C-10.55172414 252 -10.55172414 252 -14 252 C-14 252.66 -14 253.32 -14 254 C-15.17755859 254.56267578 -15.17755859 254.56267578 -16.37890625 255.13671875 C-22.34441509 258.04261692 -27.68833177 261.04228642 -33 265 C-36.4375 267 -36.4375 267 -38.1640625 267.953125 C-40.94682185 269.53988991 -43.61828011 271.2971886 -46.30078125 273.046875 C-48 274 -48 274 -50 274 C-50 272.02 -50 270.04 -50 268 C-55.28 268 -60.56 268 -66 268 C-65.7834375 271.8053125 -65.7834375 271.8053125 -65.5625 275.6875 C-65.40502831 283.05204816 -65.40502831 283.05204816 -67.27734375 286.03515625 C-69.13491434 287.34514367 -70.88191299 288.17919124 -73 289 C-74.35783725 289.68022173 -75.71203697 290.36775312 -77.0625 291.0625 C-77.72765625 291.37832031 -78.3928125 291.69414062 -79.078125 292.01953125 C-80.94641746 292.97266419 -82.60059895 294.04234703 -84.3125 295.25 C-87 297 -87 297 -90 297 C-90 297.66 -90 298.32 -90 299 C-90.78503906 299.37511719 -91.57007813 299.75023437 -92.37890625 300.13671875 C-98.33662362 303.03882156 -103.71681447 306.01065582 -109 310 C-113.55172414 313 -113.55172414 313 -117 313 C-117 313.66 -117 314.32 -117 315 C-117.78503906 315.37511719 -118.57007813 315.75023437 -119.37890625 316.13671875 C-125.33662362 319.03882156 -130.71681447 322.01065582 -136 326 C-140.55172414 329 -140.55172414 329 -144 329 C-144 329.66 -144 330.32 -144 331 C-144.78503906 331.37511719 -145.57007813 331.75023437 -146.37890625 332.13671875 C-153.47970918 335.56839662 -153.47970918 335.56839662 -160.0625 339.875 C-163 342 -163 342 -166 342 C-166 342.66 -166 343.32 -166 344 C-167.3125 344.72916667 -168.625 345.45833333 -169.9375 346.1875 C-170.75734375 346.64382813 -171.5771875 347.10015625 -172.421875 347.5703125 C-174.07516163 348.48713509 -175.73118694 349.39904647 -177.390625 350.3046875 C-180.82368968 352.18469911 -184.16841183 354.06392953 -187.375 356.3125 C-190 358 -190 358 -193 358 C-193 358.66 -193 359.32 -193 360 C-194.01707031 360.54527344 -194.01707031 360.54527344 -195.0546875 361.1015625 C-200.81118981 364.21103051 -206.45281586 367.4345571 -212.00390625 370.8984375 C-214 372 -214 372 -216 372 C-216.41530936 354.22012029 -216.6767752 336.43962073 -216.88970089 318.65641308 C-216.9662293 312.39312257 -217.05756461 306.13014919 -217.1537075 299.86713123 C-217.3441817 287.40410153 -217.49324238 274.94148875 -217.58730125 262.47733784 C-217.6363112 256.13118864 -217.70312745 249.78632335 -217.81152344 243.44088745 C-217.91444524 237.36637579 -217.96899467 231.29325648 -217.98821449 225.21792221 C-218.00375741 222.94789917 -218.03664241 220.67792192 -218.0877285 218.40842056 C-218.46428557 200.97559737 -218.46428557 200.97559737 -214.90040588 196.16725159 C-212.32210349 194.32446846 -209.94800073 193.13705687 -207 192 C-205.99783447 191.34620361 -204.99566895 190.69240723 -203.96313477 190.01879883 C-203.13096436 189.50341553 -202.29879395 188.98803223 -201.44140625 188.45703125 C-200.4879834 187.86422363 -199.53456055 187.27141602 -198.55224609 186.66064453 C-197.07232178 185.74581299 -197.07232178 185.74581299 -195.5625 184.8125 C-193.44118532 183.49384493 -191.32009432 182.17482996 -189.19921875 180.85546875 C-187.63179932 179.8816626 -187.63179932 179.8816626 -186.03271484 178.88818359 C-181.6360378 176.15079024 -177.25346027 173.3914113 -172.875 170.625 C-172.11074707 170.14297119 -171.34649414 169.66094238 -170.55908203 169.16430664 C-166.95238461 166.88517749 -163.3581602 164.58945567 -159.78515625 162.2578125 C-159.13240723 161.83290527 -158.4796582 161.40799805 -157.80712891 160.97021484 C-156.59703571 160.18044653 -155.38949382 159.38674932 -154.18505859 158.58837891 C-150.22057951 156 -150.22057951 156 -148 156 C-150.64 152.04 -153.28 148.08 -156 144 C-159.68518385 145.47407354 -162.38161366 146.73858622 -165.6328125 148.8359375 C-166.51195312 149.39966064 -167.39109375 149.96338379 -168.296875 150.54418945 C-169.23015625 151.14835693 -170.1634375 151.75252441 -171.125 152.375 C-173.10655465 153.64747214 -175.08832943 154.91960152 -177.0703125 156.19140625 C-178.06450195 156.83094238 -179.05869141 157.47047852 -180.08300781 158.12939453 C-185.14881449 161.37798934 -190.24463232 164.57877904 -195.33813477 167.78369141 C-198.98232473 170.08064955 -202.61523237 172.39173039 -206.22265625 174.74609375 C-207.20008789 175.38260864 -207.20008789 175.38260864 -208.19726562 176.03198242 C-209.40564661 176.82106786 -210.61154923 177.613967 -211.81445312 178.41137695 C-215.77959028 181 -215.77959028 181 -218 181 C-218.17664154 171.75017418 -218.34242911 162.50016903 -218.5 153.25 C-218.51187725 152.55309429 -218.5237545 151.85618858 -218.53599167 151.13816452 C-219.06080726 120.09050388 -219.11270842 89.05155219 -219 58 C-215.53962465 57.04872416 -212.07847235 56.10030449 -208.6171875 55.15234375 C-207.65063232 54.88659546 -206.68407715 54.62084717 -205.68823242 54.3470459 C-199.52124555 52.65985138 -193.33877866 51.06759234 -187.125 49.5625 C-178.577206 47.46487657 -170.15405037 45.02458313 -161.71801758 42.51806641 C-155.28064329 40.62102982 -148.84093855 38.95051225 -142.29345703 37.48583984 C-135.78836207 36.00818934 -129.40952712 34.1476816 -123.00708008 32.28100586 C-117.03418251 30.55093643 -111.04105123 28.97328165 -105 27.5 C-96.22887433 25.35752765 -87.56349144 22.91347182 -78.890625 20.40625 C-69.94520351 17.82278464 -60.94417101 15.47337696 -51.90332031 13.24804688 C-42.18748126 10.85379994 -32.56946585 8.20431895 -22.95703125 5.42578125 C-18.43962537 4.12121953 -13.91415686 2.85172328 -9.375 1.625 C-8.20710937 1.30789062 -7.03921875 0.99078125 -5.8359375 0.6640625 C-3 0 -3 0 0 0 Z " fill="#15FD00" transform="translate(721,118)"/>
<path d="M0 0 C3.30281742 0.76610974 5.91472987 1.89375557 8.90234375 3.51953125 C9.86390381 4.04087646 10.82546387 4.56222168 11.81616211 5.09936523 C13.36122437 5.94736694 13.36122437 5.94736694 14.9375 6.8125 C16.0107251 7.39781494 17.0839502 7.98312988 18.18969727 8.58618164 C25.84151197 12.7752384 33.43517464 17.05952825 40.99633789 21.40966797 C47.76182362 25.30196525 54.56102205 29.13078209 61.375 32.9375 C69.42847774 37.4377007 77.47204181 41.95442305 85.5 46.5 C93.48774241 51.02207735 101.48891342 55.51941159 109.5 60 C117.85946758 64.67809043 126.21648439 69.36044334 134.5625 74.0625 C135.96242188 74.84850586 135.96242188 74.84850586 137.390625 75.65039062 C138.27363281 76.14861328 139.15664063 76.64683594 140.06640625 77.16015625 C140.82896729 77.58949463 141.59152832 78.01883301 142.37719727 78.46118164 C143.24272217 78.9689917 144.10824707 79.47680176 145 80 C146.01584671 80.41043549 146.01584671 80.41043549 147.05221558 80.8291626 C149.52165177 81.98807748 151.14628678 82.9860566 153 85 C154.20248456 89.3494 154.06996282 93.61309187 154 98.1015625 C154.01087646 99.40660736 154.02175293 100.71165222 154.03295898 102.0562439 C154.06141614 105.54158864 154.04218072 109.02510173 154.01287842 112.51037598 C153.99192402 115.95106819 154.0152283 119.39137638 154.03515625 122.83203125 C154.06684089 129.56208678 154.04830546 136.29109458 154.01611328 143.02111816 C153.98978706 149.52189936 153.99609211 156.02260945 154 162.5234375 C154.00015494 164.75960286 154.00017141 166.99576824 154 169.23193359 C154 170.80539551 154 172.37885742 154 174 C159.28 174 164.56 174 170 174 C170 148.59 170 123.18 170 97 C173 96 173 96 175.63769531 97.14892578 C176.69053711 97.7417334 177.74337891 98.33454102 178.828125 98.9453125 C179.40485962 99.26640991 179.98159424 99.58750732 180.57580566 99.91833496 C182.47276297 100.97762873 184.36124857 102.0511539 186.25 103.125 C187.57014911 103.8659434 188.89079231 104.60600709 190.21191406 105.34521484 C193.53343263 107.20690062 196.8482123 109.08021176 200.16064453 110.95800781 C202.82317756 112.46632889 205.48981896 113.96733332 208.15625 115.46875 C211.8849786 117.57075929 215.60967406 119.67969968 219.33203125 121.79296875 C224.30258648 124.61161083 229.29101783 127.39728823 234.2824707 130.17871094 C247.62337654 137.61567493 260.83483758 145.25677111 274 153 C272.40596353 163.92745504 269.31582299 174.51537859 266.453125 185.16015625 C265.88759569 187.27583484 265.32244993 189.39161599 264.75765991 191.50749207 C263.24122751 197.18406988 261.71939136 202.85918572 260.19641876 208.53401184 C258.61155527 214.44278319 257.03140231 220.35281409 255.45068359 226.26269531 C252.88047632 235.86942339 250.30714545 245.47530966 247.73144531 255.08056641 C244.82227444 265.92942881 241.91810282 276.77961886 239.0168457 287.63059998 C236.78644662 295.97244878 234.55329257 304.31355961 232.31980896 312.65458298 C231.63218141 315.22317426 230.94501061 317.79188736 230.25793457 320.36062622 C225.64213896 337.61360149 221.00508798 354.85475124 216 372 C206.96806545 370.5726947 198.21050873 368.30160391 189.3984375 365.90625 C187.84128066 365.48662388 186.28401088 365.06741664 184.72663879 364.64859009 C181.37137106 363.74536656 178.01686354 362.83939088 174.66293335 361.93121338 C169.29247569 360.4770294 163.92043586 359.02875458 158.5480957 357.58154297 C152.80853175 356.03518308 147.06905321 354.48851162 141.33009338 352.93991089 C126.56441127 348.95608639 111.79321983 344.99308413 97.01953125 341.0390625 C94.8402081 340.45567507 92.66088681 339.87228071 90.48156738 339.28887939 C81.97775492 337.01256415 73.47385633 334.73657133 64.96966553 332.46166992 C42.28893874 326.39387585 19.6169667 320.30199832 -3 314 C-3.03138632 303.47917833 -3.05124505 292.95836133 -3.0625 282.4375 C-3.06335602 281.64311523 -3.06421204 280.84873047 -3.06509399 280.03027344 C-3.08978069 254.01642194 -2.89523615 228.01081177 -2.5 202 C-2.48804218 201.21262829 -2.47608437 200.42525658 -2.46376419 199.61402512 C-2.31810585 190.07586461 -2.16377411 180.53786737 -2 171 C0.7381957 172.3422758 3.19184214 173.75256428 5.66015625 175.546875 C6.36140625 176.05476562 7.06265625 176.56265625 7.78515625 177.0859375 C8.53667969 177.63507813 9.28820312 178.18421875 10.0625 178.75 C11.24972656 179.61238281 11.24972656 179.61238281 12.4609375 180.4921875 C18.95961524 185.22035934 25.42725255 189.99066675 31.89086914 194.76660156 C37.23593242 198.7124822 42.60791743 202.61866837 48 206.5 C58.19356463 213.84003533 68.29401627 221.30454606 78.39550781 228.77050781 C80.78393755 230.53527577 83.17297971 232.29920896 85.5625 234.0625 C86.33859619 234.63524658 87.11469238 235.20799316 87.91430664 235.7980957 C94.28525739 240.49132962 100.6946501 245.13010217 107.12719727 249.73852539 C110.83322662 252.40072332 114.46887062 255.10585867 118 258 C121.47132095 256.59070303 122.88093274 255.09394917 124.75 251.875 C125.17796875 251.15054688 125.6059375 250.42609375 126.046875 249.6796875 C126.36140625 249.12539063 126.6759375 248.57109375 127 248 C126.29230469 247.75894531 125.58460938 247.51789063 124.85546875 247.26953125 C121.55178464 245.80072504 119.138392 243.94451962 116.3125 241.6875 C111.09046299 237.57592227 105.77618706 233.62306921 100.375 229.75 C94.05099591 225.20943092 87.75993483 220.62852675 81.5 216 C75.35996829 211.46231486 69.19645104 206.96033255 63 202.5 C51.98821997 194.5707959 41.07847451 186.50405691 30.17578125 178.42578125 C29.37132568 177.83079834 28.56687012 177.23581543 27.73803711 176.62280273 C26.25198697 175.52365686 24.76696984 174.42311159 23.28344727 173.32055664 C22.57889404 172.79969482 21.87434082 172.27883301 21.1484375 171.7421875 C20.07779305 170.9227063 20.07779305 170.9227063 18.98551941 170.08666992 C16.62562183 168.43726604 14.35088544 167.066478 11.83807373 165.68809509 C0.44944297 159.11524603 0.44944297 159.11524603 -1.95812607 153.94072723 C-3.38842607 148.26258404 -2.97701242 142.49652377 -2.6953125 136.69921875 C-2.66631307 134.80112475 -2.64496128 132.90290067 -2.63070679 131.00463867 C-2.57203076 125.9392896 -2.40989473 120.88222284 -2.22720337 115.82003403 C-2.05634928 110.58335486 -1.98271806 105.34537632 -1.90039062 100.10668945 C-1.75728415 91.70870436 -1.56140452 83.31372256 -1.32128906 74.91796875 C-1.01701398 64.22707392 -0.83223028 53.53813277 -0.7109375 42.84375 C-0.67601948 39.8806104 -0.64057296 36.91747727 -0.60498047 33.9543457 C-0.59259055 32.90888942 -0.59259055 32.90888942 -0.57995033 31.84231281 C-0.45051076 21.22713221 -0.22816948 10.61345752 0 0 Z " fill="#A53AFD" transform="translate(505,510)"/>
<path d="M0 0 C3.54823215 1.39025746 6.82695785 2.92774571 10.1484375 4.80078125 C11.14166016 5.35894531 12.13488281 5.91710937 13.15820312 6.4921875 C14.21974609 7.09289062 15.28128906 7.69359375 16.375 8.3125 C17.48552734 8.93769531 18.59605469 9.56289063 19.74023438 10.20703125 C23.16208957 12.13461805 26.58140134 14.06664454 30 16 C31.49321777 16.84377197 31.49321777 16.84377197 33.01660156 17.70458984 C36.78887582 19.83621398 40.56083496 21.96838951 44.33154297 24.1027832 C51.37635234 28.08889991 58.43544499 32.04899935 65.5 36 C82.04460777 45.25448319 98.55641582 54.56702537 115 64 C111.29836606 68.28983879 106.64875536 70.75385166 101.8125 73.5625 C95.27131803 77.42228811 88.79474661 81.34360082 82.4375 85.5 C74.14121891 90.92024999 65.77188743 96.21791592 57.38525391 101.49707031 C55.06110836 102.9614961 52.73911211 104.42925869 50.41796875 105.8984375 C40.33444354 112.27956066 30.22559 118.61890427 20.0949707 124.92504883 C15.34919131 127.88398627 10.62682063 130.85784677 6 134 C6.63065757 137.21852831 7.78020695 139.50801069 9.5625 142.25 C10.24505859 143.30960937 10.24505859 143.30960937 10.94140625 144.390625 C11.29074219 144.92171875 11.64007813 145.4528125 12 146 C15.48693315 144.70212451 18.50859211 143.17949987 21.6328125 141.1640625 C22.51155029 140.60058105 23.39028809 140.03709961 24.2956543 139.45654297 C25.22933838 138.85213379 26.16302246 138.24772461 27.125 137.625 C29.11308192 136.3486478 31.10136664 135.07261143 33.08984375 133.796875 C34.08483887 133.15685547 35.07983398 132.51683594 36.10498047 131.85742188 C40.28565798 129.1751319 44.48505728 126.52301169 48.6875 123.875 C50.25003392 122.88937668 51.81253402 121.90369976 53.375 120.91796875 C54.14070312 120.43505371 54.90640625 119.95213867 55.6953125 119.45458984 C57.98545164 118.00918211 60.27419657 116.56159316 62.5625 115.11328125 C72.37593498 108.90403816 82.21372461 102.73486931 92.06567383 96.58691406 C97.70017835 93.06891703 103.32669092 89.53913611 108.93530273 85.97998047 C110.53491496 84.96863752 112.13848201 83.96351704 113.74633789 82.96533203 C116.93572271 80.98213344 119.99145102 79.00657182 122.97265625 76.71484375 C125.35908281 74.93353327 127.11363625 73.72159094 130 73 C133.79080579 73.81490252 136.7554335 75.69378391 140.00390625 77.76025391 C143.19837419 79.74429356 146.49487294 81.54251754 149.77856445 83.3737793 C152.77120379 85.04679404 155.75181314 86.73972576 158.73046875 88.4375 C164.96995538 91.98898262 171.23258796 95.49809633 177.5 99 C186.45955632 104.01020992 195.40282178 109.04829167 204.3359375 114.10546875 C211.37946481 118.09036845 218.43704414 122.04965334 225.5 126 C261.75494134 146.2909357 261.75494134 146.2909357 276 155 C273.33865944 157.05511094 270.6464314 158.87479464 267.74609375 160.57421875 C266.48539062 161.31575195 266.48539062 161.31575195 265.19921875 162.07226562 C264.28785156 162.60529297 263.37648438 163.13832031 262.4375 163.6875 C260.4464716 164.8578297 258.45559293 166.02841416 256.46484375 167.19921875 C255.41280762 167.81716309 254.36077148 168.43510742 253.27685547 169.07177734 C247.67635511 172.36731838 242.0888037 175.68467555 236.5 179 C228.33716876 183.83983753 220.17109316 188.67412453 212 193.5 C209.31518588 195.08628867 206.6304641 196.67273347 203.94580078 198.25927734 C201.84274074 199.50201049 199.73953447 200.74449619 197.63623047 201.98681641 C194.65549103 203.74755343 191.67555669 205.50964734 188.69604492 207.27246094 C187.00551326 208.27227558 185.31429432 209.27092787 183.62304688 210.26953125 C182.56021484 210.89859375 181.49738281 211.52765625 180.40234375 212.17578125 C178.83202393 213.09931396 178.83202393 213.09931396 177.22998047 214.04150391 C174.93785963 215.43132956 172.70466058 216.84428707 170.47705078 218.32958984 C169.60518883 218.89966011 169.60518883 218.89966011 168.7157135 219.48124695 C167.09415584 220.54619773 165.48525759 221.63035204 163.87719727 222.71557617 C161 224 161 224 158.32202148 223.35668945 C154.53418584 221.14356752 151.2111537 218.38956797 147.81640625 215.6328125 C144.51361397 213.00612123 142.01518301 211.60607321 138 210 C136.02 212.97 134.04 215.94 132 219 C133.0828125 219.77085937 134.165625 220.54171875 135.28125 221.3359375 C136.68774701 222.34861535 138.09398366 223.36165489 139.5 224.375 C140.21542969 224.88289062 140.93085938 225.39078125 141.66796875 225.9140625 C142.68310547 226.64882813 142.68310547 226.64882813 143.71875 227.3984375 C144.34716797 227.84880371 144.97558594 228.29916992 145.62304688 228.76318359 C146.30463867 229.37540771 146.30463867 229.37540771 147 230 C147 230.66 147 231.32 147 232 C144.94995117 233.44189453 144.94995117 233.44189453 142.04296875 235.1328125 C140.42394653 236.08256958 140.42394653 236.08256958 138.7722168 237.05151367 C137.57734964 237.74274225 136.38244296 238.43390249 135.1875 239.125 C133.96023804 239.84207611 132.7334375 240.55994247 131.50708008 241.27856445 C128.95050759 242.77585484 126.39195728 244.26968151 123.83203125 245.76123047 C117.93093543 249.20359839 112.06108008 252.69845489 106.1875 256.1875 C97.24151024 261.49086887 88.29007974 266.78496848 79.33544922 272.07373047 C69.30678617 277.99802662 59.28736029 283.93789682 49.26786804 289.87768555 C45.05681721 292.3739558 40.8449457 294.86883788 36.6328125 297.36328125 C34.81829601 298.4379977 33.00379505 299.51274034 31.18930054 300.5874939 C29.49520688 301.59082303 27.80095102 302.59387826 26.10668945 303.59692383 C25.05956787 304.21720459 24.01244629 304.83748535 22.93359375 305.4765625 C21.93440918 306.0634082 20.93522461 306.65025391 19.90576172 307.25488281 C17.9634492 308.42138003 16.04266509 309.62446987 14.14501953 310.86230469 C12.82219971 311.71550293 12.82219971 311.71550293 11.47265625 312.5859375 C10.7031665 313.09946777 9.93367676 313.61299805 9.14086914 314.14208984 C7 315 7 315 5.26877975 314.44117165 C1.9461111 312.33054991 -0.68629137 309.58100226 -3.44134521 306.79916382 C-4.08588063 306.15633725 -4.73041605 305.51351068 -5.39448285 304.85120451 C-7.55650907 302.69247682 -9.71130189 300.52667045 -11.86621094 298.36083984 C-13.41314977 296.81333698 -14.96052891 295.26627416 -16.50831604 293.71961975 C-20.71284885 289.51566176 -24.91117822 285.30555716 -29.10844326 281.09434462 C-33.49444647 276.69585554 -37.88609808 272.30301363 -42.27716064 267.90957642 C-49.64779629 260.53342691 -57.01492902 253.15379399 -64.37939453 245.77148438 C-71.96461512 238.16790394 -79.55193479 230.56642827 -87.14208984 222.96777344 C-87.60999726 222.49934058 -88.07790467 222.03090772 -88.55999109 221.54827993 C-90.90737331 219.19828762 -93.25479915 216.84833888 -95.60224104 214.49840617 C-115.0744844 195.0052466 -134.53958012 175.50496269 -154 156 C-152.34828196 151.74238754 -149.16802712 148.89589215 -145.98898315 145.74847412 C-145.36657435 145.12435646 -144.74416554 144.5002388 -144.10289586 143.85720849 C-142.01326453 141.76427936 -139.91655845 139.67858492 -137.81982422 137.59277344 C-136.3215818 136.09509507 -134.82377946 134.59697636 -133.3263855 133.09844971 C-129.25672032 129.02820978 -125.18091 124.96417371 -121.10399008 120.9012022 C-116.84563664 116.65533563 -112.5929313 112.40381967 -108.33963013 108.15289307 C-100.28302218 100.10250589 -92.2213287 92.05723134 -84.15780747 84.01376939 C-74.97866661 74.85696891 -65.80519162 65.69450129 -56.63219428 56.53154707 C-37.76110544 37.68137377 -18.88289259 18.83834853 0 0 Z " fill="#FD8D01" transform="translate(213,345)"/>
<path d="M0 0 C2.796875 1.828125 2.796875 1.828125 5.75 4.25 C6.89630897 5.16932705 8.0448725 6.08584779 9.1953125 7 C9.80793945 7.48855469 10.42056641 7.97710938 11.05175781 8.48046875 C14.5023688 11.17177235 18.06649872 13.70413372 21.625 16.25 C30.33905341 22.50735817 38.9809985 28.85843515 47.60888672 35.23388672 C51.56991162 38.15956103 55.53515717 41.07950306 59.5 44 C61.08335379 45.1666389 62.66668712 46.33330558 64.25 47.5 C65.425625 48.36625 65.425625 48.36625 66.625 49.25 C73.75 54.5 73.75 54.5 76.12695312 56.25146484 C77.70374329 57.41329315 79.28056599 58.5750773 80.85742188 59.73681641 C84.91613927 62.72714107 88.97421743 65.7183273 93.03125 68.7109375 C93.86333984 69.32453125 94.69542969 69.938125 95.55273438 70.5703125 C97.11675192 71.72366622 98.6805735 72.87728575 100.24414062 74.03125 C101.32985352 74.83175781 101.32985352 74.83175781 102.4375 75.6484375 C103.11766174 76.18030167 103.79782349 76.71216583 104.49859619 77.26014709 C106.95084172 79.09219316 106.95084172 79.09219316 109.81280518 80.19578552 C113.54882177 82.05741173 115.50418167 83.6161137 118 87 C120.13924461 95.04691615 119.29738278 103.83390807 119.109375 112.07421875 C119.09134932 114.59728627 119.07810998 117.12039204 119.06939697 119.64350891 C119.03677186 125.62817967 118.95464531 131.61020821 118.84875131 137.59386712 C118.72237251 144.91187398 118.67514313 152.22991426 118.625 159.54882812 C118.41238274 186.70547477 117.88899425 213.85698183 117 241 C115.93096436 241.26225121 115.93096436 241.26225121 114.84033203 241.52980042 C103.06516194 244.42040458 91.34482322 247.35543901 79.75390625 250.921875 C77.03374106 251.70310871 74.3845718 252.37614676 71.625 252.96875 C66.82395667 254.0037788 62.14562967 255.35896169 57.4375 256.75 C49.58253267 259.03714843 41.6958077 261.11535094 33.75 263.0625 C26.27210662 264.89633193 18.87553988 266.86319165 11.51074219 269.10571289 C4.35984704 271.25252037 -2.88723104 272.99101434 -10.13671875 274.76953125 C-15.97136999 276.21155532 -21.75072469 277.74923836 -27.5 279.5 C-35.29919324 281.87499991 -43.18675437 283.82025695 -51.10375977 285.76074219 C-57.97091752 287.45682429 -64.75450868 289.33666972 -71.52539062 291.38012695 C-76.31795583 292.82110264 -81.0967529 294.01552739 -86 295 C-87.68817053 295.37196978 -89.37567752 295.74696405 -91.0625 296.125 C-92.375 296.41666667 -93.6875 296.70833333 -95 297 C-95.62849414 294.85518747 -96.25260258 292.70908965 -96.875 290.5625 C-97.39707031 288.77005859 -97.39707031 288.77005859 -97.9296875 286.94140625 C-98.70483598 284.18536162 -99.36036266 281.42410776 -99.9609375 278.625 C-101.00274286 273.82565476 -102.35901175 269.14546022 -103.75 264.4375 C-106.03714843 256.58253267 -108.11535094 248.6958077 -110.0625 240.75 C-111.89633193 233.27210662 -113.86319165 225.87553988 -116.10571289 218.51074219 C-118.25252037 211.35984704 -119.99101434 204.11276896 -121.76953125 196.86328125 C-123.21155532 191.02863001 -124.74923836 185.24927531 -126.5 179.5 C-128.87588033 171.69791557 -130.82163232 163.80736306 -132.76293945 155.88745117 C-134.43685304 149.11023473 -136.2911616 142.41781485 -138.31640625 135.73828125 C-139.8436573 130.66066737 -141.04613611 125.55786015 -142.1875 120.3828125 C-143.15931177 116.33671156 -144.31194745 112.36202382 -145.5 108.375 C-145.71479004 107.65151367 -145.92958008 106.92802734 -146.15087891 106.18261719 C-147.09803628 103.00126994 -148.05402082 99.82309212 -149.0234375 96.6484375 C-149.30445313 95.69195313 -149.58546875 94.73546875 -149.875 93.75 C-150.11992187 92.94046875 -150.36484375 92.1309375 -150.6171875 91.296875 C-151.08757329 88.47456028 -150.96255802 86.70222711 -150 84 C-148.03125 82.375 -148.03125 82.375 -145.5 81 C-144.60152344 80.50242187 -143.70304688 80.00484375 -142.77734375 79.4921875 C-141.86082031 78.99976563 -140.94429687 78.50734375 -140 78 C-139.15566406 77.50757813 -138.31132812 77.01515625 -137.44140625 76.5078125 C-131.40677966 73 -131.40677966 73 -128 73 C-128 72.34 -128 71.68 -128 71 C-125.7140617 69.4670058 -123.44192427 68.06139469 -121.0625 66.6875 C-120.37897461 66.28668213 -119.69544922 65.88586426 -118.99121094 65.47290039 C-116.9982661 64.30799351 -114.99940865 63.15376391 -113 62 C-112.04480469 61.43796875 -111.08960938 60.8759375 -110.10546875 60.296875 C-104.39278017 57 -104.39278017 57 -101 57 C-101 56.34 -101 55.68 -101 55 C-99.12890625 53.66796875 -99.12890625 53.66796875 -96.5625 52.1875 C-95.65242188 51.65898438 -94.74234375 51.13046875 -93.8046875 50.5859375 C-90.53767098 48.73857161 -87.26577433 46.9020327 -83.97265625 45.1015625 C-82.32655036 44.18235089 -80.71988153 43.19296879 -79.125 42.1875 C-77 41 -77 41 -74 41 C-74 40.34 -74 39.68 -74 39 C-72.12890625 37.66796875 -72.12890625 37.66796875 -69.5625 36.1875 C-68.65242188 35.65898438 -67.74234375 35.13046875 -66.8046875 34.5859375 C-63.53767098 32.73857161 -60.26577433 30.9020327 -56.97265625 29.1015625 C-55.32655036 28.18235089 -53.71988153 27.19296879 -52.125 26.1875 C-50 25 -50 25 -47 25 C-47 24.34 -47 23.68 -47 23 C-45.12890625 21.66796875 -45.12890625 21.66796875 -42.5625 20.1875 C-41.655 19.66285156 -40.7475 19.13820313 -39.8125 18.59765625 C-38.884375 18.07042969 -37.95625 17.54320312 -37 17 C-36.154375 16.50371094 -35.30875 16.00742187 -34.4375 15.49609375 C-28.38158832 12 -28.38158832 12 -25 12 C-25 11.34 -25 10.68 -25 10 C-22.6098423 8.40656153 -20.23222667 6.93611266 -17.75 5.5 C-17.06808594 5.09652344 -16.38617188 4.69304688 -15.68359375 4.27734375 C-5.65865879 -1.62082187 -5.65865879 -1.62082187 0 0 Z " fill="#FE0000" transform="translate(374,585)"/>
<path d="M0 0 C15.58669084 3.39956631 31.03080468 7.35253524 46.34472656 11.81933594 C52.19985185 13.51663448 58.07802201 15.05434067 64 16.5 C70.79938 18.15984865 77.53112621 19.97730205 84.25 21.9375 C92.89499513 24.45855173 101.59373137 26.67525675 110.33886719 28.82006836 C116.78224631 30.41216422 123.14113815 32.17276188 129.48925781 34.10571289 C135.60978802 35.94318914 141.79454722 37.47761619 148 39 C154.88301648 40.68861052 161.71977481 42.43543893 168.5 44.5 C176.3862421 46.89999111 184.35964267 48.89654866 192.36523438 50.85742188 C193.32494141 51.09267578 194.28464844 51.32792969 195.2734375 51.5703125 C196.11310059 51.77414551 196.95276367 51.97797852 197.81787109 52.18798828 C202.56158401 53.39848308 207.27941842 54.70262573 212 56 C212.04018554 57.56779005 212.08036501 59.13558026 212.12052155 60.70337105 C212.15758842 62.14841015 212.1947583 63.59344661 212.23201752 65.03848076 C212.34090945 69.26801552 212.44780868 73.49758835 212.55169678 77.72724915 C212.79230974 87.43217852 213.06404289 97.13490289 213.38867188 106.83740234 C213.69304828 116.00581305 213.91555116 125.17336199 214.06645966 134.34559441 C214.15566126 139.59209854 214.28295773 144.83258081 214.48828125 150.07592773 C214.69041127 155.2762685 214.79820661 160.47096563 214.84160614 165.67496681 C214.87383822 167.62245037 214.93886452 169.56971575 215.03943634 171.51486778 C215.64204549 183.64166086 215.64204549 183.64166086 213 189 C208.4257536 193.90565038 202.47789594 196.82631202 196.51402187 199.71972942 C192.3668634 201.83167802 188.51417483 204.38997754 184.625 206.9375 C178.00499751 211.12568965 171.35466137 215.2623541 164.6875 219.375 C156.56027071 224.38957769 148.49035281 229.4881535 140.44213867 234.62841797 C133.65334252 238.95991248 126.83406218 243.24033416 120 247.5 C112.3083491 252.29484353 104.640223 257.12362853 97 262 C88.95387895 267.13029451 80.89338121 272.2371055 72.8125 277.3125 C71.77802734 277.96541016 70.74355469 278.61832031 69.67773438 279.29101562 C68.71802734 279.89236328 67.75832031 280.49371094 66.76953125 281.11328125 C65.91979736 281.64735596 65.07006348 282.18143066 64.19458008 282.73168945 C62 284 62 284 59 285 C56.57763672 283.95874023 56.57763672 283.95874023 53.6796875 282.30859375 C52.59977539 281.70063965 51.51986328 281.09268555 50.40722656 280.46630859 C49.22973401 279.7901848 48.0523274 279.11391132 46.875 278.4375 C45.65648651 277.74721657 44.43740273 277.05793895 43.21777344 276.36962891 C40.70393258 274.94932118 38.19313492 273.52384341 35.68457031 272.09423828 C31.24896315 269.56893324 26.79200755 267.08229521 22.33447266 264.59594727 C12.42725729 259.06832647 2.5477081 253.49183259 -7.32373047 247.90063477 C-13.41959047 244.45029627 -19.52954706 241.0261499 -25.64672852 237.61376953 C-36.51670992 231.54867668 -47.3119744 225.38047195 -58 219 C-57.30895418 212.55326996 -55.55142743 206.52811221 -53.75 200.3125 C-51.51646645 192.48629876 -49.36133143 184.65819888 -47.4375 176.75 C-45.58459629 169.15362703 -43.4914639 161.65035436 -41.30273438 154.14453125 C-39.05629525 146.36530216 -37.10841015 138.52420406 -35.17993164 130.66113281 C-33.58783578 124.21775369 -31.82723812 117.85886185 -29.89428711 111.51074219 C-28.05681086 105.39021198 -26.52238381 99.20545278 -25 93 C-23.14508483 85.43910214 -21.16216649 77.95834029 -18.89453125 70.51171875 C-17.05709066 64.39081792 -15.52257797 58.20576118 -14 52 C-12.14199196 44.43180038 -10.16860327 36.93532507 -7.90551758 29.47875977 C-4.97412281 19.7354521 -2.52292873 9.85523119 0 0 Z " fill="#FEF000" transform="translate(279,118)"/>
<path d="M0 0 C3.30037971 2.12958417 5.93748217 4.87345292 8.68741989 7.6501255 C9.33195531 8.29295207 9.97649073 8.93577864 10.64055753 9.59808481 C12.80258375 11.75681251 14.95737657 13.92261887 17.11228561 16.08844948 C18.65922444 17.63595234 20.20660359 19.18301516 21.75439072 20.72966957 C25.95892353 24.93362757 30.1572529 29.14373217 34.35451794 33.35494471 C38.74052115 37.75343378 43.13217275 42.14627569 47.52323532 46.53971291 C54.89387097 53.91586241 62.2610037 61.29549533 69.62546921 68.67780495 C77.21068979 76.28138538 84.79800947 83.88286106 92.38816452 91.48151588 C92.85607193 91.94994874 93.32397934 92.4183816 93.80606577 92.9010094 C96.15344799 95.25100171 98.50087383 97.60095044 100.84831572 99.95088315 C120.32055907 119.44404272 139.7856548 138.94432663 159.24607468 158.44928932 C157.59484564 162.67764367 154.46272339 165.52598304 151.31339645 168.66958046 C150.39225866 169.60068997 150.39225866 169.60068997 149.45251203 170.55060977 C147.39075735 172.63207047 145.32188729 174.70630778 143.25291061 176.78058815 C141.774304 178.27008847 140.2960877 179.75997632 138.81823349 181.25022316 C134.80057542 185.29839817 130.77617702 189.33980432 126.74958324 193.37908959 C124.23574702 195.9010062 121.7229648 198.42396858 119.21046829 200.94721985 C111.35367951 208.83672356 103.49249606 216.72181264 95.62543178 224.60107023 C86.53459087 233.70618423 77.4587746 242.82593622 68.39550757 251.95849591 C61.39370583 259.01198419 54.37860478 266.05206284 47.35324121 273.08208293 C43.15487128 277.28385885 38.96248545 281.49122772 34.78390884 285.71269608 C30.8560456 289.68016965 26.91201377 293.63080797 22.95475197 297.56895256 C21.50304582 299.01938759 20.05734528 300.47586143 18.61807823 301.93864059 C16.65666663 303.93025934 14.67504461 305.89925326 12.68668747 307.8639164 C12.11799556 308.45163395 11.54930366 309.03935151 10.96337867 309.64487869 C9.33699799 311.22528744 9.33699799 311.22528744 6.24607468 313.44928932 C1.8593108 313.34456162 -1.16154471 311.94584345 -4.92970657 309.78132057 C-5.90955521 309.22500954 -6.88940384 308.6686985 -7.89894485 308.09552956 C-8.94421341 307.49039528 -9.98948196 306.885261 -11.06642532 306.26178932 C-13.32018511 304.97767806 -15.57409558 303.69383124 -17.82814407 302.41022682 C-18.99017884 301.7446906 -20.1521254 301.07900036 -21.31398392 300.41315651 C-26.6485016 297.36767317 -32.01463731 294.37940862 -37.37892532 291.38678932 C-46.28734716 286.402373 -55.17949059 281.38976127 -64.06178665 276.35895729 C-69.16618909 273.46997212 -74.27753627 270.59406474 -79.39845657 267.73444557 C-80.51091751 267.11311745 -81.62337845 266.49178932 -82.76955032 265.85163307 C-84.89766859 264.66402205 -87.02652244 263.47772772 -89.15626907 262.29303932 C-91.10402152 261.20610095 -93.03908803 260.09605542 -94.95949173 258.96149635 C-97.70176128 257.37263722 -97.70176128 257.37263722 -100.66945267 256.48005104 C-104.01745981 255.18349266 -105.47991033 254.26276104 -107.75392532 251.44928932 C-108.45873014 248.21326001 -108.46874282 245.00377533 -108.50490189 241.70075417 C-108.5316899 240.72660466 -108.55847792 239.75245516 -108.58607769 238.74878597 C-108.66457305 235.64896415 -108.71176749 232.54980018 -108.75392532 229.44928932 C-108.79052596 227.51900748 -108.82761076 225.58873475 -108.86520767 223.65847206 C-108.95209175 218.6633914 -109.004186 213.66851728 -109.04437065 208.6728611 C-109.07128542 205.34299895 -109.10378185 202.01322356 -109.13714981 198.68342018 C-109.25467083 186.56682344 -109.33302337 174.45036253 -109.38576126 162.33332253 C-109.40915665 157.44488516 -109.43456954 152.55646139 -109.46095657 147.66803932 C-109.46997309 145.87022294 -109.46997309 145.87022294 -109.47917175 144.03608704 C-109.55517947 130.42397176 -109.79610763 116.86478353 -110.63598251 103.27736092 C-112.85421574 67.19135938 -112.85421574 67.19135938 -107.53468704 59.9160862 C-102.41800572 54.31802722 -95.5954919 51.61987637 -88.50896072 49.39843178 C-81.42989216 47.17900999 -75.50891323 43.39222073 -69.25392532 39.44928932 C-67.00800522 38.10909506 -64.75798309 36.7757513 -62.50392532 35.44928932 C-61.39017532 34.78928932 -60.27642532 34.12928932 -59.12892532 33.44928932 C-55.75392532 31.44928932 -52.37892532 29.44928932 -49.00392532 27.44928932 C-47.33052078 26.45711403 -47.33052078 26.45711403 -45.62331009 25.44489479 C-43.39327618 24.1240994 -41.16200989 22.80538237 -38.92946243 21.4888401 C-33.62891471 18.35964315 -28.34517698 15.21063844 -23.10161209 11.98707008 C-20.61220717 10.45839652 -18.11576677 8.94143341 -15.61867142 7.42536354 C-14.42514025 6.69618099 -13.2351215 5.96121531 -12.0488472 5.22028542 C-10.40863768 4.19632072 -8.75537611 3.19335235 -7.10158157 2.19147682 C-5.69404617 1.32305153 -5.69404617 1.32305153 -4.25807571 0.43708229 C-1.75392532 -0.55071068 -1.75392532 -0.55071068 0 0 Z " fill="#56E0FD" transform="translate(781.7539253234863,340.5507106781006)"/>
<path d="M0 0 C1.45746912 55.66501031 2.21316687 111.31656031 2 167 C-6.07473482 163.0311855 -14.03749945 158.97371198 -21.8125 154.4375 C-23.62573395 153.39094214 -25.43956211 152.34541328 -27.25390625 151.30078125 C-28.65793701 150.49181396 -28.65793701 150.49181396 -30.09033203 149.66650391 C-35.1235857 146.78372244 -40.18665967 143.9545021 -45.25 141.125 C-46.29438232 140.54105469 -47.33876465 139.95710937 -48.41479492 139.35546875 C-50.54361821 138.16555879 -52.67260654 136.97594407 -54.80175781 135.78662109 C-68.99168706 127.85975833 -83.17289426 119.91816921 -97.31445312 111.90527344 C-102.37958184 109.03759374 -107.45310934 106.18607508 -112.5390625 103.35546875 C-133.9324031 91.44486323 -133.9324031 91.44486323 -144 85 C-140.31840246 81.87894644 -136.47788371 79.47431411 -132.25 77.1875 C-125.1734774 73.28206457 -118.2316143 69.17726018 -111.3125 65 C-102.08073562 59.43088381 -92.80961198 53.93754079 -83.5 48.5 C-73.45075682 42.62883755 -63.4476927 36.68759655 -53.47949219 30.67944336 C-44.09434275 25.03291661 -34.64664133 19.49567445 -25.18164062 13.984375 C-18.21106015 9.91935899 -18.21106015 9.91935899 -11.32226562 5.71826172 C-10.72577209 5.34640244 -10.12927856 4.97454315 -9.51470947 4.59141541 C-7.85878183 3.55443095 -6.20709106 2.51068969 -4.55566406 1.46655273 C-2 0 -2 0 0 0 Z " fill="#56DFFD" transform="translate(655,415)"/>
<path d="M0 0 C0.18296672 9.47889678 0.34724428 18.95807404 0.5 28.4375 C0.51187725 29.17399654 0.5237545 29.91049309 0.53599167 30.66930771 C1.0198362 61.05023261 1.08629585 91.42817375 1.0625 121.8125 C1.06164398 122.91334301 1.06078796 124.01418602 1.05990601 125.14838791 C1.04852922 138.76560836 1.02847313 152.38280491 1 166 C-1.5483074 164.73332471 -4.09578576 163.46502706 -6.64282227 162.19580078 C-7.35806313 161.84048782 -8.07330399 161.48517487 -8.81021881 161.11909485 C-14.62678826 158.21814836 -20.30478752 155.11883889 -25.9375 151.875 C-27.91506 150.74686175 -29.89293604 149.61927736 -31.87109375 148.4921875 C-32.87640137 147.91823242 -33.88170898 147.34427734 -34.91748047 146.75292969 C-40.09631787 143.80789147 -45.29880211 140.90530458 -50.5 138 C-59.4596258 132.98991506 -68.40282246 127.95170794 -77.3359375 122.89453125 C-84.37946613 118.90963081 -91.43718137 114.95059361 -98.5 111 C-100.57817504 109.83602684 -102.65630014 108.6719645 -104.734375 107.5078125 C-107.90798411 105.72999448 -111.0825473 103.95397827 -114.25976562 102.18261719 C-117.42546101 100.4174619 -120.58796769 98.64670668 -123.75 96.875 C-125.18762695 96.07642578 -125.18762695 96.07642578 -126.65429688 95.26171875 C-131.06175615 92.78590408 -135.18137416 90.35333109 -139 87 C-126.12541808 78.79627322 -113.23907876 70.61181837 -100.32666016 62.46777344 C-96.38339755 59.98016643 -92.44179232 57.48993586 -88.5 55 C-86.9166744 53.99998776 -85.33334107 52.99998775 -83.75 52 C-82.96625 51.505 -82.1825 51.01 -81.375 50.5 C-79 49 -76.625 47.5 -74.25 46 C-73.46641113 45.50508057 -72.68282227 45.01016113 -71.87548828 44.50024414 C-70.29060467 43.49930788 -68.70564361 42.49849427 -67.12060547 41.49780273 C-63.18535006 39.01312238 -59.25142174 36.52639201 -55.3203125 34.03515625 C-46.20697889 28.26337829 -37.06180089 22.54715734 -27.88037109 16.88427734 C-20.80793718 12.5166697 -13.77885808 8.08282363 -6.77539062 3.60546875 C-6.02966797 3.13109375 -5.28394531 2.65671875 -4.515625 2.16796875 C-3.85852539 1.74797607 -3.20142578 1.3279834 -2.52441406 0.89526367 C-1 0 -1 0 0 0 Z " fill="#FDEF01" transform="translate(493,324)"/>
<path d="M0 0 C0.030553 14.20832367 0.05095937 28.416648 0.0625 42.625 C0.06335602 43.67148209 0.06421204 44.71796417 0.06509399 45.79615784 C0.08925081 79.2097059 -0.12316669 112.59638221 -1 146 C-6.88785285 142.12627704 -12.67344085 138.1425796 -18.375 134 C-19.13232422 133.45182617 -19.88964844 132.90365234 -20.66992188 132.33886719 C-27.47285831 127.40520608 -34.2360314 122.41756747 -40.98193359 117.40625 C-41.74070801 116.84421875 -42.49948242 116.2821875 -43.28125 115.703125 C-43.95220703 115.20458008 -44.62316406 114.70603516 -45.31445312 114.19238281 C-46.99646374 112.93866265 -46.99646374 112.93866265 -49 112 C-49 111.34 -49 110.68 -49 110 C-49.70769531 109.75894531 -50.41539062 109.51789063 -51.14453125 109.26953125 C-54.44821536 107.80072504 -56.861608 105.94451962 -59.6875 103.6875 C-64.90953571 99.57592329 -70.22378127 95.62302608 -75.625 91.75 C-82.97311757 86.47485331 -90.27190595 81.13703021 -97.54345703 75.75683594 C-98.2857959 75.20801758 -99.02813477 74.65919922 -99.79296875 74.09375 C-100.49856934 73.57039062 -101.20416992 73.04703125 -101.93115234 72.5078125 C-103.94629974 71.03913769 -105.99491481 69.62954774 -108.05078125 68.21875 C-109.02402344 67.4865625 -109.99726563 66.754375 -111 66 C-111 65.34 -111 64.68 -111 64 C-109.15277176 62.77735292 -107.24452115 61.64620306 -105.3125 60.5625 C-104.25675781 59.96566406 -103.20101563 59.36882813 -102.11328125 58.75390625 C-100.57220703 57.88572266 -100.57220703 57.88572266 -99 57 C-98.10667969 56.43152344 -97.21335937 55.86304688 -96.29296875 55.27734375 C-94 54 -94 54 -91 54 C-91 53.34 -91 52.68 -91 52 C-89.12890625 50.66796875 -89.12890625 50.66796875 -86.5625 49.1875 C-85.65242188 48.65898438 -84.74234375 48.13046875 -83.8046875 47.5859375 C-80.53767098 45.73857161 -77.26577433 43.9020327 -73.97265625 42.1015625 C-72.32655036 41.18235089 -70.71988153 40.19296879 -69.125 39.1875 C-67 38 -67 38 -64 38 C-64 37.34 -64 36.68 -64 36 C-62.12890625 34.66796875 -62.12890625 34.66796875 -59.5625 33.1875 C-58.65242188 32.65898438 -57.74234375 32.13046875 -56.8046875 31.5859375 C-53.53767098 29.73857161 -50.26577433 27.9020327 -46.97265625 26.1015625 C-45.32655036 25.18235089 -43.71988153 24.19296879 -42.125 23.1875 C-40 22 -40 22 -37 22 C-37 21.34 -37 20.68 -37 20 C-35.12890625 18.66796875 -35.12890625 18.66796875 -32.5625 17.1875 C-31.655 16.66285156 -30.7475 16.13820313 -29.8125 15.59765625 C-28.884375 15.07042969 -27.95625 14.54320312 -27 14 C-26.154375 13.50371094 -25.30875 13.00742187 -24.4375 12.49609375 C-18.38158832 9 -18.38158832 9 -15 9 C-15 8.34 -15 7.68 -15 7 C-12.87767021 5.82823482 -10.75242209 4.66245215 -8.625 3.5 C-8.02171875 3.16613281 -7.4184375 2.83226562 -6.796875 2.48828125 C-2.2265625 0 -2.2265625 0 0 0 Z " fill="#FC0101" transform="translate(494,511)"/>
<path d="M0 0 C5.28 0 10.56 0 16 0 C16.71622129 12.20313277 17.18066326 24.37486748 17.31640625 36.59765625 C17.33718531 38.22969385 17.35822947 39.8617281 17.3795166 41.49375916 C17.43447627 45.79928518 17.4842202 50.1048551 17.53242874 54.41046143 C17.56268057 57.07842493 17.59445236 59.7463663 17.62667847 62.41430664 C17.97393595 91.27699637 18.13795727 120.13509374 18 149 C12.72 149 7.44 149 2 149 C0.13984814 99.36956521 -0.22246041 49.66000855 0 0 Z " fill="#000100" transform="translate(652,236)"/>
<path d="M0 0 C1.58206057 0.00667536 3.16410534 0.0186375 4.74609375 0.03515625 C5.55240234 0.03966797 6.35871094 0.04417969 7.18945312 0.04882812 C9.18753131 0.06065107 11.18557158 0.07858711 13.18359375 0.09765625 C11.2152946 6.97793957 8.93878535 13.67291615 6.3828125 20.35546875 C6.02395462 21.30219452 5.66509674 22.24892029 5.29536438 23.22433472 C4.15717377 26.22501485 3.01428154 29.22387684 1.87109375 32.22265625 C1.11621178 34.20951209 0.36165208 36.1964904 -0.39257812 38.18359375 C-1.49705378 41.09313383 -2.60182039 44.00255984 -3.70803833 46.91143799 C-6.76997816 54.96396084 -9.79883268 63.02840546 -12.81640625 71.09765625 C-17.76640625 71.09765625 -22.71640625 71.09765625 -27.81640625 71.09765625 C-32.4310171 61.32850349 -36.64080587 51.44468964 -40.72045898 41.44311523 C-41.7457817 38.93006936 -42.77584283 36.41900747 -43.80664062 33.90820312 C-48.26796835 23.01796112 -52.57836489 12.07678034 -56.81640625 1.09765625 C-50.87640625 1.09765625 -44.93640625 1.09765625 -38.81640625 1.09765625 C-34.36105305 12.07215024 -30.00993948 23.08270842 -25.81640625 34.16015625 C-25.41881104 35.20042969 -25.02121582 36.24070312 -24.61157227 37.3125 C-24.24604248 38.28445313 -23.8805127 39.25640625 -23.50390625 40.2578125 C-23.01470703 41.55150757 -23.01470703 41.55150757 -22.515625 42.87133789 C-21.81640625 45.09765625 -21.81640625 45.09765625 -21.81640625 48.09765625 C-21.15640625 48.09765625 -20.49640625 48.09765625 -19.81640625 48.09765625 C-19.71585938 47.13649902 -19.6153125 46.1753418 -19.51171875 45.18505859 C-18.83488481 40.48185862 -17.28210622 36.16101818 -15.69140625 31.69921875 C-15.38444824 30.82365326 -15.07749023 29.94808777 -14.76123047 29.04598999 C-14.11535946 27.20780646 -13.46637967 25.37071258 -12.81445312 23.53466797 C-11.81302355 20.71312545 -10.82177215 17.88816129 -9.83203125 15.0625 C-9.20241233 13.27453192 -8.57222427 11.48676413 -7.94140625 9.69921875 C-7.64347168 8.85138824 -7.34553711 8.00355774 -7.03857422 7.1300354 C-4.5419987 0.1162231 -4.5419987 0.1162231 0 0 Z " fill="#020004" transform="translate(689.81640625,691.90234375)"/>
<path d="M0 0 C2.61094708 2.67818177 4.57830135 5.53747586 6 9 C5.82929739 12.99118956 3.10672423 15.95852336 0.8125 19.0625 C0.37325195 19.66682861 -0.06599609 20.27115723 -0.51855469 20.89379883 C-2.0053554 22.93443025 -3.50203711 24.9675505 -5 27 C-6.09513157 28.49212916 -7.19018127 29.98431842 -8.28515625 31.4765625 C-10.6212536 34.65676792 -12.9667137 37.82983056 -15.31640625 41 C-17.87510758 44.45826085 -20.39818924 47.93955407 -22.90234375 51.4375 C-23.85318848 52.75584839 -23.85318848 52.75584839 -24.82324219 54.10083008 C-26.04655518 55.79818487 -27.26233039 57.50100311 -28.46972656 59.2097168 C-29.01983398 59.96937744 -29.56994141 60.72903809 -30.13671875 61.51171875 C-30.85927856 62.52431763 -30.85927856 62.52431763 -31.59643555 63.55737305 C-32.05961182 64.03343994 -32.52278809 64.50950684 -33 65 C-33.99 65 -34.98 65 -36 65 C-37.89453125 62.734375 -37.89453125 62.734375 -39.8125 59.75 C-40.45832031 58.77546875 -41.10414063 57.8009375 -41.76953125 56.796875 C-42.17558594 55.87390625 -42.58164062 54.9509375 -43 54 C-41.92510198 51.27349545 -40.38517503 49.00957102 -38.63671875 46.671875 C-38.16790283 46.0442627 -37.69908691 45.41665039 -37.21606445 44.77001953 C-36.71163818 44.10341309 -36.20721191 43.43680664 -35.6875 42.75 C-35.16567139 42.05632324 -34.64384277 41.36264648 -34.10620117 40.64794922 C-29.57655282 34.66980818 -24.87741767 28.83702877 -20.10229492 23.05371094 C-19.57998291 22.41981445 -19.0576709 21.78591797 -18.51953125 21.1328125 C-18.05651611 20.57480957 -17.59350098 20.01680664 -17.11645508 19.44189453 C-15.90776082 17.97717632 -15.90776082 17.97717632 -15 16 C-15.75796875 16.21914062 -16.5159375 16.43828125 -17.296875 16.6640625 C-26.37861032 19.19133274 -35.53400425 21.2687608 -44.75 23.25 C-46.00006836 23.52021973 -47.25013672 23.79043945 -48.53808594 24.06884766 C-49.71661133 24.31940918 -50.89513672 24.5699707 -52.109375 24.828125 C-53.17124023 25.0540332 -54.23310547 25.27994141 -55.32714844 25.51269531 C-58 26 -58 26 -61 26 C-62.82421875 23.69921875 -62.82421875 23.69921875 -64.6875 20.6875 C-65.31011719 19.70136719 -65.93273437 18.71523437 -66.57421875 17.69921875 C-68 15 -68 15 -68 12 C-56.24895716 9.07028412 -44.35393932 7.00075558 -32.4375 4.875 C-29.42729336 4.33592323 -26.41725827 3.79592158 -23.40748596 3.25442505 C-21.54801324 2.92008746 -19.68827266 2.58723526 -17.82823181 2.256073 C-16.57025536 2.03046188 -16.57025536 2.03046188 -15.28686523 1.80029297 C-14.55330307 1.66944305 -13.81974091 1.53859314 -13.06394958 1.40377808 C-3.12995104 -0.53964673 -3.12995104 -0.53964673 0 0 Z " fill="#000500" transform="translate(626,223)"/>
<path d="M0 0 C7.61155516 1.07342445 14.89021094 2.70496031 22.26855469 4.81982422 C29.68928305 6.94069241 37.15189274 8.88513999 44.625 10.8125 C45.84195557 11.12662842 47.05891113 11.44075684 48.31274414 11.7644043 C51.20816917 12.51088268 54.1039 13.25614532 57 14 C55.98006532 18.50573552 53.73489122 21.35347838 51 25 C42.96812314 24.45531944 35.72985902 22.31532585 28.0625 19.9375 C25.63741206 19.19434838 23.21166405 18.45334612 20.78515625 17.71484375 C19.72176025 17.38605225 18.65836426 17.05726074 17.56274414 16.71850586 C15.12263604 15.91001449 15.12263604 15.91001449 13 16 C13.46374023 16.69561035 13.92748047 17.3912207 14.40527344 18.10791016 C21.70263672 29.05395508 21.70263672 29.05395508 29 40 C29.73766602 41.06009277 30.47533203 42.12018555 31.23535156 43.21240234 C33 46 33 46 33.125 48.4375 C31.46148795 52.22661078 28.8188834 55.00870783 26 58 C23.0762225 55.24762593 20.89064761 52.5117656 18.78515625 49.09765625 C18.18711182 48.13408203 17.58906738 47.17050781 16.97290039 46.17773438 C16.34246826 45.14970703 15.71203613 44.12167969 15.0625 43.0625 C14.40950928 42.00740234 13.75651855 40.95230469 13.08374023 39.86523438 C11.72797556 37.67347759 10.37456808 35.48026108 9.0234375 33.28564453 C7.06296553 30.10224302 5.09544254 26.9233314 3.125 23.74609375 C0.07864898 18.83361273 -2.9622366 13.91779573 -6 9 C-4.02 6.03 -2.04 3.06 0 0 Z " fill="#050300" transform="translate(300,519)"/>
</svg>
