<?xml version="1.0" encoding="UTF-8"?>
<svg version="1.1" xmlns="http://www.w3.org/2000/svg" width="1000" height="1000">
<path d="M0 0 C330 0 660 0 1000 0 C1000 330 1000 660 1000 1000 C670 1000 340 1000 0 1000 C0 670 0 340 0 0 Z " fill="#FEFEFE" transform="translate(0,0)"/>
<path d="M0 0 C1.55843377 0.41946633 3.11694862 0.83863152 4.67553711 1.25752258 C8.03639723 2.1614307 11.39671674 3.06731219 14.75662231 3.97476196 C20.13956936 5.42857104 25.52365501 6.87812995 30.90795898 8.3269043 C36.65824447 9.87430595 42.40847533 11.42190792 48.15834045 12.97087097 C62.88220995 16.93693085 77.6100916 20.88787966 92.33984375 24.83203125 C94.50935437 25.41303235 96.67886426 25.99403617 98.84837341 26.57504272 C107.30693225 28.84017269 115.76556892 31.10501166 124.22439575 33.36914062 C129.17323431 34.69381657 134.12182153 36.01942854 139.07031059 37.34540939 C141.89943394 38.10308665 144.72888547 38.8595289 147.55836487 39.61587524 C156.18831756 41.92551919 164.80965194 44.26058828 173.41357422 46.66552734 C174.95529103 47.09438826 176.49703327 47.52315776 178.0388031 47.951828 C180.8495842 48.73357451 183.65679054 49.52665661 186.46229553 50.32710266 C187.6928215 50.66992783 188.92334747 51.01275299 190.19116211 51.3659668 C191.24782578 51.66544724 192.30448944 51.96492767 193.39317322 52.27348328 C199.62471477 53.54425773 204.7984839 52.7905617 210.8840332 51.14404297 C211.59390821 50.95457627 212.30378323 50.76510958 213.0351696 50.56990147 C215.3955497 49.93768294 217.75235813 49.29307147 220.109375 48.6484375 C221.80238877 48.19234648 223.49561651 47.73704913 225.18904114 47.28248596 C229.77401636 46.04948923 234.35605035 44.80587061 238.93766022 43.56043625 C243.76578085 42.25005927 248.59661131 40.94975363 253.42724609 39.64868164 C261.45709242 37.48489316 269.48553732 35.31597819 277.51318359 33.14404297 C288.87432333 30.07098907 300.24082103 27.01815242 311.609375 23.97265625 C313.39008721 23.49549354 315.17079807 23.0183258 316.95150757 22.54115295 C323.89182155 20.68156789 330.83233192 18.82271652 337.77294922 16.96426392 C342.79158475 15.62031321 347.80997094 14.27543482 352.828125 12.9296875 C353.63030079 12.71458464 354.43247658 12.49948177 355.25896072 12.27786064 C365.53582506 9.52091454 375.80448789 6.73578235 386.06439209 3.91638756 C390.35167953 2.73929297 394.64075917 1.56873158 398.92938232 0.39651489 C402.20343349 -0.50237818 405.47404131 -1.41306405 408.74462891 -2.32446289 C410.66813545 -2.85100371 412.59179035 -3.37700302 414.515625 -3.90234375 C415.79200081 -4.26451492 415.79200081 -4.26451492 417.09416199 -4.63400269 C424.84386256 -6.72465218 424.84386256 -6.72465218 428.49609375 -5.09375 C431.6395269 -0.82167177 432.76372249 3.80775684 434.07714844 8.85668945 C434.31710761 9.75359466 434.55706678 10.65049986 434.80429745 11.57458401 C435.59954368 14.55432963 436.38372303 17.53687323 437.16796875 20.51953125 C437.72805024 22.62642573 438.28883997 24.73313205 438.85029602 26.83966064 C440.34865491 32.46882953 441.83765513 38.10043373 443.3247261 43.73259354 C444.85643741 49.52809253 446.39607585 55.32148364 447.93530273 61.11499023 C449.76523164 68.00426824 451.59451451 74.89371328 453.41990662 81.78419495 C456.76556963 94.4112254 460.13318382 107.03181729 463.546875 119.640625 C463.90754264 120.97473001 464.26815006 122.3088513 464.62869263 123.64299011 C466.54691771 130.73853238 466.54691771 130.73853238 468.47570801 137.83120728 C473.80861752 157.39241546 473.80861752 157.39241546 475.13452148 166.55493164 C475.6523144 169.92215887 476.52930163 173.07705008 477.49609375 176.34375 C477.82609375 177.47683594 478.15609375 178.60992187 478.49609375 179.77734375 C479.43646852 182.85166216 479.43646852 182.85166216 480.5625 185.5546875 C481.43523729 187.75296301 481.97760919 189.77908552 482.43359375 192.09375 C483.30556974 196.19676878 484.40141395 200.17353535 485.66796875 204.171875 C486.25903281 206.1235016 486.78324746 208.09588678 487.26171875 210.078125 C489.5078061 218.77660875 493.17461268 223.66002466 499.49609375 229.90625 C500.69621229 231.27025027 501.88468046 232.64463223 503.05859375 234.03125 C505.4110297 236.74142966 507.86143085 239.27914601 510.43359375 241.78125 C513.34933576 244.63009162 515.80864904 247.57868431 518.24609375 250.84375 C522.21404375 255.9759488 526.76308131 259.34693854 532.0546875 262.99609375 C534.49609375 264.90625 534.49609375 264.90625 535.49609375 267.90625 C536.82268796 268.58622797 538.15751251 269.25018409 539.49609375 269.90625 C541.15604406 271.37730944 542.76354461 272.90822143 544.33622742 274.472229 C545.0447084 275.17285497 545.0447084 275.17285497 545.76750213 275.88763499 C547.34677601 277.45192309 548.91883505 279.02326307 550.4909668 280.59472656 C551.62253355 281.71867102 552.75450167 282.84221152 553.88684082 283.96537781 C556.95975728 287.01635271 560.0260788 290.07387263 563.09058356 293.13329411 C565.00524506 295.04431245 566.92119833 296.95402594 568.83759499 298.86330414 C575.52253684 305.52375528 582.20174161 312.18990462 588.8762207 318.86083984 C595.09922988 325.08021131 601.33525377 331.28632177 607.57733315 337.48654771 C612.93572196 342.81026277 618.2844678 348.14353903 623.62589675 353.48426986 C626.8164111 356.67399058 630.01079261 359.8595931 633.21509361 363.03546906 C636.2278067 366.02205094 639.22836508 369.02032739 642.21999359 372.02802467 C643.31980488 373.12965421 644.42390248 374.22702361 645.5325489 375.31976128 C647.0458453 376.81265739 648.54290365 378.32017233 650.03691101 379.83233643 C650.87884349 380.67225758 651.72077597 381.51217873 652.58822155 382.37755203 C654.82593796 385.34342623 655.41351648 387.20448806 655.49609375 390.90625 C654.58695126 392.75056648 654.58695126 392.75056648 652.99095154 394.40725708 C652.33537703 395.09073338 651.67980251 395.77420967 651.00436211 396.47839737 C645.98073272 401.34096791 640.89472319 406.12956518 635.75933838 410.87396622 C631.90577461 414.4363464 628.06674585 418.01429332 624.22901917 421.59371948 C623.41099575 422.35668138 622.59297234 423.11964328 621.75016034 423.90572524 C610.17682506 434.72120696 598.76990767 445.71195687 587.36274052 456.70213127 C578.13647825 465.58162934 568.859379 474.39063591 559.42700195 483.05126953 C510.82484571 527.75530448 479.81186494 564.77531838 469.2300806 631.13118839 C466.28017316 649.55145745 461.3351469 667.34355127 456.27265739 685.2781601 C454.14111517 692.84975709 452.11760565 700.4506784 450.08604634 708.04957902 C449.22816435 711.25559538 448.36602624 714.46046245 447.50378746 717.66530937 C445.18936044 726.27419494 442.91719124 734.89371169 440.6636467 743.51870728 C439.53570331 747.82915344 438.39804279 752.1370502 437.26202393 756.44537354 C436.39879663 759.73807975 435.55144844 763.03459659 434.70458984 766.33154297 C434.1958623 768.26162416 433.6863183 770.19149042 433.17578125 772.12109375 C432.85232727 773.4129232 432.85232727 773.4129232 432.52233887 774.73085022 C432.20746521 775.90036476 432.20746521 775.90036476 431.88623047 777.09350586 C431.71276093 777.76328964 431.53929138 778.43307343 431.36056519 779.12315369 C430.16957454 781.57974271 428.86328866 782.57503613 426.49609375 783.90625 C424.45849609 783.90289307 424.45849609 783.90289307 422.20703125 783.34472656 C421.32241211 783.13303833 420.43779297 782.9213501 419.52636719 782.70324707 C418.52637695 782.44023804 417.52638672 782.177229 416.49609375 781.90625 C415.38008789 781.62422729 414.26408203 781.34220459 413.11425781 781.05163574 C409.10944157 780.02337568 405.1149987 778.96026211 401.12109375 777.890625 C399.58948859 777.48284662 398.05781445 777.07532726 396.52607727 776.66804504 C392.38156758 775.56514572 388.23812075 774.45830203 384.09488297 773.35063553 C380.59526103 772.41555129 377.09503313 771.48274677 373.59480381 770.54993916 C361.55998009 767.34255343 349.52762055 764.12597844 337.49609375 760.90625 C336.13261181 760.54137859 336.13261181 760.54137859 334.74158478 760.16913605 C322.2965304 756.83852853 309.85262248 753.50365535 297.40939713 750.16622162 C294.81175393 749.46959748 292.21403806 748.77324494 289.61630249 748.07696533 C273.38908529 743.72722744 257.16335299 739.37322282 240.95913124 734.93846703 C236.69545496 733.77242463 232.4303517 732.61160337 228.1656189 731.44943237 C224.91690054 730.56087307 221.67094771 729.66270959 218.42504883 728.76391602 C216.50744982 728.24058771 214.58973343 727.71768929 212.671875 727.1953125 C211.83124512 726.95901627 210.99061523 726.72272003 210.12451172 726.47926331 C208.95553345 726.16395912 208.95553345 726.16395912 207.76293945 725.84228516 C207.10203812 725.65993317 206.44113678 725.47758118 205.76020813 725.28970337 C200.37078064 724.37694289 195.56442434 724.92207219 190.33666992 726.36132812 C189.14262543 726.68522018 187.94858093 727.00911224 186.71835327 727.34281921 C185.40856405 727.70762078 184.09880139 728.07251775 182.7890625 728.4375 C181.38789385 728.82068819 179.98648884 729.20301301 178.58486938 729.58454895 C175.55127766 730.41195941 172.51920352 731.2446472 169.4881897 732.08145142 C164.60421459 733.42951363 159.71696154 734.76538571 154.82885742 736.09838867 C153.99084626 736.32691749 153.1528351 736.5554463 152.28942966 736.79090023 C150.56603047 737.2608131 148.84261524 737.73066711 147.11918449 738.20046425 C144.45575758 738.92683866 141.79262943 739.65430088 139.12953186 740.38188171 C125.93328639 743.98464073 112.72285178 747.53228317 99.50390625 751.05078125 C98.06722721 751.43323155 98.06722721 751.43323155 96.60152435 751.82340813 C88.87442886 753.87991671 81.14658315 755.9336 73.41851807 757.98646164 C66.80068644 759.74445231 60.18321035 761.50377051 53.56640625 763.265625 C52.65659248 763.50787371 51.74677872 763.75012241 50.80939484 763.99971199 C38.76946783 767.20781129 26.74570098 770.46923777 14.73828125 773.796875 C13.4056972 774.16533717 12.07309165 774.53372157 10.74046326 774.90202332 C4.79316649 776.54732219 -1.15058782 778.20366268 -7.08862305 779.88208008 C-9.10845763 780.44389463 -11.12838875 781.00536226 -13.1484375 781.56640625 C-14.03963287 781.82339294 -14.93082825 782.08037964 -15.84902954 782.34515381 C-23.45400216 784.43713992 -23.45400216 784.43713992 -27.50390625 782.90625 C-30.21256228 780.19759397 -30.51197139 777.79236636 -31.49316406 774.0859375 C-31.68292564 773.37678129 -31.87268723 772.66762508 -32.06819916 771.93697929 C-32.70428098 769.55340657 -33.3305716 767.16736817 -33.95703125 764.78125 C-34.40882595 763.08090047 -34.86125353 761.380719 -35.31427002 759.68069458 C-36.2890334 756.01766848 -37.2595534 752.35355391 -38.22680664 748.6885376 C-39.76493305 742.86071838 -41.31226075 737.03536845 -42.86132812 731.21044922 C-44.46762077 725.16881588 -46.07338979 719.12704675 -47.67602539 713.08444214 C-52.85634583 693.55397125 -58.09048716 674.03811116 -63.33403015 654.52453613 C-63.98335986 652.10772389 -64.63244295 649.69084561 -65.28137207 647.27392578 C-65.57327988 646.18730982 -65.57327988 646.18730982 -65.87108481 645.07874203 C-66.28473043 643.536884 -66.69747609 641.99478397 -67.1089319 640.45234013 C-68.14328905 636.58027054 -69.19246804 632.71379126 -70.28253365 628.85700989 C-72.63818066 620.42831344 -74.72948052 612.02890747 -76.36910689 603.42922223 C-83.56288658 566.05972451 -96.4321295 544.02510498 -124.10825491 518.30940771 C-128.73883919 513.96068539 -133.24543335 509.48652223 -137.76785278 505.02590942 C-145.33098875 497.59688886 -152.9594916 490.2408178 -160.64892578 482.94287109 C-168.53697363 475.45596088 -176.3857512 467.93144757 -184.18408203 460.35107422 C-184.66944305 459.87931188 -185.15480407 459.40754954 -185.654873 458.92149137 C-190.00943507 454.68776309 -194.35968928 450.44961718 -198.70980668 446.21132302 C-201.51938958 443.47408239 -204.32946863 440.73735281 -207.1399231 438.00100708 C-208.05024296 437.1145082 -208.96056282 436.22800932 -209.89846814 435.31464684 C-215.29214319 430.06867972 -220.71013347 424.84950393 -226.15260863 419.65418792 C-229.51276842 416.44570396 -232.86435827 413.22834494 -236.21536255 410.0103035 C-237.77137658 408.52124595 -239.33184416 407.03682649 -240.89700699 405.55738831 C-243.02879423 403.54202919 -245.14503409 401.51154268 -247.2585144 399.47702026 C-247.88348529 398.8945805 -248.50845617 398.31214073 -249.15236557 397.71205127 C-251.87156557 395.06675631 -253.34532659 393.38117153 -254.56602097 389.7253809 C-254.49293973 386.40852474 -254.04777276 385.56368444 -251.75546265 383.22938538 C-251.10186138 382.54758272 -250.44826012 381.86578007 -249.77485275 381.16331673 C-249.02544041 380.41848471 -248.27602806 379.67365269 -247.50390625 378.90625 C-246.30146208 377.6688548 -246.30146208 377.6688548 -245.0747261 376.40646172 C-242.23073286 373.49453807 -239.35789491 370.61339928 -236.47900391 367.73608398 C-235.37909016 366.63317224 -234.27937968 365.53005777 -233.17985535 364.42675781 C-230.2131696 361.45129543 -227.24330211 358.47902922 -224.27254534 355.50763202 C-222.41235202 353.64672486 -220.55287385 351.78510615 -218.69364548 349.92323494 C-212.19542186 343.41578058 -205.69464136 336.9108933 -199.19140625 330.40844727 C-193.14803505 324.36567702 -187.11026723 318.31734801 -181.07509387 312.26639122 C-175.87589333 307.05408294 -170.67281178 301.84567022 -165.46673429 296.64023072 C-162.36504462 293.53879497 -159.26489845 290.43585547 -156.16865921 287.32897758 C-153.25594288 284.40652505 -150.33839028 281.4889861 -147.41718483 278.57501984 C-146.35169959 277.51057342 -145.28788813 276.44444826 -144.22596931 275.37644386 C-138.87489104 269.99671305 -133.49496648 264.86120315 -127.38991356 260.32972813 C-123.59470648 257.46526719 -120.24351852 254.10776875 -116.7890625 250.84765625 C-114.50390625 248.90625 -114.50390625 248.90625 -112.50390625 248.90625 C-112.30023438 248.36613281 -112.0965625 247.82601562 -111.88671875 247.26953125 C-109.94576141 243.95235839 -107.21403833 241.62962702 -104.37890625 239.09375 C-103.79431641 238.56112549 -103.20972656 238.02850098 -102.60742188 237.47973633 C-98.91208788 234.12484264 -95.16163656 230.84445391 -91.28515625 227.69921875 C-86.08292021 222.46275747 -83.68095771 217.51493963 -82.1171875 210.4453125 C-81.92924118 209.65530853 -81.74129486 208.86530457 -81.5476532 208.05136108 C-80.95573523 205.54786149 -80.38579777 203.03995759 -79.81640625 200.53125 C-79.42396234 198.85643363 -79.03009359 197.18195046 -78.63476562 195.5078125 C-77.73869312 191.69511505 -76.85234037 187.88056394 -75.99382019 184.05921936 C-75.66401607 182.60986652 -75.32272528 181.16308503 -74.97065735 179.71897888 C-73.84524324 174.98832944 -73.20697774 170.37431604 -72.77488708 165.53434753 C-71.06337149 147.6160905 -65.96440536 130.52613448 -61.17401505 113.24435043 C-59.93282836 108.75370006 -58.70959922 104.25816521 -57.48510742 99.76293945 C-55.98184685 94.24819083 -54.47698167 88.73390594 -52.96388245 83.22184753 C-49.8572883 71.90177466 -46.79768317 60.57039931 -43.79117393 49.22333336 C-43.16054907 46.84346542 -42.52880506 44.46389747 -41.89668274 42.08442688 C-39.52618064 33.16192386 -39.52618064 33.16192386 -37.16793823 24.23617554 C-36.1073832 20.21116327 -35.03461455 16.18950027 -33.9609375 12.16796875 C-33.49831009 10.39885132 -33.49831009 10.39885132 -33.02633667 8.59399414 C-32.73638824 7.51456543 -32.44643982 6.43513672 -32.14770508 5.32299805 C-31.77758049 3.92527412 -31.77758049 3.92527412 -31.39997864 2.49931335 C-26.40459921 -11.95636626 -11.38317091 -3.08296501 0 0 Z " fill="#040404" transform="translate(299.50390625,111.09375)"/>
<path d="M0 0 C0.15913941 33.06916848 -0.11665538 66.12659574 -0.50509644 99.19296265 C-0.80929496 125.14533427 -1.05823113 151.09758372 -1.23837018 177.05109143 C-1.25390394 179.28482406 -1.26958259 181.51855562 -1.28530693 183.75228691 C-1.37893147 197.0600818 -1.4720363 210.36787926 -1.5541687 223.67575073 C-1.74238029 254.1255855 -1.93508579 284.56546482 -3 315 C-4.06903564 315.26225121 -4.06903564 315.26225121 -5.15966797 315.52980042 C-16.93483806 318.42040458 -28.65517678 321.35543901 -40.24609375 324.921875 C-42.96625894 325.70310871 -45.6154282 326.37614676 -48.375 326.96875 C-53.17604333 328.0037788 -57.85437033 329.35896169 -62.5625 330.75 C-70.41746733 333.03714843 -78.3041923 335.11535094 -86.25 337.0625 C-93.72789338 338.89633193 -101.12446012 340.86319165 -108.48925781 343.10571289 C-115.64015296 345.25252037 -122.88723104 346.99101434 -130.13671875 348.76953125 C-135.97136999 350.21155532 -141.75072469 351.74923836 -147.5 353.5 C-155.29919324 355.87499991 -163.18675437 357.82025695 -171.10375977 359.76074219 C-177.97091752 361.45682429 -184.75450868 363.33666972 -191.52539062 365.38012695 C-196.31795583 366.82110264 -201.0967529 368.01552739 -206 369 C-207.68817053 369.37196978 -209.37567752 369.74696405 -211.0625 370.125 C-212.375 370.41666667 -213.6875 370.70833333 -215 371 C-215.62849414 368.85518747 -216.25260258 366.70908965 -216.875 364.5625 C-217.39707031 362.77005859 -217.39707031 362.77005859 -217.9296875 360.94140625 C-218.70483598 358.18536162 -219.36036266 355.42410776 -219.9609375 352.625 C-221.00274286 347.82565476 -222.35901175 343.14546022 -223.75 338.4375 C-226.03714843 330.58253267 -228.11535094 322.6958077 -230.0625 314.75 C-231.89633193 307.27210662 -233.86319165 299.87553988 -236.10571289 292.51074219 C-238.25252037 285.35984704 -239.99101434 278.11276896 -241.76953125 270.86328125 C-243.21155532 265.02863001 -244.74923836 259.24927531 -246.5 253.5 C-248.87588033 245.69791557 -250.82163232 237.80736306 -252.76293945 229.88745117 C-254.43685304 223.11023473 -256.2911616 216.41781485 -258.31640625 209.73828125 C-259.8436573 204.66066737 -261.04613611 199.55786015 -262.1875 194.3828125 C-263.15931177 190.33671156 -264.31194745 186.36202382 -265.5 182.375 C-265.71479004 181.65151367 -265.92958008 180.92802734 -266.15087891 180.18261719 C-267.09803628 177.00126994 -268.05402082 173.82309212 -269.0234375 170.6484375 C-269.30445313 169.69195313 -269.58546875 168.73546875 -269.875 167.75 C-270.11992187 166.94046875 -270.36484375 166.1309375 -270.6171875 165.296875 C-271.08757329 162.47456028 -270.96255802 160.70222711 -270 158 C-268.03125 156.375 -268.03125 156.375 -265.5 155 C-264.60152344 154.50242187 -263.70304688 154.00484375 -262.77734375 153.4921875 C-261.86082031 152.99976563 -260.94429687 152.50734375 -260 152 C-259.15566406 151.50757813 -258.31132812 151.01515625 -257.44140625 150.5078125 C-251.40677966 147 -251.40677966 147 -248 147 C-248 146.34 -248 145.68 -248 145 C-246.12890625 143.66796875 -246.12890625 143.66796875 -243.5625 142.1875 C-242.65242188 141.65898438 -241.74234375 141.13046875 -240.8046875 140.5859375 C-237.53767098 138.73857161 -234.26577433 136.9020327 -230.97265625 135.1015625 C-229.32655036 134.18235089 -227.71988153 133.19296879 -226.125 132.1875 C-224 131 -224 131 -221 131 C-221 130.34 -221 129.68 -221 129 C-219.12890625 127.66796875 -219.12890625 127.66796875 -216.5625 126.1875 C-215.19738281 125.39472656 -215.19738281 125.39472656 -213.8046875 124.5859375 C-210.53767098 122.73857161 -207.26577433 120.9020327 -203.97265625 119.1015625 C-202.32655036 118.18235089 -200.71988153 117.19296879 -199.125 116.1875 C-197 115 -197 115 -194 115 C-194 114.34 -194 113.68 -194 113 C-192.12890625 111.66796875 -192.12890625 111.66796875 -189.5625 110.1875 C-188.19738281 109.39472656 -188.19738281 109.39472656 -186.8046875 108.5859375 C-183.53767098 106.73857161 -180.26577433 104.9020327 -176.97265625 103.1015625 C-175.32655036 102.18235089 -173.71988153 101.19296879 -172.125 100.1875 C-170 99 -170 99 -167 99 C-167 98.34 -167 97.68 -167 97 C-165.12890625 95.66796875 -165.12890625 95.66796875 -162.5625 94.1875 C-161.655 93.66285156 -160.7475 93.13820313 -159.8125 92.59765625 C-158.884375 92.07042969 -157.95625 91.54320312 -157 91 C-155.7315625 90.25556641 -155.7315625 90.25556641 -154.4375 89.49609375 C-148.38158832 86 -148.38158832 86 -145 86 C-145 85.34 -145 84.68 -145 84 C-142.7140617 82.4670058 -140.44192427 81.06139469 -138.0625 79.6875 C-137.37897461 79.28668213 -136.69544922 78.88586426 -135.99121094 78.47290039 C-133.9982661 77.30799351 -131.99940865 76.15376391 -130 75 C-129.04480469 74.43796875 -128.08960938 73.8759375 -127.10546875 73.296875 C-121.39278017 70 -121.39278017 70 -118 70 C-118 69.34 -118 68.68 -118 68 C-116.12890625 66.66796875 -116.12890625 66.66796875 -113.5625 65.1875 C-112.65242187 64.65898438 -111.74234375 64.13046875 -110.8046875 63.5859375 C-107.53767098 61.73857161 -104.26577433 59.9020327 -100.97265625 58.1015625 C-99.32655036 57.18235089 -97.71988153 56.19296879 -96.125 55.1875 C-94 54 -94 54 -91 54 C-91 53.34 -91 52.68 -91 52 C-89.12890625 50.66796875 -89.12890625 50.66796875 -86.5625 49.1875 C-85.65242187 48.65898438 -84.74234375 48.13046875 -83.8046875 47.5859375 C-80.53767098 45.73857161 -77.26577433 43.9020327 -73.97265625 42.1015625 C-72.32655036 41.18235089 -70.71988153 40.19296879 -69.125 39.1875 C-67 38 -67 38 -64 38 C-64 37.34 -64 36.68 -64 36 C-62.12890625 34.66796875 -62.12890625 34.66796875 -59.5625 33.1875 C-58.65242187 32.65898438 -57.74234375 32.13046875 -56.8046875 31.5859375 C-53.53767098 29.73857161 -50.26577433 27.9020327 -46.97265625 26.1015625 C-45.32655036 25.18235089 -43.71988153 24.19296879 -42.125 23.1875 C-40 22 -40 22 -37 22 C-37 21.34 -37 20.68 -37 20 C-35.12890625 18.66796875 -35.12890625 18.66796875 -32.5625 17.1875 C-31.655 16.66285156 -30.7475 16.13820313 -29.8125 15.59765625 C-28.4203125 14.80681641 -28.4203125 14.80681641 -27 14 C-26.154375 13.50371094 -25.30875 13.00742187 -24.4375 12.49609375 C-18.38158832 9 -18.38158832 9 -15 9 C-15 8.34 -15 7.68 -15 7 C-12.87767021 5.82823482 -10.75242209 4.66245215 -8.625 3.5 C-7.72007812 2.99919922 -7.72007812 2.99919922 -6.796875 2.48828125 C-2.2265625 0 -2.2265625 0 0 0 Z " fill="#FE0000" transform="translate(494,511)"/>
<path d="M0 0 C17.61151261 9.22098709 34.92898351 18.98396089 52.0625 29.0625 C61.01083236 34.32415462 70.06674016 39.34090665 79.21337891 44.24853516 C86.54597357 48.18967006 93.79031299 52.26378807 101.00561523 56.41503906 C107.72830988 60.2811093 114.48109126 64.09044794 121.25 67.875 C122.29518799 68.45942871 123.34037598 69.04385742 124.41723633 69.64599609 C126.54526011 70.8353922 128.67343469 72.02451853 130.80175781 73.21337891 C144.99226816 81.14056629 159.17184361 89.08624274 173.31665039 97.09472656 C180.55306492 101.18923507 187.80540283 105.25477992 195.0625 109.3125 C203.73533212 114.16204032 212.38968317 119.04021106 221 124 C220.40571044 127.12151233 219.47912631 128.97084717 217.4453125 131.3984375 C216.91873047 132.03523437 216.39214844 132.67203125 215.84960938 133.328125 C214.99592773 134.34132813 214.99592773 134.34132813 214.125 135.375 C212.92869721 136.81949294 211.73340076 138.26481983 210.5390625 139.7109375 C209.9399707 140.4337793 209.34087891 141.15662109 208.72363281 141.90136719 C206.26485037 144.89509153 203.87855714 147.94242312 201.5 151 C197.60605953 155.99177588 193.6353523 160.91387675 189.625 165.8125 C184.54228323 172.0304122 179.60891305 178.34762016 174.765625 184.75366211 C172.12802927 188.23853698 169.46263 191.68862599 166.703125 195.078125 C166.18443848 195.71927246 165.66575195 196.36041992 165.13134766 197.02099609 C164.14999227 198.22884257 163.16043767 199.43008765 162.16162109 200.62353516 C160.69672729 202.38437775 160.69672729 202.38437775 159 205 C160.24546405 208.73639216 161.63404953 209.18756513 165 211 C165.21785156 210.48179687 165.43570313 209.96359375 165.66015625 209.4296875 C167.5440657 206.01338523 169.97369807 203.13966611 172.4375 200.125 C173.53182763 198.77260262 174.62556516 197.41972755 175.71875 196.06640625 C176.27046875 195.38465332 176.8221875 194.70290039 177.390625 194.00048828 C179.76905062 191.04405328 182.10333922 188.05391018 184.4375 185.0625 C188.94135586 179.30416786 193.54030207 173.6276521 198.16162109 167.96337891 C201.67157167 163.65424598 205.13773054 159.31459516 208.5625 154.9375 C212.50384696 149.9030649 216.4569573 144.87853669 220.4375 139.875 C220.93386963 139.247146 221.43023926 138.61929199 221.94165039 137.97241211 C222.4133667 137.38081299 222.88508301 136.78921387 223.37109375 136.1796875 C223.9887561 135.40214111 223.9887561 135.40214111 224.61889648 134.60888672 C226.3140951 132.6341017 228.14304253 130.82213488 230 129 C233.41538084 130.89961329 236.82920416 132.80199441 240.24169922 134.70678711 C241.96372892 135.66726938 243.68693044 136.62564974 245.41015625 137.58398438 C251.37378915 140.91455129 257.24888695 144.31393122 263 148 C261.40596353 158.92745504 258.31582299 169.51537859 255.453125 180.16015625 C254.88759569 182.27583484 254.32244993 184.39161599 253.75765991 186.50749207 C252.24122751 192.18406988 250.71939136 197.85918572 249.19641876 203.53401184 C247.61155527 209.44278319 246.03140231 215.35281409 244.45068359 221.26269531 C241.88047632 230.86942339 239.30714545 240.47530966 236.73144531 250.08056641 C233.82227444 260.92942881 230.91810282 271.77961886 228.0168457 282.63059998 C225.78644662 290.97244878 223.55329257 299.31355961 221.31980896 307.65458298 C220.63218141 310.22317426 219.94501061 312.79188736 219.25793457 315.36062622 C214.64213896 332.61360149 210.00508798 349.85475124 205 367 C195.96806545 365.5726947 187.21050873 363.30160391 178.3984375 360.90625 C176.84128066 360.48662388 175.28401088 360.06741664 173.72663879 359.64859009 C170.37137106 358.74536656 167.01686354 357.83939088 163.66293335 356.93121338 C158.29247569 355.4770294 152.92043586 354.02875458 147.5480957 352.58154297 C141.80853175 351.03518308 136.06905321 349.48851162 130.33009338 347.93991089 C115.56441127 343.95608639 100.79321983 339.99308413 86.01953125 336.0390625 C83.8402081 335.45567507 81.66088681 334.87228071 79.48156738 334.28887939 C70.97775492 332.01256415 62.47385633 329.73657133 53.96966553 327.46166992 C48.97426157 326.12529257 43.97916541 324.78776982 38.98425865 323.44953537 C37.16748347 322.96298979 35.35060775 322.4768194 33.53360939 321.99110794 C17.66467744 317.74888406 1.8306069 313.38262905 -14 309 C-14.13310478 255.58113847 -13.85114138 202.17888312 -13.16577756 148.7644136 C-13.08416067 142.38399267 -13.00601902 136.00353603 -12.92993164 129.62304688 C-12.91909975 128.71473877 -12.90826785 127.80643067 -12.89710772 126.87059808 C-12.88629054 125.9634744 -12.87547336 125.05635071 -12.86432838 124.12173843 C-12.39459567 84.74448263 -11.85213762 45.37115279 -11 6 C-8.80991793 8.85644612 -7.11443646 11.58134307 -5.57421875 14.83984375 C-5.11402344 15.80656006 -4.65382813 16.77327637 -4.1796875 17.76928711 C-3.44105469 19.33755249 -3.44105469 19.33755249 -2.6875 20.9375 C-1.61906552 23.18777355 -0.55002957 25.43776159 0.51953125 27.6875 C1.08236816 28.8734375 1.64520508 30.059375 2.22509766 31.28125 C4.04986584 35.11431665 5.90350113 38.93306167 7.76171875 42.75 C8.39088441 44.04434479 9.0200349 45.33869696 9.64916992 46.63305664 C10.56417576 48.51515838 11.48009167 50.39678281 12.39932251 52.27682495 C17.79361781 63.31461922 17.79361781 63.31461922 19.90234375 68.8046875 C22.50914965 75.52044568 25.76491866 81.93402344 28.93734741 88.39569092 C30.47306615 91.52377699 32.0010059 94.6556409 33.52931213 97.78735352 C34.29361739 99.35345392 35.05829382 100.91937323 35.823349 102.48510742 C39.23749428 109.47504258 42.60031916 116.48875416 45.94287109 123.51318359 C48.53131186 128.94663082 51.14659034 134.36620784 53.78125 139.77734375 C54.76085599 141.79283761 55.7402471 143.8084358 56.71963501 145.82403564 C57.36093691 147.14158094 58.00364066 148.45844489 58.64779663 149.77459717 C59.54337089 151.60456549 60.43391192 153.43699446 61.32421875 155.26953125 C62.0989856 156.85664917 62.0989856 156.85664917 62.8894043 158.47583008 C64 161 64 161 64 163 C67.3 161.35 70.6 159.7 74 158 C69.07432067 146.39137752 63.69804222 135.04258812 58.12597656 123.73150635 C56.24601317 119.91412327 54.37478037 116.09248281 52.50305176 112.27105713 C51.1400844 109.48847636 49.77613525 106.70637841 48.41210938 103.92431641 C42.32187291 91.49632806 36.32813789 79.04550248 30.73706055 66.38354492 C30.22570557 65.2257251 29.71435059 64.06790527 29.1875 62.875 C28.41950073 61.13536987 28.41950073 61.13536987 27.63598633 59.3605957 C21.21972948 44.94893373 14.16459036 30.83826974 7.1628418 16.70458984 C6.45309204 15.26703087 6.45309204 15.26703087 5.72900391 13.8004303 C4.83027598 11.98083972 3.92814597 10.16292456 3.0222168 8.34690857 C2.62325195 7.53867142 2.22428711 6.73043427 1.81323242 5.89770508 C1.46161545 5.19019608 1.10999847 4.48268707 0.74772644 3.7537384 C0 2 0 2 0 0 Z " fill="#A53AFD" transform="translate(516,515)"/>
<path d="M0 0 C0.16604736 0.64960693 0.33209473 1.29921387 0.50317383 1.96850586 C1.26961522 4.95903627 2.04102548 7.94826422 2.8125 10.9375 C3.07353516 11.95908203 3.33457031 12.98066406 3.60351562 14.03320312 C4.99621081 19.41485243 6.52622163 24.68536635 8.33227539 29.94165039 C9.37745171 33.16354493 10.08553142 36.44378673 10.8125 39.75 C12.28533598 46.25708532 14.00199517 52.65970316 15.875 59.0625 C18.09669757 66.6689186 20.11432114 74.30349025 22 82 C24.08647386 90.5101686 26.36656522 98.93661533 28.8203125 107.34765625 C30.75434585 114.02057761 32.45840476 120.73286014 34.10571289 127.48144531 C35.81445407 134.41440237 37.76551585 141.26364542 39.76293945 148.11816406 C41.77958496 155.09150169 43.57979842 162.1051632 45.26367188 169.16601562 C46.1959716 173.02190333 47.2275213 176.78172811 48.515625 180.53515625 C49.99960446 184.86496224 51.0750702 189.22171665 52.0625 193.6875 C52.9391793 197.62023406 53.81270294 201.45377129 55.12109375 205.26953125 C56 208 56 208 56 212 C53.515625 213.88671875 53.515625 213.88671875 50.25 215.6875 C49.18265625 216.28949219 48.1153125 216.89148438 47.015625 217.51171875 C44.59866405 218.70454533 42.6271391 219.52175866 40 220 C40 220.66 40 221.32 40 222 C38.82244141 222.56267578 38.82244141 222.56267578 37.62109375 223.13671875 C31.66337638 226.03882156 26.28318553 229.01065582 21 233 C16.44827586 236 16.44827586 236 13 236 C13 236.66 13 237.32 13 238 C11.82244141 238.56267578 11.82244141 238.56267578 10.62109375 239.13671875 C4.66337638 242.03882156 -0.71681447 245.01065582 -6 249 C-10.55172414 252 -10.55172414 252 -14 252 C-14 252.66 -14 253.32 -14 254 C-15.17755859 254.56267578 -15.17755859 254.56267578 -16.37890625 255.13671875 C-22.34441509 258.04261692 -27.68833177 261.04228642 -33 265 C-34.67861472 265.98183125 -36.35810859 266.96280409 -38.05859375 267.90625 C-40.36040393 269.20304447 -42.61542497 270.56848391 -44.875 271.9375 C-48.19018643 273.92863332 -51.51387905 275.89975683 -54.875 277.8125 C-55.57367187 278.21082031 -56.27234375 278.60914063 -56.9921875 279.01953125 C-58.98792806 279.99410495 -60.83153434 280.54783115 -63 281 C-63 281.66 -63 282.32 -63 283 C-64.3125 283.72916667 -65.625 284.45833333 -66.9375 285.1875 C-67.75734375 285.64382813 -68.5771875 286.10015625 -69.421875 286.5703125 C-71.07516163 287.48713509 -72.73118694 288.39904647 -74.390625 289.3046875 C-77.82368968 291.18469911 -81.16841183 293.06392953 -84.375 295.3125 C-87 297 -87 297 -90 297 C-90 297.66 -90 298.32 -90 299 C-90.78503906 299.37511719 -91.57007813 299.75023437 -92.37890625 300.13671875 C-98.33662362 303.03882156 -103.71681447 306.01065582 -109 310 C-113.55172414 313 -113.55172414 313 -117 313 C-117 313.66 -117 314.32 -117 315 C-117.78503906 315.37511719 -118.57007813 315.75023437 -119.37890625 316.13671875 C-125.33662362 319.03882156 -130.71681447 322.01065582 -136 326 C-140.55172414 329 -140.55172414 329 -144 329 C-144 329.66 -144 330.32 -144 331 C-144.78503906 331.37511719 -145.57007813 331.75023437 -146.37890625 332.13671875 C-153.47970918 335.56839662 -153.47970918 335.56839662 -160.0625 339.875 C-163 342 -163 342 -166 342 C-166 342.66 -166 343.32 -166 344 C-167.3125 344.72916667 -168.625 345.45833333 -169.9375 346.1875 C-170.75734375 346.64382813 -171.5771875 347.10015625 -172.421875 347.5703125 C-174.07516163 348.48713509 -175.73118694 349.39904647 -177.390625 350.3046875 C-180.82368968 352.18469911 -184.16841183 354.06392953 -187.375 356.3125 C-190 358 -190 358 -193 358 C-193 358.66 -193 359.32 -193 360 C-194.01707031 360.54527344 -194.01707031 360.54527344 -195.0546875 361.1015625 C-200.81118981 364.21103051 -206.45281586 367.4345571 -212.00390625 370.8984375 C-214 372 -214 372 -216 372 C-216.17485826 362.7084764 -216.34095003 353.41680682 -216.5 344.125 C-216.51187725 343.43141136 -216.5237545 342.73782272 -216.53599167 342.02321625 C-217.00100307 314.68086364 -217.12034629 287.34638077 -217 260 C-215.5437455 259.32880451 -214.08492133 258.66318193 -212.625 258 C-211.81289063 257.62875 -211.00078125 257.2575 -210.1640625 256.875 C-208 256 -208 256 -206 256 C-206 255.34 -206 254.68 -206 254 C-204.97793457 253.55422607 -203.95586914 253.10845215 -202.90283203 252.64916992 C-182.14271716 243.58901819 -161.43419378 234.42746269 -140.81213379 225.05706787 C-124.27650122 217.5458242 -107.66540554 210.21833143 -91 203 C-91 199.76344816 -91.6550847 198.21247361 -93 195.3125 C-93.37125 194.50425781 -93.7425 193.69601562 -94.125 192.86328125 C-94.41375 192.24839844 -94.7025 191.63351562 -95 191 C-101.07326546 192.9037377 -106.8501847 195.1474204 -112.625 197.81640625 C-113.43321198 198.18503281 -114.24142395 198.55365936 -115.0741272 198.93345642 C-116.81224003 199.72642562 -118.54949181 200.52128442 -120.28594971 201.31787109 C-124.9644646 203.46337845 -129.64999892 205.59342172 -134.3359375 207.72265625 C-135.29994476 208.160867 -136.26395203 208.59907776 -137.25717163 209.05056763 C-147.34015126 213.6244582 -157.47855126 218.06914611 -167.625 222.5 C-192.51190951 233.31884581 -192.51190951 233.31884581 -217 245 C-217.90680105 233.14700301 -218.13424295 221.38282064 -218.09765625 209.5 C-218.09578542 207.68440795 -218.09436467 205.86881539 -218.09336853 204.05322266 C-218.0895956 199.33189438 -218.07981157 194.61059808 -218.06866455 189.88928223 C-218.05833648 185.04858838 -218.05384678 180.20788924 -218.04882812 175.3671875 C-218.03818325 165.91144447 -218.02117168 156.45572492 -218 147 C-214.77784566 146.14676474 -211.84241672 145.81008407 -208.50390625 145.68359375 C-207.40079102 145.64161865 -206.29767578 145.59964355 -205.16113281 145.55639648 C-203.97358398 145.51716064 -202.78603516 145.4779248 -201.5625 145.4375 C-200.34014648 145.3950415 -199.11779297 145.35258301 -197.85839844 145.30883789 C-184.23869145 144.87834982 -170.62535926 144.90250458 -157 145 C-157 142.03 -157 139.06 -157 136 C-158.17280518 136.06058594 -159.34561035 136.12117187 -160.55395508 136.18359375 C-165.00260963 136.41209976 -169.45156872 136.63415606 -173.90063477 136.85449219 C-175.80794681 136.94980182 -177.71517806 137.04674569 -179.62231445 137.14550781 C-192.42763729 137.80721181 -205.17758209 138.13351856 -218 138 C-219.20994726 79.6633268 -219.20994726 79.6633268 -219 58 C-208.40409415 55.06530491 -197.80838656 52.1633122 -187.125 49.5625 C-178.57493866 47.47494364 -170.15352762 45.02442781 -161.71801758 42.51806641 C-155.28064329 40.62102982 -148.84093855 38.95051225 -142.29345703 37.48583984 C-135.78836207 36.00818934 -129.40952712 34.1476816 -123.00708008 32.28100586 C-117.03418251 30.55093643 -111.04105123 28.97328165 -105 27.5 C-96.22887433 25.35752765 -87.56349144 22.91347182 -78.890625 20.40625 C-69.94520351 17.82278464 -60.94417101 15.47337696 -51.90332031 13.24804688 C-42.18748126 10.85379994 -32.56946585 8.20431895 -22.95703125 5.42578125 C-18.43962537 4.12121953 -13.91415686 2.85172328 -9.375 1.625 C-8.20710937 1.30789062 -7.03921875 0.99078125 -5.8359375 0.6640625 C-3 0 -3 0 0 0 Z " fill="#15FD00" transform="translate(721,118)"/>
<path d="M0 0 C3.30037971 2.12958417 5.93748217 4.87345292 8.68741989 7.6501255 C9.33195531 8.29295207 9.97649073 8.93577864 10.64055753 9.59808481 C12.80258375 11.75681251 14.95737657 13.92261887 17.11228561 16.08844948 C18.65922444 17.63595234 20.20660359 19.18301516 21.75439072 20.72966957 C25.95892353 24.93362757 30.1572529 29.14373217 34.35451794 33.35494471 C38.74052115 37.75343378 43.13217275 42.14627569 47.52323532 46.53971291 C54.89387097 53.91586241 62.2610037 61.29549533 69.62546921 68.67780495 C77.21068979 76.28138538 84.79800947 83.88286106 92.38816452 91.48151588 C92.85607193 91.94994874 93.32397934 92.4183816 93.80606577 92.9010094 C96.15344799 95.25100171 98.50087383 97.60095044 100.84831572 99.95088315 C120.32055907 119.44404272 139.7856548 138.94432663 159.24607468 158.44928932 C157.59484564 162.67764367 154.46272339 165.52598304 151.31339645 168.66958046 C150.39225866 169.60068997 150.39225866 169.60068997 149.45251203 170.55060977 C147.39075735 172.63207047 145.32188729 174.70630778 143.25291061 176.78058815 C141.774304 178.27008847 140.2960877 179.75997632 138.81823349 181.25022316 C134.80057542 185.29839817 130.77617702 189.33980432 126.74958324 193.37908959 C124.23574702 195.9010062 121.7229648 198.42396858 119.21046829 200.94721985 C111.35367951 208.83672356 103.49249606 216.72181264 95.62543178 224.60107023 C86.53459087 233.70618423 77.4587746 242.82593622 68.39550757 251.95849591 C61.39370583 259.01198419 54.37860478 266.05206284 47.35324121 273.08208293 C43.15487128 277.28385885 38.96248545 281.49122772 34.78390884 285.71269608 C30.8560456 289.68016965 26.91201377 293.63080797 22.95475197 297.56895256 C21.50304582 299.01938759 20.05734528 300.47586143 18.61807823 301.93864059 C16.65666663 303.93025934 14.67504461 305.89925326 12.68668747 307.8639164 C11.83364961 308.74549273 11.83364961 308.74549273 10.96337867 309.64487869 C9.33699799 311.22528744 9.33699799 311.22528744 6.24607468 313.44928932 C1.60269721 313.35204861 -1.62723111 311.69211072 -5.63283157 309.42975807 C-6.71886673 308.81938698 -7.80490189 308.20901588 -8.9238472 307.5801487 C-10.60317337 306.61818581 -10.60317337 306.61818581 -12.31642532 305.63678932 C-14.00155228 304.69222878 -14.00155228 304.69222878 -15.7207222 303.7285862 C-20.70718892 300.90499571 -25.34353496 298.12939267 -29.75392532 294.44928932 C-29.20418045 293.78679176 -29.20418045 293.78679176 -28.64332962 293.11091042 C-21.93578214 285.01916619 -15.26561483 276.90717626 -8.79957962 268.62067604 C-5.48316804 264.37067064 -2.12806673 260.1535895 1.24607468 255.94928932 C5.54319398 250.59356934 9.79658301 245.20606648 14.02463913 239.79572487 C17.60106138 235.23464863 21.26112366 230.74569428 24.93357468 226.26178932 C29.93869551 220.1449924 34.70641421 213.92276286 39.24607468 207.44928932 C36.9139332 206.24300925 34.74965329 205.28381553 32.24607468 204.44928932 C24.14195249 214.37007482 16.12821623 224.35137738 8.24607468 234.44928932 C1.94153353 242.5261173 -4.43011884 250.5387386 -10.90871048 258.47687721 C-14.4875565 262.86929081 -18.014439 267.29813417 -21.50392532 271.76178932 C-23.2524854 273.99208909 -25.00276809 276.22102837 -26.75392532 278.44928932 C-27.1825386 278.99585182 -27.61115189 279.54241432 -28.05275345 280.10553932 C-29.27918653 281.6633902 -30.51632616 283.21279423 -31.75392532 284.76178932 C-32.45517532 285.64479713 -33.15642532 286.52780495 -33.87892532 287.43757057 C-35.75392532 289.44928932 -35.75392532 289.44928932 -38.75392532 290.44928932 C-41.20802689 289.39216042 -41.20802689 289.39216042 -44.14455032 287.72272682 C-45.2346138 287.10969704 -46.32467728 286.49666725 -47.44777298 285.86506081 C-48.63325868 285.1849807 -49.81864017 284.5047189 -51.00392532 283.82428932 C-52.22914718 283.13073084 -53.45490256 282.43811408 -54.68117142 281.74640846 C-57.79324269 279.98825255 -60.89885943 278.2190175 -64.00307083 276.44703102 C-66.59021273 274.97272269 -69.18361006 273.50958483 -71.77736282 272.04694557 C-75.5244512 269.9337846 -79.26908609 267.81639155 -83.01173782 265.69538307 C-89.08105755 262.25958401 -95.16665304 258.85315239 -101.25392532 255.44928932 C-110.21330218 250.43875678 -119.15674539 245.40099862 -128.08986282 240.34382057 C-135.1333888 236.35892163 -142.19083249 232.39938939 -149.25392532 228.44928932 C-158.21326742 223.4386943 -167.15674506 218.40099881 -176.08986282 213.34382057 C-183.1333888 209.35892163 -190.19083249 205.39938939 -197.25392532 201.44928932 C-206.20040492 196.44588777 -215.13358158 191.41983521 -224.05031204 186.36359596 C-229.2118699 183.43972577 -234.38529568 180.53916649 -239.57423782 177.66413307 C-240.70925735 177.03378151 -241.84427689 176.40342995 -243.01369095 175.75397682 C-245.20554173 174.53783675 -247.39945539 173.32540484 -249.5957222 172.11725807 C-250.58894485 171.56553932 -251.58216751 171.01382057 -252.60548782 170.44538307 C-253.48027786 169.9625486 -254.3550679 169.47971413 -255.25636673 168.98224831 C-257.94538224 167.33177632 -260.33077166 165.46586811 -262.75392532 163.44928932 C-256.45692624 162.3856721 -250.19700931 162.13139061 -243.82130814 161.8926487 C-242.04140488 161.82168732 -242.04140488 161.82168732 -240.22554398 161.74929237 C-236.98054245 161.62063737 -233.73543639 161.49518517 -230.4902544 161.37118149 C-227.06215405 161.23942925 -223.6342158 161.10358315 -220.20625687 160.96821022 C-213.69035484 160.71151834 -207.17431356 160.4585544 -200.65821528 160.20689917 C-193.34912677 159.92442173 -186.04021276 159.63755338 -178.73130655 159.35040379 C-163.61207231 158.75667058 -148.49271373 158.16617198 -133.37286758 157.58820534 C-129.66946529 157.44604726 -125.96615372 157.30165139 -122.26283646 157.15729713 C-119.85850314 157.06506401 -117.45416573 156.97293734 -115.04982376 156.88092995 C-113.96684635 156.83820206 -112.88386894 156.79547417 -111.76807404 156.75145149 C-102.76051524 156.41060022 -93.76652646 156.34325872 -84.75392532 156.44928932 C-84.75392532 151.82928932 -84.75392532 147.20928932 -84.75392532 142.44928932 C-85.81403824 142.49718102 -86.87415115 142.54507271 -87.9663887 142.59441566 C-98.13860447 143.05354304 -108.3109665 143.50930905 -118.4834671 143.96208286 C-123.70862125 144.1947525 -128.93372391 144.42846009 -134.15871048 144.66486549 C-156.2409131 145.66325031 -178.31774809 146.61686517 -200.41682816 147.14934731 C-207.87034097 147.32964421 -215.31041666 147.57929915 -222.75392532 148.01178932 C-232.42253635 148.55591241 -242.07256134 148.54198323 -251.75392532 148.44928932 C-248.29876024 145.56715287 -244.80154499 143.1850482 -240.90626907 140.93757057 C-240.34562759 140.61201683 -239.78498611 140.28646309 -239.2073555 139.95104408 C-238.00006291 139.25017248 -236.79178994 138.5509874 -235.58263016 137.85334206 C-232.3269161 135.97423117 -229.07911143 134.08158443 -225.83205032 132.18757057 C-224.8292025 131.60279442 -224.8292025 131.60279442 -223.80609512 131.00620461 C-216.7974677 126.90845132 -209.86752609 122.68450154 -202.94142532 118.44928932 C-195.05106979 113.62817032 -187.13807803 108.87900883 -179.04689407 104.40070534 C-174.35322465 101.80197536 -169.74357978 99.08093732 -165.15333939 96.30573463 C-158.6884323 92.39909777 -152.19102905 88.54785 -145.69142532 84.69928932 C-145.10622116 84.35268257 -144.521017 84.00607582 -143.91807938 83.64896584 C-135.31299109 78.55247041 -126.70357712 73.46330583 -118.09230423 68.37726784 C-107.458037 62.09530463 -96.83412165 55.79587226 -86.20949173 49.49762917 C-80.55802449 46.14752747 -74.90592802 42.79848752 -69.25392532 39.44928932 C-67.00392268 38.11596045 -64.75392268 36.78262712 -62.50392532 35.44928932 C-58.00392532 32.78262266 -53.50392532 30.11595599 -49.00392532 27.44928932 C-47.8883223 26.78783913 -46.77271927 26.12638893 -45.62331009 25.44489479 C-43.39327618 24.1240994 -41.16200989 22.80538237 -38.92946243 21.4888401 C-33.62891471 18.35964315 -28.34517698 15.21063844 -23.10161209 11.98707008 C-20.61220717 10.45839652 -18.11576677 8.94143341 -15.61867142 7.42536354 C-14.42514025 6.69618099 -13.2351215 5.96121531 -12.0488472 5.22028542 C-10.40863768 4.19632072 -8.75537611 3.19335235 -7.10158157 2.19147682 C-5.69404617 1.32305153 -5.69404617 1.32305153 -4.25807571 0.43708229 C-1.75392532 -0.55071068 -1.75392532 -0.55071068 0 0 Z " fill="#56DFFD" transform="translate(781.7539253234863,340.5507106781006)"/>
<path d="M0 0 C3.54823215 1.39025746 6.82695785 2.92774571 10.1484375 4.80078125 C11.14166016 5.35894531 12.13488281 5.91710937 13.15820312 6.4921875 C14.21974609 7.09289062 15.28128906 7.69359375 16.375 8.3125 C17.48552734 8.93769531 18.59605469 9.56289063 19.74023438 10.20703125 C23.16208957 12.13461805 26.58140134 14.06664454 30 16 C31.49321777 16.84377197 31.49321777 16.84377197 33.01660156 17.70458984 C36.78887582 19.83621398 40.56083496 21.96838951 44.33154297 24.1027832 C51.37635198 28.08889971 58.43540991 32.04906258 65.5 36 C74.45648445 41.00899686 83.39766376 46.04411735 92.32714844 51.10107422 C99.45409533 55.13429494 106.60013618 59.13257966 113.75 63.125 C124.22831257 68.9787786 134.63568449 74.94694327 145 81 C142.90983417 83.2836913 141.05188542 84.63167748 138.23242188 85.89428711 C137.47799301 86.23613541 136.72356415 86.5779837 135.9462738 86.93019104 C135.12869095 87.29225143 134.31110809 87.65431183 133.46875 88.02734375 C132.61318008 88.41264755 131.75761017 88.79795135 130.87611389 89.19493103 C128.08697314 90.44902756 125.29358766 91.69334488 122.5 92.9375 C120.58299878 93.79712443 118.66625155 94.6573155 116.74975586 95.51806641 C111.17058308 98.02122423 105.5859294 100.51196435 100 103 C98.51706445 103.66123864 97.03415229 104.32252972 95.55126953 104.98388672 C89.87239565 107.5156107 84.19048587 110.04030688 78.50390625 112.5546875 C72.98506947 114.99811194 67.48976618 117.49203943 62 120 C62.21092285 120.66153076 62.4218457 121.32306152 62.63916016 122.00463867 C63.1422526 123.58251953 63.64534505 125.16040039 64.1484375 126.73828125 C64.98831811 129.22724528 64.98831811 129.22724528 67 132 C92.62936041 120.82175223 118.17564715 109.47491964 143.62405396 97.89024353 C145.03734554 97.24740866 146.45265716 96.60899327 147.87011719 95.97540283 C149.36833708 95.28927686 150.85250005 94.57202689 152.32519531 93.83270264 C156.94799556 91.57981133 159.88234899 90.29938745 165 92 C167.61108398 93.19238281 167.61108398 93.19238281 170.24609375 94.703125 C171.23609375 95.26451172 172.22609375 95.82589844 173.24609375 96.40429688 C174.29925781 97.01337891 175.35242188 97.62246094 176.4375 98.25 C177.54351562 98.87970703 178.64953125 99.50941406 179.7890625 100.15820312 C182.08261524 101.46450825 184.37410744 102.7744375 186.66357422 104.08789062 C191.59618101 106.91477314 196.54861947 109.70618256 201.5 112.5 C203.3958522 113.57288334 205.29168537 114.64580028 207.1875 115.71875 C214.31559308 119.74767218 221.46284619 123.74223719 228.60913086 127.73876953 C239.42570424 133.79115294 250.21519877 139.89122322 261 146 C261 146.33 261 146.66 261 147 C259.02821777 147.07516846 259.02821777 147.07516846 257.01660156 147.15185547 C234.42837696 148.015219 211.84123068 148.88864315 189.26062012 149.93469238 C183.87143451 150.18419392 178.48206268 150.4296523 173.0927124 150.67556763 C169.41849074 150.84329418 165.74433265 151.01197647 162.0703125 151.18408203 C142.37562195 152.09436367 122.71054918 152.10005355 103 152 C103 156.62 103 161.24 103 166 C104.58264648 165.93958023 106.16529297 165.87916046 107.79589844 165.81690979 C122.85522175 165.24214386 137.91458885 164.66854007 152.97399902 164.09605503 C160.71250619 163.80184634 168.45099824 163.50725083 176.18945312 163.21166992 C182.9518768 162.95337094 189.7143305 162.69587373 196.47681808 162.43925327 C200.04149215 162.30395653 203.60615227 162.1683172 207.17077637 162.03170967 C227.11157402 161.26785568 247.05362771 160.59838835 267 160 C264.41052597 162.69956812 261.81166947 164.40381801 258.546875 166.2578125 C256.91733887 167.18907959 256.91733887 167.18907959 255.25488281 168.13916016 C254.68274048 168.46329895 254.11059814 168.78743774 253.52111816 169.12139893 C250.53976415 170.81077807 247.56743321 172.51591745 244.59375 174.21875 C243.71943329 174.71853867 243.71943329 174.71853867 242.82745361 175.22842407 C238.60444608 177.64481147 234.41145926 180.10434812 230.25 182.625 C224.43800245 186.14082825 218.60022691 189.61061219 212.75 193.0625 C204.43288296 197.97140161 196.12039047 202.88799733 187.8125 207.8125 C186.11432129 208.8190564 186.11432129 208.8190564 184.38183594 209.84594727 C182.07304855 211.21446615 179.76429921 212.5830492 177.45556641 213.95166016 C171.80409916 217.30176185 166.1520027 220.6508018 160.5 224 C158.24999736 225.33332887 155.99999736 226.66666221 153.75 228 C149.25 230.66666667 144.75 233.33333333 140.25 236 C139.13584717 236.6602417 138.02169434 237.3204834 136.8737793 238.00073242 C134.62785889 239.3316422 132.38192793 240.66253418 130.13598633 241.9934082 C125.02685567 245.02094512 119.91780526 248.04861703 114.80917358 251.07699585 C102.98924603 258.08379219 91.16666387 265.08600739 79.33544922 272.07373047 C69.30678617 277.99802662 59.28736029 283.93789682 49.26786804 289.87768555 C45.05681721 292.3739558 40.8449457 294.86883788 36.6328125 297.36328125 C34.81829601 298.4379977 33.00379505 299.51274034 31.18930054 300.5874939 C29.49520688 301.59082303 27.80095102 302.59387826 26.10668945 303.59692383 C25.05956787 304.21720459 24.01244629 304.83748535 22.93359375 305.4765625 C21.93440918 306.0634082 20.93522461 306.65025391 19.90576172 307.25488281 C17.9634492 308.42138003 16.04266509 309.62446987 14.14501953 310.86230469 C12.82219971 311.71550293 12.82219971 311.71550293 11.47265625 312.5859375 C10.7031665 313.09946777 9.93367676 313.61299805 9.14086914 314.14208984 C7 315 7 315 5.26877975 314.44117165 C1.9461111 312.33054991 -0.68629137 309.58100226 -3.44134521 306.79916382 C-4.08588063 306.15633725 -4.73041605 305.51351068 -5.39448285 304.85120451 C-7.55650907 302.69247682 -9.71130189 300.52667045 -11.86621094 298.36083984 C-13.41314977 296.81333698 -14.96052891 295.26627416 -16.50831604 293.71961975 C-20.71284885 289.51566176 -24.91117822 285.30555716 -29.10844326 281.09434462 C-33.49444647 276.69585554 -37.88609808 272.30301363 -42.27716064 267.90957642 C-49.64779629 260.53342691 -57.01492902 253.15379399 -64.37939453 245.77148438 C-71.96461512 238.16790394 -79.55193479 230.56642827 -87.14208984 222.96777344 C-87.60999726 222.49934058 -88.07790467 222.03090772 -88.55999109 221.54827993 C-90.90737331 219.19828762 -93.25479915 216.84833888 -95.60224104 214.49840617 C-115.0744844 195.0052466 -134.53958012 175.50496269 -154 156 C-152.34828196 151.74238754 -149.16802712 148.89589215 -145.98898315 145.74847412 C-145.36657435 145.12435646 -144.74416554 144.5002388 -144.10289586 143.85720849 C-142.01326453 141.76427936 -139.91655845 139.67858492 -137.81982422 137.59277344 C-136.3215818 136.09509507 -134.82377946 134.59697636 -133.3263855 133.09844971 C-129.25672032 129.02820978 -125.18091 124.96417371 -121.10399008 120.9012022 C-116.84563664 116.65533563 -112.5929313 112.40381967 -108.33963013 108.15289307 C-100.28302218 100.10250589 -92.2213287 92.05723134 -84.15780747 84.01376939 C-74.97866661 74.85696891 -65.80519162 65.69450129 -56.63219428 56.53154707 C-37.76110544 37.68137377 -18.88289259 18.83834853 0 0 Z " fill="#FD8D01" transform="translate(213,345)"/>
<path d="M0 0 C15.58669084 3.39956631 31.03080468 7.35253524 46.34472656 11.81933594 C52.19985185 13.51663448 58.07802201 15.05434067 64 16.5 C70.79938 18.15984865 77.53112621 19.97730205 84.25 21.9375 C92.89499513 24.45855173 101.59373137 26.67525675 110.33886719 28.82006836 C116.78224631 30.41216422 123.14113815 32.17276188 129.48925781 34.10571289 C135.60978802 35.94318914 141.79454722 37.47761619 148 39 C154.88301648 40.68861052 161.71977481 42.43543893 168.5 44.5 C176.3862421 46.89999111 184.35964267 48.89654866 192.36523438 50.85742188 C193.32494141 51.09267578 194.28464844 51.32792969 195.2734375 51.5703125 C196.11310059 51.77414551 196.95276367 51.97797852 197.81787109 52.18798828 C202.56104767 53.39834621 207.27731698 54.71199554 212 56 C212 83.39 212 110.78 212 139 C208.57235897 139.85691026 205.83556137 140.19484513 202.34204102 140.34130859 C201.18663818 140.39171799 200.03123535 140.44212738 198.84082031 140.49406433 C197.57463867 140.54500748 196.30845703 140.59595062 195.00390625 140.6484375 C193.64996962 140.70578879 192.2960474 140.76348108 190.94213867 140.82148743 C187.25359221 140.97836178 183.56484243 141.12986012 179.87602615 141.28023911 C176.7842978 141.40687478 173.69269579 141.536458 170.60108852 141.66601086 C159.73447969 142.12109949 148.867327 142.56243743 138 143 C136.68077545 143.05314739 136.68077545 143.05314739 135.3348999 143.10736847 C122.93170535 143.60674525 110.52827283 144.09991189 98.1245842 144.58686066 C95.56539807 144.68738616 93.00622481 144.7882351 90.447052 144.88909912 C86.40669415 145.04812053 82.36627632 145.20552604 78.32580566 145.36165428 C76.84018232 145.41923056 75.35457581 145.47724327 73.86898804 145.53573036 C71.83010876 145.6158668 69.7911543 145.69408369 67.75219727 145.7722168 C66.61097916 145.81646286 65.46976105 145.86070892 64.29396057 145.90629578 C60.86086505 146.00395801 57.43429523 146.01588446 54 146 C54 148.64 54 151.28 54 154 C54.68108826 153.96685699 55.36217651 153.93371399 56.06390381 153.89956665 C97.03463027 151.91098852 137.99879291 150.24013605 179 149 C180.96435619 148.94012784 182.92871169 148.88023308 184.89306641 148.8203125 C194.26173119 148.53550915 203.63059493 148.25944098 213 148 C213.92909347 171.93651178 214.09019329 195.86126517 214.0625 219.8125 C214.06164398 220.55808544 214.06078796 221.30367088 214.05990601 222.07184982 C214.04843138 231.38125679 214.02823486 240.69062774 214 250 C209.91844352 251.89967508 205.8344298 253.79401162 201.75 255.6875 C200.04070312 256.48317383 200.04070312 256.48317383 198.296875 257.29492188 C194.87227771 258.88074392 191.43790971 260.44327582 188 262 C186.90236328 262.50998535 185.80472656 263.0199707 184.67382812 263.54541016 C183.63162109 264.01124512 182.58941406 264.47708008 181.515625 264.95703125 C180.59555664 265.37573486 179.67548828 265.79443848 178.72753906 266.22583008 C175.46416421 267.15208873 173.29764738 266.62049173 170 266 C166.78287055 267.35814007 166.78287055 267.35814007 164 269 C163.34 269 162.68 269 162 269 C162.33 270.32 162.66 271.64 163 273 C148.01605236 279.70298715 133.01820517 286.37409845 118 293 C116.8543457 293.5059671 116.8543457 293.5059671 115.68554688 294.02215576 C111.63365846 295.80939891 107.57215115 297.57174829 103.5 299.3125 C102.57316406 299.71968262 101.64632812 300.12686523 100.69140625 300.54638672 C99.85480469 300.89846191 99.01820313 301.25053711 98.15625 301.61328125 C97.46337891 301.91016846 96.77050781 302.20705566 96.05664062 302.51293945 C91.44812111 303.60434454 87.85567337 301.57797277 83.921875 299.33203125 C82.93880371 298.77572021 81.95573242 298.21940918 80.94287109 297.64624023 C79.88922363 297.04110596 78.83557617 296.43597168 77.75 295.8125 C75.48709247 294.52844614 73.22406839 293.24459766 70.9609375 291.9609375 C69.79257971 291.29535888 68.62428549 290.62966866 67.45605469 289.96386719 C62.11145381 286.92685324 56.74239691 283.933973 51.375 280.9375 C42.4573026 275.94750536 33.55635284 270.92852751 24.66357422 265.89428711 C17.62024036 261.90941754 10.56293416 257.95001133 3.5 254 C-5.44449317 248.99770938 -14.3826666 243.98459769 -23.28759766 238.91210938 C-27.89431309 236.29340388 -32.51456069 233.70956998 -37.18414307 231.20422363 C-38.94390279 230.25914845 -40.69951653 229.30636655 -42.45507812 228.35351562 C-44.69362888 227.14027481 -46.93953156 225.9404787 -49.19335938 224.75585938 C-50.7025293 223.93311523 -50.7025293 223.93311523 -52.2421875 223.09375 C-53.1379248 222.61615234 -54.03366211 222.13855469 -54.95654297 221.64648438 C-57 220 -57 220 -57.83276367 217.4621582 C-58.0366287 214.46072932 -57.43873921 212.52630763 -56.4375 209.6875 C-54.32641147 203.27415863 -52.66113255 196.80895221 -51.0625 190.25 C-49.35420772 183.28361297 -47.59117456 176.36169296 -45.5 169.5 C-43.43514401 162.71987585 -41.68860529 155.88299519 -40 149 C-38.14508483 141.43910214 -36.16216649 133.95834029 -33.89453125 126.51171875 C-32.05709254 120.39082418 -30.52246517 114.20578441 -29 108 C-27.31138919 101.11698235 -25.56452657 94.28023478 -23.5 87.5 C-21.46176558 80.80142324 -19.73022906 74.04986436 -18.0625 67.25 C-15.97960557 58.75819965 -13.71080365 50.35011667 -11.25683594 41.95874023 C-8.99124787 34.13830437 -7.01243306 26.25531369 -5.09179688 18.34375 C-3.58302142 12.16495529 -1.89120053 6.07288266 0 0 Z " fill="#FEF000" transform="translate(279,118)"/>
<path d="M0 0 C6.65191398 13.20021559 13.25376645 26.41668055 19.59814453 39.76806641 C23.91475732 48.84719074 28.29800466 57.89345808 32.6875 66.9375 C33.05187164 67.68838898 33.41624329 68.43927795 33.79165649 69.21292114 C35.86027242 73.47568504 37.929745 77.73803191 40 82 C39.01 82.495 39.01 82.495 38 83 C35.84301758 82.03466797 35.84301758 82.03466797 33.14453125 80.4921875 C32.14164062 79.92435547 31.13875 79.35652344 30.10546875 78.77148438 C29.01878906 78.14564453 27.93210937 77.51980469 26.8125 76.875 C25.0995422 75.90163923 23.38658216 74.92828235 21.6734314 73.95526123 C19.91430558 72.95440843 18.15731322 71.94990366 16.40087891 70.94433594 C11.44453464 68.110716 6.47181353 65.30635314 1.5 62.5 C-0.39583372 61.42708401 -2.29166705 60.35416734 -4.1875 59.28125 C-10.28186208 55.83661057 -16.39026534 52.4172772 -22.5 49 C-26.66705076 46.66735214 -30.83356407 44.3337458 -35 42 C-36.08104004 41.39494629 -37.16208008 40.78989258 -38.27587891 40.16650391 C-41.45646363 38.38486431 -44.63476608 36.59921825 -47.8125 34.8125 C-48.77929688 34.27173828 -49.74609375 33.73097656 -50.7421875 33.17382812 C-51.63808594 32.66916016 -52.53398437 32.16449219 -53.45703125 31.64453125 C-54.24053955 31.20471924 -55.02404785 30.76490723 -55.83129883 30.31176758 C-58.00307974 28.99813718 -59.99764511 27.55738714 -62 26 C-56.7820116 23.32707945 -51.55850955 20.92120101 -46.1171875 18.74609375 C-40.03314848 16.2773907 -34.00253764 13.71348511 -28.0078125 11.03515625 C-27.27415466 10.70792572 -26.54049683 10.38069519 -25.78460693 10.04354858 C-22.79419094 8.7078053 -19.80528229 7.36879267 -16.81884766 6.02416992 C-14.59231181 5.02296167 -12.36282539 4.02859061 -10.1328125 3.03515625 C-9.45791779 2.72900894 -8.78302307 2.42286163 -8.087677 2.10743713 C-5.20684871 0.82859163 -3.19028724 0 0 0 Z " fill="#FBED01" transform="translate(449,404)"/>
<path d="M0 0 C1.38671875 2.72265625 1.38671875 2.72265625 2.6875 6.0625 C3.12449219 7.16722656 3.56148437 8.27195312 4.01171875 9.41015625 C4.33785156 10.26480469 4.66398438 11.11945313 5 12 C-35.94277487 30.45429702 -35.94277487 30.45429702 -51.21459961 37.21508789 C-57.62114797 40.05134814 -64.02035294 42.90309737 -70.41334534 45.76977539 C-74.53288022 47.61624648 -78.65425757 49.45858494 -82.77578735 51.30059814 C-84.83061371 52.22013572 -86.88464041 53.14146245 -88.93783569 54.06463623 C-91.82886736 55.36421516 -94.7226997 56.65735957 -97.6171875 57.94921875 C-98.4899382 58.34341507 -99.3626889 58.73761139 -100.2618866 59.14375305 C-101.07635757 59.50583359 -101.89082855 59.86791412 -102.72998047 60.2409668 C-103.43686005 60.55784958 -104.14373962 60.87473236 -104.87203979 61.20121765 C-107 62 -107 62 -109.70437622 62.48493958 C-110.84070999 62.73989449 -110.84070999 62.73989449 -112 63 C-112.495 63.99 -112.495 63.99 -113 65 C-113.86846831 63.25705322 -114.71930627 61.50531337 -115.5625 59.75 C-116.03816406 58.77546875 -116.51382812 57.8009375 -117.00390625 56.796875 C-118.08246012 53.76846491 -118.22259071 52.89483705 -117 50 C-115.15039062 48.72998047 -115.15039062 48.72998047 -112.65625 47.6171875 C-111.69912109 47.18204834 -110.74199219 46.74690918 -109.75585938 46.29858398 C-108.68142578 45.82880127 -107.60699219 45.35901855 -106.5 44.875 C-105.35853516 44.36203369 -104.21707031 43.84906738 -103.04101562 43.32055664 C-99.03724584 41.52437093 -95.01893054 39.76193712 -91 38 C-89.4751941 37.32974069 -87.95045633 36.65932638 -86.42578125 35.98876953 C-79.71868456 33.04048148 -73.0097415 30.09647016 -66.29589844 27.16357422 C-51.23489459 20.57831994 -36.25335214 13.82340634 -21.29101562 7.01733398 C-20.43610535 6.62879745 -19.58119507 6.24026093 -18.70037842 5.83995056 C-17.107457 5.1157081 -15.51501483 4.39041025 -13.92315674 3.66383362 C-11.95244318 2.76741538 -9.97687042 1.88272708 -8 1 C-7.06704102 0.57267578 -6.13408203 0.14535156 -5.17285156 -0.29492188 C-3 -1 -3 -1 0 0 Z " fill="#000400" transform="translate(627,309)"/>
<path d="M0 0 C0.87720703 0.00451172 1.75441406 0.00902344 2.65820312 0.01367188 C4.75133411 0.02510975 6.84442841 0.0430195 8.9375 0.0625 C8.9375 4.6825 8.9375 9.3025 8.9375 14.0625 C-88.0608508 18.56160322 -88.0608508 18.56160322 -118.0625 18.0625 C-118.0625 13.4425 -118.0625 8.8225 -118.0625 4.0625 C-116.97272354 4.02713638 -115.88294708 3.99177277 -114.76014709 3.95533752 C-104.41991414 3.61950078 -94.07976086 3.28129705 -83.73967838 2.94085789 C-78.42552914 2.76596759 -73.11135651 2.59187125 -67.79711914 2.41967773 C-62.65527882 2.25303957 -57.5135148 2.08420048 -52.37179375 1.91392326 C-50.42373586 1.8497801 -48.47565299 1.78639036 -46.52754402 1.72381783 C-35.87993386 1.38129023 -25.25157801 0.95040352 -14.62011719 0.26428223 C-9.74237518 -0.01237532 -4.88375665 -0.05042799 0 0 Z " fill="#030200" transform="translate(434.0625,492.9375)"/>
<path d="M0 0 C0 4.62 0 9.24 0 14 C-23.22146942 15.07708829 -46.44545507 16.09704661 -69.67474365 16.99127197 C-71.93250482 17.07878024 -74.19019949 17.16802591 -76.44781494 17.25921631 C-92.9726853 17.9237055 -109.46230903 18.10181516 -126 18 C-126 13.71 -126 9.42 -126 5 C-119.94643102 3.98254469 -113.96200844 3.72754432 -107.83203125 3.53515625 C-106.73987305 3.49755692 -105.64771484 3.45995758 -104.52246094 3.42121887 C-102.17417544 3.34053433 -99.82583493 3.26143827 -97.47744751 3.18377686 C-91.26593346 2.97823151 -85.05481823 2.76152711 -78.84375 2.54296875 C-77.59068558 2.49895935 -76.33762115 2.45494995 -75.04658508 2.40960693 C-67.12248175 2.12612271 -59.20156307 1.80027026 -51.28125 1.42578125 C-50.29694504 1.37931961 -49.31264008 1.33285797 -48.29850769 1.2849884 C-43.7367558 1.067564 -39.17547856 0.84270855 -34.61450195 0.60961914 C-23.06797373 0.03723266 -11.55995543 -0.09667182 0 0 Z " fill="#000202" transform="translate(697,483)"/>
<path d="M0 0 C3 1 3 1 4.203125 2.890625 C4.54859375 3.66921875 4.8940625 4.4478125 5.25 5.25 C5.78367187 6.40242188 5.78367187 6.40242188 6.328125 7.578125 C7.15128078 10.54531445 6.87618123 12.05552424 6 15 C4.36108398 17.10888672 4.36108398 17.10888672 2.24609375 19.1796875 C1.47330078 19.94410156 0.70050781 20.70851563 -0.09570312 21.49609375 C-1.31676758 22.67365234 -1.31676758 22.67365234 -2.5625 23.875 C-3.74295898 25.04095703 -3.74295898 25.04095703 -4.94726562 26.23046875 C-9.26988388 30.47112475 -13.68731395 34.5602621 -18.28881836 38.49658203 C-19.9295794 39.93812954 -21.47413372 41.43820005 -23 43 C-19.49976144 42.85957505 -15.99987601 42.71166774 -12.5 42.5625 C-11.51773438 42.52318359 -10.53546875 42.48386719 -9.5234375 42.44335938 C-5.22911464 42.25727205 -0.97983221 42.04817081 3.28125 41.46875 C6.90239249 41.01230347 10.35365947 40.89951729 14 40.9375 C15.134375 40.94652344 16.26875 40.95554687 17.4375 40.96484375 C18.283125 40.97644531 19.12875 40.98804688 20 41 C21.00484204 42.95585325 22.00373805 44.91476237 23 46.875 C23.556875 47.96554687 24.11375 49.05609375 24.6875 50.1796875 C26 53 26 53 26 55 C19.33313937 55.28994711 12.66604798 55.57408635 5.9987793 55.85449219 C3.73830779 55.95021091 1.47788886 56.0471811 -0.7824707 56.14550781 C-13.86275351 56.71358568 -26.90648568 57.16322968 -40 57 C-44.08127515 48.59009968 -44.08127515 48.59009968 -43.73233032 46.05657959 C-42.87809426 43.65765606 -41.87132794 42.51446503 -40.06005859 40.73535156 C-39.13306656 39.81354095 -39.13306656 39.81354095 -38.18734741 38.87310791 C-37.17808701 37.89177887 -37.17808701 37.89177887 -36.1484375 36.890625 C-35.45618073 36.20498474 -34.76392395 35.51934448 -34.0506897 34.81292725 C-31.83243576 32.61808241 -29.60431584 30.43360356 -27.375 28.25 C-25.16879015 26.07905472 -22.96479298 23.90593149 -20.76358032 21.72991943 C-19.39444185 20.37751271 -18.02221896 19.02821849 -16.64633179 17.68267822 C-12.74599266 13.84209952 -9.06274645 9.88219491 -5.50039673 5.7255249 C-3.75706763 3.72061665 -1.91633009 1.83967689 0 0 Z " fill="#040200" transform="translate(257,448)"/>
<path d="M0 0 C3.4471077 0.68942154 6.36559381 1.38251478 9.6315918 2.51879883 C10.51989182 2.82614456 11.40819183 3.1334903 12.32341003 3.45014954 C13.27242691 3.7824205 14.22144379 4.11469147 15.19921875 4.45703125 C16.68455864 4.97338387 16.68455864 4.97338387 18.1999054 5.50016785 C20.29422352 6.22907546 22.3879765 6.95960861 24.48120117 7.69165039 C27.65723488 8.80192 30.8352876 9.9062456 34.01367188 11.00976562 C36.05481156 11.72099824 38.09583105 12.4325759 40.13671875 13.14453125 C41.07561447 13.47072952 42.01451019 13.7969278 42.9818573 14.13301086 C49.05858044 16.26242441 55.03602374 18.57215385 61 21 C61 25.29 61 29.58 61 34 C59.14761719 34.79921875 57.29523437 35.5984375 55.38671875 36.421875 C52.82002675 37.53058937 50.25376214 38.64029109 47.6875 39.75 C47.02004761 40.03845795 46.35259521 40.32691589 45.66491699 40.62411499 C38.11453017 43.88888166 30.57469507 47.17454814 23.06640625 50.53515625 C22.44364304 50.8136441 21.82087982 51.09213196 21.179245 51.37905884 C18.20256413 52.71118786 15.22826608 54.04833584 12.2565918 55.39160156 C11.19738525 55.86694336 10.13817871 56.34228516 9.046875 56.83203125 C8.11713867 57.25202393 7.18740234 57.6720166 6.22949219 58.10473633 C4 59 4 59 2 59 C2 54.05 2 49.1 2 44 C10.30535371 40.15323584 18.70103547 36.6141102 27.1875 33.1875 C28.43823672 32.68054987 29.68888825 32.17338952 30.93945312 31.66601562 C33.95880909 30.4419524 36.97899643 29.21998989 40 28 C32.84166222 25.1695752 25.74018449 22.46553363 18.3125 20.4375 C12.02114003 18.65791753 6.01925768 16.57968186 0 14 C0 9.38 0 4.76 0 0 Z " fill="#010405" transform="translate(702,459)"/>
<path d="M0 0 C0.90100611 10.32922955 1.13451159 20.53950073 1.09765625 30.8984375 C1.09578535 32.47026524 1.09436463 34.04209358 1.09336853 35.61392212 C1.0895962 39.7007007 1.07981274 43.78744232 1.06866455 47.87420654 C1.05833515 52.06457011 1.05384651 56.2549398 1.04882812 60.4453125 C1.03818432 68.63022508 1.02117354 76.81510791 1 85 C-1.08525674 82.34669766 -2.74093908 79.74859885 -4.21728516 76.71655273 C-4.62846588 75.87724716 -5.03964661 75.03794159 -5.46328735 74.17320251 C-5.90079315 73.26913162 -6.33829895 72.36506073 -6.7890625 71.43359375 C-7.25178558 70.48549332 -7.71450867 69.53739288 -8.19125366 68.56056213 C-9.67311942 65.5214475 -11.14900834 62.47947104 -12.625 59.4375 C-13.59468882 57.44839058 -14.56473748 55.45945653 -15.53515625 53.47070312 C-17.91079551 48.59823901 -20.26928073 43.71767438 -22.62414551 38.83514404 C-23.98603263 36.02878174 -25.36748806 33.23278417 -26.75292969 30.43798828 C-27.59337886 28.72051455 -28.43356212 27.00291065 -29.2734375 25.28515625 C-29.66721588 24.50289169 -30.06099426 23.72062714 -30.46670532 22.91465759 C-30.8171994 22.19137772 -31.16769348 21.46809784 -31.52880859 20.72290039 C-31.8386972 20.0970253 -32.14858582 19.47115021 -32.46786499 18.8263092 C-33.14854025 16.49020375 -32.91369903 15.2412945 -32 13 C-29.27197266 11.35253906 -29.27197266 11.35253906 -25.6640625 9.765625 C-25.02890717 9.48273621 -24.39375183 9.19984741 -23.73934937 8.90838623 C-22.39570031 8.31331132 -21.048877 7.72536006 -19.69921875 7.14404297 C-17.63336386 6.25360504 -15.57804208 5.34183758 -13.5234375 4.42578125 C-3.47418202 0 -3.47418202 0 0 0 Z " fill="#F9EB03" transform="translate(493,384)"/>
<path d="M0 0 C7.49203219 6.27239904 14.58986807 12.97673784 21.74804688 19.62304688 C23.45605235 21.20809132 25.16527033 22.79181568 26.875 24.375 C27.41680908 24.87773437 27.95861816 25.38046875 28.5168457 25.8984375 C31.38865353 28.55247581 34.30221285 31.12955069 37.3125 33.625 C38.199375 34.40875 39.08625 35.1925 40 36 C40 36.66 40 37.32 40 38 C36.37 39.65 32.74 41.3 29 43 C27.78183594 41.77023437 26.56367188 40.54046875 25.30859375 39.2734375 C23.6850313 37.6404903 22.06132579 36.00768533 20.4375 34.375 C19.63763672 33.56675781 18.83777344 32.75851562 18.01367188 31.92578125 C13.50079493 27.3944844 8.92257541 23.08342497 4 19 C4.14529878 20.91670726 4.29127769 22.83336297 4.4375 24.75 C4.57285156 26.53083984 4.57285156 26.53083984 4.7109375 28.34765625 C4.9707425 31.63032752 5.26399308 34.90818822 5.5625 38.1875 C6.012671 43.46997536 6.10550426 48.70134139 6 54 C4.54462432 54.83848804 3.08559627 55.67063934 1.625 56.5 C0.81289063 56.9640625 0.00078125 57.428125 -0.8359375 57.90625 C-3 59 -3 59 -5 59 C-5.43407543 53.41782075 -5.86099474 47.8351531 -6.28173828 42.25195312 C-6.42535547 40.3589051 -6.57081299 38.46599563 -6.71826172 36.57324219 C-7.56468227 25.6906923 -8.24924188 14.92279441 -8 4 C-5.36 2.68 -2.72 1.36 0 0 Z " fill="#040400" transform="translate(425,332)"/>
<path d="M0 0 C7.1759736 1.4217956 13.87454366 3.58289994 20.75 6.0625 C22.76452306 6.78562931 24.7801141 7.50579183 26.796875 8.22265625 C27.67698242 8.53984619 28.55708984 8.85703613 29.46386719 9.18383789 C31.96273712 9.9880083 34.41796534 10.53825986 37 11 C37 13.64 37 16.28 37 19 C28.70526371 23.33556805 20.29220759 27.25563219 11.6875 30.9375 C10.28141479 31.5396936 10.28141479 31.5396936 8.84692383 32.15405273 C2.13875211 35 2.13875211 35 1 35 C1 32.03 1 29.06 1 26 C18.33333333 17 18.33333333 17 24 17 C24 16.34 24 15.68 24 15 C23.01773438 14.8865625 22.03546875 14.773125 21.0234375 14.65625 C16.74104778 14.04355545 12.73409606 12.82429431 8.625 11.5 C7.90183594 11.27441406 7.17867187 11.04882812 6.43359375 10.81640625 C1.13699777 9.13699777 1.13699777 9.13699777 0 8 C-0.14115161 5.32941149 -0.04247107 2.67567762 0 0 Z " fill="#000800" transform="translate(568,240)"/>
<path d="M0 0 C5.875 3.625 5.875 3.625 7 7 C6.47094727 9.17651367 6.47094727 9.17651367 5.56640625 11.66796875 C5.24736328 12.56064453 4.92832031 13.45332031 4.59960938 14.37304688 C4.25736328 15.30181641 3.91511719 16.23058594 3.5625 17.1875 C3.22412109 18.12787109 2.88574219 19.06824219 2.53710938 20.03710938 C1.69951191 22.36114742 0.85354717 24.68178235 0 27 C0.33 27.33 0.66 27.66 1 28 C1.77863403 27.49231079 1.77863403 27.49231079 2.57299805 26.97436523 C4.9348842 25.44658188 7.31072104 23.94199925 9.6875 22.4375 C10.50412109 21.90447266 11.32074219 21.37144531 12.16210938 20.82226562 C12.95810547 20.32275391 13.75410156 19.82324219 14.57421875 19.30859375 C15.30213623 18.84251709 16.03005371 18.37644043 16.7800293 17.89624023 C19.60487195 16.75580282 21.12894094 17.0979757 24 18 C25.8125 19.4375 25.8125 19.4375 27 21 C27 21.66 27 22.32 27 23 C26.34515625 23.36762451 25.6903125 23.73524902 25.015625 24.11401367 C22.00930716 25.80320974 19.0046464 27.4953328 16 29.1875 C14.97003906 29.76564453 13.94007813 30.34378906 12.87890625 30.93945312 C8.31774904 33.5105513 3.81008013 36.09090425 -0.5703125 38.9609375 C-4 41 -4 41 -6.875 40.4375 C-9 39 -9 39 -11 37 C-10.58637809 29.06597966 -7.28978421 20.95723505 -4.9375 13.4375 C-4.57333984 12.25091797 -4.20917969 11.06433594 -3.83398438 9.84179688 C-1.13446065 1.13446065 -1.13446065 1.13446065 0 0 Z " fill="#050108" transform="translate(660,717)"/>
</svg>
