<?xml version="1.0" encoding="UTF-8"?>
<svg version="1.1" xmlns="http://www.w3.org/2000/svg" width="1000" height="1000">
<path d="M0 0 C330 0 660 0 1000 0 C1000 330 1000 660 1000 1000 C670 1000 340 1000 0 1000 C0 670 0 340 0 0 Z " fill="#FEFEFE" transform="translate(0,0)"/>
<path d="M0 0 C1.55843377 0.41946633 3.11694862 0.83863152 4.67553711 1.25752258 C8.03639723 2.1614307 11.39671674 3.06731219 14.75662231 3.97476196 C20.13956936 5.42857104 25.52365501 6.87812995 30.90795898 8.3269043 C36.65824447 9.87430595 42.40847533 11.42190792 48.15834045 12.97087097 C62.88220995 16.93693085 77.6100916 20.88787966 92.33984375 24.83203125 C94.50935437 25.41303235 96.67886426 25.99403617 98.84837341 26.57504272 C107.30693225 28.84017269 115.76556892 31.10501166 124.22439575 33.36914062 C129.17323431 34.69381657 134.12182153 36.01942854 139.07031059 37.34540939 C141.89943394 38.10308665 144.72888547 38.8595289 147.55836487 39.61587524 C156.18831756 41.92551919 164.80965194 44.26058828 173.41357422 46.66552734 C174.95529103 47.09438826 176.49703327 47.52315776 178.0388031 47.951828 C180.8495842 48.73357451 183.65679054 49.52665661 186.46229553 50.32710266 C187.6928215 50.66992783 188.92334747 51.01275299 190.19116211 51.3659668 C191.24782578 51.66544724 192.30448944 51.96492767 193.39317322 52.27348328 C199.62471477 53.54425773 204.7984839 52.7905617 210.8840332 51.14404297 C211.59390821 50.95457627 212.30378323 50.76510958 213.0351696 50.56990147 C215.3955497 49.93768294 217.75235813 49.29307147 220.109375 48.6484375 C221.80238877 48.19234648 223.49561651 47.73704913 225.18904114 47.28248596 C229.77401636 46.04948923 234.35605035 44.80587061 238.93766022 43.56043625 C243.76578085 42.25005927 248.59661131 40.94975363 253.42724609 39.64868164 C261.45709242 37.48489316 269.48553732 35.31597819 277.51318359 33.14404297 C288.87432333 30.07098907 300.24082103 27.01815242 311.609375 23.97265625 C313.39008721 23.49549354 315.17079807 23.0183258 316.95150757 22.54115295 C323.89182155 20.68156789 330.83233192 18.82271652 337.77294922 16.96426392 C342.79158475 15.62031321 347.80997094 14.27543482 352.828125 12.9296875 C353.63030079 12.71458464 354.43247658 12.49948177 355.25896072 12.27786064 C365.53582506 9.52091454 375.80448789 6.73578235 386.06439209 3.91638756 C390.35167953 2.73929297 394.64075917 1.56873158 398.92938232 0.39651489 C402.20343349 -0.50237818 405.47404131 -1.41306405 408.74462891 -2.32446289 C410.66813545 -2.85100371 412.59179035 -3.37700302 414.515625 -3.90234375 C415.79200081 -4.26451492 415.79200081 -4.26451492 417.09416199 -4.63400269 C424.84386256 -6.72465218 424.84386256 -6.72465218 428.49609375 -5.09375 C431.6395269 -0.82167177 432.76372249 3.80775684 434.07714844 8.85668945 C434.31710761 9.75359466 434.55706678 10.65049986 434.80429745 11.57458401 C435.59954368 14.55432963 436.38372303 17.53687323 437.16796875 20.51953125 C437.72805024 22.62642573 438.28883997 24.73313205 438.85029602 26.83966064 C440.34865491 32.46882953 441.83765513 38.10043373 443.3247261 43.73259354 C444.85643741 49.52809253 446.39607585 55.32148364 447.93530273 61.11499023 C449.76523164 68.00426824 451.59451451 74.89371328 453.41990662 81.78419495 C456.76556963 94.4112254 460.13318382 107.03181729 463.546875 119.640625 C463.90754264 120.97473001 464.26815006 122.3088513 464.62869263 123.64299011 C466.54691771 130.73853238 466.54691771 130.73853238 468.47570801 137.83120728 C473.80861752 157.39241546 473.80861752 157.39241546 475.13452148 166.55493164 C475.6523144 169.92215887 476.52930163 173.07705008 477.49609375 176.34375 C477.82609375 177.47683594 478.15609375 178.60992187 478.49609375 179.77734375 C479.43646852 182.85166216 479.43646852 182.85166216 480.5625 185.5546875 C481.43523729 187.75296301 481.97760919 189.77908552 482.43359375 192.09375 C483.30556974 196.19676878 484.40141395 200.17353535 485.66796875 204.171875 C486.25903281 206.1235016 486.78324746 208.09588678 487.26171875 210.078125 C489.5078061 218.77660875 493.17461268 223.66002466 499.49609375 229.90625 C500.69621229 231.27025027 501.88468046 232.64463223 503.05859375 234.03125 C505.4110297 236.74142966 507.86143085 239.27914601 510.43359375 241.78125 C513.34933576 244.63009162 515.80864904 247.57868431 518.24609375 250.84375 C522.21404375 255.9759488 526.76308131 259.34693854 532.0546875 262.99609375 C534.49609375 264.90625 534.49609375 264.90625 535.49609375 267.90625 C536.82268796 268.58622797 538.15751251 269.25018409 539.49609375 269.90625 C541.15604406 271.37730944 542.76354461 272.90822143 544.33622742 274.472229 C545.0447084 275.17285497 545.0447084 275.17285497 545.76750213 275.88763499 C547.34677601 277.45192309 548.91883505 279.02326307 550.4909668 280.59472656 C551.62253355 281.71867102 552.75450167 282.84221152 553.88684082 283.96537781 C556.95975728 287.01635271 560.0260788 290.07387263 563.09058356 293.13329411 C565.00524506 295.04431245 566.92119833 296.95402594 568.83759499 298.86330414 C575.52253684 305.52375528 582.20174161 312.18990462 588.8762207 318.86083984 C595.09922988 325.08021131 601.33525377 331.28632177 607.57733315 337.48654771 C612.93572196 342.81026277 618.2844678 348.14353903 623.62589675 353.48426986 C626.8164111 356.67399058 630.01079261 359.8595931 633.21509361 363.03546906 C636.2278067 366.02205094 639.22836508 369.02032739 642.21999359 372.02802467 C643.31980488 373.12965421 644.42390248 374.22702361 645.5325489 375.31976128 C647.0458453 376.81265739 648.54290365 378.32017233 650.03691101 379.83233643 C650.87884349 380.67225758 651.72077597 381.51217873 652.58822155 382.37755203 C654.82593796 385.34342623 655.41351648 387.20448806 655.49609375 390.90625 C654.58695126 392.75056648 654.58695126 392.75056648 652.99095154 394.40725708 C652.33537703 395.09073338 651.67980251 395.77420967 651.00436211 396.47839737 C645.98073272 401.34096791 640.89472319 406.12956518 635.75933838 410.87396622 C631.90577461 414.4363464 628.06674585 418.01429332 624.22901917 421.59371948 C623.41099575 422.35668138 622.59297234 423.11964328 621.75016034 423.90572524 C610.17682506 434.72120696 598.76990767 445.71195687 587.36274052 456.70213127 C578.13647825 465.58162934 568.859379 474.39063591 559.42700195 483.05126953 C510.82484571 527.75530448 479.81186494 564.77531838 469.2300806 631.13118839 C466.28017316 649.55145745 461.3351469 667.34355127 456.27265739 685.2781601 C454.14111517 692.84975709 452.11760565 700.4506784 450.08604634 708.04957902 C449.22816435 711.25559538 448.36602624 714.46046245 447.50378746 717.66530937 C445.18936044 726.27419494 442.91719124 734.89371169 440.6636467 743.51870728 C439.53570331 747.82915344 438.39804279 752.1370502 437.26202393 756.44537354 C436.39879663 759.73807975 435.55144844 763.03459659 434.70458984 766.33154297 C434.1958623 768.26162416 433.6863183 770.19149042 433.17578125 772.12109375 C432.85232727 773.4129232 432.85232727 773.4129232 432.52233887 774.73085022 C432.20746521 775.90036476 432.20746521 775.90036476 431.88623047 777.09350586 C431.71276093 777.76328964 431.53929138 778.43307343 431.36056519 779.12315369 C430.16957454 781.57974271 428.86328866 782.57503613 426.49609375 783.90625 C424.45849609 783.90289307 424.45849609 783.90289307 422.20703125 783.34472656 C421.32241211 783.13303833 420.43779297 782.9213501 419.52636719 782.70324707 C418.52637695 782.44023804 417.52638672 782.177229 416.49609375 781.90625 C415.38008789 781.62422729 414.26408203 781.34220459 413.11425781 781.05163574 C409.10944157 780.02337568 405.1149987 778.96026211 401.12109375 777.890625 C399.58948859 777.48284662 398.05781445 777.07532726 396.52607727 776.66804504 C392.38156758 775.56514572 388.23812075 774.45830203 384.09488297 773.35063553 C380.59526103 772.41555129 377.09503313 771.48274677 373.59480381 770.54993916 C361.55998009 767.34255343 349.52762055 764.12597844 337.49609375 760.90625 C336.13261181 760.54137859 336.13261181 760.54137859 334.74158478 760.16913605 C322.2965304 756.83852853 309.85262248 753.50365535 297.40939713 750.16622162 C294.81175393 749.46959748 292.21403806 748.77324494 289.61630249 748.07696533 C273.38908529 743.72722744 257.16335299 739.37322282 240.95913124 734.93846703 C236.69545496 733.77242463 232.4303517 732.61160337 228.1656189 731.44943237 C224.91690054 730.56087307 221.67094771 729.66270959 218.42504883 728.76391602 C216.50744982 728.24058771 214.58973343 727.71768929 212.671875 727.1953125 C211.83124512 726.95901627 210.99061523 726.72272003 210.12451172 726.47926331 C208.95553345 726.16395912 208.95553345 726.16395912 207.76293945 725.84228516 C207.10203812 725.65993317 206.44113678 725.47758118 205.76020813 725.28970337 C200.37078064 724.37694289 195.56442434 724.92207219 190.33666992 726.36132812 C189.14262543 726.68522018 187.94858093 727.00911224 186.71835327 727.34281921 C185.40856405 727.70762078 184.09880139 728.07251775 182.7890625 728.4375 C181.38789385 728.82068819 179.98648884 729.20301301 178.58486938 729.58454895 C175.55127766 730.41195941 172.51920352 731.2446472 169.4881897 732.08145142 C164.60421459 733.42951363 159.71696154 734.76538571 154.82885742 736.09838867 C153.99084626 736.32691749 153.1528351 736.5554463 152.28942966 736.79090023 C150.56603047 737.2608131 148.84261524 737.73066711 147.11918449 738.20046425 C144.45575758 738.92683866 141.79262943 739.65430088 139.12953186 740.38188171 C125.93328639 743.98464073 112.72285178 747.53228317 99.50390625 751.05078125 C98.06722721 751.43323155 98.06722721 751.43323155 96.60152435 751.82340813 C88.87442886 753.87991671 81.14658315 755.9336 73.41851807 757.98646164 C66.80068644 759.74445231 60.18321035 761.50377051 53.56640625 763.265625 C52.65659248 763.50787371 51.74677872 763.75012241 50.80939484 763.99971199 C38.76946783 767.20781129 26.74570098 770.46923777 14.73828125 773.796875 C13.4056972 774.16533717 12.07309165 774.53372157 10.74046326 774.90202332 C4.79316649 776.54732219 -1.15058782 778.20366268 -7.08862305 779.88208008 C-9.10845763 780.44389463 -11.12838875 781.00536226 -13.1484375 781.56640625 C-14.03963287 781.82339294 -14.93082825 782.08037964 -15.84902954 782.34515381 C-23.45400216 784.43713992 -23.45400216 784.43713992 -27.50390625 782.90625 C-30.21256228 780.19759397 -30.51197139 777.79236636 -31.49316406 774.0859375 C-31.68292564 773.37678129 -31.87268723 772.66762508 -32.06819916 771.93697929 C-32.70428098 769.55340657 -33.3305716 767.16736817 -33.95703125 764.78125 C-34.40882595 763.08090047 -34.86125353 761.380719 -35.31427002 759.68069458 C-36.2890334 756.01766848 -37.2595534 752.35355391 -38.22680664 748.6885376 C-39.76493305 742.86071838 -41.31226075 737.03536845 -42.86132812 731.21044922 C-44.46762077 725.16881588 -46.07338979 719.12704675 -47.67602539 713.08444214 C-52.85634583 693.55397125 -58.09048716 674.03811116 -63.33403015 654.52453613 C-63.98335986 652.10772389 -64.63244295 649.69084561 -65.28137207 647.27392578 C-65.57327988 646.18730982 -65.57327988 646.18730982 -65.87108481 645.07874203 C-66.28473043 643.536884 -66.69747609 641.99478397 -67.1089319 640.45234013 C-68.14328905 636.58027054 -69.19246804 632.71379126 -70.28253365 628.85700989 C-72.63818066 620.42831344 -74.72948052 612.02890747 -76.36910689 603.42922223 C-83.56288658 566.05972451 -96.4321295 544.02510498 -124.10825491 518.30940771 C-128.73883919 513.96068539 -133.24543335 509.48652223 -137.76785278 505.02590942 C-145.33098875 497.59688886 -152.9594916 490.2408178 -160.64892578 482.94287109 C-168.53697363 475.45596088 -176.3857512 467.93144757 -184.18408203 460.35107422 C-184.66944305 459.87931188 -185.15480407 459.40754954 -185.654873 458.92149137 C-190.00943507 454.68776309 -194.35968928 450.44961718 -198.70980668 446.21132302 C-201.51938958 443.47408239 -204.32946863 440.73735281 -207.1399231 438.00100708 C-208.05024296 437.1145082 -208.96056282 436.22800932 -209.89846814 435.31464684 C-215.29214319 430.06867972 -220.71013347 424.84950393 -226.15260863 419.65418792 C-229.51276842 416.44570396 -232.86435827 413.22834494 -236.21536255 410.0103035 C-237.77137658 408.52124595 -239.33184416 407.03682649 -240.89700699 405.55738831 C-243.02879423 403.54202919 -245.14503409 401.51154268 -247.2585144 399.47702026 C-247.88348529 398.8945805 -248.50845617 398.31214073 -249.15236557 397.71205127 C-251.87156557 395.06675631 -253.34532659 393.38117153 -254.56602097 389.7253809 C-254.49293973 386.40852474 -254.04777276 385.56368444 -251.75546265 383.22938538 C-251.10186138 382.54758272 -250.44826012 381.86578007 -249.77485275 381.16331673 C-249.02544041 380.41848471 -248.27602806 379.67365269 -247.50390625 378.90625 C-246.30146208 377.6688548 -246.30146208 377.6688548 -245.0747261 376.40646172 C-242.23073286 373.49453807 -239.35789491 370.61339928 -236.47900391 367.73608398 C-235.37909016 366.63317224 -234.27937968 365.53005777 -233.17985535 364.42675781 C-230.2131696 361.45129543 -227.24330211 358.47902922 -224.27254534 355.50763202 C-222.41235202 353.64672486 -220.55287385 351.78510615 -218.69364548 349.92323494 C-212.19542186 343.41578058 -205.69464136 336.9108933 -199.19140625 330.40844727 C-193.14803505 324.36567702 -187.11026723 318.31734801 -181.07509387 312.26639122 C-175.87589333 307.05408294 -170.67281178 301.84567022 -165.46673429 296.64023072 C-162.36504462 293.53879497 -159.26489845 290.43585547 -156.16865921 287.32897758 C-153.25594288 284.40652505 -150.33839028 281.4889861 -147.41718483 278.57501984 C-146.35169959 277.51057342 -145.28788813 276.44444826 -144.22596931 275.37644386 C-138.87489104 269.99671305 -133.49496648 264.86120315 -127.38991356 260.32972813 C-123.59470648 257.46526719 -120.24351852 254.10776875 -116.7890625 250.84765625 C-114.50390625 248.90625 -114.50390625 248.90625 -112.50390625 248.90625 C-112.30023438 248.36613281 -112.0965625 247.82601562 -111.88671875 247.26953125 C-109.94576141 243.95235839 -107.21403833 241.62962702 -104.37890625 239.09375 C-103.79431641 238.56112549 -103.20972656 238.02850098 -102.60742188 237.47973633 C-98.91208788 234.12484264 -95.16163656 230.84445391 -91.28515625 227.69921875 C-86.08292021 222.46275747 -83.68095771 217.51493963 -82.1171875 210.4453125 C-81.92924118 209.65530853 -81.74129486 208.86530457 -81.5476532 208.05136108 C-80.95573523 205.54786149 -80.38579777 203.03995759 -79.81640625 200.53125 C-79.42396234 198.85643363 -79.03009359 197.18195046 -78.63476562 195.5078125 C-77.73869312 191.69511505 -76.85234037 187.88056394 -75.99382019 184.05921936 C-75.66401607 182.60986652 -75.32272528 181.16308503 -74.97065735 179.71897888 C-73.84524324 174.98832944 -73.20697774 170.37431604 -72.77488708 165.53434753 C-71.06337149 147.6160905 -65.96440536 130.52613448 -61.17401505 113.24435043 C-59.93282836 108.75370006 -58.70959922 104.25816521 -57.48510742 99.76293945 C-55.98184685 94.24819083 -54.47698167 88.73390594 -52.96388245 83.22184753 C-49.8572883 71.90177466 -46.79768317 60.57039931 -43.79117393 49.22333336 C-43.16054907 46.84346542 -42.52880506 44.46389747 -41.89668274 42.08442688 C-39.52618064 33.16192386 -39.52618064 33.16192386 -37.16793823 24.23617554 C-36.1073832 20.21116327 -35.03461455 16.18950027 -33.9609375 12.16796875 C-33.49831009 10.39885132 -33.49831009 10.39885132 -33.02633667 8.59399414 C-32.73638824 7.51456543 -32.44643982 6.43513672 -32.14770508 5.32299805 C-31.77758049 3.92527412 -31.77758049 3.92527412 -31.39997864 2.49931335 C-26.40459921 -11.95636626 -11.38317091 -3.08296501 0 0 Z " fill="#FE0000" transform="translate(299.50390625,111.09375)"/>
<path d="M0 0 C3.30281742 0.76610974 5.91472987 1.89375557 8.90234375 3.51953125 C9.86390381 4.04087646 10.82546387 4.56222168 11.81616211 5.09936523 C13.36122437 5.94736694 13.36122437 5.94736694 14.9375 6.8125 C16.0107251 7.39781494 17.0839502 7.98312988 18.18969727 8.58618164 C25.84151197 12.7752384 33.43517464 17.05952825 40.99633789 21.40966797 C47.76182362 25.30196525 54.56102205 29.13078209 61.375 32.9375 C69.42847774 37.4377007 77.47204181 41.95442305 85.5 46.5 C93.48774107 51.02207659 101.48878029 55.5196512 109.5 60 C118.4593421 65.01059503 127.40281974 70.04829051 136.3359375 75.10546875 C143.37946347 79.09036769 150.43690717 83.04989994 157.5 87 C166.4593421 92.01059503 175.40281974 97.04829051 184.3359375 102.10546875 C191.37946347 106.09036769 198.43690717 110.04989994 205.5 114 C214.44847286 119.00451631 223.38216681 124.0342403 232.30297852 129.08789062 C237.43161783 131.99094417 242.56802726 134.87927745 247.71484375 137.75 C248.83632813 138.37583984 249.9578125 139.00167969 251.11328125 139.64648438 C253.26723646 140.84748525 255.42212695 142.04681086 257.578125 143.24414062 C263.15347117 146.35332778 268.62014054 149.56304569 274 153 C272.40596353 163.92745504 269.31582299 174.51537859 266.453125 185.16015625 C265.88759569 187.27583484 265.32244993 189.39161599 264.75765991 191.50749207 C263.24122751 197.18406988 261.71939136 202.85918572 260.19641876 208.53401184 C258.61155527 214.44278319 257.03140231 220.35281409 255.45068359 226.26269531 C252.88047632 235.86942339 250.30714545 245.47530966 247.73144531 255.08056641 C244.82227444 265.92942881 241.91810282 276.77961886 239.0168457 287.63059998 C236.78644662 295.97244878 234.55329257 304.31355961 232.31980896 312.65458298 C231.63218141 315.22317426 230.94501061 317.79188736 230.25793457 320.36062622 C225.64213896 337.61360149 221.00508798 354.85475124 216 372 C206.96806545 370.5726947 198.21050873 368.30160391 189.3984375 365.90625 C187.84128066 365.48662388 186.28401088 365.06741664 184.72663879 364.64859009 C181.37137106 363.74536656 178.01686354 362.83939088 174.66293335 361.93121338 C169.29247569 360.4770294 163.92043586 359.02875458 158.5480957 357.58154297 C152.80853175 356.03518308 147.06905321 354.48851162 141.33009338 352.93991089 C126.56441127 348.95608639 111.79321983 344.99308413 97.01953125 341.0390625 C94.8402081 340.45567507 92.66088681 339.87228071 90.48156738 339.28887939 C81.97775492 337.01256415 73.47385633 334.73657133 64.96966553 332.46166992 C59.97426157 331.12529257 54.97916541 329.78776982 49.98425865 328.44953537 C48.16748347 327.96298979 46.35060775 327.4768194 44.53360939 326.99110794 C28.66467744 322.74888406 12.8306069 318.38262905 -3 314 C-3.13234662 260.78835707 -2.85298764 207.59357809 -2.16577756 154.3863734 C-2.04951586 145.36212528 -1.940589 136.33779213 -1.83159184 127.31345391 C-1.31774951 84.87401628 -0.71413067 42.43654836 0 0 Z " fill="#A53AFD" transform="translate(505,510)"/>
<path d="M0 0 C3.54823215 1.39025746 6.82695785 2.92774571 10.1484375 4.80078125 C11.14166016 5.35894531 12.13488281 5.91710937 13.15820312 6.4921875 C14.21974609 7.09289062 15.28128906 7.69359375 16.375 8.3125 C17.48552734 8.93769531 18.59605469 9.56289063 19.74023438 10.20703125 C23.16208957 12.13461805 26.58140134 14.06664454 30 16 C31.49321777 16.84377197 31.49321777 16.84377197 33.01660156 17.70458984 C36.78887582 19.83621398 40.56083496 21.96838951 44.33154297 24.1027832 C51.37635198 28.08889971 58.43540991 32.04906258 65.5 36 C74.4593421 41.01059503 83.40281974 46.04829051 92.3359375 51.10546875 C99.37946347 55.09036769 106.43690717 59.04989994 113.5 63 C122.4593421 68.01059503 131.40281974 73.04829051 140.3359375 78.10546875 C147.37946347 82.09036769 154.43690717 86.04989994 161.5 90 C170.4593421 95.01059503 179.40281974 100.04829051 188.3359375 105.10546875 C195.37946347 109.09036769 202.43690717 113.04989994 209.5 117 C218.4470437 122.00371703 227.37959486 127.03214417 236.29858398 132.08569336 C241.45127779 135.00277501 246.61261808 137.90338679 251.78515625 140.78515625 C252.91566406 141.41550781 254.04617188 142.04585937 255.2109375 142.6953125 C257.39073322 143.90969753 259.57166376 145.12204857 261.75390625 146.33203125 C266.63727147 149.05348999 271.416865 151.79572271 276 155 C273.33865944 157.05511094 270.6464314 158.87479464 267.74609375 160.57421875 C266.48539062 161.31575195 266.48539062 161.31575195 265.19921875 162.07226562 C264.28785156 162.60529297 263.37648438 163.13832031 262.4375 163.6875 C260.4464716 164.8578297 258.45559293 166.02841416 256.46484375 167.19921875 C255.41280762 167.81716309 254.36077148 168.43510742 253.27685547 169.07177734 C247.67635511 172.36731838 242.0888037 175.68467555 236.5 179 C228.33716906 183.83983735 220.17118139 188.67427424 212 193.5 C200.47797995 200.30505777 188.96656448 207.12798115 177.45556641 213.95166016 C171.80409916 217.30176185 166.1520027 220.6508018 160.5 224 C158.24999736 225.33332887 155.99999736 226.66666221 153.75 228 C149.25 230.66666667 144.75 233.33333333 140.25 236 C139.13584717 236.6602417 138.02169434 237.3204834 136.8737793 238.00073242 C134.62785889 239.3316422 132.38192793 240.66253418 130.13598633 241.9934082 C125.02685567 245.02094512 119.91780526 248.04861703 114.80917358 251.07699585 C102.98924603 258.08379219 91.16666387 265.08600739 79.33544922 272.07373047 C69.30678617 277.99802662 59.28736029 283.93789682 49.26786804 289.87768555 C45.05681721 292.3739558 40.8449457 294.86883788 36.6328125 297.36328125 C34.81829601 298.4379977 33.00379505 299.51274034 31.18930054 300.5874939 C29.49520688 301.59082303 27.80095102 302.59387826 26.10668945 303.59692383 C25.05956787 304.21720459 24.01244629 304.83748535 22.93359375 305.4765625 C21.93440918 306.0634082 20.93522461 306.65025391 19.90576172 307.25488281 C17.9634492 308.42138003 16.04266509 309.62446987 14.14501953 310.86230469 C12.82219971 311.71550293 12.82219971 311.71550293 11.47265625 312.5859375 C10.7031665 313.09946777 9.93367676 313.61299805 9.14086914 314.14208984 C7 315 7 315 5.26877975 314.44117165 C1.9461111 312.33054991 -0.68629137 309.58100226 -3.44134521 306.79916382 C-4.08588063 306.15633725 -4.73041605 305.51351068 -5.39448285 304.85120451 C-7.55650907 302.69247682 -9.71130189 300.52667045 -11.86621094 298.36083984 C-13.41314977 296.81333698 -14.96052891 295.26627416 -16.50831604 293.71961975 C-20.71284885 289.51566176 -24.91117822 285.30555716 -29.10844326 281.09434462 C-33.49444647 276.69585554 -37.88609808 272.30301363 -42.27716064 267.90957642 C-49.64779629 260.53342691 -57.01492902 253.15379399 -64.37939453 245.77148438 C-71.96461512 238.16790394 -79.55193479 230.56642827 -87.14208984 222.96777344 C-87.60999726 222.49934058 -88.07790467 222.03090772 -88.55999109 221.54827993 C-90.90737331 219.19828762 -93.25479915 216.84833888 -95.60224104 214.49840617 C-115.0744844 195.0052466 -134.53958012 175.50496269 -154 156 C-152.34828196 151.74238754 -149.16802712 148.89589215 -145.98898315 145.74847412 C-145.36657435 145.12435646 -144.74416554 144.5002388 -144.10289586 143.85720849 C-142.01326453 141.76427936 -139.91655845 139.67858492 -137.81982422 137.59277344 C-136.3215818 136.09509507 -134.82377946 134.59697636 -133.3263855 133.09844971 C-129.25672032 129.02820978 -125.18091 124.96417371 -121.10399008 120.9012022 C-116.84563664 116.65533563 -112.5929313 112.40381967 -108.33963013 108.15289307 C-100.28302218 100.10250589 -92.2213287 92.05723134 -84.15780747 84.01376939 C-74.97866661 74.85696891 -65.80519162 65.69450129 -56.63219428 56.53154707 C-37.76110544 37.68137377 -18.88289259 18.83834853 0 0 Z " fill="#FE8D01" transform="translate(213,345)"/>
<path d="M0 0 C15.58669084 3.39956631 31.03080468 7.35253524 46.34472656 11.81933594 C52.19985185 13.51663448 58.07802201 15.05434067 64 16.5 C70.79938 18.15984865 77.53112621 19.97730205 84.25 21.9375 C92.89499513 24.45855173 101.59373137 26.67525675 110.33886719 28.82006836 C116.78224631 30.41216422 123.14113815 32.17276188 129.48925781 34.10571289 C135.60978802 35.94318914 141.79454722 37.47761619 148 39 C154.88301648 40.68861052 161.71977481 42.43543893 168.5 44.5 C176.3862421 46.89999111 184.35964267 48.89654866 192.36523438 50.85742188 C193.32494141 51.09267578 194.28464844 51.32792969 195.2734375 51.5703125 C196.11310059 51.77414551 196.95276367 51.97797852 197.81787109 52.18798828 C200.78737795 52.94574337 203.7427593 53.74258894 206.69888306 54.55075073 C207.69110682 54.8218611 208.68333057 55.09297146 209.70562172 55.37229729 C210.46276655 55.57943918 211.21991138 55.78658108 212 56 C212.71669602 81.37045319 213.22195341 106.73588971 213.50522685 132.11476946 C213.54641295 135.77338479 213.58943792 139.43197782 213.63235503 143.09057319 C213.7582945 153.84186137 213.87829204 164.59321025 213.99619293 175.34458923 C214.05152409 180.38881181 214.10780194 185.43302332 214.16434312 190.47723246 C214.84196894 250.98642057 215.32955191 311.4864979 215 372 C212.4516926 370.73332471 209.90421424 369.46502706 207.35717773 368.19580078 C206.28431644 367.66283134 206.28431644 367.66283134 205.18978119 367.11909485 C199.37321174 364.21814836 193.69521248 361.11883889 188.0625 357.875 C186.08494 356.74686175 184.10706396 355.61927736 182.12890625 354.4921875 C181.12359863 353.91823242 180.11829102 353.34427734 179.08251953 352.75292969 C173.90368213 349.80789147 168.70119789 346.90530458 163.5 344 C154.5403742 338.98991506 145.59717754 333.95170794 136.6640625 328.89453125 C129.62053653 324.90963231 122.56309283 320.95010006 115.5 317 C106.5406579 311.98940497 97.59718026 306.95170949 88.6640625 301.89453125 C81.62053653 297.90963231 74.56309283 293.95010006 67.5 290 C58.5406579 284.98940497 49.59718026 279.95170949 40.6640625 274.89453125 C33.62053653 270.90963231 26.56309283 266.95010006 19.5 263 C10.54494451 257.9918023 1.60491241 252.95797192 -7.32275391 247.90112305 C-13.41898923 244.45071042 -19.52922969 241.02632694 -25.64672852 237.61376953 C-36.51670992 231.54867668 -47.3119744 225.38047195 -58 219 C-57.30895418 212.55326996 -55.55142743 206.52811221 -53.75 200.3125 C-51.51646645 192.48629876 -49.36133143 184.65819888 -47.4375 176.75 C-45.58459629 169.15362703 -43.4914639 161.65035436 -41.30273438 154.14453125 C-39.05629525 146.36530216 -37.10841015 138.52420406 -35.17993164 130.66113281 C-33.58783578 124.21775369 -31.82723812 117.85886185 -29.89428711 111.51074219 C-28.05681086 105.39021198 -26.52238381 99.20545278 -25 93 C-23.14508483 85.43910214 -21.16216649 77.95834029 -18.89453125 70.51171875 C-17.05709066 64.39081792 -15.52257797 58.20576118 -14 52 C-12.14199196 44.43180038 -10.16860327 36.93532507 -7.90551758 29.47875977 C-4.97412281 19.7354521 -2.52292873 9.85523119 0 0 Z " fill="#FEF000" transform="translate(279,118)"/>
<path d="M0 0 C3.30037971 2.12958417 5.93748217 4.87345292 8.68741989 7.6501255 C9.33195531 8.29295207 9.97649073 8.93577864 10.64055753 9.59808481 C12.80258375 11.75681251 14.95737657 13.92261887 17.11228561 16.08844948 C18.65922444 17.63595234 20.20660359 19.18301516 21.75439072 20.72966957 C25.95892353 24.93362757 30.1572529 29.14373217 34.35451794 33.35494471 C38.74052115 37.75343378 43.13217275 42.14627569 47.52323532 46.53971291 C54.89387097 53.91586241 62.2610037 61.29549533 69.62546921 68.67780495 C77.21068979 76.28138538 84.79800947 83.88286106 92.38816452 91.48151588 C92.85607193 91.94994874 93.32397934 92.4183816 93.80606577 92.9010094 C96.15344799 95.25100171 98.50087383 97.60095044 100.84831572 99.95088315 C120.32055907 119.44404272 139.7856548 138.94432663 159.24607468 158.44928932 C157.59484564 162.67764367 154.46272339 165.52598304 151.31339645 168.66958046 C150.39225866 169.60068997 150.39225866 169.60068997 149.45251203 170.55060977 C147.39075735 172.63207047 145.32188729 174.70630778 143.25291061 176.78058815 C141.774304 178.27008847 140.2960877 179.75997632 138.81823349 181.25022316 C134.80057542 185.29839817 130.77617702 189.33980432 126.74958324 193.37908959 C124.23574702 195.9010062 121.7229648 198.42396858 119.21046829 200.94721985 C111.35367951 208.83672356 103.49249606 216.72181264 95.62543178 224.60107023 C86.53459087 233.70618423 77.4587746 242.82593622 68.39550757 251.95849591 C61.39370583 259.01198419 54.37860478 266.05206284 47.35324121 273.08208293 C43.15487128 277.28385885 38.96248545 281.49122772 34.78390884 285.71269608 C30.8560456 289.68016965 26.91201377 293.63080797 22.95475197 297.56895256 C21.50304582 299.01938759 20.05734528 300.47586143 18.61807823 301.93864059 C16.65666663 303.93025934 14.67504461 305.89925326 12.68668747 307.8639164 C11.83364961 308.74549273 11.83364961 308.74549273 10.96337867 309.64487869 C9.33699799 311.22528744 9.33699799 311.22528744 6.24607468 313.44928932 C1.8593108 313.34456162 -1.16154471 311.94584345 -4.92970657 309.78132057 C-5.90955521 309.22500954 -6.88940384 308.6686985 -7.89894485 308.09552956 C-8.94421341 307.49039528 -9.98948196 306.885261 -11.06642532 306.26178932 C-13.32018511 304.97767806 -15.57409558 303.69383124 -17.82814407 302.41022682 C-18.99017884 301.7446906 -20.1521254 301.07900036 -21.31398392 300.41315651 C-26.6485016 297.36767317 -32.01463731 294.37940862 -37.37892532 291.38678932 C-46.29678732 286.39709106 -55.19757417 281.37781588 -64.0903511 276.34357643 C-71.13368496 272.35870686 -78.19099116 268.39930065 -85.25392532 264.44928932 C-94.21326742 259.4386943 -103.15674506 254.40099881 -112.08986282 249.34382057 C-119.1333888 245.35892163 -126.19083249 241.39938939 -133.25392532 237.44928932 C-142.21326742 232.4386943 -151.15674506 227.40099881 -160.08986282 222.34382057 C-167.1333888 218.35892163 -174.19083249 214.39938939 -181.25392532 210.44928932 C-190.21413437 205.43820945 -199.15935949 200.40156597 -208.09206009 195.34162331 C-213.02186036 192.5512897 -217.95809084 189.77332674 -222.90626907 187.01569557 C-238.98693327 178.05321521 -254.97714328 168.93885887 -270.75392532 159.44928932 C-267.07232778 156.32823577 -263.23180903 153.92360343 -259.00392532 151.63678932 C-251.92740273 147.73135389 -244.98553962 143.62654951 -238.06642532 139.44928932 C-228.83466094 133.88017313 -219.5635373 128.38683011 -210.25392532 122.94928932 C-201.2199303 117.67127471 -192.21576844 112.34937428 -183.25392532 106.94928932 C-174.29207348 101.54919911 -165.28767512 96.22773381 -156.25392532 90.94928932 C-143.83170659 83.69083754 -131.47685432 76.32688768 -119.15626907 68.89704323 C-118.36349564 68.41928444 -117.5707222 67.94152565 -116.75392532 67.44928932 C-115.88896439 66.87227272 -115.02400345 66.29525612 -114.13283157 65.70075417 C-113.34779251 65.28777077 -112.56275345 64.87478737 -111.75392532 64.44928932 C-107.90159918 65.73339804 -107.62129644 66.97398173 -105.71486282 70.48835182 C-105.13953812 71.53539284 -104.56421341 72.58243385 -103.97145462 73.66120338 C-103.36341995 74.78752174 -102.75538528 75.9138401 -102.12892532 77.07428932 C-100.853229 79.39550798 -99.5758935 81.71582655 -98.29689407 84.03522682 C-97.37336136 85.71503639 -97.37336136 85.71503639 -96.43117142 87.42878151 C-94.18856145 91.46743806 -91.82999909 95.41822826 -89.42799759 99.36408424 C-85.40169699 105.99569131 -81.48629097 112.69196715 -77.56642532 119.38678932 C-77.01885574 120.32177254 -77.01885574 120.32177254 -76.46022415 121.2756443 C-73.88954111 125.66573918 -71.32117006 130.05718305 -68.75392532 134.44928932 C-68.40793289 135.04119057 -68.06194046 135.63309181 -67.70546341 136.24292946 C-65.44952431 140.10264787 -63.19501087 143.96319633 -60.94142532 147.82428932 C-60.37335159 148.79745094 -59.80527786 149.77061256 -59.21998978 150.77326393 C-56.37482269 155.65235673 -53.54667707 160.5399969 -50.75392532 165.44928932 C-47.82513161 164.82169067 -45.39296903 163.86306274 -42.75392532 162.44928932 C-44.07493518 158.945182 -45.61960429 155.77969956 -47.51955032 152.55475807 C-48.07255814 151.61180885 -48.62556595 150.66885963 -49.19533157 149.6973362 C-49.79216751 148.68735573 -50.38900345 147.67737526 -51.00392532 146.63678932 C-52.28005763 144.46366546 -53.55609673 142.29048687 -54.83205032 140.11725807 C-55.48496048 139.00785866 -56.13787064 137.89845924 -56.81056595 136.75544167 C-59.80499851 131.66114446 -62.77892412 126.55494922 -65.75392532 121.44928932 C-66.92183387 119.44795211 -68.0898028 117.44665012 -69.25783157 115.44538307 C-71.58240345 111.46086587 -73.90232609 107.47369364 -76.21876907 103.48444557 C-77.37606112 101.49340899 -78.53361267 99.50252321 -79.69142532 97.51178932 C-80.25619583 96.5403196 -80.82096634 95.56884987 -81.4028511 94.56794167 C-84.55040955 89.17098497 -87.73609224 83.79944134 -90.96876907 78.45319557 C-91.31763672 77.87551933 -91.66650436 77.29784309 -92.02594376 76.70266151 C-93.72196128 73.89569799 -95.42332594 71.09220696 -97.13258743 68.29328346 C-97.73723831 67.29546852 -98.34188919 66.29765358 -98.96486282 65.26960182 C-99.50417435 64.38546608 -100.04348587 63.50133034 -100.59914017 62.5904026 C-101.75392532 60.44928932 -101.75392532 60.44928932 -101.75392532 58.44928932 C-101.07104446 58.05773659 -100.3881636 57.66618385 -99.68458939 57.26276588 C-87.54224886 50.29464886 -75.41799541 43.30555221 -63.43092728 36.0723362 C-55.40975425 31.23262076 -47.35637498 26.44803869 -39.28517532 21.69220924 C-33.85538587 18.48981854 -28.44020177 15.27031403 -23.06988907 11.96894264 C-20.5886624 10.44504748 -18.10044284 8.93278686 -15.61162186 7.42133522 C-14.42111057 6.69381291 -13.23409352 5.96053953 -12.05076981 5.22138405 C-10.4099296 4.19703641 -8.75602046 3.19371263 -7.10158157 2.19147682 C-5.69404617 1.32305153 -5.69404617 1.32305153 -4.25807571 0.43708229 C-1.75392532 -0.55071068 -1.75392532 -0.55071068 0 0 Z " fill="#56E0FD" transform="translate(781.7539253234863,340.5507106781006)"/>
<path d="M0 0 C0.16604736 0.64960693 0.33209473 1.29921387 0.50317383 1.96850586 C1.26961522 4.95903627 2.04102548 7.94826422 2.8125 10.9375 C3.07353516 11.95908203 3.33457031 12.98066406 3.60351562 14.03320312 C4.99621081 19.41485243 6.52622163 24.68536635 8.33227539 29.94165039 C9.37745171 33.16354493 10.08553142 36.44378673 10.8125 39.75 C12.28533598 46.25708532 14.00199517 52.65970316 15.875 59.0625 C18.09669757 66.6689186 20.11432114 74.30349025 22 82 C24.08647386 90.5101686 26.36656522 98.93661533 28.8203125 107.34765625 C30.75434585 114.02057761 32.45840476 120.73286014 34.10571289 127.48144531 C35.81445407 134.41440237 37.76551585 141.26364542 39.76293945 148.11816406 C41.77958496 155.09150169 43.57979842 162.1051632 45.26367188 169.16601562 C46.1959716 173.02190333 47.2275213 176.78172811 48.515625 180.53515625 C49.99960446 184.86496224 51.0750702 189.22171665 52.0625 193.6875 C52.9391793 197.62023406 53.81270294 201.45377129 55.12109375 205.26953125 C56 208 56 208 56 212 C53.515625 213.88671875 53.515625 213.88671875 50.25 215.6875 C49.18265625 216.28949219 48.1153125 216.89148438 47.015625 217.51171875 C44.59866405 218.70454533 42.6271391 219.52175866 40 220 C40 220.66 40 221.32 40 222 C38.82244141 222.56267578 38.82244141 222.56267578 37.62109375 223.13671875 C31.66337638 226.03882156 26.28318553 229.01065582 21 233 C16.44827586 236 16.44827586 236 13 236 C13 236.66 13 237.32 13 238 C11.82244141 238.56267578 11.82244141 238.56267578 10.62109375 239.13671875 C4.66337638 242.03882156 -0.71681447 245.01065582 -6 249 C-10.55172414 252 -10.55172414 252 -14 252 C-14 252.66 -14 253.32 -14 254 C-15.17755859 254.56267578 -15.17755859 254.56267578 -16.37890625 255.13671875 C-22.34441509 258.04261692 -27.68833177 261.04228642 -33 265 C-35.30133012 266.39777101 -37.64515849 267.69175472 -40 269 C-40.9075 269.598125 -41.815 270.19625 -42.75 270.8125 C-43.4925 271.204375 -44.235 271.59625 -45 272 C-48.71304094 270.76231969 -48.94843182 269.82478743 -50.78515625 266.46875 C-51.31012695 265.52241699 -51.83509766 264.57608398 -52.37597656 263.60107422 C-52.9325293 262.57771973 -53.48908203 261.55436523 -54.0625 260.5 C-55.24495394 258.36655536 -56.42855459 256.2337459 -57.61328125 254.1015625 C-58.19416504 253.05129883 -58.77504883 252.00103516 -59.37353516 250.91894531 C-61.44365617 247.20378967 -63.57938056 243.53208815 -65.75 239.875 C-66.55212595 238.51955647 -67.35420681 237.16408625 -68.15625 235.80859375 C-68.59453125 235.06851074 -69.0328125 234.32842773 -69.484375 233.56591797 C-72.75352689 228.03131964 -75.99979891 222.48324067 -79.25 216.9375 C-79.61617432 216.31291901 -79.98234863 215.68833801 -80.35961914 215.04483032 C-85.90226088 205.59076542 -91.43070559 196.12853213 -96.94091797 186.65551758 C-99.85485828 181.65224895 -102.79025899 176.66309143 -105.7578125 171.69140625 C-106.66805176 170.16374634 -106.66805176 170.16374634 -107.59667969 168.60522461 C-108.7575646 166.65973831 -109.92211677 164.71643428 -111.09082031 162.77563477 C-111.60483398 161.91381592 -112.11884766 161.05199707 -112.6484375 160.1640625 C-113.10395996 159.40561035 -113.55948242 158.6471582 -114.02880859 157.86572266 C-115 156 -115 156 -115 154 C-116.670625 154.99 -116.670625 154.99 -118.375 156 C-121.75 158 -121.75 158 -124 158 C-116.58975937 171.22956143 -109.05542733 184.37260318 -101.3125 197.41015625 C-97.86641195 203.2146864 -94.46062203 209.04228964 -91.0625 214.875 C-90.48121338 215.87265381 -89.89992676 216.87030762 -89.30102539 217.89819336 C-88.12255561 219.92129018 -86.94425191 221.94448375 -85.76611328 223.96777344 C-83.42755785 227.98282161 -81.08630472 231.99629258 -78.74462891 236.00952148 C-77.58891076 237.99054466 -76.43363155 239.97182399 -75.27880859 241.95336914 C-72.20887316 247.22014309 -69.13111757 252.48216289 -66.04296875 257.73828125 C-65.39779297 258.83849609 -64.75261719 259.93871094 -64.08789062 261.07226562 C-62.84537927 263.19079218 -61.60067749 265.30803596 -60.35351562 267.42382812 C-59.79728516 268.37322266 -59.24105469 269.32261719 -58.66796875 270.30078125 C-58.17578857 271.13778564 -57.6836084 271.97479004 -57.17651367 272.8371582 C-56 275 -56 275 -55 278 C-59.625 281 -59.625 281 -63 281 C-63 281.66 -63 282.32 -63 283 C-64.3125 283.72916667 -65.625 284.45833333 -66.9375 285.1875 C-67.75734375 285.64382813 -68.5771875 286.10015625 -69.421875 286.5703125 C-71.07516163 287.48713509 -72.73118694 288.39904647 -74.390625 289.3046875 C-77.82368968 291.18469911 -81.16841183 293.06392953 -84.375 295.3125 C-87 297 -87 297 -90 297 C-90 297.66 -90 298.32 -90 299 C-90.78503906 299.37511719 -91.57007813 299.75023437 -92.37890625 300.13671875 C-98.33662362 303.03882156 -103.71681447 306.01065582 -109 310 C-113.55172414 313 -113.55172414 313 -117 313 C-117 313.66 -117 314.32 -117 315 C-117.78503906 315.37511719 -118.57007813 315.75023437 -119.37890625 316.13671875 C-125.33662362 319.03882156 -130.71681447 322.01065582 -136 326 C-140.55172414 329 -140.55172414 329 -144 329 C-144 329.66 -144 330.32 -144 331 C-144.78503906 331.37511719 -145.57007813 331.75023437 -146.37890625 332.13671875 C-153.47970918 335.56839662 -153.47970918 335.56839662 -160.0625 339.875 C-163 342 -163 342 -166 342 C-166 342.66 -166 343.32 -166 344 C-167.3125 344.72916667 -168.625 345.45833333 -169.9375 346.1875 C-170.75734375 346.64382813 -171.5771875 347.10015625 -172.421875 347.5703125 C-174.07516163 348.48713509 -175.73118694 349.39904647 -177.390625 350.3046875 C-180.82368968 352.18469911 -184.16841183 354.06392953 -187.375 356.3125 C-190 358 -190 358 -193 358 C-193 358.66 -193 359.32 -193 360 C-194.01707031 360.54527344 -194.01707031 360.54527344 -195.0546875 361.1015625 C-200.81118981 364.21103051 -206.45281586 367.4345571 -212.00390625 370.8984375 C-214 372 -214 372 -216 372 C-218.83153897 180.52965028 -218.83153897 180.52965028 -219 58 C-215.53962465 57.04872416 -212.07847235 56.10030449 -208.6171875 55.15234375 C-207.65063232 54.88659546 -206.68407715 54.62084717 -205.68823242 54.3470459 C-199.52124555 52.65985138 -193.33877866 51.06759234 -187.125 49.5625 C-178.577206 47.46487657 -170.15405037 45.02458313 -161.71801758 42.51806641 C-155.28064329 40.62102982 -148.84093855 38.95051225 -142.29345703 37.48583984 C-135.78836207 36.00818934 -129.40952712 34.1476816 -123.00708008 32.28100586 C-117.03418251 30.55093643 -111.04105123 28.97328165 -105 27.5 C-96.22887433 25.35752765 -87.56349144 22.91347182 -78.890625 20.40625 C-69.94520351 17.82278464 -60.94417101 15.47337696 -51.90332031 13.24804688 C-42.18748126 10.85379994 -32.56946585 8.20431895 -22.95703125 5.42578125 C-18.43962537 4.12121953 -13.91415686 2.85172328 -9.375 1.625 C-8.20710937 1.30789062 -7.03921875 0.99078125 -5.8359375 0.6640625 C-3 0 -3 0 0 0 Z " fill="#15FD00" transform="translate(721,118)"/>
<path d="M0 0 C1.55843377 0.41946633 3.11694862 0.83863152 4.67553711 1.25752258 C8.03639723 2.1614307 11.39671674 3.06731219 14.75662231 3.97476196 C20.13956936 5.42857104 25.52365501 6.87812995 30.90795898 8.3269043 C36.65824447 9.87430595 42.40847533 11.42190792 48.15834045 12.97087097 C62.88220995 16.93693085 77.6100916 20.88787966 92.33984375 24.83203125 C94.50935437 25.41303235 96.67886426 25.99403617 98.84837341 26.57504272 C107.30693225 28.84017269 115.76556892 31.10501166 124.22439575 33.36914062 C129.17323431 34.69381657 134.12182153 36.01942854 139.07031059 37.34540939 C141.89943394 38.10308665 144.72888547 38.8595289 147.55836487 39.61587524 C156.18831756 41.92551919 164.80965194 44.26058828 173.41357422 46.66552734 C174.95529103 47.09438826 176.49703327 47.52315776 178.0388031 47.951828 C180.8495842 48.73357451 183.65679054 49.52665661 186.46229553 50.32710266 C187.6928215 50.66992783 188.92334747 51.01275299 190.19116211 51.3659668 C191.24782578 51.66544724 192.30448944 51.96492767 193.39317322 52.27348328 C199.62471477 53.54425773 204.7984839 52.7905617 210.8840332 51.14404297 C211.59390821 50.95457627 212.30378323 50.76510958 213.0351696 50.56990147 C215.3955497 49.93768294 217.75235813 49.29307147 220.109375 48.6484375 C221.80238877 48.19234648 223.49561651 47.73704913 225.18904114 47.28248596 C229.77401636 46.04948923 234.35605035 44.80587061 238.93766022 43.56043625 C243.76578085 42.25005927 248.59661131 40.94975363 253.42724609 39.64868164 C261.45709242 37.48489316 269.48553732 35.31597819 277.51318359 33.14404297 C288.87432333 30.07098907 300.24082103 27.01815242 311.609375 23.97265625 C313.39008721 23.49549354 315.17079807 23.0183258 316.95150757 22.54115295 C323.89182155 20.68156789 330.83233192 18.82271652 337.77294922 16.96426392 C342.79158475 15.62031321 347.80997094 14.27543482 352.828125 12.9296875 C353.63030079 12.71458464 354.43247658 12.49948177 355.25896072 12.27786064 C365.53582506 9.52091454 375.80448789 6.73578235 386.06439209 3.91638756 C390.35167953 2.73929297 394.64075917 1.56873158 398.92938232 0.39651489 C402.20343349 -0.50237818 405.47404131 -1.41306405 408.74462891 -2.32446289 C410.66813545 -2.85100371 412.59179035 -3.37700302 414.515625 -3.90234375 C415.79200081 -4.26451492 415.79200081 -4.26451492 417.09416199 -4.63400269 C424.84386256 -6.72465218 424.84386256 -6.72465218 428.49609375 -5.09375 C431.6395269 -0.82167177 432.76372249 3.80775684 434.07714844 8.85668945 C434.31710761 9.75359466 434.55706678 10.65049986 434.80429745 11.57458401 C435.59954368 14.55432963 436.38372303 17.53687323 437.16796875 20.51953125 C437.72805024 22.62642573 438.28883997 24.73313205 438.85029602 26.83966064 C440.34865491 32.46882953 441.83765513 38.10043373 443.3247261 43.73259354 C444.85643741 49.52809253 446.39607585 55.32148364 447.93530273 61.11499023 C449.76523164 68.00426824 451.59451451 74.89371328 453.41990662 81.78419495 C456.76556963 94.4112254 460.13318382 107.03181729 463.546875 119.640625 C463.90754264 120.97473001 464.26815006 122.3088513 464.62869263 123.64299011 C466.54691771 130.73853238 466.54691771 130.73853238 468.47570801 137.83120728 C473.80861752 157.39241546 473.80861752 157.39241546 475.13452148 166.55493164 C475.6523144 169.92215887 476.52930163 173.07705008 477.49609375 176.34375 C477.82609375 177.47683594 478.15609375 178.60992187 478.49609375 179.77734375 C479.43646852 182.85166216 479.43646852 182.85166216 480.5625 185.5546875 C481.43523729 187.75296301 481.97760919 189.77908552 482.43359375 192.09375 C483.30556974 196.19676878 484.40141395 200.17353535 485.66796875 204.171875 C486.25903281 206.1235016 486.78324746 208.09588678 487.26171875 210.078125 C489.5078061 218.77660875 493.17461268 223.66002466 499.49609375 229.90625 C500.69621229 231.27025027 501.88468046 232.64463223 503.05859375 234.03125 C505.4110297 236.74142966 507.86143085 239.27914601 510.43359375 241.78125 C513.34933576 244.63009162 515.80864904 247.57868431 518.24609375 250.84375 C522.21404375 255.9759488 526.76308131 259.34693854 532.0546875 262.99609375 C534.49609375 264.90625 534.49609375 264.90625 535.49609375 267.90625 C536.82268796 268.58622797 538.15751251 269.25018409 539.49609375 269.90625 C541.15604406 271.37730944 542.76354461 272.90822143 544.33622742 274.472229 C545.0447084 275.17285497 545.0447084 275.17285497 545.76750213 275.88763499 C547.34677601 277.45192309 548.91883505 279.02326307 550.4909668 280.59472656 C551.62253355 281.71867102 552.75450167 282.84221152 553.88684082 283.96537781 C556.95975728 287.01635271 560.0260788 290.07387263 563.09058356 293.13329411 C565.00524506 295.04431245 566.92119833 296.95402594 568.83759499 298.86330414 C575.52253684 305.52375528 582.20174161 312.18990462 588.8762207 318.86083984 C595.09922988 325.08021131 601.33525377 331.28632177 607.57733315 337.48654771 C612.93572196 342.81026277 618.2844678 348.14353903 623.62589675 353.48426986 C626.8164111 356.67399058 630.01079261 359.8595931 633.21509361 363.03546906 C636.2278067 366.02205094 639.22836508 369.02032739 642.21999359 372.02802467 C643.31980488 373.12965421 644.42390248 374.22702361 645.5325489 375.31976128 C647.0458453 376.81265739 648.54290365 378.32017233 650.03691101 379.83233643 C650.87884349 380.67225758 651.72077597 381.51217873 652.58822155 382.37755203 C654.82593796 385.34342623 655.41351648 387.20448806 655.49609375 390.90625 C654.58695126 392.75056648 654.58695126 392.75056648 652.99095154 394.40725708 C652.33537703 395.09073338 651.67980251 395.77420967 651.00436211 396.47839737 C645.98073272 401.34096791 640.89472319 406.12956518 635.75933838 410.87396622 C631.90577461 414.4363464 628.06674585 418.01429332 624.22901917 421.59371948 C623.41099575 422.35668138 622.59297234 423.11964328 621.75016034 423.90572524 C610.17682506 434.72120696 598.76990767 445.71195687 587.36274052 456.70213127 C578.13647825 465.58162934 568.859379 474.39063591 559.42700195 483.05126953 C510.82484571 527.75530448 479.81186494 564.77531838 469.2300806 631.13118839 C466.28017316 649.55145745 461.3351469 667.34355127 456.27265739 685.2781601 C454.14111517 692.84975709 452.11760565 700.4506784 450.08604634 708.04957902 C449.22816435 711.25559538 448.36602624 714.46046245 447.50378746 717.66530937 C445.18936044 726.27419494 442.91719124 734.89371169 440.6636467 743.51870728 C439.53570331 747.82915344 438.39804279 752.1370502 437.26202393 756.44537354 C436.39879663 759.73807975 435.55144844 763.03459659 434.70458984 766.33154297 C434.1958623 768.26162416 433.6863183 770.19149042 433.17578125 772.12109375 C432.85232727 773.4129232 432.85232727 773.4129232 432.52233887 774.73085022 C432.20746521 775.90036476 432.20746521 775.90036476 431.88623047 777.09350586 C431.71276093 777.76328964 431.53929138 778.43307343 431.36056519 779.12315369 C430.16957454 781.57974271 428.86328866 782.57503613 426.49609375 783.90625 C424.45849609 783.90289307 424.45849609 783.90289307 422.20703125 783.34472656 C421.32241211 783.13303833 420.43779297 782.9213501 419.52636719 782.70324707 C418.52637695 782.44023804 417.52638672 782.177229 416.49609375 781.90625 C415.38008789 781.62422729 414.26408203 781.34220459 413.11425781 781.05163574 C409.10944157 780.02337568 405.1149987 778.96026211 401.12109375 777.890625 C399.58948859 777.48284662 398.05781445 777.07532726 396.52607727 776.66804504 C392.38156758 775.56514572 388.23812075 774.45830203 384.09488297 773.35063553 C380.59526103 772.41555129 377.09503313 771.48274677 373.59480381 770.54993916 C361.55998009 767.34255343 349.52762055 764.12597844 337.49609375 760.90625 C336.13261181 760.54137859 336.13261181 760.54137859 334.74158478 760.16913605 C322.2965304 756.83852853 309.85262248 753.50365535 297.40939713 750.16622162 C294.81175393 749.46959748 292.21403806 748.77324494 289.61630249 748.07696533 C273.38908529 743.72722744 257.16335299 739.37322282 240.95913124 734.93846703 C236.69545496 733.77242463 232.4303517 732.61160337 228.1656189 731.44943237 C224.91690054 730.56087307 221.67094771 729.66270959 218.42504883 728.76391602 C216.50744982 728.24058771 214.58973343 727.71768929 212.671875 727.1953125 C211.83124512 726.95901627 210.99061523 726.72272003 210.12451172 726.47926331 C208.95553345 726.16395912 208.95553345 726.16395912 207.76293945 725.84228516 C207.10203812 725.65993317 206.44113678 725.47758118 205.76020813 725.28970337 C200.37078064 724.37694289 195.56442434 724.92207219 190.33666992 726.36132812 C189.14262543 726.68522018 187.94858093 727.00911224 186.71835327 727.34281921 C185.40856405 727.70762078 184.09880139 728.07251775 182.7890625 728.4375 C181.38789385 728.82068819 179.98648884 729.20301301 178.58486938 729.58454895 C175.55127766 730.41195941 172.51920352 731.2446472 169.4881897 732.08145142 C164.60421459 733.42951363 159.71696154 734.76538571 154.82885742 736.09838867 C153.99084626 736.32691749 153.1528351 736.5554463 152.28942966 736.79090023 C150.56603047 737.2608131 148.84261524 737.73066711 147.11918449 738.20046425 C144.45575758 738.92683866 141.79262943 739.65430088 139.12953186 740.38188171 C125.93328639 743.98464073 112.72285178 747.53228317 99.50390625 751.05078125 C98.06722721 751.43323155 98.06722721 751.43323155 96.60152435 751.82340813 C88.87442886 753.87991671 81.14658315 755.9336 73.41851807 757.98646164 C66.80068644 759.74445231 60.18321035 761.50377051 53.56640625 763.265625 C52.65659248 763.50787371 51.74677872 763.75012241 50.80939484 763.99971199 C38.76946783 767.20781129 26.74570098 770.46923777 14.73828125 773.796875 C13.4056972 774.16533717 12.07309165 774.53372157 10.74046326 774.90202332 C4.79316649 776.54732219 -1.15058782 778.20366268 -7.08862305 779.88208008 C-9.10845763 780.44389463 -11.12838875 781.00536226 -13.1484375 781.56640625 C-14.03963287 781.82339294 -14.93082825 782.08037964 -15.84902954 782.34515381 C-23.45400216 784.43713992 -23.45400216 784.43713992 -27.50390625 782.90625 C-30.21256228 780.19759397 -30.51197139 777.79236636 -31.49316406 774.0859375 C-31.68292564 773.37678129 -31.87268723 772.66762508 -32.06819916 771.93697929 C-32.70428098 769.55340657 -33.3305716 767.16736817 -33.95703125 764.78125 C-34.40882595 763.08090047 -34.86125353 761.380719 -35.31427002 759.68069458 C-36.2890334 756.01766848 -37.2595534 752.35355391 -38.22680664 748.6885376 C-39.76493305 742.86071838 -41.31226075 737.03536845 -42.86132812 731.21044922 C-44.46762077 725.16881588 -46.07338979 719.12704675 -47.67602539 713.08444214 C-52.85634583 693.55397125 -58.09048716 674.03811116 -63.33403015 654.52453613 C-63.98335986 652.10772389 -64.63244295 649.69084561 -65.28137207 647.27392578 C-65.57327988 646.18730982 -65.57327988 646.18730982 -65.87108481 645.07874203 C-66.28473043 643.536884 -66.69747609 641.99478397 -67.1089319 640.45234013 C-68.14328905 636.58027054 -69.19246804 632.71379126 -70.28253365 628.85700989 C-72.63818066 620.42831344 -74.72948052 612.02890747 -76.36910689 603.42922223 C-83.56288658 566.05972451 -96.4321295 544.02510498 -124.10825491 518.30940771 C-128.73883919 513.96068539 -133.24543335 509.48652223 -137.76785278 505.02590942 C-145.33098875 497.59688886 -152.9594916 490.2408178 -160.64892578 482.94287109 C-168.53697363 475.45596088 -176.3857512 467.93144757 -184.18408203 460.35107422 C-184.66944305 459.87931188 -185.15480407 459.40754954 -185.654873 458.92149137 C-190.00943507 454.68776309 -194.35968928 450.44961718 -198.70980668 446.21132302 C-201.51938958 443.47408239 -204.32946863 440.73735281 -207.1399231 438.00100708 C-208.05024296 437.1145082 -208.96056282 436.22800932 -209.89846814 435.31464684 C-215.29214319 430.06867972 -220.71013347 424.84950393 -226.15260863 419.65418792 C-229.51276842 416.44570396 -232.86435827 413.22834494 -236.21536255 410.0103035 C-237.77137658 408.52124595 -239.33184416 407.03682649 -240.89700699 405.55738831 C-243.02879423 403.54202919 -245.14503409 401.51154268 -247.2585144 399.47702026 C-247.88348529 398.8945805 -248.50845617 398.31214073 -249.15236557 397.71205127 C-251.87156557 395.06675631 -253.34532659 393.38117153 -254.56602097 389.7253809 C-254.49293973 386.40852474 -254.04777276 385.56368444 -251.75546265 383.22938538 C-251.10186138 382.54758272 -250.44826012 381.86578007 -249.77485275 381.16331673 C-249.02544041 380.41848471 -248.27602806 379.67365269 -247.50390625 378.90625 C-246.30146208 377.6688548 -246.30146208 377.6688548 -245.0747261 376.40646172 C-242.23073286 373.49453807 -239.35789491 370.61339928 -236.47900391 367.73608398 C-235.37909016 366.63317224 -234.27937968 365.53005777 -233.17985535 364.42675781 C-230.2131696 361.45129543 -227.24330211 358.47902922 -224.27254534 355.50763202 C-222.41235202 353.64672486 -220.55287385 351.78510615 -218.69364548 349.92323494 C-212.19542186 343.41578058 -205.69464136 336.9108933 -199.19140625 330.40844727 C-193.14803505 324.36567702 -187.11026723 318.31734801 -181.07509387 312.26639122 C-175.87589333 307.05408294 -170.67281178 301.84567022 -165.46673429 296.64023072 C-162.36504462 293.53879497 -159.26489845 290.43585547 -156.16865921 287.32897758 C-153.25594288 284.40652505 -150.33839028 281.4889861 -147.41718483 278.57501984 C-146.35169959 277.51057342 -145.28788813 276.44444826 -144.22596931 275.37644386 C-138.87489104 269.99671305 -133.49496648 264.86120315 -127.38991356 260.32972813 C-123.59470648 257.46526719 -120.24351852 254.10776875 -116.7890625 250.84765625 C-114.50390625 248.90625 -114.50390625 248.90625 -112.50390625 248.90625 C-112.30023438 248.36613281 -112.0965625 247.82601562 -111.88671875 247.26953125 C-109.94576141 243.95235839 -107.21403833 241.62962702 -104.37890625 239.09375 C-103.79431641 238.56112549 -103.20972656 238.02850098 -102.60742188 237.47973633 C-98.91208788 234.12484264 -95.16163656 230.84445391 -91.28515625 227.69921875 C-86.08292021 222.46275747 -83.68095771 217.51493963 -82.1171875 210.4453125 C-81.92924118 209.65530853 -81.74129486 208.86530457 -81.5476532 208.05136108 C-80.95573523 205.54786149 -80.38579777 203.03995759 -79.81640625 200.53125 C-79.42396234 198.85643363 -79.03009359 197.18195046 -78.63476562 195.5078125 C-77.73869312 191.69511505 -76.85234037 187.88056394 -75.99382019 184.05921936 C-75.66401607 182.60986652 -75.32272528 181.16308503 -74.97065735 179.71897888 C-73.84524324 174.98832944 -73.20697774 170.37431604 -72.77488708 165.53434753 C-71.06337149 147.6160905 -65.96440536 130.52613448 -61.17401505 113.24435043 C-59.93282836 108.75370006 -58.70959922 104.25816521 -57.48510742 99.76293945 C-55.98184685 94.24819083 -54.47698167 88.73390594 -52.96388245 83.22184753 C-49.8572883 71.90177466 -46.79768317 60.57039931 -43.79117393 49.22333336 C-43.16054907 46.84346542 -42.52880506 44.46389747 -41.89668274 42.08442688 C-39.52618064 33.16192386 -39.52618064 33.16192386 -37.16793823 24.23617554 C-36.1073832 20.21116327 -35.03461455 16.18950027 -33.9609375 12.16796875 C-33.49831009 10.39885132 -33.49831009 10.39885132 -33.02633667 8.59399414 C-32.73638824 7.51456543 -32.44643982 6.43513672 -32.14770508 5.32299805 C-31.77758049 3.92527412 -31.77758049 3.92527412 -31.39997864 2.49931335 C-26.40459921 -11.95636626 -11.38317091 -3.08296501 0 0 Z M-20.50390625 6.90625 C-20.65424316 7.49301514 -20.80458008 8.07978027 -20.95947266 8.68432617 C-23.70139276 19.35874756 -26.48982212 30.01034073 -29.56640625 40.59375 C-31.76260718 48.15568521 -33.74434081 55.7470902 -35.61181641 63.39624023 C-37.08167087 69.36030022 -38.72127053 75.25990849 -40.44140625 81.15625 C-42.64031359 88.70019365 -44.63265019 96.27455645 -46.50390625 103.90625 C-48.59055081 112.41637974 -50.87046938 120.84285814 -53.32421875 129.25390625 C-55.2582521 135.92682761 -56.96231101 142.63911014 -58.60961914 149.38769531 C-60.32108916 156.33172423 -62.27697593 163.1913698 -64.27563477 170.05737305 C-66.19936697 176.71445849 -67.90182069 183.40711885 -69.52587891 190.14282227 C-70.6953521 194.91056594 -71.99089303 199.61923054 -73.40625 204.3203125 C-73.89557007 205.94682739 -73.89557007 205.94682739 -74.39477539 207.60620117 C-75.03856736 209.72411864 -75.69231557 211.83904163 -76.35717773 213.95043945 C-76.65052002 214.91425537 -76.9438623 215.87807129 -77.24609375 216.87109375 C-77.51276855 217.7230835 -77.77944336 218.57507324 -78.05419922 219.45288086 C-78.58463087 222.34664183 -78.48952261 224.13067363 -77.50390625 226.90625 C-75.73980371 228.4734628 -75.73980371 228.4734628 -73.40234375 229.5625 C-72.09656372 230.24965088 -72.09656372 230.24965088 -70.7644043 230.95068359 C-69.81218994 231.43102051 -68.85997559 231.91135742 -67.87890625 232.40625 C-65.85057544 233.46947325 -63.82326168 234.5346386 -61.796875 235.6015625 C-60.22752197 236.41995605 -60.22752197 236.41995605 -58.62646484 237.25488281 C-53.75736131 239.82991145 -48.9754134 242.55228014 -44.19140625 245.28125 C-42.26852838 246.37292304 -40.34534732 247.4640622 -38.421875 248.5546875 C-37.45427246 249.10350586 -36.48666992 249.65232422 -35.48974609 250.21777344 C-30.3375375 253.13132002 -25.17034216 256.01803136 -20.00390625 258.90625 C-11.04446961 263.91667509 -2.10108562 268.95454102 6.83203125 274.01171875 C13.87555722 277.99661769 20.93300092 281.95614994 27.99609375 285.90625 C36.95543585 290.91684503 45.89891349 295.95454051 54.83203125 301.01171875 C61.87555722 304.99661769 68.93300092 308.95614994 75.99609375 312.90625 C84.95400707 317.91604597 93.8963349 322.95245483 102.82763672 328.00952148 C109.91287316 332.01857735 117.01459212 335.9975337 124.12109375 339.96875 C131.72801007 344.22015416 139.31368505 348.50498051 146.87109375 352.84375 C154.51913014 357.22958725 162.19725229 361.56005319 169.8994751 365.84988403 C171.62885631 366.81325781 173.35717059 367.77854608 175.08544922 368.74389648 C176.1632666 369.34274658 177.24108398 369.94159668 178.3515625 370.55859375 C179.29668701 371.08445068 180.24181152 371.61030762 181.21557617 372.15209961 C185.59727818 374.49507267 190.04344329 376.70179119 194.49609375 378.90625 C194.83116465 317.37933085 194.31597874 255.86634969 193.62636566 194.34388733 C193.56999236 189.31259602 193.5145529 184.28129493 193.45937902 179.24999034 C193.34208727 168.5615033 193.22084099 157.87306854 193.09546089 147.18467331 C193.05335014 143.59325594 193.01226818 140.00182946 192.97218132 136.41038895 C192.69707357 111.90204749 192.18820382 87.4063808 191.49609375 62.90625 C190.74861846 62.72267787 190.00114317 62.53910574 189.23101711 62.34997082 C187.75740011 61.98799083 187.75740011 61.98799083 186.25401306 61.61869812 C185.28095183 61.3796963 184.30789061 61.14069448 183.30534267 60.89445019 C175.15309056 58.88899631 167.02802995 56.85350411 158.99609375 54.40625 C152.2975575 52.36788616 145.54595397 50.63646785 138.74609375 48.96875 C130.15284596 46.86108729 121.642685 44.56405111 113.14941406 42.08618164 C106.47614307 40.15214775 99.76356166 38.44792531 93.01464844 36.80053711 C86.07285935 35.08961913 79.21553675 33.13406428 72.3515625 31.13671875 C66.42906951 29.42577633 60.48464715 27.86802288 54.49609375 26.40625 C46.7203865 24.50824272 39.03620764 22.37287103 31.3515625 20.13671875 C24.62292835 18.19289111 17.85747513 16.46750349 11.05297852 14.81176758 C3.71167369 13.00650479 -3.5439542 10.93589706 -10.79101562 8.78515625 C-12.04301758 8.41777344 -12.04301758 8.41777344 -13.3203125 8.04296875 C-14.05709229 7.82342529 -14.79387207 7.60388184 -15.55297852 7.37768555 C-17.65540433 6.78880687 -17.65540433 6.78880687 -20.50390625 6.90625 Z M413.25390625 8.2265625 C412.19776123 8.51176758 411.14161621 8.79697266 410.0534668 9.09082031 C408.92078369 9.40116211 407.78810059 9.71150391 406.62109375 10.03125 C405.45811768 10.34674805 404.2951416 10.66224609 403.09692383 10.98730469 C394.89832837 13.22109567 386.72931006 15.54905856 378.56787109 17.91430664 C372.97703663 19.52138641 367.37005403 20.89235004 361.6875 22.140625 C357.97607623 23.03100329 354.33473867 24.11253696 350.68359375 25.21875 C342.74244316 27.62141486 334.72744208 29.64987951 326.66088867 31.5871582 C320.82270232 33.00785184 315.06025107 34.6010107 309.3046875 36.3203125 C301.49597188 38.65023882 293.64166507 40.73451112 285.74151611 42.72958374 C281.93768094 43.69088569 278.13689864 44.66412607 274.3359375 45.63671875 C273.58010376 45.82996231 272.82427002 46.02320587 272.04553223 46.2223053 C256.64702817 50.1660565 241.29411674 54.29437582 226.04345703 58.77807617 C218.25180222 61.04658486 210.37463988 62.96681232 202.49609375 64.90625 C202.3403287 101.6787826 202.54456063 138.44766852 202.87109375 175.21875 C202.88119225 176.35594734 202.89129074 177.49314468 202.90169525 178.66480255 C203.50058725 245.4150398 204.50903641 312.16084536 205.49609375 378.90625 C209.00803541 377.53970451 212.10850006 376.026785 215.30859375 374.03125 C219.60794186 371.4013639 223.95640065 369.09202816 228.49609375 366.90625 C228.49609375 366.24625 228.49609375 365.58625 228.49609375 364.90625 C229.05941406 364.79796875 229.62273437 364.6896875 230.203125 364.578125 C232.86103489 363.79931665 234.83562983 362.62325483 237.18359375 361.15625 C243.15614516 357.48626272 249.20758877 354.00820313 255.49609375 350.90625 C255.49609375 350.24625 255.49609375 349.58625 255.49609375 348.90625 C256.33914063 348.74576172 256.33914063 348.74576172 257.19921875 348.58203125 C259.88466411 347.79192573 261.8777805 346.58337378 264.24609375 345.09375 C268.5656562 342.43407876 272.92700504 340.1061816 277.49609375 337.90625 C277.49609375 337.24625 277.49609375 336.58625 277.49609375 335.90625 C278.05941406 335.79796875 278.62273437 335.6896875 279.203125 335.578125 C281.86103489 334.79931665 283.83562983 333.62325483 286.18359375 332.15625 C292.15614516 328.48626272 298.20758877 325.00820313 304.49609375 321.90625 C304.49609375 321.24625 304.49609375 320.58625 304.49609375 319.90625 C305.05941406 319.79796875 305.62273437 319.6896875 306.203125 319.578125 C308.86103489 318.79931665 310.83562983 317.62325483 313.18359375 316.15625 C319.15614516 312.48626272 325.20758877 309.00820313 331.49609375 305.90625 C331.49609375 305.24625 331.49609375 304.58625 331.49609375 303.90625 C332.05941406 303.79796875 332.62273437 303.6896875 333.203125 303.578125 C335.86103489 302.79931665 337.83562983 301.62325483 340.18359375 300.15625 C346.15614516 296.48626272 352.20758877 293.00820313 358.49609375 289.90625 C358.49609375 289.24625 358.49609375 288.58625 358.49609375 287.90625 C359.07359375 287.803125 359.65109375 287.7 360.24609375 287.59375 C362.81950092 286.80743114 364.39290144 285.55433977 366.49609375 283.90625 C359.63394788 271.6552065 352.69088074 259.46223499 345.51489258 247.39208984 C341.28254323 240.26385604 337.12811764 233.09304465 332.99609375 225.90625 C327.84364844 216.94853726 322.6364739 208.02654382 317.36621094 199.13769531 C313.1319603 191.99321668 308.9317212 184.82931889 304.74609375 177.65625 C304.13693115 176.6132373 303.52776855 175.57022461 302.90014648 174.49560547 C302.05818726 173.05145264 302.05818726 173.05145264 301.19921875 171.578125 C300.70067383 170.7231543 300.20212891 169.86818359 299.68847656 168.98730469 C298.92077184 167.64743675 298.18669011 166.28744271 297.49609375 164.90625 C298.23859375 164.6175 298.98109375 164.32875 299.74609375 164.03125 C302.06349172 163.08322356 304.2752649 162.05779089 306.49609375 160.90625 C306.87894531 161.93878906 306.87894531 161.93878906 307.26953125 162.9921875 C308.66621644 166.31042685 310.34493906 169.40688059 312.12109375 172.53125 C312.50442871 173.20945801 312.88776367 173.88766602 313.28271484 174.58642578 C317.47771397 181.95697342 321.82306604 189.23892771 326.159729 196.52667236 C331.17136946 204.94927612 336.1156112 213.40666409 340.99609375 221.90625 C348.11407748 234.29695397 355.39102261 246.58783692 362.69384766 258.87011719 C365.30628691 263.27113244 367.90344047 267.68105697 370.49609375 272.09375 C370.91157471 272.80088135 371.32705566 273.5080127 371.75512695 274.23657227 C372.66916956 275.79290428 373.58270377 277.34953487 374.49609375 278.90625 C379.06715259 277.48678303 381.79399622 275.9195852 385.49609375 272.90625 C388.44304998 271.14153649 391.47170275 269.53363706 394.49609375 267.90625 C396.10138092 267.0124261 397.7055818 266.11664796 399.30859375 265.21875 C402.00664998 263.71000089 404.72239137 262.27128555 407.49609375 260.90625 C407.49609375 260.24625 407.49609375 259.58625 407.49609375 258.90625 C408.05941406 258.79796875 408.62273437 258.6896875 409.203125 258.578125 C411.86103489 257.79931665 413.83562983 256.62325483 416.18359375 255.15625 C422.15614516 251.48626272 428.20758877 248.00820313 434.49609375 244.90625 C434.49609375 244.24625 434.49609375 243.58625 434.49609375 242.90625 C435.05941406 242.79796875 435.62273437 242.6896875 436.203125 242.578125 C438.86103489 241.79931665 440.83562983 240.62325483 443.18359375 239.15625 C449.15614516 235.48626272 455.20758877 232.00820313 461.49609375 228.90625 C461.49609375 228.24625 461.49609375 227.58625 461.49609375 226.90625 C462.0271875 226.81472656 462.55828125 226.72320312 463.10546875 226.62890625 C466.3016479 225.66274098 468.8834845 224.05509249 471.74609375 222.34375 C472.82375 221.70308594 473.90140625 221.06242188 475.01171875 220.40234375 C475.8315625 219.90863281 476.65140625 219.41492188 477.49609375 218.90625 C477.00942155 212.70117947 475.42684923 207.23420886 473.53125 201.31640625 C472.55808273 198.11046276 471.77514806 194.92783227 471.05859375 191.65625 C469.96720129 186.73324851 468.64704417 181.91680826 467.18359375 177.09375 C465.06196035 170.08257259 463.23986877 163.02029405 461.49609375 155.90625 C459.80763887 149.02320927 458.06078259 142.18642173 455.99609375 135.40625 C453.93140247 128.62607026 452.18471114 121.78925372 450.49609375 114.90625 C448.8277629 108.10625799 447.10661314 101.35211923 445.05859375 94.65625 C442.38437863 85.90666546 440.23449445 77.02997345 438.08227539 68.13964844 C436.41086738 61.30246761 434.53818933 54.58060511 432.390625 47.87695312 C431.47147413 44.8244892 430.74059151 41.76957237 430.05859375 38.65625 C428.73690286 32.67959283 427.07103372 26.84769457 425.29711914 20.99316406 C423.88734739 16.32625654 422.64736871 11.64398519 421.49609375 6.90625 C418.4357273 6.90625 416.19881998 7.42735138 413.25390625 8.2265625 Z M474.90625 232.0625 C474.05556694 232.56294579 474.05556694 232.56294579 473.18769836 233.07350159 C471.30883693 234.18025081 469.43373185 235.29320595 467.55859375 236.40625 C466.24256356 237.18322272 464.92631714 237.95982932 463.60986328 238.73608398 C460.22100715 240.73586098 456.83530441 242.74090942 453.45062256 244.7477417 C450.47354889 246.51234324 447.4944542 248.27351986 444.515625 250.03515625 C438.96872312 253.31767754 433.42517949 256.60582484 427.8828125 259.89599609 C422.04691379 263.36000921 416.20918315 266.82093058 410.37109375 270.28125 C409.250979 270.94519775 408.13086426 271.60914551 406.97680664 272.29321289 C398.16110783 277.51667638 389.33409663 282.72062348 380.49609375 287.90625 C381.81710361 291.41035732 383.36177271 294.57583976 385.26171875 297.80078125 C386.09123047 299.21520508 386.09123047 299.21520508 386.9375 300.65820312 C387.53433594 301.66818359 388.13117188 302.67816406 388.74609375 303.71875 C390.02222606 305.89187386 391.29826516 308.06505245 392.57421875 310.23828125 C393.22712891 311.34768066 393.88003906 312.45708008 394.55273438 313.60009766 C397.54716694 318.69439487 400.52109255 323.8005901 403.49609375 328.90625 C404.6640023 330.90758722 405.83197123 332.9088892 407 334.91015625 C409.32457188 338.89467346 411.64449452 342.88184568 413.9609375 346.87109375 C415.11822955 348.86213034 416.27578109 350.85301611 417.43359375 352.84375 C417.99836426 353.81521973 418.56313477 354.78668945 419.14501953 355.78759766 C422.29257798 361.18455435 425.47826067 366.55609798 428.7109375 371.90234375 C429.05980515 372.48001999 429.40867279 373.05769623 429.76811218 373.65287781 C431.46412971 376.45984133 433.16549437 379.26333236 434.87475586 382.06225586 C435.47940674 383.0600708 436.08405762 384.05788574 436.70703125 385.0859375 C437.24634277 385.97007324 437.7856543 386.85420898 438.34130859 387.76513672 C439.49609375 389.90625 439.49609375 389.90625 439.49609375 391.90625 C436.59060493 393.94794485 435.09467329 394.90625 431.49609375 394.90625 C431.07948486 394.17325684 430.66287598 393.44026367 430.23364258 392.68505859 C422.22969597 378.61312614 414.17293419 364.57993299 405.90625 350.66015625 C401.9077492 343.9255266 397.95300262 337.16535519 393.99609375 330.40625 C386.86074306 318.22101977 379.6921907 306.05572693 372.49609375 293.90625 C368.79005423 295.29575277 365.4474719 296.97933102 362.0234375 298.9609375 C360.96970947 299.56929443 359.91598145 300.17765137 358.83032227 300.80444336 C357.70940186 301.45678955 356.58848145 302.10913574 355.43359375 302.78125 C354.25518127 303.4643678 353.07671382 304.14739078 351.89819336 304.83032227 C343.45883638 309.72892364 335.07719263 314.72001588 326.72265625 319.76171875 C320.64572109 323.42599537 314.53996894 327.04131416 308.43359375 330.65625 C307.86440216 330.99324921 307.29521057 331.33024841 306.70877075 331.67745972 C303.80066445 333.39922385 300.89234281 335.1206237 297.98388672 336.84179688 C292.31975188 340.19401979 286.6581087 343.55044832 280.99609375 346.90625 C278.75261209 348.23569045 276.50912249 349.56511751 274.265625 350.89453125 C269.70029847 353.59988545 265.13522005 356.30565768 260.5703125 359.01171875 C249.79800737 365.39733908 239.02460783 371.78111432 228.24609375 378.15625 C227.35946045 378.68114014 226.47282715 379.20603027 225.55932617 379.74682617 C220.89286956 382.50540967 216.21054842 385.23047843 211.49609375 387.90625 C213.75025841 390.36799954 216.03186268 391.92839123 218.94140625 393.55078125 C219.84052734 394.05544922 220.73964844 394.56011719 221.66601562 395.08007812 C222.64119141 395.62083984 223.61636719 396.16160156 224.62109375 396.71875 C226.14959961 397.57436523 226.14959961 397.57436523 227.70898438 398.44726562 C229.87282451 399.65790712 232.03789811 400.8663462 234.20410156 402.07275391 C238.43351773 404.42835428 242.65692539 406.7946056 246.88037109 409.16088867 C248.97147504 410.33228047 251.06295147 411.50300756 253.15478516 412.6730957 C261.06049452 417.09596005 268.94882087 421.54890957 276.83203125 426.01171875 C283.87555722 429.99661769 290.93300092 433.95614994 297.99609375 437.90625 C306.95543585 442.91684503 315.89891349 447.95454051 324.83203125 453.01171875 C331.87555722 456.99661769 338.93300092 460.95614994 345.99609375 464.90625 C354.95543585 469.91684503 363.89891349 474.95454051 372.83203125 480.01171875 C379.87555722 483.99661769 386.93300092 487.95614994 393.99609375 491.90625 C402.95543585 496.91684503 411.89891349 501.95454051 420.83203125 507.01171875 C427.87555739 510.99661778 434.93301631 514.95612216 441.99609375 518.90625 C452.23285004 524.63173066 462.45185129 530.38801795 472.66015625 536.1640625 C473.49321289 536.63102539 474.32626953 537.09798828 475.18457031 537.57910156 C476.64784311 538.41923157 478.09538321 539.2879317 479.51855469 540.19433594 C482.90669989 542.33474656 482.90669989 542.33474656 486.79561138 542.87256718 C490.65574924 541.49128894 493.05658084 538.88356323 495.86787415 536.01548767 C496.49284623 535.39393329 497.11781831 534.7723789 497.76172894 534.13198954 C499.85639445 532.04391992 501.93643072 529.94186077 504.0168457 527.83959961 C505.51424198 526.34107523 507.01251924 524.84343072 508.51161194 523.34660339 C512.58217545 519.2771894 516.64027254 515.1955439 520.69628549 511.11163402 C524.93590412 506.84704168 529.18682279 502.59374422 533.43656921 498.33924866 C541.4838655 490.27951079 549.52090948 482.20962898 557.5543434 474.13607651 C566.69996795 464.94577122 575.85692806 455.76679637 585.01487029 446.58876789 C603.85460834 427.7071987 622.68002622 408.8114056 641.49609375 389.90625 C639.83189195 385.5715514 636.53512393 382.66746876 633.30871582 379.46490479 C632.66730038 378.82036937 632.02588494 378.17583395 631.36503267 377.51176715 C629.21098859 375.34973521 627.04985339 373.19493466 624.88867188 371.04003906 C623.34442783 369.49308557 621.80060972 367.94570679 620.25718689 366.39793396 C616.06157517 362.19319209 611.85964658 357.99481613 607.6563015 353.79780674 C603.26466295 349.4112231 598.87789638 345.01977176 594.49035645 340.62908936 C586.65080698 332.78566622 578.80622014 324.94730221 570.95965081 317.1109024 C563.8398999 310.00009326 556.72541795 302.88404777 549.61474609 295.76416016 C541.36074642 287.49946797 533.10341032 279.23813124 524.84110403 270.98174262 C520.46605175 266.6098154 516.09237867 262.23653147 511.72218323 257.85974884 C507.61620324 253.74801261 503.5054021 249.64115946 499.39074898 245.5381031 C497.8772605 244.02727012 496.36549169 242.5147123 494.85552788 241.00035667 C492.80274426 238.94215134 490.74397099 236.89013725 488.68347168 234.83966064 C487.77793824 233.92743504 487.77793824 233.92743504 486.85411119 232.99678063 C481.80784056 227.99839355 480.84884665 228.54989079 474.90625 232.0625 Z M-90.79272854 237.93690968 C-91.68279908 238.83571873 -91.68279908 238.83571873 -92.59085083 239.75268555 C-93.22142674 240.38155261 -93.85200266 241.01041967 -94.50168693 241.65834332 C-96.62847407 243.78181753 -98.74800134 245.91239621 -100.86767578 248.04296875 C-102.38476349 249.56062018 -103.9022909 251.07783218 -105.42022705 252.59463501 C-109.55256731 256.72639925 -113.67869346 260.86432005 -117.80377436 265.00333023 C-122.11105619 269.3230779 -126.42396717 273.63719761 -130.73629761 277.9519043 C-138.90716245 286.12899614 -147.07291385 294.31117482 -155.23686397 302.49516964 C-164.52905442 311.80968121 -173.82689517 321.11854372 -183.12522721 330.42692375 C-202.25777067 349.58039684 -221.38316731 368.74099308 -240.50390625 387.90625 C-238.84029794 392.24535397 -235.53526228 395.14652378 -232.30307007 398.34759521 C-231.33883021 399.31439834 -231.33883021 399.31439834 -230.35511076 400.30073285 C-228.19638307 402.46275907 -226.0305767 404.61755189 -223.86474609 406.77246094 C-222.31724323 408.31939977 -220.77018041 409.86677891 -219.223526 411.41456604 C-215.01956801 415.61909885 -210.80946341 419.81742822 -206.59825087 424.01469326 C-202.19976179 428.40069647 -197.80691988 432.79234808 -193.41348267 437.18341064 C-186.03733316 444.55404629 -178.65770024 451.92117902 -171.27539062 459.28564453 C-163.67181019 466.87086512 -156.07033452 474.45818479 -148.47167969 482.04833984 C-148.00324683 482.51624726 -147.53481397 482.98415467 -147.05218618 483.46624109 C-144.70219387 485.81362331 -142.35224513 488.16104915 -140.00231242 490.50849104 C-120.50915285 509.9807344 -101.00886894 529.44583012 -81.50390625 548.90625 C-78.16294244 547.59490323 -75.06371537 546.18929032 -71.94921875 544.40234375 C-71.09569824 543.91411133 -70.24217773 543.42587891 -69.36279297 542.92285156 C-68.00951904 542.14119629 -68.00951904 542.14119629 -66.62890625 541.34375 C-65.21182373 540.52922363 -65.21182373 540.52922363 -63.76611328 539.69824219 C-57.40671427 536.03247741 -51.09384582 532.29777143 -44.8125 528.5 C-39.04324885 525.01667855 -33.24024052 521.58999959 -27.44140625 518.15625 C-26.8557489 517.80937134 -26.27009155 517.46249268 -25.66668701 517.10510254 C-17.06205555 512.00888339 -8.45309839 506.91999502 0.15771484 501.83422852 C10.79198207 495.55226531 21.41589742 489.25283294 32.04052734 482.95458984 C37.69199459 479.60448815 43.34409105 476.2554482 48.99609375 472.90625 C51.24609639 471.57292113 53.49609639 470.23958779 55.74609375 468.90625 C60.24609375 466.23958333 64.74609375 463.57291667 69.24609375 460.90625 C70.36024658 460.2460083 71.47439941 459.5857666 72.62231445 458.90551758 C74.86823486 457.5746078 77.11416582 456.24371582 79.36010742 454.9128418 C84.46923808 451.88530488 89.57828849 448.85763297 94.68692017 445.82925415 C106.50317374 438.82463573 118.3219196 431.82432194 130.1496582 424.83911133 C138.57645487 419.86134388 146.99669974 414.87253092 155.41381836 409.87841797 C160.94602363 406.59709411 166.48259434 403.32375461 172.03125 400.0703125 C173.04960937 399.4721875 174.06796875 398.8740625 175.1171875 398.2578125 C177.03366323 397.13286925 178.95156469 396.01035029 180.87109375 394.890625 C181.71800781 394.39304687 182.56492187 393.89546875 183.4375 393.3828125 C184.17685791 392.95049316 184.91621582 392.51817383 185.67797852 392.07275391 C187.63827886 390.90626412 187.63827886 390.90626412 189.49609375 388.90625 C178.40788687 382.25958156 167.17017939 375.90859554 155.85864258 369.65039062 C148.50907391 365.5836501 141.17861022 361.48560814 133.87109375 357.34375 C125.92575593 352.84111588 117.9670317 348.36341572 109.99609375 343.90625 C101.0367169 338.89571746 92.09327368 333.8579593 83.16015625 328.80078125 C76.11663028 324.81588231 69.05918658 320.85635006 61.99609375 316.90625 C53.03675165 311.89565497 44.09327401 306.85795949 35.16015625 301.80078125 C28.11663028 297.81588231 21.05918658 293.85635006 13.99609375 289.90625 C5.03818043 284.89645403 -3.9041474 279.86004517 -12.83544922 274.80297852 C-19.92068708 270.79392185 -27.0225403 266.8152108 -34.12890625 262.84375 C-60.07261986 248.33353834 -60.07261986 248.33353834 -72.515625 240.9375 C-73.30517578 240.46860352 -74.09472656 239.99970703 -74.90820312 239.51660156 C-76.39253949 238.63222151 -77.87445777 237.74376586 -79.35351562 236.85058594 C-85.10381273 233.41803964 -85.98885339 233.16843166 -90.79272854 237.93690968 Z M205.49609375 398.90625 C204.76676009 442.24622161 204.15526706 485.58716792 203.63176537 528.93010139 C203.52285129 537.94554947 203.41209421 546.96096401 203.2956543 555.97631836 C202.62118752 608.28874119 202.36597303 660.58955581 202.49609375 712.90625 C248.32373951 725.40172547 294.19544756 737.72451364 340.09741211 749.94433594 C341.71159609 750.37410925 341.71159609 750.37410925 343.35838985 750.81256485 C348.65422233 752.2225198 353.9502084 753.63189231 359.24650574 755.0401001 C369.3940035 757.73941972 379.53740979 760.45285153 389.67333984 763.1953125 C391.60173182 763.71621872 393.5301323 764.23709347 395.45854187 764.75793457 C399.05198581 765.72861612 402.6440641 766.70414907 406.23542786 767.68249512 C407.82902236 768.11337996 409.42266274 768.54409519 411.01635742 768.97460938 C412.09669156 769.27115921 412.09669156 769.27115921 413.19885063 769.57369995 C416.06205542 770.34351128 418.51536606 770.90625 421.49609375 770.90625 C427.86098726 748.16617556 434.08373413 725.39337418 440.13887787 702.56895447 C441.85093299 696.11873427 443.56821721 689.66990225 445.28480148 683.22088623 C445.73348053 681.53519472 446.18209131 679.84948504 446.63063431 678.16375732 C450.22827224 664.64383027 453.84487338 651.12905552 457.47265625 637.6171875 C457.72020157 636.69512386 457.96774689 635.77306023 458.22279358 634.82305527 C460.40834202 626.6828565 462.59484133 618.54291352 464.7833252 610.40350342 C465.24260118 608.69527363 465.70187048 606.98704205 466.16113281 605.27880859 C466.38397446 604.44999239 466.6068161 603.62117619 466.83641052 602.76724434 C468.50919528 596.54346298 470.17516517 590.31787597 471.83799744 584.09142876 C473.04206502 579.58757408 474.26351121 575.08875079 475.49316406 570.59179688 C476.05949514 568.49355714 476.62559681 566.39525546 477.19140625 564.296875 C477.44727509 563.37767273 477.70314392 562.45847046 477.96676636 561.51141357 C478.18801178 560.68296936 478.4092572 559.85452515 478.63720703 559.00097656 C478.92544846 557.94743988 478.92544846 557.94743988 479.21951294 556.87261963 C479.54496888 554.55876898 479.32561491 553.08663632 478.49609375 550.90625 C476.02503914 549.06868384 476.02503914 549.06868384 472.86328125 547.47265625 C472.28371674 547.15863358 471.70415222 546.8446109 471.10702515 546.52107239 C469.20127054 545.49156294 467.28631042 544.48053015 465.37109375 543.46875 C464.04051498 542.75299856 462.71076879 542.03569732 461.38183594 541.31689453 C459.35999141 540.22361308 457.33766502 539.13135396 455.31262207 538.04400635 C449.40883788 534.87378807 443.5688079 531.59797938 437.74609375 528.28125 C435.88696224 527.22613335 434.02758627 526.17144734 432.16796875 525.1171875 C430.78254883 524.33166504 430.78254883 524.33166504 429.36914062 523.53027344 C424.25412204 520.6389492 419.1245946 517.77356973 413.99609375 514.90625 C405.03668216 509.89577993 396.09327335 504.85795911 387.16015625 499.80078125 C380.11663028 495.81588231 373.05918658 491.85635006 365.99609375 487.90625 C357.03675165 482.89565497 348.09327401 477.85795949 339.16015625 472.80078125 C332.11663001 468.81588216 325.05915921 464.85639936 317.99609375 460.90625 C305.1947253 453.74591109 292.42619295 446.52828755 279.66210938 439.30175781 C268.7869253 433.14564019 257.90249883 427.00691482 246.99609375 420.90625 C238.53015375 416.16970253 230.07000191 411.42312291 221.62109375 406.65625 C220.64591797 406.10710937 219.67074219 405.55796875 218.66601562 404.9921875 C217.76689453 404.48429687 216.86777344 403.97640625 215.94140625 403.453125 C215.15266113 403.00807617 214.36391602 402.56302734 213.55126953 402.10449219 C211.82869029 401.10016587 210.15518422 400.01231031 208.49609375 398.90625 C207.50609375 398.90625 206.51609375 398.90625 205.49609375 398.90625 Z M185.87109375 403.40625 C185.26007813 403.74011719 184.6490625 404.07398438 184.01953125 404.41796875 C182.50967574 405.24367098 181.00261527 406.07448037 179.49609375 406.90625 C179.49609375 407.56625 179.49609375 408.22625 179.49609375 408.90625 C178.40941406 409.06673828 178.40941406 409.06673828 177.30078125 409.23046875 C174.26864835 409.9610523 172.25085523 411.05939571 169.62109375 412.71875 C168.76 413.25371094 167.89890625 413.78867187 167.01171875 414.33984375 C166.1815625 414.85675781 165.35140625 415.37367188 164.49609375 415.90625 C162.17408 417.26075802 159.83640046 418.58346795 157.49609375 419.90625 C157.49609375 420.56625 157.49609375 421.22625 157.49609375 421.90625 C156.75617188 422.01582031 156.01625 422.12539063 155.25390625 422.23828125 C152.35609337 422.94015944 150.76739358 423.85802712 148.37109375 425.59375 C142.69703118 429.5417532 136.67492452 432.81683462 130.49609375 435.90625 C130.49609375 436.56625 130.49609375 437.22625 130.49609375 437.90625 C129.75617188 438.01582031 129.01625 438.12539063 128.25390625 438.23828125 C125.35609337 438.94015944 123.76739358 439.85802712 121.37109375 441.59375 C115.69703118 445.5417532 109.67492452 448.81683462 103.49609375 451.90625 C103.49609375 452.56625 103.49609375 453.22625 103.49609375 453.90625 C102.75617188 454.01582031 102.01625 454.12539063 101.25390625 454.23828125 C98.35609337 454.94015944 96.76739358 455.85802712 94.37109375 457.59375 C88.69703118 461.5417532 82.67492452 464.81683462 76.49609375 467.90625 C76.49609375 468.56625 76.49609375 469.22625 76.49609375 469.90625 C75.76519531 470.01710938 75.03429687 470.12796875 74.28125 470.2421875 C71.35296302 470.94037654 69.46727176 471.92787339 66.93359375 473.53125 C61.95981078 476.63705113 56.88724064 479.52883285 51.76953125 482.390625 C50.64417969 483.14085937 50.64417969 483.14085937 49.49609375 483.90625 C49.49609375 484.56625 49.49609375 485.22625 49.49609375 485.90625 C48.40941406 486.06673828 48.40941406 486.06673828 47.30078125 486.23046875 C44.26864835 486.9610523 42.25085523 488.05939571 39.62109375 489.71875 C38.76 490.25371094 37.89890625 490.78867187 37.01171875 491.33984375 C36.1815625 491.85675781 35.35140625 492.37367188 34.49609375 492.90625 C32.17408 494.26075802 29.83640046 495.58346795 27.49609375 496.90625 C27.49609375 497.56625 27.49609375 498.22625 27.49609375 498.90625 C26.38621094 499.07060547 26.38621094 499.07060547 25.25390625 499.23828125 C22.35609337 499.94015944 20.76739358 500.85802712 18.37109375 502.59375 C12.69703118 506.5417532 6.67492452 509.81683462 0.49609375 512.90625 C0.49609375 513.56625 0.49609375 514.22625 0.49609375 514.90625 C-0.61378906 515.07060547 -0.61378906 515.07060547 -1.74609375 515.23828125 C-4.64390663 515.94015944 -6.23260642 516.85802712 -8.62890625 518.59375 C-14.30296882 522.5417532 -20.32507548 525.81683462 -26.50390625 528.90625 C-26.50390625 529.56625 -26.50390625 530.22625 -26.50390625 530.90625 C-27.24382812 531.01582031 -27.98375 531.12539063 -28.74609375 531.23828125 C-31.64390663 531.94015944 -33.23260642 532.85802712 -35.62890625 534.59375 C-41.30296882 538.5417532 -47.32507548 541.81683462 -53.50390625 544.90625 C-53.50390625 545.56625 -53.50390625 546.22625 -53.50390625 546.90625 C-54.24125 547.01453125 -54.97859375 547.1228125 -55.73828125 547.234375 C-58.66904566 547.94636861 -60.3208646 548.90806452 -62.75390625 550.65625 C-67.17849073 553.73486845 -71.75281408 556.36784142 -76.50390625 558.90625 C-75.64858004 564.94568752 -74.11063984 570.80988556 -72.62890625 576.71875 C-72.37238281 577.76095703 -72.11585938 578.80316406 -71.8515625 579.87695312 C-70.50880507 585.25135662 -69.01085062 590.49208699 -67.20507812 595.72729492 C-65.94570214 599.64091979 -65.09351037 603.64821556 -64.19140625 607.65625 C-61.38680225 619.77200939 -57.94211223 631.67730481 -54.41015625 643.59765625 C-52.17332179 651.23716748 -50.30246259 658.92341407 -48.49975586 666.67358398 C-46.79939406 673.88546332 -44.81326126 680.98909321 -42.73486328 688.09985352 C-41.0186981 694.00528674 -39.46103042 699.93192332 -38.00390625 705.90625 C-35.86787537 714.65165669 -33.44746974 723.29780524 -30.93359375 731.94140625 C-28.22622234 741.28039999 -25.7610957 750.68320469 -23.31640625 760.09375 C-23.04376953 761.14111328 -22.77113281 762.18847656 -22.49023438 763.26757812 C-21.82755686 765.81365488 -21.16545533 768.35987986 -20.50390625 770.90625 C-1.06456614 766.66639393 18.10369548 761.46514503 37.17578125 755.81640625 C43.92859279 753.83822969 50.7073712 752.12522575 57.55859375 750.53125 C69.56558407 747.73451974 81.37013066 744.31394277 93.1875 740.8125 C100.92223622 738.54778385 108.70698045 736.65669126 116.5534668 734.82958984 C122.72234169 733.37542287 128.77923924 731.69678065 134.84008789 729.84960938 C141.9332925 727.7161161 149.11637807 725.98060605 156.30908203 724.21826172 C164.19861649 722.26943739 172.01258673 720.11245688 179.80957031 717.82250977 C181.0214502 717.46757446 181.0214502 717.46757446 182.2578125 717.10546875 C182.95865967 716.89752686 183.65950684 716.68958496 184.3815918 716.4753418 C186.7361411 715.84164425 189.10391226 715.37545542 191.49609375 714.90625 C192.58609224 683.75482298 192.76285349 652.59687462 192.95520705 621.42992479 C193.03787338 608.09469499 193.13264135 594.75954246 193.2265141 581.42438769 C193.24218476 579.19179592 193.25771065 576.95920318 193.27320671 574.72661018 C193.45535187 548.55317114 193.717498 522.38106864 194.02495193 496.20879745 C194.4019074 464.10603222 194.65059535 432.01168331 194.49609375 399.90625 C191.23695256 399.90625 188.66279226 401.86127155 185.87109375 403.40625 Z " fill="#040404" transform="translate(299.50390625,111.09375)"/>
<path d="M0 0 C3.3109918 2.05667435 6.30606846 4.40782001 9.296875 6.89453125 C10.6144966 7.97045305 11.93356769 9.04460162 13.25390625 10.1171875 C13.94564941 10.67937988 14.63739258 11.24157227 15.35009766 11.82080078 C19.17804402 14.88979446 23.08057694 17.86051421 26.984375 20.83203125 C28.11214355 21.69115112 28.11214355 21.69115112 29.26269531 22.56762695 C31.02302188 23.90717551 32.78433212 25.24540098 34.546875 26.58203125 C32.06675653 29.13403721 29.81043849 31.06964817 26.546875 32.58203125 C23.70006527 31.47799941 21.55373677 29.90003232 19.26953125 27.90234375 C18.67333984 27.38542969 18.07714844 26.86851562 17.46289062 26.3359375 C16.85123047 25.79839844 16.23957031 25.26085937 15.609375 24.70703125 C14.3925889 23.64637571 13.17515265 22.58646549 11.95703125 21.52734375 C11.37969238 21.02493164 10.80235352 20.52251953 10.20751953 20.00488281 C8.03161936 18.1405567 5.79991543 16.35197193 3.546875 14.58203125 C4.82073137 24.25791901 6.14792778 33.92334245 7.546875 43.58203125 C3.091875 46.05703125 3.091875 46.05703125 -1.453125 48.58203125 C-4.517481 33.64912891 -6.73663121 18.72791365 -8.453125 3.58203125 C-3.22744781 -0.54989955 -3.22744781 -0.54989955 0 0 Z " fill="#000800" transform="translate(581.453125,232.41796875)"/>
<path d="M0 0 C1.73852703 8.03327408 2.93590909 16.11113034 4.0625 24.25 C4.40694672 26.71362638 4.75197804 29.17717111 5.09765625 31.640625 C5.32207397 33.25759277 5.32207397 33.25759277 5.55102539 34.90722656 C5.99218908 37.94619429 6.48403318 40.9729189 7 44 C1.63201094 48.02599179 1.63201094 48.02599179 -0.8046875 47.92578125 C-4.07694284 46.54584439 -6.64834311 44.35228168 -9.375 42.125 C-10.62084323 41.12468791 -11.86694476 40.12469745 -13.11328125 39.125 C-13.75217285 38.609375 -14.39106445 38.09375 -15.04931641 37.5625 C-16.97101299 36.02321863 -18.90889722 34.50766304 -20.85546875 33 C-21.78770264 32.27659424 -21.78770264 32.27659424 -22.73876953 31.53857422 C-23.92182984 30.6215837 -25.10631765 29.70643079 -26.29248047 28.79345703 C-29.79611631 26.06172082 -32.92725123 23.19291212 -36 20 C-31.545 17.525 -31.545 17.525 -27 15 C-26.16597656 15.71285156 -25.33195313 16.42570313 -24.47265625 17.16015625 C-18.09470055 22.59428465 -11.68287162 27.94035818 -5 33 C-6.19348939 22.87534362 -6.19348939 22.87534362 -8.125 12.875 C-8.83734936 9.72030996 -9.20646485 7.20020523 -9 4 C-2.25 0 -2.25 0 0 0 Z " fill="#020607" transform="translate(756,500)"/>
</svg>
