<?xml version="1.0" encoding="UTF-8"?>
<svg version="1.1" xmlns="http://www.w3.org/2000/svg" width="1000" height="1000">
<path d="M0 0 C330 0 660 0 1000 0 C1000 330 1000 660 1000 1000 C670 1000 340 1000 0 1000 C0 670 0 340 0 0 Z " fill="#FEFEFE" transform="translate(0,0)"/>
<path d="M0 0 C1.55843377 0.41946633 3.11694862 0.83863152 4.67553711 1.25752258 C8.03639723 2.1614307 11.39671674 3.06731219 14.75662231 3.97476196 C20.13956936 5.42857104 25.52365501 6.87812995 30.90795898 8.3269043 C36.65824447 9.87430595 42.40847533 11.42190792 48.15834045 12.97087097 C62.88220995 16.93693085 77.6100916 20.88787966 92.33984375 24.83203125 C94.50935437 25.41303235 96.67886426 25.99403617 98.84837341 26.57504272 C107.30693225 28.84017269 115.76556892 31.10501166 124.22439575 33.36914062 C129.17323431 34.69381657 134.12182153 36.01942854 139.07031059 37.34540939 C141.89943394 38.10308665 144.72888547 38.8595289 147.55836487 39.61587524 C156.18831756 41.92551919 164.80965194 44.26058828 173.41357422 46.66552734 C174.95529103 47.09438826 176.49703327 47.52315776 178.0388031 47.951828 C180.8495842 48.73357451 183.65679054 49.52665661 186.46229553 50.32710266 C187.6928215 50.66992783 188.92334747 51.01275299 190.19116211 51.3659668 C191.24782578 51.66544724 192.30448944 51.96492767 193.39317322 52.27348328 C199.62471477 53.54425773 204.7984839 52.7905617 210.8840332 51.14404297 C211.59390821 50.95457627 212.30378323 50.76510958 213.0351696 50.56990147 C215.3955497 49.93768294 217.75235813 49.29307147 220.109375 48.6484375 C221.80238877 48.19234648 223.49561651 47.73704913 225.18904114 47.28248596 C229.77401636 46.04948923 234.35605035 44.80587061 238.93766022 43.56043625 C243.76578085 42.25005927 248.59661131 40.94975363 253.42724609 39.64868164 C261.45709242 37.48489316 269.48553732 35.31597819 277.51318359 33.14404297 C288.87432333 30.07098907 300.24082103 27.01815242 311.609375 23.97265625 C313.39008721 23.49549354 315.17079807 23.0183258 316.95150757 22.54115295 C323.89182155 20.68156789 330.83233192 18.82271652 337.77294922 16.96426392 C342.79158475 15.62031321 347.80997094 14.27543482 352.828125 12.9296875 C353.63030079 12.71458464 354.43247658 12.49948177 355.25896072 12.27786064 C365.53582506 9.52091454 375.80448789 6.73578235 386.06439209 3.91638756 C390.35167953 2.73929297 394.64075917 1.56873158 398.92938232 0.39651489 C402.20343349 -0.50237818 405.47404131 -1.41306405 408.74462891 -2.32446289 C410.66813545 -2.85100371 412.59179035 -3.37700302 414.515625 -3.90234375 C415.79200081 -4.26451492 415.79200081 -4.26451492 417.09416199 -4.63400269 C424.84386256 -6.72465218 424.84386256 -6.72465218 428.49609375 -5.09375 C431.6395269 -0.82167177 432.76372249 3.80775684 434.07714844 8.85668945 C434.31710761 9.75359466 434.55706678 10.65049986 434.80429745 11.57458401 C435.59954368 14.55432963 436.38372303 17.53687323 437.16796875 20.51953125 C437.72805024 22.62642573 438.28883997 24.73313205 438.85029602 26.83966064 C440.34865491 32.46882953 441.83765513 38.10043373 443.3247261 43.73259354 C444.85643741 49.52809253 446.39607585 55.32148364 447.93530273 61.11499023 C449.76523164 68.00426824 451.59451451 74.89371328 453.41990662 81.78419495 C456.76556963 94.4112254 460.13318382 107.03181729 463.546875 119.640625 C463.90754264 120.97473001 464.26815006 122.3088513 464.62869263 123.64299011 C466.54691771 130.73853238 466.54691771 130.73853238 468.47570801 137.83120728 C473.80861752 157.39241546 473.80861752 157.39241546 475.13452148 166.55493164 C475.6523144 169.92215887 476.52930163 173.07705008 477.49609375 176.34375 C477.82609375 177.47683594 478.15609375 178.60992187 478.49609375 179.77734375 C479.43646852 182.85166216 479.43646852 182.85166216 480.5625 185.5546875 C481.43523729 187.75296301 481.97760919 189.77908552 482.43359375 192.09375 C483.30556974 196.19676878 484.40141395 200.17353535 485.66796875 204.171875 C486.25903281 206.1235016 486.78324746 208.09588678 487.26171875 210.078125 C489.5078061 218.77660875 493.17461268 223.66002466 499.49609375 229.90625 C500.69621229 231.27025027 501.88468046 232.64463223 503.05859375 234.03125 C505.4110297 236.74142966 507.86143085 239.27914601 510.43359375 241.78125 C513.34933576 244.63009162 515.80864904 247.57868431 518.24609375 250.84375 C522.21404375 255.9759488 526.76308131 259.34693854 532.0546875 262.99609375 C534.49609375 264.90625 534.49609375 264.90625 535.49609375 267.90625 C536.82268796 268.58622797 538.15751251 269.25018409 539.49609375 269.90625 C541.15604406 271.37730944 542.76354461 272.90822143 544.33622742 274.472229 C545.0447084 275.17285497 545.0447084 275.17285497 545.76750213 275.88763499 C547.34677601 277.45192309 548.91883505 279.02326307 550.4909668 280.59472656 C551.62253355 281.71867102 552.75450167 282.84221152 553.88684082 283.96537781 C556.95975728 287.01635271 560.0260788 290.07387263 563.09058356 293.13329411 C565.00524506 295.04431245 566.92119833 296.95402594 568.83759499 298.86330414 C575.52253684 305.52375528 582.20174161 312.18990462 588.8762207 318.86083984 C595.09922988 325.08021131 601.33525377 331.28632177 607.57733315 337.48654771 C612.93572196 342.81026277 618.2844678 348.14353903 623.62589675 353.48426986 C626.8164111 356.67399058 630.01079261 359.8595931 633.21509361 363.03546906 C636.2278067 366.02205094 639.22836508 369.02032739 642.21999359 372.02802467 C643.31980488 373.12965421 644.42390248 374.22702361 645.5325489 375.31976128 C647.0458453 376.81265739 648.54290365 378.32017233 650.03691101 379.83233643 C650.87884349 380.67225758 651.72077597 381.51217873 652.58822155 382.37755203 C654.82570126 385.34311251 655.4131836 387.20493506 655.49609375 390.90625 C654.58918285 392.74219799 654.58918285 392.74219799 652.99491882 394.39237976 C652.33932669 395.07592215 651.68373455 395.75946453 651.00827599 396.46372032 C650.17925585 397.26975512 649.35023571 398.07578991 648.49609375 398.90625 C647.75802093 399.62424125 647.75802093 399.62424125 647.00503755 400.35673738 C643.27480317 403.96862556 639.49547532 407.52681741 635.70550537 411.07584 C631.83672341 414.70041122 627.98131139 418.33913758 624.12641907 421.97846985 C623.305125 422.75369669 622.48383094 423.52892352 621.63764918 424.32764208 C610.05079834 435.28140695 598.603803 446.38112805 587.15549183 457.47931385 C577.88373093 466.4595018 568.56764407 475.38200664 559.12524414 484.18286133 C513.55071993 526.7221797 480.23335433 560.87938288 471.65206909 624.09823608 C470.33856048 633.76322663 467.84029566 642.99677187 465.08550072 652.33581161 C463.93140322 656.29352808 462.88358427 660.27863727 461.82763672 664.26342773 C461.42280102 665.77326841 461.01734533 667.28294299 460.61126709 668.79244995 C460.40925438 669.54418865 460.20724167 670.29592735 459.99910736 671.07044601 C459.11310645 674.36579571 458.22622568 677.66090833 457.33928108 680.95600414 C456.18269455 685.25308058 455.02677787 689.55033703 453.87109375 693.84765625 C453.64620144 694.68367937 453.42130913 695.51970249 453.1896019 696.38105965 C450.05056887 708.05498873 446.95392659 719.73945457 443.8866539 731.43243027 C442.64429685 736.16218244 441.39430074 740.88992176 440.14395332 745.61756706 C438.97574199 750.03848097 437.82050483 754.46251657 436.67506027 758.88938046 C436.14284773 760.93667955 435.60389894 762.98205571 435.06176758 765.02674866 C434.40701639 767.4962465 433.76307459 769.96864609 433.13208008 772.44432068 C432.84212158 773.52415726 432.55216309 774.60399384 432.25341797 775.71655273 C432.00888885 776.65280991 431.76435974 777.58906708 431.51242065 778.55369568 C430.28332647 781.39875549 429.22819943 782.4624306 426.49609375 783.90625 C424.45849609 783.90289307 424.45849609 783.90289307 422.20703125 783.34472656 C421.32241211 783.13303833 420.43779297 782.9213501 419.52636719 782.70324707 C418.52637695 782.44023804 417.52638672 782.177229 416.49609375 781.90625 C415.38008789 781.62422729 414.26408203 781.34220459 413.11425781 781.05163574 C409.10944157 780.02337568 405.1149987 778.96026211 401.12109375 777.890625 C399.58948859 777.48284662 398.05781445 777.07532726 396.52607727 776.66804504 C392.38156758 775.56514572 388.23812075 774.45830203 384.09488297 773.35063553 C380.59526103 772.41555129 377.09503313 771.48274677 373.59480381 770.54993916 C361.55998009 767.34255343 349.52762055 764.12597844 337.49609375 760.90625 C336.13261181 760.54137859 336.13261181 760.54137859 334.74158478 760.16913605 C322.2965304 756.83852853 309.85262248 753.50365535 297.40939713 750.16622162 C294.81175393 749.46959748 292.21403806 748.77324494 289.61630249 748.07696533 C273.38908529 743.72722744 257.16335299 739.37322282 240.95913124 734.93846703 C236.69545496 733.77242463 232.4303517 732.61160337 228.1656189 731.44943237 C224.91690054 730.56087307 221.67094771 729.66270959 218.42504883 728.76391602 C216.50744982 728.24058771 214.58973343 727.71768929 212.671875 727.1953125 C211.83124512 726.95901627 210.99061523 726.72272003 210.12451172 726.47926331 C208.95553345 726.16395912 208.95553345 726.16395912 207.76293945 725.84228516 C207.10203812 725.65993317 206.44113678 725.47758118 205.76020813 725.28970337 C200.37078064 724.37694289 195.56442434 724.92207219 190.33666992 726.36132812 C189.14262543 726.68522018 187.94858093 727.00911224 186.71835327 727.34281921 C185.40856405 727.70762078 184.09880139 728.07251775 182.7890625 728.4375 C181.38789385 728.82068819 179.98648884 729.20301301 178.58486938 729.58454895 C175.55127766 730.41195941 172.51920352 731.2446472 169.4881897 732.08145142 C164.60421459 733.42951363 159.71696154 734.76538571 154.82885742 736.09838867 C153.99084626 736.32691749 153.1528351 736.5554463 152.28942966 736.79090023 C150.56603047 737.2608131 148.84261524 737.73066711 147.11918449 738.20046425 C144.45575758 738.92683866 141.79262943 739.65430088 139.12953186 740.38188171 C125.93328639 743.98464073 112.72285178 747.53228317 99.50390625 751.05078125 C98.06722721 751.43323155 98.06722721 751.43323155 96.60152435 751.82340813 C88.87442886 753.87991671 81.14658315 755.9336 73.41851807 757.98646164 C66.80068644 759.74445231 60.18321035 761.50377051 53.56640625 763.265625 C52.65659248 763.50787371 51.74677872 763.75012241 50.80939484 763.99971199 C38.76946783 767.20781129 26.74570098 770.46923777 14.73828125 773.796875 C13.4056972 774.16533717 12.07309165 774.53372157 10.74046326 774.90202332 C4.79316649 776.54732219 -1.15058782 778.20366268 -7.08862305 779.88208008 C-9.10845763 780.44389463 -11.12838875 781.00536226 -13.1484375 781.56640625 C-14.03963287 781.82339294 -14.93082825 782.08037964 -15.84902954 782.34515381 C-23.45400216 784.43713992 -23.45400216 784.43713992 -27.50390625 782.90625 C-30.38466336 780.02549289 -30.85909208 776.55026544 -31.86035156 772.70898438 C-32.08910477 771.85360958 -32.31785797 770.99823479 -32.55354309 770.11693954 C-33.31950771 767.24630538 -34.07569654 764.37318511 -34.83203125 761.5 C-35.37387463 759.46197379 -35.91634822 757.42411503 -36.45941162 755.38641357 C-37.6228584 751.01584127 -38.78207526 746.64417725 -39.93798828 742.27160645 C-41.75931462 735.38210136 -43.58970993 728.49502791 -45.421875 721.60839844 C-47.29118083 714.58059868 -49.15995814 707.55266137 -51.0255127 700.52386475 C-56.58890683 679.56379559 -62.200189 658.61676668 -67.82756042 637.67379761 C-69.09340423 632.96197428 -70.35804898 628.24982913 -71.62279892 623.5377121 C-71.80578663 622.85596169 -71.98877434 622.17421127 -72.17730713 621.47180176 C-72.48055562 620.33017657 -72.48055562 620.33017657 -72.78993034 619.16548824 C-73.410791 616.8717801 -74.0497254 614.58531894 -74.69751167 612.29918003 C-76.6847218 605.19695701 -78.54050786 598.17277603 -79.71406591 590.8856259 C-84.87809163 558.99951719 -100.77514742 541.5501463 -123.70267916 519.83031678 C-128.32300905 515.41971569 -132.85337246 510.91840808 -137.39437866 506.42643738 C-144.9988595 498.92656725 -152.65084202 491.47980793 -160.34716797 484.07446289 C-168.24893115 476.47109623 -176.12472176 468.84249065 -183.96435547 461.17504883 C-184.45076738 460.69934564 -184.9371793 460.22364244 -185.43833096 459.733524 C-190.74933391 454.53833713 -196.05515209 449.3378668 -201.35993004 444.13632488 C-203.23009485 442.30289178 -205.10030132 440.46950117 -206.97055054 438.63615417 C-207.8830785 437.74137491 -208.79560647 436.84659565 -209.7357868 435.92470187 C-215.15023318 430.62056477 -220.58528596 425.33871589 -226.04009748 420.07610476 C-229.41395613 416.81897873 -232.77870034 413.55253377 -236.14218903 410.28470421 C-237.70468963 408.77156866 -239.27160474 407.26297663 -240.84317398 405.75926208 C-242.98405036 403.7102365 -245.10928194 401.64617468 -247.2315979 399.57795715 C-247.85929726 398.98528559 -248.48699662 398.39261403 -249.13371718 397.78198272 C-251.84691596 395.10971402 -253.34350891 393.38680675 -254.56770325 389.71907234 C-254.49258935 386.40728565 -254.04469851 385.56055388 -251.75546265 383.22938538 C-251.10186138 382.54758272 -250.44826012 381.86578007 -249.77485275 381.16331673 C-249.02544041 380.41848471 -248.27602806 379.67365269 -247.50390625 378.90625 C-246.30146208 377.6688548 -246.30146208 377.6688548 -245.0747261 376.40646172 C-242.23073286 373.49453807 -239.35789491 370.61339928 -236.47900391 367.73608398 C-235.37909016 366.63317224 -234.27937968 365.53005777 -233.17985535 364.42675781 C-230.2131696 361.45129543 -227.24330211 358.47902922 -224.27254534 355.50763202 C-222.41235202 353.64672486 -220.55287385 351.78510615 -218.69364548 349.92323494 C-212.19542186 343.41578058 -205.69464136 336.9108933 -199.19140625 330.40844727 C-193.14803505 324.36567702 -187.11026723 318.31734801 -181.07509387 312.26639122 C-175.87589333 307.05408294 -170.67281178 301.84567022 -165.46673429 296.64023072 C-162.36504462 293.53879497 -159.26489845 290.43585547 -156.16865921 287.32897758 C-153.25594288 284.40652505 -150.33839028 281.4889861 -147.41718483 278.57501984 C-146.35169959 277.51057342 -145.28788813 276.44444826 -144.22596931 275.37644386 C-138.87489104 269.99671305 -133.49496648 264.86120315 -127.38991356 260.32972813 C-123.59470648 257.46526719 -120.24351852 254.10776875 -116.7890625 250.84765625 C-114.50390625 248.90625 -114.50390625 248.90625 -112.50390625 248.90625 C-112.30023438 248.36613281 -112.0965625 247.82601562 -111.88671875 247.26953125 C-109.94576141 243.95235839 -107.21403833 241.62962702 -104.37890625 239.09375 C-103.79431641 238.56112549 -103.20972656 238.02850098 -102.60742188 237.47973633 C-98.91208788 234.12484264 -95.16163656 230.84445391 -91.28515625 227.69921875 C-86.08292021 222.46275747 -83.68095771 217.51493963 -82.1171875 210.4453125 C-81.92924118 209.65530853 -81.74129486 208.86530457 -81.5476532 208.05136108 C-80.95573523 205.54786149 -80.38579777 203.03995759 -79.81640625 200.53125 C-79.42396234 198.85643363 -79.03009359 197.18195046 -78.63476562 195.5078125 C-77.73869312 191.69511505 -76.85234037 187.88056394 -75.99382019 184.05921936 C-75.66401607 182.60986652 -75.32272528 181.16308503 -74.97065735 179.71897888 C-73.84524324 174.98832944 -73.20697774 170.37431604 -72.77488708 165.53434753 C-71.06337149 147.6160905 -65.96440536 130.52613448 -61.17401505 113.24435043 C-59.93282836 108.75370006 -58.70959922 104.25816521 -57.48510742 99.76293945 C-55.98184685 94.24819083 -54.47698167 88.73390594 -52.96388245 83.22184753 C-49.8572883 71.90177466 -46.79768317 60.57039931 -43.79117393 49.22333336 C-43.16054907 46.84346542 -42.52880506 44.46389747 -41.89668274 42.08442688 C-39.52618064 33.16192386 -39.52618064 33.16192386 -37.16793823 24.23617554 C-36.1073832 20.21116327 -35.03461455 16.18950027 -33.9609375 12.16796875 C-33.49831009 10.39885132 -33.49831009 10.39885132 -33.02633667 8.59399414 C-32.73638824 7.51456543 -32.44643982 6.43513672 -32.14770508 5.32299805 C-31.77758049 3.92527412 -31.77758049 3.92527412 -31.39997864 2.49931335 C-26.40459921 -11.95636626 -11.38317091 -3.08296501 0 0 Z " fill="#040403" transform="translate(299.50390625,111.09375)"/>
<path d="M0 0 C1.47738647 0.83446655 1.47738647 0.83446655 2.98461914 1.68579102 C4.5584436 2.59349243 4.5584436 2.59349243 6.1640625 3.51953125 C7.2667749 4.14593506 8.3694873 4.77233887 9.50561523 5.41772461 C17.98999765 10.25239049 26.41066093 15.19602175 34.82885742 20.14477539 C42.79232835 24.80452342 50.87290302 29.21866305 59.00244141 33.58056641 C66.33503607 37.52170131 73.57937549 41.59581932 80.79467773 45.74707031 C87.51737238 49.61314055 94.27015376 53.42247919 101.0390625 57.20703125 C102.08425049 57.79145996 103.12943848 58.37588867 104.20629883 58.97802734 C106.33432261 60.16742345 108.46249719 61.35654978 110.59082031 62.54541016 C124.78791798 70.47627739 138.97366817 78.42633763 153.12548828 86.43774414 C160.16882214 90.42261371 167.22612834 94.38201992 174.2890625 98.33203125 C183.23753536 103.33654756 192.17122931 108.36627155 201.09204102 113.41992188 C206.22068033 116.32297542 211.35708976 119.2113087 216.50390625 122.08203125 C218.18613281 123.02079102 218.18613281 123.02079102 219.90234375 123.97851562 C222.05629896 125.1795165 224.21118945 126.37884211 226.3671875 127.57617188 C231.94253367 130.68535903 237.40920304 133.89507694 242.7890625 137.33203125 C241.19502603 148.25948629 238.10488549 158.84740984 235.2421875 169.4921875 C234.67665819 171.60786609 234.11151243 173.72364724 233.54672241 175.83952332 C232.03029001 181.51610113 230.50845386 187.19121697 228.98548126 192.86604309 C227.40061777 198.77481444 225.82046481 204.68484534 224.23974609 210.59472656 C221.66953882 220.20145464 219.09620795 229.80734091 216.52050781 239.41259766 C213.61133694 250.26146006 210.70716532 261.11165011 207.8059082 271.96263123 C205.57550912 280.30448003 203.34235507 288.64559086 201.10887146 296.98661423 C200.42124391 299.55520551 199.73407311 302.12391861 199.04699707 304.69265747 C194.43120146 321.94563274 189.79415048 339.18678249 184.7890625 356.33203125 C175.75712795 354.90472595 166.99957123 352.63363516 158.1875 350.23828125 C156.63034316 349.81865513 155.07307338 349.39944789 153.51570129 348.98062134 C150.16043356 348.07739781 146.80592604 347.17142213 143.45199585 346.26324463 C138.08153819 344.80906065 132.70949836 343.36078583 127.3371582 341.91357422 C121.59759425 340.36721433 115.85811571 338.82054287 110.11915588 337.27194214 C95.35347377 333.28811764 80.58228233 329.32511538 65.80859375 325.37109375 C63.6292706 324.78770632 61.44994931 324.20431196 59.27062988 323.62091064 C50.76681742 321.3445954 42.26291883 319.06860258 33.75872803 316.79370117 C28.76332407 315.45732382 23.76822791 314.11980107 18.77332115 312.78156662 C16.95654597 312.29502104 15.13967025 311.80885065 13.32267189 311.32313919 C-2.54626006 307.08091531 -18.3803306 302.7146603 -34.2109375 298.33203125 C-34.34473393 244.72478809 -34.06042134 191.13391905 -33.37671506 137.53102684 C-33.29482109 131.08761639 -33.21676768 124.64416732 -33.14086914 118.20068359 C-32.21374283 39.51276644 -32.21374283 39.51276644 -31.2109375 5.33203125 C-28.58085381 8.7301434 -26.64427786 12.25273205 -24.77734375 16.109375 C-24.12184101 17.44080258 -23.46623897 18.77218128 -22.81054688 20.10351562 C-21.79048783 22.18706658 -20.77244343 24.27157214 -19.7565918 26.35717773 C-18.76876665 28.38137038 -17.77343043 30.40173795 -16.77734375 32.421875 C-16.47929337 33.03973373 -16.18124298 33.65759247 -15.87416077 34.29417419 C-14.56096326 36.950793 -13.24991342 39.28538158 -11.34594727 41.56420898 C-8.03732902 45.85349487 -5.86633236 50.67758814 -3.484375 55.52734375 C-2.93665436 56.62940155 -2.38893372 57.73145935 -1.82461548 58.86691284 C-0.07267393 62.39415185 1.67112817 65.92533398 3.4140625 69.45703125 C5.69476269 74.06537019 7.97898569 78.67194906 10.265625 83.27734375 C10.82583344 84.40630569 11.38604187 85.53526764 11.96322632 86.69844055 C15.61194122 94.02949952 19.35860145 101.29967348 23.1998291 108.53138733 C27.47528616 116.59011734 31.58181289 124.73142564 35.66113281 132.89086914 C36.94423924 135.45483181 38.23379293 138.01549268 39.5234375 140.57617188 C40.34413824 142.21464934 41.1644661 143.85331365 41.984375 145.4921875 C42.36860626 146.25346451 42.75283752 147.01474152 43.14871216 147.79908752 C45.7890625 153.10312338 45.7890625 153.10312338 45.7890625 155.33203125 C46.55992187 154.97109375 47.33078125 154.61015625 48.125 154.23828125 C49.12789062 153.77421875 50.13078125 153.31015625 51.1640625 152.83203125 C52.16179687 152.36796875 53.15953125 151.90390625 54.1875 151.42578125 C56.7890625 150.33203125 56.7890625 150.33203125 58.7890625 150.33203125 C56.06068936 142.95035594 52.69162979 136.02887182 49.02137756 129.07330322 C47.34347596 125.89102684 45.6837113 122.69931184 44.0234375 119.5078125 C43.67597725 118.84038025 43.328517 118.172948 42.97052765 117.48529053 C39.09069342 110.01577566 35.32478169 102.49013811 31.5703125 94.95703125 C31.23002014 94.27482513 30.88972778 93.59261902 30.53912354 92.88973999 C28.11953116 88.03861529 25.70382791 83.18556008 23.2890625 78.33203125 C20.84115419 73.41224593 18.39172712 68.49322648 15.93894958 63.5758667 C14.98302428 61.65770383 14.02957184 59.7383272 13.07629395 57.81884766 C9.55479558 50.74848784 5.89988846 43.77649714 2.06872559 36.87011719 C0.7890625 34.33203125 0.7890625 34.33203125 0.7890625 32.33203125 C0.1290625 32.33203125 -0.5309375 32.33203125 -1.2109375 32.33203125 C-3.63717727 27.67161637 -6.05811341 23.00850097 -8.47412109 18.34277344 C-9.29720261 16.7551002 -10.12174238 15.16818208 -10.94775391 13.58203125 C-12.13305389 11.30534461 -13.3131266 9.02601639 -14.4921875 6.74609375 C-14.86404175 6.0345816 -15.235896 5.32306946 -15.61901855 4.58999634 C-18.2109375 -0.44022534 -18.2109375 -0.44022534 -18.2109375 -2.66796875 C-11.15603564 -3.93785108 -6.25415187 -3.56604571 0 0 Z " fill="#A53AFD" transform="translate(536.2109375,525.66796875)"/>
<path d="M0 0 C0.88434723 0.00267883 1.76869446 0.00535767 2.67984009 0.00811768 C3.34542938 0.01156189 4.01101868 0.0150061 4.69677734 0.01855469 C4.74346128 19.14593905 4.73467586 38.2711078 4.51318359 57.39746094 C4.503605 58.22557659 4.49402641 59.05369225 4.48415756 59.90690231 C4.43299806 64.28341047 4.38020493 68.65989738 4.32666016 73.03637695 C4.20485834 83.01082657 4.0916408 92.98537151 3.98193359 102.95996094 C3.96415548 104.57467222 3.96415548 104.57467222 3.94601822 106.22200394 C3.739553 125.19006 3.59021305 144.15830585 3.45840716 163.12699389 C3.44287252 165.35819308 3.42719447 167.58939121 3.41147041 169.82058907 C3.31785953 183.1105198 3.22464368 196.40045225 3.14260864 209.69046021 C2.95437526 240.1415778 2.76173645 270.58273659 1.69677734 301.01855469 C0.6277417 301.28080589 0.6277417 301.28080589 -0.46289062 301.5483551 C-12.23806071 304.43895927 -23.95839944 307.3739937 -35.54931641 310.94042969 C-38.2694816 311.7216634 -40.91865085 312.39470144 -43.67822266 312.98730469 C-48.47926599 314.02233348 -53.15759298 315.37751637 -57.86572266 316.76855469 C-65.72068998 319.05570312 -73.60741495 321.13390562 -81.55322266 323.08105469 C-89.03111603 324.91488662 -96.42768278 326.88174634 -103.79248047 329.12426758 C-110.94337562 331.27107505 -118.19045369 333.00956903 -125.43994141 334.78808594 C-131.27459265 336.23011001 -137.05394734 337.76779305 -142.80322266 339.51855469 C-150.6024159 341.89355459 -158.48997703 343.83881164 -166.40698242 345.77929688 C-173.27414018 347.47537897 -180.05773134 349.3552244 -186.82861328 351.39868164 C-191.62117849 352.83965733 -196.39997556 354.03408207 -201.30322266 355.01855469 C-202.99139319 355.39052447 -204.67890018 355.76551874 -206.36572266 356.14355469 C-207.67822266 356.43522135 -208.99072266 356.72688802 -210.30322266 357.01855469 C-210.9317168 354.87374215 -211.55582523 352.72764434 -212.17822266 350.58105469 C-212.70029297 348.78861328 -212.70029297 348.78861328 -213.23291016 346.95996094 C-214.00805864 344.2039163 -214.66358531 341.44266244 -215.26416016 338.64355469 C-216.30596551 333.84420945 -217.66223441 329.1640149 -219.05322266 324.45605469 C-221.34037109 316.60108736 -223.41857359 308.71436239 -225.36572266 300.76855469 C-227.19955459 293.29066131 -229.16641431 285.89409457 -231.40893555 278.52929688 C-233.55574302 271.37840173 -235.29423699 264.13132365 -237.07275391 256.88183594 C-238.51477798 251.0471847 -240.05246102 245.26783 -241.80322266 239.51855469 C-244.17910298 231.71647026 -246.12485498 223.82591775 -248.06616211 215.90600586 C-249.7400757 209.12878941 -251.59438426 202.43636953 -253.61962891 195.75683594 C-255.14687995 190.67922206 -256.34935876 185.57641484 -257.49072266 180.40136719 C-258.46253443 176.35526625 -259.6151701 172.38057851 -260.80322266 168.39355469 C-261.0180127 167.67006836 -261.23280273 166.94658203 -261.45410156 166.20117188 C-262.40125893 163.01982462 -263.35724348 159.8416468 -264.32666016 156.66699219 C-264.60767578 155.71050781 -264.88869141 154.75402344 -265.17822266 153.76855469 C-265.42314453 152.95902344 -265.66806641 152.14949219 -265.92041016 151.31542969 C-266.39079594 148.49311496 -266.26578068 146.72078179 -265.30322266 144.01855469 C-263.33447266 142.39355469 -263.33447266 142.39355469 -260.80322266 141.01855469 C-259.90474609 140.52097656 -259.00626953 140.02339844 -258.08056641 139.51074219 C-257.16404297 139.01832031 -256.24751953 138.52589844 -255.30322266 138.01855469 C-254.45888672 137.52613281 -253.61455078 137.03371094 -252.74462891 136.52636719 C-246.71000232 133.01855469 -246.71000232 133.01855469 -243.30322266 133.01855469 C-243.30322266 132.35855469 -243.30322266 131.69855469 -243.30322266 131.01855469 C-241.01728435 129.48556049 -238.74514693 128.07994938 -236.36572266 126.70605469 C-235.68219727 126.30523682 -234.99867188 125.90441895 -234.29443359 125.49145508 C-232.30148875 124.32654819 -230.30263131 123.1723186 -228.30322266 122.01855469 C-227.34802734 121.45652344 -226.39283203 120.89449219 -225.40869141 120.31542969 C-219.69600283 117.01855469 -219.69600283 117.01855469 -216.30322266 117.01855469 C-216.30322266 116.35855469 -216.30322266 115.69855469 -216.30322266 115.01855469 C-214.43212891 113.68652344 -214.43212891 113.68652344 -211.86572266 112.20605469 C-210.50060547 111.41328125 -210.50060547 111.41328125 -209.10791016 110.60449219 C-205.84089364 108.7571263 -202.56899698 106.92058739 -199.27587891 105.12011719 C-197.62977301 104.20090558 -196.02310419 103.21152348 -194.42822266 102.20605469 C-192.30322266 101.01855469 -192.30322266 101.01855469 -189.30322266 101.01855469 C-189.30322266 100.35855469 -189.30322266 99.69855469 -189.30322266 99.01855469 C-187.43212891 97.68652344 -187.43212891 97.68652344 -184.86572266 96.20605469 C-183.50060547 95.41328125 -183.50060547 95.41328125 -182.10791016 94.60449219 C-178.84089364 92.7571263 -175.56899698 90.92058739 -172.27587891 89.12011719 C-170.62977301 88.20090558 -169.02310419 87.21152348 -167.42822266 86.20605469 C-165.30322266 85.01855469 -165.30322266 85.01855469 -162.30322266 85.01855469 C-162.30322266 84.35855469 -162.30322266 83.69855469 -162.30322266 83.01855469 C-160.43212891 81.68652344 -160.43212891 81.68652344 -157.86572266 80.20605469 C-156.95822266 79.68140625 -156.05072266 79.15675781 -155.11572266 78.61621094 C-154.18759766 78.08898437 -153.25947266 77.56175781 -152.30322266 77.01855469 C-151.03478516 76.27412109 -151.03478516 76.27412109 -149.74072266 75.51464844 C-143.68481098 72.01855469 -143.68481098 72.01855469 -140.30322266 72.01855469 C-140.30322266 71.35855469 -140.30322266 70.69855469 -140.30322266 70.01855469 C-138.01728435 68.48556049 -135.74514693 67.07994938 -133.36572266 65.70605469 C-132.68219727 65.30523682 -131.99867188 64.90441895 -131.29443359 64.49145508 C-129.30148875 63.32654819 -127.30263131 62.1723186 -125.30322266 61.01855469 C-124.34802734 60.45652344 -123.39283203 59.89449219 -122.40869141 59.31542969 C-116.69600283 56.01855469 -116.69600283 56.01855469 -113.30322266 56.01855469 C-113.30322266 55.35855469 -113.30322266 54.69855469 -113.30322266 54.01855469 C-111.43212891 52.68652344 -111.43212891 52.68652344 -108.86572266 51.20605469 C-107.95564453 50.67753906 -107.04556641 50.14902344 -106.10791016 49.60449219 C-102.84089364 47.7571263 -99.56899698 45.92058739 -96.27587891 44.12011719 C-94.62977301 43.20090558 -93.02310419 42.21152348 -91.42822266 41.20605469 C-89.30322266 40.01855469 -89.30322266 40.01855469 -86.30322266 40.01855469 C-86.30322266 39.35855469 -86.30322266 38.69855469 -86.30322266 38.01855469 C-84.43212891 36.68652344 -84.43212891 36.68652344 -81.86572266 35.20605469 C-80.95564453 34.67753906 -80.04556641 34.14902344 -79.10791016 33.60449219 C-75.84089364 31.7571263 -72.56899698 29.92058739 -69.27587891 28.12011719 C-67.62977301 27.20090558 -66.02310419 26.21152348 -64.42822266 25.20605469 C-62.30322266 24.01855469 -62.30322266 24.01855469 -59.30322266 24.01855469 C-59.30322266 23.35855469 -59.30322266 22.69855469 -59.30322266 22.01855469 C-57.43212891 20.68652344 -57.43212891 20.68652344 -54.86572266 19.20605469 C-53.95564453 18.67753906 -53.04556641 18.14902344 -52.10791016 17.60449219 C-48.84089364 15.7571263 -45.56899698 13.92058739 -42.27587891 12.12011719 C-40.62977301 11.20090558 -39.02310419 10.21152348 -37.42822266 9.20605469 C-35.30322266 8.01855469 -35.30322266 8.01855469 -32.30322266 8.01855469 C-32.30322266 7.35855469 -32.30322266 6.69855469 -32.30322266 6.01855469 C-26.39946353 2.6951571 -21.64947508 1.29228864 -14.92822266 0.76855469 C-14.14189453 0.69121094 -13.35556641 0.61386719 -12.54541016 0.53417969 C-8.35534107 0.15077467 -4.20774868 -0.01662277 0 0 Z " fill="#FE0000" transform="translate(489.30322265625,524.9814453125)"/>
<path d="M0 0 C0.16604736 0.64960693 0.33209473 1.29921387 0.50317383 1.96850586 C1.26961522 4.95903627 2.04102548 7.94826422 2.8125 10.9375 C3.07353516 11.95908203 3.33457031 12.98066406 3.60351562 14.03320312 C4.99621081 19.41485243 6.52622163 24.68536635 8.33227539 29.94165039 C9.37745171 33.16354493 10.08553142 36.44378673 10.8125 39.75 C12.30356056 46.3403842 14.04505085 52.82650068 15.9375 59.3125 C17.93921317 66.17730551 19.80586991 73.05283304 21.5 80 C23.15966569 86.7994262 24.97740117 93.53110453 26.9375 100.25 C29.42958115 108.79975532 31.6269616 117.40022747 33.74755859 126.04882812 C35.59564299 133.52796418 37.65345015 140.92708385 39.8137207 148.32128906 C41.81722098 155.22626859 43.5960942 162.17358431 45.26391602 169.16699219 C46.19612355 173.02255382 47.2276314 176.78204891 48.515625 180.53515625 C49.99960446 184.86496224 51.0750702 189.22171665 52.0625 193.6875 C52.9391793 197.62023406 53.81270294 201.45377129 55.12109375 205.26953125 C56 208 56 208 56 212 C53.515625 213.88671875 53.515625 213.88671875 50.25 215.6875 C49.18265625 216.28949219 48.1153125 216.89148438 47.015625 217.51171875 C44.59866405 218.70454533 42.6271391 219.52175866 40 220 C40 220.66 40 221.32 40 222 C38.6875 222.72916667 37.375 223.45833333 36.0625 224.1875 C35.24265625 224.64382813 34.4228125 225.10015625 33.578125 225.5703125 C31.92483837 226.48713509 30.26881306 227.39904647 28.609375 228.3046875 C25.17631032 230.18469911 21.83158817 232.06392953 18.625 234.3125 C16 236 16 236 13 236 C13 236.66 13 237.32 13 238 C12.01 238 11.02 238 10 238 C9.59386475 237.07703125 9.18772949 236.1540625 8.76928711 235.203125 C0.41910687 216.24431159 -8.0713161 197.36641253 -16.92790222 178.63833618 C-19.2752616 173.67332724 -21.61935702 168.70683011 -23.92578125 163.72265625 C-24.32837158 162.85519775 -24.73096191 161.98773926 -25.14575195 161.09399414 C-26 159 -26 159 -26 157 C-29.96 158.98 -29.96 158.98 -34 161 C-33.34799517 165.6649528 -31.48239005 169.64194306 -29.4921875 173.859375 C-29.13436188 174.62921219 -28.77653625 175.39904938 -28.40786743 176.19221497 C-27.63646817 177.85043231 -26.86265214 179.50752709 -26.08666992 181.16360474 C-24.45139816 184.65420814 -22.82843986 188.1504869 -21.20477295 191.64649963 C-20.37207537 193.43912439 -19.53877769 195.23147052 -18.70489502 197.02354431 C-14.92781592 205.14233212 -11.18609968 213.2768811 -7.47418213 221.42565918 C-6.82912956 222.84056366 -6.18278469 224.25487975 -5.53509521 225.6685791 C-4.63502501 227.63318864 -3.73886638 229.59953569 -2.84375 231.56640625 C-2.34037109 232.66927979 -1.83699219 233.77215332 -1.31835938 234.90844727 C-0.04229108 237.90082741 1.01875991 240.89982904 2 244 C0.08702939 245.15199331 -1.83052529 246.29637688 -3.75 247.4375 C-5.35101562 248.39462891 -5.35101562 248.39462891 -6.984375 249.37109375 C-9.43484971 250.69473099 -11.28991337 251.53297051 -14 252 C-14 252.66 -14 253.32 -14 254 C-15.17755859 254.56267578 -15.17755859 254.56267578 -16.37890625 255.13671875 C-22.34441509 258.04261692 -27.68833177 261.04228642 -33 265 C-34.67861472 265.98183125 -36.35810859 266.96280409 -38.05859375 267.90625 C-40.36040393 269.20304447 -42.61542497 270.56848391 -44.875 271.9375 C-48.19018643 273.92863332 -51.51387905 275.89975683 -54.875 277.8125 C-55.57367187 278.21082031 -56.27234375 278.60914063 -56.9921875 279.01953125 C-58.98792806 279.99410495 -60.83153434 280.54783115 -63 281 C-63 281.66 -63 282.32 -63 283 C-64.3125 283.72916667 -65.625 284.45833333 -66.9375 285.1875 C-67.75734375 285.64382813 -68.5771875 286.10015625 -69.421875 286.5703125 C-71.07516163 287.48713509 -72.73118694 288.39904647 -74.390625 289.3046875 C-77.82368968 291.18469911 -81.16841183 293.06392953 -84.375 295.3125 C-87 297 -87 297 -90 297 C-90 297.66 -90 298.32 -90 299 C-90.78503906 299.37511719 -91.57007813 299.75023437 -92.37890625 300.13671875 C-98.33662362 303.03882156 -103.71681447 306.01065582 -109 310 C-113.55172414 313 -113.55172414 313 -117 313 C-117 313.66 -117 314.32 -117 315 C-117.78503906 315.37511719 -118.57007813 315.75023437 -119.37890625 316.13671875 C-125.33662362 319.03882156 -130.71681447 322.01065582 -136 326 C-140.55172414 329 -140.55172414 329 -144 329 C-144 329.66 -144 330.32 -144 331 C-144.78503906 331.37511719 -145.57007813 331.75023437 -146.37890625 332.13671875 C-153.47970918 335.56839662 -153.47970918 335.56839662 -160.0625 339.875 C-163 342 -163 342 -166 342 C-166 342.66 -166 343.32 -166 344 C-167.3125 344.72916667 -168.625 345.45833333 -169.9375 346.1875 C-170.75734375 346.64382813 -171.5771875 347.10015625 -172.421875 347.5703125 C-174.07516163 348.48713509 -175.73118694 349.39904647 -177.390625 350.3046875 C-180.82368968 352.18469911 -184.16841183 354.06392953 -187.375 356.3125 C-190 358 -190 358 -193 358 C-193 358.66 -193 359.32 -193 360 C-194.01707031 360.54527344 -194.01707031 360.54527344 -195.0546875 361.1015625 C-200.81118981 364.21103051 -206.45281586 367.4345571 -212.00390625 370.8984375 C-214 372 -214 372 -216 372 C-216.1836805 363.54198552 -216.3477491 355.08363646 -216.5 346.625 C-216.51187725 345.96565208 -216.5237545 345.30630417 -216.53599167 344.62697601 C-217.03091101 316.79332068 -217.08595692 288.96249712 -217.0625 261.125 C-217.06164398 260.10186958 -217.06078796 259.07873917 -217.05990601 258.0246048 C-217.04851361 245.34971894 -217.02843458 232.6748587 -217 220 C-186.57409761 206.29667601 -186.57409761 206.29667601 -172.57305908 200.35354614 C-168.91993847 198.8026805 -165.27092525 197.2421802 -161.62109375 195.68359375 C-160.89007446 195.37171616 -160.15905518 195.05983856 -159.40588379 194.73851013 C-152.30089591 191.70589942 -145.21133946 188.63842543 -138.125 185.5625 C-135.7187502 184.51822872 -133.31250019 183.47395789 -130.90625 182.4296875 C-130.29362808 182.16377304 -129.68100616 181.89785858 -129.04981995 181.62388611 C-120.24528691 177.80311977 -111.43475876 173.99619691 -102.625 170.1875 C-100.95979694 169.46753215 -99.29459509 168.74756153 -97.62939453 168.02758789 C-93.7529818 166.35160471 -89.87650959 164.67575916 -86 163 C-86.59670954 159.87234132 -87.2519035 157.09360528 -88.5625 154.1875 C-89.036875 153.135625 -89.51125 152.08375 -90 151 C-97.80978749 153.37160399 -105.16628861 156.61791389 -112.6010437 159.94754028 C-116.42513169 161.65939553 -120.25587839 163.35624456 -124.0859375 165.0546875 C-124.85588547 165.39647537 -125.62583344 165.73826324 -126.41911316 166.09040833 C-133.96261578 169.43537547 -141.54340823 172.68976795 -149.13452148 175.92504883 C-157.3909937 179.44707304 -165.63345745 183.00052703 -173.87109375 186.56640625 C-176.19473097 187.57156064 -178.51838016 188.57668735 -180.84204102 189.58178711 C-184.34621372 191.09758678 -187.85003487 192.61417241 -191.35275269 194.1333313 C-194.64826775 195.5624785 -197.94510166 196.98854362 -201.2421875 198.4140625 C-202.23790268 198.84687027 -203.23361786 199.27967804 -204.25950623 199.7256012 C-205.19077835 200.12762253 -206.12205048 200.52964386 -207.08154297 200.94384766 C-207.88977509 201.29403961 -208.6980072 201.64423157 -209.5307312 202.0050354 C-212.31782195 203.12806285 -215.14177734 204.07490265 -218 205 C-218.17350782 191.75008367 -218.33979065 178.50008387 -218.5 165.25 C-218.51187725 164.26804028 -218.5237545 163.28608055 -218.53599167 162.27436447 C-218.95398874 127.51407081 -219.13822004 92.76281088 -219 58 C-215.53962465 57.04872416 -212.07847235 56.10030449 -208.6171875 55.15234375 C-207.65063232 54.88659546 -206.68407715 54.62084717 -205.68823242 54.3470459 C-199.52124555 52.65985138 -193.33877866 51.06759234 -187.125 49.5625 C-178.577206 47.46487657 -170.15405037 45.02458313 -161.71801758 42.51806641 C-155.28064329 40.62102982 -148.84093855 38.95051225 -142.29345703 37.48583984 C-135.78836207 36.00818934 -129.40952712 34.1476816 -123.00708008 32.28100586 C-117.03418251 30.55093643 -111.04105123 28.97328165 -105 27.5 C-96.22887433 25.35752765 -87.56349144 22.91347182 -78.890625 20.40625 C-69.94520351 17.82278464 -60.94417101 15.47337696 -51.90332031 13.24804688 C-42.18748126 10.85379994 -32.56946585 8.20431895 -22.95703125 5.42578125 C-18.43962537 4.12121953 -13.91415686 2.85172328 -9.375 1.625 C-8.20710937 1.30789062 -7.03921875 0.99078125 -5.8359375 0.6640625 C-3 0 -3 0 0 0 Z " fill="#15FD00" transform="translate(721,118)"/>
<path d="M0 0 C3.27847021 2.15421668 5.92410753 4.89210007 8.67156601 7.6662693 C9.31610143 8.30909587 9.96063685 8.95192244 10.62470365 9.61422861 C12.78672986 11.7729563 14.94152269 13.93876267 17.09643173 16.10459328 C18.64337056 17.65209614 20.19074971 19.19915896 21.73853683 20.74581337 C25.94306965 24.94977137 30.14139902 29.15987597 34.33866405 33.3710885 C38.72466726 37.76957758 43.11631887 42.16241949 47.50738144 46.5558567 C54.87801709 53.93200621 62.24514981 61.31163913 69.60961533 68.69394875 C77.19483591 76.29752918 84.78215559 83.89900485 92.37231064 91.49765968 C92.84021805 91.96609254 93.30812546 92.4345254 93.79021189 92.91715319 C96.13759411 95.2671455 98.48501994 97.61709424 100.83246183 99.96702695 C120.30470519 119.46018652 139.76980092 138.96047043 159.23022079 158.46543312 C157.57899176 162.69378747 154.44686951 165.54212684 151.29754257 168.68572426 C150.37640478 169.61683377 150.37640478 169.61683377 149.43665814 170.56675357 C147.37490347 172.64821427 145.30603341 174.72245158 143.23705673 176.79673195 C141.75845012 178.28623227 140.28023382 179.77612012 138.80237961 181.26636696 C134.78472154 185.31454197 130.76032314 189.35594812 126.73372936 193.39523339 C124.21989314 195.91715 121.70711092 198.44011238 119.19461441 200.96336365 C111.33782563 208.85286736 103.47664218 216.73795644 95.60957789 224.61721402 C86.51873699 233.72232803 77.44292071 242.84208002 68.37965369 251.97463971 C61.37785195 259.02812799 54.3627509 266.06820664 47.33738732 273.09822673 C43.1390174 277.30000265 38.94663156 281.50737152 34.76805496 285.72883987 C30.84019172 289.69631345 26.89615988 293.64695177 22.93889809 297.58509636 C21.48719194 299.03553139 20.04149139 300.49200523 18.60222435 301.95478439 C16.64081274 303.94640314 14.65919073 305.91539706 12.67083359 307.8800602 C11.81779573 308.76163653 11.81779573 308.76163653 10.94752479 309.66102248 C9.3211441 311.24143124 9.3211441 311.24143124 6.23022079 313.46543312 C1.84345692 313.36070542 -1.17739859 311.96198725 -4.94556046 309.79746437 C-5.92540909 309.24115334 -6.90525772 308.6848423 -7.91479874 308.11167336 C-8.96006729 307.50653908 -10.00533585 306.9014048 -11.08227921 306.27793312 C-13.33603899 304.99382186 -15.58994946 303.70997503 -17.84399796 302.42637062 C-19.00603272 301.7608344 -20.16797928 301.09514416 -21.3298378 300.42930031 C-26.66435548 297.38381697 -32.03049119 294.39555242 -37.39477921 291.40293312 C-46.3126412 286.41323486 -55.21342805 281.39395968 -64.10620499 276.35972023 C-71.14953885 272.37485066 -78.20684505 268.41544445 -85.26977921 264.46543312 C-94.22912131 259.45483809 -103.17259894 254.41714261 -112.10571671 249.35996437 C-119.14924268 245.37506543 -126.20668637 241.41553319 -133.26977921 237.46543312 C-142.22912131 232.45483809 -151.17259894 227.41714261 -160.10571671 222.35996437 C-167.14924375 218.37506482 -174.20679594 214.41573043 -181.26977921 210.46543312 C-213.11796943 192.64349427 -213.11796943 192.64349427 -226.70727921 184.71543312 C-227.42979874 184.29681007 -228.15231827 183.87818703 -228.89673233 183.44687843 C-230.53855556 182.48220518 -232.15729078 181.47837887 -233.76977921 180.46543312 C-233.76977921 180.13543312 -233.76977921 179.80543312 -233.76977921 179.46543312 C-224.18948156 178.67402437 -214.60853375 177.89113785 -205.02670193 177.11852455 C-200.57540416 176.75934583 -196.12436469 176.39745604 -191.67383194 176.02890968 C-187.3625122 175.6719996 -183.05062479 175.32281216 -178.73827934 174.97852516 C-177.10981468 174.84723379 -175.48155545 174.71336262 -173.85354042 174.57660866 C-162.13464759 173.59468323 -150.52855096 173.31069965 -138.76977921 173.46543312 C-138.76977921 168.18543312 -138.76977921 162.90543312 -138.76977921 157.46543312 C-140.19496368 157.58040642 -141.62014816 157.69537971 -143.08852005 157.81383705 C-156.52154316 158.89649819 -169.95519155 159.97112123 -183.38950825 161.03760815 C-190.29614913 161.58610057 -197.20253795 162.13746581 -204.10840225 162.69565773 C-210.77329069 163.2343637 -217.43877821 163.76497863 -224.10470772 164.2906723 C-226.64740202 164.492525 -229.1898829 164.69708507 -231.73213768 164.90439987 C-235.29371775 165.19437223 -238.85593598 165.47469757 -242.41846085 165.75278664 C-243.46862885 165.84053856 -244.51879684 165.92829048 -245.60078812 166.01870155 C-253.37449114 166.61015283 -259.4362056 166.76239147 -266.20727921 162.40293312 C-267.07224014 161.85508156 -267.93720108 161.30723 -268.82837296 160.74277687 C-269.46903702 160.32125343 -270.10970108 159.89973 -270.76977921 159.46543312 C-267.08818166 156.34437956 -263.24766291 153.93974723 -259.01977921 151.65293312 C-251.94325661 147.74749769 -245.00139351 143.6426933 -238.08227921 139.46543312 C-228.85051482 133.89631693 -219.57939118 128.40297391 -210.26977921 122.96543312 C-201.23578418 117.68741851 -192.23162232 112.36551808 -183.26977921 106.96543312 C-173.69490663 101.19595862 -164.06794132 95.52189349 -154.41626358 89.88242531 C-144.9749473 84.36419029 -135.58253627 78.7701475 -126.21631241 73.12510109 C-117.73328914 68.0214499 -109.19484726 63.01687811 -100.64157486 58.03229713 C-93.6926774 53.98069337 -86.77677296 49.88332212 -79.91821671 45.68027687 C-79.27804108 45.28848244 -78.63786545 44.896688 -77.97829056 44.49302101 C-74.90614124 42.61119273 -71.83884904 40.72206365 -68.77832413 38.82139015 C-67.68366837 38.14833839 -66.5890126 37.47528664 -65.46118546 36.78183937 C-64.50413712 36.18830666 -63.54708878 35.59477394 -62.56103897 34.98325539 C-59.69082338 33.42249878 -56.89390948 32.40200878 -53.76977921 31.46543312 C-48.86353532 41.02099966 -44.35267958 50.6991919 -40.03390884 60.53217506 C-38.28306405 64.51726874 -36.52017713 68.49703257 -34.75806046 72.47715187 C-34.23750832 73.65375122 -34.23750832 73.65375122 -33.70643997 74.85412025 C-30.07676862 83.04872002 -26.34095264 91.19294068 -22.59009171 99.33262062 C-19.22563636 106.63477064 -15.90524714 113.95684101 -12.58227921 121.27793312 C-8.56764623 130.12232144 -4.54588018 138.96329862 -0.50024796 147.79355812 C-0.14557953 148.56797752 0.2090889 149.34239693 0.57450485 150.14028358 C2.277272 153.85794194 3.98141052 157.57496021 5.68798447 161.29087257 C8.90162112 168.29720134 12.08097502 175.31831076 15.19897079 182.36777687 C15.50395493 183.05078362 15.80893906 183.73379036 16.12316513 184.43749428 C18.23022079 189.23279235 18.23022079 189.23279235 18.23022079 191.46543312 C21.53022079 190.47543312 24.83022079 189.48543312 28.23022079 188.46543312 C27.79379257 187.51740822 27.35736435 186.56938332 26.90771103 185.59263039 C1.06067237 129.43632159 1.06067237 129.43632159 -11.14429092 101.84140968 C-14.9265169 93.31160393 -18.7900329 84.82082572 -22.6775856 76.33869362 C-23.69936637 74.10771022 -24.71894144 71.87573238 -25.73779678 69.64341164 C-28.72905397 63.09214186 -31.72663967 56.54466895 -34.77583694 50.02012062 C-36.03056322 47.32907768 -37.27301459 44.63248424 -38.51297379 41.93461037 C-39.09635236 40.67320437 -39.6853672 39.41438834 -40.28024673 38.15836525 C-41.09571745 36.43537283 -41.89035419 34.70256553 -42.68384171 32.96933937 C-43.13710831 31.99811134 -43.59037491 31.02688332 -44.05737686 30.02622414 C-44.76977921 27.46543312 -44.76977921 27.46543312 -44.2348671 25.33115578 C-42.273398 22.83331428 -40.18576506 21.66066191 -37.41431046 20.10996437 C-35.77776505 19.18171852 -35.77776505 19.18171852 -34.10815811 18.23472023 C-32.93310161 17.58203196 -31.75780428 16.92977708 -30.58227921 16.27793312 C-28.20916963 14.94556477 -25.83923521 13.60759003 -23.46899796 12.27012062 C-22.88674454 11.94311668 -22.30449112 11.61611275 -21.70459366 11.2791996 C-18.36894127 9.39875807 -15.0882659 7.45693154 -11.85181046 5.41074562 C-11.16691544 4.97915138 -10.48202042 4.54755714 -9.776371 4.10288429 C-8.55490597 3.32391704 -7.34094044 2.53301527 -6.13623428 1.72837257 C-2.30197366 -0.69531774 -2.30197366 -0.69531774 0 0 Z " fill="#56DFFD" transform="translate(781.7697792053223,340.53456687927246)"/>
<path d="M0 0 C3.54823215 1.39025746 6.82695785 2.92774571 10.1484375 4.80078125 C11.14166016 5.35894531 12.13488281 5.91710937 13.15820312 6.4921875 C14.21974609 7.09289062 15.28128906 7.69359375 16.375 8.3125 C17.48552734 8.93769531 18.59605469 9.56289063 19.74023438 10.20703125 C23.16208957 12.13461805 26.58140134 14.06664454 30 16 C31.49321777 16.84377197 31.49321777 16.84377197 33.01660156 17.70458984 C36.78887582 19.83621398 40.56083496 21.96838951 44.33154297 24.1027832 C51.37635496 28.08890139 58.43571159 32.04851946 65.5 36 C67.5755626 37.16268586 69.6510835 38.32544617 71.7265625 39.48828125 C76.00961034 41.88767447 80.29689792 44.27930558 84.5859375 46.66796875 C86.68241659 47.84092258 88.77877535 49.01409151 90.875 50.1875 C91.85017578 50.72826172 92.82535156 51.26902344 93.83007812 51.82617188 C94.72919922 52.33083984 95.62832031 52.83550781 96.5546875 53.35546875 C97.34343262 53.79528076 98.13217773 54.23509277 98.94482422 54.68823242 C100.93382319 55.95776099 102.36783566 57.31254407 104 59 C98.78858477 61.28562178 93.57412267 63.56408655 88.35668945 65.8359375 C86.58174152 66.61001156 84.8076464 67.38604417 83.03442383 68.1640625 C80.48740056 69.28119047 77.93740648 70.39126917 75.38671875 71.5 C74.59287277 71.84998047 73.79902679 72.19996094 72.98112488 72.56054688 C72.24058365 72.88087891 71.50004242 73.20121094 70.73706055 73.53125 C70.08642136 73.81548828 69.43578217 74.09972656 68.76542664 74.39257812 C67 75 67 75 64 75 C64.3609375 75.75925781 64.721875 76.51851563 65.09375 77.30078125 C65.5578125 78.29464844 66.021875 79.28851563 66.5 80.3125 C66.9640625 81.29863281 67.428125 82.28476562 67.90625 83.30078125 C69 86 69 86 69 89 C69.53028809 88.75467529 70.06057617 88.50935059 70.60693359 88.2565918 C77.38569661 85.12865416 84.18809571 82.05501186 91 79 C92.72307373 78.22317871 92.72307373 78.22317871 94.48095703 77.43066406 C97.9583031 75.87200333 101.44603745 74.33923896 104.9375 72.8125 C106.57887939 72.07229614 106.57887939 72.07229614 108.25341797 71.31713867 C118.21709172 67.01355467 118.21709172 67.01355467 124 69 C127.90493342 70.8774386 131.63407397 73.00427581 135.375 75.1875 C137.61961163 76.47166891 139.86440851 77.75551406 142.109375 79.0390625 C143.26508714 79.70455609 144.42068605 80.37024635 145.57617188 81.03613281 C150.90057641 84.09014808 156.26380274 87.07371884 161.625 90.0625 C170.54302653 95.05190189 179.44365056 100.07147441 188.33642578 105.10571289 C195.37975964 109.09058246 202.43706584 113.04998867 209.5 117 C218.4470437 122.00371703 227.37959486 127.03214417 236.29858398 132.08569336 C241.45127779 135.00277501 246.61261808 137.90338679 251.78515625 140.78515625 C252.91566406 141.41550781 254.04617188 142.04585937 255.2109375 142.6953125 C257.39073322 143.90969753 259.57166376 145.12204857 261.75390625 146.33203125 C266.63727147 149.05348999 271.416865 151.79572271 276 155 C275.45085937 155.41121094 274.90171875 155.82242188 274.3359375 156.24609375 C272.71677078 157.46182261 271.118919 158.70626334 269.5390625 159.97265625 C262.98682667 164.67164575 257.87629786 166.57321988 249.953125 167.05078125 C249.01878632 167.1217099 248.08444763 167.19263855 247.12179565 167.26571655 C244.96889268 167.42883805 242.81546952 167.58517987 240.66168213 167.73617554 C236.65223724 168.02505633 232.64636376 168.34700974 228.64013672 168.67700195 C219.39906964 169.43607975 210.15624091 170.17187072 200.91300583 170.90402603 C198.09611554 171.12728935 195.27926876 171.35109437 192.46243286 171.57504272 C168.60889046 173.47090879 144.7529525 175.33452128 120.89453125 177.16796875 C119.7253994 177.25782043 118.55626755 177.34767212 117.35170746 177.44024658 C105.8457358 178.32421466 94.33960104 179.20601736 82.83312321 180.08337307 C78.53649038 180.41113963 74.23992412 180.73977375 69.9433651 181.06850624 C67.03382988 181.29073826 64.12419587 181.51163949 61.21455383 181.73246765 C59.39683841 181.87123868 57.57914489 182.01029704 55.76147461 182.1496582 C54.44839876 182.25029902 54.44839876 182.25029902 53.10879612 182.35297298 C48.34415513 182.7234052 43.58284939 183.12060507 38.82278442 183.54598999 C37.79321153 183.63784419 36.76363863 183.72969839 35.70286655 183.82433605 C33.73643553 184.00135029 31.77025327 184.18116053 29.804389 184.36436176 C22.51460342 185.02297372 15.32136175 185.22839603 8 185 C8.165 185.78375 8.33 186.5675 8.5 187.375 C8.92012279 190.4208902 9.05128428 193.16632557 9.03125 196.2265625 C9.02673828 197.12197754 9.02222656 198.01739258 9.01757812 198.93994141 C9.00887695 199.95967041 9.00887695 199.95967041 9 201 C10.09610596 200.89977539 11.19221191 200.79955078 12.3215332 200.69628906 C42.09052332 197.98174953 71.8750346 195.54094476 101.67976761 193.25485229 C106.1977044 192.90806736 110.71552513 192.55978234 115.2333498 192.21154022 C123.08251317 191.60651612 130.93171977 191.00206406 138.78111267 190.40002441 C150.18554133 189.52530966 161.58938705 188.64392307 172.99223709 187.74887085 C177.26911105 187.41387494 181.54629935 187.0829241 185.82348633 186.75195312 C187.94309239 186.58707535 190.06256548 186.42047691 192.18188477 186.25195312 C202.81801297 185.40741436 213.32226975 184.75796099 224 185 C221.130397 188.09863234 218.29698367 190.17759278 214.625 192.25 C213.56804932 192.85191162 212.51109863 193.45382324 211.42211914 194.07397461 C210.29281982 194.70956299 209.16352051 195.34515137 208 196 C205.62187187 197.35227378 203.24653478 198.70941919 200.87109375 200.06640625 C200.27904648 200.40386368 199.68699921 200.74132111 199.07701111 201.08900452 C194.02991311 203.96989321 189.03567084 206.93126368 184.0625 209.9375 C176.37510899 214.57745979 168.66423594 219.17582075 160.9375 223.75 C160.36830841 224.08699921 159.79911682 224.42399841 159.212677 224.77120972 C156.3045707 226.49297385 153.39624906 228.2143737 150.48779297 229.93554688 C144.82365813 233.28776979 139.16201495 236.64419832 133.5 240 C131.25651834 241.32944045 129.01302874 242.65886751 126.76953125 243.98828125 C122.78257578 246.35090015 118.79576316 248.71375963 114.80917358 251.07699585 C102.98924603 258.08379219 91.16666387 265.08600739 79.33544922 272.07373047 C69.30678617 277.99802662 59.28736029 283.93789682 49.26786804 289.87768555 C45.05681721 292.3739558 40.8449457 294.86883788 36.6328125 297.36328125 C34.81829601 298.4379977 33.00379505 299.51274034 31.18930054 300.5874939 C29.49520688 301.59082303 27.80095102 302.59387826 26.10668945 303.59692383 C25.05956787 304.21720459 24.01244629 304.83748535 22.93359375 305.4765625 C21.93440918 306.0634082 20.93522461 306.65025391 19.90576172 307.25488281 C17.9634492 308.42138003 16.04266509 309.62446987 14.14501953 310.86230469 C12.82219971 311.71550293 12.82219971 311.71550293 11.47265625 312.5859375 C10.7031665 313.09946777 9.93367676 313.61299805 9.14086914 314.14208984 C7 315 7 315 5.26877975 314.44117165 C1.9461111 312.33054991 -0.68629137 309.58100226 -3.44134521 306.79916382 C-4.08588063 306.15633725 -4.73041605 305.51351068 -5.39448285 304.85120451 C-7.55650907 302.69247682 -9.71130189 300.52667045 -11.86621094 298.36083984 C-13.41314977 296.81333698 -14.96052891 295.26627416 -16.50831604 293.71961975 C-20.71284885 289.51566176 -24.91117822 285.30555716 -29.10844326 281.09434462 C-33.49444647 276.69585554 -37.88609808 272.30301363 -42.27716064 267.90957642 C-49.64779629 260.53342691 -57.01492902 253.15379399 -64.37939453 245.77148438 C-71.96461512 238.16790394 -79.55193479 230.56642827 -87.14208984 222.96777344 C-87.60999726 222.49934058 -88.07790467 222.03090772 -88.55999109 221.54827993 C-90.90737331 219.19828762 -93.25479915 216.84833888 -95.60224104 214.49840617 C-115.0744844 195.0052466 -134.53958012 175.50496269 -154 156 C-152.34828196 151.74238754 -149.16802712 148.89589215 -145.98898315 145.74847412 C-145.36657435 145.12435646 -144.74416554 144.5002388 -144.10289586 143.85720849 C-142.01326453 141.76427936 -139.91655845 139.67858492 -137.81982422 137.59277344 C-136.3215818 136.09509507 -134.82377946 134.59697636 -133.3263855 133.09844971 C-129.25672032 129.02820978 -125.18091 124.96417371 -121.10399008 120.9012022 C-116.84563664 116.65533563 -112.5929313 112.40381967 -108.33963013 108.15289307 C-100.28302218 100.10250589 -92.2213287 92.05723134 -84.15780747 84.01376939 C-74.97866661 74.85696891 -65.80519162 65.69450129 -56.63219428 56.53154707 C-37.76110544 37.68137377 -18.88289259 18.83834853 0 0 Z " fill="#FD8D01" transform="translate(213,345)"/>
<path d="M0 0 C15.58669084 3.39956631 31.03080468 7.35253524 46.34472656 11.81933594 C52.19985185 13.51663448 58.07802201 15.05434067 64 16.5 C70.79938 18.15984865 77.53112621 19.97730205 84.25 21.9375 C92.89499513 24.45855173 101.59373137 26.67525675 110.33886719 28.82006836 C116.78224631 30.41216422 123.14113815 32.17276188 129.48925781 34.10571289 C135.60978802 35.94318914 141.79454722 37.47761619 148 39 C154.88301648 40.68861052 161.71977481 42.43543893 168.5 44.5 C176.3862421 46.89999111 184.35964267 48.89654866 192.36523438 50.85742188 C193.32494141 51.09267578 194.28464844 51.32792969 195.2734375 51.5703125 C196.11310059 51.77414551 196.95276367 51.97797852 197.81787109 52.18798828 C202.56158401 53.39848308 207.27941842 54.70262573 212 56 C213.09364298 87.66235177 213.12352416 119.3093364 213.06866455 150.98754883 C213.05824044 157.66682629 213.05382703 164.34610728 213.04882812 171.02539062 C213.03825913 184.01693711 213.02151046 197.00846724 213 210 C197.01977169 217.51085184 197.01977169 217.51085184 189.125 220.859375 C188.38596436 221.17529602 187.64692871 221.49121704 186.88549805 221.81671143 C184.59132116 222.79681248 182.29571373 223.77350507 180 224.75 C178.44130746 225.41513313 176.88271332 226.08049689 175.32421875 226.74609375 C167.52408567 230.07641541 167.52408567 230.07641541 164.86572266 231.19372559 C163.59934889 231.74099062 162.34375162 232.31375348 161.09912109 232.90881348 C158.61729957 234.0727238 156.5300545 234.99160573 153.76464844 235.03540039 C151.01858348 233.4241578 150.18157215 231.25132858 148.765625 228.43359375 C148.19199219 227.30888672 147.61835938 226.18417969 147.02734375 225.02539062 C146.4345968 223.82957526 145.84215274 222.63360972 145.25 221.4375 C144.64319158 220.23699022 144.03513283 219.03711156 143.42578125 217.83789062 C141.93808268 214.89791487 140.46353758 211.95205775 139 209 C134.7794035 210.3595759 130.9318902 211.94043847 127 214 C128.43641085 217.04218216 129.87432554 220.08365123 131.3125 223.125 C131.91868164 224.40890625 131.91868164 224.40890625 132.53710938 225.71875 C133.13168945 226.97558594 133.13168945 226.97558594 133.73828125 228.2578125 C134.1245166 229.07540039 134.51075195 229.89298828 134.90869141 230.73535156 C135.83236082 232.65212057 136.80721942 234.54409293 137.79296875 236.4296875 C139 239 139 239 139 242 C120.3958695 250.46221644 101.67305419 258.62375698 82.87353516 266.64208984 C82.01769836 267.00750885 81.16186157 267.37292786 80.28009033 267.74942017 C78.59625073 268.46698584 76.91133106 269.18202292 75.22528076 269.89437866 C71.24499771 271.58181114 67.29916732 273.31168381 63.39306641 275.16503906 C62.66896072 275.50234039 61.94485504 275.83964172 61.19880676 276.18716431 C59.85414192 276.81702985 58.51652773 277.46228553 57.1882782 278.12606812 C54.00336305 279.6046111 52.29785036 280.0635176 48.82421875 279.32275391 C46.3830642 278.17941233 44.02504321 277.0322988 41.69921875 275.671875 C40.90032227 275.2092627 40.10142578 274.74665039 39.27832031 274.27001953 C38.42334961 273.76841309 37.56837891 273.26680664 36.6875 272.75 C34.80138498 271.65781091 32.91463956 270.56670991 31.02734375 269.4765625 C30.0410498 268.90583008 29.05475586 268.33509766 28.03857422 267.74707031 C22.96614192 264.83060514 17.85843302 261.9777925 12.75 259.125 C11.70626221 258.54145752 10.66252441 257.95791504 9.5871582 257.35668945 C7.45770226 256.16633972 5.32806291 254.97631802 3.19824219 253.78662109 C-10.35930168 246.21302521 -23.91028434 238.6276568 -37.4375 231 C-38.35418457 230.48429443 -39.27086914 229.96858887 -40.21533203 229.43725586 C-46.20376126 226.05548341 -52.11979499 222.56653918 -58 219 C-57.30895418 212.55326996 -55.55142743 206.52811221 -53.75 200.3125 C-51.51646645 192.48629876 -49.36133143 184.65819888 -47.4375 176.75 C-45.58459629 169.15362703 -43.4914639 161.65035436 -41.30273438 154.14453125 C-39.05629525 146.36530216 -37.10841015 138.52420406 -35.17993164 130.66113281 C-33.58783578 124.21775369 -31.82723812 117.85886185 -29.89428711 111.51074219 C-28.05681086 105.39021198 -26.52238381 99.20545278 -25 93 C-23.14508483 85.43910214 -21.16216649 77.95834029 -18.89453125 70.51171875 C-17.05709066 64.39081792 -15.52257797 58.20576118 -14 52 C-12.14199196 44.43180038 -10.16860327 36.93532507 -7.90551758 29.47875977 C-4.97412281 19.7354521 -2.52292873 9.85523119 0 0 Z " fill="#FEF000" transform="translate(279,118)"/>
<path d="M0 0 C12.7350469 24.63747727 25.25683405 49.38056307 37.67924881 74.17682648 C38.81550116 76.44348689 39.95329805 78.70936581 41.09152222 80.97503662 C42.89955756 84.57452676 44.70347767 88.17604947 46.50419998 91.77920341 C47.17747495 93.12490974 47.85209024 94.46994637 48.52808762 95.81428719 C49.4571423 97.66266711 50.38119127 99.51346363 51.30395508 101.36499023 C52.08830681 102.93155617 52.08830681 102.93155617 52.88850403 104.5297699 C54 107 54 107 54 109 C50.13079644 107.54671326 46.59107217 105.76285747 42.9765625 103.76171875 C42.11570541 103.2864399 42.11570541 103.2864399 41.23745728 102.80155945 C39.36495661 101.76654475 37.49491955 100.72716957 35.625 99.6875 C34.31355001 98.96096767 33.0020257 98.23456947 31.69042969 97.50830078 C21.98725875 92.12936907 12.32157742 86.68517438 2.671875 81.2109375 C-3.37236178 77.78390164 -9.43533804 74.39072282 -15.5 71 C-24.44598299 65.99703975 -33.37972301 60.97323714 -42.29418945 55.91430664 C-47.4646696 52.98360667 -52.65011688 50.08321787 -57.85546875 47.21484375 C-58.995 46.58449219 -60.13453125 45.95414062 -61.30859375 45.3046875 C-63.51251295 44.0867992 -65.7194191 42.87429596 -67.9296875 41.66796875 C-68.92613281 41.11625 -69.92257812 40.56453125 -70.94921875 39.99609375 C-71.82924561 39.51325928 -72.70927246 39.0304248 -73.6159668 38.53295898 C-76.10759258 36.93081681 -77.94185778 35.11728706 -80 33 C-79.38708603 32.73406036 -78.77417206 32.46812073 -78.14268494 32.19412231 C-71.63487385 29.37040252 -65.12711548 26.54656126 -58.61938477 23.72265625 C-56.20599019 22.67541681 -53.79257522 21.6282244 -51.37915039 20.58105469 C-49.03441155 19.5636831 -46.68973582 18.54616606 -44.34512329 17.52850342 C-42.00875455 16.51491957 -39.6719827 15.5022644 -37.33480835 14.49053955 C-31.63326152 12.02072666 -25.9398791 9.53500717 -20.26220703 7.01074219 C-19.20538223 6.54344696 -18.14855743 6.07615173 -17.05970764 5.59469604 C-15.07315778 4.71544202 -13.08914069 3.83043527 -11.10813904 2.93875122 C-10.22755325 2.55016937 -9.34696747 2.16158752 -8.43969727 1.76123047 C-7.67488541 1.4194577 -6.91007355 1.07768494 -6.12208557 0.72555542 C-4 0 -4 0 0 0 Z " fill="#FCEE01" transform="translate(426,373)"/>
<path d="M0 0 C0.87588223 31.37801501 1.09135615 62.7367242 1.0625 94.125 C1.06121597 95.53161015 1.06121597 95.53161015 1.05990601 96.96663666 C1.04845906 108.64444379 1.02830144 120.32222176 1 132 C-1.38642475 128.88857234 -3.2657059 125.78636536 -5.07421875 122.30078125 C-5.65526367 121.18251953 -6.23630859 120.06425781 -6.83496094 118.91210938 C-7.45275452 117.71238402 -8.07026169 116.51251113 -8.6875 115.3125 C-9.0019104 114.7043042 -9.3163208 114.0961084 -9.64025879 113.46948242 C-13.59972287 105.80876922 -17.45255617 98.1130307 -21.04144287 90.27052307 C-23.38731984 85.19298239 -25.93724973 80.25004655 -28.5703125 75.31640625 C-33.60984381 65.8041221 -38.48562856 56.21494202 -43.29931641 46.58666992 C-44.65484923 43.87785101 -46.01682606 41.17232844 -47.37890625 38.46679688 C-48.24518011 36.73717366 -49.11108075 35.00736346 -49.9765625 33.27734375 C-50.38266754 32.47231918 -50.78877258 31.66729462 -51.20718384 30.83787537 C-54 25.22890272 -54 25.22890272 -54 23 C-40.17502998 16.79657159 -26.32863608 10.65858772 -12.375 4.75 C-11.24980957 4.27264404 -10.12461914 3.79528809 -8.96533203 3.3034668 C-1.1282346 0 -1.1282346 0 0 0 Z " fill="#FBED01" transform="translate(493,343)"/>
<path d="M0 0 C7.89393059 2.20783371 15.73374231 4.52528354 23.54736328 7.00488281 C29.12650401 8.76002886 34.74427388 10.35687327 40.375 11.9375 C50.02530632 14.6522024 59.52264348 17.73673439 69 21 C69 25.62 69 30.24 69 35 C68.08283203 35.45785889 67.16566406 35.91571777 66.22070312 36.38745117 C59.31861 39.83494263 52.42012883 43.289362 45.5300293 46.76077271 C42.06872807 48.5040844 38.60572903 50.24400879 35.14257812 51.98364258 C33.36583378 52.87710336 31.58980283 53.77198408 29.81445312 54.66821289 C27.20111793 55.98704996 24.58520188 57.30064051 21.96875 58.61328125 C21.18528198 59.01017654 20.40181396 59.40707184 19.59460449 59.81599426 C14.8175429 62.20500706 10.03211938 64.20653951 5 66 C4.67 60.39 4.34 54.78 4 49 C8.85600803 46.77550291 13.71224898 44.55152923 18.5690918 42.32885742 C20.2189698 41.57362589 21.86871154 40.81809658 23.51831055 40.06225586 C25.89856191 38.97169672 28.27931213 37.88223311 30.66015625 36.79296875 C31.38960953 36.45847214 32.11906281 36.12397552 32.87062073 35.77934265 C37.22195007 33.79006965 41.5950353 31.86762416 46 30 C39.50350943 27.74489638 32.95509876 25.83595844 26.3125 24.0625 C24.37872684 23.54102942 22.44513308 23.01889315 20.51171875 22.49609375 C19.57634277 22.24327637 18.6409668 21.99045898 17.67724609 21.72998047 C12.10208731 20.20985237 6.54980357 18.61001127 1 17 C0.1679418 11.27959989 -0.12036664 5.77759884 0 0 Z " fill="#010404" transform="translate(648,470)"/>
<path d="M0 0 C0.70167656 6.18403214 1.39499515 12.36893038 2.08129883 18.5546875 C2.31480176 20.64933205 2.55040401 22.74374388 2.78833008 24.83789062 C4.34498936 38.55492206 5.49603385 52.20261183 6 66 C-2.43356096 71.08494116 -2.43356096 71.08494116 -4.96020508 70.70605469 C-8.35176839 69.53209884 -10.79106572 67.0331865 -13.4375 64.6875 C-14.04932129 64.15423096 -14.66114258 63.62096191 -15.29150391 63.0715332 C-20.65643533 58.36911773 -25.89488632 53.53139402 -31.1171875 48.671875 C-38.84219083 41.51211582 -46.94877049 34.78708829 -55 28 C-52.42961953 26.00336517 -49.88441837 24.25981274 -47 22.75 C-46.01 22.21632813 -46.01 22.21632813 -45 21.671875 C-42.50856533 20.83490866 -41.41826962 21.00367292 -39 22 C-37.359375 23.3828125 -37.359375 23.3828125 -35.75 25.125 C-33.32354777 27.6647897 -30.86330866 30.03671122 -28.1875 32.3125 C-23.99869112 35.91340588 -20.15174915 39.81253749 -16.296875 43.765625 C-14.28989522 45.71799308 -12.2827979 47.3873813 -10 49 C-9.71797731 40.92710054 -10.81607779 33.22547596 -12 25.25 C-12.3780928 22.67232676 -12.75321556 20.09421567 -13.125 17.515625 C-13.37636719 15.81841309 -13.37636719 15.81841309 -13.6328125 14.08691406 C-13.95834481 11.35019168 -14.07189696 8.7513427 -14 6 C-12.04414675 4.99515796 -10.08523763 3.99626195 -8.125 3 C-7.03445313 2.443125 -5.94390625 1.88625 -4.8203125 1.3125 C-2 0 -2 0 0 0 Z " fill="#030105" transform="translate(619,672)"/>
<path d="M0 0 C2.93949555 1.36234313 4.93175644 3.34445662 7.28125 5.56640625 C8.26376337 6.48497387 9.24683915 7.40294027 10.23046875 8.3203125 C11.15472656 9.18527344 12.07898438 10.05023438 13.03125 10.94140625 C14.37861907 12.13661342 15.73195445 13.32516265 17.09375 14.50390625 C20.10198528 17.11842567 23.07255249 19.77092281 26.03125 22.44140625 C29.01187721 25.13124056 32.00370233 27.80450989 35.03125 30.44140625 C36.36458333 31.60807292 37.69791667 32.77473958 39.03125 33.94140625 C39.9284375 34.72128906 40.825625 35.50117188 41.75 36.3046875 C42.6678125 37.11292969 43.585625 37.92117188 44.53125 38.75390625 C45.3871875 39.50285156 46.243125 40.25179687 47.125 41.0234375 C49.03125 42.94140625 49.03125 42.94140625 49.03125 44.94140625 C44.74125 46.92140625 40.45125 48.90140625 36.03125 50.94140625 C21.20504206 37.19627597 21.20504206 37.19627597 14.81640625 30.6953125 C11.6908338 27.62445467 8.36693752 24.78028924 5.03125 21.94140625 C4.70264444 30.88563871 5.9379429 39.64830221 7.03125 48.50390625 C7.22444598 50.10085254 7.41715846 51.6978574 7.609375 53.29492188 C8.07775782 57.17778152 8.55269001 61.05978835 9.03125 64.94140625 C7.07539675 65.94624829 5.11648763 66.9451443 3.15625 67.94140625 C2.06570313 68.49828125 0.97515625 69.05515625 -0.1484375 69.62890625 C-2.96875 70.94140625 -2.96875 70.94140625 -4.96875 70.94140625 C-5.75458387 63.22235726 -6.53716899 55.50298634 -7.31565857 47.78319359 C-7.67727965 44.19823572 -8.04000032 40.61339635 -8.40527344 37.02880859 C-8.75802793 33.56666422 -9.10784236 30.10423403 -9.45565796 26.64159012 C-9.65306793 24.68389993 -9.85348694 22.72651392 -10.05395508 20.76913452 C-10.17407959 19.56834259 -10.2942041 18.36755066 -10.41796875 17.13037109 C-10.52455811 16.07780121 -10.63114746 15.02523132 -10.7409668 13.94076538 C-10.96973554 10.92842907 -11.00852949 7.96115613 -10.96875 4.94140625 C-9.56123779 4.07223738 -8.1422979 3.22155476 -6.71875 2.37890625 C-5.92984375 1.90324219 -5.1409375 1.42757813 -4.328125 0.9375 C-1.96875 -0.05859375 -1.96875 -0.05859375 0 0 Z " fill="#030300" transform="translate(384.96875,265.05859375)"/>
<path d="M0 0 C3.11781207 4.00235987 6.19330865 8.20581132 5.828125 13.484375 C4.79341004 16.62756574 3.54061408 17.70533528 1 19.8125 C-4.13681641 24.21761873 -9.08328426 28.78765911 -14 33.4375 C-15.13115234 34.5035144 -15.13115234 34.5035144 -16.28515625 35.59106445 C-20.17886007 39.25807218 -20.17886007 39.25807218 -24 43 C-23.30140869 42.96970703 -22.60281738 42.93941406 -21.88305664 42.90820312 C-8.24895652 42.32597991 5.35258461 41.82893212 19 42 C19.83790789 43.78953185 20.67019396 45.58169695 21.5 47.375 C22.19609375 48.87160156 22.19609375 48.87160156 22.90625 50.3984375 C24 53 24 53 24 55 C14.50642 55.85184055 5.04253683 56.25957828 -4.48266602 56.50268555 C-6.79912151 56.56215653 -9.11536245 56.62737623 -11.43164062 56.69335938 C-21.28992489 56.96352993 -31.13829131 57.05302446 -41 57 C-46 47.25 -46 47.25 -46 45 C-44.56970215 43.58970642 -44.56970215 43.58970642 -42.56835938 41.93725586 C-37.77120723 37.85521327 -33.34375971 33.47041061 -28.90625 29.00390625 C-28.07411987 28.17036118 -27.24198975 27.3368161 -26.38464355 26.47801208 C-23.75405065 23.84186738 -21.12697559 21.20224895 -18.5 18.5625 C-16.70596145 16.76344021 -14.91169285 14.9646098 -13.1171875 13.16601562 C-8.74212875 8.77999188 -4.36994488 4.39111858 0 0 Z " fill="#030100" transform="translate(261,403)"/>
<path d="M0 0 C2.09024313 1.34006229 3.67139478 2.73801042 5.39941406 4.51831055 C6.02259521 5.15309326 6.64577637 5.78787598 7.2878418 6.44189453 C8.26346069 7.44845093 8.26346069 7.44845093 9.25878906 8.4753418 C13.77917977 13.0738105 18.29237096 17.56357355 23.22363281 21.7253418 C26.65817106 24.73150219 29.82121306 28.02396744 33.00878906 31.2878418 C30.80236877 33.56301739 29.02777114 35.19003013 26.00878906 36.2878418 C21.94181558 35.90229271 20.02147079 33.64692125 17.24316406 30.81518555 C15.90898438 29.46650391 15.90898438 29.46650391 14.54785156 28.09057617 C13.62746094 27.14504883 12.70707031 26.19952148 11.75878906 25.2253418 C10.81417234 24.26567206 9.86886711 23.30667951 8.92285156 22.34838867 C6.61129734 20.00145352 4.30702566 17.64780789 2.00878906 15.2878418 C2.11598267 16.52473755 2.11598267 16.52473755 2.2253418 17.78662109 C2.78563002 24.57711859 3.14743543 31.28817066 3.07128906 38.1003418 C3.06677734 38.90020508 3.06226563 39.70006836 3.05761719 40.52416992 C3.04611265 42.44542838 3.02819507 44.3666469 3.00878906 46.2878418 C0.03878906 47.6078418 -2.93121094 48.9278418 -5.99121094 50.2878418 C-7.68218272 34.23870785 -8.25655002 18.42249917 -7.99121094 2.2878418 C-2.56624531 -0.91781971 -2.56624531 -0.91781971 0 0 Z " fill="#000600" transform="translate(673.9912109375,231.712158203125)"/>
</svg>
