<?xml version="1.0" encoding="UTF-8"?>
<svg version="1.1" xmlns="http://www.w3.org/2000/svg" width="1000" height="1000">
<path d="M0 0 C330 0 660 0 1000 0 C1000 330 1000 660 1000 1000 C670 1000 340 1000 0 1000 C0 670 0 340 0 0 Z " fill="#FEFEFE" transform="translate(0,0)"/>
<path d="M0 0 C1.55843377 0.41946633 3.11694862 0.83863152 4.67553711 1.25752258 C8.03639723 2.1614307 11.39671674 3.06731219 14.75662231 3.97476196 C20.13956936 5.42857104 25.52365501 6.87812995 30.90795898 8.3269043 C36.65824447 9.87430595 42.40847533 11.42190792 48.15834045 12.97087097 C62.88220995 16.93693085 77.6100916 20.88787966 92.33984375 24.83203125 C94.50935437 25.41303235 96.67886426 25.99403617 98.84837341 26.57504272 C107.30693225 28.84017269 115.76556892 31.10501166 124.22439575 33.36914062 C129.17323431 34.69381657 134.12182153 36.01942854 139.07031059 37.34540939 C141.89943394 38.10308665 144.72888547 38.8595289 147.55836487 39.61587524 C156.18831756 41.92551919 164.80965194 44.26058828 173.41357422 46.66552734 C174.95529103 47.09438826 176.49703327 47.52315776 178.0388031 47.951828 C180.8495842 48.73357451 183.65679054 49.52665661 186.46229553 50.32710266 C187.6928215 50.66992783 188.92334747 51.01275299 190.19116211 51.3659668 C191.24782578 51.66544724 192.30448944 51.96492767 193.39317322 52.27348328 C199.62471477 53.54425773 204.7984839 52.7905617 210.8840332 51.14404297 C211.59390821 50.95457627 212.30378323 50.76510958 213.0351696 50.56990147 C215.3955497 49.93768294 217.75235813 49.29307147 220.109375 48.6484375 C221.80238877 48.19234648 223.49561651 47.73704913 225.18904114 47.28248596 C229.77401636 46.04948923 234.35605035 44.80587061 238.93766022 43.56043625 C243.76578085 42.25005927 248.59661131 40.94975363 253.42724609 39.64868164 C261.45709242 37.48489316 269.48553732 35.31597819 277.51318359 33.14404297 C288.87432333 30.07098907 300.24082103 27.01815242 311.609375 23.97265625 C313.39008721 23.49549354 315.17079807 23.0183258 316.95150757 22.54115295 C323.89182155 20.68156789 330.83233192 18.82271652 337.77294922 16.96426392 C342.79158475 15.62031321 347.80997094 14.27543482 352.828125 12.9296875 C353.63030079 12.71458464 354.43247658 12.49948177 355.25896072 12.27786064 C365.53582506 9.52091454 375.80448789 6.73578235 386.06439209 3.91638756 C390.35167953 2.73929297 394.64075917 1.56873158 398.92938232 0.39651489 C402.20343349 -0.50237818 405.47404131 -1.41306405 408.74462891 -2.32446289 C410.66813545 -2.85100371 412.59179035 -3.37700302 414.515625 -3.90234375 C415.79200081 -4.26451492 415.79200081 -4.26451492 417.09416199 -4.63400269 C424.84386256 -6.72465218 424.84386256 -6.72465218 428.49609375 -5.09375 C431.6395269 -0.82167177 432.76372249 3.80775684 434.07714844 8.85668945 C434.31710761 9.75359466 434.55706678 10.65049986 434.80429745 11.57458401 C435.59954368 14.55432963 436.38372303 17.53687323 437.16796875 20.51953125 C437.72805024 22.62642573 438.28883997 24.73313205 438.85029602 26.83966064 C440.34865491 32.46882953 441.83765513 38.10043373 443.3247261 43.73259354 C444.85643741 49.52809253 446.39607585 55.32148364 447.93530273 61.11499023 C449.76523164 68.00426824 451.59451451 74.89371328 453.41990662 81.78419495 C456.76556963 94.4112254 460.13318382 107.03181729 463.546875 119.640625 C463.90754264 120.97473001 464.26815006 122.3088513 464.62869263 123.64299011 C466.54691771 130.73853238 466.54691771 130.73853238 468.47570801 137.83120728 C473.80861752 157.39241546 473.80861752 157.39241546 475.13452148 166.55493164 C475.6523144 169.92215887 476.52930163 173.07705008 477.49609375 176.34375 C477.82609375 177.47683594 478.15609375 178.60992187 478.49609375 179.77734375 C479.43646852 182.85166216 479.43646852 182.85166216 480.5625 185.5546875 C481.43523729 187.75296301 481.97760919 189.77908552 482.43359375 192.09375 C483.30556974 196.19676878 484.40141395 200.17353535 485.66796875 204.171875 C486.25903281 206.1235016 486.78324746 208.09588678 487.26171875 210.078125 C489.5078061 218.77660875 493.17461268 223.66002466 499.49609375 229.90625 C500.69621229 231.27025027 501.88468046 232.64463223 503.05859375 234.03125 C505.4110297 236.74142966 507.86143085 239.27914601 510.43359375 241.78125 C513.34933576 244.63009162 515.80864904 247.57868431 518.24609375 250.84375 C522.21404375 255.9759488 526.76308131 259.34693854 532.0546875 262.99609375 C534.49609375 264.90625 534.49609375 264.90625 535.49609375 267.90625 C536.82268796 268.58622797 538.15751251 269.25018409 539.49609375 269.90625 C541.15604406 271.37730944 542.76354461 272.90822143 544.33622742 274.472229 C545.0447084 275.17285497 545.0447084 275.17285497 545.76750213 275.88763499 C547.34677601 277.45192309 548.91883505 279.02326307 550.4909668 280.59472656 C551.62253355 281.71867102 552.75450167 282.84221152 553.88684082 283.96537781 C556.95975728 287.01635271 560.0260788 290.07387263 563.09058356 293.13329411 C565.00524506 295.04431245 566.92119833 296.95402594 568.83759499 298.86330414 C575.52253684 305.52375528 582.20174161 312.18990462 588.8762207 318.86083984 C595.09922988 325.08021131 601.33525377 331.28632177 607.57733315 337.48654771 C612.93572196 342.81026277 618.2844678 348.14353903 623.62589675 353.48426986 C626.8164111 356.67399058 630.01079261 359.8595931 633.21509361 363.03546906 C636.2278067 366.02205094 639.22836508 369.02032739 642.21999359 372.02802467 C643.31980488 373.12965421 644.42390248 374.22702361 645.5325489 375.31976128 C647.0458453 376.81265739 648.54290365 378.32017233 650.03691101 379.83233643 C650.87884349 380.67225758 651.72077597 381.51217873 652.58822155 382.37755203 C654.82570126 385.34311251 655.4131836 387.20493506 655.49609375 390.90625 C654.58918285 392.74219799 654.58918285 392.74219799 652.99491882 394.39237976 C652.33932669 395.07592215 651.68373455 395.75946453 651.00827599 396.46372032 C650.17925585 397.26975512 649.35023571 398.07578991 648.49609375 398.90625 C647.75802093 399.62424125 647.75802093 399.62424125 647.00503755 400.35673738 C643.27480317 403.96862556 639.49547532 407.52681741 635.70550537 411.07584 C631.83672341 414.70041122 627.98131139 418.33913758 624.12641907 421.97846985 C623.305125 422.75369669 622.48383094 423.52892352 621.63764918 424.32764208 C610.05079834 435.28140695 598.603803 446.38112805 587.15549183 457.47931385 C577.88373093 466.4595018 568.56764407 475.38200664 559.12524414 484.18286133 C513.55071993 526.7221797 480.23335433 560.87938288 471.65206909 624.09823608 C470.33856048 633.76322663 467.84029566 642.99677187 465.08550072 652.33581161 C463.93140322 656.29352808 462.88358427 660.27863727 461.82763672 664.26342773 C461.42280102 665.77326841 461.01734533 667.28294299 460.61126709 668.79244995 C460.40925438 669.54418865 460.20724167 670.29592735 459.99910736 671.07044601 C459.11310645 674.36579571 458.22622568 677.66090833 457.33928108 680.95600414 C456.18269455 685.25308058 455.02677787 689.55033703 453.87109375 693.84765625 C453.64620144 694.68367937 453.42130913 695.51970249 453.1896019 696.38105965 C450.05056887 708.05498873 446.95392659 719.73945457 443.8866539 731.43243027 C442.64429685 736.16218244 441.39430074 740.88992176 440.14395332 745.61756706 C438.97574199 750.03848097 437.82050483 754.46251657 436.67506027 758.88938046 C436.14284773 760.93667955 435.60389894 762.98205571 435.06176758 765.02674866 C434.40701639 767.4962465 433.76307459 769.96864609 433.13208008 772.44432068 C432.84212158 773.52415726 432.55216309 774.60399384 432.25341797 775.71655273 C432.00888885 776.65280991 431.76435974 777.58906708 431.51242065 778.55369568 C430.28332647 781.39875549 429.22819943 782.4624306 426.49609375 783.90625 C424.45849609 783.90289307 424.45849609 783.90289307 422.20703125 783.34472656 C421.32241211 783.13303833 420.43779297 782.9213501 419.52636719 782.70324707 C418.52637695 782.44023804 417.52638672 782.177229 416.49609375 781.90625 C415.38008789 781.62422729 414.26408203 781.34220459 413.11425781 781.05163574 C409.10944157 780.02337568 405.1149987 778.96026211 401.12109375 777.890625 C399.58948859 777.48284662 398.05781445 777.07532726 396.52607727 776.66804504 C392.38156758 775.56514572 388.23812075 774.45830203 384.09488297 773.35063553 C380.59526103 772.41555129 377.09503313 771.48274677 373.59480381 770.54993916 C361.55998009 767.34255343 349.52762055 764.12597844 337.49609375 760.90625 C336.13261181 760.54137859 336.13261181 760.54137859 334.74158478 760.16913605 C322.2965304 756.83852853 309.85262248 753.50365535 297.40939713 750.16622162 C294.81175393 749.46959748 292.21403806 748.77324494 289.61630249 748.07696533 C273.38908529 743.72722744 257.16335299 739.37322282 240.95913124 734.93846703 C236.69545496 733.77242463 232.4303517 732.61160337 228.1656189 731.44943237 C224.91690054 730.56087307 221.67094771 729.66270959 218.42504883 728.76391602 C216.50744982 728.24058771 214.58973343 727.71768929 212.671875 727.1953125 C211.83124512 726.95901627 210.99061523 726.72272003 210.12451172 726.47926331 C208.95553345 726.16395912 208.95553345 726.16395912 207.76293945 725.84228516 C207.10203812 725.65993317 206.44113678 725.47758118 205.76020813 725.28970337 C200.37078064 724.37694289 195.56442434 724.92207219 190.33666992 726.36132812 C189.14262543 726.68522018 187.94858093 727.00911224 186.71835327 727.34281921 C185.40856405 727.70762078 184.09880139 728.07251775 182.7890625 728.4375 C181.38789385 728.82068819 179.98648884 729.20301301 178.58486938 729.58454895 C175.55127766 730.41195941 172.51920352 731.2446472 169.4881897 732.08145142 C164.60421459 733.42951363 159.71696154 734.76538571 154.82885742 736.09838867 C153.99084626 736.32691749 153.1528351 736.5554463 152.28942966 736.79090023 C150.56603047 737.2608131 148.84261524 737.73066711 147.11918449 738.20046425 C144.45575758 738.92683866 141.79262943 739.65430088 139.12953186 740.38188171 C125.93328639 743.98464073 112.72285178 747.53228317 99.50390625 751.05078125 C98.06722721 751.43323155 98.06722721 751.43323155 96.60152435 751.82340813 C88.87442886 753.87991671 81.14658315 755.9336 73.41851807 757.98646164 C66.80068644 759.74445231 60.18321035 761.50377051 53.56640625 763.265625 C52.65659248 763.50787371 51.74677872 763.75012241 50.80939484 763.99971199 C38.76946783 767.20781129 26.74570098 770.46923777 14.73828125 773.796875 C13.4056972 774.16533717 12.07309165 774.53372157 10.74046326 774.90202332 C4.79316649 776.54732219 -1.15058782 778.20366268 -7.08862305 779.88208008 C-9.10845763 780.44389463 -11.12838875 781.00536226 -13.1484375 781.56640625 C-14.03963287 781.82339294 -14.93082825 782.08037964 -15.84902954 782.34515381 C-23.45400216 784.43713992 -23.45400216 784.43713992 -27.50390625 782.90625 C-30.38466336 780.02549289 -30.85909208 776.55026544 -31.86035156 772.70898438 C-32.08910477 771.85360958 -32.31785797 770.99823479 -32.55354309 770.11693954 C-33.31950771 767.24630538 -34.07569654 764.37318511 -34.83203125 761.5 C-35.37387463 759.46197379 -35.91634822 757.42411503 -36.45941162 755.38641357 C-37.6228584 751.01584127 -38.78207526 746.64417725 -39.93798828 742.27160645 C-41.75931462 735.38210136 -43.58970993 728.49502791 -45.421875 721.60839844 C-47.29118083 714.58059868 -49.15995814 707.55266137 -51.0255127 700.52386475 C-56.58890683 679.56379559 -62.200189 658.61676668 -67.82756042 637.67379761 C-69.09340423 632.96197428 -70.35804898 628.24982913 -71.62279892 623.5377121 C-71.80578663 622.85596169 -71.98877434 622.17421127 -72.17730713 621.47180176 C-72.48055562 620.33017657 -72.48055562 620.33017657 -72.78993034 619.16548824 C-73.410791 616.8717801 -74.0497254 614.58531894 -74.69751167 612.29918003 C-76.6847218 605.19695701 -78.54050786 598.17277603 -79.71406591 590.8856259 C-84.87809163 558.99951719 -100.77514742 541.5501463 -123.70267916 519.83031678 C-128.32300905 515.41971569 -132.85337246 510.91840808 -137.39437866 506.42643738 C-144.9988595 498.92656725 -152.65084202 491.47980793 -160.34716797 484.07446289 C-168.24893115 476.47109623 -176.12472176 468.84249065 -183.96435547 461.17504883 C-184.45076738 460.69934564 -184.9371793 460.22364244 -185.43833096 459.733524 C-190.74933391 454.53833713 -196.05515209 449.3378668 -201.35993004 444.13632488 C-203.23009485 442.30289178 -205.10030132 440.46950117 -206.97055054 438.63615417 C-207.8830785 437.74137491 -208.79560647 436.84659565 -209.7357868 435.92470187 C-215.15023318 430.62056477 -220.58528596 425.33871589 -226.04009748 420.07610476 C-229.41395613 416.81897873 -232.77870034 413.55253377 -236.14218903 410.28470421 C-237.70468963 408.77156866 -239.27160474 407.26297663 -240.84317398 405.75926208 C-242.98405036 403.7102365 -245.10928194 401.64617468 -247.2315979 399.57795715 C-247.85929726 398.98528559 -248.48699662 398.39261403 -249.13371718 397.78198272 C-251.84691596 395.10971402 -253.34350891 393.38680675 -254.56770325 389.71907234 C-254.49258935 386.40728565 -254.04469851 385.56055388 -251.75546265 383.22938538 C-251.10186138 382.54758272 -250.44826012 381.86578007 -249.77485275 381.16331673 C-249.02544041 380.41848471 -248.27602806 379.67365269 -247.50390625 378.90625 C-246.30146208 377.6688548 -246.30146208 377.6688548 -245.0747261 376.40646172 C-242.23073286 373.49453807 -239.35789491 370.61339928 -236.47900391 367.73608398 C-235.37909016 366.63317224 -234.27937968 365.53005777 -233.17985535 364.42675781 C-230.2131696 361.45129543 -227.24330211 358.47902922 -224.27254534 355.50763202 C-222.41235202 353.64672486 -220.55287385 351.78510615 -218.69364548 349.92323494 C-212.19542186 343.41578058 -205.69464136 336.9108933 -199.19140625 330.40844727 C-193.14803505 324.36567702 -187.11026723 318.31734801 -181.07509387 312.26639122 C-175.87589333 307.05408294 -170.67281178 301.84567022 -165.46673429 296.64023072 C-162.36504462 293.53879497 -159.26489845 290.43585547 -156.16865921 287.32897758 C-153.25594288 284.40652505 -150.33839028 281.4889861 -147.41718483 278.57501984 C-146.35169959 277.51057342 -145.28788813 276.44444826 -144.22596931 275.37644386 C-138.87489104 269.99671305 -133.49496648 264.86120315 -127.38991356 260.32972813 C-123.59470648 257.46526719 -120.24351852 254.10776875 -116.7890625 250.84765625 C-114.50390625 248.90625 -114.50390625 248.90625 -112.50390625 248.90625 C-112.30023438 248.36613281 -112.0965625 247.82601562 -111.88671875 247.26953125 C-109.94576141 243.95235839 -107.21403833 241.62962702 -104.37890625 239.09375 C-103.79431641 238.56112549 -103.20972656 238.02850098 -102.60742188 237.47973633 C-98.91208788 234.12484264 -95.16163656 230.84445391 -91.28515625 227.69921875 C-86.08292021 222.46275747 -83.68095771 217.51493963 -82.1171875 210.4453125 C-81.92924118 209.65530853 -81.74129486 208.86530457 -81.5476532 208.05136108 C-80.95573523 205.54786149 -80.38579777 203.03995759 -79.81640625 200.53125 C-79.42396234 198.85643363 -79.03009359 197.18195046 -78.63476562 195.5078125 C-77.73869312 191.69511505 -76.85234037 187.88056394 -75.99382019 184.05921936 C-75.66401607 182.60986652 -75.32272528 181.16308503 -74.97065735 179.71897888 C-73.84524324 174.98832944 -73.20697774 170.37431604 -72.77488708 165.53434753 C-71.06337149 147.6160905 -65.96440536 130.52613448 -61.17401505 113.24435043 C-59.93282836 108.75370006 -58.70959922 104.25816521 -57.48510742 99.76293945 C-55.98184685 94.24819083 -54.47698167 88.73390594 -52.96388245 83.22184753 C-49.8572883 71.90177466 -46.79768317 60.57039931 -43.79117393 49.22333336 C-43.16054907 46.84346542 -42.52880506 44.46389747 -41.89668274 42.08442688 C-39.52618064 33.16192386 -39.52618064 33.16192386 -37.16793823 24.23617554 C-36.1073832 20.21116327 -35.03461455 16.18950027 -33.9609375 12.16796875 C-33.49831009 10.39885132 -33.49831009 10.39885132 -33.02633667 8.59399414 C-32.73638824 7.51456543 -32.44643982 6.43513672 -32.14770508 5.32299805 C-31.77758049 3.92527412 -31.77758049 3.92527412 -31.39997864 2.49931335 C-26.40459921 -11.95636626 -11.38317091 -3.08296501 0 0 Z " fill="#040404" transform="translate(299.50390625,111.09375)"/>
<path d="M0 0 C0.15913941 33.06916848 -0.11665538 66.12659574 -0.50509644 99.19296265 C-0.80929496 125.14533427 -1.05823113 151.09758372 -1.23837018 177.05109143 C-1.25390394 179.28482406 -1.26958259 181.51855562 -1.28530693 183.75228691 C-1.37893147 197.0600818 -1.4720363 210.36787926 -1.5541687 223.67575073 C-1.74238029 254.1255855 -1.93508579 284.56546482 -3 315 C-4.06903564 315.26225121 -4.06903564 315.26225121 -5.15966797 315.52980042 C-16.93483806 318.42040458 -28.65517678 321.35543901 -40.24609375 324.921875 C-42.96625894 325.70310871 -45.6154282 326.37614676 -48.375 326.96875 C-53.17604333 328.0037788 -57.85437033 329.35896169 -62.5625 330.75 C-70.41746733 333.03714843 -78.3041923 335.11535094 -86.25 337.0625 C-93.72789338 338.89633193 -101.12446012 340.86319165 -108.48925781 343.10571289 C-115.64015296 345.25252037 -122.88723104 346.99101434 -130.13671875 348.76953125 C-135.97136999 350.21155532 -141.75072469 351.74923836 -147.5 353.5 C-155.29919324 355.87499991 -163.18675437 357.82025695 -171.10375977 359.76074219 C-177.97091752 361.45682429 -184.75450868 363.33666972 -191.52539062 365.38012695 C-196.31795583 366.82110264 -201.0967529 368.01552739 -206 369 C-207.68817053 369.37196978 -209.37567752 369.74696405 -211.0625 370.125 C-212.375 370.41666667 -213.6875 370.70833333 -215 371 C-215.62849414 368.85518747 -216.25260258 366.70908965 -216.875 364.5625 C-217.39707031 362.77005859 -217.39707031 362.77005859 -217.9296875 360.94140625 C-218.70483598 358.18536162 -219.36036266 355.42410776 -219.9609375 352.625 C-221.00274286 347.82565476 -222.35901175 343.14546022 -223.75 338.4375 C-226.03714843 330.58253267 -228.11535094 322.6958077 -230.0625 314.75 C-231.89633193 307.27210662 -233.86319165 299.87553988 -236.10571289 292.51074219 C-238.25252037 285.35984704 -239.99101434 278.11276896 -241.76953125 270.86328125 C-243.21155532 265.02863001 -244.74923836 259.24927531 -246.5 253.5 C-248.87588033 245.69791557 -250.82163232 237.80736306 -252.76293945 229.88745117 C-254.43685304 223.11023473 -256.2911616 216.41781485 -258.31640625 209.73828125 C-259.8436573 204.66066737 -261.04613611 199.55786015 -262.1875 194.3828125 C-263.15931177 190.33671156 -264.31194745 186.36202382 -265.5 182.375 C-265.71479004 181.65151367 -265.92958008 180.92802734 -266.15087891 180.18261719 C-267.09803628 177.00126994 -268.05402082 173.82309212 -269.0234375 170.6484375 C-269.30445313 169.69195313 -269.58546875 168.73546875 -269.875 167.75 C-270.11992187 166.94046875 -270.36484375 166.1309375 -270.6171875 165.296875 C-271.08757329 162.47456028 -270.96255802 160.70222711 -270 158 C-268.03125 156.375 -268.03125 156.375 -265.5 155 C-264.60152344 154.50242187 -263.70304688 154.00484375 -262.77734375 153.4921875 C-261.86082031 152.99976563 -260.94429687 152.50734375 -260 152 C-259.15566406 151.50757813 -258.31132812 151.01515625 -257.44140625 150.5078125 C-251.40677966 147 -251.40677966 147 -248 147 C-248 146.34 -248 145.68 -248 145 C-245.7140617 143.4670058 -243.44192427 142.06139469 -241.0625 140.6875 C-240.37897461 140.28668213 -239.69544922 139.88586426 -238.99121094 139.47290039 C-236.9982661 138.30799351 -234.99940865 137.15376391 -233 136 C-232.04480469 135.43796875 -231.08960938 134.8759375 -230.10546875 134.296875 C-224.39278017 131 -224.39278017 131 -221 131 C-221 130.34 -221 129.68 -221 129 C-219.12890625 127.66796875 -219.12890625 127.66796875 -216.5625 126.1875 C-215.19738281 125.39472656 -215.19738281 125.39472656 -213.8046875 124.5859375 C-210.53767098 122.73857161 -207.26577433 120.9020327 -203.97265625 119.1015625 C-202.32655036 118.18235089 -200.71988153 117.19296879 -199.125 116.1875 C-197 115 -197 115 -194 115 C-194 114.34 -194 113.68 -194 113 C-192.12890625 111.66796875 -192.12890625 111.66796875 -189.5625 110.1875 C-188.19738281 109.39472656 -188.19738281 109.39472656 -186.8046875 108.5859375 C-183.53767098 106.73857161 -180.26577433 104.9020327 -176.97265625 103.1015625 C-175.32655036 102.18235089 -173.71988153 101.19296879 -172.125 100.1875 C-170 99 -170 99 -167 99 C-167 98.34 -167 97.68 -167 97 C-165.12890625 95.66796875 -165.12890625 95.66796875 -162.5625 94.1875 C-161.655 93.66285156 -160.7475 93.13820313 -159.8125 92.59765625 C-158.884375 92.07042969 -157.95625 91.54320312 -157 91 C-155.7315625 90.25556641 -155.7315625 90.25556641 -154.4375 89.49609375 C-148.38158832 86 -148.38158832 86 -145 86 C-145 85.34 -145 84.68 -145 84 C-142.7140617 82.4670058 -140.44192427 81.06139469 -138.0625 79.6875 C-137.37897461 79.28668213 -136.69544922 78.88586426 -135.99121094 78.47290039 C-133.9982661 77.30799351 -131.99940865 76.15376391 -130 75 C-129.04480469 74.43796875 -128.08960938 73.8759375 -127.10546875 73.296875 C-121.39278017 70 -121.39278017 70 -118 70 C-118 69.34 -118 68.68 -118 68 C-116.12890625 66.66796875 -116.12890625 66.66796875 -113.5625 65.1875 C-112.65242187 64.65898438 -111.74234375 64.13046875 -110.8046875 63.5859375 C-107.53767098 61.73857161 -104.26577433 59.9020327 -100.97265625 58.1015625 C-99.32655036 57.18235089 -97.71988153 56.19296879 -96.125 55.1875 C-94 54 -94 54 -91 54 C-91 53.34 -91 52.68 -91 52 C-89.12890625 50.66796875 -89.12890625 50.66796875 -86.5625 49.1875 C-85.65242187 48.65898438 -84.74234375 48.13046875 -83.8046875 47.5859375 C-80.53767098 45.73857161 -77.26577433 43.9020327 -73.97265625 42.1015625 C-72.32655036 41.18235089 -70.71988153 40.19296879 -69.125 39.1875 C-67 38 -67 38 -64 38 C-64 37.34 -64 36.68 -64 36 C-62.12890625 34.66796875 -62.12890625 34.66796875 -59.5625 33.1875 C-58.65242187 32.65898438 -57.74234375 32.13046875 -56.8046875 31.5859375 C-53.53767098 29.73857161 -50.26577433 27.9020327 -46.97265625 26.1015625 C-45.32655036 25.18235089 -43.71988153 24.19296879 -42.125 23.1875 C-40 22 -40 22 -37 22 C-37 21.34 -37 20.68 -37 20 C-35.12890625 18.66796875 -35.12890625 18.66796875 -32.5625 17.1875 C-31.655 16.66285156 -30.7475 16.13820313 -29.8125 15.59765625 C-28.4203125 14.80681641 -28.4203125 14.80681641 -27 14 C-26.154375 13.50371094 -25.30875 13.00742187 -24.4375 12.49609375 C-18.38158832 9 -18.38158832 9 -15 9 C-15 8.34 -15 7.68 -15 7 C-12.87767021 5.82823482 -10.75242209 4.66245215 -8.625 3.5 C-7.72007812 2.99919922 -7.72007812 2.99919922 -6.796875 2.48828125 C-2.2265625 0 -2.2265625 0 0 0 Z " fill="#FE0000" transform="translate(494,511)"/>
<path d="M0 0 C3.30281742 0.76610974 5.91472987 1.89375557 8.90234375 3.51953125 C9.86390381 4.04087646 10.82546387 4.56222168 11.81616211 5.09936523 C13.36122437 5.94736694 13.36122437 5.94736694 14.9375 6.8125 C16.0107251 7.39781494 17.0839502 7.98312988 18.18969727 8.58618164 C25.84151197 12.7752384 33.43517464 17.05952825 40.99633789 21.40966797 C47.76182362 25.30196525 54.56102205 29.13078209 61.375 32.9375 C70.36061635 37.95857018 79.33100075 43.00535055 88.28710938 48.07885742 C93.50330176 51.03129109 98.72717413 53.96945475 103.9609375 56.890625 C104.54002869 57.21401855 105.11911987 57.53741211 105.71575928 57.87060547 C108.54041728 59.44782265 111.36609923 61.02315407 114.19335938 62.59570312 C115.19947266 63.15708984 116.20558594 63.71847656 117.2421875 64.296875 C118.1379248 64.79541992 119.03366211 65.29396484 119.95654297 65.80761719 C122 67 122 67 123 68 C122.9015809 77.06895983 120.95020082 86.24157903 119.53219604 95.18093872 C117.69211326 106.79029862 115.86837764 118.39443143 114.4375 130.0625 C112.893084 142.53467144 110.74846403 154.90389372 108.63183594 167.28955078 C107.63411421 173.14866009 106.66136401 179.01188695 105.6875 184.875 C105.35819845 186.85158342 105.02878493 188.82814819 104.69921875 190.8046875 C104.46847656 192.18914062 104.23773437 193.57359375 104 195 C108.95 195.33 113.9 195.66 119 196 C119.19335938 194.44410156 119.38671875 192.88820313 119.5859375 191.28515625 C119.84873798 189.21090957 120.11177119 187.13669237 120.375 185.0625 C120.50132812 184.04091797 120.62765625 183.01933594 120.7578125 181.96679688 C121.3259663 177.52099336 121.9093168 173.13480394 122.953125 168.7734375 C124.41820696 162.54159175 125.18415305 156.18592144 126.05886841 149.85031128 C126.60017589 145.93292564 127.15402683 142.01731118 127.70703125 138.1015625 C127.87225533 136.92916267 127.87225533 136.92916267 128.04081726 135.733078 C129.43365934 125.88079997 130.96261646 116.05005735 132.49853516 106.21923828 C133.42485475 100.27257315 134.33623642 94.32360496 135.25 88.375 C135.58848325 86.17447018 135.92701918 83.97394846 136.265625 81.7734375 C136.40774414 80.84966309 136.54986328 79.92588867 136.69628906 78.97412109 C136.84662598 77.99693115 136.84662598 77.99693115 137 77 C140.72209139 77.69367516 143.63115166 79.30923358 146.92578125 81.140625 C147.50110092 81.45889252 148.07642059 81.77716003 148.66917419 82.10507202 C150.55286625 83.14880292 152.43271138 84.19925762 154.3125 85.25 C155.62840944 85.98126535 156.94449207 86.71221912 158.26074219 87.44287109 C167.96948526 92.83899433 177.64468566 98.2945026 187.3046875 103.77734375 C192.40306772 106.6684441 197.51917127 109.52702755 202.63793945 112.38183594 C213.51150383 118.4472166 224.30918024 124.61786 235 131 C233.71121547 134.40591219 232.23480777 137.49921825 230.3828125 140.6328125 C229.86493164 141.5108252 229.34705078 142.38883789 228.81347656 143.29345703 C228.2562793 144.22786621 227.69908203 145.16227539 227.125 146.125 C226.54202148 147.10710449 225.95904297 148.08920898 225.35839844 149.10107422 C221.28086911 155.93706206 217.08275398 162.68614373 212.80102539 169.39550781 C208.28493361 176.49316348 203.91690474 183.6776368 199.5625 190.875 C193.54125994 200.82456501 187.4699467 210.74054675 181.3359375 220.62109375 C177.75057015 226.39679064 174.18257598 232.18314572 170.61868286 237.97210693 C169.59772688 239.63028647 168.57609713 241.28805109 167.55444336 242.94580078 C163.66054768 249.27220869 159.80558976 255.6200668 156 262 C158.17424117 264.50037734 159.73045798 265.43628586 163 266 C171.04263409 253.19809893 179.02737896 240.36614275 186.86767578 227.43920898 C190.71160443 221.10500778 194.59137361 214.79446522 198.5 208.5 C203.03859986 201.18980457 207.5339106 193.85471534 212 186.5 C217.05442398 178.17675453 222.15329135 169.88267101 227.2878418 161.60864258 C232.56698562 153.09786951 237.7890461 144.55264779 243 136 C249.23257802 138.35614882 254.92868735 141.65985432 260.75 144.875 C261.91144531 145.50019531 263.07289063 146.12539063 264.26953125 146.76953125 C265.92275391 147.68412109 265.92275391 147.68412109 267.609375 148.6171875 C268.61967773 149.17003418 269.62998047 149.72288086 270.67089844 150.29248047 C273 152 273 152 273.70271301 153.8326416 C274.04484229 156.32692086 273.73537908 157.95656787 273.08569336 160.38525391 C272.85540436 161.26485275 272.62511536 162.1444516 272.3878479 163.05070496 C272.12450653 164.01623795 271.86116516 164.98177094 271.58984375 165.9765625 C271.17887955 167.52836967 271.17887955 167.52836967 270.75961304 169.11152649 C269.82818994 172.61856192 268.88282423 176.12168807 267.9375 179.625 C267.26313377 182.15156543 266.58957268 184.67834587 265.91674805 187.20532227 C264.23376853 193.51932982 262.53991075 199.83037544 260.84295559 206.14063931 C259.37381593 211.60516279 257.90965142 217.07100195 256.44824219 222.53759766 C256.23278496 223.34352891 256.01732773 224.14946016 255.79534149 224.97981358 C255.35467719 226.62818696 254.9140161 228.27656121 254.47335815 229.92493629 C245.15160424 264.78852885 235.76207674 299.6339701 226.35274887 334.4740181 C225.68995181 336.92842069 225.02740536 339.38289083 224.36489868 341.83737183 C223.33455788 345.65419073 222.3032396 349.47074418 221.27110672 353.28707886 C220.89382715 354.6825379 220.51683469 356.0780746 220.14014816 357.47369385 C219.62771722 359.37193048 219.11406321 361.26983681 218.6003418 363.16772461 C218.31362106 364.22833603 218.02690033 365.28894745 217.73149109 366.38169861 C217.20419259 368.26911243 216.61970756 370.14087731 216 372 C206.96806545 370.5726947 198.21050873 368.30160391 189.3984375 365.90625 C187.84128066 365.48662388 186.28401088 365.06741664 184.72663879 364.64859009 C181.37137106 363.74536656 178.01686354 362.83939088 174.66293335 361.93121338 C169.29247569 360.4770294 163.92043586 359.02875458 158.5480957 357.58154297 C152.80853175 356.03518308 147.06905321 354.48851162 141.33009338 352.93991089 C126.56441127 348.95608639 111.79321983 344.99308413 97.01953125 341.0390625 C94.8402081 340.45567507 92.66088681 339.87228071 90.48156738 339.28887939 C81.97775492 337.01256415 73.47385633 334.73657133 64.96966553 332.46166992 C59.97426157 331.12529257 54.97916541 329.78776982 49.98425865 328.44953537 C48.16748347 327.96298979 46.35060775 327.4768194 44.53360939 326.99110794 C28.66467744 322.74888406 12.8306069 318.38262905 -3 314 C-3.13234662 260.78835707 -2.85298764 207.59357809 -2.16577756 154.3863734 C-2.04951586 145.36212528 -1.940589 136.33779213 -1.83159184 127.31345391 C-1.31774951 84.87401628 -0.71413067 42.43654836 0 0 Z " fill="#A53AFD" transform="translate(505,510)"/>
<path d="M0 0 C15.58669084 3.39956631 31.03080468 7.35253524 46.34472656 11.81933594 C52.19985185 13.51663448 58.07802201 15.05434067 64 16.5 C70.79938 18.15984865 77.53112621 19.97730205 84.25 21.9375 C92.89499513 24.45855173 101.59373137 26.67525675 110.33886719 28.82006836 C116.78224631 30.41216422 123.14113815 32.17276188 129.48925781 34.10571289 C135.60978802 35.94318914 141.79454722 37.47761619 148 39 C154.88301648 40.68861052 161.71977481 42.43543893 168.5 44.5 C176.3862421 46.89999111 184.35964267 48.89654866 192.36523438 50.85742188 C193.32494141 51.09267578 194.28464844 51.32792969 195.2734375 51.5703125 C196.11310059 51.77414551 196.95276367 51.97797852 197.81787109 52.18798828 C202.56104767 53.39834621 207.27731698 54.71199554 212 56 C212 71.84 212 87.68 212 104 C202.99972453 102.87496557 202.99972453 102.87496557 199.96148682 102.2747345 C199.26733673 102.13899017 198.57318665 102.00324585 197.85800171 101.86338806 C197.12658966 101.71744705 196.39517761 101.57150604 195.64160156 101.42114258 C194.84660248 101.26482361 194.05160339 101.10850464 193.23251343 100.94744873 C190.61799494 100.43258142 188.00429816 99.91367138 185.390625 99.39453125 C183.54103078 99.0290104 181.69140035 98.66367272 179.84173584 98.29850769 C175.95793692 97.53111208 172.07453253 96.76175862 168.19140625 95.9909668 C163.30203651 95.020556 158.41180946 94.05455162 153.52129745 93.08991623 C126.27422629 87.713358 99.09697194 82.09323443 72 76 C71.67 79.3 71.34 82.6 71 86 C72.45921875 86.26167969 73.9184375 86.52335937 75.421875 86.79296875 C83.37596188 88.24020596 91.31343824 89.7726547 99.25 91.3125 C100.44419052 91.54401764 100.44419052 91.54401764 101.6625061 91.7802124 C112.11366523 93.81009495 122.53591781 95.93100316 132.93115234 98.23242188 C146.47564267 101.22551781 160.09300808 103.86423993 173.7130127 106.48854065 C177.43906707 107.20668908 181.16461127 107.92746956 184.89019775 108.64804077 C187.6473881 109.17976443 190.40545065 109.70678451 193.16357422 110.23364258 C194.88382845 110.56571397 196.60404497 110.89798082 198.32421875 111.23046875 C199.11073318 111.37926483 199.89724762 111.52806091 200.70759583 111.68136597 C201.44821762 111.82542877 202.18883942 111.96949158 202.9519043 112.11791992 C203.5915361 112.24051682 204.23116791 112.36311371 204.8901825 112.48942566 C207.65286382 113.15799258 210.30797992 114.09135587 213 115 C213.34553887 139.64567169 213.67806458 164.29150877 214 188.9375 C214.01189708 189.84713879 214.02379416 190.75677757 214.03605175 191.69398117 C214.65354314 238.96303961 215.20472841 286.22603704 215.125 333.5 C215.12328796 334.52294537 215.12157593 335.54589073 215.11981201 336.59983444 C215.09847224 348.39997859 215.06094303 360.19999266 215 372 C211.32423383 370.56138929 207.93214097 368.9433197 204.484375 367.015625 C203.41074707 366.4172583 202.33711914 365.8188916 201.23095703 365.20239258 C200.08224121 364.55810303 198.93352539 363.91381348 197.75 363.25 C196.54163898 362.57487211 195.33314075 361.89998976 194.12451172 361.2253418 C191.63573744 359.83540509 189.14800874 358.44362327 186.66113281 357.05029297 C183.24244366 355.13503038 179.82073533 353.22521434 176.3984375 351.31640625 C165.88063703 345.44502366 155.39284169 339.52515891 144.94287109 333.53393555 C135.06815131 327.87990728 125.13222174 322.33564446 115.19824219 316.78662109 C101.00114452 308.85575386 86.81539433 300.90569362 72.66357422 292.89428711 C65.62024001 288.90941734 58.56289908 284.95007453 51.5 281 C34.95539223 271.74551681 18.44358418 262.43297463 2 253 C7.71486604 245.05547031 14.08537183 237.91462817 21 231 C27.17977655 224.46441813 33.04866174 217.78952041 38.6875 210.78125 C41.19971133 207.75980664 43.82402457 204.87559922 46.5 202 C50.78212655 197.39799126 54.79246713 192.64127065 58.73046875 187.73828125 C61.94933449 183.85458954 65.3812938 180.18179865 68.8359375 176.5078125 C70.89749773 174.11878422 72.47074474 171.75265948 74 169 C72.02 167.35 70.04 165.7 68 164 C60.25340727 171.66418217 53.12087206 179.77272196 46.28125 188.25 C43.13805742 192.03905407 39.79841405 195.63269352 36.46484375 199.25390625 C34.07292703 201.91875166 31.80745116 204.64831825 29.5625 207.4375 C25.40737649 212.59074036 20.99627519 217.43833162 16.48046875 222.2734375 C14.92790195 223.98003848 13.4210498 225.73071385 11.98828125 227.5390625 C9.81896456 230.22407137 7.45499362 232.57436356 5 235 C3.03977771 237.083532 1.11293405 239.19683615 -0.8125 241.3125 C-1.31458984 241.86228516 -1.81667969 242.41207031 -2.33398438 242.97851562 C-3.55703968 244.31805239 -4.77867008 245.65888992 -6 247 C-9.31469104 246.32960768 -11.9378928 245.09363981 -14.90234375 243.48046875 C-16.34734253 242.69700073 -16.34734253 242.69700073 -17.8215332 241.89770508 C-19.36393677 241.05115356 -19.36393677 241.05115356 -20.9375 240.1875 C-21.99477295 239.61088623 -23.0520459 239.03427246 -24.14135742 238.44018555 C-50.4220054 224.0519964 -50.4220054 224.0519964 -58 219 C-57.30895418 212.55326996 -55.55142743 206.52811221 -53.75 200.3125 C-51.51646645 192.48629876 -49.36133143 184.65819888 -47.4375 176.75 C-45.58459629 169.15362703 -43.4914639 161.65035436 -41.30273438 154.14453125 C-39.05629525 146.36530216 -37.10841015 138.52420406 -35.17993164 130.66113281 C-33.58783578 124.21775369 -31.82723812 117.85886185 -29.89428711 111.51074219 C-28.05681086 105.39021198 -26.52238381 99.20545278 -25 93 C-23.14508483 85.43910214 -21.16216649 77.95834029 -18.89453125 70.51171875 C-17.05709066 64.39081792 -15.52257797 58.20576118 -14 52 C-12.14199196 44.43180038 -10.16860327 36.93532507 -7.90551758 29.47875977 C-4.97412281 19.7354521 -2.52292873 9.85523119 0 0 Z " fill="#FDF000" transform="translate(279,118)"/>
<path d="M0 0 C0.16604736 0.64960693 0.33209473 1.29921387 0.50317383 1.96850586 C1.26961522 4.95903627 2.04102548 7.94826422 2.8125 10.9375 C3.07353516 11.95908203 3.33457031 12.98066406 3.60351562 14.03320312 C4.99621081 19.41485243 6.52622163 24.68536635 8.33227539 29.94165039 C9.37745171 33.16354493 10.08553142 36.44378673 10.8125 39.75 C12.30356056 46.3403842 14.04505085 52.82650068 15.9375 59.3125 C17.93921317 66.17730551 19.80586991 73.05283304 21.5 80 C23.15966569 86.7994262 24.97740117 93.53110453 26.9375 100.25 C29.42958115 108.79975532 31.6269616 117.40022747 33.74755859 126.04882812 C35.59564299 133.52796418 37.65345015 140.92708385 39.8137207 148.32128906 C41.81722098 155.22626859 43.5960942 162.17358431 45.26391602 169.16699219 C46.19612355 173.02255382 47.2276314 176.78204891 48.515625 180.53515625 C49.99960446 184.86496224 51.0750702 189.22171665 52.0625 193.6875 C52.9391793 197.62023406 53.81270294 201.45377129 55.12109375 205.26953125 C56 208 56 208 56 212 C53.515625 213.88671875 53.515625 213.88671875 50.25 215.6875 C49.18265625 216.28949219 48.1153125 216.89148438 47.015625 217.51171875 C44.59866405 218.70454533 42.6271391 219.52175866 40 220 C40 220.66 40 221.32 40 222 C38.6875 222.72916667 37.375 223.45833333 36.0625 224.1875 C35.24265625 224.64382813 34.4228125 225.10015625 33.578125 225.5703125 C31.92483837 226.48713509 30.26881306 227.39904647 28.609375 228.3046875 C25.17631032 230.18469911 21.83158817 232.06392953 18.625 234.3125 C16 236 16 236 13 236 C13 236.66 13 237.32 13 238 C11.82244141 238.56267578 11.82244141 238.56267578 10.62109375 239.13671875 C4.66337638 242.03882156 -0.71681447 245.01065582 -6 249 C-10.55172414 252 -10.55172414 252 -14 252 C-14 252.66 -14 253.32 -14 254 C-15.17755859 254.56267578 -15.17755859 254.56267578 -16.37890625 255.13671875 C-22.34441509 258.04261692 -27.68833177 261.04228642 -33 265 C-35.30133012 266.39777101 -37.64515849 267.69175472 -40 269 C-41.36125 269.86625 -41.36125 269.86625 -42.75 270.75 C-45 272 -45 272 -48 272 C-46.69652994 261.31651787 -45.2835435 250.6530565 -43.75 240 C-43.64594849 239.27474121 -43.54189697 238.54948242 -43.43469238 237.80224609 C-41.70603469 225.76084728 -39.94164432 213.72464273 -38.1505127 201.69238281 C-37.88429745 199.90279319 -37.61891154 198.11308 -37.35437012 196.32324219 C-36.98380122 193.81924015 -36.60962773 191.31580383 -36.234375 188.8125 C-36.12416016 188.06411865 -36.01394531 187.3157373 -35.90039062 186.54467773 C-35.45273563 183.58190851 -34.94987921 180.84963763 -34 178 C-34.83144531 177.93941406 -35.66289063 177.87882813 -36.51953125 177.81640625 C-37.60621094 177.73261719 -38.69289063 177.64882813 -39.8125 177.5625 C-41.43091797 177.44068359 -41.43091797 177.44068359 -43.08203125 177.31640625 C-46 177 -46 177 -49 176 C-49.14695312 177.06347656 -49.29390625 178.12695312 -49.4453125 179.22265625 C-50.70827195 188.24852851 -52.03114 197.26369543 -53.4296875 206.26953125 C-53.55664001 207.08705872 -53.68359253 207.90458618 -53.81439209 208.74688721 C-54.07648202 210.43362281 -54.33862871 212.12034959 -54.60083008 213.80706787 C-54.73255615 214.65448547 -54.86428223 215.50190308 -55 216.375 C-55.19903931 217.65531097 -55.19903931 217.65531097 -55.40209961 218.96148682 C-56.92466228 228.77394394 -58.3977945 238.58282827 -59.625 248.4375 C-60.6276079 256.39496299 -61.74905057 264.32751676 -63 272.25 C-63.1542041 273.28181396 -63.3084082 274.31362793 -63.46728516 275.37670898 C-63.62245605 276.33005127 -63.77762695 277.28339355 -63.9375 278.265625 C-64.07027344 279.10899414 -64.20304688 279.95236328 -64.33984375 280.82128906 C-65.43696584 284.44211655 -67.41323238 285.68602785 -70.671875 287.4296875 C-71.68765625 287.90664063 -72.7034375 288.38359375 -73.75 288.875 C-77.4226687 290.65138147 -80.8033156 292.41839848 -84.0625 294.875 C-87 297 -87 297 -90 297 C-90 297.66 -90 298.32 -90 299 C-90.78503906 299.37511719 -91.57007813 299.75023437 -92.37890625 300.13671875 C-98.33662362 303.03882156 -103.71681447 306.01065582 -109 310 C-113.55172414 313 -113.55172414 313 -117 313 C-117 313.66 -117 314.32 -117 315 C-117.78503906 315.37511719 -118.57007813 315.75023437 -119.37890625 316.13671875 C-125.33662362 319.03882156 -130.71681447 322.01065582 -136 326 C-140.55172414 329 -140.55172414 329 -144 329 C-144 329.66 -144 330.32 -144 331 C-144.78503906 331.37511719 -145.57007813 331.75023437 -146.37890625 332.13671875 C-153.47970918 335.56839662 -153.47970918 335.56839662 -160.0625 339.875 C-163 342 -163 342 -166 342 C-166 342.66 -166 343.32 -166 344 C-167.3125 344.72916667 -168.625 345.45833333 -169.9375 346.1875 C-170.75734375 346.64382813 -171.5771875 347.10015625 -172.421875 347.5703125 C-174.07516163 348.48713509 -175.73118694 349.39904647 -177.390625 350.3046875 C-180.82368968 352.18469911 -184.16841183 354.06392953 -187.375 356.3125 C-190 358 -190 358 -193 358 C-193 358.66 -193 359.32 -193 360 C-194.01707031 360.54527344 -194.01707031 360.54527344 -195.0546875 361.1015625 C-200.81118981 364.21103051 -206.45281586 367.4345571 -212.00390625 370.8984375 C-214 372 -214 372 -216 372 C-216.34968118 350.50024446 -216.68158678 329.00024 -217 307.5 C-217.01784562 306.29700138 -217.01784562 306.29700138 -217.03605175 305.06969976 C-217.73223607 258.06565445 -218.19163307 211.07213281 -218.125 164.0625 C-218.12328796 162.84563507 -218.12157593 161.62877014 -218.11981201 160.37503052 C-218.09788361 145.91661997 -218.05914953 131.45830557 -218 117 C-215.942569 117.31014418 -213.88541169 117.62210424 -211.82836914 117.93481445 C-210.68276016 118.10833939 -209.53715118 118.28186432 -208.35682678 118.46064758 C-203.6800622 119.21207875 -199.06517997 120.18269414 -194.4375 121.1875 C-184.74097908 123.25290067 -175.022125 125.17579887 -165.2869873 127.04812622 C-152.43225877 129.52045912 -139.61597297 132.09961907 -126.8359375 134.9375 C-121.19550071 136.18844836 -115.53393735 137.31728514 -109.86328125 138.421875 C-107.56225657 138.8864748 -105.27737053 139.43065737 -103 140 C-102.34 136.7 -101.68 133.4 -101 130 C-101.76586426 129.88825439 -102.53172852 129.77650879 -103.32080078 129.66137695 C-111.8838563 128.38174379 -120.37800606 126.84672691 -128.875 125.1875 C-129.55306702 125.05583435 -130.23113403 124.9241687 -130.92974854 124.78851318 C-140.14368889 122.99802721 -149.3236169 121.08740061 -158.48461914 119.04248047 C-172.9963589 115.84688683 -187.61321189 113.1299808 -202.20323181 110.31864929 C-207.80761038 109.23739428 -213.40272653 108.11945469 -219 107 C-219 90.83 -219 74.66 -219 58 C-206.7257781 54.65248494 -194.54212294 51.38879715 -182.20703125 48.3515625 C-175.32069475 46.60446115 -168.52710673 44.54118512 -161.71801758 42.51806641 C-155.28064329 40.62102982 -148.84093855 38.95051225 -142.29345703 37.48583984 C-135.78836207 36.00818934 -129.40952712 34.1476816 -123.00708008 32.28100586 C-117.03418251 30.55093643 -111.04105123 28.97328165 -105 27.5 C-96.22887433 25.35752765 -87.56349144 22.91347182 -78.890625 20.40625 C-69.94520351 17.82278464 -60.94417101 15.47337696 -51.90332031 13.24804688 C-42.18748126 10.85379994 -32.56946585 8.20431895 -22.95703125 5.42578125 C-18.43962537 4.12121953 -13.91415686 2.85172328 -9.375 1.625 C-8.20710937 1.30789062 -7.03921875 0.99078125 -5.8359375 0.6640625 C-3 0 -3 0 0 0 Z " fill="#15FD00" transform="translate(721,118)"/>
<path d="M0 0 C3.55507475 1.39352818 6.84975092 2.93435356 10.18359375 4.80078125 C11.68418335 5.63971924 11.68418335 5.63971924 13.21508789 6.49560547 C14.27848389 7.09518066 15.34187988 7.69475586 16.4375 8.3125 C17.53247803 8.92754395 18.62745605 9.54258789 19.75561523 10.17626953 C30.59809005 16.2914971 41.31898444 22.60778097 52 29 C48.32757938 34.06404069 44.5050014 38.78923319 40.1875 43.3125 C35.5800787 48.2177748 31.23578852 53.26228852 27.01953125 58.51171875 C25.18829605 60.76799887 23.30604263 62.95418268 21.375 65.125 C19.00691448 67.79724329 16.7894507 70.53539954 14.625 73.375 C11.39437519 77.5863502 7.8944956 81.48521379 4.31640625 85.40234375 C1.98133202 88.02093458 -0.23504623 90.70676808 -2.4375 93.4375 C-6.29941675 98.21284402 -10.37674224 102.73667685 -14.53515625 107.25390625 C-16.92707297 109.91875166 -19.19254884 112.64831825 -21.4375 115.4375 C-25.20907428 120.11667237 -29.17743368 124.55657214 -33.28295898 128.94116211 C-35.69243514 131.52346802 -37.94699092 134.12442768 -40 137 C-39.34410262 138.98264795 -39.34410262 138.98264795 -38 141 C-36.35619011 141.7211874 -34.68967412 142.39401025 -33 143 C-32.23816406 142.10539063 -31.47632813 141.21078125 -30.69140625 140.2890625 C-25.95735268 134.74174058 -21.2247621 129.20379475 -16.3125 123.8125 C-13.28287132 120.47772886 -10.39391908 117.06712361 -7.5625 113.5625 C-4.48663412 109.75912497 -1.31246834 106.09917348 2 102.5 C6.15193069 97.9875916 10.05974328 93.32931632 13.91015625 88.55859375 C15.76879527 86.28306374 17.67306924 84.0703787 19.625 81.875 C21.99308552 79.20275671 24.2105493 76.46460046 26.375 73.625 C29.60562481 69.4136498 33.1055044 65.51478621 36.68359375 61.59765625 C39.01866798 58.97906542 41.23504623 56.29323192 43.4375 53.5625 C47.42319746 48.62949768 51.62008666 43.9567768 55.93359375 39.3125 C58.11369637 36.98197309 58.11369637 36.98197309 60 34 C63.86920356 35.45328674 67.40892783 37.23714253 71.0234375 39.23828125 C71.88429459 39.7135601 71.88429459 39.7135601 72.76254272 40.19844055 C74.63504339 41.23345525 76.50508045 42.27283043 78.375 43.3125 C79.68644999 44.03903233 80.9979743 44.76543053 82.30957031 45.49169922 C92.01274125 50.87063093 101.67842258 56.31482562 111.328125 61.7890625 C117.37236178 65.21609836 123.43533804 68.60927718 129.5 72 C138.45941159 77.01047007 147.4028204 82.04829089 156.3359375 87.10546875 C163.37946347 91.09036769 170.43690717 95.04989994 177.5 99 C186.4593421 104.01059503 195.40281974 109.04829051 204.3359375 114.10546875 C211.37946613 118.09036919 218.43718137 122.04940639 225.5 126 C227.57817504 127.16397316 229.65630014 128.3280355 231.734375 129.4921875 C234.90798411 131.27000552 238.0825473 133.04602173 241.25976562 134.81738281 C244.42546101 136.5825381 247.58796769 138.35329332 250.75 140.125 C251.70841797 140.65738281 252.66683594 141.18976563 253.65429688 141.73828125 C254.54697266 142.23972656 255.43964844 142.74117187 256.359375 143.2578125 C257.13764648 143.6923877 257.91591797 144.12696289 258.71777344 144.57470703 C261.3165263 146.19767657 263.62160193 148.07202765 266 150 C183.71950727 153.99206208 183.71950727 153.99206208 152.9375 155.25 C151.9716095 155.29074646 151.00571899 155.33149292 150.01055908 155.37347412 C137.66634711 155.89087699 125.35492874 156.09524822 113 156 C113 160.95 113 165.9 113 171 C115.30782471 170.88930176 117.61564941 170.77860352 119.9934082 170.66455078 C197.56090114 166.94826668 197.56090114 166.94826668 228.1875 165.75 C229.21396637 165.70925354 230.24043274 165.66850708 231.29800415 165.62652588 C234.15040008 165.51404782 237.00289226 165.40466654 239.85546875 165.296875 C240.64960175 165.26582672 241.44373474 165.23477844 242.26193237 165.20278931 C247.84287499 164.99953901 253.41566324 164.9687656 259 165 C255.11068929 168.31560013 251.08622649 170.75922377 246.625 173.1875 C241.32065511 176.12346639 236.0618764 179.11091445 230.875 182.25 C224.85419227 185.890078 218.80969898 189.48749945 212.75 193.0625 C204.43285198 197.97134902 196.12039036 202.88799739 187.8125 207.8125 C186.11432129 208.8190564 186.11432129 208.8190564 184.38183594 209.84594727 C182.07304855 211.21446615 179.76429921 212.5830492 177.45556641 213.95166016 C171.80409916 217.30176185 166.1520027 220.6508018 160.5 224 C158.24999736 225.33332887 155.99999736 226.66666221 153.75 228 C149.25 230.66666667 144.75 233.33333333 140.25 236 C139.13584717 236.6602417 138.02169434 237.3204834 136.8737793 238.00073242 C134.62785889 239.3316422 132.38192793 240.66253418 130.13598633 241.9934082 C125.02685567 245.02094512 119.91780526 248.04861703 114.80917358 251.07699585 C102.98924603 258.08379219 91.16666387 265.08600739 79.33544922 272.07373047 C69.30678617 277.99802662 59.28736029 283.93789682 49.26786804 289.87768555 C45.05681721 292.3739558 40.8449457 294.86883788 36.6328125 297.36328125 C34.81829601 298.4379977 33.00379505 299.51274034 31.18930054 300.5874939 C29.49520688 301.59082303 27.80095102 302.59387826 26.10668945 303.59692383 C25.05956787 304.21720459 24.01244629 304.83748535 22.93359375 305.4765625 C21.93440918 306.0634082 20.93522461 306.65025391 19.90576172 307.25488281 C17.9634492 308.42138003 16.04266509 309.62446987 14.14501953 310.86230469 C12.82219971 311.71550293 12.82219971 311.71550293 11.47265625 312.5859375 C10.7031665 313.09946777 9.93367676 313.61299805 9.14086914 314.14208984 C7 315 7 315 5.26877975 314.44117165 C1.9461111 312.33054991 -0.68629137 309.58100226 -3.44134521 306.79916382 C-4.08588063 306.15633725 -4.73041605 305.51351068 -5.39448285 304.85120451 C-7.55650907 302.69247682 -9.71130189 300.52667045 -11.86621094 298.36083984 C-13.41314977 296.81333698 -14.96052891 295.26627416 -16.50831604 293.71961975 C-20.71284885 289.51566176 -24.91117822 285.30555716 -29.10844326 281.09434462 C-33.49444647 276.69585554 -37.88609808 272.30301363 -42.27716064 267.90957642 C-49.64779629 260.53342691 -57.01492902 253.15379399 -64.37939453 245.77148438 C-71.96461512 238.16790394 -79.55193479 230.56642827 -87.14208984 222.96777344 C-87.60999726 222.49934058 -88.07790467 222.03090772 -88.55999109 221.54827993 C-90.90737331 219.19828762 -93.25479915 216.84833888 -95.60224104 214.49840617 C-115.0744844 195.0052466 -134.53958012 175.50496269 -154 156 C-152.34828196 151.74238754 -149.16802712 148.89589215 -145.98898315 145.74847412 C-145.36657435 145.12435646 -144.74416554 144.5002388 -144.10289586 143.85720849 C-142.01326453 141.76427936 -139.91655845 139.67858492 -137.81982422 137.59277344 C-136.3215818 136.09509507 -134.82377946 134.59697636 -133.3263855 133.09844971 C-129.25672032 129.02820978 -125.18091 124.96417371 -121.10399008 120.9012022 C-116.84563664 116.65533563 -112.5929313 112.40381967 -108.33963013 108.15289307 C-100.28302218 100.10250589 -92.2213287 92.05723134 -84.15780747 84.01376939 C-74.97866661 74.85696891 -65.80519162 65.69450129 -56.63219428 56.53154707 C-37.76110544 37.68137377 -18.88289259 18.83834853 0 0 Z " fill="#FD8D01" transform="translate(213,345)"/>
<path d="M0 0 C3.30037971 2.12958417 5.93748217 4.87345292 8.68741989 7.6501255 C9.33195531 8.29295207 9.97649073 8.93577864 10.64055753 9.59808481 C12.80258375 11.75681251 14.95737657 13.92261887 17.11228561 16.08844948 C18.65922444 17.63595234 20.20660359 19.18301516 21.75439072 20.72966957 C25.95892353 24.93362757 30.1572529 29.14373217 34.35451794 33.35494471 C38.74052115 37.75343378 43.13217275 42.14627569 47.52323532 46.53971291 C54.89387097 53.91586241 62.2610037 61.29549533 69.62546921 68.67780495 C77.21068979 76.28138538 84.79800947 83.88286106 92.38816452 91.48151588 C92.85607193 91.94994874 93.32397934 92.4183816 93.80606577 92.9010094 C96.15344799 95.25100171 98.50087383 97.60095044 100.84831572 99.95088315 C120.32055907 119.44404272 139.7856548 138.94432663 159.24607468 158.44928932 C157.59484564 162.67764367 154.46272339 165.52598304 151.31339645 168.66958046 C150.39225866 169.60068997 150.39225866 169.60068997 149.45251203 170.55060977 C147.39075735 172.63207047 145.32188729 174.70630778 143.25291061 176.78058815 C141.774304 178.27008847 140.2960877 179.75997632 138.81823349 181.25022316 C134.80057542 185.29839817 130.77617702 189.33980432 126.74958324 193.37908959 C124.23574702 195.9010062 121.7229648 198.42396858 119.21046829 200.94721985 C111.35367951 208.83672356 103.49249606 216.72181264 95.62543178 224.60107023 C86.53459087 233.70618423 77.4587746 242.82593622 68.39550757 251.95849591 C61.39370583 259.01198419 54.37860478 266.05206284 47.35324121 273.08208293 C43.15487128 277.28385885 38.96248545 281.49122772 34.78390884 285.71269608 C30.8560456 289.68016965 26.91201377 293.63080797 22.95475197 297.56895256 C21.50304582 299.01938759 20.05734528 300.47586143 18.61807823 301.93864059 C16.65666663 303.93025934 14.67504461 305.89925326 12.68668747 307.8639164 C11.83364961 308.74549273 11.83364961 308.74549273 10.96337867 309.64487869 C9.33699799 311.22528744 9.33699799 311.22528744 6.24607468 313.44928932 C1.54247414 313.35504477 -1.69655249 311.64053672 -5.73830032 309.32428932 C-6.83787064 308.70038307 -7.93744095 308.07647682 -9.07033157 307.43366432 C-10.20341751 306.77882057 -11.33650345 306.12397682 -12.50392532 305.44928932 C-13.66360058 304.78698806 -14.82375298 304.12552154 -15.98439407 303.46491432 C-18.10108116 302.25822816 -20.21557515 301.04768129 -22.32716751 299.83210182 C-23.78315568 299.00245222 -25.25506709 298.19871844 -26.75392532 297.44928932 C-26.1257155 294.38484072 -25.10827198 292.09074503 -23.48830032 289.42194557 C-23.01747025 288.6412571 -22.54664017 287.86056862 -22.06154251 287.05622292 C-21.54752884 286.21655983 -21.03351517 285.37689674 -20.50392532 284.51178932 C-19.96670853 283.62571999 -19.42949173 282.73965065 -18.87599564 281.82673073 C-14.06006546 273.90208272 -9.17813002 266.01794342 -4.28517532 258.14069557 C-0.54124224 252.11179872 3.18566684 246.0724846 6.90708542 240.02967262 C7.6298013 238.85640362 8.35286135 237.68334656 9.07627487 236.51050758 C10.08681386 234.87211373 11.09615845 233.23298337 12.10544968 231.59382057 C12.97895065 230.1761338 12.97895065 230.1761338 13.87009811 228.7298069 C15.24008072 226.52724143 15.24008072 226.52724143 16.24607468 224.44928932 C13.59378656 223.37403738 10.96239014 222.35472781 8.24607468 221.44928932 C7.91510788 222.01623512 7.58414108 222.58318092 7.24314499 223.1673069 C0.98832997 233.86355716 -5.33511831 244.49739184 -11.99855423 254.94465065 C-17.26103946 263.20673517 -22.37922294 271.55659449 -27.49928665 279.90729713 C-28.47998123 281.50589577 -28.47998123 281.50589577 -29.48048782 283.13678932 C-30.06394974 284.08940651 -30.64741165 285.0420237 -31.24855423 286.02350807 C-32.38392013 287.8530565 -33.55954062 289.65771226 -34.75392532 291.44928932 C-38.78456326 290.20492883 -42.33338575 288.72863369 -46.00001907 286.64850807 C-46.99001907 286.09034401 -47.98001907 285.53217995 -49.00001907 284.95710182 C-50.05318314 284.3563987 -51.1063472 283.75569557 -52.19142532 283.13678932 C-53.85044876 282.19899635 -53.85044876 282.19899635 -55.54298782 281.24225807 C-58.94922896 279.31580927 -62.35163911 277.38271203 -65.75392532 275.44928932 C-68.65363139 273.80836309 -71.55442079 272.16936612 -74.45534134 270.53058815 C-76.33252064 269.46991552 -78.20930654 268.40854636 -80.08571243 267.34650612 C-88.1637675 262.77536424 -96.26211324 258.24094112 -104.36305618 253.71051979 C-115.17962956 247.65813639 -125.96912409 241.5580661 -136.75392532 235.44928932 C-136.86447338 229.45869 -136.54882755 223.85847747 -135.58205032 217.95319557 C-135.45953903 217.1696067 -135.33702774 216.38601784 -135.21080399 215.57868385 C-134.81485724 213.05533686 -134.40947387 210.53360911 -134.00392532 208.01178932 C-133.72898983 206.27027936 -133.45474329 204.5286605 -133.18117142 202.78693581 C-132.63463581 199.31190754 -132.08483048 195.83742313 -131.53224564 192.36335182 C-130.4555959 185.58339509 -129.41687735 178.79776447 -128.37892532 172.01178932 C-128.05882139 169.929726 -127.73853342 167.84769095 -127.41798782 165.76569557 C-127.28859818 164.92466286 -127.15920853 164.08363014 -127.02589798 163.21711159 C-126.89127151 162.34203957 -126.89127151 162.34203957 -126.75392532 161.44928932 C-117.84785635 160.30906596 -108.90209059 159.86238422 -99.94142532 159.38678932 C-99.10931534 159.34193398 -98.27720535 159.29707863 -97.41987991 159.25086403 C-82.18190319 158.44224972 -67.01408173 158.22524135 -51.75392532 158.44928932 C-51.75392532 153.49928932 -51.75392532 148.54928932 -51.75392532 143.44928932 C-54.6525032 143.58560768 -54.6525032 143.58560768 -57.60963821 143.72467995 C-64.01172394 144.02538157 -70.41387892 144.32457193 -76.81608295 144.62274361 C-80.69571391 144.80348571 -84.57531503 144.98482437 -88.45485306 145.16755104 C-92.20248778 145.34404265 -95.95019409 145.51893497 -99.69795418 145.6927433 C-101.1240229 145.75915638 -102.55006542 145.82613464 -103.97607994 145.89370155 C-105.98146548 145.98862092 -107.98695668 146.08129981 -109.99245071 146.1738987 C-111.13162445 146.22719337 -112.27079819 146.28048805 -113.44449234 146.33539772 C-116.88359914 146.45375195 -120.3130609 146.46853405 -123.75392532 146.44928932 C-123.35747675 140.11978278 -122.53802171 133.93191615 -121.37892532 127.69928932 C-120.32957258 122.02310012 -119.43919502 116.3540433 -118.73244095 110.62458229 C-118.49367594 108.73326 -118.23668917 106.84416201 -117.9629097 104.9575901 C-117.13670478 99.17698515 -116.66166107 93.52217845 -116.47267532 87.68366432 C-115.49432524 68.39279101 -115.49432524 68.39279101 -109.1191597 61.67145729 C-102.44068174 56.28801699 -94.43623321 52.83095383 -86.67970657 49.30573463 C-80.55153345 46.47853102 -74.8811846 42.90507502 -69.12892532 39.38678932 C-66.8990531 38.05937597 -64.66727925 36.73515186 -62.43361282 35.41413307 C-60.78184036 34.43355934 -60.78184036 34.43355934 -59.09669876 33.43317604 C-55.73581782 31.43854278 -52.37397474 29.44554221 -49.01173782 27.45319557 C-47.33664139 26.46017433 -47.33664139 26.46017433 -45.62770462 25.44709206 C-43.39599125 24.1255702 -41.1630981 22.80603847 -38.92897415 21.48859596 C-33.62861411 18.3594397 -28.34502196 15.21054314 -23.10161209 11.98707008 C-20.61220717 10.45839652 -18.11576677 8.94143341 -15.61867142 7.42536354 C-14.42514025 6.69618099 -13.2351215 5.96121531 -12.0488472 5.22028542 C-10.40863768 4.19632072 -8.75537611 3.19335235 -7.10158157 2.19147682 C-5.69404617 1.32305153 -5.69404617 1.32305153 -4.25807571 0.43708229 C-1.75392532 -0.55071068 -1.75392532 -0.55071068 0 0 Z " fill="#56DFFD" transform="translate(781.7539253234863,340.5507106781006)"/>
<path d="M0 0 C-0.8682479 8.49165532 -2.09407789 16.92828534 -3.3125 25.375 C-3.53548446 26.92496706 -3.75846621 28.47493451 -3.98144531 30.02490234 C-4.43322497 33.16195577 -4.8863402 36.29881287 -5.34033203 39.43554688 C-5.8636963 43.05256066 -6.38267745 46.67018336 -6.90007019 50.28805542 C-7.34635849 53.40090487 -7.79846406 56.51290809 -8.25 59.625 C-8.41282471 60.76759277 -8.57564941 61.91018555 -8.7434082 63.08740234 C-8.97096802 64.64128662 -8.97096802 64.64128662 -9.203125 66.2265625 C-9.33364258 67.12971191 -9.46416016 68.03286133 -9.59863281 68.96337891 C-10 71 -10 71 -11 72 C-13.10799248 72.1731116 -15.22159543 72.2780943 -17.33520508 72.35717773 C-17.99928879 72.38337189 -18.6633725 72.40956604 -19.34757996 72.43655396 C-20.80159761 72.49324237 -22.25570431 72.54767914 -23.70987892 72.6001873 C-26.05137258 72.68474361 -28.39258551 72.77503529 -30.73381042 72.86671448 C-34.91368285 73.0294062 -39.09373354 73.18688691 -43.27386475 73.34277344 C-50.62681592 73.61714124 -57.97952042 73.89767726 -65.33203125 74.18359375 C-66.54349005 74.23035311 -66.54349005 74.23035311 -67.77942276 74.2780571 C-81.66303165 74.81790069 -95.53282421 75.53450379 -109.40180969 76.36827087 C-116.27761958 76.77674277 -123.11051491 77.11123723 -130 77 C-126.60578219 74.16968396 -123.19137862 71.82788715 -119.3515625 69.64453125 C-118.27205322 69.02715088 -117.19254395 68.40977051 -116.08032227 67.77368164 C-114.94006592 67.1264917 -113.79980957 66.47930176 -112.625 65.8125 C-110.25006421 64.45528341 -107.87699195 63.09482323 -105.50390625 61.734375 C-104.36840332 61.08404297 -103.23290039 60.43371094 -102.06298828 59.76367188 C-97.97267377 57.40846448 -93.92457789 54.99158121 -89.88623047 52.54833984 C-83.69670779 48.80667026 -77.47358686 45.12215336 -71.25 41.4375 C-70.07820336 40.74357607 -68.90640976 40.049647 -67.73461914 39.35571289 C-65.34595799 37.94125063 -62.95718465 36.52697802 -60.56835938 35.11279297 C-55.99225896 32.403571 -51.41737514 29.69229683 -46.8425293 26.98095703 C-44.62272435 25.66538495 -42.40283568 24.34995416 -40.18286133 23.03466797 C-34.88628253 19.89650028 -29.59029043 16.75735801 -24.29611206 13.61514282 C-21.78257366 12.12337318 -19.26874025 10.63210107 -16.75488281 9.14086914 C-15.55112131 8.42660066 -14.34750603 7.71208567 -13.14404297 6.99731445 C-11.48050813 6.00931373 -9.81643901 5.02221276 -8.15234375 4.03515625 C-7.20351318 3.4719165 -6.25468262 2.90867676 -5.27709961 2.32836914 C-1.28579305 0 -1.28579305 0 0 0 Z " fill="#56DEFB" transform="translate(653,416)"/>
<path d="M0 0 C7.425 0.99 7.425 0.99 15 2 C13.14128771 20.19422432 10.4244097 38.03861548 7 56 C7.9890332 55.8460376 8.97806641 55.6920752 9.99707031 55.53344727 C14.00152152 54.96334561 18.00990095 54.6844594 22.046875 54.46484375 C22.80831818 54.42177597 23.56976135 54.37870819 24.35427856 54.33433533 C26.81929416 54.19745947 29.28457243 54.06673106 31.75 53.9375 C32.58871643 53.89264465 33.42743286 53.84778931 34.29156494 53.80157471 C49.21087305 53.01455106 64.05917118 52.7701411 79 53 C79 57.95 79 62.9 79 68 C54.00408527 69.14710711 29.01193504 70.26356242 4 71 C4.08701172 72.70929688 4.08701172 72.70929688 4.17578125 74.453125 C4.17181934 81.22006146 2.81102585 87.80817494 1.60653687 94.44192505 C0.89929312 98.33745716 0.21540803 102.23707655 -0.46875 106.13671875 C-0.60352249 106.90213486 -0.73829498 107.66755096 -0.87715149 108.4561615 C-2.13576155 115.65923375 -3.19899921 122.88372348 -4.1496582 130.13378906 C-4.90598917 135.81197834 -4.90598917 135.81197834 -6 138 C-7.9587043 137.85923685 -9.91696093 137.7122324 -11.875 137.5625 C-13.51082031 137.44068359 -13.51082031 137.44068359 -15.1796875 137.31640625 C-18 137 -18 137 -20 136 C-20.40046973 127.69235758 -19.15483762 119.90906509 -17.6875 111.75 C-17.22265983 109.09463959 -16.76472038 106.43811977 -16.30859375 103.78125 C-16.19512604 103.12320374 -16.08165833 102.46515747 -15.9647522 101.78717041 C-14.75657617 94.70781361 -13.79703701 87.60026492 -12.90112305 80.47558594 C-12.0966957 74.19339139 -12.0966957 74.19339139 -11 72 C-11.72888428 72.03029297 -12.45776855 72.06058594 -13.20874023 72.09179688 C-27.14935687 72.66272864 -41.04722983 73.12800707 -55 73 C-55 68.38 -55 63.76 -55 59 C-39.70673824 56.91639423 -24.41823235 56.40530938 -9 56 C-8.86424561 55.03400879 -8.72849121 54.06801758 -8.58862305 53.07275391 C-4.03675528 20.72985592 -4.03675528 20.72985592 -2.25 10 C-2.07730591 8.95513428 -2.07730591 8.95513428 -1.90112305 7.88916016 C-1.4338897 5.15639251 -0.87901311 2.63703933 0 0 Z " fill="#010304" transform="translate(651,431)"/>
<path d="M0 0 C0.33 0 0.66 0 1 0 C1 3.3 1 6.6 1 10 C2.37091797 9.89171875 2.37091797 9.89171875 3.76953125 9.78125 C17.50703025 8.79434554 31.23401128 8.90109547 45 9 C43.48474687 22.34856871 41.66148977 35.62679669 39.4375 48.875 C39.22778564 50.12684082 39.01807129 51.37868164 38.80200195 52.66845703 C37.64530931 59.46979153 36.40531704 66.24550603 35 73 C34.33790527 72.63793457 33.67581055 72.27586914 32.99365234 71.90283203 C28.14110566 69.25219546 23.28421823 66.61034746 18.4140625 63.9921875 C7.86801047 58.31785955 -2.61800156 52.56199209 -12.99804688 46.58911133 C-19.7631944 42.69762667 -26.56162181 38.86886532 -33.375 35.0625 C-45.27247276 28.41456686 -57.14140424 21.71700042 -69 15 C-69 14.34 -69 13.68 -69 13 C-62.70958526 12.70875558 -56.41890836 12.42430608 -50.12792969 12.14550781 C-47.99861854 12.05026093 -45.86938225 11.95332179 -43.74023438 11.85449219 C-29.14867023 11.17870141 -14.60710696 10.86959557 0 11 C0 7.37 0 3.74 0 0 Z " fill="#55DDFA" transform="translate(595,494)"/>
<path d="M0 0 C5.36891879 0.49869404 10.69235173 1.02227532 16 2 C17.60659864 7.29069552 18.74964976 12.55665548 19.7265625 17.99609375 C19.87910492 18.82963882 20.03164734 19.6631839 20.18881226 20.52198792 C20.67079802 23.1599106 21.14797356 25.79867648 21.625 28.4375 C21.9528064 30.23638621 22.28092825 32.03521497 22.609375 33.83398438 C23.40989927 38.22200031 24.20611348 42.61077851 25 47 C28.46376561 41.43595202 31.69692936 35.78032633 34.7265625 29.96875 C35.04477966 29.36087646 35.36299683 28.75300293 35.69085693 28.12670898 C37.00718713 25.60945966 38.32129787 23.09129433 39.61914062 20.56445312 C40.5820992 18.69361645 41.55927005 16.83081268 42.5390625 14.96875 C43.39298584 13.32036133 43.39298584 13.32036133 44.26416016 11.63867188 C46.04770525 8.92748265 46.93752929 7.94351507 50 7 C53.234375 7.2421875 53.234375 7.2421875 56.75 7.875 C58.50570312 8.18050781 58.50570312 8.18050781 60.296875 8.4921875 C61.18890625 8.65976562 62.0809375 8.82734375 63 9 C62.43319578 12.57932165 61.53222834 15.18826927 59.65625 18.28125 C59.1597998 19.10955322 58.66334961 19.93785645 58.15185547 20.79125977 C57.60674316 21.68514404 57.06163086 22.57902832 56.5 23.5 C55.324701 25.45653901 54.15026906 27.41359904 52.9765625 29.37109375 C52.34137695 30.4266748 51.70619141 31.48225586 51.05175781 32.56982422 C47.66547154 38.23109529 44.33904879 43.9272934 41.00952148 49.62207031 C39.19274501 52.72939534 37.37383432 55.83546855 35.5546875 58.94140625 C34.94093262 59.99013916 34.32717773 61.03887207 33.69482422 62.11938477 C33.13553223 63.06998779 32.57624023 64.02059082 32 65 C31.51031738 65.94222412 31.02063477 66.88444824 30.51611328 67.85522461 C29.76563721 68.91688843 29.76563721 68.91688843 29 70 C24.07535942 70.48439088 19.86709913 69.82163711 15 69 C6.25832856 31.49898866 6.25832856 31.49898866 2.4375 13.6875 C2.18661621 12.52186523 1.93573242 11.35623047 1.67724609 10.15527344 C0 2.26079469 0 2.26079469 0 0 Z " fill="#030105" transform="translate(585,708)"/>
<path d="M0 0 C1.03685927 5.05468894 1.08332441 9.87259644 1 15 C-6.17133184 18.80212344 -13.6492373 21.81752827 -21.16552734 24.85595703 C-23.39237299 25.75702982 -25.61618388 26.6653167 -27.83984375 27.57421875 C-29.25503323 28.1488689 -30.67039174 28.72310303 -32.0859375 29.296875 C-32.75047943 29.56868591 -33.41502136 29.84049683 -34.09970093 30.12054443 C-38.77018091 32 -38.77018091 32 -41 32 C-41 32.66 -41 33.32 -41 34 C-40.34733154 34.09869385 -39.69466309 34.1973877 -39.0222168 34.29907227 C-31.67651912 35.50938754 -24.8399642 37.50885828 -17.8125 39.9375 C-16.78447266 40.28490234 -15.75644531 40.63230469 -14.69726562 40.99023438 C-9.09177327 42.8945955 -3.53020285 44.88726382 2 47 C2.495 54.92 2.495 54.92 3 63 C-18.71383753 55.79917183 -40.39197056 48.51294562 -62 41 C-62 36.38 -62 31.76 -62 27 C-50.73668202 21.71225912 -39.42626308 16.53603129 -28.08886719 11.40917969 C-25.21210103 10.10785616 -22.33650119 8.80397812 -19.4609375 7.5 C-17.62506954 6.66911717 -15.78913458 5.83838234 -13.953125 5.0078125 C-13.09696594 4.61933136 -12.24080688 4.23085022 -11.35870361 3.83059692 C-10.566474 3.47287201 -9.77424438 3.11514709 -8.95800781 2.74658203 C-8.26378723 2.43238312 -7.56956665 2.1181842 -6.85430908 1.79446411 C-4.53649393 0.80141448 -2.54362267 0 0 0 Z " fill="#050200" transform="translate(317,480)"/>
<path d="M0 0 C3.54653048 1.30696724 6.53113053 2.86243483 9.66015625 4.9765625 C10.53124023 5.56123291 11.40232422 6.14590332 12.29980469 6.74829102 C13.21149414 7.36760498 14.12318359 7.98691895 15.0625 8.625 C16.94370389 9.89758865 18.82521283 11.16972649 20.70703125 12.44140625 C21.61404785 13.05516113 22.52106445 13.66891602 23.45556641 14.30126953 C25.62094755 15.74693467 27.80149668 17.15177511 30.01171875 18.52734375 C31.08035156 19.19894531 32.14898438 19.87054688 33.25 20.5625 C34.16265625 21.12066406 35.0753125 21.67882812 36.015625 22.25390625 C38 24 38 24 38.859375 26.40234375 C39.00704172 29.13007613 38.57831763 31.34290245 38 34 C31.77079332 35.14178221 25.54109223 36.28083587 19.31103516 37.41796875 C17.19047671 37.80535659 15.07003344 38.19337539 12.94970703 38.58203125 C9.90687435 39.13967053 6.86363847 39.69506 3.8203125 40.25 C2.86818878 40.42499023 1.91606506 40.59998047 0.93508911 40.78027344 C0.05432709 40.94043945 -0.82643494 41.10060547 -1.73388672 41.265625 C-2.89970779 41.47880371 -2.89970779 41.47880371 -4.08908081 41.69628906 C-6 42 -6 42 -8 42 C-7.85892253 40.54119891 -7.71197585 39.08296449 -7.5625 37.625 C-7.48128906 36.81289063 -7.40007813 36.00078125 -7.31640625 35.1640625 C-7 33 -7 33 -6 31 C-3.31616211 30.40576172 -3.31616211 30.40576172 0.22265625 29.9296875 C1.48271484 29.75566406 2.74277344 29.58164062 4.04101562 29.40234375 C5.3814848 29.22636723 6.72197995 29.05058856 8.0625 28.875 C9.40701435 28.69223791 10.75141736 28.50865469 12.09570312 28.32421875 C15.39612549 27.87469886 18.69746617 27.43368838 22 27 C22 26.34 22 25.68 22 25 C19.91266962 23.49287123 19.91266962 23.49287123 17.22265625 21.99609375 C16.23458984 21.42052734 15.24652344 20.84496094 14.22851562 20.25195312 C13.18373047 19.65318359 12.13894531 19.05441406 11.0625 18.4375 C9.0110647 17.24982693 6.96024914 16.06108252 4.91015625 14.87109375 C3.99371338 14.34443115 3.07727051 13.81776855 2.13305664 13.27514648 C0 12 0 12 -1 11 C-0.91015699 9.14227838 -0.75388139 7.28752015 -0.5625 5.4375 C-0.46066406 4.42558594 -0.35882812 3.41367188 -0.25390625 2.37109375 C-0.12822266 1.19740234 -0.12822266 1.19740234 0 0 Z " fill="#000600" transform="translate(628,233)"/>
<path d="M0 0 C2.9271587 1.62689722 4.1486951 3.0810473 5.8203125 6.01171875 C5.50361257 9.28614568 4.32463744 12.19453636 3.1484375 15.25 C2.83203308 16.13076706 2.51562866 17.01153412 2.18963623 17.91899109 C1.17357913 20.73005018 0.12264403 23.52656274 -0.9296875 26.32421875 C-1.62473223 28.22766411 -2.31746986 30.13195362 -3.0078125 32.03710938 C-4.70515553 36.70552909 -6.43389112 41.361213 -8.1796875 46.01171875 C-12.86060049 46.01171875 -13.80070354 45.01526004 -17.1796875 42.01171875 C-16.52710455 38.24357848 -15.46982417 34.84630407 -14.11328125 31.2734375 C-13.71044922 30.20673828 -13.30761719 29.14003906 -12.89257812 28.04101562 C-12.26125977 26.38682617 -12.26125977 26.38682617 -11.6171875 24.69921875 C-11.19244141 23.57708984 -10.76769531 22.45496094 -10.33007812 21.29882812 C-9.28339994 18.53512729 -8.23315885 15.77283574 -7.1796875 13.01171875 C-10.61819459 14.96828777 -14.05531699 16.92727659 -17.4921875 18.88671875 C-18.46865234 19.44230469 -19.44511719 19.99789063 -20.45117188 20.5703125 C-21.38896484 21.10527344 -22.32675781 21.64023437 -23.29296875 22.19140625 C-24.15704346 22.68366699 -25.02111816 23.17592773 -25.91137695 23.68310547 C-27.70379185 24.73297328 -29.45130982 25.85946696 -31.1796875 27.01171875 C-33.0546875 27.01171875 -33.0546875 27.01171875 -35.1796875 26.01171875 C-36.95158866 24.09154969 -38.53886478 22.0478552 -40.1796875 20.01171875 C-19.34009595 8.50844864 -19.34009595 8.50844864 -9.0546875 3.19921875 C-8.08982422 2.68488281 -8.08982422 2.68488281 -7.10546875 2.16015625 C-4.69759674 0.93801819 -2.72812635 0.01466735 0 0 Z " fill="#060600" transform="translate(377.1796875,245.98828125)"/>
<path d="M0 0 C3.10990537 1.63085693 3.6197721 2.27545572 4.80078125 5.46875 C4.77554321 7.43035889 4.77554321 7.43035889 4.38525391 9.50292969 C4.17480942 10.67369049 4.17480942 10.67369049 3.96011353 11.86810303 C3.7966745 12.70053528 3.63323547 13.53296753 3.46484375 14.390625 C3.30664154 15.25061096 3.14843933 16.11059692 2.98544312 16.99664307 C2.47787937 19.73981155 1.95209679 22.47912396 1.42578125 25.21875 C1.0782207 27.07920212 0.73185208 28.93987733 0.38671875 30.80078125 C-0.46145712 35.35947376 -1.32598715 39.91479347 -2.19921875 44.46875 C-5.67075256 43.70471585 -8.19692693 42.38688089 -11.19921875 40.46875 C-10.4629462 34.80098527 -9.38504176 29.24594468 -8.19921875 23.65625 C-8.02132812 22.79837891 -7.8434375 21.94050781 -7.66015625 21.05664062 C-7.48742187 20.23744141 -7.3146875 19.41824219 -7.13671875 18.57421875 C-6.98074219 17.83324951 -6.82476563 17.09228027 -6.6640625 16.32885742 C-6.19921875 14.46875 -6.19921875 14.46875 -5.19921875 12.46875 C-6.11703125 13.19320312 -7.03484375 13.91765625 -7.98046875 14.6640625 C-10.5041435 16.65527868 -13.03542959 18.63636118 -15.5703125 20.61328125 C-17.65923026 22.2453994 -19.70660817 23.89639563 -21.734375 25.60546875 C-23.51657494 27.07861668 -25.14155776 28.41494789 -27.19921875 29.46875 C-30.01171875 28.96875 -30.01171875 28.96875 -32.19921875 27.46875 C-33.18921875 26.80875 -34.17921875 26.14875 -35.19921875 25.46875 C-34.04904464 22.01822767 -33.24393153 21.49762101 -30.3671875 19.4296875 C-29.57401123 18.85283203 -28.78083496 18.27597656 -27.96362305 17.68164062 C-27.11324463 17.07513672 -26.26286621 16.46863281 -25.38671875 15.84375 C-23.64635146 14.59223529 -21.90676771 13.33963026 -20.16796875 12.0859375 C-19.3171875 11.47331055 -18.46640625 10.86068359 -17.58984375 10.22949219 C-15.50522728 8.69413128 -13.48299339 7.11652242 -11.48046875 5.4765625 C-10.45953125 4.64898438 -9.43859375 3.82140625 -8.38671875 2.96875 C-7.51402344 2.2365625 -6.64132812 1.504375 -5.7421875 0.75 C-3.19921875 -0.53125 -3.19921875 -0.53125 0 0 Z " fill="#020607" transform="translate(816.19921875,523.53125)"/>
</svg>
