<?xml version="1.0" encoding="UTF-8"?>
<svg version="1.1" xmlns="http://www.w3.org/2000/svg" width="1000" height="1000">
<path d="M0 0 C330 0 660 0 1000 0 C1000 330 1000 660 1000 1000 C670 1000 340 1000 0 1000 C0 670 0 340 0 0 Z " fill="#FEFEFE" transform="translate(0,0)"/>
<path d="M0 0 C1.55843377 0.41946633 3.11694862 0.83863152 4.67553711 1.25752258 C8.03639723 2.1614307 11.39671674 3.06731219 14.75662231 3.97476196 C20.13956936 5.42857104 25.52365501 6.87812995 30.90795898 8.3269043 C36.65824447 9.87430595 42.40847533 11.42190792 48.15834045 12.97087097 C62.88220995 16.93693085 77.6100916 20.88787966 92.33984375 24.83203125 C94.50935437 25.41303235 96.67886426 25.99403617 98.84837341 26.57504272 C107.30693225 28.84017269 115.76556892 31.10501166 124.22439575 33.36914062 C129.17323431 34.69381657 134.12182153 36.01942854 139.07031059 37.34540939 C141.89943394 38.10308665 144.72888547 38.8595289 147.55836487 39.61587524 C156.18831756 41.92551919 164.80965194 44.26058828 173.41357422 46.66552734 C174.95529103 47.09438826 176.49703327 47.52315776 178.0388031 47.951828 C180.8495842 48.73357451 183.65679054 49.52665661 186.46229553 50.32710266 C187.6928215 50.66992783 188.92334747 51.01275299 190.19116211 51.3659668 C191.24782578 51.66544724 192.30448944 51.96492767 193.39317322 52.27348328 C199.62471477 53.54425773 204.7984839 52.7905617 210.8840332 51.14404297 C211.59390821 50.95457627 212.30378323 50.76510958 213.0351696 50.56990147 C215.3955497 49.93768294 217.75235813 49.29307147 220.109375 48.6484375 C221.80238877 48.19234648 223.49561651 47.73704913 225.18904114 47.28248596 C229.77401636 46.04948923 234.35605035 44.80587061 238.93766022 43.56043625 C243.76578085 42.25005927 248.59661131 40.94975363 253.42724609 39.64868164 C261.45709242 37.48489316 269.48553732 35.31597819 277.51318359 33.14404297 C288.87432333 30.07098907 300.24082103 27.01815242 311.609375 23.97265625 C313.39008721 23.49549354 315.17079807 23.0183258 316.95150757 22.54115295 C323.89182155 20.68156789 330.83233192 18.82271652 337.77294922 16.96426392 C342.79158475 15.62031321 347.80997094 14.27543482 352.828125 12.9296875 C353.63030079 12.71458464 354.43247658 12.49948177 355.25896072 12.27786064 C365.53582506 9.52091454 375.80448789 6.73578235 386.06439209 3.91638756 C390.35167953 2.73929297 394.64075917 1.56873158 398.92938232 0.39651489 C402.20343349 -0.50237818 405.47404131 -1.41306405 408.74462891 -2.32446289 C410.66813545 -2.85100371 412.59179035 -3.37700302 414.515625 -3.90234375 C415.79200081 -4.26451492 415.79200081 -4.26451492 417.09416199 -4.63400269 C424.84386256 -6.72465218 424.84386256 -6.72465218 428.49609375 -5.09375 C431.6395269 -0.82167177 432.76372249 3.80775684 434.07714844 8.85668945 C434.31710761 9.75359466 434.55706678 10.65049986 434.80429745 11.57458401 C435.59954368 14.55432963 436.38372303 17.53687323 437.16796875 20.51953125 C437.72805024 22.62642573 438.28883997 24.73313205 438.85029602 26.83966064 C440.34865491 32.46882953 441.83765513 38.10043373 443.3247261 43.73259354 C444.85643741 49.52809253 446.39607585 55.32148364 447.93530273 61.11499023 C449.76523164 68.00426824 451.59451451 74.89371328 453.41990662 81.78419495 C456.76556963 94.4112254 460.13318382 107.03181729 463.546875 119.640625 C463.90754264 120.97473001 464.26815006 122.3088513 464.62869263 123.64299011 C466.54691771 130.73853238 466.54691771 130.73853238 468.47570801 137.83120728 C473.80861752 157.39241546 473.80861752 157.39241546 475.13452148 166.55493164 C475.6523144 169.92215887 476.52930163 173.07705008 477.49609375 176.34375 C477.82609375 177.47683594 478.15609375 178.60992187 478.49609375 179.77734375 C479.43646852 182.85166216 479.43646852 182.85166216 480.5625 185.5546875 C481.43523729 187.75296301 481.97760919 189.77908552 482.43359375 192.09375 C483.30556974 196.19676878 484.40141395 200.17353535 485.66796875 204.171875 C486.25903281 206.1235016 486.78324746 208.09588678 487.26171875 210.078125 C489.5078061 218.77660875 493.17461268 223.66002466 499.49609375 229.90625 C500.69621229 231.27025027 501.88468046 232.64463223 503.05859375 234.03125 C505.4110297 236.74142966 507.86143085 239.27914601 510.43359375 241.78125 C513.34933576 244.63009162 515.80864904 247.57868431 518.24609375 250.84375 C522.21404375 255.9759488 526.76308131 259.34693854 532.0546875 262.99609375 C534.49609375 264.90625 534.49609375 264.90625 535.49609375 267.90625 C536.82268796 268.58622797 538.15751251 269.25018409 539.49609375 269.90625 C541.15604406 271.37730944 542.76354461 272.90822143 544.33622742 274.472229 C545.0447084 275.17285497 545.0447084 275.17285497 545.76750213 275.88763499 C547.34677601 277.45192309 548.91883505 279.02326307 550.4909668 280.59472656 C551.62253355 281.71867102 552.75450167 282.84221152 553.88684082 283.96537781 C556.95975728 287.01635271 560.0260788 290.07387263 563.09058356 293.13329411 C565.00524506 295.04431245 566.92119833 296.95402594 568.83759499 298.86330414 C575.52253684 305.52375528 582.20174161 312.18990462 588.8762207 318.86083984 C595.09922988 325.08021131 601.33525377 331.28632177 607.57733315 337.48654771 C612.93572196 342.81026277 618.2844678 348.14353903 623.62589675 353.48426986 C626.8164111 356.67399058 630.01079261 359.8595931 633.21509361 363.03546906 C636.2278067 366.02205094 639.22836508 369.02032739 642.21999359 372.02802467 C643.31980488 373.12965421 644.42390248 374.22702361 645.5325489 375.31976128 C647.0458453 376.81265739 648.54290365 378.32017233 650.03691101 379.83233643 C650.87884349 380.67225758 651.72077597 381.51217873 652.58822155 382.37755203 C654.82570126 385.34311251 655.4131836 387.20493506 655.49609375 390.90625 C654.58918285 392.74219799 654.58918285 392.74219799 652.99491882 394.39237976 C652.33932669 395.07592215 651.68373455 395.75946453 651.00827599 396.46372032 C650.17925585 397.26975512 649.35023571 398.07578991 648.49609375 398.90625 C647.75802093 399.62424125 647.75802093 399.62424125 647.00503755 400.35673738 C643.27480317 403.96862556 639.49547532 407.52681741 635.70550537 411.07584 C631.83672341 414.70041122 627.98131139 418.33913758 624.12641907 421.97846985 C623.305125 422.75369669 622.48383094 423.52892352 621.63764918 424.32764208 C610.05079834 435.28140695 598.603803 446.38112805 587.15549183 457.47931385 C577.88373093 466.4595018 568.56764407 475.38200664 559.12524414 484.18286133 C513.55071993 526.7221797 480.23335433 560.87938288 471.65206909 624.09823608 C470.33856048 633.76322663 467.84029566 642.99677187 465.08550072 652.33581161 C463.93140322 656.29352808 462.88358427 660.27863727 461.82763672 664.26342773 C461.42280102 665.77326841 461.01734533 667.28294299 460.61126709 668.79244995 C460.40925438 669.54418865 460.20724167 670.29592735 459.99910736 671.07044601 C459.11310645 674.36579571 458.22622568 677.66090833 457.33928108 680.95600414 C456.18269455 685.25308058 455.02677787 689.55033703 453.87109375 693.84765625 C453.64620144 694.68367937 453.42130913 695.51970249 453.1896019 696.38105965 C450.05056887 708.05498873 446.95392659 719.73945457 443.8866539 731.43243027 C442.64429685 736.16218244 441.39430074 740.88992176 440.14395332 745.61756706 C438.97574199 750.03848097 437.82050483 754.46251657 436.67506027 758.88938046 C436.14284773 760.93667955 435.60389894 762.98205571 435.06176758 765.02674866 C434.40701639 767.4962465 433.76307459 769.96864609 433.13208008 772.44432068 C432.84212158 773.52415726 432.55216309 774.60399384 432.25341797 775.71655273 C432.00888885 776.65280991 431.76435974 777.58906708 431.51242065 778.55369568 C430.28332647 781.39875549 429.22819943 782.4624306 426.49609375 783.90625 C424.45849609 783.90289307 424.45849609 783.90289307 422.20703125 783.34472656 C421.32241211 783.13303833 420.43779297 782.9213501 419.52636719 782.70324707 C418.52637695 782.44023804 417.52638672 782.177229 416.49609375 781.90625 C415.38008789 781.62422729 414.26408203 781.34220459 413.11425781 781.05163574 C409.10944157 780.02337568 405.1149987 778.96026211 401.12109375 777.890625 C399.58948859 777.48284662 398.05781445 777.07532726 396.52607727 776.66804504 C392.38156758 775.56514572 388.23812075 774.45830203 384.09488297 773.35063553 C380.59526103 772.41555129 377.09503313 771.48274677 373.59480381 770.54993916 C361.55998009 767.34255343 349.52762055 764.12597844 337.49609375 760.90625 C336.13261181 760.54137859 336.13261181 760.54137859 334.74158478 760.16913605 C322.2965304 756.83852853 309.85262248 753.50365535 297.40939713 750.16622162 C294.81175393 749.46959748 292.21403806 748.77324494 289.61630249 748.07696533 C273.38908529 743.72722744 257.16335299 739.37322282 240.95913124 734.93846703 C236.69545496 733.77242463 232.4303517 732.61160337 228.1656189 731.44943237 C224.91690054 730.56087307 221.67094771 729.66270959 218.42504883 728.76391602 C216.50744982 728.24058771 214.58973343 727.71768929 212.671875 727.1953125 C211.83124512 726.95901627 210.99061523 726.72272003 210.12451172 726.47926331 C200.37197783 723.84874842 192.90276806 725.62180626 183.31640625 728.296875 C181.95598254 728.66921286 180.59531766 729.04067045 179.23443604 729.41133118 C176.26860798 730.22073146 173.30428839 731.03537308 170.34100342 731.85403442 C162.96613724 733.89088247 155.58362747 735.89977883 148.20193863 737.91172981 C145.49827534 738.64890476 142.79489768 739.38712125 140.09152222 740.12535095 C125.28745653 744.16438363 110.46525676 748.13388487 95.63671875 752.08203125 C94.48985973 752.38742451 93.34300072 752.69281776 92.1613884 753.00746536 C81.83297213 755.75726989 71.50361759 758.50354232 61.17388916 761.24841309 C55.75997491 762.68711104 50.34645357 764.12727953 44.93317795 765.56837845 C42.83591309 766.12641516 40.73850502 766.68391395 38.64094925 767.24085617 C27.61886934 770.16783677 16.6111454 773.13518081 5.63378906 776.22607422 C4.22622439 776.62066849 4.22622439 776.62066849 2.79022408 777.02323437 C-1.61301031 778.2577078 -6.01292406 779.50185079 -10.40737915 780.76722717 C-11.95032595 781.20198289 -13.49339899 781.6362909 -15.03662109 782.07006836 C-16.07014017 782.37465753 -16.07014017 782.37465753 -17.12453842 782.68540001 C-20.91767713 783.73741478 -23.7385453 784.19683767 -27.50390625 782.90625 C-30.38466336 780.02549289 -30.85909208 776.55026544 -31.86035156 772.70898438 C-32.08910477 771.85360958 -32.31785797 770.99823479 -32.55354309 770.11693954 C-33.31950771 767.24630538 -34.07569654 764.37318511 -34.83203125 761.5 C-35.37387463 759.46197379 -35.91634822 757.42411503 -36.45941162 755.38641357 C-37.6228584 751.01584127 -38.78207526 746.64417725 -39.93798828 742.27160645 C-41.75931462 735.38210136 -43.58970993 728.49502791 -45.421875 721.60839844 C-47.29118083 714.58059868 -49.15995814 707.55266137 -51.0255127 700.52386475 C-56.58890683 679.56379559 -62.200189 658.61676668 -67.82756042 637.67379761 C-69.09340423 632.96197428 -70.35804898 628.24982913 -71.62279892 623.5377121 C-71.80578663 622.85596169 -71.98877434 622.17421127 -72.17730713 621.47180176 C-72.48055562 620.33017657 -72.48055562 620.33017657 -72.78993034 619.16548824 C-73.410791 616.8717801 -74.0497254 614.58531894 -74.69751167 612.29918003 C-76.6847218 605.19695701 -78.54050786 598.17277603 -79.71406591 590.8856259 C-84.87809163 558.99951719 -100.77514742 541.5501463 -123.70267916 519.83031678 C-128.32300905 515.41971569 -132.85337246 510.91840808 -137.39437866 506.42643738 C-144.9988595 498.92656725 -152.65084202 491.47980793 -160.34716797 484.07446289 C-168.24893115 476.47109623 -176.12472176 468.84249065 -183.96435547 461.17504883 C-184.45076738 460.69934564 -184.9371793 460.22364244 -185.43833096 459.733524 C-190.74933391 454.53833713 -196.05515209 449.3378668 -201.35993004 444.13632488 C-203.23009485 442.30289178 -205.10030132 440.46950117 -206.97055054 438.63615417 C-207.8830785 437.74137491 -208.79560647 436.84659565 -209.7357868 435.92470187 C-215.15023318 430.62056477 -220.58528596 425.33871589 -226.04009748 420.07610476 C-229.41395613 416.81897873 -232.77870034 413.55253377 -236.14218903 410.28470421 C-237.70468963 408.77156866 -239.27160474 407.26297663 -240.84317398 405.75926208 C-242.98405036 403.7102365 -245.10928194 401.64617468 -247.2315979 399.57795715 C-247.85929726 398.98528559 -248.48699662 398.39261403 -249.13371718 397.78198272 C-251.84691596 395.10971402 -253.34350891 393.38680675 -254.56770325 389.71907234 C-254.49258935 386.40728565 -254.04469851 385.56055388 -251.75546265 383.22938538 C-251.10186138 382.54758272 -250.44826012 381.86578007 -249.77485275 381.16331673 C-249.02544041 380.41848471 -248.27602806 379.67365269 -247.50390625 378.90625 C-246.30146208 377.6688548 -246.30146208 377.6688548 -245.0747261 376.40646172 C-242.23073286 373.49453807 -239.35789491 370.61339928 -236.47900391 367.73608398 C-235.37909016 366.63317224 -234.27937968 365.53005777 -233.17985535 364.42675781 C-230.2131696 361.45129543 -227.24330211 358.47902922 -224.27254534 355.50763202 C-222.41235202 353.64672486 -220.55287385 351.78510615 -218.69364548 349.92323494 C-212.19542186 343.41578058 -205.69464136 336.9108933 -199.19140625 330.40844727 C-193.14803505 324.36567702 -187.11026723 318.31734801 -181.07509387 312.26639122 C-175.87589333 307.05408294 -170.67281178 301.84567022 -165.46673429 296.64023072 C-162.36504462 293.53879497 -159.26489845 290.43585547 -156.16865921 287.32897758 C-153.25594288 284.40652505 -150.33839028 281.4889861 -147.41718483 278.57501984 C-146.35169959 277.51057342 -145.28788813 276.44444826 -144.22596931 275.37644386 C-138.87489104 269.99671305 -133.49496648 264.86120315 -127.38991356 260.32972813 C-123.59470648 257.46526719 -120.24351852 254.10776875 -116.7890625 250.84765625 C-114.50390625 248.90625 -114.50390625 248.90625 -112.50390625 248.90625 C-112.30023438 248.36613281 -112.0965625 247.82601562 -111.88671875 247.26953125 C-109.94576141 243.95235839 -107.21403833 241.62962702 -104.37890625 239.09375 C-103.79431641 238.56112549 -103.20972656 238.02850098 -102.60742188 237.47973633 C-98.91208788 234.12484264 -95.16163656 230.84445391 -91.28515625 227.69921875 C-86.08292021 222.46275747 -83.68095771 217.51493963 -82.1171875 210.4453125 C-81.92924118 209.65530853 -81.74129486 208.86530457 -81.5476532 208.05136108 C-80.95573523 205.54786149 -80.38579777 203.03995759 -79.81640625 200.53125 C-79.42396234 198.85643363 -79.03009359 197.18195046 -78.63476562 195.5078125 C-77.73869312 191.69511505 -76.85234037 187.88056394 -75.99382019 184.05921936 C-75.66401607 182.60986652 -75.32272528 181.16308503 -74.97065735 179.71897888 C-73.84524324 174.98832944 -73.20697774 170.37431604 -72.77488708 165.53434753 C-71.06337149 147.6160905 -65.96440536 130.52613448 -61.17401505 113.24435043 C-59.93282836 108.75370006 -58.70959922 104.25816521 -57.48510742 99.76293945 C-55.98184685 94.24819083 -54.47698167 88.73390594 -52.96388245 83.22184753 C-49.8572883 71.90177466 -46.79768317 60.57039931 -43.79117393 49.22333336 C-43.16054907 46.84346542 -42.52880506 44.46389747 -41.89668274 42.08442688 C-39.52618064 33.16192386 -39.52618064 33.16192386 -37.16793823 24.23617554 C-36.1073832 20.21116327 -35.03461455 16.18950027 -33.9609375 12.16796875 C-33.49831009 10.39885132 -33.49831009 10.39885132 -33.02633667 8.59399414 C-32.73638824 7.51456543 -32.44643982 6.43513672 -32.14770508 5.32299805 C-31.77758049 3.92527412 -31.77758049 3.92527412 -31.39997864 2.49931335 C-26.40459921 -11.95636626 -11.38317091 -3.08296501 0 0 Z " fill="#040303" transform="translate(299.50390625,111.09375)"/>
<path d="M0 0 C1.43931885 0.78298462 1.43931885 0.78298462 2.90771484 1.58178711 C3.92816895 2.14647705 4.94862305 2.71116699 6 3.29296875 C7.05783691 3.87248291 8.11567383 4.45199707 9.20556641 5.04907227 C18.73058164 10.28647988 28.23381392 15.58048122 37.60058594 21.09716797 C39.29589976 22.07454364 41.01572964 23.00996785 42.75097656 23.91455078 C43.65041992 24.40165527 44.54986328 24.88875977 45.4765625 25.390625 C46.29463379 25.81609619 47.11270508 26.24156738 47.95556641 26.67993164 C53.23283851 31.32763665 52.69990619 40.721285 53.33203125 47.26171875 C53.44875183 48.41076187 53.56547241 49.55980499 53.68572998 50.7436676 C53.93594815 53.2075348 54.18362105 55.67166157 54.4289856 58.13601685 C56.24126868 76.30283168 58.13409252 94.4475341 60.5625 112.54296875 C62.76072303 128.98151967 64.51077729 145.45162646 66.18896484 161.95068359 C67.42021645 174.03658519 68.73515762 186.10664743 70.1875 198.16796875 C71.28726932 207.32740145 72.361667 216.4852467 73.25 225.66796875 C73.33016357 226.48160889 73.41032715 227.29524902 73.49291992 228.13354492 C73.59697144 229.25466675 73.59697144 229.25466675 73.703125 230.3984375 C73.76145508 231.02516357 73.81978516 231.65188965 73.87988281 232.29760742 C74.0480791 235.35419885 74 238.41925312 74 241.48046875 C79.28 241.15046875 84.56 240.82046875 90 240.48046875 C89.74992188 238.35738281 89.49984375 236.23429688 89.2421875 234.046875 C88.9485489 231.55024848 88.65511968 229.0535974 88.36169434 226.5569458 C88.10510117 224.3744317 87.84832826 222.19193873 87.59143066 220.00946045 C86.43071233 210.1462396 85.27553036 200.28238287 84.125 190.41796875 C84.03574375 189.65321228 83.9464875 188.88845581 83.85452652 188.1005249 C81.48232271 167.76664557 79.1477764 147.43442918 77.27978516 127.04663086 C76.57673118 119.48578873 75.67493387 111.98880064 74.5625 104.4765625 C72.9528021 93.58676843 71.75614635 82.6679793 70.63745117 71.71801758 C70.30739219 68.4930611 69.96950635 65.26898677 69.63085938 62.04492188 C69.41621152 59.97270335 69.20200191 57.90043936 68.98828125 55.828125 C68.88832352 54.87502945 68.78836578 53.9219339 68.68537903 52.93995667 C68.22875124 48.43147881 67.88085736 44.01966211 68 39.48046875 C73.63992223 41.04762 78.3044331 43.7922644 83.3125 46.73046875 C85.19861502 47.82265784 87.08536044 48.91375884 88.97265625 50.00390625 C90.45209717 50.86000488 90.45209717 50.86000488 91.96142578 51.73339844 C97.03385808 54.64986361 102.14156698 57.50267625 107.25 60.35546875 C108.29373779 60.93901123 109.33747559 61.52255371 110.4128418 62.1237793 C112.54229774 63.31412903 114.67193709 64.50415073 116.80175781 65.69384766 C130.98796712 73.61863237 145.16482551 81.55921037 159.3034668 89.56860352 C164.431923 92.47161195 169.56818592 95.35983469 174.71484375 98.23046875 C176.39707031 99.16922852 176.39707031 99.16922852 178.11328125 100.12695312 C180.26723646 101.327954 182.42212695 102.52727961 184.578125 103.72460938 C190.15347117 106.83379653 195.62014054 110.04351444 201 113.48046875 C199.40596353 124.40792379 196.31582299 134.99584734 193.453125 145.640625 C192.88759569 147.75630359 192.32244993 149.87208474 191.75765991 151.98796082 C190.24122751 157.66453863 188.71939136 163.33965447 187.19641876 169.01448059 C185.61155527 174.92325194 184.03140231 180.83328284 182.45068359 186.74316406 C179.88047632 196.34989214 177.30714545 205.95577841 174.73144531 215.56103516 C171.82227444 226.40989756 168.91810282 237.26008761 166.0168457 248.11106873 C163.78644662 256.45291753 161.55329257 264.79402836 159.31980896 273.13505173 C158.63218141 275.70364301 157.94501061 278.27235611 157.25793457 280.84109497 C152.64213896 298.09407024 148.00508798 315.33521999 143 332.48046875 C133.96806545 331.05316345 125.21050873 328.78207266 116.3984375 326.38671875 C114.84128066 325.96709263 113.28401088 325.54788539 111.72663879 325.12905884 C108.37137106 324.22583531 105.01686354 323.31985963 101.66293335 322.41168213 C96.29247569 320.95749815 90.92043586 319.50922333 85.5480957 318.06201172 C79.80853175 316.51565183 74.06905321 314.96898037 68.33009338 313.42037964 C53.56441127 309.43655514 38.79321983 305.47355288 24.01953125 301.51953125 C21.8402081 300.93614382 19.66088681 300.35274946 17.48156738 299.76934814 C8.97775492 297.4930329 0.47385633 295.21704008 -8.03033447 292.94213867 C-30.71106126 286.8743446 -53.3830333 280.78246707 -76 274.48046875 C-76.03205591 264.37631506 -76.05145446 254.27216478 -76.0625 244.16796875 C-76.06335602 243.39070435 -76.06421204 242.61343994 -76.06509399 241.81262207 C-76.09390141 212.03267298 -75.84701646 182.25823214 -75.5 152.48046875 C-75.48206327 150.94067667 -75.48206327 150.94067667 -75.46376419 149.36977768 C-75.31601738 136.73992165 -75.16142664 124.11015712 -75 111.48046875 C-72.30627004 114.11922771 -70.14438301 116.56865247 -68.1875 119.796875 C-67.67469482 120.63516846 -67.16188965 121.47346191 -66.63354492 122.3371582 C-65.82494019 123.67653442 -65.82494019 123.67653442 -65 125.04296875 C-63.85107374 126.92367418 -62.70131392 128.80387061 -61.55078125 130.68359375 C-60.67413818 132.11928711 -60.67413818 132.11928711 -59.77978516 133.58398438 C-56.956156 138.17925685 -54.07428971 142.7371992 -51.1875 147.29296875 C-50.66607422 148.11676025 -50.14464844 148.94055176 -49.60742188 149.78930664 C-48.40580556 151.68690662 -47.20338812 153.58399208 -46 155.48046875 C-42.37723685 154.15491065 -39.36494652 152.5369992 -36.1875 150.35546875 C-34.79166667 149.39713542 -33.39583333 148.43880208 -32 147.48046875 C-35.83786332 140.28914362 -40.13773365 133.44749305 -44.5625 126.60546875 C-45.99266136 124.38311738 -47.42234443 122.16045813 -48.8515625 119.9375 C-49.90585449 118.299021 -49.90585449 118.299021 -50.98144531 116.62744141 C-54.2685331 111.50279681 -57.51477241 106.35264763 -60.75415039 101.19775391 C-61.39984985 100.17174072 -61.39984985 100.17174072 -62.05859375 99.125 C-62.49880859 98.39249023 -62.93902344 97.65998047 -63.39257812 96.90527344 C-65.009327 94.35354608 -65.009327 94.35354608 -67.32617188 91.79785156 C-76.67732858 80.02245714 -75.04079899 67.0092677 -74.625 52.60546875 C-74.58834591 50.10682764 -74.5557646 47.60812332 -74.52734375 45.109375 C-74.35788619 32.87988413 -73.95556941 20.67524165 -73 8.48046875 C-48.6300352 3.53009012 -48.6300352 3.53009012 -36.42138672 1.43652344 C-32.98789923 0.84421911 -29.58242446 0.20187671 -26.1875 -0.58203125 C-22.72280967 -1.37897756 -19.24808709 -2.07101542 -15.75 -2.70703125 C-14.77546875 -2.88621094 -13.8009375 -3.06539062 -12.796875 -3.25 C-7.8524227 -3.72649051 -4.2978806 -2.3532698 0 0 Z " fill="#A53AFD" transform="translate(578,549.51953125)"/>
<path d="M0 0 C2.34188648 2.28620526 3.58738702 3.87854716 5.1875 6.625 C5.63617432 7.33358154 6.08484863 8.04216309 6.54711914 8.7722168 C7.52983453 10.33017208 8.49856662 11.89701227 9.45507812 13.47119141 C11.06331289 16.10363383 12.7195661 18.69999516 14.390625 21.29296875 C17.96135488 26.84056474 21.48472333 32.41714877 25 38 C26.57124673 40.49271549 28.14283199 42.98521583 29.71508789 45.47729492 C30.63746989 46.94016738 31.55871325 48.40375909 32.47827148 49.8684082 C32.91212158 50.55765381 33.34597168 51.24689941 33.79296875 51.95703125 C34.25590332 52.71838379 34.71883789 53.47973633 35.19580078 54.26416016 C36.64679796 56.46441379 38.14445865 58.45946353 39.78466797 60.51318359 C49.16022988 72.74190956 49.34797516 82.99596961 48.75 98 C48.69605016 100.42208044 48.6480052 102.8442981 48.60522461 105.26660156 C48.51623741 109.98981128 48.40956944 114.71161126 48.27983379 119.43385696 C47.97357413 130.699686 47.86285701 141.96504208 47.76953125 153.234375 C47.75263141 155.18876225 47.7356327 157.14314864 47.71853638 159.09753418 C47.69273761 162.04979635 47.66694057 165.00205846 47.64139366 167.95432281 C47.38191498 197.64583748 46.9075263 227.3208319 46 257 C44.93096436 257.26225121 44.93096436 257.26225121 43.84033203 257.52980042 C32.06516194 260.42040458 20.34482322 263.35543901 8.75390625 266.921875 C6.03374106 267.70310871 3.3845718 268.37614676 0.625 268.96875 C-4.17604333 270.0037788 -8.85437033 271.35896169 -13.5625 272.75 C-21.41746733 275.03714843 -29.3041923 277.11535094 -37.25 279.0625 C-44.72789338 280.89633193 -52.12446012 282.86319165 -59.48925781 285.10571289 C-66.64015296 287.25252037 -73.88723104 288.99101434 -81.13671875 290.76953125 C-86.97136999 292.21155532 -92.75072469 293.74923836 -98.5 295.5 C-106.29919324 297.87499991 -114.18675437 299.82025695 -122.10375977 301.76074219 C-128.97091752 303.45682429 -135.75450868 305.33666972 -142.52539062 307.38012695 C-147.31795583 308.82110264 -152.0967529 310.01552739 -157 311 C-158.68817053 311.37196978 -160.37567752 311.74696405 -162.0625 312.125 C-163.375 312.41666667 -164.6875 312.70833333 -166 313 C-166.62849414 310.85518747 -167.25260258 308.70908965 -167.875 306.5625 C-168.39707031 304.77005859 -168.39707031 304.77005859 -168.9296875 302.94140625 C-169.70483598 300.18536162 -170.36036266 297.42410776 -170.9609375 294.625 C-172.00274286 289.82565476 -173.35901175 285.14546022 -174.75 280.4375 C-177.03714843 272.58253267 -179.11535094 264.6958077 -181.0625 256.75 C-182.89633193 249.27210662 -184.86319165 241.87553988 -187.10571289 234.51074219 C-189.25252037 227.35984704 -190.99101434 220.11276896 -192.76953125 212.86328125 C-194.21155532 207.02863001 -195.74923836 201.24927531 -197.5 195.5 C-199.87499991 187.70080676 -201.82025695 179.81324563 -203.76074219 171.89624023 C-205.60165341 164.44269313 -207.66426612 157.09113512 -209.921875 149.75390625 C-210.69848918 147.04982571 -211.36843003 144.4187655 -211.95703125 141.67578125 C-213.05340764 136.58918042 -214.48162879 131.61864282 -215.9375 126.625 C-216.46888954 124.77347754 -217.00014093 122.92191543 -217.53125 121.0703125 C-218.36932801 118.1637639 -219.22164366 115.26382642 -220.09375 112.3671875 C-220.3721875 111.42101562 -220.650625 110.47484375 -220.9375 109.5 C-221.17339844 108.7265625 -221.40929687 107.953125 -221.65234375 107.15625 C-222.09602527 104.40442754 -221.92847962 102.63568408 -221 100 C-219.03125 98.375 -219.03125 98.375 -216.5 97 C-215.60152344 96.50242187 -214.70304688 96.00484375 -213.77734375 95.4921875 C-212.86082031 94.99976563 -211.94429687 94.50734375 -211 94 C-210.15566406 93.50757813 -209.31132812 93.01515625 -208.44140625 92.5078125 C-202.40677966 89 -202.40677966 89 -199 89 C-199 88.34 -199 87.68 -199 87 C-196.7140617 85.4670058 -194.44192427 84.06139469 -192.0625 82.6875 C-191.37897461 82.28668213 -190.69544922 81.88586426 -189.99121094 81.47290039 C-187.9982661 80.30799351 -185.99940865 79.15376391 -184 78 C-183.04480469 77.43796875 -182.08960938 76.8759375 -181.10546875 76.296875 C-175.39278017 73 -175.39278017 73 -172 73 C-172 72.34 -172 71.68 -172 71 C-170.12890625 69.66796875 -170.12890625 69.66796875 -167.5625 68.1875 C-166.19738281 67.39472656 -166.19738281 67.39472656 -164.8046875 66.5859375 C-161.53767098 64.73857161 -158.26577433 62.9020327 -154.97265625 61.1015625 C-153.32655036 60.18235089 -151.71988153 59.19296879 -150.125 58.1875 C-148 57 -148 57 -145 57 C-145 56.34 -145 55.68 -145 55 C-143.12890625 53.66796875 -143.12890625 53.66796875 -140.5625 52.1875 C-139.65242188 51.65898438 -138.74234375 51.13046875 -137.8046875 50.5859375 C-134.53767098 48.73857161 -131.26577433 46.9020327 -127.97265625 45.1015625 C-126.32655036 44.18235089 -124.71988153 43.19296879 -123.125 42.1875 C-121 41 -121 41 -118 41 C-118 40.34 -118 39.68 -118 39 C-116.12890625 37.66796875 -116.12890625 37.66796875 -113.5625 36.1875 C-112.73878906 35.70667969 -111.91507812 35.22585938 -111.06640625 34.73046875 C-109.36675536 33.77130271 -107.66480477 32.81606457 -105.95385742 31.87719727 C-100.59107558 28.93083757 -95.37845355 25.80009505 -90.1875 22.5625 C-83.2954433 18.30700669 -76.3910808 14.34053573 -69 11 C-68.2982666 10.67580078 -67.5965332 10.35160156 -66.87353516 10.01757812 C-63.16206787 8.70327093 -59.42288599 8.15441556 -55.54296875 7.59765625 C-54.72234451 7.4744249 -53.90172028 7.35119354 -53.05622864 7.22422791 C-50.43413669 6.83123929 -47.81094852 6.44631914 -45.1875 6.0625 C-41.76373561 5.55726986 -38.34064457 5.04770672 -34.91796875 4.53515625 C-34.07845673 4.41048981 -33.2389447 4.28582336 -32.37399292 4.15737915 C-27.67620119 3.44789856 -23.01330197 2.64274108 -18.3536377 1.71577454 C-5.41158588 -0.8512607 -5.41158588 -0.8512607 0 0 Z " fill="#FE0000" transform="translate(445,569)"/>
<path d="M0 0 C0.16604736 0.64960693 0.33209473 1.29921387 0.50317383 1.96850586 C1.26961522 4.95903627 2.04102548 7.94826422 2.8125 10.9375 C3.07353516 11.95908203 3.33457031 12.98066406 3.60351562 14.03320312 C4.99621081 19.41485243 6.52622163 24.68536635 8.33227539 29.94165039 C9.37745171 33.16354493 10.08553142 36.44378673 10.8125 39.75 C12.30356056 46.3403842 14.04505085 52.82650068 15.9375 59.3125 C17.93921317 66.17730551 19.80586991 73.05283304 21.5 80 C23.15966569 86.7994262 24.97740117 93.53110453 26.9375 100.25 C29.42958115 108.79975532 31.6269616 117.40022747 33.74755859 126.04882812 C35.59564299 133.52796418 37.65345015 140.92708385 39.8137207 148.32128906 C41.81722098 155.22626859 43.5960942 162.17358431 45.26391602 169.16699219 C46.19612355 173.02255382 47.2276314 176.78204891 48.515625 180.53515625 C49.99960446 184.86496224 51.0750702 189.22171665 52.0625 193.6875 C52.9391793 197.62023406 53.81270294 201.45377129 55.12109375 205.26953125 C56 208 56 208 56 212 C53.515625 213.88671875 53.515625 213.88671875 50.25 215.6875 C49.18265625 216.28949219 48.1153125 216.89148438 47.015625 217.51171875 C44.59866405 218.70454533 42.6271391 219.52175866 40 220 C40 220.66 40 221.32 40 222 C38.6875 222.72916667 37.375 223.45833333 36.0625 224.1875 C35.24265625 224.64382813 34.4228125 225.10015625 33.578125 225.5703125 C31.92483837 226.48713509 30.26881306 227.39904647 28.609375 228.3046875 C25.17631032 230.18469911 21.83158817 232.06392953 18.625 234.3125 C16 236 16 236 13 236 C13 236.66 13 237.32 13 238 C11.82244141 238.56267578 11.82244141 238.56267578 10.62109375 239.13671875 C4.66337638 242.03882156 -0.71681447 245.01065582 -6 249 C-10.55172414 252 -10.55172414 252 -14 252 C-14 252.66 -14 253.32 -14 254 C-15.17755859 254.56267578 -15.17755859 254.56267578 -16.37890625 255.13671875 C-22.34441509 258.04261692 -27.68833177 261.04228642 -33 265 C-34.67861472 265.98183125 -36.35810859 266.96280409 -38.05859375 267.90625 C-40.36040393 269.20304447 -42.61542497 270.56848391 -44.875 271.9375 C-48.19018643 273.92863332 -51.51387905 275.89975683 -54.875 277.8125 C-55.57367187 278.21082031 -56.27234375 278.60914063 -56.9921875 279.01953125 C-58.98792806 279.99410495 -60.83153434 280.54783115 -63 281 C-63 281.66 -63 282.32 -63 283 C-64.3125 283.72916667 -65.625 284.45833333 -66.9375 285.1875 C-67.75734375 285.64382813 -68.5771875 286.10015625 -69.421875 286.5703125 C-71.07516163 287.48713509 -72.73118694 288.39904647 -74.390625 289.3046875 C-77.82368968 291.18469911 -81.16841183 293.06392953 -84.375 295.3125 C-87 297 -87 297 -90 297 C-90 297.66 -90 298.32 -90 299 C-91.32 299.33 -92.64 299.66 -94 300 C-94.71867715 293.89927198 -95.43051927 287.79779814 -96.13623047 281.69555664 C-96.37689761 279.62275034 -96.61938229 277.55015419 -96.86376953 275.4777832 C-97.21612988 272.48703484 -97.56179628 269.49557431 -97.90625 266.50390625 C-98.0156189 265.58791153 -98.12498779 264.67191681 -98.2376709 263.72816467 C-98.87639099 258.11176523 -99.10054116 252.65292653 -99 247 C-104.28 247.66 -109.56 248.32 -115 249 C-114.71382812 250.73765625 -114.42765625 252.4753125 -114.1328125 254.265625 C-112.86259952 262.53209043 -111.98480865 270.82961509 -111.14013672 279.14892578 C-110.87397287 281.76007643 -110.59936434 284.37025101 -110.32421875 286.98046875 C-110.15053283 288.66921858 -109.97733852 290.35801905 -109.8046875 292.046875 C-109.72346649 292.81271912 -109.64224548 293.57856323 -109.55856323 294.36761475 C-109.17439939 298.21913182 -108.90690321 302.06077087 -108.80517578 305.93066406 C-108.77582443 307.02655853 -108.77582443 307.02655853 -108.74588013 308.14459229 C-109 310 -109 310 -111.3125 312.0625 C-114 313 -114 313 -117 313 C-117 313.66 -117 314.32 -117 315 C-118.38174571 315.89708109 -119.78116739 316.76697652 -121.1875 317.625 C-121.96480469 318.11226563 -122.74210938 318.59953125 -123.54296875 319.1015625 C-127.41735839 320.51827095 -130.04439141 318.44273124 -133.64746094 316.7734375 C-140.83371323 313.23102329 -147.68681554 309.29703102 -154.49871826 305.08288574 C-157.55205333 303.19488969 -160.61608537 301.32439903 -163.6796875 299.453125 C-164.29756134 299.07536926 -164.91543518 298.69761353 -165.55203247 298.30841064 C-172.29585499 294.19395374 -179.11638792 290.21389976 -185.95410156 286.2578125 C-187.79341982 285.19312364 -189.60533528 284.08030131 -191.39404297 282.93261719 C-194.33155998 281.18230314 -197.27891385 280.27632765 -200.54736328 279.29394531 C-207.39415822 276.85694344 -212.889078 274.19078892 -217 268 C-221.50017555 254.83612129 -219.67625817 239.10528214 -219.21008301 225.44781494 C-219.09664477 221.18427871 -219.10980601 216.9251219 -219.12544441 212.66040421 C-219.12996576 208.53784954 -219.0726774 204.41801674 -218.99517441 200.29625702 C-218.96219991 198.33338287 -218.9439627 196.37020024 -218.94119644 194.40705109 C-218.84358247 178.38122133 -218.84358247 178.38122133 -214.37886047 173.88017273 C-211.34898583 171.58740654 -208.34505548 169.78909292 -205 168 C-203.27755369 166.73547153 -201.57376938 165.44451748 -199.90234375 164.11328125 C-199.09039551 163.49171143 -198.27844727 162.8701416 -197.44189453 162.22973633 C-196.20221924 161.28070435 -196.20221924 161.28070435 -194.9375 160.3125 C-182.76630171 151.01686597 -170.48151781 141.87538008 -158 133 C-159.37626099 128.98590546 -161.34304697 126.27690874 -164 123 C-164 122.34 -164 121.68 -164 121 C-172.22848256 126.7530231 -180.28289934 132.70227194 -188.25 138.8125 C-195.18822942 144.12909281 -202.16801258 149.37608331 -209.25 154.5 C-210.01860352 155.05792236 -210.78720703 155.61584473 -211.57910156 156.19067383 C-212.63049316 156.94707153 -212.63049316 156.94707153 -213.703125 157.71875 C-214.31833008 158.16154297 -214.93353516 158.60433594 -215.56738281 159.06054688 C-217 160 -217 160 -218 160 C-218.78654045 135.1235664 -219.09398313 110.26241627 -219.0625 85.375 C-219.06164398 84.69348373 -219.06078796 84.01196747 -219.05990601 83.30979919 C-219.04852131 74.87317494 -219.02845358 66.43658415 -219 58 C-215.53962465 57.04872416 -212.07847235 56.10030449 -208.6171875 55.15234375 C-207.65063232 54.88659546 -206.68407715 54.62084717 -205.68823242 54.3470459 C-199.52124555 52.65985138 -193.33877866 51.06759234 -187.125 49.5625 C-178.577206 47.46487657 -170.15405037 45.02458313 -161.71801758 42.51806641 C-155.28064329 40.62102982 -148.84093855 38.95051225 -142.29345703 37.48583984 C-135.78836207 36.00818934 -129.40952712 34.1476816 -123.00708008 32.28100586 C-117.03418251 30.55093643 -111.04105123 28.97328165 -105 27.5 C-96.22887433 25.35752765 -87.56349144 22.91347182 -78.890625 20.40625 C-69.94520351 17.82278464 -60.94417101 15.47337696 -51.90332031 13.24804688 C-42.18748126 10.85379994 -32.56946585 8.20431895 -22.95703125 5.42578125 C-18.43962537 4.12121953 -13.91415686 2.85172328 -9.375 1.625 C-8.20710937 1.30789062 -7.03921875 0.99078125 -5.8359375 0.6640625 C-3 0 -3 0 0 0 Z " fill="#15FE00" transform="translate(721,118)"/>
<path d="M0 0 C3.54823215 1.39025746 6.82695785 2.92774571 10.1484375 4.80078125 C11.14166016 5.35894531 12.13488281 5.91710937 13.15820312 6.4921875 C14.21974609 7.09289062 15.28128906 7.69359375 16.375 8.3125 C17.48552734 8.93769531 18.59605469 9.56289063 19.74023438 10.20703125 C23.16208957 12.13461805 26.58140134 14.06664454 30 16 C31.49321777 16.84377197 31.49321777 16.84377197 33.01660156 17.70458984 C36.78887582 19.83621398 40.56083496 21.96838951 44.33154297 24.1027832 C51.37635234 28.08889991 58.43544499 32.04899935 65.5 36 C82.04460777 45.25448319 98.55641582 54.56702537 115 64 C113.61479553 67.27532127 112.16818851 68.91082291 109.28125 70.9609375 C108.52328125 71.5075 107.7653125 72.0540625 106.984375 72.6171875 C106.16453125 73.19726562 105.3446875 73.77734375 104.5 74.375 C102.75889534 75.63070579 101.01934813 76.88857347 99.28125 78.1484375 C98.39695312 78.7887793 97.51265625 79.42912109 96.6015625 80.08886719 C92.66950941 82.97739117 88.83360616 85.98273497 85 89 C76.61798493 95.57229312 68.07314452 101.90330653 59.47460938 108.18847656 C55.0790639 111.40621013 50.69668404 114.64181377 46.3125 117.875 C44.70448183 119.05997014 43.0964142 120.24487315 41.48828125 121.4296875 C40.81321533 121.92710449 40.13814941 122.42452148 39.44262695 122.93701172 C38.96656006 123.28779785 38.49049316 123.63858398 38 124 C39.35752626 126.77561132 40.80047587 129.25328277 42.625 131.75 C43.41666667 132.83333333 44.20833333 133.91666667 45 135 C51.52350388 130.78064248 57.72859807 126.2481986 63.875 121.5 C70.75867825 116.21517839 77.68091661 110.99572785 84.6875 105.875 C90.93224163 101.30447444 97.09120812 96.64170466 103.1875 91.875 C104.28940674 91.01708862 104.28940674 91.01708862 105.41357422 90.1418457 C108.37009249 87.83945628 111.32529732 85.53629091 114.25878906 83.20458984 C116.43323971 81.47720927 118.62137622 79.76865099 120.8125 78.0625 C121.46436279 77.53575684 122.11622559 77.00901367 122.7878418 76.46630859 C127.23240635 73.04039967 127.23240635 73.04039967 130.44921875 72.87109375 C138.3420996 76.36426766 142.46100814 80.21119081 146.6875 87.75 C147.13416016 88.51054687 147.58082031 89.27109375 148.04101562 90.0546875 C149.79993355 93.06705783 151.51169536 96.10192428 153.17797852 99.16650391 C156.67974489 105.59690192 160.5874432 111.72823496 164.5625 117.875 C165.99915409 120.10777946 167.43534828 122.34085491 168.87109375 124.57421875 C169.92659424 126.21463135 169.92659424 126.21463135 171.00341797 127.88818359 C173.73216199 132.14112702 176.43260723 136.41148198 179.125 140.6875 C182.80629244 146.53024504 186.49957035 152.36504392 190.21020508 158.18920898 C191.39401507 160.04832841 192.57617184 161.90850167 193.7565918 163.76977539 C196.66941097 168.36020259 199.60453591 172.93288642 202.58984375 177.4765625 C203.15380859 178.34410156 203.71777344 179.21164062 204.29882812 180.10546875 C205.36680477 181.74753058 206.44449853 183.38332583 207.53320312 185.01171875 C208.00564453 185.74261719 208.47808594 186.47351563 208.96484375 187.2265625 C209.3837085 187.86158691 209.80257324 188.49661133 210.23413086 189.15087891 C211 191 211 191 210.88745117 193.06713867 C209.68766831 195.68025584 208.34828861 196.33028617 205.8359375 197.69921875 C204.959375 198.18712891 204.0828125 198.67503906 203.1796875 199.17773438 C201.79136719 199.92506836 201.79136719 199.92506836 200.375 200.6875 C198.58998607 201.6684655 196.80616104 202.65159702 195.0234375 203.63671875 C194.06083008 204.1567749 193.09822266 204.67683105 192.10644531 205.21264648 C189.87118176 206.49874869 187.80668665 207.79402936 185.69824219 209.25805664 C175.16320422 216.41528875 164.96507791 218.29022132 152.5 220.0625 C150.42736278 220.38262701 148.35526614 220.70627123 146.28369141 221.03320312 C141.99089704 221.70782918 137.69620902 222.36747406 133.39941406 223.01611328 C124.33931009 224.39475025 115.30942032 225.9468594 106.27810669 227.50119019 C103.38445306 227.99837578 100.49008245 228.4911608 97.59545898 228.98266602 C76.70888879 232.53353376 55.85304829 236.25803216 35 240 C35.33 245.28 35.66 250.56 36 256 C38.17335937 255.58492187 40.34671875 255.16984375 42.5859375 254.7421875 C53.24169728 252.73186222 63.93339668 250.93280725 74.625 249.125 C75.6504895 248.95147003 76.675979 248.77794006 77.73254395 248.59915161 C81.89082327 247.8955692 86.04911202 247.1920464 90.2076416 246.48994446 C95.60515297 245.57793597 101.00100527 244.65739535 106.39425659 243.72052002 C108.54678106 243.34696152 110.69978748 242.97634377 112.85302734 242.60693359 C115.38817292 242.17143872 117.92241497 241.73063959 120.45556641 241.28369141 C121.55819824 241.09597168 122.66083008 240.90825195 123.796875 240.71484375 C124.73885742 240.55105225 125.68083984 240.38726074 126.65136719 240.21850586 C129 240 129 240 132 241 C128.10496245 243.31384171 124.20898123 245.62609048 120.3125 247.9375 C119.71065887 248.29458038 119.10881775 248.65166077 118.48873901 249.01956177 C111.58214416 253.11618567 104.66938567 257.20163181 97.734375 261.25 C97.14248383 261.59559464 96.55059265 261.94118927 95.94076538 262.29725647 C95.34913605 262.6426799 94.75750671 262.98810333 94.14794922 263.34399414 C92.95278061 264.0417971 91.75763091 264.73963247 90.5625 265.4375 C89.6680014 265.95979691 89.6680014 265.95979691 88.75543213 266.49264526 C78.90220251 272.25094654 69.13688161 278.14457464 59.39764404 284.0932312 C52.11266931 288.54034127 44.8000371 292.89749987 37.33032227 297.02661133 C32.87331206 299.49181744 28.48845976 302.06036317 24.125 304.6875 C23.50415527 305.05915283 22.88331055 305.43080566 22.24365234 305.8137207 C19.45635068 307.48887178 16.70524695 309.19218052 13.98046875 310.96875 C12.65982422 311.81953125 12.65982422 311.81953125 11.3125 312.6875 C10.56613281 313.18636719 9.81976563 313.68523437 9.05078125 314.19921875 C7 315 7 315 5.27441025 314.43760109 C1.94530532 312.33335236 -0.68515015 309.58215458 -3.44134521 306.79916382 C-4.08588063 306.15633725 -4.73041605 305.51351068 -5.39448285 304.85120451 C-7.55650907 302.69247682 -9.71130189 300.52667045 -11.86621094 298.36083984 C-13.41314977 296.81333698 -14.96052891 295.26627416 -16.50831604 293.71961975 C-20.71284885 289.51566176 -24.91117822 285.30555716 -29.10844326 281.09434462 C-33.49444647 276.69585554 -37.88609808 272.30301363 -42.27716064 267.90957642 C-49.64779629 260.53342691 -57.01492902 253.15379399 -64.37939453 245.77148438 C-71.96461512 238.16790394 -79.55193479 230.56642827 -87.14208984 222.96777344 C-87.60999726 222.49934058 -88.07790467 222.03090772 -88.55999109 221.54827993 C-90.90737331 219.19828762 -93.25479915 216.84833888 -95.60224104 214.49840617 C-115.0744844 195.0052466 -134.53958012 175.50496269 -154 156 C-152.34828196 151.74238754 -149.16802712 148.89589215 -145.98898315 145.74847412 C-145.36657435 145.12435646 -144.74416554 144.5002388 -144.10289586 143.85720849 C-142.01326453 141.76427936 -139.91655845 139.67858492 -137.81982422 137.59277344 C-136.3215818 136.09509507 -134.82377946 134.59697636 -133.3263855 133.09844971 C-129.25672032 129.02820978 -125.18091 124.96417371 -121.10399008 120.9012022 C-116.84563664 116.65533563 -112.5929313 112.40381967 -108.33963013 108.15289307 C-100.28302218 100.10250589 -92.2213287 92.05723134 -84.15780747 84.01376939 C-74.97866661 74.85696891 -65.80519162 65.69450129 -56.63219428 56.53154707 C-37.76110544 37.68137377 -18.88289259 18.83834853 0 0 Z " fill="#FD8D00" transform="translate(213,345)"/>
<path d="M0 0 C3.30037971 2.12958417 5.93748217 4.87345292 8.68741989 7.6501255 C9.33195531 8.29295207 9.97649073 8.93577864 10.64055753 9.59808481 C12.80258375 11.75681251 14.95737657 13.92261887 17.11228561 16.08844948 C18.65922444 17.63595234 20.20660359 19.18301516 21.75439072 20.72966957 C25.95892353 24.93362757 30.1572529 29.14373217 34.35451794 33.35494471 C38.74052115 37.75343378 43.13217275 42.14627569 47.52323532 46.53971291 C54.89387097 53.91586241 62.2610037 61.29549533 69.62546921 68.67780495 C77.21068979 76.28138538 84.79800947 83.88286106 92.38816452 91.48151588 C92.85607193 91.94994874 93.32397934 92.4183816 93.80606577 92.9010094 C96.15344799 95.25100171 98.50087383 97.60095044 100.84831572 99.95088315 C120.32055907 119.44404272 139.7856548 138.94432663 159.24607468 158.44928932 C157.59484564 162.67764367 154.46272339 165.52598304 151.31339645 168.66958046 C150.39225866 169.60068997 150.39225866 169.60068997 149.45251203 170.55060977 C147.39075735 172.63207047 145.32188729 174.70630778 143.25291061 176.78058815 C141.774304 178.27008847 140.2960877 179.75997632 138.81823349 181.25022316 C134.80057542 185.29839817 130.77617702 189.33980432 126.74958324 193.37908959 C124.23574702 195.9010062 121.7229648 198.42396858 119.21046829 200.94721985 C111.35367951 208.83672356 103.49249606 216.72181264 95.62543178 224.60107023 C86.53459087 233.70618423 77.4587746 242.82593622 68.39550757 251.95849591 C61.39370583 259.01198419 54.37860478 266.05206284 47.35324121 273.08208293 C43.15487128 277.28385885 38.96248545 281.49122772 34.78390884 285.71269608 C30.8560456 289.68016965 26.91201377 293.63080797 22.95475197 297.56895256 C21.50304582 299.01938759 20.05734528 300.47586143 18.61807823 301.93864059 C16.65666663 303.93025934 14.67504461 305.89925326 12.68668747 307.8639164 C11.83364961 308.74549273 11.83364961 308.74549273 10.96337867 309.64487869 C9.33699799 311.22528744 9.33699799 311.22528744 6.24607468 313.44928932 C1.8593108 313.34456162 -1.16154471 311.94584345 -4.92970657 309.78132057 C-5.90955521 309.22500954 -6.88940384 308.6686985 -7.89894485 308.09552956 C-8.94421341 307.49039528 -9.98948196 306.885261 -11.06642532 306.26178932 C-13.32018511 304.97767806 -15.57409558 303.69383124 -17.82814407 302.41022682 C-18.99017884 301.7446906 -20.1521254 301.07900036 -21.31398392 300.41315651 C-26.6485016 297.36767317 -32.01463731 294.37940862 -37.37892532 291.38678932 C-46.29678732 286.39709106 -55.19757417 281.37781588 -64.0903511 276.34357643 C-71.13368604 272.35870626 -78.19110072 268.3994979 -85.25392532 264.44928932 C-91.4542631 260.97964034 -97.65353652 257.50812071 -103.84767532 254.02741432 C-104.83163284 253.47472878 -105.81559036 252.92204323 -106.82936478 252.35260963 C-108.75971964 251.26133631 -110.68547106 250.16187442 -112.60622025 249.05378151 C-116.97508351 246.53627433 -121.32482997 244.13831816 -125.89845657 242.01178932 C-136.58925274 236.85724005 -136.58925274 236.85724005 -138.62208939 232.65436745 C-139.80099019 228.39851447 -139.80756678 224.17095508 -139.73683548 219.78278542 C-139.76644144 215.74030321 -140.36110669 211.7657033 -140.87892532 207.76178932 C-141.45282195 202.97081908 -141.79415626 198.27828603 -141.75392532 193.44928932 C-131.27674458 191.46832097 -120.79318571 189.52722262 -110.29518509 187.6594944 C-108.78932904 187.39078594 -107.28380158 187.12023055 -105.77858353 186.84797096 C-103.55884424 186.44660712 -101.338169 186.05085261 -99.11720657 185.65632057 C-97.82081253 185.42404762 -96.52441849 185.19177467 -95.18873978 184.95246315 C-92.3013967 184.52948966 -89.66178496 184.3417455 -86.75392532 184.44928932 C-86.97048782 183.59657448 -86.97048782 183.59657448 -87.19142532 182.72663307 C-87.37705032 181.95448463 -87.56267532 181.1823362 -87.75392532 180.38678932 C-87.93955032 179.63268776 -88.12517532 178.8785862 -88.31642532 178.10163307 C-88.85157905 174.85726363 -88.81820286 171.7314608 -88.75392532 168.44928932 C-102.01925812 170.21512908 -115.18086553 172.34447345 -128.33302689 174.82306862 C-129.47094681 175.03358864 -130.60886673 175.24410866 -131.78126907 175.46100807 C-132.78923538 175.65138649 -133.79720169 175.84176491 -134.83571243 176.03791237 C-137.84707112 176.46241997 -140.71693843 176.52070467 -143.75392532 176.44928932 C-145.35908045 173.23897906 -145.24035576 169.69504216 -145.50783157 166.16022682 C-145.57300476 165.34180305 -145.63817795 164.52337929 -145.70532608 163.6801548 C-145.91292718 161.06182355 -146.1147399 158.44308225 -146.31642532 155.82428932 C-146.45601876 154.05082183 -146.59598796 152.27738387 -146.7363472 150.50397682 C-147.07990375 146.15274525 -147.41826909 141.80113717 -147.75392532 137.44928932 C-143.66937924 138.95044322 -140.05805514 140.91473748 -136.30861282 143.11725807 C-135.69809067 143.47515923 -135.08756851 143.83306038 -134.45854568 144.20180702 C-133.168338 144.95916093 -131.87912016 145.71820333 -130.59083939 146.47883034 C-128.65802255 147.61961558 -126.72190652 148.75461835 -124.78517532 149.88874245 C-118.05323543 153.84350614 -111.4219513 157.88303059 -104.93019485 162.22785378 C-102.73383971 163.69400646 -102.73383971 163.69400646 -99.75392532 163.44928932 C-98.10392532 160.14928932 -96.45392532 156.84928932 -94.75392532 153.44928932 C-97.20938195 151.97601534 -99.66522393 150.50338121 -102.12257767 149.0332737 C-104.32431823 147.70872981 -106.51983188 146.37378842 -108.70949173 145.02936745 C-114.35022103 141.57835018 -119.99821228 138.27027182 -125.90938187 135.29999733 C-147.58013537 124.39622546 -147.58013537 124.39622546 -151.35939407 117.53425026 C-153.18120913 111.70630108 -153.4447288 106.01030649 -152.92091751 99.95221901 C-152.76166091 97.56523263 -152.99391762 95.50692042 -153.29298782 93.14460182 C-152.75392532 89.44928932 -152.75392532 89.44928932 -151.2195015 87.89924049 C-148.80520229 86.24522867 -146.32491033 84.84780923 -143.75392532 83.44928932 C-141.67294566 82.2162287 -139.59362245 80.98036983 -137.51564407 79.74225807 C-135.77134626 78.72791568 -134.02699834 77.7136552 -132.28087234 76.70246315 C-121.42227285 70.4115914 -110.64874906 63.99397455 -99.94142532 57.44928932 C-92.05082154 52.6285578 -84.13809579 47.87901866 -76.04689407 43.40070534 C-71.34947993 40.79990203 -66.73630934 38.0764634 -62.14235306 35.29914284 C-54.63847473 30.76481555 -47.09528383 26.29669171 -39.54152298 21.84601784 C-34.01847843 18.58873551 -28.50977582 15.31338944 -23.04722977 11.95534706 C-20.57186659 10.4349953 -18.08952556 8.9262528 -15.60658646 7.41831398 C-14.41821725 6.69206359 -13.23334389 5.9600601 -12.0521431 5.22220802 C-10.41084848 4.19758024 -8.75647864 3.19398658 -7.10158157 2.19147682 C-5.69404617 1.32305153 -5.69404617 1.32305153 -4.25807571 0.43708229 C-1.75392532 -0.55071068 -1.75392532 -0.55071068 0 0 Z " fill="#56DFFD" transform="translate(781.7539253234863,340.5507106781006)"/>
<path d="M0 0 C15.48938138 3.37834244 30.83897245 7.29873057 46.0546875 11.74682617 C53.76656628 13.98131975 61.54285918 15.90803057 69.33984375 17.8203125 C75.78289712 19.41232181 82.14146067 21.17286008 88.48925781 23.10571289 C94.60978802 24.94318914 100.79454722 26.47761619 107 28 C114.56089786 29.85491517 122.04165971 31.83783351 129.48828125 34.10546875 C135.60917582 35.94290746 141.79421559 37.47753483 148 39 C154.88301648 40.68861052 161.71977481 42.43543893 168.5 44.5 C176.3862421 46.89999111 184.35964267 48.89654866 192.36523438 50.85742188 C198.94016105 52.46913997 205.47758034 54.18724245 212 56 C212.40320771 66.56704461 212.6531061 77.13438391 212.85351562 87.70703125 C212.94236229 92.34333002 213.04765942 96.97887119 213.16517639 101.61450386 C213.37320471 109.84120279 213.53586587 118.06713577 213.63911438 126.29585457 C213.69321529 130.50264773 213.76688286 134.70706671 213.88696289 138.91253662 C214.00126751 142.94810083 214.0613534 146.98113038 214.08309174 151.01821899 C214.10039085 152.52312657 214.13668051 154.02795526 214.19345856 155.53189087 C214.61090695 167.05748377 214.61090695 167.05748377 210.63734436 171.84901428 C207.8579261 174.14957667 205.05984067 176.09449837 202 178 C200.4582153 179.13732886 198.92373268 180.28474775 197.40234375 181.44921875 C195.91575314 182.53097301 194.42743695 183.61035944 192.9375 184.6875 C186.53978307 189.35472866 180.22886581 194.10977283 174 199 C164.81745074 206.20615581 155.43236753 213.1254556 146 220 C137.62590655 216.06834199 129.79860773 211.34707452 121.9375 206.5 C110.03630108 197.66250484 110.03630108 197.66250484 97 193 C95.59541131 194.6790827 95.59541131 194.6790827 94.3125 196.8125 C93.62607422 197.87404297 93.62607422 197.87404297 92.92578125 198.95703125 C91.66424663 201.12541603 91.66424663 201.12541603 93 204 C95.33172332 205.67685792 95.33172332 205.67685792 98.2578125 207.2578125 C99.89967529 208.19065063 99.89967529 208.19065063 101.57470703 209.14233398 C102.75810064 209.80328959 103.94153229 210.46417709 105.125 211.125 C106.91007757 212.13481824 108.69331969 213.14782687 110.47653198 214.16093445 C111.65750441 214.83152999 112.83908359 215.50105812 114.02127075 216.16950989 C118.76634053 218.85445465 123.46075808 221.614933 128.125 224.4375 C128.73875488 224.8082666 129.35250977 225.1790332 129.98486328 225.56103516 C131.32449434 226.37195849 132.66249329 227.1855776 134 228 C130.27948675 231.91076677 126.34974637 235.12794249 122 238.3125 C120.57227254 239.37022485 119.14522469 240.42886748 117.71875 241.48828125 C116.95820313 242.05240723 116.19765625 242.6165332 115.4140625 243.19775391 C111.08332615 246.43091488 106.79439819 249.7188297 102.5 253 C100.72150868 254.35436959 98.94286416 255.70853803 97.1640625 257.0625 C93.83885843 259.59457029 90.52197306 262.13693988 87.2109375 264.6875 C85.76581878 265.79192027 84.32051742 266.89610162 82.875 268 C82.21822266 268.51046875 81.56144531 269.0209375 80.88476562 269.546875 C76.34041433 273 76.34041433 273 73 273 C71.29113453 270.55385436 69.7952228 268.14328338 68.3125 265.5625 C67.3282393 263.90073061 66.34109353 262.24066773 65.3515625 260.58203125 C64.81563477 259.68178223 64.27970703 258.7815332 63.72753906 257.85400391 C60.64321426 252.75850405 57.41103383 247.75814906 54.1875 242.75 C52.81112495 240.60681769 51.43482303 238.46358842 50.05859375 236.3203125 C49.38038574 235.26489258 48.70217773 234.20947266 48.00341797 233.12207031 C44.90727785 228.29713249 41.82707039 223.46211512 38.75 218.625 C37.90103149 217.29069946 37.90103149 217.29069946 37.03491211 215.92944336 C32.58414257 208.92913527 28.15116052 201.91764979 23.72949219 194.89892578 C23.26704102 194.16528809 22.80458984 193.43165039 22.328125 192.67578125 C21.9249707 192.03552002 21.52181641 191.39525879 21.10644531 190.7355957 C20.09161458 189.14370876 19.04719192 187.57078788 18 186 C13.83824491 187.43060331 10.41455094 189.56513456 6.76953125 191.9765625 C5 193 5 193 3 193 C3.35078613 193.55123535 3.70157227 194.1024707 4.06298828 194.67041016 C4.56040527 195.45206543 5.05782227 196.2337207 5.5703125 197.0390625 C6.12992676 197.91844482 6.68954102 198.79782715 7.26611328 199.70385742 C8.52234016 201.6779518 9.77852394 203.65207361 11.03466797 205.6262207 C14.23046038 210.6485772 17.42681569 215.6705725 20.625 220.69140625 C26.58241922 230.04549794 32.53065615 239.40505855 38.44165039 248.78857422 C41.1960191 253.15744587 43.96684366 257.5151803 46.75390625 261.86328125 C47.70426758 263.34828125 47.70426758 263.34828125 48.67382812 264.86328125 C49.90311172 266.78284509 51.13476107 268.70089665 52.36914062 270.6171875 C55.16496199 274.98626163 57.81389241 279.2932559 60 284 C56.3098939 283.4207202 53.58612521 282.41768673 50.359375 280.55078125 C49.02036133 279.78411133 49.02036133 279.78411133 47.65429688 279.00195312 C46.69587891 278.44443359 45.73746094 277.88691406 44.75 277.3125 C42.67223321 276.12046915 40.59409537 274.92908489 38.515625 273.73828125 C37.44119141 273.12033691 36.36675781 272.50239258 35.25976562 271.86572266 C30.0282869 268.87149255 24.76371967 265.93705673 19.5 263 C10.5444123 257.99276067 1.6049067 252.95796869 -7.32275391 247.90112305 C-13.41898923 244.45071042 -19.52922969 241.02632694 -25.64672852 237.61376953 C-36.51670992 231.54867668 -47.3119744 225.38047195 -58 219 C-57.30895418 212.55326996 -55.55142743 206.52811221 -53.75 200.3125 C-51.51646645 192.48629876 -49.36133143 184.65819888 -47.4375 176.75 C-45.58459629 169.15362703 -43.4914639 161.65035436 -41.30273438 154.14453125 C-39.05629525 146.36530216 -37.10841015 138.52420406 -35.17993164 130.66113281 C-33.58783578 124.21775369 -31.82723812 117.85886185 -29.89428711 111.51074219 C-28.05681086 105.39021198 -26.52238381 99.20545278 -25 93 C-23.14508483 85.43910214 -21.16216649 77.95834029 -18.89453125 70.51171875 C-17.05709066 64.39081792 -15.52257797 58.20576118 -14 52 C-12.14199196 44.43180038 -10.16860327 36.93532507 -7.90551758 29.47875977 C-4.97412281 19.7354521 -2.52292873 9.85523119 0 0 Z " fill="#FDEF00" transform="translate(279,118)"/>
<path d="M0 0 C2.09280866 1.10444108 4.14194544 2.29329662 6.15625 3.53515625 C6.73983276 3.89210068 7.32341553 4.2490451 7.92468262 4.61680603 C9.78749591 5.75842577 11.64376934 6.91021507 13.5 8.0625 C14.71572589 8.80992828 15.93186866 9.55667893 17.1484375 10.30273438 C20.77075467 12.52689062 24.38577708 14.76272303 28 17 C30.37410757 18.46889793 32.74924154 19.93611778 35.125 21.40234375 C36.14851563 22.03519287 37.17203125 22.66804199 38.2265625 23.32006836 C40.6242453 24.77239717 43.03849824 26.15972304 45.5 27.5 C60.87704918 35.87704918 60.87704918 35.87704918 64 39 C64.09526806 41.95246354 64.12552452 44.88148421 64.11352539 47.83422852 C64.11367142 48.76096375 64.11381744 49.68769897 64.1139679 50.64251709 C64.11326838 53.72133687 64.10547421 56.80009697 64.09765625 59.87890625 C64.09579221 62.00740018 64.09436824 64.13589453 64.09336853 66.26438904 C64.08954228 71.8786232 64.07971108 77.49283168 64.06866455 83.10705566 C64.05845273 88.83113253 64.0538714 94.55521353 64.04882812 100.27929688 C64.03808891 111.51954256 64.0210112 122.75976915 64 134 C61.4516926 132.73332471 58.90421424 131.46502706 56.35717773 130.19580078 C55.64193687 129.84048782 54.92669601 129.48517487 54.18978119 129.11909485 C48.37321174 126.21814836 42.69521248 123.11883889 37.0625 119.875 C35.08494 118.74686175 33.10706396 117.61927736 31.12890625 116.4921875 C30.12359863 115.91823242 29.11829102 115.34427734 28.08251953 114.75292969 C22.90368213 111.80789147 17.70119789 108.90530458 12.5 106 C3.54981492 100.99519416 -5.38474297 95.96366372 -14.30737305 90.90991211 C-19.41195843 88.02088152 -24.52345234 85.14486399 -29.64453125 82.28515625 C-30.75699219 81.66382813 -31.86945313 81.0425 -33.015625 80.40234375 C-35.14374327 79.21473272 -37.27259712 78.02843839 -39.40234375 76.84375 C-41.34774169 75.75812555 -43.28906063 74.66515298 -45.22583008 73.56420898 C-47.04698745 72.53735382 -48.88270403 71.53582147 -50.7331543 70.56274414 C-57.02433493 67.11680334 -60.53063408 63.44608553 -64.1875 57.3125 C-64.91936523 56.17458008 -64.91936523 56.17458008 -65.66601562 55.01367188 C-68.22079333 50.90790856 -68.22079333 50.90790856 -69 49 C-67.88024077 45.64072231 -67.26397398 45.19085244 -64.484375 43.20703125 C-63.73808838 42.66715576 -62.99180176 42.12728027 -62.22290039 41.57104492 C-61.40684326 40.9907251 -60.59078613 40.41040527 -59.75 39.8125 C-58.01314059 38.55632063 -56.27750861 37.29844279 -54.54296875 36.0390625 C-53.63466309 35.38067383 -52.72635742 34.72228516 -51.79052734 34.04394531 C-47.16538001 30.6562171 -42.61432701 27.17278841 -38.0625 23.6875 C-36.29565707 22.33712947 -34.52873266 20.98686554 -32.76171875 19.63671875 C-31.94106934 19.00942871 -31.12041992 18.38213867 -30.27490234 17.73583984 C-26.41626289 14.79154638 -22.54417967 11.86643071 -18.64453125 8.9765625 C-16.74788516 7.55898064 -14.87251996 6.11275427 -13.01171875 4.6484375 C-12.03847656 3.89820313 -11.06523437 3.14796875 -10.0625 2.375 C-9.20785156 1.70210938 -8.35320312 1.02921875 -7.47265625 0.3359375 C-4.32283484 -1.36586175 -3.39301063 -0.99972905 0 0 Z " fill="#FDEF01" transform="translate(430,356)"/>
<path d="M0 0 C2.64599017 1.48983816 5.27121976 3.00780135 7.88671875 4.55078125 C9.26408141 5.25822175 10.64310352 5.9624372 12.0234375 6.6640625 C13.47952702 7.45658866 14.93395479 8.25217541 16.38671875 9.05078125 C17.09352783 9.39842529 17.80033691 9.74606934 18.52856445 10.10424805 C21.86320603 12.03325596 23.54730363 13.48804471 24.73974609 17.22167969 C25.300625 20.66578509 25.62083636 24.07146808 25.88671875 27.55078125 C26.09724685 29.52294146 26.3078575 31.4950959 26.52264404 33.46679688 C26.81323586 36.21199716 27.06766644 38.95997909 27.31933594 41.70898438 C27.51285294 43.81311345 27.7150586 45.91628946 27.91796875 48.01953125 C28.0460908 49.38927457 28.17371264 50.7590648 28.30078125 52.12890625 C28.41373535 53.3396582 28.52668945 54.55041016 28.64306641 55.79785156 C28.9196737 60.05837999 28.93818908 64.28354783 28.88671875 68.55078125 C21.93123835 69.67486487 14.97520949 70.79550626 8.01879883 71.91381836 C5.65506599 72.29422075 3.29145724 72.67539503 0.92797852 73.05737305 C-2.479978 73.60801612 -5.88837919 74.15583138 -9.296875 74.703125 C-10.3441124 74.87295395 -11.39134979 75.0427829 -12.47032166 75.21775818 C-15.34909741 75.67845794 -18.22995403 76.11958715 -21.11328125 76.55078125 C-21.96250153 76.68550339 -22.8117218 76.82022552 -23.68667603 76.95903015 C-27.99582306 77.56503592 -30.86772542 77.90325072 -34.70703125 75.515625 C-35.89317017 74.80599609 -35.89317017 74.80599609 -37.10327148 74.08203125 C-37.93157471 73.55609375 -38.75987793 73.03015625 -39.61328125 72.48828125 C-41.44672765 71.3808416 -43.28142104 70.2754645 -45.1171875 69.171875 C-46.08156738 68.58390137 -47.04594727 67.99592773 -48.03955078 67.39013672 C-53.46716861 64.14218813 -59.01572169 61.11071856 -64.55078125 58.05078125 C-76.7972794 51.27107071 -76.7972794 51.27107071 -82.11328125 47.55078125 C-78.43168371 44.42972769 -74.59116496 42.02509536 -70.36328125 39.73828125 C-63.28675921 35.83284612 -56.34487853 31.72807179 -49.42578125 27.55078125 C-38.53245407 20.97882278 -27.57804828 14.51809458 -16.5949707 8.09765625 C-15.99938858 7.74946838 -15.40380646 7.40128052 -14.79017639 7.0425415 C-13.17585689 6.09912009 -11.5610892 5.1564657 -9.94628906 4.21386719 C-8.06832323 3.11142809 -6.20981017 1.97511327 -4.37329102 0.80493164 C-2.11328125 -0.44921875 -2.11328125 -0.44921875 0 0 Z " fill="#56DFFC" transform="translate(593.11328125,452.44921875)"/>
<path d="M0 0 C3.94507626 1.5780305 7.21671955 3.18381352 10.84765625 5.31640625 C11.6888224 5.80911766 11.6888224 5.80911766 12.54698181 6.31178284 C14.387666 7.39169647 16.22513917 8.47694318 18.0625 9.5625 C19.3521568 10.32089728 20.64187124 11.07919655 21.93164062 11.83740234 C28.54375168 15.73224523 35.12950585 19.66843176 41.68359375 23.66015625 C42.30226822 24.03690994 42.92094269 24.41366364 43.55836487 24.80183411 C46.50006683 26.59524939 49.43780317 28.39464414 52.37133789 30.20141602 C59.78439404 34.74425608 67.30638999 38.9564476 75 43 C75 43.66 75 44.32 75 45 C74.01 45 73.02 45 72 45 C72 45.66 72 46.32 72 47 C71.21496094 47.37511719 70.42992187 47.75023437 69.62109375 48.13671875 C62.52029082 51.56839662 62.52029082 51.56839662 55.9375 55.875 C53 58 53 58 50 58 C50 58.66 50 59.32 50 60 C48.6875 60.72916667 47.375 61.45833333 46.0625 62.1875 C45.24265625 62.64382813 44.4228125 63.10015625 43.578125 63.5703125 C41.92483837 64.48713509 40.26881306 65.39904647 38.609375 66.3046875 C35.17631032 68.18469911 31.83158817 70.06392953 28.625 72.3125 C26 74 26 74 23 74 C23 74.66 23 75.32 23 76 C22.32195313 76.36351562 21.64390625 76.72703125 20.9453125 77.1015625 C15.18881019 80.21103051 9.54718414 83.4345571 3.99609375 86.8984375 C2 88 2 88 0 88 C0 58.96 0 29.92 0 0 Z " fill="#16FC01" transform="translate(505,402)"/>
<path d="M0 0 C8.37040469 3.95124694 16.37399682 8.4408121 24.39038086 13.05615234 C31.31730318 17.04362812 38.27325903 20.97536785 45.25 24.875 C46.29349609 25.45886475 47.33699219 26.04272949 48.41210938 26.64428711 C53.72806939 29.61719945 59.04771746 32.58335789 64.37109375 35.54296875 C78.04115132 43.15416718 91.57437246 50.96522546 105 59 C102.28519346 61.09937859 99.52972745 62.94390695 96.5703125 64.6796875 C95.70245117 65.19055908 94.83458984 65.70143066 93.94042969 66.2277832 C93.01133789 66.77136475 92.08224609 67.31494629 91.125 67.875 C89.15350776 69.0323169 87.18215798 70.18987652 85.2109375 71.34765625 C83.68484863 72.24315186 83.68484863 72.24315186 82.12792969 73.15673828 C78.98679073 75.00778411 75.85541305 76.87436192 72.7265625 78.74609375 C71.7247998 79.34373535 70.72303711 79.94137695 69.69091797 80.55712891 C67.75312859 81.71375398 65.81720501 82.8735116 63.88330078 84.03662109 C63.00915527 84.55691895 62.13500977 85.0772168 61.234375 85.61328125 C60.07760254 86.30611206 60.07760254 86.30611206 58.89746094 87.01293945 C57 88 57 88 55 88 C53.64990234 86.19360352 53.64990234 86.19360352 52.0859375 83.62890625 C51.49804443 82.67483887 50.91015137 81.72077148 50.30444336 80.73779297 C49.66772705 79.68994629 49.03101074 78.64209961 48.375 77.5625 C47.01038074 75.34687591 45.64445412 73.13205661 44.27734375 70.91796875 C43.74902702 70.05996674 43.74902702 70.05996674 43.21003723 69.18463135 C39.52247812 63.20325358 35.73622409 57.28629167 31.9375 51.375 C30.60144358 49.29304506 29.26550555 47.21101414 27.9296875 45.12890625 C27.27709961 44.11199707 26.62451172 43.09508789 25.95214844 42.04736328 C22.22778198 36.23351359 18.52620993 30.40514997 14.82519531 24.57641602 C12.28726584 20.58217029 9.74289071 16.59299117 7.1640625 12.625 C6.7405249 11.97233154 6.3169873 11.31966309 5.88061523 10.6472168 C4.78141193 8.95691337 3.67800991 7.26934232 2.57421875 5.58203125 C1 3 1 3 0 0 Z " fill="#FB8D02" transform="translate(384,441)"/>
<path d="M0 0 C2.01988694 3.50211789 2.73357267 6.93704539 3.515625 10.88671875 C3.72030647 11.9100808 3.72030647 11.9100808 3.92912292 12.95411682 C4.37568866 15.19738837 4.81329294 17.44228993 5.25 19.6875 C5.55723494 21.24905062 5.86460981 22.81057371 6.17211914 24.37207031 C7.12784079 29.24555108 8.0668067 34.12216024 9 39 C9.15160583 39.79174622 9.30321167 40.58349243 9.45941162 41.39923096 C10.33166316 45.96463011 11.19273942 50.53194755 12.03918457 55.10220337 C12.30272411 56.52326141 12.56807721 57.94398444 12.83532715 59.36434937 C13.20789796 61.35106995 13.57093063 63.33957197 13.93359375 65.328125 C14.2438147 67.01276855 14.2438147 67.01276855 14.56030273 68.73144531 C15.03065146 72.22785218 15.22740875 75.47743052 15 79 C12.734375 81.28515625 12.734375 81.28515625 9.75 83.0625 C8.77546875 83.67222656 7.8009375 84.28195312 6.796875 84.91015625 C4 86 4 86 2.05395508 85.22729492 C0.07501711 84.04482479 -1.79569917 82.80846925 -3.66015625 81.453125 C-4.36140625 80.94523438 -5.06265625 80.43734375 -5.78515625 79.9140625 C-6.53667969 79.36492187 -7.28820312 78.81578125 -8.0625 78.25 C-8.85398437 77.67507813 -9.64546875 77.10015625 -10.4609375 76.5078125 C-16.94991077 71.78670124 -23.4072113 67.02264035 -29.86230469 62.25537109 C-35.49235802 58.10073998 -41.14286118 53.97544718 -46.8125 49.875 C-47.54726563 49.34261719 -48.28203125 48.81023438 -49.0390625 48.26171875 C-52.97380568 45.42198758 -56.9429482 42.66224121 -61 40 C-57.92486954 36.62631319 -54.71481144 34.49098038 -50.75 32.25 C-49.67234375 31.63640625 -48.5946875 31.0228125 -47.484375 30.390625 C-46.66453125 29.93171875 -45.8446875 29.4728125 -45 29 C-44.030625 29.79921875 -43.06125 30.5984375 -42.0625 31.421875 C-33.12388871 38.75687039 -24.02225438 45.80890869 -14.73876953 52.70019531 C-11.11477484 55.40928654 -7.55217749 58.19772665 -4 61 C-4.37260072 59.32329676 -4.74526616 57.64660788 -5.11816406 55.9699707 C-5.46222379 54.42054181 -5.80528903 52.87089181 -6.14746094 51.32104492 C-7.27537981 46.22146373 -8.42837686 41.12843365 -9.6015625 36.0390625 C-10.01027588 34.24722534 -10.01027588 34.24722534 -10.42724609 32.41918945 C-10.9684864 30.04656542 -11.51552843 27.67525614 -12.06884766 25.30541992 C-12.77044433 22.21140116 -13.41485283 19.11797521 -14 16 C-14.13728516 15.28046143 -14.27457031 14.56092285 -14.41601562 13.81958008 C-14.609375 12.0078125 -14.609375 12.0078125 -14 9 C-11.93535022 6.86030668 -9.58633099 5.49796363 -7 4.0625 C-6.33226562 3.66482422 -5.66453125 3.26714844 -4.9765625 2.85742188 C-3.33114283 1.88192307 -1.66719524 0.93779732 0 0 Z " fill="#030104" transform="translate(576,689)"/>
<path d="M0 0 C1.15435547 -0.00386719 1.15435547 -0.00386719 2.33203125 -0.0078125 C4.1875 0.125 4.1875 0.125 5.1875 1.125 C5.59972445 3.79602273 5.95449643 6.45405806 6.2734375 9.13671875 C6.37475479 9.96281647 6.47607208 10.78891418 6.58045959 11.64004517 C6.91266663 14.36363225 7.23791546 17.08799469 7.5625 19.8125 C7.67554474 20.74967865 7.78858948 21.6868573 7.90505981 22.6524353 C9.39914418 35.04008675 10.77195262 47.42895882 11.94824219 59.85107422 C12.75735878 68.22576719 13.6890537 76.5811032 14.66796875 84.9375 C14.80188522 86.08260544 14.9358017 87.22771088 15.07377625 88.40751648 C15.74819144 94.16164943 16.42944099 99.9148869 17.11889648 105.66723633 C18.51993097 117.48114912 19.69371697 129.23630289 20.1875 141.125 C14.82654667 142.25362175 9.63443314 142.22188221 4.1875 142.125 C-4.77198563 63.18104455 -4.77198563 63.18104455 -7.8125 33.9375 C-7.91186859 32.98673584 -8.01123718 32.03597168 -8.11361694 31.05639648 C-9.15269985 21.08733539 -10.12118272 11.12522282 -10.8125 1.125 C-7.16446344 0.49396456 -3.70544375 -0.01262502 0 0 Z " fill="#030104" transform="translate(647.8125,648.875)"/>
<path d="M0 0 C6.11990971 0.79379582 12.13967741 1.96680802 18.1875 3.1875 C19.80954346 3.51415649 19.80954346 3.51415649 21.46435547 3.84741211 C33.31403734 6.24768014 45.1492972 8.71156201 56.953125 11.32861328 C58.85228059 11.74709708 60.75308903 12.15823176 62.65625 12.55810547 C64.81911625 13.0138904 66.97200855 13.50001492 69.125 14 C70.24132812 14.2475 71.35765625 14.495 72.5078125 14.75 C75 16 75 16 76.3203125 18.87890625 C76.54460937 19.90886719 76.76890625 20.93882812 77 22 C77.18046875 22.68964844 77.3609375 23.37929688 77.546875 24.08984375 C77.7955231 26.35158514 77.67474458 27.81236728 77 30 C75.17871094 31.66650391 75.17871094 31.66650391 72.734375 33.2890625 C71.82333008 33.89451904 70.91228516 34.49997559 69.97363281 35.1237793 C64.87852093 38.33855227 59.70598137 41.40629441 54.5 44.4375 C52.12428726 45.82861731 49.75099906 47.22381368 47.37890625 48.62109375 C46.77579117 48.97626068 46.17267609 49.33142761 45.55128479 49.69735718 C41.17887845 52.28134028 36.84453119 54.9225527 32.52734375 57.59765625 C31.92761749 57.96910263 31.32789124 58.34054901 30.70999146 58.72325134 C27.81917696 60.51618982 24.93307829 62.31617263 22.05078125 64.12280273 C21.02210938 64.76290283 19.9934375 65.40300293 18.93359375 66.0625 C18.02665771 66.63097656 17.11972168 67.19945312 16.18530273 67.78515625 C14 69 14 69 12 69 C11.49255577 67.10614563 10.99435426 65.20981334 10.5 63.3125 C10.2215625 62.25675781 9.943125 61.20101562 9.65625 60.11328125 C9.03505331 57.16629457 8.63017026 54.98058194 9 52 C10.78320312 50.42773438 10.78320312 50.42773438 13.28125 49.09375 C14.19648437 48.58972656 15.11171875 48.08570313 16.0546875 47.56640625 C17.02664063 47.04949219 17.99859375 46.53257812 19 46 C20.8875054 44.93076217 22.77291306 43.85781313 24.65625 42.78125 C27.58051024 41.13659894 30.50704816 39.4960489 33.43359375 37.85546875 C39.6863731 34.33880493 45.86984527 30.72643579 52 27 C38.00841924 24.26284738 24.01651564 21.57825027 9.94897461 19.25683594 C9.04671143 19.10504883 8.14444824 18.95326172 7.21484375 18.796875 C6.42198975 18.66635742 5.62913574 18.53583984 4.81225586 18.40136719 C3 18 3 18 2 17 C1.599617 14.14471393 1.2481773 11.30263513 0.9375 8.4375 C0.84662109 7.63119141 0.75574219 6.82488281 0.66210938 5.99414062 C0.43752551 3.99652623 0.21826764 1.9983144 0 0 Z " fill="#010404" transform="translate(696,480)"/>
<path d="M0 0 C1.0252607 24.33903451 1.11491777 48.64273599 1 73 C-8.24765274 69.44305586 -16.59951029 63.904797 -25.0625 58.8125 C-26.70109985 57.82817993 -26.70109985 57.82817993 -28.37280273 56.82397461 C-36.97555745 51.64407332 -45.51676686 46.37313574 -54 41 C-49.85188108 36.55381265 -45.23937753 33.10669254 -40.3125 29.5625 C-33.61790049 24.69334652 -27.01384982 19.7335072 -20.5 14.625 C-1.82453287 0 -1.82453287 0 0 0 Z " fill="#FCEE00" transform="translate(492,305)"/>
<path d="M0 0 C2.875 0.5625 2.875 0.5625 5.08203125 3.68359375 C8.45356772 9.36537328 11.41281477 15.27516414 14.40670776 21.16149902 C20.20507228 32.55806542 26.12399668 43.86942815 32.33227539 55.04931641 C32.78852295 55.87351074 33.24477051 56.69770508 33.71484375 57.546875 C34.11050537 58.25553711 34.50616699 58.96419922 34.91381836 59.69433594 C35.875 61.5625 35.875 61.5625 36.875 64.5625 C35.16801718 64.90268163 33.45932867 65.2343089 31.75 65.5625 C30.79867187 65.748125 29.84734375 65.93375 28.8671875 66.125 C25.82334148 66.5700532 22.94629562 66.59235464 19.875 66.5625 C17.52453944 61.88649407 15.17682979 57.20912059 12.83154297 52.53051758 C12.03507786 50.9425834 11.23789189 49.35501055 10.43994141 47.76782227 C2.27939683 31.53354742 2.27939683 31.53354742 -1.125 23.5625 C-2.3732339 28.50556762 -3.61821946 33.4494385 -4.86035156 38.39404297 C-5.2823362 40.0719956 -5.70516941 41.74973509 -6.12890625 43.42724609 C-8.9543441 54.49673252 -8.9543441 54.49673252 -11.3515625 65.6640625 C-12.125 69.5625 -12.125 69.5625 -13.125 70.5625 C-18.48937132 71.56831962 -23.67799453 71.67366338 -29.125 71.5625 C-28.35857932 66.43654665 -27.19513373 61.4597127 -25.9375 56.4375 C-25.71827881 55.56005127 -25.49905762 54.68260254 -25.27319336 53.77856445 C-23.52404282 46.89439453 -21.53004512 40.10518139 -19.43798828 33.31860352 C-17.06349229 25.54453728 -15.02537023 17.69307802 -13.04125977 9.8112793 C-12.80463623 8.87968994 -12.5680127 7.94810059 -12.32421875 6.98828125 C-12.11627686 6.15723877 -11.90833496 5.32619629 -11.6940918 4.4699707 C-11.125 2.5625 -11.125 2.5625 -10.125 1.5625 C-6.75345227 0.96752099 -3.36945679 0.60650222 0 0 Z " fill="#000500" transform="translate(608.125,289.4375)"/>
<path d="M0 0 C7.0990566 7.0754717 7.0990566 7.0754717 9 10 C8.76190724 14.95133502 5.98924583 18.50937082 3.30859375 22.48828125 C2.84389175 23.19147995 2.37918976 23.89467865 1.90040588 24.6191864 C0.42020699 26.85533075 -1.07093443 29.08392556 -2.5625 31.3125 C-3.57039305 32.83089484 -4.57756294 34.34976997 -5.58398438 35.86914062 C-8.04764514 39.58504427 -10.5211431 43.29421814 -13 47 C-3.13742258 44.92092702 6.19251167 42.02381061 15.6640625 38.609375 C16.67210937 38.25875 17.68015625 37.908125 18.71875 37.546875 C19.61529297 37.22557617 20.51183594 36.90427734 21.43554688 36.57324219 C24.36036974 35.91944515 26.15381436 36.10574391 29 37 C31.01953125 38.99609375 31.01953125 38.99609375 32.8125 41.4375 C33.41707031 42.24058594 34.02164063 43.04367187 34.64453125 43.87109375 C36 46 36 46 36 48 C15.13488036 54.27492399 -5.70462029 60.34646015 -27 65 C-28.03908742 63.78622542 -29.055719 62.55320279 -30.0625 61.3125 C-30.63097656 60.62800781 -31.19945312 59.94351563 -31.78515625 59.23828125 C-33.39058413 56.28037072 -32.92044204 55.20443801 -32 52 C-30.97737037 50.0366276 -29.87078982 48.11603104 -28.7109375 46.23046875 C-28.02314209 45.10479492 -27.33534668 43.97912109 -26.62670898 42.81933594 C-25.87635875 41.60858794 -25.12578427 40.3979789 -24.375 39.1875 C-23.61150362 37.9446779 -22.84857017 36.70150981 -22.08618164 35.45800781 C-19.73589378 31.63133881 -17.3700197 27.81447176 -15 24 C-14.6214386 23.39037415 -14.2428772 22.78074829 -13.85284424 22.15264893 C-9.25725358 14.75460753 -4.63976426 7.37042155 0 0 Z " fill="#050300" transform="translate(230,457)"/>
<path d="M0 0 C1.13695312 0.19335938 2.27390625 0.38671875 3.4453125 0.5859375 C5.0051929 0.84904986 6.56508964 1.11206535 8.125 1.375 C9.23681641 1.56449219 9.23681641 1.56449219 10.37109375 1.7578125 C15.12414636 2.55664487 19.8826606 3.27174718 24.65625 3.9375 C32.25739058 5.01102601 39.81408237 6.30068449 47.375 7.625 C48.70829992 7.856963 50.04163314 8.0887346 51.375 8.3203125 C54.5836588 8.87834012 57.79187709 9.43889973 61 10 C58.69 13.96 56.38 17.92 54 22 C46.28262255 21.36166673 38.83335249 20.11261317 31.25 18.5625 C30.15300781 18.34529297 29.05601562 18.12808594 27.92578125 17.90429688 C22.8319938 16.87627795 17.87864686 15.83375712 13 14 C19.15030713 21.9663427 25.41944375 29.7854483 32.02636719 37.37939453 C37.53399258 43.71670621 37.53399258 43.71670621 39 46 C37.95064702 50.3140067 35.2397501 54.19242483 33 58 C29.75089088 56.61436344 28.02641085 55.12610726 25.8984375 52.32421875 C25.33092773 51.58518311 24.76341797 50.84614746 24.17871094 50.0847168 C23.58348633 49.29363525 22.98826172 48.50255371 22.375 47.6875 C21.75399414 46.87514893 21.13298828 46.06279785 20.49316406 45.22583008 C19.23871647 43.58394146 17.98737636 41.93967367 16.73925781 40.29296875 C14.82364375 37.76749889 12.89149837 35.255384 10.95288086 32.74755859 C9.76271989 31.20399687 8.58246988 29.65280982 7.40234375 28.1015625 C5.67584883 25.8725593 3.92834721 23.69142417 2.12890625 21.5234375 C1.65807617 20.94440674 1.18724609 20.36537598 0.70214844 19.76879883 C-0.19832779 18.66313678 -1.11236611 17.56832894 -2.04199219 16.48706055 C-4.13978412 13.88245619 -4.99755904 12.3754193 -5.01953125 8.99609375 C-3.84263666 5.53755676 -2.16286746 2.93033656 0 0 Z " fill="#050500" transform="translate(321,278)"/>
<path d="M0 0 C0 10.56 0 21.12 0 32 C-5.47912331 33.04582894 -10.95853142 34.08343056 -16.44287109 35.10058594 C-18.30802284 35.44902444 -20.17229891 35.80218486 -22.03564453 36.16015625 C-24.7143069 36.67391142 -27.39566021 37.1705988 -30.078125 37.6640625 C-30.91055725 37.82750153 -31.7429895 37.99094055 -32.60064697 38.15933228 C-33.77140778 38.36977676 -33.77140778 38.36977676 -34.96582031 38.58447266 C-35.64976868 38.71326813 -36.33371704 38.8420636 -37.03839111 38.97476196 C-39.53212727 39.00684634 -40.89642565 38.3023935 -43 37 C-44.51953125 35.16015625 -44.51953125 35.16015625 -45.8125 33.0625 C-46.25207031 32.37285156 -46.69164062 31.68320312 -47.14453125 30.97265625 C-48 29 -48 29 -47 26 C-45.4765625 24.83203125 -45.4765625 24.83203125 -43.625 23.8125 C-43.01914062 23.46832031 -42.41328125 23.12414062 -41.7890625 22.76953125 C-40 22 -40 22 -37 22 C-37 21.34 -37 20.68 -37 20 C-35.12890625 18.66796875 -35.12890625 18.66796875 -32.5625 17.1875 C-31.655 16.66285156 -30.7475 16.13820313 -29.8125 15.59765625 C-28.884375 15.07042969 -27.95625 14.54320312 -27 14 C-26.154375 13.50371094 -25.30875 13.00742187 -24.4375 12.49609375 C-18.38158832 9 -18.38158832 9 -15 9 C-15 8.34 -15 7.68 -15 7 C-12.87767021 5.82823482 -10.75242209 4.66245215 -8.625 3.5 C-8.02171875 3.16613281 -7.4184375 2.83226562 -6.796875 2.48828125 C-2.2265625 0 -2.2265625 0 0 0 Z " fill="#FA0202" transform="translate(494,511)"/>
<path d="M0 0 C0 16.83 0 33.66 0 51 C-4.50218341 45.37227074 -4.50218341 45.37227074 -6.375 42.4609375 C-6.79716797 41.80706055 -7.21933594 41.15318359 -7.65429688 40.47949219 C-8.09837891 39.78500977 -8.54246094 39.09052734 -9 38.375 C-9.70479492 37.27913574 -9.70479492 37.27913574 -10.42382812 36.16113281 C-24.95478078 13.52232976 -24.95478078 13.52232976 -30 5 C-26.79199093 4.35254908 -23.58353661 3.70733107 -20.375 3.0625 C-19.47136719 2.88009766 -18.56773437 2.69769531 -17.63671875 2.50976562 C-5.13352273 0 -5.13352273 0 0 0 Z " fill="#F90000" transform="translate(493,560)"/>
<path d="M0 0 C3.58114349 0.89528587 5.95124061 1.9159953 9.1484375 3.66015625 C10.14810547 4.20325439 11.14777344 4.74635254 12.17773438 5.3059082 C13.23283203 5.8855835 14.28792969 6.46525879 15.375 7.0625 C16.44814453 7.64797607 17.52128906 8.23345215 18.62695312 8.83666992 C26.47331562 13.1293491 34.27245818 17.49680221 42 22 C38.41689275 25.37084901 34.49493283 25.89158185 29.8046875 26.60546875 C29.01603302 26.73440018 28.22737854 26.8633316 27.41482544 26.99617004 C24.9031359 27.40396636 22.38923188 27.79571851 19.875 28.1875 C18.17561794 28.46188108 16.47639679 28.73726072 14.77734375 29.01367188 C2.46023267 31 2.46023267 31 0 31 C0 20.77 0 10.54 0 0 Z " fill="#A33DF6" transform="translate(505,510)"/>
<path d="M0 0 C1.3261171 2.65223421 1.31958711 4.92232966 1.53515625 7.8828125 C1.66567383 9.63271484 1.66567383 9.63271484 1.79882812 11.41796875 C1.9293457 13.25294922 1.9293457 13.25294922 2.0625 15.125 C2.15337891 16.35605469 2.24425781 17.58710937 2.33789062 18.85546875 C2.56235003 21.90339115 2.78288542 24.95154703 3 28 C-6.30935109 23.52308434 -15.40106923 18.74413358 -24.375 13.625 C-25.29627686 13.10131836 -26.21755371 12.57763672 -27.16674805 12.03808594 C-28.02695557 11.5434082 -28.88716309 11.04873047 -29.7734375 10.5390625 C-30.54091309 10.09771973 -31.30838867 9.65637695 -32.09912109 9.20166016 C-34 8 -34 8 -36 6 C-29.12912524 4.13756508 -22.21674409 2.97522951 -15.1875 1.875 C-13.49077148 1.60236328 -13.49077148 1.60236328 -11.75976562 1.32421875 C-3.40125705 0 -3.40125705 0 0 0 Z " fill="#55D8F4" transform="translate(624,537)"/>
<path d="M0 0 C0.66 1.65 1.32 3.3 2 5 C-3.61 5.99 -9.22 6.98 -15 8 C-12.66106583 5.66106583 -10.79266345 4.0574989 -8.0625 2.3125 C-7.39347656 1.87550781 -6.72445313 1.43851563 -6.03515625 0.98828125 C-4 0 -4 0 0 0 Z " fill="#E11111" transform="translate(432,548)"/>
<path d="M0 0 C0.33 3.63 0.66 7.26 1 11 C-3.26511313 9.29395475 -5.61418999 7.90212286 -9 5 C-7.68921847 4.16396622 -6.37632511 3.3312426 -5.0625 2.5 C-3.96615234 1.80390625 -3.96615234 1.80390625 -2.84765625 1.09375 C-1 0 -1 0 0 0 Z " fill="#55D0EA" transform="translate(614,439)"/>
</svg>
