<?xml version="1.0" encoding="UTF-8"?>
<svg version="1.1" xmlns="http://www.w3.org/2000/svg" width="1000" height="1000">
<path d="M0 0 C330 0 660 0 1000 0 C1000 330 1000 660 1000 1000 C670 1000 340 1000 0 1000 C0 670 0 340 0 0 Z " fill="#FEFEFE" transform="translate(0,0)"/>
<path d="M0 0 C1.55843377 0.41946633 3.11694862 0.83863152 4.67553711 1.25752258 C8.03639723 2.1614307 11.39671674 3.06731219 14.75662231 3.97476196 C20.13956936 5.42857104 25.52365501 6.87812995 30.90795898 8.3269043 C36.65824447 9.87430595 42.40847533 11.42190792 48.15834045 12.97087097 C62.88220995 16.93693085 77.6100916 20.88787966 92.33984375 24.83203125 C94.50935437 25.41303235 96.67886426 25.99403617 98.84837341 26.57504272 C107.30693225 28.84017269 115.76556892 31.10501166 124.22439575 33.36914062 C129.17323431 34.69381657 134.12182153 36.01942854 139.07031059 37.34540939 C141.89943394 38.10308665 144.72888547 38.8595289 147.55836487 39.61587524 C156.18831756 41.92551919 164.80965194 44.26058828 173.41357422 46.66552734 C174.95529103 47.09438826 176.49703327 47.52315776 178.0388031 47.951828 C180.8495842 48.73357451 183.65679054 49.52665661 186.46229553 50.32710266 C187.6928215 50.66992783 188.92334747 51.01275299 190.19116211 51.3659668 C191.24782578 51.66544724 192.30448944 51.96492767 193.39317322 52.27348328 C199.62471477 53.54425773 204.7984839 52.7905617 210.8840332 51.14404297 C211.59390821 50.95457627 212.30378323 50.76510958 213.0351696 50.56990147 C215.3955497 49.93768294 217.75235813 49.29307147 220.109375 48.6484375 C221.80238877 48.19234648 223.49561651 47.73704913 225.18904114 47.28248596 C229.77401636 46.04948923 234.35605035 44.80587061 238.93766022 43.56043625 C243.76578085 42.25005927 248.59661131 40.94975363 253.42724609 39.64868164 C261.45709242 37.48489316 269.48553732 35.31597819 277.51318359 33.14404297 C288.87432333 30.07098907 300.24082103 27.01815242 311.609375 23.97265625 C313.39008721 23.49549354 315.17079807 23.0183258 316.95150757 22.54115295 C323.89182155 20.68156789 330.83233192 18.82271652 337.77294922 16.96426392 C342.79158475 15.62031321 347.80997094 14.27543482 352.828125 12.9296875 C353.63030079 12.71458464 354.43247658 12.49948177 355.25896072 12.27786064 C365.53582506 9.52091454 375.80448789 6.73578235 386.06439209 3.91638756 C390.35167953 2.73929297 394.64075917 1.56873158 398.92938232 0.39651489 C402.20343349 -0.50237818 405.47404131 -1.41306405 408.74462891 -2.32446289 C410.66813545 -2.85100371 412.59179035 -3.37700302 414.515625 -3.90234375 C415.79200081 -4.26451492 415.79200081 -4.26451492 417.09416199 -4.63400269 C424.84386256 -6.72465218 424.84386256 -6.72465218 428.49609375 -5.09375 C431.6395269 -0.82167177 432.76372249 3.80775684 434.07714844 8.85668945 C434.31710761 9.75359466 434.55706678 10.65049986 434.80429745 11.57458401 C435.59954368 14.55432963 436.38372303 17.53687323 437.16796875 20.51953125 C437.72805024 22.62642573 438.28883997 24.73313205 438.85029602 26.83966064 C440.34865491 32.46882953 441.83765513 38.10043373 443.3247261 43.73259354 C444.85643741 49.52809253 446.39607585 55.32148364 447.93530273 61.11499023 C449.76523164 68.00426824 451.59451451 74.89371328 453.41990662 81.78419495 C456.76556963 94.4112254 460.13318382 107.03181729 463.546875 119.640625 C463.90754264 120.97473001 464.26815006 122.3088513 464.62869263 123.64299011 C466.54691771 130.73853238 466.54691771 130.73853238 468.47570801 137.83120728 C473.80861752 157.39241546 473.80861752 157.39241546 475.13452148 166.55493164 C475.6523144 169.92215887 476.52930163 173.07705008 477.49609375 176.34375 C477.82609375 177.47683594 478.15609375 178.60992187 478.49609375 179.77734375 C479.43646852 182.85166216 479.43646852 182.85166216 480.5625 185.5546875 C481.43523729 187.75296301 481.97760919 189.77908552 482.43359375 192.09375 C483.30556974 196.19676878 484.40141395 200.17353535 485.66796875 204.171875 C486.25903281 206.1235016 486.78324746 208.09588678 487.26171875 210.078125 C489.5078061 218.77660875 493.17461268 223.66002466 499.49609375 229.90625 C500.69621229 231.27025027 501.88468046 232.64463223 503.05859375 234.03125 C505.4110297 236.74142966 507.86143085 239.27914601 510.43359375 241.78125 C513.34933576 244.63009162 515.80864904 247.57868431 518.24609375 250.84375 C522.21404375 255.9759488 526.76308131 259.34693854 532.0546875 262.99609375 C534.49609375 264.90625 534.49609375 264.90625 535.49609375 267.90625 C536.82268796 268.58622797 538.15751251 269.25018409 539.49609375 269.90625 C541.15604406 271.37730944 542.76354461 272.90822143 544.33622742 274.472229 C545.0447084 275.17285497 545.0447084 275.17285497 545.76750213 275.88763499 C547.34677601 277.45192309 548.91883505 279.02326307 550.4909668 280.59472656 C551.62253355 281.71867102 552.75450167 282.84221152 553.88684082 283.96537781 C556.95975728 287.01635271 560.0260788 290.07387263 563.09058356 293.13329411 C565.00524506 295.04431245 566.92119833 296.95402594 568.83759499 298.86330414 C575.52253684 305.52375528 582.20174161 312.18990462 588.8762207 318.86083984 C595.09922988 325.08021131 601.33525377 331.28632177 607.57733315 337.48654771 C612.93572196 342.81026277 618.2844678 348.14353903 623.62589675 353.48426986 C626.8164111 356.67399058 630.01079261 359.8595931 633.21509361 363.03546906 C636.2278067 366.02205094 639.22836508 369.02032739 642.21999359 372.02802467 C643.31980488 373.12965421 644.42390248 374.22702361 645.5325489 375.31976128 C647.0458453 376.81265739 648.54290365 378.32017233 650.03691101 379.83233643 C650.87884349 380.67225758 651.72077597 381.51217873 652.58822155 382.37755203 C654.82570126 385.34311251 655.4131836 387.20493506 655.49609375 390.90625 C654.58918285 392.74219799 654.58918285 392.74219799 652.99491882 394.39237976 C652.33932669 395.07592215 651.68373455 395.75946453 651.00827599 396.46372032 C650.17925585 397.26975512 649.35023571 398.07578991 648.49609375 398.90625 C647.75802093 399.62424125 647.75802093 399.62424125 647.00503755 400.35673738 C643.27480317 403.96862556 639.49547532 407.52681741 635.70550537 411.07584 C631.83672341 414.70041122 627.98131139 418.33913758 624.12641907 421.97846985 C623.305125 422.75369669 622.48383094 423.52892352 621.63764918 424.32764208 C610.05079834 435.28140695 598.603803 446.38112805 587.15549183 457.47931385 C577.88373093 466.4595018 568.56764407 475.38200664 559.12524414 484.18286133 C513.55071993 526.7221797 480.23335433 560.87938288 471.65206909 624.09823608 C470.33856048 633.76322663 467.84029566 642.99677187 465.08550072 652.33581161 C463.93140322 656.29352808 462.88358427 660.27863727 461.82763672 664.26342773 C461.42280102 665.77326841 461.01734533 667.28294299 460.61126709 668.79244995 C460.40925438 669.54418865 460.20724167 670.29592735 459.99910736 671.07044601 C459.11310645 674.36579571 458.22622568 677.66090833 457.33928108 680.95600414 C456.18269455 685.25308058 455.02677787 689.55033703 453.87109375 693.84765625 C453.64620144 694.68367937 453.42130913 695.51970249 453.1896019 696.38105965 C450.05056887 708.05498873 446.95392659 719.73945457 443.8866539 731.43243027 C442.64429685 736.16218244 441.39430074 740.88992176 440.14395332 745.61756706 C438.97574199 750.03848097 437.82050483 754.46251657 436.67506027 758.88938046 C436.14284773 760.93667955 435.60389894 762.98205571 435.06176758 765.02674866 C434.40701639 767.4962465 433.76307459 769.96864609 433.13208008 772.44432068 C432.84212158 773.52415726 432.55216309 774.60399384 432.25341797 775.71655273 C432.00888885 776.65280991 431.76435974 777.58906708 431.51242065 778.55369568 C430.28332647 781.39875549 429.22819943 782.4624306 426.49609375 783.90625 C424.45849609 783.90289307 424.45849609 783.90289307 422.20703125 783.34472656 C421.32241211 783.13303833 420.43779297 782.9213501 419.52636719 782.70324707 C418.52637695 782.44023804 417.52638672 782.177229 416.49609375 781.90625 C415.38008789 781.62422729 414.26408203 781.34220459 413.11425781 781.05163574 C409.10944157 780.02337568 405.1149987 778.96026211 401.12109375 777.890625 C399.58948859 777.48284662 398.05781445 777.07532726 396.52607727 776.66804504 C392.38156758 775.56514572 388.23812075 774.45830203 384.09488297 773.35063553 C380.59526103 772.41555129 377.09503313 771.48274677 373.59480381 770.54993916 C361.55998009 767.34255343 349.52762055 764.12597844 337.49609375 760.90625 C336.13261181 760.54137859 336.13261181 760.54137859 334.74158478 760.16913605 C322.2965304 756.83852853 309.85262248 753.50365535 297.40939713 750.16622162 C294.81175393 749.46959748 292.21403806 748.77324494 289.61630249 748.07696533 C273.38908529 743.72722744 257.16335299 739.37322282 240.95913124 734.93846703 C236.69545496 733.77242463 232.4303517 732.61160337 228.1656189 731.44943237 C224.91690054 730.56087307 221.67094771 729.66270959 218.42504883 728.76391602 C216.50744982 728.24058771 214.58973343 727.71768929 212.671875 727.1953125 C211.83124512 726.95901627 210.99061523 726.72272003 210.12451172 726.47926331 C200.37197783 723.84874842 192.90276806 725.62180626 183.31640625 728.296875 C181.95598254 728.66921286 180.59531766 729.04067045 179.23443604 729.41133118 C176.26860798 730.22073146 173.30428839 731.03537308 170.34100342 731.85403442 C162.96613724 733.89088247 155.58362747 735.89977883 148.20193863 737.91172981 C145.49827534 738.64890476 142.79489768 739.38712125 140.09152222 740.12535095 C125.28745653 744.16438363 110.46525676 748.13388487 95.63671875 752.08203125 C94.48985973 752.38742451 93.34300072 752.69281776 92.1613884 753.00746536 C81.83297213 755.75726989 71.50361759 758.50354232 61.17388916 761.24841309 C55.75997491 762.68711104 50.34645357 764.12727953 44.93317795 765.56837845 C42.83591309 766.12641516 40.73850502 766.68391395 38.64094925 767.24085617 C27.61886934 770.16783677 16.6111454 773.13518081 5.63378906 776.22607422 C4.22622439 776.62066849 4.22622439 776.62066849 2.79022408 777.02323437 C-1.61301031 778.2577078 -6.01292406 779.50185079 -10.40737915 780.76722717 C-11.95032595 781.20198289 -13.49339899 781.6362909 -15.03662109 782.07006836 C-16.07014017 782.37465753 -16.07014017 782.37465753 -17.12453842 782.68540001 C-20.91767713 783.73741478 -23.7385453 784.19683767 -27.50390625 782.90625 C-30.38466336 780.02549289 -30.85909208 776.55026544 -31.86035156 772.70898438 C-32.08910477 771.85360958 -32.31785797 770.99823479 -32.55354309 770.11693954 C-33.31950771 767.24630538 -34.07569654 764.37318511 -34.83203125 761.5 C-35.37387463 759.46197379 -35.91634822 757.42411503 -36.45941162 755.38641357 C-37.6228584 751.01584127 -38.78207526 746.64417725 -39.93798828 742.27160645 C-41.75931462 735.38210136 -43.58970993 728.49502791 -45.421875 721.60839844 C-47.29118083 714.58059868 -49.15995814 707.55266137 -51.0255127 700.52386475 C-56.58890683 679.56379559 -62.200189 658.61676668 -67.82756042 637.67379761 C-69.09340423 632.96197428 -70.35804898 628.24982913 -71.62279892 623.5377121 C-71.80578663 622.85596169 -71.98877434 622.17421127 -72.17730713 621.47180176 C-72.48055562 620.33017657 -72.48055562 620.33017657 -72.78993034 619.16548824 C-73.410791 616.8717801 -74.0497254 614.58531894 -74.69751167 612.29918003 C-76.6847218 605.19695701 -78.54050786 598.17277603 -79.71406591 590.8856259 C-84.87809163 558.99951719 -100.77514742 541.5501463 -123.70267916 519.83031678 C-128.32300905 515.41971569 -132.85337246 510.91840808 -137.39437866 506.42643738 C-144.9988595 498.92656725 -152.65084202 491.47980793 -160.34716797 484.07446289 C-168.24893115 476.47109623 -176.12472176 468.84249065 -183.96435547 461.17504883 C-184.45076738 460.69934564 -184.9371793 460.22364244 -185.43833096 459.733524 C-190.74933391 454.53833713 -196.05515209 449.3378668 -201.35993004 444.13632488 C-203.23009485 442.30289178 -205.10030132 440.46950117 -206.97055054 438.63615417 C-207.8830785 437.74137491 -208.79560647 436.84659565 -209.7357868 435.92470187 C-215.15023318 430.62056477 -220.58528596 425.33871589 -226.04009748 420.07610476 C-229.41395613 416.81897873 -232.77870034 413.55253377 -236.14218903 410.28470421 C-237.70468963 408.77156866 -239.27160474 407.26297663 -240.84317398 405.75926208 C-242.98405036 403.7102365 -245.10928194 401.64617468 -247.2315979 399.57795715 C-247.85929726 398.98528559 -248.48699662 398.39261403 -249.13371718 397.78198272 C-251.84691596 395.10971402 -253.34350891 393.38680675 -254.56770325 389.71907234 C-254.49258935 386.40728565 -254.04469851 385.56055388 -251.75546265 383.22938538 C-251.10186138 382.54758272 -250.44826012 381.86578007 -249.77485275 381.16331673 C-249.02544041 380.41848471 -248.27602806 379.67365269 -247.50390625 378.90625 C-246.30146208 377.6688548 -246.30146208 377.6688548 -245.0747261 376.40646172 C-242.23073286 373.49453807 -239.35789491 370.61339928 -236.47900391 367.73608398 C-235.37909016 366.63317224 -234.27937968 365.53005777 -233.17985535 364.42675781 C-230.2131696 361.45129543 -227.24330211 358.47902922 -224.27254534 355.50763202 C-222.41235202 353.64672486 -220.55287385 351.78510615 -218.69364548 349.92323494 C-212.19542186 343.41578058 -205.69464136 336.9108933 -199.19140625 330.40844727 C-193.14803505 324.36567702 -187.11026723 318.31734801 -181.07509387 312.26639122 C-175.87589333 307.05408294 -170.67281178 301.84567022 -165.46673429 296.64023072 C-162.36504462 293.53879497 -159.26489845 290.43585547 -156.16865921 287.32897758 C-153.25594288 284.40652505 -150.33839028 281.4889861 -147.41718483 278.57501984 C-146.35169959 277.51057342 -145.28788813 276.44444826 -144.22596931 275.37644386 C-138.87489104 269.99671305 -133.49496648 264.86120315 -127.38991356 260.32972813 C-123.59470648 257.46526719 -120.24351852 254.10776875 -116.7890625 250.84765625 C-114.50390625 248.90625 -114.50390625 248.90625 -112.50390625 248.90625 C-112.30023438 248.36613281 -112.0965625 247.82601562 -111.88671875 247.26953125 C-109.94576141 243.95235839 -107.21403833 241.62962702 -104.37890625 239.09375 C-103.79431641 238.56112549 -103.20972656 238.02850098 -102.60742188 237.47973633 C-98.91208788 234.12484264 -95.16163656 230.84445391 -91.28515625 227.69921875 C-86.08292021 222.46275747 -83.68095771 217.51493963 -82.1171875 210.4453125 C-81.92924118 209.65530853 -81.74129486 208.86530457 -81.5476532 208.05136108 C-80.95573523 205.54786149 -80.38579777 203.03995759 -79.81640625 200.53125 C-79.42396234 198.85643363 -79.03009359 197.18195046 -78.63476562 195.5078125 C-77.73869312 191.69511505 -76.85234037 187.88056394 -75.99382019 184.05921936 C-75.66401607 182.60986652 -75.32272528 181.16308503 -74.97065735 179.71897888 C-73.84524324 174.98832944 -73.20697774 170.37431604 -72.77488708 165.53434753 C-71.06337149 147.6160905 -65.96440536 130.52613448 -61.17401505 113.24435043 C-59.93282836 108.75370006 -58.70959922 104.25816521 -57.48510742 99.76293945 C-55.98184685 94.24819083 -54.47698167 88.73390594 -52.96388245 83.22184753 C-49.8572883 71.90177466 -46.79768317 60.57039931 -43.79117393 49.22333336 C-43.16054907 46.84346542 -42.52880506 44.46389747 -41.89668274 42.08442688 C-39.52618064 33.16192386 -39.52618064 33.16192386 -37.16793823 24.23617554 C-36.1073832 20.21116327 -35.03461455 16.18950027 -33.9609375 12.16796875 C-33.49831009 10.39885132 -33.49831009 10.39885132 -33.02633667 8.59399414 C-32.73638824 7.51456543 -32.44643982 6.43513672 -32.14770508 5.32299805 C-31.77758049 3.92527412 -31.77758049 3.92527412 -31.39997864 2.49931335 C-26.40459921 -11.95636626 -11.38317091 -3.08296501 0 0 Z " fill="#040403" transform="translate(299.50390625,111.09375)"/>
<path d="M0 0 C24.49467935 -1.69841052 40.94697099 0.27705649 61.36572266 14.18066406 C66.18037712 17.39609945 71.22605846 20.14451546 76.296875 22.93017578 C78.15782847 23.98207563 80.01720967 25.03676194 81.875 26.09423828 C87.91923678 29.52127414 93.98221304 32.91445296 100.046875 36.30517578 C109.00628659 41.31564586 117.9496954 46.35346667 126.8828125 51.41064453 C133.92633847 55.39554347 140.98378217 59.35507572 148.046875 63.30517578 C157.0062171 68.31577081 165.94969474 73.35346629 174.8828125 78.41064453 C181.92633954 82.39554408 188.98389173 86.35487847 196.046875 90.30517578 C213.6393781 100.14977016 231.21823879 110.00103371 248.546875 120.30517578 C246.95283853 131.23263082 243.86269799 141.82055438 241 152.46533203 C240.43447069 154.58101062 239.86932493 156.69679178 239.30453491 158.81266785 C237.78810251 164.48924566 236.26626636 170.1643615 234.74329376 175.83918762 C233.15843027 181.74795897 231.57827731 187.65798987 229.99755859 193.56787109 C227.42735132 203.17459917 224.85402045 212.78048544 222.27832031 222.38574219 C219.36914944 233.23460459 216.46497782 244.08479465 213.5637207 254.93577576 C211.33332162 263.27762456 209.10016757 271.61873539 206.86668396 279.95975876 C206.17905641 282.52835004 205.49188561 285.09706315 204.80480957 287.665802 C200.18901396 304.91877728 195.55196298 322.15992702 190.546875 339.30517578 C181.51494045 337.87787048 172.75738373 335.60677969 163.9453125 333.21142578 C162.38815566 332.79179967 160.83088588 332.37259242 159.27351379 331.95376587 C155.91824606 331.05054234 152.56373854 330.14456666 149.20980835 329.23638916 C143.83935069 327.78220518 138.46731086 326.33393036 133.0949707 324.88671875 C127.35540675 323.34035886 121.61592821 321.7936874 115.87696838 320.24508667 C101.11128627 316.26126217 86.34009483 312.29825991 71.56640625 308.34423828 C69.3870831 307.76085085 67.20776181 307.17745649 65.02844238 306.59405518 C56.52462992 304.31773993 48.02073133 302.04174711 39.51654053 299.7668457 C34.52113657 298.43046836 29.52604041 297.0929456 24.53113365 295.75471115 C22.71435847 295.26816558 20.89748275 294.78199518 19.08048439 294.29628372 C3.21155244 290.05405984 -12.6225181 285.68780483 -28.453125 281.30517578 C-28.60766236 229.54273082 -28.22624757 177.79426543 -27.61890256 126.03557289 C-27.52522421 118.02048841 -27.43711456 110.00534972 -27.35029227 101.99018842 C-27.25412342 93.12462958 -27.15407984 84.25911827 -27.05236626 75.39362144 C-27.01008563 71.70266644 -26.96908184 68.01170095 -26.9292469 64.32071877 C-26.70093842 43.30162414 -26.31254331 22.30936468 -25.453125 1.30517578 C-20.85828672 1.01326767 -16.27382635 0.74254434 -11.671875 0.59033203 C-7.77486021 0.45620379 -3.88920273 0.27574099 0 0 Z " fill="#A53AFE" transform="translate(530.453125,542.69482421875)"/>
<path d="M0 0 C-0.01030746 1.10780319 -0.02061493 2.21560638 -0.03123474 3.35697937 C-0.1569928 16.89350821 -0.28070715 30.43005533 -0.40365601 43.96660995 C-0.43744456 47.68140519 -0.47139995 51.39619887 -0.50537109 55.11099243 C-0.77343603 84.49045761 -1.02085246 113.86991947 -1.22288704 143.24991417 C-1.25377796 147.74040886 -1.28522991 152.23089951 -1.3167572 156.72138977 C-1.33757891 159.69357283 -1.35837063 162.6657561 -1.37915039 165.63793945 C-1.38427151 166.36976208 -1.38939263 167.10158471 -1.39466894 167.85558379 C-1.45030031 175.81934711 -1.50436627 183.78311565 -1.5541687 191.74691772 C-1.74272658 221.8405395 -1.95575917 251.92164602 -3 282 C-4.06903564 282.26225121 -4.06903564 282.26225121 -5.15966797 282.52980042 C-16.93483806 285.42040458 -28.65517678 288.35543901 -40.24609375 291.921875 C-42.96625894 292.70310871 -45.6154282 293.37614676 -48.375 293.96875 C-53.17604333 295.0037788 -57.85437033 296.35896169 -62.5625 297.75 C-70.41746733 300.03714843 -78.3041923 302.11535094 -86.25 304.0625 C-93.72789338 305.89633193 -101.12446012 307.86319165 -108.48925781 310.10571289 C-115.64015296 312.25252037 -122.88723104 313.99101434 -130.13671875 315.76953125 C-135.97136999 317.21155532 -141.75072469 318.74923836 -147.5 320.5 C-155.29919324 322.87499991 -163.18675437 324.82025695 -171.10375977 326.76074219 C-177.97091752 328.45682429 -184.75450868 330.33666972 -191.52539062 332.38012695 C-196.31795583 333.82110264 -201.0967529 335.01552739 -206 336 C-207.68817053 336.37196978 -209.37567752 336.74696405 -211.0625 337.125 C-212.375 337.41666667 -213.6875 337.70833333 -215 338 C-215.62849414 335.85518747 -216.25260258 333.70908965 -216.875 331.5625 C-217.39707031 329.77005859 -217.39707031 329.77005859 -217.9296875 327.94140625 C-218.70483598 325.18536162 -219.36036266 322.42410776 -219.9609375 319.625 C-221.00274286 314.82565476 -222.35901175 310.14546022 -223.75 305.4375 C-226.03714843 297.58253267 -228.11535094 289.6958077 -230.0625 281.75 C-231.89633193 274.27210662 -233.86319165 266.87553988 -236.10571289 259.51074219 C-238.25252037 252.35984704 -239.99101434 245.11276896 -241.76953125 237.86328125 C-243.21155532 232.02863001 -244.74923836 226.24927531 -246.5 220.5 C-248.87588033 212.69791557 -250.82163232 204.80736306 -252.76293945 196.88745117 C-254.43685304 190.11023473 -256.2911616 183.41781485 -258.31640625 176.73828125 C-259.8436573 171.66066737 -261.04613611 166.55786015 -262.1875 161.3828125 C-263.15931177 157.33671156 -264.31194745 153.36202382 -265.5 149.375 C-265.71479004 148.65151367 -265.92958008 147.92802734 -266.15087891 147.18261719 C-267.09803628 144.00126994 -268.05402082 140.82309212 -269.0234375 137.6484375 C-269.30445313 136.69195313 -269.58546875 135.73546875 -269.875 134.75 C-270.11992187 133.94046875 -270.36484375 133.1309375 -270.6171875 132.296875 C-271.08757329 129.47456028 -270.96255802 127.70222711 -270 125 C-268.03125 123.375 -268.03125 123.375 -265.5 122 C-264.60152344 121.50242187 -263.70304688 121.00484375 -262.77734375 120.4921875 C-261.86082031 119.99976563 -260.94429687 119.50734375 -260 119 C-259.15566406 118.50757813 -258.31132812 118.01515625 -257.44140625 117.5078125 C-251.40677966 114 -251.40677966 114 -248 114 C-248 113.34 -248 112.68 -248 112 C-245.7140617 110.4670058 -243.44192427 109.06139469 -241.0625 107.6875 C-240.37897461 107.28668213 -239.69544922 106.88586426 -238.99121094 106.47290039 C-236.9982661 105.30799351 -234.99940865 104.15376391 -233 103 C-232.04480469 102.43796875 -231.08960938 101.8759375 -230.10546875 101.296875 C-224.39278017 98 -224.39278017 98 -221 98 C-221 97.34 -221 96.68 -221 96 C-219.12890625 94.66796875 -219.12890625 94.66796875 -216.5625 93.1875 C-215.19738281 92.39472656 -215.19738281 92.39472656 -213.8046875 91.5859375 C-210.53767098 89.73857161 -207.26577433 87.9020327 -203.97265625 86.1015625 C-202.32655036 85.18235089 -200.71988153 84.19296879 -199.125 83.1875 C-197 82 -197 82 -194 82 C-194 81.34 -194 80.68 -194 80 C-192.12890625 78.66796875 -192.12890625 78.66796875 -189.5625 77.1875 C-188.19738281 76.39472656 -188.19738281 76.39472656 -186.8046875 75.5859375 C-183.53767098 73.73857161 -180.26577433 71.9020327 -176.97265625 70.1015625 C-175.32655036 69.18235089 -173.71988153 68.19296879 -172.125 67.1875 C-170 66 -170 66 -167 66 C-167 65.34 -167 64.68 -167 64 C-165.12890625 62.66796875 -165.12890625 62.66796875 -162.5625 61.1875 C-161.655 60.66285156 -160.7475 60.13820313 -159.8125 59.59765625 C-158.884375 59.07042969 -157.95625 58.54320312 -157 58 C-156.154375 57.50371094 -155.30875 57.00742187 -154.4375 56.49609375 C-148.38158832 53 -148.38158832 53 -145 53 C-145 52.34 -145 51.68 -145 51 C-142.7140617 49.4670058 -140.44192427 48.06139469 -138.0625 46.6875 C-137.37897461 46.28668213 -136.69544922 45.88586426 -135.99121094 45.47290039 C-133.9982661 44.30799351 -131.99940865 43.15376391 -130 42 C-129.04480469 41.43796875 -128.08960938 40.8759375 -127.10546875 40.296875 C-121.39278017 37 -121.39278017 37 -118 37 C-118 36.34 -118 35.68 -118 35 C-116.12890625 33.66796875 -116.12890625 33.66796875 -113.5625 32.1875 C-112.65242187 31.65898438 -111.74234375 31.13046875 -110.8046875 30.5859375 C-107.53767098 28.73857161 -104.26577433 26.9020327 -100.97265625 25.1015625 C-99.32655036 24.18235089 -97.71988153 23.19296879 -96.125 22.1875 C-94 21 -94 21 -91 21 C-91 20.34 -91 19.68 -91 19 C-89.12890625 17.66796875 -89.12890625 17.66796875 -86.5625 16.1875 C-85.65242187 15.65898438 -84.74234375 15.13046875 -83.8046875 14.5859375 C-80.53767098 12.73857161 -77.26577433 10.9020327 -73.97265625 9.1015625 C-72.32655036 8.18235089 -70.71988153 7.19296879 -69.125 6.1875 C-67 5 -67 5 -64 5 C-64 4.34 -64 3.68 -64 3 C-61.10007025 1.35554497 -58.97787729 0.74058998 -55.65307617 0.68115234 C-54.37475166 0.65134781 -54.37475166 0.65134781 -53.07060242 0.62094116 C-51.69567375 0.60361435 -51.69567375 0.60361435 -50.29296875 0.5859375 C-49.33538162 0.56657135 -48.37779449 0.5472052 -47.39118958 0.5272522 C-44.32338386 0.46755557 -41.25553461 0.42126268 -38.1875 0.375 C-36.16469741 0.33678197 -34.14191043 0.29772805 -32.11914062 0.2578125 C-21.41100968 0.05735486 -10.70981131 -0.01934803 0 0 Z " fill="#FE0000" transform="translate(494,544)"/>
<path d="M0 0 C3.30037971 2.12958417 5.93748217 4.87345292 8.68741989 7.6501255 C9.33195531 8.29295207 9.97649073 8.93577864 10.64055753 9.59808481 C12.80258375 11.75681251 14.95737657 13.92261887 17.11228561 16.08844948 C18.65922444 17.63595234 20.20660359 19.18301516 21.75439072 20.72966957 C25.95892353 24.93362757 30.1572529 29.14373217 34.35451794 33.35494471 C38.74052115 37.75343378 43.13217275 42.14627569 47.52323532 46.53971291 C54.89387097 53.91586241 62.2610037 61.29549533 69.62546921 68.67780495 C77.21068979 76.28138538 84.79800947 83.88286106 92.38816452 91.48151588 C92.85607193 91.94994874 93.32397934 92.4183816 93.80606577 92.9010094 C96.15344799 95.25100171 98.50087383 97.60095044 100.84831572 99.95088315 C120.32055907 119.44404272 139.7856548 138.94432663 159.24607468 158.44928932 C157.59484564 162.67764367 154.46272339 165.52598304 151.31339645 168.66958046 C150.39225866 169.60068997 150.39225866 169.60068997 149.45251203 170.55060977 C147.39075735 172.63207047 145.32188729 174.70630778 143.25291061 176.78058815 C141.774304 178.27008847 140.2960877 179.75997632 138.81823349 181.25022316 C134.80057542 185.29839817 130.77617702 189.33980432 126.74958324 193.37908959 C124.23574702 195.9010062 121.7229648 198.42396858 119.21046829 200.94721985 C111.35367951 208.83672356 103.49249606 216.72181264 95.62543178 224.60107023 C86.53459087 233.70618423 77.4587746 242.82593622 68.39550757 251.95849591 C61.39370583 259.01198419 54.37860478 266.05206284 47.35324121 273.08208293 C43.15487128 277.28385885 38.96248545 281.49122772 34.78390884 285.71269608 C30.8560456 289.68016965 26.91201377 293.63080797 22.95475197 297.56895256 C21.50304582 299.01938759 20.05734528 300.47586143 18.61807823 301.93864059 C16.65666663 303.93025934 14.67504461 305.89925326 12.68668747 307.8639164 C11.83364961 308.74549273 11.83364961 308.74549273 10.96337867 309.64487869 C9.33699799 311.22528744 9.33699799 311.22528744 6.24607468 313.44928932 C1.8593108 313.34456162 -1.16154471 311.94584345 -4.92970657 309.78132057 C-5.90955521 309.22500954 -6.88940384 308.6686985 -7.89894485 308.09552956 C-8.94421341 307.49039528 -9.98948196 306.885261 -11.06642532 306.26178932 C-13.32018511 304.97767806 -15.57409558 303.69383124 -17.82814407 302.41022682 C-18.99017884 301.7446906 -20.1521254 301.07900036 -21.31398392 300.41315651 C-26.6485016 297.36767317 -32.01463731 294.37940862 -37.37892532 291.38678932 C-46.29678732 286.39709106 -55.19757417 281.37781588 -64.0903511 276.34357643 C-71.13368496 272.35870686 -78.19099116 268.39930065 -85.25392532 264.44928932 C-94.21326742 259.4386943 -103.15674506 254.40099881 -112.08986282 249.34382057 C-119.1333888 245.35892163 -126.19083249 241.39938939 -133.25392532 237.44928932 C-142.19754547 232.44748694 -151.12844777 227.4240413 -160.04152298 222.36799049 C-165.25113846 219.41605585 -170.47460435 216.49098453 -175.71486282 213.59382057 C-176.86792923 212.95444557 -178.02099564 212.31507057 -179.20900345 211.65632057 C-181.45256474 210.41345681 -183.69858483 209.17501907 -185.9472847 207.94147682 C-187.45645462 207.10423073 -187.45645462 207.10423073 -188.99611282 206.25007057 C-189.89185013 205.75676247 -190.78758743 205.26345436 -191.71046829 204.75519753 C-193.75392532 203.44928932 -193.75392532 203.44928932 -194.75392532 201.44928932 C-162.41516148 200.71471332 -130.10100041 200.30741619 -97.75392532 200.44928932 C-97.75392532 194.50928932 -97.75392532 188.56928932 -97.75392532 182.44928932 C-100.422043 182.6870005 -100.422043 182.6870005 -103.14406204 182.92951393 C-111.5995758 183.57676289 -120.03620866 183.67762951 -128.51173782 183.76569557 C-130.22535443 183.78637987 -131.93896727 183.80737818 -133.65257645 183.82866859 C-137.24134765 183.87237654 -140.83013562 183.9132868 -144.41896439 183.95197487 C-148.90385004 184.00039847 -153.38864847 184.05426616 -157.87345028 184.10985565 C-166.61916318 184.21824103 -175.36470161 184.30303454 -184.11083889 184.36849213 C-189.16608738 184.41120503 -194.21825738 184.49699331 -199.27214813 184.6210928 C-202.45267149 184.69541432 -205.63333524 184.7466866 -208.81436157 184.79405975 C-210.28238535 184.82145157 -211.75026409 184.85904985 -213.21772003 184.90821457 C-227.04544923 185.36445559 -236.72172506 181.01223555 -248.01515579 173.2935276 C-251.75409496 170.77579303 -255.62919851 168.52006512 -259.51784134 166.24323463 C-263.29289317 164.02677697 -267.02559675 161.74321229 -270.75392532 159.44928932 C-267.07232778 156.32823577 -263.23180903 153.92360343 -259.00392532 151.63678932 C-251.92739937 147.73135204 -244.98558715 143.62647543 -238.06642532 139.44928932 C-227.55756733 133.11113686 -217.00098684 126.86147376 -206.39577103 120.68610573 C-200.63093263 117.32652056 -194.89067113 113.9391857 -189.20314407 110.44928932 C-188.19404984 109.83521217 -187.1849556 109.22113503 -186.14528275 108.58844948 C-184.26952856 107.44395908 -182.40069545 106.28801727 -180.54030228 105.11872292 C-179.71361038 104.6167942 -178.88691849 104.11486549 -178.03517532 103.59772682 C-177.32425735 103.15606178 -176.61333939 102.71439674 -175.88087845 102.25934792 C-171.20479672 100.47844351 -166.6594578 103.19009671 -162.30470657 105.01178932 C-161.67367523 105.27395744 -161.04264389 105.53612556 -160.39249039 105.80623817 C-159.01427236 106.379212 -157.63687784 106.95416971 -156.26021194 107.53086281 C-152.3966201 109.14835156 -148.52588825 110.7486309 -144.65626907 112.35163307 C-143.83817764 112.69097374 -143.02008621 113.03031441 -142.17720413 113.37993813 C-133.51337243 116.97078607 -124.82393724 120.49724681 -116.12892532 124.01178932 C-115.31348251 124.34162819 -114.4980397 124.67146706 -113.65788651 125.01130104 C-101.3150034 130.00317518 -88.96455861 134.976278 -76.61365509 139.94826508 C-74.14007502 140.94403964 -71.6665257 141.93989057 -69.19298172 142.93575478 C-61.73595806 145.93789404 -54.27875037 148.93957146 -46.82057381 151.93884563 C-43.69572484 153.19564964 -40.57113961 154.45310836 -37.4466095 155.7107048 C-35.9714843 156.30424438 -34.49623779 156.89748253 -33.02086639 157.49040985 C-30.98822096 158.30732581 -28.95598708 159.12525737 -26.9238472 159.94342995 C-25.77589676 160.40511574 -24.62794632 160.86680153 -23.4452095 161.3424778 C-21.8598295 161.99447764 -20.28716596 162.682669 -18.75392532 163.44928932 C-18.63017532 162.72741432 -18.50642532 162.00553932 -18.37892532 161.26178932 C-17.75392532 158.44928932 -17.75392532 158.44928932 -16.69142532 155.82428932 C-15.57034206 153.40976792 -15.57034206 153.40976792 -15.75392532 150.44928932 C-16.96295013 149.96450615 -18.17197495 149.47972298 -19.41763687 148.9802494 C-30.96117769 144.35125702 -42.50366478 139.71964555 -54.04519367 135.085639 C-59.97502428 132.70486192 -65.905189 130.3249254 -71.83620071 127.94709206 C-117.46684141 109.65170076 -117.46684141 109.65170076 -136.06251907 101.86725807 C-137.2707785 101.36261528 -138.47903793 100.85797249 -139.72391129 100.33803749 C-145.51236244 97.89709814 -151.17553825 95.33934825 -156.75392532 92.44928932 C-154.46065647 90.08475287 -152.27587639 88.4320983 -149.42189407 86.76960182 C-148.55282425 86.2600193 -147.68375443 85.75043678 -146.78834915 85.22541237 C-145.84886429 84.68054176 -144.90937943 84.13567116 -143.94142532 83.57428932 C-141.92833975 82.39601451 -139.91532068 81.21762606 -137.90236282 80.03913307 C-136.87465775 79.43955788 -135.84695267 78.83998268 -134.78810501 78.22223854 C-130.20430821 75.54380819 -125.63540533 72.84039004 -121.06642532 70.13678932 C-119.23310511 69.05343379 -117.39977147 67.97010098 -115.56642532 66.88678932 C-105.77599611 61.09848344 -95.99316095 55.29735063 -86.20949173 49.49762917 C-80.55802449 46.14752747 -74.90592802 42.79848752 -69.25392532 39.44928932 C-67.00392268 38.11596045 -64.75392268 36.78262712 -62.50392532 35.44928932 C-58.00392532 32.78262266 -53.50392532 30.11595599 -49.00392532 27.44928932 C-47.8883223 26.78783913 -46.77271927 26.12638893 -45.62331009 25.44489479 C-43.39327618 24.1240994 -41.16200989 22.80538237 -38.92946243 21.4888401 C-33.62891471 18.35964315 -28.34517698 15.21063844 -23.10161209 11.98707008 C-20.61220717 10.45839652 -18.11576677 8.94143341 -15.61867142 7.42536354 C-14.42514025 6.69618099 -13.2351215 5.96121531 -12.0488472 5.22028542 C-10.40863768 4.19632072 -8.75537611 3.19335235 -7.10158157 2.19147682 C-5.69404617 1.32305153 -5.69404617 1.32305153 -4.25807571 0.43708229 C-1.75392532 -0.55071068 -1.75392532 -0.55071068 0 0 Z " fill="#56DFFD" transform="translate(781.7539253234863,340.5507106781006)"/>
<path d="M0 0 C3.54823215 1.39025746 6.82695785 2.92774571 10.1484375 4.80078125 C11.14166016 5.35894531 12.13488281 5.91710937 13.15820312 6.4921875 C14.21974609 7.09289062 15.28128906 7.69359375 16.375 8.3125 C17.48552734 8.93769531 18.59605469 9.56289063 19.74023438 10.20703125 C23.16208957 12.13461805 26.58140134 14.06664454 30 16 C31.49321777 16.84377197 31.49321777 16.84377197 33.01660156 17.70458984 C36.78887582 19.83621398 40.56083496 21.96838951 44.33154297 24.1027832 C51.37635198 28.08889971 58.43540991 32.04906258 65.5 36 C74.45505549 41.0081977 83.39508759 46.04202808 92.32275391 51.09887695 C98.41898923 54.54928958 104.52922969 57.97367306 110.64672852 61.38623047 C121.51670992 67.45132332 132.3119744 73.61952805 143 80 C140.46412972 81.69058019 138.86664527 82.48663699 136.0480957 83.36621094 C135.2351152 83.62251282 134.4221347 83.8788147 133.58451843 84.1428833 C132.68651016 84.42057556 131.78850189 84.69826782 130.86328125 84.984375 C129.42653801 85.43499298 129.42653801 85.43499298 127.96076965 85.89471436 C124.64191706 86.93435375 121.32091591 87.96697171 118 89 C115.44695941 89.79837366 112.8940544 90.59716975 110.34130859 91.39648438 C100.50122688 94.47607412 90.65775062 97.54477235 80.81420898 100.61328125 C77.2548763 101.7228889 73.69581107 102.83335107 70.13689613 103.94429779 C68.16253352 104.56032018 66.18786316 105.17534858 64.21318054 105.79034424 C59.05736695 107.39975596 53.91275969 109.01722277 48.8059082 110.77636719 C45 112 45 112 42 112 C43.65 116.95 45.3 121.9 47 127 C51.68886848 125.53475021 51.68886848 125.53475021 56.37768555 124.06933594 C59.90386173 122.96722407 63.43018624 121.86559483 66.95703125 120.765625 C80.993562 116.38659915 95.01346477 111.95542335 109.0234375 107.4921875 C109.95345078 107.19591965 110.88346405 106.89965179 111.84165955 106.59440613 C115.64929373 105.38122844 119.45685034 104.16780859 123.26416016 102.95361328 C133.0378866 99.83708854 142.81033382 96.72138483 152.62353516 93.73095703 C154.42308004 93.17745001 156.21387048 92.59537651 158 92 C165.35299055 90.88737643 170.32129976 94.53593009 176.5 98.1875 C178.15225586 99.13882813 178.15225586 99.13882813 179.83789062 100.109375 C182.12175328 101.4245243 184.40234007 102.74537809 186.6796875 104.07177734 C191.59461957 106.92605187 196.5474948 109.7116256 201.5 112.5 C203.39596189 113.57268947 205.29179418 114.64560805 207.1875 115.71875 C213.28186178 119.16338927 219.39023488 122.5827777 225.5 126 C261.75494134 146.2909357 261.75494134 146.2909357 276 155 C273.26446104 157.1173227 270.48484774 158.9683969 267.5 160.71484375 C266.61054688 161.23755859 265.72109375 161.76027344 264.8046875 162.29882812 C263.87914062 162.83958984 262.95359375 163.38035156 262 163.9375 C260.20781608 164.98739879 258.41617566 166.03822574 256.625 167.08984375 C255.65953247 167.64137115 254.69406494 168.19289856 253.69934082 168.76113892 C250.96409432 170.36644849 248.38687772 172.12094228 245.80310059 173.959198 C232.63020141 183.02862829 222.27378882 184.69237471 206.53125 184.35546875 C204.30214466 184.35267354 202.07302667 184.35536258 199.84393311 184.36312866 C193.94397538 184.36991807 188.04683728 184.30585222 182.1474762 184.22783279 C176.00823381 184.15994673 169.86905173 184.16105251 163.72949219 184.15795898 C155.25523866 184.14898991 146.78147653 184.12291107 138.30738449 184.06942463 C123.09172752 183.97481475 107.89882693 184.13141968 92.68737793 184.48382568 C61.12825327 185.20614735 29.56500745 185.10175191 -2 185 C-2 190.94 -2 196.88 -2 203 C-0.45828125 202.93941406 1.0834375 202.87882813 2.671875 202.81640625 C67.42026274 200.42259916 132.22032387 200.88206999 197 201 C194.05227013 204.03601333 191.31912917 206.16509422 187.625 208.25 C186.56804932 208.85191162 185.51109863 209.45382324 184.42211914 210.07397461 C183.29281982 210.70956299 182.16352051 211.34515137 181 212 C178.62187187 213.35227378 176.24653478 214.70941919 173.87109375 216.06640625 C173.27904648 216.40386368 172.68699921 216.74132111 172.07701111 217.08900452 C167.02991311 219.96989321 162.03567084 222.93126368 157.0625 225.9375 C149.37510911 230.57745972 141.66424557 235.17583709 133.9375 239.75 C133.08620514 240.2540033 133.08620514 240.2540033 132.2177124 240.76818848 C129.900186 242.14023229 127.58258101 243.51214313 125.26480103 244.88375854 C121.19114275 247.29449099 117.11863377 249.70715453 113.046875 252.12109375 C101.81448716 258.78004155 90.57875651 265.4332358 79.33544922 272.07373047 C69.30678617 277.99802662 59.28736029 283.93789682 49.26786804 289.87768555 C45.05681721 292.3739558 40.8449457 294.86883788 36.6328125 297.36328125 C34.81829601 298.4379977 33.00379505 299.51274034 31.18930054 300.5874939 C29.49520688 301.59082303 27.80095102 302.59387826 26.10668945 303.59692383 C25.05956787 304.21720459 24.01244629 304.83748535 22.93359375 305.4765625 C21.93440918 306.0634082 20.93522461 306.65025391 19.90576172 307.25488281 C17.9634492 308.42138003 16.04266509 309.62446987 14.14501953 310.86230469 C12.82219971 311.71550293 12.82219971 311.71550293 11.47265625 312.5859375 C10.7031665 313.09946777 9.93367676 313.61299805 9.14086914 314.14208984 C7 315 7 315 5.26877975 314.44117165 C1.9461111 312.33054991 -0.68629137 309.58100226 -3.44134521 306.79916382 C-4.08588063 306.15633725 -4.73041605 305.51351068 -5.39448285 304.85120451 C-7.55650907 302.69247682 -9.71130189 300.52667045 -11.86621094 298.36083984 C-13.41314977 296.81333698 -14.96052891 295.26627416 -16.50831604 293.71961975 C-20.71284885 289.51566176 -24.91117822 285.30555716 -29.10844326 281.09434462 C-33.49444647 276.69585554 -37.88609808 272.30301363 -42.27716064 267.90957642 C-49.64779629 260.53342691 -57.01492902 253.15379399 -64.37939453 245.77148438 C-71.96461512 238.16790394 -79.55193479 230.56642827 -87.14208984 222.96777344 C-87.60999726 222.49934058 -88.07790467 222.03090772 -88.55999109 221.54827993 C-90.90737331 219.19828762 -93.25479915 216.84833888 -95.60224104 214.49840617 C-115.0744844 195.0052466 -134.53958012 175.50496269 -154 156 C-152.34828196 151.74238754 -149.16802712 148.89589215 -145.98898315 145.74847412 C-145.36657435 145.12435646 -144.74416554 144.5002388 -144.10289586 143.85720849 C-142.01326453 141.76427936 -139.91655845 139.67858492 -137.81982422 137.59277344 C-136.3215818 136.09509507 -134.82377946 134.59697636 -133.3263855 133.09844971 C-129.25672032 129.02820978 -125.18091 124.96417371 -121.10399008 120.9012022 C-116.84563664 116.65533563 -112.5929313 112.40381967 -108.33963013 108.15289307 C-100.28302218 100.10250589 -92.2213287 92.05723134 -84.15780747 84.01376939 C-74.97866661 74.85696891 -65.80519162 65.69450129 -56.63219428 56.53154707 C-37.76110544 37.68137377 -18.88289259 18.83834853 0 0 Z " fill="#FD8D01" transform="translate(213,345)"/>
<path d="M0 0 C0.16604736 0.64960693 0.33209473 1.29921387 0.50317383 1.96850586 C1.26961522 4.95903627 2.04102548 7.94826422 2.8125 10.9375 C3.07353516 11.95908203 3.33457031 12.98066406 3.60351562 14.03320312 C4.99621081 19.41485243 6.52622163 24.68536635 8.33227539 29.94165039 C9.37745171 33.16354493 10.08553142 36.44378673 10.8125 39.75 C12.30356056 46.3403842 14.04505085 52.82650068 15.9375 59.3125 C17.93921317 66.17730551 19.80586991 73.05283304 21.5 80 C23.15966569 86.7994262 24.97740117 93.53110453 26.9375 100.25 C29.42958115 108.79975532 31.6269616 117.40022747 33.74755859 126.04882812 C35.59564299 133.52796418 37.65345015 140.92708385 39.8137207 148.32128906 C41.81722098 155.22626859 43.5960942 162.17358431 45.26391602 169.16699219 C46.19612355 173.02255382 47.2276314 176.78204891 48.515625 180.53515625 C49.99960446 184.86496224 51.0750702 189.22171665 52.0625 193.6875 C52.9391793 197.62023406 53.81270294 201.45377129 55.12109375 205.26953125 C56 208 56 208 56 212 C53.515625 213.88671875 53.515625 213.88671875 50.25 215.6875 C49.18265625 216.28949219 48.1153125 216.89148438 47.015625 217.51171875 C44.59866405 218.70454533 42.6271391 219.52175866 40 220 C40 220.66 40 221.32 40 222 C38.6875 222.72916667 37.375 223.45833333 36.0625 224.1875 C35.24265625 224.64382813 34.4228125 225.10015625 33.578125 225.5703125 C31.92483837 226.48713509 30.26881306 227.39904647 28.609375 228.3046875 C25.17631032 230.18469911 21.83158817 232.06392953 18.625 234.3125 C16 236 16 236 13 236 C13 236.66 13 237.32 13 238 C11.82244141 238.56267578 11.82244141 238.56267578 10.62109375 239.13671875 C4.66337638 242.03882156 -0.71681447 245.01065582 -6 249 C-10.55172414 252 -10.55172414 252 -14 252 C-14 252.66 -14 253.32 -14 254 C-15.17755859 254.56267578 -15.17755859 254.56267578 -16.37890625 255.13671875 C-22.34441509 258.04261692 -27.68833177 261.04228642 -33 265 C-34.67861472 265.98183125 -36.35810859 266.96280409 -38.05859375 267.90625 C-40.36040393 269.20304447 -42.61542497 270.56848391 -44.875 271.9375 C-48.19018643 273.92863332 -51.51387905 275.89975683 -54.875 277.8125 C-55.57367187 278.21082031 -56.27234375 278.60914063 -56.9921875 279.01953125 C-58.98792806 279.99410495 -60.83153434 280.54783115 -63 281 C-63 281.66 -63 282.32 -63 283 C-64.3125 283.72916667 -65.625 284.45833333 -66.9375 285.1875 C-67.75734375 285.64382813 -68.5771875 286.10015625 -69.421875 286.5703125 C-71.07516163 287.48713509 -72.73118694 288.39904647 -74.390625 289.3046875 C-77.82368968 291.18469911 -81.16841183 293.06392953 -84.375 295.3125 C-87 297 -87 297 -90 297 C-90 297.66 -90 298.32 -90 299 C-91.16015625 299.56267578 -91.16015625 299.56267578 -92.34375 300.13671875 C-93.3853125 300.64847656 -94.426875 301.16023438 -95.5 301.6875 C-96.5209375 302.18636719 -97.541875 302.68523437 -98.59375 303.19921875 C-101.83920939 304.78276382 -101.83920939 304.78276382 -103.82446289 306.44360352 C-106.63696738 308.59844531 -108.6490473 310.12758195 -112.28271484 309.78442383 C-115.10418617 308.89044525 -117.73700134 307.7749236 -120.4375 306.5625 C-121.50718018 306.11745117 -122.57686035 305.67240234 -123.67895508 305.21386719 C-126.23330482 304.15000008 -128.77953719 303.0736827 -131.32226562 301.98291016 C-136.87966952 299.61165991 -142.47916954 297.34519814 -148.078125 295.07421875 C-156.63529395 291.60133456 -165.1866038 288.11486542 -173.73046875 284.609375 C-182.46860422 281.02599861 -191.22136334 277.48304313 -200 274 C-200 273.34 -200 272.68 -200 272 C-198.56445975 271.49440092 -197.1264798 270.9957251 -195.6875 270.5 C-194.88699219 270.2215625 -194.08648438 269.943125 -193.26171875 269.65625 C-191 269 -191 269 -188 269 C-188.433125 267.62714844 -188.433125 267.62714844 -188.875 266.2265625 C-189.24625 265.03804688 -189.6175 263.84953125 -190 262.625 C-190.556875 260.84996094 -190.556875 260.84996094 -191.125 259.0390625 C-192 256 -192 256 -192 254 C-192.68626465 254.21205078 -193.3725293 254.42410156 -194.07958984 254.64257812 C-197.1771769 255.59794305 -200.27606317 256.54902294 -203.375 257.5 C-204.45523438 257.83386719 -205.53546875 258.16773438 -206.6484375 258.51171875 C-207.6796875 258.82753906 -208.7109375 259.14335937 -209.7734375 259.46875 C-211.20308838 259.90864258 -211.20308838 259.90864258 -212.66162109 260.35742188 C-215 261 -215 261 -217 261 C-218.26798646 232.61210355 -218.11961096 204.22065121 -218.06866455 175.81091309 C-218.05827314 169.3869663 -218.0538337 162.96301534 -218.04882812 156.5390625 C-218.03823349 144.02603102 -218.02125933 131.5130176 -218 119 C-207.1016188 119.51523267 -196.21574817 120.05372144 -185.33984375 120.9375 C-184.25901016 121.02249756 -183.17817657 121.10749512 -182.06459045 121.19506836 C-178.68867421 121.46069144 -175.3130605 121.72989665 -171.9375 122 C-156.96453346 123.19619633 -142.00594732 124.31344601 -127 125 C-127 121.7 -127 118.4 -127 115 C-127.84433594 115.02827881 -128.68867187 115.05655762 -129.55859375 115.08569336 C-144.68220118 115.34555897 -159.71390372 113.95217652 -174.77423096 112.74047852 C-177.75476191 112.5021472 -180.7357527 112.26989558 -183.71678162 112.03788853 C-187.31136139 111.75792835 -190.90570115 111.4749473 -194.5 111.19140625 C-195.17000031 111.13870638 -195.84000061 111.08600651 -196.53030396 111.03170967 C-217.63556186 109.36443814 -217.63556186 109.36443814 -219 108 C-219.09326716 106.43452952 -219.11745582 104.86487228 -219.11352539 103.29663086 C-219.11344986 102.29566879 -219.11337433 101.29470673 -219.11329651 100.26341248 C-219.10813522 99.1748848 -219.10297394 98.08635712 -219.09765625 96.96484375 C-219.0962413 95.85645645 -219.09482635 94.74806915 -219.09336853 93.60609436 C-219.08775033 90.04986931 -219.07519475 86.49370617 -219.0625 82.9375 C-219.05748734 80.53320403 -219.05292403 78.12890708 -219.04882812 75.72460938 C-219.03777499 69.81638496 -219.02101917 63.9081969 -219 58 C-215.53962465 57.04872416 -212.07847235 56.10030449 -208.6171875 55.15234375 C-207.65063232 54.88659546 -206.68407715 54.62084717 -205.68823242 54.3470459 C-199.52124555 52.65985138 -193.33877866 51.06759234 -187.125 49.5625 C-178.577206 47.46487657 -170.15405037 45.02458313 -161.71801758 42.51806641 C-155.28064329 40.62102982 -148.84093855 38.95051225 -142.29345703 37.48583984 C-135.78836207 36.00818934 -129.40952712 34.1476816 -123.00708008 32.28100586 C-117.03418251 30.55093643 -111.04105123 28.97328165 -105 27.5 C-96.22887433 25.35752765 -87.56349144 22.91347182 -78.890625 20.40625 C-69.94520351 17.82278464 -60.94417101 15.47337696 -51.90332031 13.24804688 C-42.18748126 10.85379994 -32.56946585 8.20431895 -22.95703125 5.42578125 C-18.43962537 4.12121953 -13.91415686 2.85172328 -9.375 1.625 C-8.20710937 1.30789062 -7.03921875 0.99078125 -5.8359375 0.6640625 C-3 0 -3 0 0 0 Z " fill="#15FD00" transform="translate(721,118)"/>
<path d="M0 0 C15.58669084 3.39956631 31.03080468 7.35253524 46.34472656 11.81933594 C52.19985185 13.51663448 58.07802201 15.05434067 64 16.5 C70.79938 18.15984865 77.53112621 19.97730205 84.25 21.9375 C92.89499513 24.45855173 101.59373137 26.67525675 110.33886719 28.82006836 C116.78224631 30.41216422 123.14113815 32.17276188 129.48925781 34.10571289 C135.60978802 35.94318914 141.79454722 37.47761619 148 39 C154.88301648 40.68861052 161.71977481 42.43543893 168.5 44.5 C176.3862421 46.89999111 184.35964267 48.89654866 192.36523438 50.85742188 C193.32494141 51.09267578 194.28464844 51.32792969 195.2734375 51.5703125 C196.11310059 51.77414551 196.95276367 51.97797852 197.81787109 52.18798828 C202.56104767 53.39834621 207.27731698 54.71199554 212 56 C212 72.83 212 89.66 212 107 C200.83423196 107 190.04338486 106.89726253 178.97241211 106.00610352 C177.57555559 105.89876668 176.17865239 105.79203607 174.78170776 105.68585205 C171.05244848 105.40067024 167.32389641 105.10709307 163.595433 104.81171155 C159.66430338 104.50170134 155.7325763 104.19945013 151.80091858 103.89622498 C145.21367855 103.38712171 138.62684784 102.87298957 132.0402832 102.35522461 C122.77235705 101.62669597 113.50368819 100.90797897 104.23487079 100.19089234 C97.77767929 99.69094252 91.32067629 99.18856517 84.86370397 98.68579364 C83.3076878 98.56465662 81.75166564 98.44359657 80.19563746 98.32261395 C75.76497912 97.97807079 71.33444482 97.63200851 66.9040947 97.28352356 C64.93440335 97.1288936 62.96460193 96.97566765 60.99479675 96.82249451 C54.64725485 96.32128793 48.32336413 95.74795677 42 95 C42 98.3 42 101.6 42 105 C43.64899292 105.06912598 43.64899292 105.06912598 45.33129883 105.13964844 C60.11944646 105.79944341 74.86416012 106.92659774 89.62002945 108.0877533 C93.14713985 108.36454662 96.6745327 108.63769178 100.2019043 108.91113281 C109.89002082 109.66278586 119.57771089 110.4198751 129.26539612 111.17706299 C138.16253887 111.8724043 147.05977354 112.566514 155.95735264 113.25625229 C159.44544704 113.52677923 162.93344665 113.79841815 166.42123413 114.07287598 C186.35046508 115.64866191 186.35046508 115.64866191 206.31404114 116.67132568 C211.89735329 116.89735329 211.89735329 116.89735329 213 118 C213.12369525 119.6775027 213.17796981 121.36015757 213.20532227 123.04199219 C213.22526245 124.13753922 213.24520264 125.23308624 213.26574707 126.36183167 C213.2824646 127.57789597 213.29918213 128.79396027 213.31640625 130.046875 C213.33723267 131.32509628 213.35805908 132.60331757 213.3795166 133.92027283 C213.43607793 137.45614802 213.48522979 140.99209159 213.53242874 144.52810287 C213.56240872 146.74325565 213.59429312 148.95837362 213.62667847 151.17349243 C214.16122038 188.11414479 214.10055039 225.05650822 214 262 C205.40822493 258.79815578 196.8233423 255.59247213 188.3203125 252.16015625 C187.49779999 251.83011093 186.67528748 251.50006561 185.82785034 251.16001892 C183.25954505 250.12921629 180.69219364 249.09606769 178.125 248.0625 C174.73227635 246.69795757 171.33906482 245.33463827 167.9453125 243.97265625 C167.12363586 243.64286774 166.30195923 243.31307922 165.4553833 242.97329712 C156.99502532 239.58504847 148.5012029 236.28417597 140 233 C139.77948975 233.73822998 139.55897949 234.47645996 139.33178711 235.23706055 C137.125 242.625 137.125 242.625 136 246 C136.5861911 246.16240677 137.1723822 246.32481354 137.77633667 246.49214172 C144.61240177 248.45602176 151.12692001 250.95104954 157.6953125 253.66796875 C158.76876923 254.10764481 159.84222595 254.54732086 160.94821167 255.00032043 C164.34229262 256.39166504 167.73366905 257.78946768 171.125 259.1875 C173.43992779 260.13779956 175.75503031 261.08767358 178.0703125 262.03710938 C183.71557108 264.35315722 189.35862959 266.67449866 195 269 C195 269.66 195 270.32 195 271 C194.20537354 271.24637207 193.41074707 271.49274414 192.59204102 271.74658203 C183.20505787 274.66820442 173.83325467 277.63658669 164.46484375 280.6171875 C163.12244969 281.04413785 161.7800526 281.47107865 160.43765259 281.89801025 C154.88237468 283.6649663 149.32717449 285.43216397 143.77270508 287.20166016 C142.39340081 287.64097841 141.01408769 288.08026888 139.63476562 288.51953125 C138.95546808 288.73587345 138.27617054 288.95221565 137.57628822 289.17511368 C132.2525867 290.86935591 126.92464836 292.54995896 121.59535789 294.22652817 C117.41751605 295.54375848 113.25232572 296.89632681 109.09033203 298.26269531 C107.01998168 298.92812313 104.94951426 299.59318688 102.87890625 300.2578125 C101.95504623 300.56951385 101.03118622 300.88121521 100.07933044 301.20236206 C93.75052045 303.20426052 90.5887886 302.79494288 84.60424805 299.80175781 C83.83121338 299.35670898 83.05817871 298.91166016 82.26171875 298.453125 C81.37226563 297.94523437 80.4828125 297.43734375 79.56640625 296.9140625 C78.14134766 296.09035156 78.14134766 296.09035156 76.6875 295.25 C74.61881608 294.06713714 72.54979391 292.8848657 70.48046875 291.703125 C69.41231934 291.09146484 68.34416992 290.47980469 67.24365234 289.84960938 C62.01382195 286.86743302 56.75656942 283.93470214 51.5 281 C42.54025435 275.99013063 33.59717637 270.95170728 24.6640625 265.89453125 C17.62053653 261.90963231 10.56309283 257.95010006 3.5 254 C-5.44449317 248.99770938 -14.3826666 243.98459769 -23.28759766 238.91210938 C-27.89431309 236.29340388 -32.51456069 233.70956998 -37.18414307 231.20422363 C-38.94390279 230.25914845 -40.69951653 229.30636655 -42.45507812 228.35351562 C-44.69362888 227.14027481 -46.93953156 225.9404787 -49.19335938 224.75585938 C-50.7025293 223.93311523 -50.7025293 223.93311523 -52.2421875 223.09375 C-53.1379248 222.61615234 -54.03366211 222.13855469 -54.95654297 221.64648438 C-57 220 -57 220 -57.83276367 217.4621582 C-58.0366287 214.46072932 -57.43873921 212.52630763 -56.4375 209.6875 C-54.32641147 203.27415863 -52.66113255 196.80895221 -51.0625 190.25 C-49.35420772 183.28361297 -47.59117456 176.36169296 -45.5 169.5 C-43.43514401 162.71987585 -41.68860529 155.88299519 -40 149 C-38.14508483 141.43910214 -36.16216649 133.95834029 -33.89453125 126.51171875 C-32.05709254 120.39082418 -30.52246517 114.20578441 -29 108 C-27.31138919 101.11698235 -25.56452657 94.28023478 -23.5 87.5 C-21.46176558 80.80142324 -19.73022906 74.04986436 -18.0625 67.25 C-15.97960557 58.75819965 -13.71080365 50.35011667 -11.25683594 41.95874023 C-8.99124787 34.13830437 -7.01243306 26.25531369 -5.09179688 18.34375 C-3.58302142 12.16495529 -1.89120053 6.07288266 0 0 Z " fill="#FDEF00" transform="translate(279,118)"/>
<path d="M0 0 C0 30.03 0 60.06 0 91 C-3.76169103 89.49532359 -7.00984847 87.97575423 -10.515625 86.015625 C-11.58925293 85.4172583 -12.66288086 84.8188916 -13.76904297 84.20239258 C-14.91775879 83.55810303 -16.06647461 82.91381348 -17.25 82.25 C-18.45836102 81.57487211 -19.66685925 80.89998976 -20.87548828 80.2253418 C-23.36426256 78.83540509 -25.85199126 77.44362327 -28.33886719 76.05029297 C-31.75755634 74.13503038 -35.17926467 72.22521434 -38.6015625 70.31640625 C-49.10212548 64.45464619 -59.57843687 58.55385628 -70.00439453 52.56030273 C-74.92411742 49.73762708 -79.86516182 46.95681954 -84.828125 44.2109375 C-85.97861328 43.57285156 -87.12910156 42.93476563 -88.31445312 42.27734375 C-90.57097324 41.02785507 -92.83001905 39.78291475 -95.09179688 38.54296875 C-96.10822266 37.97964844 -97.12464844 37.41632813 -98.171875 36.8359375 C-99.5345752 36.08642822 -99.5345752 36.08642822 -100.92480469 35.32177734 C-103 34 -103 34 -104 32 C-103.02804687 31.72027344 -102.05609375 31.44054687 -101.0546875 31.15234375 C-91.00785408 28.239877 -81.03040809 25.13710301 -71.0703125 21.94140625 C-66.13382139 20.35794667 -61.19054213 18.7966537 -56.24609375 17.23828125 C-49.02156762 14.96060994 -41.80404935 12.66170267 -34.58984375 10.3515625 C-31.6858359 9.4228739 -28.78176429 8.49438487 -25.87768555 7.56591797 C-23.88683457 6.92880598 -21.89628313 6.29075739 -19.90600586 5.65185547 C-16.9889584 4.71577567 -14.07077358 3.78332203 -11.15234375 2.8515625 C-10.25982407 2.56415192 -9.36730438 2.27674133 -8.44773865 1.98062134 C-7.62830276 1.71969696 -6.80886688 1.45877258 -5.96459961 1.18994141 C-5.24469345 0.95933014 -4.52478729 0.72871887 -3.7830658 0.49111938 C-2 0 -2 0 0 0 Z " fill="#FBED02" transform="translate(494,399)"/>
<path d="M0 0 C5.57726316 1.85908772 11.00645425 3.71975188 16.42578125 5.94140625 C17.11567139 6.22156586 17.80556152 6.50172546 18.51635742 6.79037476 C20.78286971 7.71166374 23.04769571 8.63702111 25.3125 9.5625 C26.91226842 10.21383208 28.51212393 10.86495032 30.11206055 11.51586914 C35.40990018 13.67269867 40.70505909 15.83606599 46 18 C48.01041403 18.82129551 50.02083076 19.64258441 52.03125 20.46386719 C64.69016949 25.63606202 77.34612319 30.81548141 90 36 C90 36.66 90 37.32 90 38 C89.41992188 38.31453125 88.83984375 38.6290625 88.2421875 38.953125 C84.60167559 40.94759687 81.02107263 42.91981247 77.625 45.3125 C75 47 75 47 72 47 C72 47.66 72 48.32 72 49 C71.21496094 49.37511719 70.42992187 49.75023437 69.62109375 50.13671875 C62.52029082 53.56839662 62.52029082 53.56839662 55.9375 57.875 C53 60 53 60 50 60 C50 60.66 50 61.32 50 62 C48.6875 62.72916667 47.375 63.45833333 46.0625 64.1875 C45.24265625 64.64382813 44.4228125 65.10015625 43.578125 65.5703125 C41.92483837 66.48713509 40.26881306 67.39904647 38.609375 68.3046875 C35.17631032 70.18469911 31.83158817 72.06392953 28.625 74.3125 C26 76 26 76 23 76 C23 76.66 23 77.32 23 78 C22.32195313 78.36351562 21.64390625 78.72703125 20.9453125 79.1015625 C15.18881019 82.21103051 9.54718414 85.4345571 3.99609375 88.8984375 C2 90 2 90 0 90 C0 60.3 0 30.6 0 0 Z " fill="#16FC01" transform="translate(505,400)"/>
<path d="M0 0 C5.1543504 1.7181168 10.24555835 3.41979656 15.32666016 5.3125 C17.06358627 5.95832031 17.06358627 5.95832031 18.83560181 6.6171875 C20.05774384 7.07351563 21.27988586 7.52984375 22.5390625 8 C23.83219231 8.48185731 25.12535496 8.96362649 26.41854858 9.4453125 C29.11339929 10.44949857 31.80782536 11.45481351 34.50195312 12.4609375 C37.93828154 13.74412149 41.37570429 15.02434461 44.81345558 16.30371094 C47.47862444 17.29595573 50.14318329 18.28983035 52.8075676 19.28417969 C54.68545731 19.98466701 56.56386864 20.68375548 58.44229126 21.3828125 C64.02054419 23.46826105 69.55781528 25.57992444 75 28 C75 32.95 75 37.9 75 43 C66.03884748 47.71403314 56.7649672 51.43508291 47.375 55.1875 C44.07206935 56.51352241 40.77028124 57.84237268 37.46875 59.171875 C36.65687225 59.49844589 35.84499451 59.82501678 35.0085144 60.16148376 C26.93860003 63.41409974 18.91516312 66.77463469 10.91943359 70.20581055 C10.03594238 70.5800415 9.15245117 70.95427246 8.2421875 71.33984375 C7.4879248 71.66331787 6.73366211 71.98679199 5.95654297 72.32006836 C4 73 4 73 1 73 C1 67.06 1 61.12 1 55 C12.48517734 50.33684529 24.0063972 45.82064127 35.625 41.5 C36.81649658 41.05479004 38.00799316 40.60958008 39.2355957 40.15087891 C40.34636475 39.74015137 41.45713379 39.32942383 42.6015625 38.90625 C43.59494629 38.53822266 44.58833008 38.17019531 45.61181641 37.79101562 C48 37 48 37 50 37 C50 36.34 50 35.68 50 35 C48.71810791 34.73719238 47.43621582 34.47438477 46.11547852 34.20361328 C40.99439203 33.0631505 36.1030557 31.46492116 31.15234375 29.7421875 C30.25504044 29.43427277 29.35773712 29.12635803 28.4332428 28.80911255 C25.59973911 27.8356224 22.76860733 26.85543458 19.9375 25.875 C18.00340876 25.20918921 16.06916531 24.54382037 14.13476562 23.87890625 C9.42109886 22.25852016 4.7107064 20.62907499 0 19 C0 12.73 0 6.46 0 0 Z " fill="#010304" transform="translate(691,493)"/>
<path d="M0 0 C0.50692692 1.5811292 1.00526443 3.16501383 1.5 4.75 C1.91765625 6.07257813 1.91765625 6.07257813 2.34375 7.421875 C3 10 3 10 3 14 C-5.18799558 16.98211103 -13.37234443 19.90464533 -21.75 22.3125 C-40.5323652 27.71693369 -59.14505833 33.65813108 -77.6640625 39.90087891 C-84.35086609 42.14598906 -91.05190206 44.25597481 -97.83691406 46.18188477 C-104.50222397 48.09299286 -111.05716331 50.32304089 -117.60888672 52.59033203 C-123.02885892 54.44046421 -128.38773256 55.85152189 -134 57 C-134.67413211 55.08594633 -135.3390332 53.16863974 -136 51.25 C-136.37125 50.18265625 -136.7425 49.1153125 -137.125 48.015625 C-138 45 -138 45 -138 41 C-135.77151596 40.24792516 -133.542235 39.49835071 -131.3125 38.75 C-130.07113281 38.33234375 -128.82976563 37.9146875 -127.55078125 37.484375 C-124.07673204 36.33599037 -120.58571922 35.25230769 -117.08666992 34.18261719 C-110.06565177 32.02666843 -103.06273393 29.81611709 -96.0625 27.59375 C-94.76702866 27.18300109 -93.47153665 26.77231733 -92.17602539 26.36169434 C-88.11715722 25.07507122 -84.05855689 23.78760464 -80 22.5 C-75.28621578 21.00452005 -70.57231348 19.50941436 -65.85812378 18.01521301 C-64.00105827 17.42640212 -62.14420214 16.83693101 -60.28735352 16.24743652 C-53.50471095 14.09734308 -46.71172405 11.98492616 -39.90917969 9.89871216 C-36.22979569 8.76206627 -32.56765972 7.58000546 -28.90625 6.38671875 C-26.81199746 5.71327594 -24.71709404 5.04188911 -22.62207031 4.37084961 C-21.19176232 3.91026147 -19.76274285 3.44565505 -18.33496094 2.97729492 C-16.2370867 2.29028151 -14.13486743 1.61840692 -12.03125 0.94921875 C-10.79955078 0.55049561 -9.56785156 0.15177246 -8.29882812 -0.2590332 C-5.02719449 -0.99389171 -3.1725652 -0.95740801 0 0 Z " fill="#000400" transform="translate(668,329)"/>
<path d="M0 0 C0.66 0 1.32 0 2 0 C2.70005949 2.07914664 3.38462244 4.16351586 4.0625 6.25 C4.44535156 7.41015625 4.82820313 8.5703125 5.22265625 9.765625 C5.99264468 12.96939594 6.09338839 14.02208739 5 17 C2.9180726 18.93793242 0.87524631 20.65378511 -1.375 22.375 C-2.02823242 22.88595215 -2.68146484 23.3969043 -3.35449219 23.92333984 C-12.69738159 31.17815238 -22.1554423 38.43696153 -32 45 C-20.83592938 45.77003365 -9.68582123 46.25752268 1.5 46.5625 C3.01693415 46.60587347 4.5338613 46.64949231 6.05078125 46.69335938 C9.70044509 46.79838366 13.35019047 46.90015036 17 47 C17.83698386 49.45714547 18.66972424 51.91558857 19.5 54.375 C19.73847656 55.07367188 19.97695313 55.77234375 20.22265625 56.4921875 C22 61.7734375 22 61.7734375 22 64 C15.73208502 64.10220749 9.65901288 63.85960618 3.4375 63.125 C-7.48368452 61.92770022 -18.43479815 61.31115436 -29.40063477 60.69775391 C-33.2680968 60.48058069 -37.13421235 60.24537587 -41 60 C-42.03664795 59.93707764 -43.0732959 59.87415527 -44.14135742 59.80932617 C-45.03959229 59.74076416 -45.93782715 59.67220215 -46.86328125 59.6015625 C-47.62423096 59.54693848 -48.38518066 59.49231445 -49.16918945 59.43603516 C-51 59 -51 59 -53.0625 56.4375 C-55.31240073 48.18786399 -55.31240073 48.18786399 -55 45 C-53.33154216 42.44433125 -51.11825789 40.8087861 -48.6875 39 C-48.03958496 38.4836499 -47.39166992 37.9672998 -46.72412109 37.43530273 C-44.83284897 35.9337686 -42.91864104 34.46627427 -41 33 C-39.37247235 31.69063565 -37.74711908 30.37855887 -36.125 29.0625 C-35.33867187 28.44117188 -34.55234375 27.81984375 -33.7421875 27.1796875 C-30.21955877 24.37964928 -26.73676748 21.53197907 -23.25 18.6875 C-17.30097581 13.83954416 -11.30420426 9.0583233 -5.25292969 4.33862305 C-2.53516147 2.27515327 -2.53516147 2.27515327 0 0 Z " fill="#050300" transform="translate(238,437)"/>
<path d="M0 0 C21.12 0 42.24 0 64 0 C60.625 10.125 60.625 10.125 59 14 C50.69066913 14.12568736 42.42455615 13.94796454 34.125 13.5625 C33.24626221 13.52326416 32.36752441 13.48402832 31.4621582 13.44360352 C26.26303946 13.18721536 21.15677824 12.71189862 16 12 C16 12.66 16 13.32 16 14 C16.59458008 14.27239502 17.18916016 14.54479004 17.80175781 14.82543945 C19.94440556 15.97029488 21.42006637 17.12644698 23.171875 18.79296875 C23.7501001 19.33767822 24.3283252 19.8823877 24.92407227 20.44360352 C25.52662842 21.01908936 26.12918457 21.5945752 26.75 22.1875 C28.0031483 23.36799262 29.25704961 24.54768642 30.51171875 25.7265625 C31.11290527 26.2927832 31.7140918 26.85900391 32.33349609 27.44238281 C37.04252014 31.8437267 41.92063609 36.03174694 47 40 C46.46363605 45.36363946 44.50388907 49.33739842 42 54 C36.09388548 49.84431803 31.0185039 45.24273303 26 40.0625 C21.45147714 35.39404538 16.8432827 30.92789013 11.90136719 26.67651367 C9.00699164 24.12442367 6.31719138 21.38711843 3.625 18.625 C0.16330978 14.85973773 0.16330978 14.85973773 -4 12 C-3.41583782 7.09303768 -2.34505819 4.69011637 0 0 Z " fill="#040400" transform="translate(358,328)"/>
<path d="M0 0 C10.50175031 4.62523897 20.9238582 9.36443461 31.1875 14.5 C32.05407227 14.93296387 32.92064453 15.36592773 33.81347656 15.81201172 C39.86433226 18.86433226 39.86433226 18.86433226 41 20 C41.07179964 21.51928038 41.08392007 23.04167482 41.0625 24.5625 C41.05347656 25.38878906 41.04445313 26.21507812 41.03515625 27.06640625 C41.02355469 27.70449219 41.01195312 28.34257812 41 29 C35.05640036 30.85534567 29.11145005 32.70631204 23.16552734 34.55419922 C21.14177368 35.18371758 19.11833465 35.81424831 17.09521484 36.44580078 C14.19189713 37.35193179 11.28747776 38.25444943 8.3828125 39.15625 C7.47443634 39.44060913 6.56606018 39.72496826 5.63015747 40.01794434 C4.78943695 40.27821411 3.94871643 40.53848389 3.08251953 40.80664062 C2.34083527 41.03758423 1.599151 41.26852783 0.83499146 41.50646973 C-1 42 -1 42 -3 42 C-3 38.7 -3 35.4 -3 32 C3.33481512 29.41436118 9.79825301 27.66312887 16.4140625 25.96484375 C19.6438506 25.09582669 22.82698099 24.057673 26 23 C17.09 19.04 8.18 15.08 -1 11 C-0.67 7.37 -0.34 3.74 0 0 Z " fill="#000500" transform="translate(601,217)"/>
<path d="M0 0 C0 5.28 0 10.56 0 16 C-9.24 16 -18.48 16 -28 16 C-26.76726693 13.53453385 -25.85371255 13.21667135 -23.4375 11.9375 C-20.24000751 10.21975323 -17.06413601 8.47481097 -13.9140625 6.671875 C-13.19806885 6.26332275 -12.4820752 5.85477051 -11.74438477 5.43383789 C-10.29799663 4.60763095 -8.85314933 3.77872028 -7.40991211 2.94702148 C-2.22347849 0 -2.22347849 0 0 0 Z " fill="#F20606" transform="translate(494,511)"/>
<path d="M0 0 C5.57675511 1.39418878 10.16895759 4.18353887 15.1875 6.9375 C16.21037109 7.48857422 17.23324219 8.03964844 18.28710938 8.60742188 C19.25841797 9.13787109 20.22972656 9.66832031 21.23046875 10.21484375 C22.12145264 10.70073975 23.01243652 11.18663574 23.93041992 11.68725586 C26 13 26 13 27 15 C21.36473035 16.20484722 15.85463885 16.1129643 10.125 16.0625 C9.15046875 16.05798828 8.1759375 16.05347656 7.171875 16.04882812 C4.78122332 16.03710924 2.3906035 16.01917596 0 16 C0 10.72 0 5.44 0 0 Z " fill="#A241F2" transform="translate(505,510)"/>
</svg>
