<?xml version="1.0" encoding="UTF-8"?>
<svg version="1.1" xmlns="http://www.w3.org/2000/svg" width="1000" height="1000">
<path d="M0 0 C330 0 660 0 1000 0 C1000 330 1000 660 1000 1000 C670 1000 340 1000 0 1000 C0 670 0 340 0 0 Z " fill="#FEFEFE" transform="translate(0,0)"/>
<path d="M0 0 C1.55843377 0.41946633 3.11694862 0.83863152 4.67553711 1.25752258 C8.03639723 2.1614307 11.39671674 3.06731219 14.75662231 3.97476196 C20.13956936 5.42857104 25.52365501 6.87812995 30.90795898 8.3269043 C36.65824447 9.87430595 42.40847533 11.42190792 48.15834045 12.97087097 C62.88220995 16.93693085 77.6100916 20.88787966 92.33984375 24.83203125 C94.50935437 25.41303235 96.67886426 25.99403617 98.84837341 26.57504272 C107.30693225 28.84017269 115.76556892 31.10501166 124.22439575 33.36914062 C129.17323431 34.69381657 134.12182153 36.01942854 139.07031059 37.34540939 C141.89943394 38.10308665 144.72888547 38.8595289 147.55836487 39.61587524 C156.18831756 41.92551919 164.80965194 44.26058828 173.41357422 46.66552734 C174.95529103 47.09438826 176.49703327 47.52315776 178.0388031 47.951828 C180.8495842 48.73357451 183.65679054 49.52665661 186.46229553 50.32710266 C187.6928215 50.66992783 188.92334747 51.01275299 190.19116211 51.3659668 C191.24782578 51.66544724 192.30448944 51.96492767 193.39317322 52.27348328 C199.62471477 53.54425773 204.7984839 52.7905617 210.8840332 51.14404297 C211.59390821 50.95457627 212.30378323 50.76510958 213.0351696 50.56990147 C215.3955497 49.93768294 217.75235813 49.29307147 220.109375 48.6484375 C221.80238877 48.19234648 223.49561651 47.73704913 225.18904114 47.28248596 C229.77401636 46.04948923 234.35605035 44.80587061 238.93766022 43.56043625 C243.76578085 42.25005927 248.59661131 40.94975363 253.42724609 39.64868164 C261.45709242 37.48489316 269.48553732 35.31597819 277.51318359 33.14404297 C288.87432333 30.07098907 300.24082103 27.01815242 311.609375 23.97265625 C313.39008721 23.49549354 315.17079807 23.0183258 316.95150757 22.54115295 C323.89182155 20.68156789 330.83233192 18.82271652 337.77294922 16.96426392 C342.79158475 15.62031321 347.80997094 14.27543482 352.828125 12.9296875 C353.63030079 12.71458464 354.43247658 12.49948177 355.25896072 12.27786064 C365.53582506 9.52091454 375.80448789 6.73578235 386.06439209 3.91638756 C390.35167953 2.73929297 394.64075917 1.56873158 398.92938232 0.39651489 C402.20343349 -0.50237818 405.47404131 -1.41306405 408.74462891 -2.32446289 C410.66813545 -2.85100371 412.59179035 -3.37700302 414.515625 -3.90234375 C415.79200081 -4.26451492 415.79200081 -4.26451492 417.09416199 -4.63400269 C424.84386256 -6.72465218 424.84386256 -6.72465218 428.49609375 -5.09375 C431.6395269 -0.82167177 432.76372249 3.80775684 434.07714844 8.85668945 C434.31710761 9.75359466 434.55706678 10.65049986 434.80429745 11.57458401 C435.59954368 14.55432963 436.38372303 17.53687323 437.16796875 20.51953125 C437.72805024 22.62642573 438.28883997 24.73313205 438.85029602 26.83966064 C440.34865491 32.46882953 441.83765513 38.10043373 443.3247261 43.73259354 C444.85643741 49.52809253 446.39607585 55.32148364 447.93530273 61.11499023 C449.76523164 68.00426824 451.59451451 74.89371328 453.41990662 81.78419495 C456.76556963 94.4112254 460.13318382 107.03181729 463.546875 119.640625 C463.90754264 120.97473001 464.26815006 122.3088513 464.62869263 123.64299011 C466.54691771 130.73853238 466.54691771 130.73853238 468.47570801 137.83120728 C473.80861752 157.39241546 473.80861752 157.39241546 475.13452148 166.55493164 C475.6523144 169.92215887 476.52930163 173.07705008 477.49609375 176.34375 C477.82609375 177.47683594 478.15609375 178.60992187 478.49609375 179.77734375 C479.43646852 182.85166216 479.43646852 182.85166216 480.5625 185.5546875 C481.43523729 187.75296301 481.97760919 189.77908552 482.43359375 192.09375 C483.30556974 196.19676878 484.40141395 200.17353535 485.66796875 204.171875 C486.25903281 206.1235016 486.78324746 208.09588678 487.26171875 210.078125 C489.5078061 218.77660875 493.17461268 223.66002466 499.49609375 229.90625 C500.69621229 231.27025027 501.88468046 232.64463223 503.05859375 234.03125 C505.4110297 236.74142966 507.86143085 239.27914601 510.43359375 241.78125 C513.34933576 244.63009162 515.80864904 247.57868431 518.24609375 250.84375 C522.21404375 255.9759488 526.76308131 259.34693854 532.0546875 262.99609375 C534.49609375 264.90625 534.49609375 264.90625 535.49609375 267.90625 C536.82268796 268.58622797 538.15751251 269.25018409 539.49609375 269.90625 C541.15604406 271.37730944 542.76354461 272.90822143 544.33622742 274.472229 C545.0447084 275.17285497 545.0447084 275.17285497 545.76750213 275.88763499 C547.34677601 277.45192309 548.91883505 279.02326307 550.4909668 280.59472656 C551.62253355 281.71867102 552.75450167 282.84221152 553.88684082 283.96537781 C556.95975728 287.01635271 560.0260788 290.07387263 563.09058356 293.13329411 C565.00524506 295.04431245 566.92119833 296.95402594 568.83759499 298.86330414 C575.52253684 305.52375528 582.20174161 312.18990462 588.8762207 318.86083984 C595.09922988 325.08021131 601.33525377 331.28632177 607.57733315 337.48654771 C612.93572196 342.81026277 618.2844678 348.14353903 623.62589675 353.48426986 C626.8164111 356.67399058 630.01079261 359.8595931 633.21509361 363.03546906 C636.2278067 366.02205094 639.22836508 369.02032739 642.21999359 372.02802467 C643.31980488 373.12965421 644.42390248 374.22702361 645.5325489 375.31976128 C647.0458453 376.81265739 648.54290365 378.32017233 650.03691101 379.83233643 C650.87884349 380.67225758 651.72077597 381.51217873 652.58822155 382.37755203 C654.82593796 385.34342623 655.41351648 387.20448806 655.49609375 390.90625 C654.58695126 392.75056648 654.58695126 392.75056648 652.99095154 394.40725708 C652.33537703 395.09073338 651.67980251 395.77420967 651.00436211 396.47839737 C645.98073272 401.34096791 640.89472319 406.12956518 635.75933838 410.87396622 C631.90577461 414.4363464 628.06674585 418.01429332 624.22901917 421.59371948 C623.41099575 422.35668138 622.59297234 423.11964328 621.75016034 423.90572524 C610.17682506 434.72120696 598.76990767 445.71195687 587.36274052 456.70213127 C578.13647825 465.58162934 568.859379 474.39063591 559.42700195 483.05126953 C510.82484571 527.75530448 479.81186494 564.77531838 469.2300806 631.13118839 C466.28017316 649.55145745 461.3351469 667.34355127 456.27265739 685.2781601 C454.14111517 692.84975709 452.11760565 700.4506784 450.08604634 708.04957902 C449.22816435 711.25559538 448.36602624 714.46046245 447.50378746 717.66530937 C445.18936044 726.27419494 442.91719124 734.89371169 440.6636467 743.51870728 C439.53570331 747.82915344 438.39804279 752.1370502 437.26202393 756.44537354 C436.39879663 759.73807975 435.55144844 763.03459659 434.70458984 766.33154297 C434.1958623 768.26162416 433.6863183 770.19149042 433.17578125 772.12109375 C432.85232727 773.4129232 432.85232727 773.4129232 432.52233887 774.73085022 C432.20746521 775.90036476 432.20746521 775.90036476 431.88623047 777.09350586 C431.71276093 777.76328964 431.53929138 778.43307343 431.36056519 779.12315369 C430.16957454 781.57974271 428.86328866 782.57503613 426.49609375 783.90625 C424.45849609 783.90289307 424.45849609 783.90289307 422.20703125 783.34472656 C421.32241211 783.13303833 420.43779297 782.9213501 419.52636719 782.70324707 C418.52637695 782.44023804 417.52638672 782.177229 416.49609375 781.90625 C415.38008789 781.62422729 414.26408203 781.34220459 413.11425781 781.05163574 C409.10944157 780.02337568 405.1149987 778.96026211 401.12109375 777.890625 C399.58948859 777.48284662 398.05781445 777.07532726 396.52607727 776.66804504 C392.38156758 775.56514572 388.23812075 774.45830203 384.09488297 773.35063553 C380.59526103 772.41555129 377.09503313 771.48274677 373.59480381 770.54993916 C361.55998009 767.34255343 349.52762055 764.12597844 337.49609375 760.90625 C336.13261181 760.54137859 336.13261181 760.54137859 334.74158478 760.16913605 C322.2965304 756.83852853 309.85262248 753.50365535 297.40939713 750.16622162 C294.81175393 749.46959748 292.21403806 748.77324494 289.61630249 748.07696533 C273.38908529 743.72722744 257.16335299 739.37322282 240.95913124 734.93846703 C236.69545496 733.77242463 232.4303517 732.61160337 228.1656189 731.44943237 C224.91690054 730.56087307 221.67094771 729.66270959 218.42504883 728.76391602 C216.50744982 728.24058771 214.58973343 727.71768929 212.671875 727.1953125 C211.83124512 726.95901627 210.99061523 726.72272003 210.12451172 726.47926331 C208.95553345 726.16395912 208.95553345 726.16395912 207.76293945 725.84228516 C207.10203812 725.65993317 206.44113678 725.47758118 205.76020813 725.28970337 C200.37078064 724.37694289 195.56442434 724.92207219 190.33666992 726.36132812 C189.14262543 726.68522018 187.94858093 727.00911224 186.71835327 727.34281921 C185.40856405 727.70762078 184.09880139 728.07251775 182.7890625 728.4375 C181.38789385 728.82068819 179.98648884 729.20301301 178.58486938 729.58454895 C175.55127766 730.41195941 172.51920352 731.2446472 169.4881897 732.08145142 C164.60421459 733.42951363 159.71696154 734.76538571 154.82885742 736.09838867 C153.99084626 736.32691749 153.1528351 736.5554463 152.28942966 736.79090023 C150.56603047 737.2608131 148.84261524 737.73066711 147.11918449 738.20046425 C144.45575758 738.92683866 141.79262943 739.65430088 139.12953186 740.38188171 C125.93328639 743.98464073 112.72285178 747.53228317 99.50390625 751.05078125 C98.06722721 751.43323155 98.06722721 751.43323155 96.60152435 751.82340813 C88.87442886 753.87991671 81.14658315 755.9336 73.41851807 757.98646164 C66.80068644 759.74445231 60.18321035 761.50377051 53.56640625 763.265625 C52.65659248 763.50787371 51.74677872 763.75012241 50.80939484 763.99971199 C38.76946783 767.20781129 26.74570098 770.46923777 14.73828125 773.796875 C13.4056972 774.16533717 12.07309165 774.53372157 10.74046326 774.90202332 C4.79316649 776.54732219 -1.15058782 778.20366268 -7.08862305 779.88208008 C-9.10845763 780.44389463 -11.12838875 781.00536226 -13.1484375 781.56640625 C-14.03963287 781.82339294 -14.93082825 782.08037964 -15.84902954 782.34515381 C-23.45400216 784.43713992 -23.45400216 784.43713992 -27.50390625 782.90625 C-30.21256228 780.19759397 -30.51197139 777.79236636 -31.49316406 774.0859375 C-31.68292564 773.37678129 -31.87268723 772.66762508 -32.06819916 771.93697929 C-32.70428098 769.55340657 -33.3305716 767.16736817 -33.95703125 764.78125 C-34.40882595 763.08090047 -34.86125353 761.380719 -35.31427002 759.68069458 C-36.2890334 756.01766848 -37.2595534 752.35355391 -38.22680664 748.6885376 C-39.76493305 742.86071838 -41.31226075 737.03536845 -42.86132812 731.21044922 C-44.46762077 725.16881588 -46.07338979 719.12704675 -47.67602539 713.08444214 C-52.85634583 693.55397125 -58.09048716 674.03811116 -63.33403015 654.52453613 C-63.98335986 652.10772389 -64.63244295 649.69084561 -65.28137207 647.27392578 C-65.57327988 646.18730982 -65.57327988 646.18730982 -65.87108481 645.07874203 C-66.28473043 643.536884 -66.69747609 641.99478397 -67.1089319 640.45234013 C-68.14328905 636.58027054 -69.19246804 632.71379126 -70.28253365 628.85700989 C-72.63818066 620.42831344 -74.72948052 612.02890747 -76.36910689 603.42922223 C-83.56288658 566.05972451 -96.4321295 544.02510498 -124.10825491 518.30940771 C-128.73883919 513.96068539 -133.24543335 509.48652223 -137.76785278 505.02590942 C-145.33098875 497.59688886 -152.9594916 490.2408178 -160.64892578 482.94287109 C-168.53697363 475.45596088 -176.3857512 467.93144757 -184.18408203 460.35107422 C-184.66944305 459.87931188 -185.15480407 459.40754954 -185.654873 458.92149137 C-190.00943507 454.68776309 -194.35968928 450.44961718 -198.70980668 446.21132302 C-201.51938958 443.47408239 -204.32946863 440.73735281 -207.1399231 438.00100708 C-208.05024296 437.1145082 -208.96056282 436.22800932 -209.89846814 435.31464684 C-215.29214319 430.06867972 -220.71013347 424.84950393 -226.15260863 419.65418792 C-229.51276842 416.44570396 -232.86435827 413.22834494 -236.21536255 410.0103035 C-237.77137658 408.52124595 -239.33184416 407.03682649 -240.89700699 405.55738831 C-243.02879423 403.54202919 -245.14503409 401.51154268 -247.2585144 399.47702026 C-247.88348529 398.8945805 -248.50845617 398.31214073 -249.15236557 397.71205127 C-251.87156557 395.06675631 -253.34532659 393.38117153 -254.56602097 389.7253809 C-254.49293973 386.40852474 -254.04777276 385.56368444 -251.75546265 383.22938538 C-251.10186138 382.54758272 -250.44826012 381.86578007 -249.77485275 381.16331673 C-249.02544041 380.41848471 -248.27602806 379.67365269 -247.50390625 378.90625 C-246.30146208 377.6688548 -246.30146208 377.6688548 -245.0747261 376.40646172 C-242.23073286 373.49453807 -239.35789491 370.61339928 -236.47900391 367.73608398 C-235.37909016 366.63317224 -234.27937968 365.53005777 -233.17985535 364.42675781 C-230.2131696 361.45129543 -227.24330211 358.47902922 -224.27254534 355.50763202 C-222.41235202 353.64672486 -220.55287385 351.78510615 -218.69364548 349.92323494 C-212.19542186 343.41578058 -205.69464136 336.9108933 -199.19140625 330.40844727 C-193.14803505 324.36567702 -187.11026723 318.31734801 -181.07509387 312.26639122 C-175.87589333 307.05408294 -170.67281178 301.84567022 -165.46673429 296.64023072 C-162.36504462 293.53879497 -159.26489845 290.43585547 -156.16865921 287.32897758 C-153.25594288 284.40652505 -150.33839028 281.4889861 -147.41718483 278.57501984 C-146.35169959 277.51057342 -145.28788813 276.44444826 -144.22596931 275.37644386 C-138.87489104 269.99671305 -133.49496648 264.86120315 -127.38991356 260.32972813 C-123.59470648 257.46526719 -120.24351852 254.10776875 -116.7890625 250.84765625 C-114.50390625 248.90625 -114.50390625 248.90625 -112.50390625 248.90625 C-112.30023438 248.36613281 -112.0965625 247.82601562 -111.88671875 247.26953125 C-109.94576141 243.95235839 -107.21403833 241.62962702 -104.37890625 239.09375 C-103.79431641 238.56112549 -103.20972656 238.02850098 -102.60742188 237.47973633 C-98.91208788 234.12484264 -95.16163656 230.84445391 -91.28515625 227.69921875 C-86.08292021 222.46275747 -83.68095771 217.51493963 -82.1171875 210.4453125 C-81.92924118 209.65530853 -81.74129486 208.86530457 -81.5476532 208.05136108 C-80.95573523 205.54786149 -80.38579777 203.03995759 -79.81640625 200.53125 C-79.42396234 198.85643363 -79.03009359 197.18195046 -78.63476562 195.5078125 C-77.73869312 191.69511505 -76.85234037 187.88056394 -75.99382019 184.05921936 C-75.66401607 182.60986652 -75.32272528 181.16308503 -74.97065735 179.71897888 C-73.84524324 174.98832944 -73.20697774 170.37431604 -72.77488708 165.53434753 C-71.06337149 147.6160905 -65.96440536 130.52613448 -61.17401505 113.24435043 C-59.93282836 108.75370006 -58.70959922 104.25816521 -57.48510742 99.76293945 C-55.98184685 94.24819083 -54.47698167 88.73390594 -52.96388245 83.22184753 C-49.8572883 71.90177466 -46.79768317 60.57039931 -43.79117393 49.22333336 C-43.16054907 46.84346542 -42.52880506 44.46389747 -41.89668274 42.08442688 C-39.52618064 33.16192386 -39.52618064 33.16192386 -37.16793823 24.23617554 C-36.1073832 20.21116327 -35.03461455 16.18950027 -33.9609375 12.16796875 C-33.49831009 10.39885132 -33.49831009 10.39885132 -33.02633667 8.59399414 C-32.73638824 7.51456543 -32.44643982 6.43513672 -32.14770508 5.32299805 C-31.77758049 3.92527412 -31.77758049 3.92527412 -31.39997864 2.49931335 C-26.40459921 -11.95636626 -11.38317091 -3.08296501 0 0 Z " fill="#040404" transform="translate(299.50390625,111.09375)"/>
<path d="M0 0 C3.30281742 0.76610974 5.91472987 1.89375557 8.90234375 3.51953125 C9.86390381 4.04087646 10.82546387 4.56222168 11.81616211 5.09936523 C13.36122437 5.94736694 13.36122437 5.94736694 14.9375 6.8125 C16.0107251 7.39781494 17.0839502 7.98312988 18.18969727 8.58618164 C25.84151197 12.7752384 33.43517464 17.05952825 40.99633789 21.40966797 C47.76182362 25.30196525 54.56102205 29.13078209 61.375 32.9375 C69.42847774 37.4377007 77.47204181 41.95442305 85.5 46.5 C93.48774107 51.02207659 101.48878029 55.5196512 109.5 60 C118.4593421 65.01059503 127.40281974 70.04829051 136.3359375 75.10546875 C143.37946347 79.09036769 150.43690717 83.04989994 157.5 87 C166.4593421 92.01059503 175.40281974 97.04829051 184.3359375 102.10546875 C191.37946347 106.09036769 198.43690717 110.04989994 205.5 114 C214.44847286 119.00451631 223.38216681 124.0342403 232.30297852 129.08789062 C237.43161783 131.99094417 242.56802726 134.87927745 247.71484375 137.75 C248.83632813 138.37583984 249.9578125 139.00167969 251.11328125 139.64648438 C253.26723646 140.84748525 255.42212695 142.04681086 257.578125 143.24414062 C263.15347117 146.35332778 268.62014054 149.56304569 274 153 C272.40596353 163.92745504 269.31582299 174.51537859 266.453125 185.16015625 C265.88759569 187.27583484 265.32244993 189.39161599 264.75765991 191.50749207 C263.24122751 197.18406988 261.71939136 202.85918572 260.19641876 208.53401184 C258.61155527 214.44278319 257.03140231 220.35281409 255.45068359 226.26269531 C252.88047632 235.86942339 250.30714545 245.47530966 247.73144531 255.08056641 C244.82227444 265.92942881 241.91810282 276.77961886 239.0168457 287.63059998 C236.78644662 295.97244878 234.55329257 304.31355961 232.31980896 312.65458298 C231.63218141 315.22317426 230.94501061 317.79188736 230.25793457 320.36062622 C225.64213896 337.61360149 221.00508798 354.85475124 216 372 C206.96806545 370.5726947 198.21050873 368.30160391 189.3984375 365.90625 C187.84128066 365.48662388 186.28401088 365.06741664 184.72663879 364.64859009 C181.37137106 363.74536656 178.01686354 362.83939088 174.66293335 361.93121338 C169.29247569 360.4770294 163.92043586 359.02875458 158.5480957 357.58154297 C152.80853175 356.03518308 147.06905321 354.48851162 141.33009338 352.93991089 C126.56441127 348.95608639 111.79321983 344.99308413 97.01953125 341.0390625 C94.8402081 340.45567507 92.66088681 339.87228071 90.48156738 339.28887939 C81.97775492 337.01256415 73.47385633 334.73657133 64.96966553 332.46166992 C59.97426157 331.12529257 54.97916541 329.78776982 49.98425865 328.44953537 C48.16748347 327.96298979 46.35060775 327.4768194 44.53360939 326.99110794 C28.66467744 322.74888406 12.8306069 318.38262905 -3 314 C-3.13234662 260.78835707 -2.85298764 207.59357809 -2.16577756 154.3863734 C-2.04951586 145.36212528 -1.940589 136.33779213 -1.83159184 127.31345391 C-1.31774951 84.87401628 -0.71413067 42.43654836 0 0 Z " fill="#A53AFD" transform="translate(505,510)"/>
<path d="M0 0 C0.15913941 33.06916848 -0.11665538 66.12659574 -0.50509644 99.19296265 C-0.80929496 125.14533427 -1.05823113 151.09758372 -1.23837018 177.05109143 C-1.25390394 179.28482406 -1.26958259 181.51855562 -1.28530693 183.75228691 C-1.37893147 197.0600818 -1.4720363 210.36787926 -1.5541687 223.67575073 C-1.74238029 254.1255855 -1.93508579 284.56546482 -3 315 C-4.06903564 315.26225121 -4.06903564 315.26225121 -5.15966797 315.52980042 C-16.93483806 318.42040458 -28.65517678 321.35543901 -40.24609375 324.921875 C-42.96625894 325.70310871 -45.6154282 326.37614676 -48.375 326.96875 C-53.17604333 328.0037788 -57.85437033 329.35896169 -62.5625 330.75 C-70.41746733 333.03714843 -78.3041923 335.11535094 -86.25 337.0625 C-93.72789338 338.89633193 -101.12446012 340.86319165 -108.48925781 343.10571289 C-115.64015296 345.25252037 -122.88723104 346.99101434 -130.13671875 348.76953125 C-135.97136999 350.21155532 -141.75072469 351.74923836 -147.5 353.5 C-155.29919324 355.87499991 -163.18675437 357.82025695 -171.10375977 359.76074219 C-177.97091752 361.45682429 -184.75450868 363.33666972 -191.52539062 365.38012695 C-196.31795583 366.82110264 -201.0967529 368.01552739 -206 369 C-207.68817053 369.37196978 -209.37567752 369.74696405 -211.0625 370.125 C-212.375 370.41666667 -213.6875 370.70833333 -215 371 C-215.62849414 368.85518747 -216.25260258 366.70908965 -216.875 364.5625 C-217.39707031 362.77005859 -217.39707031 362.77005859 -217.9296875 360.94140625 C-218.70483598 358.18536162 -219.36036266 355.42410776 -219.9609375 352.625 C-221.00274286 347.82565476 -222.35901175 343.14546022 -223.75 338.4375 C-226.03714843 330.58253267 -228.11535094 322.6958077 -230.0625 314.75 C-231.89633193 307.27210662 -233.86319165 299.87553988 -236.10571289 292.51074219 C-238.25252037 285.35984704 -239.99101434 278.11276896 -241.76953125 270.86328125 C-243.21155532 265.02863001 -244.74923836 259.24927531 -246.5 253.5 C-248.87588033 245.69791557 -250.82163232 237.80736306 -252.76293945 229.88745117 C-254.43685304 223.11023473 -256.2911616 216.41781485 -258.31640625 209.73828125 C-259.8436573 204.66066737 -261.04613611 199.55786015 -262.1875 194.3828125 C-263.15931177 190.33671156 -264.31194745 186.36202382 -265.5 182.375 C-265.71479004 181.65151367 -265.92958008 180.92802734 -266.15087891 180.18261719 C-267.09803628 177.00126994 -268.05402082 173.82309212 -269.0234375 170.6484375 C-269.30445313 169.69195313 -269.58546875 168.73546875 -269.875 167.75 C-270.11992187 166.94046875 -270.36484375 166.1309375 -270.6171875 165.296875 C-271.08757329 162.47456028 -270.96255802 160.70222711 -270 158 C-268.03125 156.375 -268.03125 156.375 -265.5 155 C-264.60152344 154.50242187 -263.70304688 154.00484375 -262.77734375 153.4921875 C-261.86082031 152.99976563 -260.94429687 152.50734375 -260 152 C-259.15566406 151.50757813 -258.31132812 151.01515625 -257.44140625 150.5078125 C-251.40677966 147 -251.40677966 147 -248 147 C-248 146.34 -248 145.68 -248 145 C-246.12890625 143.66796875 -246.12890625 143.66796875 -243.5625 142.1875 C-242.65242188 141.65898438 -241.74234375 141.13046875 -240.8046875 140.5859375 C-237.53767098 138.73857161 -234.26577433 136.9020327 -230.97265625 135.1015625 C-229.32655036 134.18235089 -227.71988153 133.19296879 -226.125 132.1875 C-224 131 -224 131 -221 131 C-221 130.34 -221 129.68 -221 129 C-219.12890625 127.66796875 -219.12890625 127.66796875 -216.5625 126.1875 C-215.19738281 125.39472656 -215.19738281 125.39472656 -213.8046875 124.5859375 C-210.53767098 122.73857161 -207.26577433 120.9020327 -203.97265625 119.1015625 C-202.32655036 118.18235089 -200.71988153 117.19296879 -199.125 116.1875 C-197 115 -197 115 -194 115 C-194 114.34 -194 113.68 -194 113 C-192.12890625 111.66796875 -192.12890625 111.66796875 -189.5625 110.1875 C-188.19738281 109.39472656 -188.19738281 109.39472656 -186.8046875 108.5859375 C-183.53767098 106.73857161 -180.26577433 104.9020327 -176.97265625 103.1015625 C-175.32655036 102.18235089 -173.71988153 101.19296879 -172.125 100.1875 C-170 99 -170 99 -167 99 C-167 98.34 -167 97.68 -167 97 C-165.12890625 95.66796875 -165.12890625 95.66796875 -162.5625 94.1875 C-161.655 93.66285156 -160.7475 93.13820313 -159.8125 92.59765625 C-158.884375 92.07042969 -157.95625 91.54320312 -157 91 C-155.7315625 90.25556641 -155.7315625 90.25556641 -154.4375 89.49609375 C-148.38158832 86 -148.38158832 86 -145 86 C-145 85.34 -145 84.68 -145 84 C-142.7140617 82.4670058 -140.44192427 81.06139469 -138.0625 79.6875 C-137.37897461 79.28668213 -136.69544922 78.88586426 -135.99121094 78.47290039 C-133.9982661 77.30799351 -131.99940865 76.15376391 -130 75 C-129.04480469 74.43796875 -128.08960938 73.8759375 -127.10546875 73.296875 C-121.39278017 70 -121.39278017 70 -118 70 C-118 69.34 -118 68.68 -118 68 C-116.12890625 66.66796875 -116.12890625 66.66796875 -113.5625 65.1875 C-112.65242187 64.65898438 -111.74234375 64.13046875 -110.8046875 63.5859375 C-107.53767098 61.73857161 -104.26577433 59.9020327 -100.97265625 58.1015625 C-99.32655036 57.18235089 -97.71988153 56.19296879 -96.125 55.1875 C-94 54 -94 54 -91 54 C-91 53.34 -91 52.68 -91 52 C-89.12890625 50.66796875 -89.12890625 50.66796875 -86.5625 49.1875 C-85.65242187 48.65898438 -84.74234375 48.13046875 -83.8046875 47.5859375 C-80.53767098 45.73857161 -77.26577433 43.9020327 -73.97265625 42.1015625 C-72.32655036 41.18235089 -70.71988153 40.19296879 -69.125 39.1875 C-67 38 -67 38 -64 38 C-64 37.34 -64 36.68 -64 36 C-62.12890625 34.66796875 -62.12890625 34.66796875 -59.5625 33.1875 C-58.65242187 32.65898438 -57.74234375 32.13046875 -56.8046875 31.5859375 C-53.53767098 29.73857161 -50.26577433 27.9020327 -46.97265625 26.1015625 C-45.32655036 25.18235089 -43.71988153 24.19296879 -42.125 23.1875 C-40 22 -40 22 -37 22 C-37 21.34 -37 20.68 -37 20 C-35.12890625 18.66796875 -35.12890625 18.66796875 -32.5625 17.1875 C-31.655 16.66285156 -30.7475 16.13820313 -29.8125 15.59765625 C-28.4203125 14.80681641 -28.4203125 14.80681641 -27 14 C-26.154375 13.50371094 -25.30875 13.00742187 -24.4375 12.49609375 C-18.38158832 9 -18.38158832 9 -15 9 C-15 8.34 -15 7.68 -15 7 C-12.87767021 5.82823482 -10.75242209 4.66245215 -8.625 3.5 C-7.72007812 2.99919922 -7.72007812 2.99919922 -6.796875 2.48828125 C-2.2265625 0 -2.2265625 0 0 0 Z " fill="#FE0000" transform="translate(494,511)"/>
<path d="M0 0 C3.30037971 2.12958417 5.93748217 4.87345292 8.68741989 7.6501255 C9.33195531 8.29295207 9.97649073 8.93577864 10.64055753 9.59808481 C12.80258375 11.75681251 14.95737657 13.92261887 17.11228561 16.08844948 C18.65922444 17.63595234 20.20660359 19.18301516 21.75439072 20.72966957 C25.95892353 24.93362757 30.1572529 29.14373217 34.35451794 33.35494471 C38.74052115 37.75343378 43.13217275 42.14627569 47.52323532 46.53971291 C54.89387097 53.91586241 62.2610037 61.29549533 69.62546921 68.67780495 C77.21068979 76.28138538 84.79800947 83.88286106 92.38816452 91.48151588 C92.85607193 91.94994874 93.32397934 92.4183816 93.80606577 92.9010094 C96.15344799 95.25100171 98.50087383 97.60095044 100.84831572 99.95088315 C120.32055907 119.44404272 139.7856548 138.94432663 159.24607468 158.44928932 C157.59484564 162.67764367 154.46272339 165.52598304 151.31339645 168.66958046 C150.39225866 169.60068997 150.39225866 169.60068997 149.45251203 170.55060977 C147.39075735 172.63207047 145.32188729 174.70630778 143.25291061 176.78058815 C141.774304 178.27008847 140.2960877 179.75997632 138.81823349 181.25022316 C134.80057542 185.29839817 130.77617702 189.33980432 126.74958324 193.37908959 C124.23574702 195.9010062 121.7229648 198.42396858 119.21046829 200.94721985 C111.35367951 208.83672356 103.49249606 216.72181264 95.62543178 224.60107023 C86.53459087 233.70618423 77.4587746 242.82593622 68.39550757 251.95849591 C61.39370583 259.01198419 54.37860478 266.05206284 47.35324121 273.08208293 C43.15487128 277.28385885 38.96248545 281.49122772 34.78390884 285.71269608 C30.8560456 289.68016965 26.91201377 293.63080797 22.95475197 297.56895256 C21.50304582 299.01938759 20.05734528 300.47586143 18.61807823 301.93864059 C16.65666663 303.93025934 14.67504461 305.89925326 12.68668747 307.8639164 C11.83364961 308.74549273 11.83364961 308.74549273 10.96337867 309.64487869 C9.33699799 311.22528744 9.33699799 311.22528744 6.24607468 313.44928932 C1.8593108 313.34456162 -1.16154471 311.94584345 -4.92970657 309.78132057 C-5.90955521 309.22500954 -6.88940384 308.6686985 -7.89894485 308.09552956 C-8.94421341 307.49039528 -9.98948196 306.885261 -11.06642532 306.26178932 C-13.32018511 304.97767806 -15.57409558 303.69383124 -17.82814407 302.41022682 C-18.99017884 301.7446906 -20.1521254 301.07900036 -21.31398392 300.41315651 C-26.6485016 297.36767317 -32.01463731 294.37940862 -37.37892532 291.38678932 C-46.29678732 286.39709106 -55.19757417 281.37781588 -64.0903511 276.34357643 C-71.13368496 272.35870686 -78.19099116 268.39930065 -85.25392532 264.44928932 C-94.21326742 259.4386943 -103.15674506 254.40099881 -112.08986282 249.34382057 C-119.1333888 245.35892163 -126.19083249 241.39938939 -133.25392532 237.44928932 C-142.21326742 232.4386943 -151.15674506 227.40099881 -160.08986282 222.34382057 C-167.1333888 218.35892163 -174.19083249 214.39938939 -181.25392532 210.44928932 C-190.21413437 205.43820945 -199.15935949 200.40156597 -208.09206009 195.34162331 C-213.02186036 192.5512897 -217.95809084 189.77332674 -222.90626907 187.01569557 C-238.98693327 178.05321521 -254.97714328 168.93885887 -270.75392532 159.44928932 C-267.07234843 156.32825327 -263.23187661 153.92347895 -259.00392532 151.63678932 C-251.82026366 147.67406292 -244.77800344 143.50012946 -237.75392532 139.26178932 C-235.61478072 137.97633629 -233.4754554 136.69118396 -231.33595657 135.40632057 C-228.00411427 133.40502417 -224.67410008 131.40096832 -221.34914017 129.38825417 C-218.0535494 127.39668436 -214.74864832 125.42146569 -211.44142532 123.44928932 C-209.92065384 122.52273537 -209.92065384 122.52273537 -208.3691597 121.57746315 C-206.95666946 120.74057961 -206.95666946 120.74057961 -205.51564407 119.88678932 C-204.69024124 119.39050026 -203.86483841 118.8942112 -203.01442337 118.38288307 C-200.29171137 117.25839331 -199.45137232 117.34869223 -196.75392532 118.44928932 C-194.92372979 119.36465139 -193.12022574 120.33406649 -191.33595657 121.33600807 C-190.25966995 121.93727516 -189.18338333 122.53854225 -188.07448196 123.15802956 C-186.90506856 123.81750765 -185.73571803 124.47709725 -184.56642532 125.13678932 C-183.34847751 125.81957731 -182.13029352 126.50194417 -180.91188431 127.18390846 C-178.40668783 128.58699847 -175.90298126 129.99269495 -173.4004097 131.4004612 C-170.06945338 133.27349401 -166.73291803 135.13636704 -163.39455032 136.99616432 C-151.88096245 143.41513011 -140.41393517 149.9124281 -128.97746658 156.46750832 C-120.68173302 161.22198125 -112.35700404 165.92109573 -104.00392532 170.57428932 C-95.79984738 175.145142 -87.66293953 179.81563938 -79.56642532 184.57428932 C-71.56469103 189.27093072 -63.51452801 193.8631101 -55.37892532 198.32428932 C-54.43895706 198.84265358 -53.4989888 199.36101784 -52.53053665 199.8950901 C-51.66839554 200.36414772 -50.80625443 200.83320534 -49.91798782 201.31647682 C-49.15953568 201.73010475 -48.40108353 202.14373268 -47.61964798 202.56989479 C-45.7961709 203.59140785 -45.7961709 203.59140785 -43.75392532 203.44928932 C-42.46986134 201.49704725 -41.27450854 199.48588171 -40.12892532 197.44928932 C-39.4972847 196.33553932 -38.86564407 195.22178932 -38.21486282 194.07428932 C-37.73275345 193.20803932 -37.25064407 192.34178932 -36.75392532 191.44928932 C-40.27129778 188.48950955 -43.81075673 186.17285491 -47.84767532 183.98053932 C-48.42713913 183.66373711 -49.00660294 183.34693489 -49.60362625 183.02053261 C-50.84237257 182.34375529 -52.08226297 181.6690685 -53.32320023 180.99631691 C-56.61045594 179.21364602 -59.88875706 177.41463505 -63.16798782 175.61725807 C-63.82227768 175.25911522 -64.47656754 174.90097237 -65.15068436 174.5319767 C-70.67823684 171.50216156 -76.16410716 168.40340748 -81.62892532 165.26178932 C-82.46286819 164.78258034 -83.29681107 164.30337135 -84.15602493 163.80964088 C-85.83531997 162.8446595 -87.51460063 161.87965309 -89.19386673 160.91462135 C-93.72304395 158.32220082 -98.27059751 155.76236245 -102.81642532 153.19928932 C-110.84361118 148.67134365 -118.85175869 144.11102663 -126.84929276 139.53095436 C-137.61707319 133.36443125 -148.41528563 127.2566398 -159.24928665 121.20685768 C-166.77841697 117.00162436 -174.28111511 112.7538419 -181.75392532 108.44928932 C-180.5718249 104.90298804 -179.92747317 104.67293974 -176.79298782 102.87507057 C-175.9428511 102.3807151 -175.09271439 101.88635963 -174.21681595 101.3770237 C-173.28031204 100.84399635 -172.34380814 100.31096901 -171.37892532 99.76178932 C-169.36038356 98.59175553 -167.34216893 97.42115724 -165.32423782 96.25007057 C-164.25334915 95.63212624 -163.18246048 95.0141819 -162.07912064 94.37751198 C-156.4455106 91.11067996 -150.85199754 87.77652095 -145.25392532 84.44928932 C-142.95227908 83.08396715 -140.64997399 81.71976158 -138.34767532 80.35553932 C-137.23392532 79.69553932 -136.12017532 79.03553932 -134.97267532 78.35553932 C-130.23521528 75.5498591 -125.49482 72.74916079 -120.75392532 69.94928932 C-109.23190528 63.14423156 -97.72048981 56.32130818 -86.20949173 49.49762917 C-80.55802449 46.14752747 -74.90592802 42.79848752 -69.25392532 39.44928932 C-67.00392268 38.11596045 -64.75392268 36.78262712 -62.50392532 35.44928932 C-58.00392532 32.78262266 -53.50392532 30.11595599 -49.00392532 27.44928932 C-47.8883223 26.78783913 -46.77271927 26.12638893 -45.62331009 25.44489479 C-43.39327618 24.1240994 -41.16200989 22.80538237 -38.92946243 21.4888401 C-33.62891471 18.35964315 -28.34517698 15.21063844 -23.10161209 11.98707008 C-20.61220717 10.45839652 -18.11576677 8.94143341 -15.61867142 7.42536354 C-14.42514025 6.69618099 -13.2351215 5.96121531 -12.0488472 5.22028542 C-10.40863768 4.19632072 -8.75537611 3.19335235 -7.10158157 2.19147682 C-5.69404617 1.32305153 -5.69404617 1.32305153 -4.25807571 0.43708229 C-1.75392532 -0.55071068 -1.75392532 -0.55071068 0 0 Z " fill="#56DFFD" transform="translate(781.7539253234863,340.5507106781006)"/>
<path d="M0 0 C3.54823215 1.39025746 6.82695785 2.92774571 10.1484375 4.80078125 C11.14166016 5.35894531 12.13488281 5.91710937 13.15820312 6.4921875 C14.21974609 7.09289062 15.28128906 7.69359375 16.375 8.3125 C17.48552734 8.93769531 18.59605469 9.56289063 19.74023438 10.20703125 C23.16208957 12.13461805 26.58140134 14.06664454 30 16 C31.49321777 16.84377197 31.49321777 16.84377197 33.01660156 17.70458984 C36.78887582 19.83621398 40.56083496 21.96838951 44.33154297 24.1027832 C51.37635198 28.08889971 58.43540991 32.04906258 65.5 36 C74.4593421 41.01059503 83.40281974 46.04829051 92.3359375 51.10546875 C99.37946347 55.09036769 106.43690717 59.04989994 113.5 63 C122.45275976 68.00691379 131.38989003 73.04051771 140.31616211 78.09448242 C147.55276991 82.18901828 154.80524413 86.25469119 162.0625 90.3125 C170.73533212 95.16204032 179.38968317 100.04021106 188 105 C183.68857919 108.75510845 179.00881898 111.31869733 174 114 C166.97038536 117.81248769 159.99085329 121.69400851 153.0625 125.6875 C144.71560238 130.48566464 136.30937578 135.17055587 127.875 139.8125 C127.26228241 140.14975098 126.64956482 140.48700195 126.01828003 140.83447266 C123.52919752 142.20433889 121.04001376 143.57402091 118.55067444 144.94342041 C102.93985218 153.53344033 87.37446229 162.20291086 71.87744141 170.99658203 C62.5454118 176.28024116 53.15381945 181.45480011 43.75634766 186.62084961 C38.14639868 189.70564035 32.54318274 192.79636645 27 196 C28.03001479 199.51921721 29.26556594 202.60478707 31.125 205.75 C33 209 33 209 33 211 C41.75428724 206.87701311 50.13232783 202.15113595 58.53833008 197.36987305 C66.08503887 193.07792584 73.65769159 188.83574469 81.25 184.625 C82.37801025 183.99924072 83.50602051 183.37348145 84.66821289 182.72875977 C86.96552853 181.45468269 89.26297357 180.18083893 91.56054688 178.90722656 C97.20902097 175.77506588 102.85440737 172.63735052 108.5 169.5 C115.29530936 165.72373261 122.09131366 161.94874548 128.890625 158.1796875 C142.33773418 150.72286255 155.75206974 143.21179432 169.12792969 135.62792969 C174.20824172 132.74833766 179.29165262 129.87422913 184.375 127 C185.30795898 126.47196777 186.24091797 125.94393555 187.20214844 125.39990234 C188.96272648 124.40419695 190.72565395 123.41263118 192.49121094 122.42578125 C194.17147243 121.47086425 195.83646265 120.48859101 197.48535156 119.48046875 C198.26620117 119.01253906 199.04705078 118.54460937 199.8515625 118.0625 C200.53299316 117.64097656 201.21442383 117.21945312 201.91650391 116.78515625 C204.73140196 115.72437442 206.14106636 116.09858249 209 117 C211.04110944 117.98037266 213.04665835 119.03626886 215.0234375 120.140625 C215.59779541 120.45911911 216.17215332 120.77761322 216.76391602 121.10575867 C218.63803589 122.14725245 220.50654252 123.19838687 222.375 124.25 C223.67891916 124.9777969 224.98312149 125.70508669 226.28759766 126.43188477 C229.57633703 128.26666557 232.86024365 130.1099063 236.14257812 131.95611572 C238.92606825 133.52045693 241.7133928 135.07793863 244.5 136.63671875 C255.10596333 142.58611061 265.6245035 148.65668697 276 155 C273.33865944 157.05511094 270.6464314 158.87479464 267.74609375 160.57421875 C266.48539062 161.31575195 266.48539062 161.31575195 265.19921875 162.07226562 C264.28785156 162.60529297 263.37648438 163.13832031 262.4375 163.6875 C260.4464716 164.8578297 258.45559293 166.02841416 256.46484375 167.19921875 C255.41280762 167.81716309 254.36077148 168.43510742 253.27685547 169.07177734 C247.67635511 172.36731838 242.0888037 175.68467555 236.5 179 C228.33716906 183.83983735 220.17118139 188.67427424 212 193.5 C200.47797995 200.30505777 188.96656448 207.12798115 177.45556641 213.95166016 C171.80409916 217.30176185 166.1520027 220.6508018 160.5 224 C158.24999736 225.33332887 155.99999736 226.66666221 153.75 228 C149.25 230.66666667 144.75 233.33333333 140.25 236 C139.13584717 236.6602417 138.02169434 237.3204834 136.8737793 238.00073242 C134.62785889 239.3316422 132.38192793 240.66253418 130.13598633 241.9934082 C125.02685567 245.02094512 119.91780526 248.04861703 114.80917358 251.07699585 C102.98924603 258.08379219 91.16666387 265.08600739 79.33544922 272.07373047 C69.30678617 277.99802662 59.28736029 283.93789682 49.26786804 289.87768555 C45.05681721 292.3739558 40.8449457 294.86883788 36.6328125 297.36328125 C34.81829601 298.4379977 33.00379505 299.51274034 31.18930054 300.5874939 C29.49520688 301.59082303 27.80095102 302.59387826 26.10668945 303.59692383 C25.05956787 304.21720459 24.01244629 304.83748535 22.93359375 305.4765625 C21.93440918 306.0634082 20.93522461 306.65025391 19.90576172 307.25488281 C17.9634492 308.42138003 16.04266509 309.62446987 14.14501953 310.86230469 C12.82219971 311.71550293 12.82219971 311.71550293 11.47265625 312.5859375 C10.7031665 313.09946777 9.93367676 313.61299805 9.14086914 314.14208984 C7 315 7 315 5.26877975 314.44117165 C1.9461111 312.33054991 -0.68629137 309.58100226 -3.44134521 306.79916382 C-4.08588063 306.15633725 -4.73041605 305.51351068 -5.39448285 304.85120451 C-7.55650907 302.69247682 -9.71130189 300.52667045 -11.86621094 298.36083984 C-13.41314977 296.81333698 -14.96052891 295.26627416 -16.50831604 293.71961975 C-20.71284885 289.51566176 -24.91117822 285.30555716 -29.10844326 281.09434462 C-33.49444647 276.69585554 -37.88609808 272.30301363 -42.27716064 267.90957642 C-49.64779629 260.53342691 -57.01492902 253.15379399 -64.37939453 245.77148438 C-71.96461512 238.16790394 -79.55193479 230.56642827 -87.14208984 222.96777344 C-87.60999726 222.49934058 -88.07790467 222.03090772 -88.55999109 221.54827993 C-90.90737331 219.19828762 -93.25479915 216.84833888 -95.60224104 214.49840617 C-115.0744844 195.0052466 -134.53958012 175.50496269 -154 156 C-152.34828196 151.74238754 -149.16802712 148.89589215 -145.98898315 145.74847412 C-145.36657435 145.12435646 -144.74416554 144.5002388 -144.10289586 143.85720849 C-142.01326453 141.76427936 -139.91655845 139.67858492 -137.81982422 137.59277344 C-136.3215818 136.09509507 -134.82377946 134.59697636 -133.3263855 133.09844971 C-129.25672032 129.02820978 -125.18091 124.96417371 -121.10399008 120.9012022 C-116.84563664 116.65533563 -112.5929313 112.40381967 -108.33963013 108.15289307 C-100.28302218 100.10250589 -92.2213287 92.05723134 -84.15780747 84.01376939 C-74.97866661 74.85696891 -65.80519162 65.69450129 -56.63219428 56.53154707 C-37.76110544 37.68137377 -18.88289259 18.83834853 0 0 Z " fill="#FD8D01" transform="translate(213,345)"/>
<path d="M0 0 C15.58669084 3.39956631 31.03080468 7.35253524 46.34472656 11.81933594 C52.19985185 13.51663448 58.07802201 15.05434067 64 16.5 C70.79938 18.15984865 77.53112621 19.97730205 84.25 21.9375 C92.89499513 24.45855173 101.59373137 26.67525675 110.33886719 28.82006836 C116.78224631 30.41216422 123.14113815 32.17276188 129.48925781 34.10571289 C135.60978802 35.94318914 141.79454722 37.47761619 148 39 C154.88301648 40.68861052 161.71977481 42.43543893 168.5 44.5 C176.3862421 46.89999111 184.35964267 48.89654866 192.36523438 50.85742188 C193.32494141 51.09267578 194.28464844 51.32792969 195.2734375 51.5703125 C196.11310059 51.77414551 196.95276367 51.97797852 197.81787109 52.18798828 C202.56158401 53.39848308 207.27941842 54.70262573 212 56 C212.74305509 82.1066679 213.25375636 108.20898769 213.53242874 134.32468414 C213.56302406 137.17380215 213.59476625 140.02290574 213.62667847 142.87200928 C214.09637078 185.2478236 214.10878755 227.62219251 214 270 C206.49816482 265.91452901 199.01528326 261.79933345 191.5625 257.625 C190.49193359 257.02558594 189.42136719 256.42617188 188.31835938 255.80859375 C179.59302911 250.91352703 170.90429738 245.95639646 162.22390747 240.98223877 C154.00818537 236.27525444 145.7686086 231.61364393 137.5 227 C128.59515786 222.03069764 119.72489498 217.00375081 110.875 211.9375 C109.70266576 211.26687631 108.53030267 210.59630305 107.35791016 209.92578125 C98.15490995 204.66184468 98.15490995 204.66184468 93.55859375 202.02783203 C90.33310383 200.18102415 87.10447684 198.33982472 83.875 196.5 C82.90288574 195.94175537 81.93077148 195.38351074 80.92919922 194.80834961 C79.59912842 194.0524353 79.59912842 194.0524353 78.2421875 193.28125 C77.4672998 192.83845703 76.69241211 192.39566406 75.89404297 191.93945312 C74.0537536 190.85188416 74.0537536 190.85188416 72 191 C70.9923048 192.7664657 69.99408286 194.53833823 69 196.3125 C68.443125 197.29863281 67.88625 198.28476562 67.3125 199.30078125 C65.78135247 201.94942471 65.78135247 201.94942471 66 205 C66.54076172 205.2902002 67.08152344 205.58040039 67.63867188 205.87939453 C78.53419172 211.74041705 89.33817387 217.7226962 100 224 C108.55620532 229.03557909 117.19006816 233.88417168 125.92407227 238.60375977 C133.89891489 242.92050975 141.77025872 247.40469727 149.6328125 251.921875 C157.25351853 256.29990722 164.90952426 260.61534037 172.56640625 264.9296875 C176.02117113 266.87721757 179.46655562 268.83950779 182.90234375 270.8203125 C184.01355591 271.45706909 184.01355591 271.45706909 185.1472168 272.10668945 C186.50712903 272.88651141 187.86427374 273.67118831 189.21801758 274.46166992 C192.04186217 276.074364 193.6885497 277 197 277 C197.33 277.99 197.66 278.98 198 280 C200.08812458 281.45644757 200.08812458 281.45644757 202.5625 282.6875 C203.38878906 283.12449219 204.21507812 283.56148438 205.06640625 284.01171875 C205.70449219 284.33785156 206.34257812 284.66398437 207 285 C203.88022017 287.4700005 200.6342721 289.39385318 197.14453125 291.30078125 C196.57418152 291.61375656 196.00383179 291.92673187 195.41619873 292.24919128 C194.18891787 292.92231737 192.96089643 293.59409463 191.73220825 294.26464844 C188.45857611 296.05152441 185.19065754 297.84880415 181.921875 299.64453125 C181.25736832 300.00922516 180.59286163 300.37391907 179.90821838 300.74966431 C173.44147946 304.30080897 166.99889044 307.89411519 160.5625 311.5 C159.02057983 312.36020752 159.02057983 312.36020752 157.44750977 313.23779297 C153.10250222 315.66764861 148.77491114 318.11243798 144.51171875 320.68359375 C143.86195068 321.07160156 143.21218262 321.45960938 142.54272461 321.859375 C140.91152337 322.84036161 139.29106296 323.83915271 137.671875 324.83984375 C134.42650047 326.24901953 133.36045018 325.94610162 130 325 C128.10484413 324.09228557 126.24451322 323.1101189 124.4140625 322.078125 C123.33044434 321.47154053 122.24682617 320.86495605 121.13037109 320.23999023 C119.9618324 319.57680402 118.79337747 318.9134702 117.625 318.25 C116.40869696 317.56589867 115.19205814 316.882394 113.97509766 316.19946289 C110.89200071 314.46709889 107.81348139 312.7267857 104.73657227 310.98345947 C102.15425234 309.5210343 99.56920337 308.06345449 96.984375 306.60546875 C93.23504856 304.48907009 89.48803929 302.36863518 85.7421875 300.24609375 C79.67286778 296.81029468 73.58727228 293.40386307 67.5 290 C58.54062315 284.98946746 49.59717993 279.9517093 40.6640625 274.89453125 C33.62053653 270.90963231 26.56309283 266.95010006 19.5 263 C10.54494451 257.9918023 1.60491241 252.95797192 -7.32275391 247.90112305 C-13.41898923 244.45071042 -19.52922969 241.02632694 -25.64672852 237.61376953 C-36.51670992 231.54867668 -47.3119744 225.38047195 -58 219 C-57.30895418 212.55326996 -55.55142743 206.52811221 -53.75 200.3125 C-51.51646645 192.48629876 -49.36133143 184.65819888 -47.4375 176.75 C-45.58459629 169.15362703 -43.4914639 161.65035436 -41.30273438 154.14453125 C-39.05629525 146.36530216 -37.10841015 138.52420406 -35.17993164 130.66113281 C-33.58783578 124.21775369 -31.82723812 117.85886185 -29.89428711 111.51074219 C-28.05681086 105.39021198 -26.52238381 99.20545278 -25 93 C-23.14508483 85.43910214 -21.16216649 77.95834029 -18.89453125 70.51171875 C-17.05709066 64.39081792 -15.52257797 58.20576118 -14 52 C-12.14199196 44.43180038 -10.16860327 36.93532507 -7.90551758 29.47875977 C-4.97412281 19.7354521 -2.52292873 9.85523119 0 0 Z " fill="#FDF000" transform="translate(279,118)"/>
<path d="M0 0 C0.16604736 0.64960693 0.33209473 1.29921387 0.50317383 1.96850586 C1.26961522 4.95903627 2.04102548 7.94826422 2.8125 10.9375 C3.07353516 11.95908203 3.33457031 12.98066406 3.60351562 14.03320312 C4.99621081 19.41485243 6.52622163 24.68536635 8.33227539 29.94165039 C9.37745171 33.16354493 10.08553142 36.44378673 10.8125 39.75 C12.28533598 46.25708532 14.00199517 52.65970316 15.875 59.0625 C18.09669757 66.6689186 20.11432114 74.30349025 22 82 C24.08647386 90.5101686 26.36656522 98.93661533 28.8203125 107.34765625 C30.75434585 114.02057761 32.45840476 120.73286014 34.10571289 127.48144531 C35.81445407 134.41440237 37.76551585 141.26364542 39.76293945 148.11816406 C41.77958496 155.09150169 43.57979842 162.1051632 45.26367188 169.16601562 C46.1959716 173.02190333 47.2275213 176.78172811 48.515625 180.53515625 C49.99960446 184.86496224 51.0750702 189.22171665 52.0625 193.6875 C52.9391793 197.62023406 53.81270294 201.45377129 55.12109375 205.26953125 C56 208 56 208 56 212 C53.515625 213.88671875 53.515625 213.88671875 50.25 215.6875 C49.18265625 216.28949219 48.1153125 216.89148438 47.015625 217.51171875 C44.59866405 218.70454533 42.6271391 219.52175866 40 220 C40 220.66 40 221.32 40 222 C38.82244141 222.56267578 38.82244141 222.56267578 37.62109375 223.13671875 C31.66337638 226.03882156 26.28318553 229.01065582 21 233 C16.44827586 236 16.44827586 236 13 236 C13 236.66 13 237.32 13 238 C11.82244141 238.56267578 11.82244141 238.56267578 10.62109375 239.13671875 C4.66337638 242.03882156 -0.71681447 245.01065582 -6 249 C-10.55172414 252 -10.55172414 252 -14 252 C-14 252.66 -14 253.32 -14 254 C-15.17755859 254.56267578 -15.17755859 254.56267578 -16.37890625 255.13671875 C-22.34441509 258.04261692 -27.68833177 261.04228642 -33 265 C-34.67861472 265.98183125 -36.35810859 266.96280409 -38.05859375 267.90625 C-40.36040393 269.20304447 -42.61542497 270.56848391 -44.875 271.9375 C-48.19018643 273.92863332 -51.51387905 275.89975683 -54.875 277.8125 C-55.57367187 278.21082031 -56.27234375 278.60914063 -56.9921875 279.01953125 C-58.98792806 279.99410495 -60.83153434 280.54783115 -63 281 C-63 281.66 -63 282.32 -63 283 C-64.3125 283.72916667 -65.625 284.45833333 -66.9375 285.1875 C-67.75734375 285.64382813 -68.5771875 286.10015625 -69.421875 286.5703125 C-71.07516163 287.48713509 -72.73118694 288.39904647 -74.390625 289.3046875 C-77.82368968 291.18469911 -81.16841183 293.06392953 -84.375 295.3125 C-87 297 -87 297 -90 297 C-90 297.66 -90 298.32 -90 299 C-90.78503906 299.37511719 -91.57007813 299.75023437 -92.37890625 300.13671875 C-98.33662362 303.03882156 -103.71681447 306.01065582 -109 310 C-113.55172414 313 -113.55172414 313 -117 313 C-117 313.66 -117 314.32 -117 315 C-117.84304688 315.40992188 -118.68609375 315.81984375 -119.5546875 316.2421875 C-120.65039062 316.78101563 -121.74609375 317.31984375 -122.875 317.875 C-123.96554687 318.40867187 -125.05609375 318.94234375 -126.1796875 319.4921875 C-129.03882547 320.84535937 -129.03882547 320.84535937 -131 323 C-135.55009694 322.68707288 -138.81971368 321.26975259 -142.75390625 319.04296875 C-143.84550049 318.43074463 -144.93709473 317.81852051 -146.06176758 317.18774414 C-147.22880911 316.52122493 -148.39571698 315.85447164 -149.5625 315.1875 C-150.77131261 314.50504079 -151.98054608 313.82332654 -153.19018555 313.14233398 C-156.22920067 311.42833887 -159.26194626 309.70360911 -162.29223633 307.97424316 C-164.84396008 306.51853857 -167.39886328 305.068433 -169.953125 303.6171875 C-174.21141205 301.19294149 -178.46287479 298.75705171 -182.7109375 296.31494141 C-186.24119756 294.28699978 -189.77688585 292.26858741 -193.3125 290.25 C-195.20833333 289.16666667 -197.10416667 288.08333333 -199 287 C-199 286.34 -199 285.68 -199 285 C-198.39341553 284.67427002 -197.78683105 284.34854004 -197.16186523 284.01293945 C-185.98783034 278.00517972 -174.84197547 271.95743287 -163.8125 265.6875 C-155.15993276 260.76896991 -146.46887683 255.92462493 -137.75 251.125 C-137.13913544 250.78867554 -136.52827087 250.45235107 -135.89889526 250.10583496 C-134.98105759 249.60050232 -134.98105759 249.60050232 -134.04467773 249.08496094 C-132.80842428 248.40430907 -131.57217753 247.72364501 -130.3359375 247.04296875 C-129.72389969 246.70600983 -129.11186188 246.3690509 -128.48127747 246.0218811 C-121.00266844 241.9027071 -113.5396981 237.75540331 -106.0793457 233.60327148 C-100.82605264 230.67968281 -95.57056342 227.7603729 -90.30517578 224.85862732 C-87.78814947 223.47125215 -85.27248203 222.0814231 -82.75689697 220.69143677 C-81.55310374 220.02718795 -80.34864501 219.36414362 -79.14349365 218.70236206 C-77.47808783 217.78771663 -75.81515412 216.86857423 -74.15234375 215.94921875 C-73.20351318 215.42674561 -72.25468262 214.90427246 -71.27709961 214.3659668 C-68.90869066 213.07044226 -68.90869066 213.07044226 -67 211 C-67.5053125 210.15695312 -68.010625 209.31390625 -68.53125 208.4453125 C-69.50578125 206.80175781 -69.50578125 206.80175781 -70.5 205.125 C-71.47453125 203.48917969 -71.47453125 203.48917969 -72.46875 201.8203125 C-74 199 -74 199 -74 197 C-86.74061439 203.84158639 -99.42720773 210.76219743 -111.99829102 217.91088867 C-119.79699239 222.33856826 -127.64197656 226.67894036 -135.5 231 C-144.19582867 235.78261366 -152.8701069 240.59899754 -161.5 245.5 C-169.70015996 250.15175369 -177.92261303 254.76160118 -186.17089844 259.32739258 C-187.40371162 260.0101496 -188.6359976 260.6938597 -189.86767578 261.37866211 C-214.37860907 275 -214.37860907 275 -217 275 C-217.79877163 242.65408779 -218.26345697 210.31239771 -218.53242874 177.95796585 C-218.56293888 174.32270734 -218.59464879 170.687461 -218.62667847 167.05221558 C-218.94569221 130.7008047 -219.15398716 94.35281436 -219 58 C-215.53962465 57.04872416 -212.07847235 56.10030449 -208.6171875 55.15234375 C-207.65063232 54.88659546 -206.68407715 54.62084717 -205.68823242 54.3470459 C-199.52124555 52.65985138 -193.33877866 51.06759234 -187.125 49.5625 C-178.577206 47.46487657 -170.15405037 45.02458313 -161.71801758 42.51806641 C-155.28064329 40.62102982 -148.84093855 38.95051225 -142.29345703 37.48583984 C-135.78836207 36.00818934 -129.40952712 34.1476816 -123.00708008 32.28100586 C-117.03418251 30.55093643 -111.04105123 28.97328165 -105 27.5 C-96.22887433 25.35752765 -87.56349144 22.91347182 -78.890625 20.40625 C-69.94520351 17.82278464 -60.94417101 15.47337696 -51.90332031 13.24804688 C-42.18748126 10.85379994 -32.56946585 8.20431895 -22.95703125 5.42578125 C-18.43962537 4.12121953 -13.91415686 2.85172328 -9.375 1.625 C-8.20710937 1.30789062 -7.03921875 0.99078125 -5.8359375 0.6640625 C-3 0 -3 0 0 0 Z " fill="#15FD00" transform="translate(721,118)"/>
<path d="M0 0 C1.20005531 2.0978523 2.38502983 4.2020249 3.5625 6.3125 C3.90474609 6.90740234 4.24699219 7.50230469 4.59960938 8.11523438 C5.47766262 9.70282559 6.24586268 11.34993931 7 13 C5.71847272 16.84458185 4.55679476 17.05919723 1.0234375 18.8984375 C-0.02755127 19.45321777 -1.07854004 20.00799805 -2.16137695 20.57958984 C-3.30437256 21.1720752 -4.44736816 21.76456055 -5.625 22.375 C-8.02984206 23.64112423 -10.4308405 24.9144678 -12.83203125 26.1875 C-13.440504 26.50899017 -14.04897675 26.83048035 -14.67588806 27.16171265 C-20.28126813 30.12986453 -25.80445374 33.23091787 -31.3125 36.375 C-39.92180673 41.27570542 -48.57171249 46.09793602 -57.25 50.875 C-58.48234936 51.55361347 -59.71468984 52.23224304 -60.94702148 52.91088867 C-61.55772995 53.24719803 -62.16843842 53.58350739 -62.7976532 53.93000793 C-63.40841202 54.2663475 -64.01917084 54.60268707 -64.6484375 54.94921875 C-65.25963943 55.28575974 -65.87084137 55.62230072 -66.50056458 55.96903992 C-81.66653555 64.32212585 -96.7993557 72.73489674 -111.875 81.25 C-113.30175049 82.05570435 -113.30175049 82.05570435 -114.75732422 82.87768555 C-115.6392041 83.37695557 -116.52108398 83.87622559 -117.4296875 84.390625 C-118.64156738 85.07608398 -118.64156738 85.07608398 -119.87792969 85.77539062 C-121.59056635 86.76372306 -123.27327164 87.80381605 -124.9453125 88.859375 C-127 90 -127 90 -130 90 C-131.20005531 87.9021477 -132.38502983 85.7979751 -133.5625 83.6875 C-133.90474609 83.09259766 -134.24699219 82.49769531 -134.59960938 81.88476562 C-135.47766262 80.29717441 -136.24586268 78.65006069 -137 77 C-135.67429757 73.0228927 -134.15827173 72.70100961 -130.5078125 70.734375 C-129.93918488 70.42440582 -129.37055725 70.11443665 -128.78469849 69.79507446 C-126.90265453 68.7714544 -125.01386219 67.76097446 -123.125 66.75 C-121.80509562 66.03441338 -120.48576653 65.31776471 -119.16699219 64.60009766 C-116.44622997 63.12017016 -113.72335979 61.64423513 -110.99902344 60.17089844 C-105.05700966 56.95184632 -99.15374915 53.66362491 -93.25 50.375 C-92.14092285 49.75850586 -91.0318457 49.14201172 -89.88916016 48.50683594 C-81.38680691 43.77930395 -72.89838778 39.02709343 -64.41308594 34.26904297 C-55.66840264 29.36788898 -46.90812072 24.49512787 -38.13867188 19.63842773 C-32.35756893 16.43385038 -26.59024892 13.20748048 -20.84375 9.94140625 C-19.68302027 9.28371726 -18.52221421 8.62616297 -17.36132812 7.96875 C-15.16428512 6.72278023 -12.97013749 5.47168742 -10.77929688 4.21484375 C-9.80025391 3.66054688 -8.82121094 3.10625 -7.8125 2.53515625 C-6.52279297 1.79857788 -6.52279297 1.79857788 -5.20703125 1.04711914 C-3 0 -3 0 0 0 Z " fill="#040200" transform="translate(376,466)"/>
<path d="M0 0 C5.56774247 1.55753567 10.17546492 4.22658101 15.125 7.125 C17.00767129 8.21378587 18.89049168 9.30231396 20.7734375 10.390625 C21.77858398 10.97392578 22.78373047 11.55722656 23.81933594 12.15820312 C29.45039639 15.41892772 35.10048568 18.64640137 40.75 21.875 C41.34274719 22.21404358 41.93549438 22.55308716 42.54620361 22.90240479 C51.85411302 28.22575422 61.19772494 33.4829304 70.56103516 38.70825195 C79.62325874 43.77252003 88.63928011 48.91577556 97.64428711 54.08081055 C103.34042095 57.34649973 109.04553936 60.59407797 114.77734375 63.796875 C115.83872559 64.39105225 116.90010742 64.98522949 117.99365234 65.59741211 C119.98771229 66.71183304 121.98401534 67.82225314 123.98291016 68.92797852 C124.86640137 69.42225342 125.74989258 69.91652832 126.66015625 70.42578125 C127.42980713 70.85286377 128.19945801 71.27994629 128.99243164 71.7199707 C130.95448056 72.97097672 132.4315239 74.29066334 134 76 C133.071875 76.309375 133.071875 76.309375 132.125 76.625 C129.15525744 78.54659813 129.05931465 80.68964171 128 84 C125.875 86.375 125.875 86.375 124 88 C119.94323545 86.74885179 116.37517495 85.25475619 112.68359375 83.1640625 C111.68312012 82.60066162 110.68264648 82.03726074 109.65185547 81.45678711 C108.59111816 80.85229736 107.53038086 80.24780762 106.4375 79.625 C105.32777832 78.99795166 104.21805664 78.37090332 103.07470703 77.72485352 C99.71288569 75.82280202 96.35562298 73.91296217 93 72 C92.0601123 71.46455566 91.12022461 70.92911133 90.15185547 70.37744141 C85.83648099 67.91706702 81.52476843 65.4503746 77.21484375 62.98046875 C71.80153866 59.88146639 66.370476 56.81434808 60.9375 53.75 C51.72462424 48.55303343 42.53898088 43.30935587 33.3605957 38.05181885 C23.51915256 32.41649089 13.63944829 26.85334758 3.72900391 21.34008789 C2.75495605 20.79731201 1.7809082 20.25453613 0.77734375 19.6953125 C-0.07609619 19.22109863 -0.92953613 18.74688477 -1.80883789 18.25830078 C-3.58049343 17.24090662 -5.30012018 16.13325321 -7 15 C-6.42176904 10.93774452 -5.10882263 8.15237654 -2.9375 4.6875 C-2.38964844 3.80449219 -1.84179688 2.92148437 -1.27734375 2.01171875 C-0.64505859 1.01591797 -0.64505859 1.01591797 0 0 Z " fill="#040400" transform="translate(351,308)"/>
<path d="M0 0 C17.38712187 9.48388466 34.77146498 18.97983922 52 28.75 C52.84675293 29.22646973 53.69350586 29.70293945 54.56591797 30.19384766 C58.65851268 32.52874161 62.41609319 34.90743525 66 38 C64.08702939 39.15199331 62.16947471 40.29637688 60.25 41.4375 C59.18265625 42.07558594 58.1153125 42.71367187 57.015625 43.37109375 C54.56515029 44.69473099 52.71008663 45.53297051 50 46 C50 46.66 50 47.32 50 48 C48.6875 48.72916667 47.375 49.45833333 46.0625 50.1875 C45.24265625 50.64382813 44.4228125 51.10015625 43.578125 51.5703125 C41.92483837 52.48713509 40.26881306 53.39904647 38.609375 54.3046875 C35.17631032 56.18469911 31.83158817 58.06392953 28.625 60.3125 C26 62 26 62 23 62 C23 62.66 23 63.32 23 64 C22.32195313 64.36351562 21.64390625 64.72703125 20.9453125 65.1015625 C15.18881019 68.21103051 9.54718414 71.4345571 3.99609375 74.8984375 C2 76 2 76 0 76 C0 50.92 0 25.84 0 0 Z " fill="#16FB02" transform="translate(505,414)"/>
<path d="M0 0 C2.7726776 2.61831011 4.91432181 5.12859118 6.8125 8.4375 C7.25207031 9.17871094 7.69164062 9.91992188 8.14453125 10.68359375 C9.25626644 13.69390866 9.11397466 14.98814258 8 18 C6.38432038 20.01382924 4.80261781 21.7982548 3 23.625 C1.98583343 24.68907861 0.97415158 25.75553038 -0.03515625 26.82421875 C-0.53934082 27.35708496 -1.04352539 27.88995117 -1.56298828 28.43896484 C-3.63126201 30.68574401 -5.53327497 33.05110423 -7.4375 35.4375 C-11.44401004 40.42564135 -15.71480092 45.1110457 -20.10327148 49.76147461 C-22.87424993 52.64455051 -22.87424993 52.64455051 -25 56 C-24.36070557 55.82041748 -23.72141113 55.64083496 -23.06274414 55.45581055 C-14.13875274 53.07848317 -5.14004078 51.61084103 3.97583008 50.21020508 C6.58968795 49.80831981 9.20211349 49.39795623 11.81445312 48.98632812 C13.4816948 48.72607494 15.14900992 48.46629171 16.81640625 48.20703125 C17.59448135 48.08519974 18.37255646 47.96336823 19.17420959 47.83784485 C22.14880137 47.38272614 24.98576415 47 28 47 C29.36680153 49.26404542 30.71844445 51.53501021 32.0625 53.8125 C32.45244141 54.45509766 32.84238281 55.09769531 33.24414062 55.75976562 C34.24130759 57.4628915 35.12812687 59.22945858 36 61 C35.67 61.99 35.34 62.98 35 64 C33.94538574 64.13051758 32.89077148 64.26103516 31.80419922 64.39550781 C27.74105463 64.89877965 23.67810227 65.40358769 19.61523438 65.90908813 C17.79136627 66.1359951 15.9674731 66.36270068 14.14355469 66.58920288 C4.73833944 67.75826762 -4.66464829 68.93666037 -14.0546875 70.22265625 C-14.74096222 70.31628448 -15.42723694 70.40991272 -16.13430786 70.50637817 C-19.30955012 70.9405119 -22.48369645 71.38109202 -25.65673828 71.83105469 C-31.50197596 72.63723657 -37.09899109 73.19525397 -43 73 C-44.06368149 71.28428776 -45.10028172 69.55176399 -46.125 67.8125 C-46.70507812 66.84957031 -47.28515625 65.88664063 -47.8828125 64.89453125 C-49 62 -49 62 -48.53125 59.5546875 C-46.48329862 56.13795228 -44.02363474 53.27690376 -41.375 50.3125 C-40.28129517 49.06359961 -39.18885016 47.81359484 -38.09765625 46.5625 C-37.29932373 45.64984375 -37.29932373 45.64984375 -36.48486328 44.71875 C-33.87106196 41.69323844 -31.40147846 38.55724136 -28.921875 35.421875 C-25.33623264 30.90338259 -21.65876306 26.45931292 -18 22 C-16.49971683 20.16689838 -14.99971592 18.33356573 -13.5 16.5 C-9 11 -4.5 5.5 0 0 Z " fill="#050200" transform="translate(216,520)"/>
<path d="M0 0 C1.86328125 1.79296875 1.86328125 1.79296875 3.3125 4.1875 C4.04919922 5.35345703 4.04919922 5.35345703 4.80078125 6.54296875 C7.04225037 11.13542502 7.04225037 11.13542502 7 14 C5.33487806 16.68120979 3.21979065 18.8951604 1.0625 21.1875 C-0.15113797 22.52868384 -1.36338015 23.87113206 -2.57421875 25.21484375 C-3.16638184 25.86437012 -3.75854492 26.51389648 -4.36865234 27.18310547 C-6.4212381 29.46914905 -8.34851966 31.83732739 -10.25 34.25 C-14.43308776 39.55559349 -18.71535974 44.7762605 -23 50 C-23.7321875 50.8971875 -24.464375 51.794375 -25.21875 52.71875 C-26.69536684 54.52812556 -28.17452764 56.33542804 -29.65625 58.140625 C-31.35091568 60.20811713 -33.03725174 62.28125215 -34.71875 64.359375 C-35.62474555 65.46895781 -36.53099019 66.57833729 -37.4375 67.6875 C-38.26121094 68.70199219 -39.08492187 69.71648437 -39.93359375 70.76171875 C-40.61550781 71.50035156 -41.29742188 72.23898437 -42 73 C-42.66 73 -43.32 73 -44 73 C-45.39521556 70.76046944 -46.76562784 68.5111339 -48.125 66.25 C-48.52332031 65.61578125 -48.92164063 64.9815625 -49.33203125 64.328125 C-52.12932881 59.616887 -52.12932881 59.616887 -51.55859375 56.89453125 C-49.43960137 54.3188137 -47.23763835 51.85045168 -44.9375 49.4375 C-41.31013008 45.56324103 -37.82453427 41.64214125 -34.5 37.5 C-30.70157244 32.77260918 -26.68856943 28.30242807 -22.54101562 23.8828125 C-19.96889661 21.160713 -19.96889661 21.160713 -18 18 C-18.60499329 18.10244522 -19.20998657 18.20489044 -19.83331299 18.31044006 C-26.12571546 19.37431953 -32.41993425 20.42689448 -38.71533203 21.47290039 C-41.0651021 21.86485333 -43.41439235 22.25969417 -45.76318359 22.6574707 C-49.13777889 23.22845736 -52.51395886 23.78906401 -55.890625 24.34765625 C-56.94179504 24.52780777 -57.99296509 24.70795929 -59.07598877 24.89356995 C-60.05670349 25.05381149 -61.03741821 25.21405304 -62.04785156 25.37915039 C-63.3402475 25.59566002 -63.3402475 25.59566002 -64.65875244 25.81654358 C-67.10839033 26.00849329 -68.71797458 25.90525213 -71 25 C-72.44036586 22.84823392 -73.60483691 20.86019848 -74.75 18.5625 C-75.06582031 17.96373047 -75.38164063 17.36496094 -75.70703125 16.74804688 C-78 12.31596659 -78 12.31596659 -78 10 C-67.88996868 8.40711184 -57.76310952 6.96313705 -47.625 5.5625 C-46.44777374 5.39967026 -46.44777374 5.39967026 -45.24676514 5.23355103 C-39.83171529 4.48508866 -34.41601513 3.74144147 -29 3 C-27.11474609 2.74138184 -27.11474609 2.74138184 -25.19140625 2.47753906 C-22.00326824 2.04238175 -18.81440395 1.61326609 -15.625 1.1875 C-14.2649585 1.00199585 -14.2649585 1.00199585 -12.87744141 0.81274414 C-3.38317568 -0.43621156 -3.38317568 -0.43621156 0 0 Z " fill="#000400" transform="translate(718,275)"/>
<path d="M0 0 C0 23.43 0 46.86 0 71 C-18.29304788 61.85347606 -18.29304788 61.85347606 -26.9375 56.875 C-28.88510194 55.76377113 -30.83303179 54.65311682 -32.78125 53.54296875 C-33.78285156 52.9711084 -34.78445313 52.39924805 -35.81640625 51.81005859 C-41.50758483 48.57429188 -47.223295 45.3823548 -52.9375 42.1875 C-54.0402124 41.57052246 -55.1429248 40.95354492 -56.27905273 40.31787109 C-58.85245779 38.87814364 -61.42610083 37.43884383 -64 36 C-61.47318166 33.13900347 -58.65035097 31.55092815 -55.3125 29.734375 C-54.74570526 29.423862 -54.17891052 29.113349 -53.59494019 28.79342651 C-51.73246495 27.77428869 -49.86621782 26.76226542 -48 25.75 C-46.70556023 25.04276172 -45.41145612 24.33490873 -44.11767578 23.62646484 C-41.43389 22.15711228 -38.74901328 20.68978244 -36.06347656 19.22363281 C-30.24572616 16.04388505 -24.44669775 12.83046956 -18.65087891 9.61096191 C-16.89955272 8.63863159 -15.1470499 7.66842157 -13.39453125 6.69824219 C-12.33363281 6.10946289 -11.27273438 5.52068359 -10.1796875 4.9140625 C-8.78339111 4.1398999 -8.78339111 4.1398999 -7.35888672 3.35009766 C-1.50560579 0 -1.50560579 0 0 0 Z " fill="#FBED02" transform="translate(494,419)"/>
<path d="M0 0 C13.00026316 0.51887186 25.71776075 2.45605044 38.5625 4.4375 C40.63988513 4.75383906 42.71735876 5.06959755 44.79492188 5.38476562 C47.80589884 5.84169829 50.81679441 6.29910272 53.82730103 6.75912476 C61.2117588 7.88690097 68.60148019 8.96796741 76 10 C74.6921212 15.95000656 71.09508693 20.82276369 68 26 C56.58349261 24.69542295 45.30505077 22.92315763 34 20.875 C32.43496408 20.59467082 30.86986011 20.31472126 29.3046875 20.03515625 C25.53566403 19.3611193 21.76758304 18.68204032 18 18 C19.40466704 19.73045281 20.81130832 21.45930316 22.21875 23.1875 C23.00185547 24.15042969 23.78496094 25.11335938 24.59179688 26.10546875 C26.83341396 28.7997725 29.13712321 31.41198222 31.5 34 C35.4907474 38.38144994 39.26982883 42.90043637 42.97265625 47.52734375 C44.6386903 49.55932748 46.36757412 51.42352545 48.1875 53.3125 C50 56 50 56 49.6875 58.75 C47.32753596 63.29511593 44.72444463 67.66487741 42 72 C37.78150367 67.94739959 34.07134864 63.59205873 30.375 59.0625 C29.75818359 58.31033203 29.14136719 57.55816406 28.50585938 56.78320312 C24.3371811 51.68336197 20.2463557 46.52800682 16.20043945 41.33056641 C11.27594685 35.02685412 6.16799936 28.87536846 1.06640625 22.71484375 C0.53797119 22.07297119 0.00953613 21.43109863 -0.53491211 20.76977539 C-1.81127251 19.22797626 -3.10712933 17.70235815 -4.40625 16.1796875 C-6 14 -6 14 -6.0625 11.1875 C-4.66532465 6.99597394 -2.46240407 3.63737714 0 0 Z " fill="#050500" transform="translate(281,271)"/>
<path d="M0 0 C4.08018503 1.552553 6.37753323 4.46307245 9.0625 7.75 C9.54291748 8.32782227 10.02333496 8.90564453 10.51831055 9.50097656 C14.31547589 14.09497083 18.00042755 18.77547747 21.65795898 23.48095703 C25.39155658 28.27086066 29.2468976 32.95173589 33.125 37.625 C35.42254546 40.41187816 37.71295849 43.20449832 40 46 C40.49967285 46.6074707 40.9993457 47.21494141 41.51416016 47.84082031 C42.83925433 49.46430131 44.14191744 51.10293118 45.4375 52.75 C46.15808594 53.65234375 46.87867188 54.5546875 47.62109375 55.484375 C49 58 49 58 48.8828125 60.55859375 C47.97543718 63.06792816 46.90736768 65.08885402 45.4375 67.3125 C44.98246094 68.00988281 44.52742187 68.70726562 44.05859375 69.42578125 C43.70925781 69.94527344 43.35992188 70.46476563 43 71 C24.49663199 69.95195767 6.13296965 67.06650265 -12.1875 64.375 C-13.31325943 64.20985901 -13.31325943 64.20985901 -14.46176147 64.04138184 C-16.6141125 63.72477025 -18.76611324 63.40589797 -20.91796875 63.0859375 C-22.16344482 62.9007959 -23.4089209 62.7156543 -24.69213867 62.52490234 C-27.48036212 62.08245785 -30.23771328 61.58018838 -33 61 C-31.89898816 56.816155 -30.15120552 53.4380337 -27.9140625 49.7734375 C-27.09736084 48.43031494 -27.09736084 48.43031494 -26.26416016 47.06005859 C-25.8469873 46.38023926 -25.42981445 45.70041992 -25 45 C-24.26700684 45.13575439 -23.53401367 45.27150879 -22.77880859 45.41137695 C-6.89412672 48.33880663 8.97263513 50.98840216 25 53 C24.45472656 52.40574219 23.90945313 51.81148437 23.34765625 51.19921875 C19.27614316 46.72403427 15.30526067 42.20456389 11.5 37.5 C8.50892775 33.80299287 5.44209355 30.2125437 2.25 26.6875 C1.14785156 25.46546875 1.14785156 25.46546875 0.0234375 24.21875 C-1.20569886 22.87097113 -2.44734069 21.53427544 -3.7109375 20.21875 C-5.125 18.6875 -5.125 18.6875 -7 16 C-6.65592578 11.85706557 -4.96406417 8.76632608 -2.9375 5.1875 C-2.11572266 3.72376953 -2.11572266 3.72376953 -1.27734375 2.23046875 C-0.85582031 1.49441406 -0.43429687 0.75835938 0 0 Z " fill="#010304" transform="translate(765,514)"/>
</svg>
