<?xml version="1.0" encoding="UTF-8"?>
<svg version="1.1" xmlns="http://www.w3.org/2000/svg" width="1000" height="1000">
<path d="M0 0 C330 0 660 0 1000 0 C1000 330 1000 660 1000 1000 C670 1000 340 1000 0 1000 C0 670 0 340 0 0 Z " fill="#FEFEFE" transform="translate(0,0)"/>
<path d="M0 0 C1.55843377 0.41946633 3.11694862 0.83863152 4.67553711 1.25752258 C8.03639723 2.1614307 11.39671674 3.06731219 14.75662231 3.97476196 C20.13956936 5.42857104 25.52365501 6.87812995 30.90795898 8.3269043 C36.65824447 9.87430595 42.40847533 11.42190792 48.15834045 12.97087097 C62.88220995 16.93693085 77.6100916 20.88787966 92.33984375 24.83203125 C94.50935437 25.41303235 96.67886426 25.99403617 98.84837341 26.57504272 C107.30693225 28.84017269 115.76556892 31.10501166 124.22439575 33.36914062 C129.17323431 34.69381657 134.12182153 36.01942854 139.07031059 37.34540939 C141.89943394 38.10308665 144.72888547 38.8595289 147.55836487 39.61587524 C156.18831756 41.92551919 164.80965194 44.26058828 173.41357422 46.66552734 C174.95529103 47.09438826 176.49703327 47.52315776 178.0388031 47.951828 C180.8495842 48.73357451 183.65679054 49.52665661 186.46229553 50.32710266 C187.6928215 50.66992783 188.92334747 51.01275299 190.19116211 51.3659668 C191.24782578 51.66544724 192.30448944 51.96492767 193.39317322 52.27348328 C199.62471477 53.54425773 204.7984839 52.7905617 210.8840332 51.14404297 C211.59390821 50.95457627 212.30378323 50.76510958 213.0351696 50.56990147 C215.3955497 49.93768294 217.75235813 49.29307147 220.109375 48.6484375 C221.80238877 48.19234648 223.49561651 47.73704913 225.18904114 47.28248596 C229.77401636 46.04948923 234.35605035 44.80587061 238.93766022 43.56043625 C243.76578085 42.25005927 248.59661131 40.94975363 253.42724609 39.64868164 C261.45709242 37.48489316 269.48553732 35.31597819 277.51318359 33.14404297 C288.87432333 30.07098907 300.24082103 27.01815242 311.609375 23.97265625 C313.39008721 23.49549354 315.17079807 23.0183258 316.95150757 22.54115295 C323.89182155 20.68156789 330.83233192 18.82271652 337.77294922 16.96426392 C342.79158475 15.62031321 347.80997094 14.27543482 352.828125 12.9296875 C353.63030079 12.71458464 354.43247658 12.49948177 355.25896072 12.27786064 C365.53582506 9.52091454 375.80448789 6.73578235 386.06439209 3.91638756 C390.35167953 2.73929297 394.64075917 1.56873158 398.92938232 0.39651489 C402.20343349 -0.50237818 405.47404131 -1.41306405 408.74462891 -2.32446289 C410.66813545 -2.85100371 412.59179035 -3.37700302 414.515625 -3.90234375 C415.79200081 -4.26451492 415.79200081 -4.26451492 417.09416199 -4.63400269 C424.84386256 -6.72465218 424.84386256 -6.72465218 428.49609375 -5.09375 C431.6395269 -0.82167177 432.76372249 3.80775684 434.07714844 8.85668945 C434.31710761 9.75359466 434.55706678 10.65049986 434.80429745 11.57458401 C435.59954368 14.55432963 436.38372303 17.53687323 437.16796875 20.51953125 C437.72805024 22.62642573 438.28883997 24.73313205 438.85029602 26.83966064 C440.34865491 32.46882953 441.83765513 38.10043373 443.3247261 43.73259354 C444.85643741 49.52809253 446.39607585 55.32148364 447.93530273 61.11499023 C449.76523164 68.00426824 451.59451451 74.89371328 453.41990662 81.78419495 C456.76556963 94.4112254 460.13318382 107.03181729 463.546875 119.640625 C463.90754264 120.97473001 464.26815006 122.3088513 464.62869263 123.64299011 C466.54691771 130.73853238 466.54691771 130.73853238 468.47570801 137.83120728 C473.80861752 157.39241546 473.80861752 157.39241546 475.13452148 166.55493164 C475.6523144 169.92215887 476.52930163 173.07705008 477.49609375 176.34375 C477.82609375 177.47683594 478.15609375 178.60992187 478.49609375 179.77734375 C479.43646852 182.85166216 479.43646852 182.85166216 480.5625 185.5546875 C481.43523729 187.75296301 481.97760919 189.77908552 482.43359375 192.09375 C483.30556974 196.19676878 484.40141395 200.17353535 485.66796875 204.171875 C486.25903281 206.1235016 486.78324746 208.09588678 487.26171875 210.078125 C489.5078061 218.77660875 493.17461268 223.66002466 499.49609375 229.90625 C500.69621229 231.27025027 501.88468046 232.64463223 503.05859375 234.03125 C505.4110297 236.74142966 507.86143085 239.27914601 510.43359375 241.78125 C513.34933576 244.63009162 515.80864904 247.57868431 518.24609375 250.84375 C522.21404375 255.9759488 526.76308131 259.34693854 532.0546875 262.99609375 C534.49609375 264.90625 534.49609375 264.90625 535.49609375 267.90625 C536.82268796 268.58622797 538.15751251 269.25018409 539.49609375 269.90625 C541.15604406 271.37730944 542.76354461 272.90822143 544.33622742 274.472229 C545.0447084 275.17285497 545.0447084 275.17285497 545.76750213 275.88763499 C547.34677601 277.45192309 548.91883505 279.02326307 550.4909668 280.59472656 C551.62253355 281.71867102 552.75450167 282.84221152 553.88684082 283.96537781 C556.95975728 287.01635271 560.0260788 290.07387263 563.09058356 293.13329411 C565.00524506 295.04431245 566.92119833 296.95402594 568.83759499 298.86330414 C575.52253684 305.52375528 582.20174161 312.18990462 588.8762207 318.86083984 C595.09922988 325.08021131 601.33525377 331.28632177 607.57733315 337.48654771 C612.93572196 342.81026277 618.2844678 348.14353903 623.62589675 353.48426986 C626.8164111 356.67399058 630.01079261 359.8595931 633.21509361 363.03546906 C636.2278067 366.02205094 639.22836508 369.02032739 642.21999359 372.02802467 C643.31980488 373.12965421 644.42390248 374.22702361 645.5325489 375.31976128 C647.0458453 376.81265739 648.54290365 378.32017233 650.03691101 379.83233643 C650.87884349 380.67225758 651.72077597 381.51217873 652.58822155 382.37755203 C654.82570126 385.34311251 655.4131836 387.20493506 655.49609375 390.90625 C654.58918285 392.74219799 654.58918285 392.74219799 652.99491882 394.39237976 C652.33932669 395.07592215 651.68373455 395.75946453 651.00827599 396.46372032 C650.17925585 397.26975512 649.35023571 398.07578991 648.49609375 398.90625 C647.75802093 399.62424125 647.75802093 399.62424125 647.00503755 400.35673738 C643.27480317 403.96862556 639.49547532 407.52681741 635.70550537 411.07584 C631.83672341 414.70041122 627.98131139 418.33913758 624.12641907 421.97846985 C623.305125 422.75369669 622.48383094 423.52892352 621.63764918 424.32764208 C610.05079834 435.28140695 598.603803 446.38112805 587.15549183 457.47931385 C577.88373093 466.4595018 568.56764407 475.38200664 559.12524414 484.18286133 C513.55071993 526.7221797 480.23335433 560.87938288 471.65206909 624.09823608 C470.33856048 633.76322663 467.84029566 642.99677187 465.08550072 652.33581161 C463.93140322 656.29352808 462.88358427 660.27863727 461.82763672 664.26342773 C461.42280102 665.77326841 461.01734533 667.28294299 460.61126709 668.79244995 C460.40925438 669.54418865 460.20724167 670.29592735 459.99910736 671.07044601 C459.11310645 674.36579571 458.22622568 677.66090833 457.33928108 680.95600414 C456.18269455 685.25308058 455.02677787 689.55033703 453.87109375 693.84765625 C453.64620144 694.68367937 453.42130913 695.51970249 453.1896019 696.38105965 C450.05056887 708.05498873 446.95392659 719.73945457 443.8866539 731.43243027 C442.64429685 736.16218244 441.39430074 740.88992176 440.14395332 745.61756706 C438.97574199 750.03848097 437.82050483 754.46251657 436.67506027 758.88938046 C436.14284773 760.93667955 435.60389894 762.98205571 435.06176758 765.02674866 C434.40701639 767.4962465 433.76307459 769.96864609 433.13208008 772.44432068 C432.84212158 773.52415726 432.55216309 774.60399384 432.25341797 775.71655273 C432.00888885 776.65280991 431.76435974 777.58906708 431.51242065 778.55369568 C430.28332647 781.39875549 429.22819943 782.4624306 426.49609375 783.90625 C424.45849609 783.90289307 424.45849609 783.90289307 422.20703125 783.34472656 C421.32241211 783.13303833 420.43779297 782.9213501 419.52636719 782.70324707 C418.52637695 782.44023804 417.52638672 782.177229 416.49609375 781.90625 C415.38008789 781.62422729 414.26408203 781.34220459 413.11425781 781.05163574 C409.10944157 780.02337568 405.1149987 778.96026211 401.12109375 777.890625 C399.58948859 777.48284662 398.05781445 777.07532726 396.52607727 776.66804504 C392.38156758 775.56514572 388.23812075 774.45830203 384.09488297 773.35063553 C380.59526103 772.41555129 377.09503313 771.48274677 373.59480381 770.54993916 C361.55998009 767.34255343 349.52762055 764.12597844 337.49609375 760.90625 C336.13261181 760.54137859 336.13261181 760.54137859 334.74158478 760.16913605 C322.2965304 756.83852853 309.85262248 753.50365535 297.40939713 750.16622162 C294.81175393 749.46959748 292.21403806 748.77324494 289.61630249 748.07696533 C273.38908529 743.72722744 257.16335299 739.37322282 240.95913124 734.93846703 C236.69545496 733.77242463 232.4303517 732.61160337 228.1656189 731.44943237 C224.91690054 730.56087307 221.67094771 729.66270959 218.42504883 728.76391602 C216.50744982 728.24058771 214.58973343 727.71768929 212.671875 727.1953125 C211.83124512 726.95901627 210.99061523 726.72272003 210.12451172 726.47926331 C208.95553345 726.16395912 208.95553345 726.16395912 207.76293945 725.84228516 C207.10203812 725.65993317 206.44113678 725.47758118 205.76020813 725.28970337 C200.37078064 724.37694289 195.56442434 724.92207219 190.33666992 726.36132812 C189.14262543 726.68522018 187.94858093 727.00911224 186.71835327 727.34281921 C185.40856405 727.70762078 184.09880139 728.07251775 182.7890625 728.4375 C181.38789385 728.82068819 179.98648884 729.20301301 178.58486938 729.58454895 C175.55127766 730.41195941 172.51920352 731.2446472 169.4881897 732.08145142 C164.60421459 733.42951363 159.71696154 734.76538571 154.82885742 736.09838867 C153.99084626 736.32691749 153.1528351 736.5554463 152.28942966 736.79090023 C150.56603047 737.2608131 148.84261524 737.73066711 147.11918449 738.20046425 C144.45575758 738.92683866 141.79262943 739.65430088 139.12953186 740.38188171 C125.93328639 743.98464073 112.72285178 747.53228317 99.50390625 751.05078125 C98.06722721 751.43323155 98.06722721 751.43323155 96.60152435 751.82340813 C88.87442886 753.87991671 81.14658315 755.9336 73.41851807 757.98646164 C66.80068644 759.74445231 60.18321035 761.50377051 53.56640625 763.265625 C52.65659248 763.50787371 51.74677872 763.75012241 50.80939484 763.99971199 C38.76946783 767.20781129 26.74570098 770.46923777 14.73828125 773.796875 C13.4056972 774.16533717 12.07309165 774.53372157 10.74046326 774.90202332 C4.79316649 776.54732219 -1.15058782 778.20366268 -7.08862305 779.88208008 C-9.10845763 780.44389463 -11.12838875 781.00536226 -13.1484375 781.56640625 C-14.03963287 781.82339294 -14.93082825 782.08037964 -15.84902954 782.34515381 C-23.45400216 784.43713992 -23.45400216 784.43713992 -27.50390625 782.90625 C-30.38466336 780.02549289 -30.85909208 776.55026544 -31.86035156 772.70898438 C-32.08910477 771.85360958 -32.31785797 770.99823479 -32.55354309 770.11693954 C-33.31950771 767.24630538 -34.07569654 764.37318511 -34.83203125 761.5 C-35.37387463 759.46197379 -35.91634822 757.42411503 -36.45941162 755.38641357 C-37.6228584 751.01584127 -38.78207526 746.64417725 -39.93798828 742.27160645 C-41.75931462 735.38210136 -43.58970993 728.49502791 -45.421875 721.60839844 C-47.29118083 714.58059868 -49.15995814 707.55266137 -51.0255127 700.52386475 C-56.58890683 679.56379559 -62.200189 658.61676668 -67.82756042 637.67379761 C-69.09340423 632.96197428 -70.35804898 628.24982913 -71.62279892 623.5377121 C-71.80578663 622.85596169 -71.98877434 622.17421127 -72.17730713 621.47180176 C-72.48055562 620.33017657 -72.48055562 620.33017657 -72.78993034 619.16548824 C-73.410791 616.8717801 -74.0497254 614.58531894 -74.69751167 612.29918003 C-76.6847218 605.19695701 -78.54050786 598.17277603 -79.71406591 590.8856259 C-84.87809163 558.99951719 -100.77514742 541.5501463 -123.70267916 519.83031678 C-128.32300905 515.41971569 -132.85337246 510.91840808 -137.39437866 506.42643738 C-144.9988595 498.92656725 -152.65084202 491.47980793 -160.34716797 484.07446289 C-168.24893115 476.47109623 -176.12472176 468.84249065 -183.96435547 461.17504883 C-184.45076738 460.69934564 -184.9371793 460.22364244 -185.43833096 459.733524 C-190.74933391 454.53833713 -196.05515209 449.3378668 -201.35993004 444.13632488 C-203.23009485 442.30289178 -205.10030132 440.46950117 -206.97055054 438.63615417 C-207.8830785 437.74137491 -208.79560647 436.84659565 -209.7357868 435.92470187 C-215.15023318 430.62056477 -220.58528596 425.33871589 -226.04009748 420.07610476 C-229.41395613 416.81897873 -232.77870034 413.55253377 -236.14218903 410.28470421 C-237.70468963 408.77156866 -239.27160474 407.26297663 -240.84317398 405.75926208 C-242.98405036 403.7102365 -245.10928194 401.64617468 -247.2315979 399.57795715 C-247.85929726 398.98528559 -248.48699662 398.39261403 -249.13371718 397.78198272 C-251.84691596 395.10971402 -253.34350891 393.38680675 -254.56770325 389.71907234 C-254.49258935 386.40728565 -254.04469851 385.56055388 -251.75546265 383.22938538 C-251.10186138 382.54758272 -250.44826012 381.86578007 -249.77485275 381.16331673 C-249.02544041 380.41848471 -248.27602806 379.67365269 -247.50390625 378.90625 C-246.30146208 377.6688548 -246.30146208 377.6688548 -245.0747261 376.40646172 C-242.23073286 373.49453807 -239.35789491 370.61339928 -236.47900391 367.73608398 C-235.37909016 366.63317224 -234.27937968 365.53005777 -233.17985535 364.42675781 C-230.2131696 361.45129543 -227.24330211 358.47902922 -224.27254534 355.50763202 C-222.41235202 353.64672486 -220.55287385 351.78510615 -218.69364548 349.92323494 C-212.19542186 343.41578058 -205.69464136 336.9108933 -199.19140625 330.40844727 C-193.14803505 324.36567702 -187.11026723 318.31734801 -181.07509387 312.26639122 C-175.87589333 307.05408294 -170.67281178 301.84567022 -165.46673429 296.64023072 C-162.36504462 293.53879497 -159.26489845 290.43585547 -156.16865921 287.32897758 C-153.25594288 284.40652505 -150.33839028 281.4889861 -147.41718483 278.57501984 C-146.35169959 277.51057342 -145.28788813 276.44444826 -144.22596931 275.37644386 C-138.87489104 269.99671305 -133.49496648 264.86120315 -127.38991356 260.32972813 C-123.59470648 257.46526719 -120.24351852 254.10776875 -116.7890625 250.84765625 C-114.50390625 248.90625 -114.50390625 248.90625 -112.50390625 248.90625 C-112.30023438 248.36613281 -112.0965625 247.82601562 -111.88671875 247.26953125 C-109.94576141 243.95235839 -107.21403833 241.62962702 -104.37890625 239.09375 C-103.79431641 238.56112549 -103.20972656 238.02850098 -102.60742188 237.47973633 C-98.91208788 234.12484264 -95.16163656 230.84445391 -91.28515625 227.69921875 C-86.08292021 222.46275747 -83.68095771 217.51493963 -82.1171875 210.4453125 C-81.92924118 209.65530853 -81.74129486 208.86530457 -81.5476532 208.05136108 C-80.95573523 205.54786149 -80.38579777 203.03995759 -79.81640625 200.53125 C-79.42396234 198.85643363 -79.03009359 197.18195046 -78.63476562 195.5078125 C-77.73869312 191.69511505 -76.85234037 187.88056394 -75.99382019 184.05921936 C-75.66401607 182.60986652 -75.32272528 181.16308503 -74.97065735 179.71897888 C-73.84524324 174.98832944 -73.20697774 170.37431604 -72.77488708 165.53434753 C-71.06337149 147.6160905 -65.96440536 130.52613448 -61.17401505 113.24435043 C-59.93282836 108.75370006 -58.70959922 104.25816521 -57.48510742 99.76293945 C-55.98184685 94.24819083 -54.47698167 88.73390594 -52.96388245 83.22184753 C-49.8572883 71.90177466 -46.79768317 60.57039931 -43.79117393 49.22333336 C-43.16054907 46.84346542 -42.52880506 44.46389747 -41.89668274 42.08442688 C-39.52618064 33.16192386 -39.52618064 33.16192386 -37.16793823 24.23617554 C-36.1073832 20.21116327 -35.03461455 16.18950027 -33.9609375 12.16796875 C-33.49831009 10.39885132 -33.49831009 10.39885132 -33.02633667 8.59399414 C-32.73638824 7.51456543 -32.44643982 6.43513672 -32.14770508 5.32299805 C-31.77758049 3.92527412 -31.77758049 3.92527412 -31.39997864 2.49931335 C-26.40459921 -11.95636626 -11.38317091 -3.08296501 0 0 Z " fill="#040303" transform="translate(299.50390625,111.09375)"/>
<path d="M0 0 C0.16604736 0.64960693 0.33209473 1.29921387 0.50317383 1.96850586 C1.26961522 4.95903627 2.04102548 7.94826422 2.8125 10.9375 C3.07353516 11.95908203 3.33457031 12.98066406 3.60351562 14.03320312 C4.99621081 19.41485243 6.52622163 24.68536635 8.33227539 29.94165039 C9.37745171 33.16354493 10.08553142 36.44378673 10.8125 39.75 C12.30356056 46.3403842 14.04505085 52.82650068 15.9375 59.3125 C17.93921317 66.17730551 19.80586991 73.05283304 21.5 80 C23.15966569 86.7994262 24.97740117 93.53110453 26.9375 100.25 C29.42958115 108.79975532 31.6269616 117.40022747 33.74755859 126.04882812 C35.59564299 133.52796418 37.65345015 140.92708385 39.8137207 148.32128906 C41.81722098 155.22626859 43.5960942 162.17358431 45.26391602 169.16699219 C46.19612355 173.02255382 47.2276314 176.78204891 48.515625 180.53515625 C49.99960446 184.86496224 51.0750702 189.22171665 52.0625 193.6875 C52.9391793 197.62023406 53.81270294 201.45377129 55.12109375 205.26953125 C56 208 56 208 56 212 C53.515625 213.88671875 53.515625 213.88671875 50.25 215.6875 C49.18265625 216.28949219 48.1153125 216.89148438 47.015625 217.51171875 C44.59866405 218.70454533 42.6271391 219.52175866 40 220 C40 220.66 40 221.32 40 222 C38.6875 222.72916667 37.375 223.45833333 36.0625 224.1875 C35.24265625 224.64382813 34.4228125 225.10015625 33.578125 225.5703125 C31.92483837 226.48713509 30.26881306 227.39904647 28.609375 228.3046875 C25.17631032 230.18469911 21.83158817 232.06392953 18.625 234.3125 C16 236 16 236 13 236 C13 236.66 13 237.32 13 238 C11.82244141 238.56267578 11.82244141 238.56267578 10.62109375 239.13671875 C4.66337638 242.03882156 -0.71681447 245.01065582 -6 249 C-10.55172414 252 -10.55172414 252 -14 252 C-14 252.66 -14 253.32 -14 254 C-15.17755859 254.56267578 -15.17755859 254.56267578 -16.37890625 255.13671875 C-22.34441509 258.04261692 -27.68833177 261.04228642 -33 265 C-34.67861472 265.98183125 -36.35810859 266.96280409 -38.05859375 267.90625 C-40.36040393 269.20304447 -42.61542497 270.56848391 -44.875 271.9375 C-48.19018643 273.92863332 -51.51387905 275.89975683 -54.875 277.8125 C-55.57367187 278.21082031 -56.27234375 278.60914063 -56.9921875 279.01953125 C-58.98792806 279.99410495 -60.83153434 280.54783115 -63 281 C-63 281.66 -63 282.32 -63 283 C-64.3125 283.72916667 -65.625 284.45833333 -66.9375 285.1875 C-67.75734375 285.64382813 -68.5771875 286.10015625 -69.421875 286.5703125 C-71.07516163 287.48713509 -72.73118694 288.39904647 -74.390625 289.3046875 C-77.82368968 291.18469911 -81.16841183 293.06392953 -84.375 295.3125 C-87 297 -87 297 -90 297 C-90 297.66 -90 298.32 -90 299 C-90.78503906 299.37511719 -91.57007813 299.75023437 -92.37890625 300.13671875 C-98.33662362 303.03882156 -103.71681447 306.01065582 -109 310 C-113.55172414 313 -113.55172414 313 -117 313 C-117 313.66 -117 314.32 -117 315 C-117.78503906 315.37511719 -118.57007813 315.75023437 -119.37890625 316.13671875 C-125.33662362 319.03882156 -130.71681447 322.01065582 -136 326 C-140.55172414 329 -140.55172414 329 -144 329 C-144 329.66 -144 330.32 -144 331 C-144.78503906 331.37511719 -145.57007813 331.75023437 -146.37890625 332.13671875 C-153.47970918 335.56839662 -153.47970918 335.56839662 -160.0625 339.875 C-163 342 -163 342 -166 342 C-166 342.66 -166 343.32 -166 344 C-169 345.66666667 -172 347.33333333 -175 349 C-175.57500244 349.4225708 -176.15000488 349.8451416 -176.74243164 350.28051758 C-184.16437574 355.288619 -191.99716368 354.56305902 -200.5625 354.3125 C-202.06311369 354.2873736 -203.56376812 354.26456811 -205.06445312 354.24414062 C-208.71049369 354.18951647 -212.35498071 354.10348836 -216 354 C-218.66064114 257.50684434 -219.34561175 160.83972718 -219 58 C-215.53962465 57.04872416 -212.07847235 56.10030449 -208.6171875 55.15234375 C-207.65063232 54.88659546 -206.68407715 54.62084717 -205.68823242 54.3470459 C-199.52124555 52.65985138 -193.33877866 51.06759234 -187.125 49.5625 C-178.577206 47.46487657 -170.15405037 45.02458313 -161.71801758 42.51806641 C-155.28064329 40.62102982 -148.84093855 38.95051225 -142.29345703 37.48583984 C-135.78836207 36.00818934 -129.40952712 34.1476816 -123.00708008 32.28100586 C-117.03418251 30.55093643 -111.04105123 28.97328165 -105 27.5 C-96.22887433 25.35752765 -87.56349144 22.91347182 -78.890625 20.40625 C-69.94520351 17.82278464 -60.94417101 15.47337696 -51.90332031 13.24804688 C-42.18748126 10.85379994 -32.56946585 8.20431895 -22.95703125 5.42578125 C-18.43962537 4.12121953 -13.91415686 2.85172328 -9.375 1.625 C-8.20710937 1.30789062 -7.03921875 0.99078125 -5.8359375 0.6640625 C-3 0 -3 0 0 0 Z " fill="#15FE00" transform="translate(721,118)"/>
<path d="M0 0 C15.58669084 3.39956631 31.03080468 7.35253524 46.34472656 11.81933594 C52.19985185 13.51663448 58.07802201 15.05434067 64 16.5 C70.79938 18.15984865 77.53112621 19.97730205 84.25 21.9375 C92.89499513 24.45855173 101.59373137 26.67525675 110.33886719 28.82006836 C116.78224631 30.41216422 123.14113815 32.17276188 129.48925781 34.10571289 C135.60978802 35.94318914 141.79454722 37.47761619 148 39 C154.88301648 40.68861052 161.71977481 42.43543893 168.5 44.5 C176.3862421 46.89999111 184.35964267 48.89654866 192.36523438 50.85742188 C193.32494141 51.09267578 194.28464844 51.32792969 195.2734375 51.5703125 C196.11310059 51.77414551 196.95276367 51.97797852 197.81787109 52.18798828 C200.78737795 52.94574337 203.7427593 53.74258894 206.69888306 54.55075073 C207.69110682 54.8218611 208.68333057 55.09297146 209.70562172 55.37229729 C210.46276655 55.57943918 211.21991138 55.78658108 212 56 C212.72467471 81.56553438 213.22475459 107.12587518 213.50525212 132.70000648 C213.54644103 136.42749278 213.58934213 140.15495879 213.63215441 143.88242674 C213.73401277 152.75720193 213.83292845 161.63200645 213.92993164 170.50683594 C214.01659029 178.43070736 214.10676732 186.35452873 214.20043945 194.27832031 C214.82903785 247.52118788 215.13695686 300.75341849 215 354 C209.39 354 203.78 354 198 354 C198 356.64 198 359.28 198 362 C197.67 362 197.34 362 197 362 C197 359.36 197 356.72 197 354 C196.195625 354.15082031 195.39125 354.30164063 194.5625 354.45703125 C181.387668 355.77162523 172.01310317 349.33896422 160.99853516 342.78271484 C157.39489172 340.64024583 153.75275201 338.57144554 150.10498047 336.50537109 C147.52899752 335.04348717 144.96120381 333.5680044 142.39453125 332.08984375 C136.5371412 328.7250061 130.64604173 325.42152499 124.75 322.125 C123.70481201 321.54057129 122.65962402 320.95614258 121.58276367 320.35400391 C119.45473989 319.1646078 117.32656531 317.97548147 115.19824219 316.78662109 C101.00114452 308.85575386 86.81539433 300.90569362 72.66357422 292.89428711 C65.62024036 288.90941754 58.56293416 284.95001133 51.5 281 C42.5406579 275.98940497 33.59718026 270.95170949 24.6640625 265.89453125 C17.62053653 261.90963231 10.56309283 257.95010006 3.5 254 C-5.44449317 248.99770938 -14.3826666 243.98459769 -23.28759766 238.91210938 C-27.89431309 236.29340388 -32.51456069 233.70956998 -37.18414307 231.20422363 C-38.94390279 230.25914845 -40.69951653 229.30636655 -42.45507812 228.35351562 C-44.69362888 227.14027481 -46.93953156 225.9404787 -49.19335938 224.75585938 C-50.7025293 223.93311523 -50.7025293 223.93311523 -52.2421875 223.09375 C-53.1379248 222.61615234 -54.03366211 222.13855469 -54.95654297 221.64648438 C-57 220 -57 220 -57.83276367 217.4621582 C-58.0366287 214.46072932 -57.43873921 212.52630763 -56.4375 209.6875 C-54.32641147 203.27415863 -52.66113255 196.80895221 -51.0625 190.25 C-49.35420772 183.28361297 -47.59117456 176.36169296 -45.5 169.5 C-43.43514401 162.71987585 -41.68860529 155.88299519 -40 149 C-38.14508483 141.43910214 -36.16216649 133.95834029 -33.89453125 126.51171875 C-32.05709254 120.39082418 -30.52246517 114.20578441 -29 108 C-27.31138919 101.11698235 -25.56452657 94.28023478 -23.5 87.5 C-21.46176558 80.80142324 -19.73022906 74.04986436 -18.0625 67.25 C-15.97960557 58.75819965 -13.71080365 50.35011667 -11.25683594 41.95874023 C-8.99124787 34.13830437 -7.01243306 26.25531369 -5.09179688 18.34375 C-3.58302142 12.16495529 -1.89120053 6.07288266 0 0 Z " fill="#FEF000" transform="translate(279,118)"/>
<path d="M0 0 C3.30281742 0.76610974 5.91472987 1.89375557 8.90234375 3.51953125 C9.86390381 4.04087646 10.82546387 4.56222168 11.81616211 5.09936523 C13.36122437 5.94736694 13.36122437 5.94736694 14.9375 6.8125 C16.0107251 7.39781494 17.0839502 7.98312988 18.18969727 8.58618164 C25.84151197 12.7752384 33.43517464 17.05952825 40.99633789 21.40966797 C47.76182362 25.30196525 54.56102205 29.13078209 61.375 32.9375 C69.42847774 37.4377007 77.47204181 41.95442305 85.5 46.5 C93.48774107 51.02207659 101.48878029 55.5196512 109.5 60 C118.45877999 65.01028066 127.40285744 70.04563544 136.33374023 75.10546875 C141.28760646 77.90981622 146.24868463 80.70019677 151.22265625 83.46875 C164.94123263 91.10720261 178.526556 98.93660896 192 107 C190.73424249 109.64398662 189.36324713 112.04867577 187.671875 114.44140625 C187.20918213 115.0974585 186.74648926 115.75351074 186.26977539 116.42944336 C185.76824951 117.13335205 185.26672363 117.83726074 184.75 118.5625 C184.22204834 119.30701416 183.69409668 120.05152832 183.15014648 120.81860352 C178.59969244 127.21079712 173.95338501 133.53053348 169.28637695 139.83789062 C163.66540611 147.43642472 158.13069174 155.09535403 152.60888672 162.76611328 C149.36853805 167.26523169 146.11972298 171.75824119 142.87255859 176.25244141 C140.17401978 179.987945 137.47742047 183.7248148 134.78515625 187.46484375 C133.71100203 188.95577566 132.63678335 190.44666113 131.5625 191.9375 C130.7739563 193.03324341 130.7739563 193.03324341 129.96948242 194.15112305 C127.05884907 198.18540651 124.11807735 202.19441355 121.140625 206.1796875 C120.50181396 207.03699463 119.86300293 207.89430176 119.20483398 208.77758789 C117.97217868 210.42881484 116.73493095 212.07662657 115.49243164 213.72045898 C112.78413984 217.35118817 110.35684923 220.61431314 109 225 C111.67247634 227.34287418 111.67247634 227.34287418 115 228 C116.50392853 226.09523102 117.88286741 224.18818184 119.25 222.1875 C120.15343634 220.89347461 121.058472 219.60056479 121.96484375 218.30859375 C122.4532373 217.6110498 122.94163086 216.91350586 123.44482422 216.19482422 C126.17743644 212.33828044 128.99864242 208.54744373 131.8125 204.75 C138.06699502 196.28848536 144.24385489 187.7735108 150.39111328 179.23388672 C153.63146195 174.73476831 156.88027702 170.24175881 160.12744141 165.74755859 C162.82598022 162.012055 165.52257953 158.2751852 168.21484375 154.53515625 C174.47525185 145.84383491 180.79283925 137.19810394 187.16040039 128.58496094 C191.19629257 123.11642186 195.16327996 117.61084247 199 112 C202.31469104 112.67039232 204.9378928 113.90636019 207.90234375 115.51953125 C208.86390381 116.04087646 209.82546387 116.56222168 210.81616211 117.09936523 C211.84620361 117.66469971 212.87624512 118.23003418 213.9375 118.8125 C215.0107251 119.39781494 216.0839502 119.98312988 217.18969727 120.58618164 C224.82611747 124.76681053 232.41235054 129.030312 239.94799805 133.38989258 C244.87412244 136.23598311 249.83126055 139.00946474 254.83203125 141.72265625 C255.98195557 142.35115479 257.13187988 142.97965332 258.31665039 143.62719727 C260.56912988 144.85586612 262.82729315 146.07418379 265.09155273 147.28100586 C266.10805908 147.83796143 267.12456543 148.39491699 268.171875 148.96875 C269.0803418 149.45794922 269.98880859 149.94714844 270.92480469 150.45117188 C273 152 273 152 273.68684387 153.82272339 C274.04724947 156.32851079 273.73881321 157.94373024 273.08569336 160.38525391 C272.85540436 161.26485275 272.62511536 162.1444516 272.3878479 163.05070496 C272.12450653 164.01623795 271.86116516 164.98177094 271.58984375 165.9765625 C271.17887955 167.52836967 271.17887955 167.52836967 270.75961304 169.11152649 C269.82818994 172.61856192 268.88282423 176.12168807 267.9375 179.625 C267.26313377 182.15156543 266.58957268 184.67834587 265.91674805 187.20532227 C264.23376853 193.51932982 262.53991075 199.83037544 260.84295559 206.14063931 C259.37381593 211.60516279 257.90965142 217.07100195 256.44824219 222.53759766 C256.23278496 223.34352891 256.01732773 224.14946016 255.79534149 224.97981358 C255.35467719 226.62818696 254.9140161 228.27656121 254.47335815 229.92493629 C245.15160424 264.78852885 235.76207674 299.6339701 226.35274887 334.4740181 C225.68995181 336.92842069 225.02740536 339.38289083 224.36489868 341.83737183 C223.33455788 345.65419073 222.3032396 349.47074418 221.27110672 353.28707886 C220.89382715 354.6825379 220.51683469 356.0780746 220.14014816 357.47369385 C219.62771722 359.37193048 219.11406321 361.26983681 218.6003418 363.16772461 C218.31362106 364.22833603 218.02690033 365.28894745 217.73149109 366.38169861 C217.20419259 368.26911243 216.61970756 370.14087731 216 372 C206.96806545 370.5726947 198.21050873 368.30160391 189.3984375 365.90625 C187.84128066 365.48662388 186.28401088 365.06741664 184.72663879 364.64859009 C181.37137106 363.74536656 178.01686354 362.83939088 174.66293335 361.93121338 C169.29247569 360.4770294 163.92043586 359.02875458 158.5480957 357.58154297 C152.80853175 356.03518308 147.06905321 354.48851162 141.33009338 352.93991089 C126.56441127 348.95608639 111.79321983 344.99308413 97.01953125 341.0390625 C94.8402081 340.45567507 92.66088681 339.87228071 90.48156738 339.28887939 C81.97775492 337.01256415 73.47385633 334.73657133 64.96966553 332.46166992 C42.28893874 326.39387585 19.6169667 320.30199832 -3 314 C-3.02331984 303.58486407 -3.04101412 293.1697345 -3.05181217 282.75457764 C-3.05699847 277.91677926 -3.06401744 273.07899893 -3.07543945 268.24121094 C-3.08642127 263.55979234 -3.09230873 258.87839095 -3.09487724 254.19696045 C-3.09670426 252.42388641 -3.10027086 250.65081316 -3.10573006 248.87774658 C-3.13822282 237.87224115 -2.83975076 226.97656774 -2 216 C1.76802739 217.46009184 5.03522884 219.14043997 8.45703125 221.30078125 C9.48763672 221.94853516 10.51824219 222.59628906 11.58007812 223.26367188 C12.64677734 223.93978516 13.71347656 224.61589844 14.8125 225.3125 C15.86759766 225.97701172 16.92269531 226.64152344 18.00976562 227.32617188 C19.04423828 227.97779297 20.07871094 228.62941406 21.14453125 229.30078125 C22.14693848 229.93193848 23.1493457 230.5630957 24.18212891 231.21337891 C25.94180712 232.32907161 27.69525142 233.45473201 29.43896484 234.59521484 C33.38785603 237.28239894 33.38785603 237.28239894 38 238 C39.70528747 235.84471403 39.70528747 235.84471403 41.1875 233.125 C41.71730469 232.22007812 42.24710938 231.31515625 42.79296875 230.3828125 C44.15062907 228.14782325 44.15062907 228.14782325 44 226 C42.06413658 224.51299873 42.06413658 224.51299873 39.5234375 223.015625 C38.55212891 222.41983643 37.58082031 221.82404785 36.58007812 221.21020508 C35.52240234 220.5633374 34.46472656 219.91646973 33.375 219.25 C32.30443359 218.55865967 31.23386719 217.86731934 30.13085938 217.1550293 C23.854783 213.14034891 17.81608222 209.85446194 10.69189453 207.51782227 C5.39675247 204.68880534 1.26265376 202.17772856 -2 197 C-3.61796404 190.58531314 -2.89800513 183.72996602 -2.62109375 177.1875 C-2.57376146 175.22047124 -2.53128324 173.25332033 -2.49339294 171.28608704 C-2.40902394 167.20590315 -2.29992543 163.12751642 -2.17132568 159.04849243 C-1.99880341 153.35919407 -1.92107157 147.67284617 -1.88525391 141.98120117 C-1.87955352 141.09215812 -1.87385313 140.20311506 -1.86798 139.28713131 C-1.85683536 137.49742015 -1.84592188 135.70770754 -1.83524132 133.91799355 C-1.80346873 129.38444856 -1.74935621 124.85119381 -1.69506836 120.31787109 C-1.68431809 119.41069619 -1.67356783 118.50352129 -1.6624918 117.56885624 C-1.64047853 115.71725659 -1.61836102 113.86565817 -1.59614182 112.01406097 C-1.56185157 109.13301946 -1.52858757 106.25196776 -1.49563599 103.37091064 C-1.10119291 68.91221862 -0.60254901 34.45567776 0 0 Z " fill="#A53AFD" transform="translate(505,510)"/>
<path d="M0 0 C3.30037971 2.12958417 5.93748217 4.87345292 8.68741989 7.6501255 C9.33195531 8.29295207 9.97649073 8.93577864 10.64055753 9.59808481 C12.80258375 11.75681251 14.95737657 13.92261887 17.11228561 16.08844948 C18.65922444 17.63595234 20.20660359 19.18301516 21.75439072 20.72966957 C25.95892353 24.93362757 30.1572529 29.14373217 34.35451794 33.35494471 C38.74052115 37.75343378 43.13217275 42.14627569 47.52323532 46.53971291 C54.89387097 53.91586241 62.2610037 61.29549533 69.62546921 68.67780495 C77.21068979 76.28138538 84.79800947 83.88286106 92.38816452 91.48151588 C92.85607193 91.94994874 93.32397934 92.4183816 93.80606577 92.9010094 C96.15344799 95.25100171 98.50087383 97.60095044 100.84831572 99.95088315 C120.32055907 119.44404272 139.7856548 138.94432663 159.24607468 158.44928932 C157.59484564 162.67764367 154.46272339 165.52598304 151.31339645 168.66958046 C150.39225866 169.60068997 150.39225866 169.60068997 149.45251203 170.55060977 C147.39075735 172.63207047 145.32188729 174.70630778 143.25291061 176.78058815 C141.774304 178.27008847 140.2960877 179.75997632 138.81823349 181.25022316 C134.80057542 185.29839817 130.77617702 189.33980432 126.74958324 193.37908959 C124.23574702 195.9010062 121.7229648 198.42396858 119.21046829 200.94721985 C111.35367951 208.83672356 103.49249606 216.72181264 95.62543178 224.60107023 C86.53459087 233.70618423 77.4587746 242.82593622 68.39550757 251.95849591 C61.39370583 259.01198419 54.37860478 266.05206284 47.35324121 273.08208293 C43.15487128 277.28385885 38.96248545 281.49122772 34.78390884 285.71269608 C30.8560456 289.68016965 26.91201377 293.63080797 22.95475197 297.56895256 C21.50304582 299.01938759 20.05734528 300.47586143 18.61807823 301.93864059 C16.65666663 303.93025934 14.67504461 305.89925326 12.68668747 307.8639164 C11.83364961 308.74549273 11.83364961 308.74549273 10.96337867 309.64487869 C9.33699799 311.22528744 9.33699799 311.22528744 6.24607468 313.44928932 C1.8593108 313.34456162 -1.16154471 311.94584345 -4.92970657 309.78132057 C-6.39996292 308.94661232 -6.39996292 308.94661232 -7.89992142 308.09504128 C-8.94486771 307.49006813 -9.989814 306.88509499 -11.06642532 306.26178932 C-13.31495455 304.98024331 -15.56365744 303.69900194 -17.81251907 302.41803932 C-18.97387082 301.75277279 -20.13516626 301.08740796 -21.29640579 300.42194557 C-25.67513174 297.9237034 -30.07671718 295.46792464 -34.48146439 293.01593971 C-38.59553441 290.72307646 -42.69901573 288.41156806 -46.80324173 286.10114479 C-49.70962843 284.47408767 -52.62717224 282.86867032 -55.54689407 281.26569557 C-57.30373333 280.28581618 -59.06026199 279.30537962 -60.81642532 278.32428932 C-61.62643997 277.88705544 -62.43645462 277.44982155 -63.27101517 276.99933815 C-63.99885208 276.58836891 -64.726689 276.17739967 -65.47658157 275.75397682 C-66.11345901 275.40319069 -66.75033646 275.05240456 -67.40651321 274.69098854 C-67.85115921 274.2812278 -68.29580521 273.87146706 -68.75392532 273.44928932 C-68.75392532 268.75360147 -67.26150739 266.89044226 -64.56642532 263.32428932 C-63.64050755 262.06527513 -62.71473325 260.80615542 -61.78908157 259.54694557 C-61.29424271 258.88066139 -60.79940384 258.21437721 -60.28956985 257.5279026 C-58.20299737 254.70356585 -56.15773109 251.85034723 -54.10988235 248.99787331 C-50.09704657 243.41052715 -46.05719137 237.84507338 -41.95314407 232.32428932 C-41.32504837 231.47826149 -40.69695267 230.63223366 -40.04982376 229.76056862 C-38.84431237 228.13965307 -37.63551999 226.52117055 -36.42287064 224.90558815 C-33.19131152 220.56052771 -30.33394012 216.21190832 -27.75392532 211.44928932 C-30.06392532 210.78928932 -32.37392532 210.12928932 -34.75392532 209.44928932 C-41.63336212 218.74952816 -48.49440262 228.06141267 -55.25392532 237.44928932 C-56.85489294 239.66574772 -58.45647281 241.88176274 -60.05812454 244.09772682 C-61.24735032 245.74682309 -62.43362231 247.39805158 -63.61769485 249.05085182 C-65.50953802 251.68933602 -67.41206157 254.31983309 -69.31642532 256.94928932 C-69.90037064 257.76913307 -70.48431595 258.58897682 -71.08595657 259.43366432 C-71.63767532 260.19163307 -72.18939407 260.94960182 -72.75783157 261.73053932 C-73.24066605 262.40149635 -73.72350052 263.07245338 -74.22096634 263.76374245 C-76.01033189 265.73121812 -77.18865326 266.70152726 -79.75392532 267.44928932 C-82.10622025 266.61335182 -82.10622025 266.61335182 -84.73439407 265.07428932 C-86.21383499 264.22532082 -86.21383499 264.22532082 -87.7231636 263.35920143 C-88.78518997 262.72893044 -89.84721634 262.09865944 -90.94142532 261.44928932 C-93.21330551 260.13764923 -95.48544824 258.82646379 -97.75783157 257.51569557 C-98.93264187 256.83125141 -100.10728364 256.14651791 -101.28175735 255.46149635 C-106.60681786 252.36434106 -111.99634949 249.38242765 -117.37892532 246.38678932 C-126.29734039 241.39808778 -135.19758004 236.37781255 -144.0903511 231.34357643 C-151.13368496 227.35870686 -158.19099116 223.39930065 -165.25392532 219.44928932 C-174.21326742 214.4386943 -183.15674506 209.40099881 -192.08986282 204.34382057 C-199.13339032 200.35892077 -206.19098909 196.39967127 -213.25392532 192.44928932 C-217.42107033 190.11680941 -221.5876982 187.78340831 -225.75392532 185.44928932 C-227.23191605 184.6214695 -227.23191605 184.6214695 -228.73976517 183.77692604 C-242.86047327 175.85945324 -256.85106548 167.74341096 -270.75392532 159.44928932 C-269.09160076 158.1105464 -267.4239923 156.77836113 -265.75392532 155.44928932 C-264.99138443 154.82046349 -264.22884354 154.19163765 -263.44319534 153.54375648 C-253.36463121 146.43824813 -242.77046137 147.65363385 -230.92580032 147.98444557 C-228.72339492 148.01999483 -226.5209362 148.05236881 -224.31843948 148.08172035 C-218.55713928 148.16694055 -212.79757521 148.29492885 -207.03731155 148.43219948 C-201.14511557 148.56492172 -195.25229254 148.65668812 -189.35939407 148.7520237 C-177.82326666 148.94463268 -166.28855874 149.18248333 -154.75392532 149.44928932 C-154.75392532 144.16928932 -154.75392532 138.88928932 -154.75392532 133.44928932 C-156.20412064 133.46089088 -157.65431595 133.47249245 -159.14845657 133.48444557 C-181.02675787 133.59741139 -202.88469815 133.01980409 -224.75392532 132.44928932 C-221.29876024 129.56715287 -217.80154499 127.1850482 -213.90626907 124.93757057 C-213.06530685 124.44923996 -213.06530685 124.44923996 -212.2073555 123.95104408 C-211.00006291 123.25017248 -209.79178994 122.5509874 -208.58263016 121.85334206 C-205.3269161 119.97423117 -202.07911143 118.08158443 -198.83205032 116.18757057 C-197.8292025 115.60279442 -197.8292025 115.60279442 -196.80609512 115.00620461 C-189.7974677 110.90845132 -182.86752609 106.68450154 -175.94142532 102.44928932 C-168.0547644 97.63042778 -160.14623987 92.88184259 -152.0578804 88.40729713 C-147.23516738 85.73817158 -142.50701942 82.93898998 -137.79079056 80.08820534 C-132.38212144 76.819702 -126.94684125 73.59791045 -121.50392532 70.38678932 C-113.1867773 65.47794031 -104.87431569 60.56129193 -96.56642532 55.63678932 C-95.43430618 54.96575172 -94.30218704 54.29471413 -93.13576126 53.60334206 C-90.82697388 52.23482317 -88.51822454 50.86624013 -86.20949173 49.49762917 C-80.55802449 46.14752747 -74.90592802 42.79848752 -69.25392532 39.44928932 C-67.00392268 38.11596045 -64.75392268 36.78262712 -62.50392532 35.44928932 C-58.00392532 32.78262266 -53.50392532 30.11595599 -49.00392532 27.44928932 C-47.8883223 26.78783913 -46.77271927 26.12638893 -45.62331009 25.44489479 C-43.39327618 24.1240994 -41.16200989 22.80538237 -38.92946243 21.4888401 C-33.62891471 18.35964315 -28.34517698 15.21063844 -23.10161209 11.98707008 C-20.61220717 10.45839652 -18.11576677 8.94143341 -15.61867142 7.42536354 C-14.42514025 6.69618099 -13.2351215 5.96121531 -12.0488472 5.22028542 C-10.40863768 4.19632072 -8.75537611 3.19335235 -7.10158157 2.19147682 C-5.69404617 1.32305153 -5.69404617 1.32305153 -4.25807571 0.43708229 C-1.75392532 -0.55071068 -1.75392532 -0.55071068 0 0 Z " fill="#56DFFD" transform="translate(781.7539253234863,340.5507106781006)"/>
<path d="M0 0 C3.54823215 1.39025746 6.82695785 2.92774571 10.1484375 4.80078125 C11.14166016 5.35894531 12.13488281 5.91710937 13.15820312 6.4921875 C14.21974609 7.09289062 15.28128906 7.69359375 16.375 8.3125 C17.48552734 8.93769531 18.59605469 9.56289063 19.74023438 10.20703125 C23.16208957 12.13461805 26.58140134 14.06664454 30 16 C31.49321777 16.84377197 31.49321777 16.84377197 33.01660156 17.70458984 C36.78887582 19.83621398 40.56083496 21.96838951 44.33154297 24.1027832 C51.37635198 28.08889971 58.43540991 32.04906258 65.5 36 C74.4593421 41.01059503 83.40281974 46.04829051 92.3359375 51.10546875 C99.37946347 55.09036769 106.43690717 59.04989994 113.5 63 C122.4593421 68.01059503 131.40281974 73.04829051 140.3359375 78.10546875 C147.37946347 82.09036769 154.43690717 86.04989994 161.5 90 C170.44362015 95.00180238 179.37452245 100.02524802 188.28759766 105.08129883 C193.49721314 108.03323347 198.72067903 110.95830479 203.9609375 113.85546875 C205.69053711 114.81453125 205.69053711 114.81453125 207.45507812 115.79296875 C209.69863941 117.03583251 211.9446595 118.27427025 214.19335938 119.5078125 C215.19947266 120.06597656 216.20558594 120.62414062 217.2421875 121.19921875 C218.1379248 121.69252686 219.03366211 122.18583496 219.95654297 122.6940918 C222 124 222 124 223 126 C186.31752382 126.14752473 149.67382352 125.78589751 113 125 C113 130.28 113 135.56 113 141 C114.78535156 140.98839844 116.57070313 140.97679687 118.41015625 140.96484375 C134.1510452 140.89581874 149.86474685 141.05975744 165.59716797 141.59594727 C175.7535538 141.92035195 185.89098348 142.01052369 196.0511322 141.93403625 C201.66428142 141.89257734 207.27734288 141.88941304 212.89062595 141.89198971 C216.91012572 141.89099908 220.92731994 141.86945747 224.94625854 141.79977417 C260.33999812 141.20846584 260.33999812 141.20846584 275 154 C275.33 154.66 275.66 155.32 276 156 C275.13503906 156.47566406 274.27007812 156.95132813 273.37890625 157.44140625 C263.83107944 162.73319212 254.45919891 168.2916261 245.11279297 173.93041992 C237.00929794 178.8125864 228.85933709 183.60848311 220.6875 188.375 C210.18669419 194.50067523 199.77265921 200.75595422 189.39819336 207.09295654 C182.10054272 211.54777671 174.77335185 215.90834617 167.29296875 220.04858398 C162.61197328 222.64029681 158.01392875 225.35268994 153.43676758 228.12158203 C146.6085779 232.24943262 139.74127522 236.31097039 132.875 240.375 C130.5390154 241.75773299 128.20308532 243.1405579 125.8671875 244.5234375 C124.85769043 245.12075684 123.84819336 245.71807617 122.80810547 246.33349609 C120.95104766 247.43558935 119.11002351 248.56520555 117.28710938 249.72290039 C115 251 115 251 112.5390625 250.91015625 C109.46688716 249.80889955 107.07004874 248.27503323 104.375 246.4375 C100.53196763 243.64692641 100.53196763 243.64692641 96 243 C94.64260701 241.69116853 93.31298405 240.35337668 92 239 C90.23038724 237.79269569 88.42287958 236.63989451 86.58984375 235.53125 C84.9963208 234.56046509 84.9963208 234.56046509 83.37060547 233.57006836 C82.81097107 233.23264618 82.25133667 232.895224 81.67474365 232.5475769 C79.31179717 231.12269435 76.95650454 229.68538232 74.60083008 228.2485199 C73.41124812 227.52296482 72.22130644 226.7979992 71.03100586 226.07362366 C66.11317846 223.07861358 61.23502332 220.02516316 56.375 216.9375 C46.31137124 210.55401706 36.20327475 204.24260403 26.09375 197.93212891 C22.00467953 195.37839598 17.91801118 192.82083384 13.83154297 190.26293945 C10.85053688 188.39878612 7.86674249 186.53915586 4.8828125 184.6796875 C0.88428759 182.18576903 -3.09740345 179.66732079 -7.0703125 177.1328125 C-8.98437059 175.92186802 -10.89843291 174.71093024 -12.8125 173.5 C-13.69639404 172.92942871 -14.58028809 172.35885742 -15.4909668 171.77099609 C-16.30476807 171.25875488 -17.11856934 170.74651367 -17.95703125 170.21875 C-18.66835205 169.76435547 -19.37967285 169.30996094 -20.11254883 168.84179688 C-22.15457525 167.67639984 -22.15457525 167.67639984 -25 169 C-26.68749704 171.54672255 -26.68749704 171.54672255 -28.1875 174.5625 C-28.71730469 175.57441406 -29.24710937 176.58632813 -29.79296875 177.62890625 C-30.19128906 178.41136719 -30.58960938 179.19382812 -31 180 C-30.31188232 180.4218457 -29.62376465 180.84369141 -28.91479492 181.27832031 C-16.941977 188.62199397 -4.97656216 195.9736286 6.88525391 203.49584961 C13.1370725 207.45985059 19.40869403 211.39139424 25.6875 215.3125 C26.69699707 215.94293213 27.70649414 216.57336426 28.74658203 217.22290039 C30.80412772 218.5076015 32.86174532 219.79218745 34.91943359 221.07666016 C38.95188356 223.59430485 42.98315327 226.11383465 47.01416016 228.63378906 C48.99921921 229.87449155 50.98456926 231.1147286 52.97021484 232.35449219 C58.13864248 235.58211213 63.30171321 238.81788153 68.45703125 242.06640625 C69.52115234 242.73542969 70.58527344 243.40445313 71.68164062 244.09375 C73.69633125 245.36062969 75.70948072 246.6299653 77.72070312 247.90234375 C84.01838747 251.85762352 90.43161545 255.51306014 97 259 C97 259.99 97 260.98 97 262 C96.13503906 262.47566406 95.27007812 262.95132812 94.37890625 263.44140625 C84.83711528 268.72984681 75.47135521 274.28502995 66.13037109 279.91943359 C56.63562325 285.63890567 47.08430361 291.25750715 37.50341797 296.83129883 C31.91099254 300.08931195 26.34719191 303.37946569 20.859375 306.8125 C19.93487549 307.38653564 19.01037598 307.96057129 18.05786133 308.55200195 C16.35897048 309.61236437 14.66808236 310.68570118 12.98706055 311.77416992 C12.2475415 312.23412354 11.50802246 312.69407715 10.74609375 313.16796875 C10.11372803 313.57297607 9.4813623 313.9779834 8.82983398 314.39526367 C7 315 7 315 5.28821945 314.42534828 C1.94129386 312.34052437 -0.68263269 309.58469651 -3.44134521 306.79916382 C-4.08588063 306.15633725 -4.73041605 305.51351068 -5.39448285 304.85120451 C-7.55650907 302.69247682 -9.71130189 300.52667045 -11.86621094 298.36083984 C-13.41314977 296.81333698 -14.96052891 295.26627416 -16.50831604 293.71961975 C-20.71284885 289.51566176 -24.91117822 285.30555716 -29.10844326 281.09434462 C-33.49444647 276.69585554 -37.88609808 272.30301363 -42.27716064 267.90957642 C-49.64779629 260.53342691 -57.01492902 253.15379399 -64.37939453 245.77148438 C-71.96461512 238.16790394 -79.55193479 230.56642827 -87.14208984 222.96777344 C-87.60999726 222.49934058 -88.07790467 222.03090772 -88.55999109 221.54827993 C-90.90737331 219.19828762 -93.25479915 216.84833888 -95.60224104 214.49840617 C-115.0744844 195.0052466 -134.53958012 175.50496269 -154 156 C-152.34828196 151.74238754 -149.16802712 148.89589215 -145.98898315 145.74847412 C-145.36657435 145.12435646 -144.74416554 144.5002388 -144.10289586 143.85720849 C-142.01326453 141.76427936 -139.91655845 139.67858492 -137.81982422 137.59277344 C-136.3215818 136.09509507 -134.82377946 134.59697636 -133.3263855 133.09844971 C-129.25672032 129.02820978 -125.18091 124.96417371 -121.10399008 120.9012022 C-116.84563664 116.65533563 -112.5929313 112.40381967 -108.33963013 108.15289307 C-100.28302218 100.10250589 -92.2213287 92.05723134 -84.15780747 84.01376939 C-74.97866661 74.85696891 -65.80519162 65.69450129 -56.63219428 56.53154707 C-37.76110544 37.68137377 -18.88289259 18.83834853 0 0 Z " fill="#FD8D01" transform="translate(213,345)"/>
<path d="M0 0 C3.4734372 1.80363942 6.6880569 3.94869525 9.9375 6.125 C11.9068069 7.41129783 13.87688592 8.69641419 15.84765625 9.98046875 C16.86230957 10.6461084 17.87696289 11.31174805 18.92236328 11.99755859 C23.86390089 15.21273323 28.86878679 18.32436504 33.875 21.4375 C35.89333267 22.69644867 37.91156129 23.95556416 39.9296875 25.21484375 C40.93225586 25.83987793 41.93482422 26.46491211 42.96777344 27.10888672 C47.98090541 30.23543424 52.99027243 33.36800161 58 36.5 C59.99998171 37.75002926 61.99998172 39.00002926 64 40.25 C94 59 94 59 124 77.75 C124.93670029 78.33276703 125.87340057 78.91553406 126.83848572 79.51596069 C128.82429747 80.76217635 130.80162537 82.02212374 132.76612854 83.30166626 C137.84239404 86.57637657 142.80493866 89.44342154 148.36694336 91.81396484 C155.12097124 94.90339805 161.29337197 98.11290473 166 104 C169.689015 114.02962657 168.41439915 125.26809897 167.70785522 135.74070358 C167.46426493 139.7363732 167.35947302 143.73555463 167.2421875 147.73657227 C167.04315554 154.00271316 166.77259643 160.26087535 166.43408203 166.52099609 C166.04998256 173.64450794 165.8062562 180.76114521 165.68359375 187.89453125 C165.66760635 188.79395447 165.65161896 189.69337769 165.63514709 190.62005615 C165.60567471 192.2848461 165.57646701 193.94964076 165.5475769 195.61444092 C165.43567198 201.07847324 165.22084313 206.53941858 165 212 C164.04299194 212.2333606 164.04299194 212.2333606 163.06665039 212.47143555 C151.21420661 215.37149026 139.41837035 218.33280912 127.75390625 221.921875 C125.03374106 222.70310871 122.3845718 223.37614676 119.625 223.96875 C114.82395667 225.0037788 110.14562967 226.35896169 105.4375 227.75 C97.58253267 230.03714843 89.6958077 232.11535094 81.75 234.0625 C74.27210662 235.89633193 66.87553988 237.86319165 59.51074219 240.10571289 C52.35984704 242.25252037 45.11276896 243.99101434 37.86328125 245.76953125 C32.02863001 247.21155532 26.24927531 248.74923836 20.5 250.5 C12.70080676 252.87499991 4.81324563 254.82025695 -3.10375977 256.76074219 C-9.97091752 258.45682429 -16.75450868 260.33666972 -23.52539062 262.38012695 C-28.31795583 263.82110264 -33.0967529 265.01552739 -38 266 C-39.68817053 266.37196978 -41.37567752 266.74696405 -43.0625 267.125 C-44.375 267.41666667 -45.6875 267.70833333 -47 268 C-47.62849414 265.85518747 -48.25260258 263.70908965 -48.875 261.5625 C-49.39707031 259.77005859 -49.39707031 259.77005859 -49.9296875 257.94140625 C-50.70483598 255.18536162 -51.36036266 252.42410776 -51.9609375 249.625 C-53.00274286 244.82565476 -54.35901175 240.14546022 -55.75 235.4375 C-58.03714843 227.58253267 -60.11535094 219.6958077 -62.0625 211.75 C-63.89633193 204.27210662 -65.86319165 196.87553988 -68.10571289 189.51074219 C-70.25252037 182.35984704 -71.99101434 175.11276896 -73.76953125 167.86328125 C-75.21155532 162.02863001 -76.74923836 156.24927531 -78.5 150.5 C-80.87588033 142.69791557 -82.82163232 134.80736306 -84.76293945 126.88745117 C-86.43685304 120.11023473 -88.2911616 113.41781485 -90.31640625 106.73828125 C-91.8436573 101.66066737 -93.04613611 96.55786015 -94.1875 91.3828125 C-95.15931177 87.33671156 -96.31194745 83.36202382 -97.5 79.375 C-97.71479004 78.65151367 -97.92958008 77.92802734 -98.15087891 77.18261719 C-99.09803628 74.00126994 -100.05402082 70.82309212 -101.0234375 67.6484375 C-101.30445313 66.69195313 -101.58546875 65.73546875 -101.875 64.75 C-102.11992187 63.94046875 -102.36484375 63.1309375 -102.6171875 62.296875 C-103.08757329 59.47456028 -102.96255802 57.70222711 -102 55 C-100.03125 53.375 -100.03125 53.375 -97.5 52 C-96.60152344 51.50242187 -95.70304688 51.00484375 -94.77734375 50.4921875 C-93.86082031 49.99976563 -92.94429687 49.50734375 -92 49 C-91.15566406 48.50757813 -90.31132812 48.01515625 -89.44140625 47.5078125 C-83.40677966 44 -83.40677966 44 -80 44 C-80 43.34 -80 42.68 -80 42 C-77.7140617 40.4670058 -75.44192427 39.06139469 -73.0625 37.6875 C-72.37897461 37.28668213 -71.69544922 36.88586426 -70.99121094 36.47290039 C-68.9982661 35.30799351 -66.99940865 34.15376391 -65 33 C-64.04480469 32.43796875 -63.08960938 31.8759375 -62.10546875 31.296875 C-56.39278017 28 -56.39278017 28 -53 28 C-53 27.34 -53 26.68 -53 26 C-51.12890625 24.66796875 -51.12890625 24.66796875 -48.5625 23.1875 C-47.65242188 22.65898438 -46.74234375 22.13046875 -45.8046875 21.5859375 C-42.53767098 19.73857161 -39.26577433 17.9020327 -35.97265625 16.1015625 C-34.32655036 15.18235089 -32.71988153 14.19296879 -31.125 13.1875 C-29 12 -29 12 -26 12 C-26 11.34 -26 10.68 -26 10 C-22.83052966 7.74365472 -19.37440979 5.93227376 -16 4 C-15.20078125 3.49210938 -14.4015625 2.98421875 -13.578125 2.4609375 C-12.83046875 1.99945312 -12.0828125 1.53796875 -11.3125 1.0625 C-10.31669922 0.43021484 -10.31669922 0.43021484 -9.30078125 -0.21484375 C-5.74584937 -1.42798689 -3.64601922 -0.95772716 0 0 Z " fill="#FE0000" transform="translate(326,614)"/>
<path d="M0 0 C0.06308644 13.31245432 0.10259124 26.62491525 0.125 39.9375 C0.12671204 40.94717331 0.12842407 41.95684662 0.13018799 42.99711609 C0.1815662 77.42548299 -0.23824438 111.8303123 -1 146.25 C-1.02391563 147.33115459 -1.04783127 148.41230919 -1.07247162 149.52622604 C-1.36503943 162.68455633 -1.67388615 175.84245944 -2 189 C-3.90703055 187.89205889 -5.81349631 186.7831456 -7.71972656 185.67382812 C-8.78145081 185.05640747 -9.84317505 184.43898682 -10.93707275 183.80285645 C-14.93029198 181.45242484 -18.84632459 178.99530093 -22.75 176.5 C-24.39679601 175.4538926 -26.04394891 174.40834685 -27.69140625 173.36328125 C-28.55137207 172.81752441 -29.41133789 172.27176758 -30.29736328 171.70947266 C-35.08210808 168.68302432 -39.88504037 165.68572925 -44.6875 162.6875 C-46.20005371 161.74293945 -46.20005371 161.74293945 -47.74316406 160.77929688 C-49.80183958 159.49384814 -51.86059646 158.20852971 -53.91943359 156.92333984 C-58.94746487 153.78410777 -63.97365341 150.64192849 -69 147.5 C-70.99999085 146.24998536 -72.99999086 144.99998538 -75 143.75 C-87 136.25 -99 128.75 -111 121.25 C-111.99169189 120.63020264 -112.98338379 120.01040527 -114.00512695 119.37182617 C-115.98807375 118.13246422 -117.97098441 116.89304446 -119.95385742 115.65356445 C-124.64809807 112.71932574 -129.34271147 109.78568887 -134.03860474 106.85409546 C-135.71657978 105.80651721 -137.39442357 104.75872873 -139.07226562 103.7109375 C-141.1892236 102.3889553 -143.30640161 101.06732536 -145.42382812 99.74609375 C-146.37322266 99.153125 -147.32261719 98.56015625 -148.30078125 97.94921875 C-149.55628784 97.16550903 -149.55628784 97.16550903 -150.8371582 96.3659668 C-152.57413621 95.26895902 -154.29064412 94.13957059 -156 93 C-156 92.34 -156 91.68 -156 91 C-154.35546875 89.7109375 -154.35546875 89.7109375 -152.1875 88.375 C-151.47980469 87.92898438 -150.77210938 87.48296875 -150.04296875 87.0234375 C-148 86 -148 86 -145 86 C-145 85.34 -145 84.68 -145 84 C-142.7140617 82.4670058 -140.44192427 81.06139469 -138.0625 79.6875 C-137.37897461 79.28668213 -136.69544922 78.88586426 -135.99121094 78.47290039 C-133.9982661 77.30799351 -131.99940865 76.15376391 -130 75 C-129.04480469 74.43796875 -128.08960938 73.8759375 -127.10546875 73.296875 C-121.39278017 70 -121.39278017 70 -118 70 C-118 69.34 -118 68.68 -118 68 C-116.12890625 66.66796875 -116.12890625 66.66796875 -113.5625 65.1875 C-112.19738281 64.39472656 -112.19738281 64.39472656 -110.8046875 63.5859375 C-107.53767098 61.73857161 -104.26577433 59.9020327 -100.97265625 58.1015625 C-99.32655036 57.18235089 -97.71988153 56.19296879 -96.125 55.1875 C-94 54 -94 54 -91 54 C-91 53.34 -91 52.68 -91 52 C-89.12890625 50.66796875 -89.12890625 50.66796875 -86.5625 49.1875 C-85.65242188 48.65898438 -84.74234375 48.13046875 -83.8046875 47.5859375 C-80.53767098 45.73857161 -77.26577433 43.9020327 -73.97265625 42.1015625 C-72.32655036 41.18235089 -70.71988153 40.19296879 -69.125 39.1875 C-67 38 -67 38 -64 38 C-64 37.34 -64 36.68 -64 36 C-62.12890625 34.66796875 -62.12890625 34.66796875 -59.5625 33.1875 C-58.65242188 32.65898438 -57.74234375 32.13046875 -56.8046875 31.5859375 C-53.53767098 29.73857161 -50.26577433 27.9020327 -46.97265625 26.1015625 C-45.32655036 25.18235089 -43.71988153 24.19296879 -42.125 23.1875 C-40 22 -40 22 -37 22 C-37 21.34 -37 20.68 -37 20 C-35.12890625 18.66796875 -35.12890625 18.66796875 -32.5625 17.1875 C-31.655 16.66285156 -30.7475 16.13820313 -29.8125 15.59765625 C-28.4203125 14.80681641 -28.4203125 14.80681641 -27 14 C-26.154375 13.50371094 -25.30875 13.00742187 -24.4375 12.49609375 C-18.38158832 9 -18.38158832 9 -15 9 C-15 8.34 -15 7.68 -15 7 C-12.87767021 5.82823482 -10.75242209 4.66245215 -8.625 3.5 C-8.02171875 3.16613281 -7.4184375 2.83226562 -6.796875 2.48828125 C-2.2265625 0 -2.2265625 0 0 0 Z " fill="#FD0101" transform="translate(494,511)"/>
<path d="M0 0 C30.42071955 -0.12026925 60.83147465 -0.01664737 91.24921799 0.40571976 C93.53617942 0.4371384 95.82315483 0.46724505 98.11013794 0.49703979 C115.42115423 0.72511438 132.70790008 1.10763874 150 2 C150 7.28 150 12.56 150 18 C138.12502798 18.06046793 126.25010617 18.1023274 114.375 18.125 C113.48474121 18.12671204 112.59448242 18.12842407 111.67724609 18.13018799 C84.43594787 18.17637012 57.2283456 17.84778299 30 17 C29.23143425 16.97608437 28.4628685 16.95216873 27.67101288 16.92752838 C18.44660961 16.63867959 9.22308737 16.32839781 0 16 C0 10.72 0 5.44 0 0 Z " fill="#010203" transform="translate(628,474)"/>
<path d="M0 0 C0 5.94 0 11.88 0 18 C-1.41853271 18.47945068 -2.83706543 18.95890137 -4.29858398 19.45288086 C-9.54194346 21.22595066 -14.78398742 23.0028816 -20.02563477 24.78100586 C-22.29806165 25.55127321 -24.57084793 26.32048111 -26.84399414 27.08862305 C-30.10397009 28.19043666 -33.36265096 29.2960056 -36.62109375 30.40234375 C-37.64400009 30.74716293 -38.66690643 31.09198212 -39.72080994 31.44725037 C-40.66170975 31.76750687 -41.60260956 32.08776337 -42.57202148 32.41772461 C-43.40475082 32.69974228 -44.23748016 32.98175995 -45.09544373 33.27232361 C-46.97989981 33.84384502 -46.97989981 33.84384502 -48 35 C-47.4406778 35.21075668 -46.88135559 35.42151337 -46.30508423 35.63865662 C-40.49750037 37.82723576 -34.69048022 40.01730543 -28.88378906 42.20825195 C-26.71498891 43.02634521 -24.54604403 43.84405489 -22.37695312 44.66137695 C-19.26394368 45.83444655 -16.15145283 47.00888268 -13.0390625 48.18359375 C-12.065065 48.55028671 -11.0910675 48.91697968 -10.08755493 49.29478455 C-9.18677216 49.6350618 -8.28598938 49.97533905 -7.35791016 50.32592773 C-6.56293121 50.6257103 -5.76795227 50.92549286 -4.94888306 51.23435974 C-3 52 -3 52 -1 53 C-1 58.94 -1 64.88 -1 71 C-7.75004734 68.74998422 -7.75004734 68.74998422 -11.06396484 67.37109375 C-12.17950493 66.9087307 -12.17950493 66.9087307 -13.31758118 66.43702698 C-14.10738876 66.10718307 -14.89719635 65.77733917 -15.7109375 65.4375 C-16.96761482 64.91560341 -16.96761482 64.91560341 -18.24967957 64.38316345 C-20.95895288 63.2574342 -23.66698787 62.1287593 -26.375 61 C-28.230313 60.22841814 -30.08570059 59.45701565 -31.94116211 58.68579102 C-36.47543508 56.80053479 -41.00871635 54.91290902 -45.54156494 53.02423096 C-48.43101055 51.82043278 -51.32085481 50.61759428 -54.21075439 49.41488647 C-60.14183728 46.94645035 -66.07154839 44.47474852 -72 42 C-72 37.05 -72 32.1 -72 27 C-62.6554304 23.04540158 -53.23248246 19.35569484 -43.75 15.75 C-42.25258721 15.17948786 -40.75519157 14.60893071 -39.2578125 14.03833008 C-35.53924154 12.62220789 -31.81952507 11.20912237 -28.09936523 9.79718018 C-26.10557955 9.04009113 -24.11227623 8.28174776 -22.11914062 7.52294922 C-18.74755701 6.24055963 -15.37423025 4.96290672 -12 3.6875 C-11.00452148 3.30883789 -10.00904297 2.93017578 -8.98339844 2.54003906 C-8.08137695 2.20069336 -7.17935547 1.86134766 -6.25 1.51171875 C-5.47140625 1.21740967 -4.6928125 0.92310059 -3.890625 0.61987305 C-2 0 -2 0 0 0 Z " fill="#050200" transform="translate(318,443)"/>
<path d="M0 0 C3.15078009 1.34991366 4.78663118 2.66274979 6.7421875 5.46484375 C7.24363281 6.17253906 7.74507812 6.88023437 8.26171875 7.609375 C8.79410156 8.37765625 9.32648437 9.1459375 9.875 9.9375 C11.0380603 11.58274019 12.20215681 13.22724825 13.3671875 14.87109375 C13.9662793 15.7204248 14.56537109 16.56975586 15.18261719 17.44482422 C18.06871098 21.50256973 21.03606637 25.4989801 24 29.5 C25.15635682 31.07544244 26.3126065 32.65096351 27.46875 34.2265625 C29.89183367 37.52027208 32.35566344 40.77859991 34.84375 44.0234375 C36.06264201 45.64051797 37.28139692 47.25770179 38.5 48.875 C39.08265625 49.61814453 39.6653125 50.36128906 40.265625 51.12695312 C44.09840415 56.26420537 44.09840415 56.26420537 43.65625 59.5703125 C42.26081106 61.6173951 40.83831111 63.63746958 39.39648438 65.65185547 C38.94736694 66.27961884 38.49824951 66.9073822 38.03552246 67.5541687 C37.69380005 68.03129303 37.35207764 68.50841736 37 69 C23.1359557 67.04350514 9.37927383 64.68351589 -4.36962891 62.03833008 C-7.55105387 61.42770094 -10.73440666 60.82789147 -13.91796875 60.22851562 C-15.95585223 59.83918526 -17.99361746 59.44923532 -20.03125 59.05859375 C-20.9759314 58.88146347 -21.92061279 58.70433319 -22.8939209 58.52183533 C-23.77004028 58.3514827 -24.64615967 58.18113007 -25.54882812 58.00561523 C-26.31457153 57.85922104 -27.08031494 57.71282684 -27.8692627 57.56199646 C-30 57 -30 57 -34 55 C-31.36 50.71 -28.72 46.42 -26 42 C-17.9416484 42.57168092 -10.23989221 44.13270773 -2.38549805 45.95629883 C-0.30721269 46.43872733 1.77290238 46.91248819 3.85351562 47.38476562 C9.95098202 48.77904668 15.99668879 50.2428982 22 52 C16.68044919 45.0210318 11.30362913 38.09503484 5.8125 31.25 C5.30726807 30.61650635 4.80203613 29.9830127 4.28149414 29.33032227 C2.1013345 26.59950558 -0.09143332 23.89216336 -2.3515625 21.2265625 C-2.99867188 20.45054687 -3.64578125 19.67453125 -4.3125 18.875 C-4.86550781 18.23304688 -5.41851563 17.59109375 -5.98828125 16.9296875 C-7 15 -7 15 -6.859375 12.58984375 C-5.8862412 9.65717233 -4.57738403 7.30433622 -2.9375 4.6875 C-2.38964844 3.80449219 -1.84179688 2.92148437 -1.27734375 2.01171875 C-0.85582031 1.34785156 -0.43429687 0.68398438 0 0 Z " fill="#030105" transform="translate(570,719)"/>
<path d="M0 0 C0.763125 0.4125 1.52625 0.825 2.3125 1.25 C2.9725 1.58 3.6325 1.91 4.3125 2.25 C3.06884017 11.18471401 0.88244358 19.61459573 -1.6875 28.25 C-2.27741142 30.37318329 -2.86138891 32.49803061 -3.4375 34.625 C-3.67984375 35.51960937 -3.9221875 36.41421875 -4.171875 37.3359375 C-4.34203125 37.96757813 -4.5121875 38.59921875 -4.6875 39.25 C-8.95576873 39.25 -9.62632432 38.87386487 -12.6875 36.25 C-11.3154352 27.54660391 -8.55703593 19.55655138 -5.6875 11.25 C-12.6175 15.87 -19.5475 20.49 -26.6875 25.25 C-29.3275 23.6 -31.9675 21.95 -34.6875 20.25 C-31.42748644 17.57166224 -28.12705989 15.15779242 -24.5625 12.90234375 C-23.60859375 12.29712891 -22.6546875 11.69191406 -21.671875 11.06835938 C-20.68703125 10.44767578 -19.7021875 9.82699219 -18.6875 9.1875 C-17.70265625 8.56294922 -16.7178125 7.93839844 -15.703125 7.29492188 C-13.03558097 5.60607812 -10.36727014 3.91937784 -7.6875 2.25 C-6.81222656 1.6732251 -5.93695312 1.0964502 -5.03515625 0.50219727 C-2.6875 -0.75 -2.6875 -0.75 0 0 Z " fill="#030809" transform="translate(773.6875,516.75)"/>
</svg>
