<?xml version="1.0" encoding="UTF-8"?>
<svg version="1.1" xmlns="http://www.w3.org/2000/svg" width="1000" height="1000">
<path d="M0 0 C330 0 660 0 1000 0 C1000 330 1000 660 1000 1000 C670 1000 340 1000 0 1000 C0 670 0 340 0 0 Z " fill="#FEFEFE" transform="translate(0,0)"/>
<path d="M0 0 C1.55843377 0.41946633 3.11694862 0.83863152 4.67553711 1.25752258 C8.03639723 2.1614307 11.39671674 3.06731219 14.75662231 3.97476196 C20.13956936 5.42857104 25.52365501 6.87812995 30.90795898 8.3269043 C36.65824447 9.87430595 42.40847533 11.42190792 48.15834045 12.97087097 C62.88220995 16.93693085 77.6100916 20.88787966 92.33984375 24.83203125 C94.50935437 25.41303235 96.67886426 25.99403617 98.84837341 26.57504272 C107.30693225 28.84017269 115.76556892 31.10501166 124.22439575 33.36914062 C129.17323431 34.69381657 134.12182153 36.01942854 139.07031059 37.34540939 C141.89943394 38.10308665 144.72888547 38.8595289 147.55836487 39.61587524 C156.18831756 41.92551919 164.80965194 44.26058828 173.41357422 46.66552734 C174.95529103 47.09438826 176.49703327 47.52315776 178.0388031 47.951828 C180.8495842 48.73357451 183.65679054 49.52665661 186.46229553 50.32710266 C187.6928215 50.66992783 188.92334747 51.01275299 190.19116211 51.3659668 C191.24782578 51.66544724 192.30448944 51.96492767 193.39317322 52.27348328 C199.62471477 53.54425773 204.7984839 52.7905617 210.8840332 51.14404297 C211.59390821 50.95457627 212.30378323 50.76510958 213.0351696 50.56990147 C215.3955497 49.93768294 217.75235813 49.29307147 220.109375 48.6484375 C221.80238877 48.19234648 223.49561651 47.73704913 225.18904114 47.28248596 C229.77401636 46.04948923 234.35605035 44.80587061 238.93766022 43.56043625 C243.76578085 42.25005927 248.59661131 40.94975363 253.42724609 39.64868164 C261.45709242 37.48489316 269.48553732 35.31597819 277.51318359 33.14404297 C288.87432333 30.07098907 300.24082103 27.01815242 311.609375 23.97265625 C313.39008721 23.49549354 315.17079807 23.0183258 316.95150757 22.54115295 C323.89182155 20.68156789 330.83233192 18.82271652 337.77294922 16.96426392 C342.79158475 15.62031321 347.80997094 14.27543482 352.828125 12.9296875 C353.63030079 12.71458464 354.43247658 12.49948177 355.25896072 12.27786064 C365.53582506 9.52091454 375.80448789 6.73578235 386.06439209 3.91638756 C390.35167953 2.73929297 394.64075917 1.56873158 398.92938232 0.39651489 C402.20343349 -0.50237818 405.47404131 -1.41306405 408.74462891 -2.32446289 C410.66813545 -2.85100371 412.59179035 -3.37700302 414.515625 -3.90234375 C415.79200081 -4.26451492 415.79200081 -4.26451492 417.09416199 -4.63400269 C424.84386256 -6.72465218 424.84386256 -6.72465218 428.49609375 -5.09375 C431.6395269 -0.82167177 432.76372249 3.80775684 434.07714844 8.85668945 C434.31710761 9.75359466 434.55706678 10.65049986 434.80429745 11.57458401 C435.59954368 14.55432963 436.38372303 17.53687323 437.16796875 20.51953125 C437.72805024 22.62642573 438.28883997 24.73313205 438.85029602 26.83966064 C440.34865491 32.46882953 441.83765513 38.10043373 443.3247261 43.73259354 C444.85643741 49.52809253 446.39607585 55.32148364 447.93530273 61.11499023 C449.76523164 68.00426824 451.59451451 74.89371328 453.41990662 81.78419495 C456.76556963 94.4112254 460.13318382 107.03181729 463.546875 119.640625 C463.90754264 120.97473001 464.26815006 122.3088513 464.62869263 123.64299011 C466.54691771 130.73853238 466.54691771 130.73853238 468.47570801 137.83120728 C473.80861752 157.39241546 473.80861752 157.39241546 475.13452148 166.55493164 C475.6523144 169.92215887 476.52930163 173.07705008 477.49609375 176.34375 C477.82609375 177.47683594 478.15609375 178.60992187 478.49609375 179.77734375 C479.43646852 182.85166216 479.43646852 182.85166216 480.5625 185.5546875 C481.43523729 187.75296301 481.97760919 189.77908552 482.43359375 192.09375 C483.30556974 196.19676878 484.40141395 200.17353535 485.66796875 204.171875 C486.25903281 206.1235016 486.78324746 208.09588678 487.26171875 210.078125 C489.5078061 218.77660875 493.17461268 223.66002466 499.49609375 229.90625 C500.69621229 231.27025027 501.88468046 232.64463223 503.05859375 234.03125 C505.4110297 236.74142966 507.86143085 239.27914601 510.43359375 241.78125 C513.34933576 244.63009162 515.80864904 247.57868431 518.24609375 250.84375 C522.21404375 255.9759488 526.76308131 259.34693854 532.0546875 262.99609375 C534.49609375 264.90625 534.49609375 264.90625 535.49609375 267.90625 C536.82268796 268.58622797 538.15751251 269.25018409 539.49609375 269.90625 C541.15604406 271.37730944 542.76354461 272.90822143 544.33622742 274.472229 C545.0447084 275.17285497 545.0447084 275.17285497 545.76750213 275.88763499 C547.34677601 277.45192309 548.91883505 279.02326307 550.4909668 280.59472656 C551.62253355 281.71867102 552.75450167 282.84221152 553.88684082 283.96537781 C556.95975728 287.01635271 560.0260788 290.07387263 563.09058356 293.13329411 C565.00524506 295.04431245 566.92119833 296.95402594 568.83759499 298.86330414 C575.52253684 305.52375528 582.20174161 312.18990462 588.8762207 318.86083984 C595.09922988 325.08021131 601.33525377 331.28632177 607.57733315 337.48654771 C612.93572196 342.81026277 618.2844678 348.14353903 623.62589675 353.48426986 C626.8164111 356.67399058 630.01079261 359.8595931 633.21509361 363.03546906 C636.2278067 366.02205094 639.22836508 369.02032739 642.21999359 372.02802467 C643.31980488 373.12965421 644.42390248 374.22702361 645.5325489 375.31976128 C647.0458453 376.81265739 648.54290365 378.32017233 650.03691101 379.83233643 C650.87884349 380.67225758 651.72077597 381.51217873 652.58822155 382.37755203 C654.82570126 385.34311251 655.4131836 387.20493506 655.49609375 390.90625 C654.58918285 392.74219799 654.58918285 392.74219799 652.99491882 394.39237976 C652.33932669 395.07592215 651.68373455 395.75946453 651.00827599 396.46372032 C650.17925585 397.26975512 649.35023571 398.07578991 648.49609375 398.90625 C647.75802093 399.62424125 647.75802093 399.62424125 647.00503755 400.35673738 C643.27480317 403.96862556 639.49547532 407.52681741 635.70550537 411.07584 C631.83672341 414.70041122 627.98131139 418.33913758 624.12641907 421.97846985 C623.305125 422.75369669 622.48383094 423.52892352 621.63764918 424.32764208 C610.05079834 435.28140695 598.603803 446.38112805 587.15549183 457.47931385 C577.88373093 466.4595018 568.56764407 475.38200664 559.12524414 484.18286133 C513.55071993 526.7221797 480.23335433 560.87938288 471.65206909 624.09823608 C470.33856048 633.76322663 467.84029566 642.99677187 465.08550072 652.33581161 C463.93140322 656.29352808 462.88358427 660.27863727 461.82763672 664.26342773 C461.42280102 665.77326841 461.01734533 667.28294299 460.61126709 668.79244995 C460.40925438 669.54418865 460.20724167 670.29592735 459.99910736 671.07044601 C459.11310645 674.36579571 458.22622568 677.66090833 457.33928108 680.95600414 C456.18269455 685.25308058 455.02677787 689.55033703 453.87109375 693.84765625 C453.64620144 694.68367937 453.42130913 695.51970249 453.1896019 696.38105965 C450.05056887 708.05498873 446.95392659 719.73945457 443.8866539 731.43243027 C442.64429685 736.16218244 441.39430074 740.88992176 440.14395332 745.61756706 C438.97574199 750.03848097 437.82050483 754.46251657 436.67506027 758.88938046 C436.14284773 760.93667955 435.60389894 762.98205571 435.06176758 765.02674866 C434.40701639 767.4962465 433.76307459 769.96864609 433.13208008 772.44432068 C432.84212158 773.52415726 432.55216309 774.60399384 432.25341797 775.71655273 C432.00888885 776.65280991 431.76435974 777.58906708 431.51242065 778.55369568 C430.28332647 781.39875549 429.22819943 782.4624306 426.49609375 783.90625 C424.45849609 783.90289307 424.45849609 783.90289307 422.20703125 783.34472656 C421.32241211 783.13303833 420.43779297 782.9213501 419.52636719 782.70324707 C418.52637695 782.44023804 417.52638672 782.177229 416.49609375 781.90625 C415.38008789 781.62422729 414.26408203 781.34220459 413.11425781 781.05163574 C409.10944157 780.02337568 405.1149987 778.96026211 401.12109375 777.890625 C399.58948859 777.48284662 398.05781445 777.07532726 396.52607727 776.66804504 C392.38156758 775.56514572 388.23812075 774.45830203 384.09488297 773.35063553 C380.59526103 772.41555129 377.09503313 771.48274677 373.59480381 770.54993916 C361.55998009 767.34255343 349.52762055 764.12597844 337.49609375 760.90625 C336.13261181 760.54137859 336.13261181 760.54137859 334.74158478 760.16913605 C322.2965304 756.83852853 309.85262248 753.50365535 297.40939713 750.16622162 C294.81175393 749.46959748 292.21403806 748.77324494 289.61630249 748.07696533 C273.38908529 743.72722744 257.16335299 739.37322282 240.95913124 734.93846703 C236.69545496 733.77242463 232.4303517 732.61160337 228.1656189 731.44943237 C224.91690054 730.56087307 221.67094771 729.66270959 218.42504883 728.76391602 C216.50744982 728.24058771 214.58973343 727.71768929 212.671875 727.1953125 C211.83124512 726.95901627 210.99061523 726.72272003 210.12451172 726.47926331 C208.95553345 726.16395912 208.95553345 726.16395912 207.76293945 725.84228516 C207.10203812 725.65993317 206.44113678 725.47758118 205.76020813 725.28970337 C200.37078064 724.37694289 195.56442434 724.92207219 190.33666992 726.36132812 C189.14262543 726.68522018 187.94858093 727.00911224 186.71835327 727.34281921 C185.40856405 727.70762078 184.09880139 728.07251775 182.7890625 728.4375 C181.38789385 728.82068819 179.98648884 729.20301301 178.58486938 729.58454895 C175.55127766 730.41195941 172.51920352 731.2446472 169.4881897 732.08145142 C164.60421459 733.42951363 159.71696154 734.76538571 154.82885742 736.09838867 C153.99084626 736.32691749 153.1528351 736.5554463 152.28942966 736.79090023 C150.56603047 737.2608131 148.84261524 737.73066711 147.11918449 738.20046425 C144.45575758 738.92683866 141.79262943 739.65430088 139.12953186 740.38188171 C125.93328639 743.98464073 112.72285178 747.53228317 99.50390625 751.05078125 C98.06722721 751.43323155 98.06722721 751.43323155 96.60152435 751.82340813 C88.87442886 753.87991671 81.14658315 755.9336 73.41851807 757.98646164 C66.80068644 759.74445231 60.18321035 761.50377051 53.56640625 763.265625 C52.65659248 763.50787371 51.74677872 763.75012241 50.80939484 763.99971199 C38.76946783 767.20781129 26.74570098 770.46923777 14.73828125 773.796875 C13.4056972 774.16533717 12.07309165 774.53372157 10.74046326 774.90202332 C4.79316649 776.54732219 -1.15058782 778.20366268 -7.08862305 779.88208008 C-9.10845763 780.44389463 -11.12838875 781.00536226 -13.1484375 781.56640625 C-14.03963287 781.82339294 -14.93082825 782.08037964 -15.84902954 782.34515381 C-23.45400216 784.43713992 -23.45400216 784.43713992 -27.50390625 782.90625 C-30.38466336 780.02549289 -30.85909208 776.55026544 -31.86035156 772.70898438 C-32.08910477 771.85360958 -32.31785797 770.99823479 -32.55354309 770.11693954 C-33.31950771 767.24630538 -34.07569654 764.37318511 -34.83203125 761.5 C-35.37387463 759.46197379 -35.91634822 757.42411503 -36.45941162 755.38641357 C-37.6228584 751.01584127 -38.78207526 746.64417725 -39.93798828 742.27160645 C-41.75931462 735.38210136 -43.58970993 728.49502791 -45.421875 721.60839844 C-47.29118083 714.58059868 -49.15995814 707.55266137 -51.0255127 700.52386475 C-56.58890683 679.56379559 -62.200189 658.61676668 -67.82756042 637.67379761 C-69.09340423 632.96197428 -70.35804898 628.24982913 -71.62279892 623.5377121 C-71.80578663 622.85596169 -71.98877434 622.17421127 -72.17730713 621.47180176 C-72.48055562 620.33017657 -72.48055562 620.33017657 -72.78993034 619.16548824 C-73.410791 616.8717801 -74.0497254 614.58531894 -74.69751167 612.29918003 C-76.6847218 605.19695701 -78.54050786 598.17277603 -79.71406591 590.8856259 C-84.87809163 558.99951719 -100.77514742 541.5501463 -123.70267916 519.83031678 C-128.32300905 515.41971569 -132.85337246 510.91840808 -137.39437866 506.42643738 C-144.9988595 498.92656725 -152.65084202 491.47980793 -160.34716797 484.07446289 C-168.24893115 476.47109623 -176.12472176 468.84249065 -183.96435547 461.17504883 C-184.45076738 460.69934564 -184.9371793 460.22364244 -185.43833096 459.733524 C-190.74933391 454.53833713 -196.05515209 449.3378668 -201.35993004 444.13632488 C-203.23009485 442.30289178 -205.10030132 440.46950117 -206.97055054 438.63615417 C-207.8830785 437.74137491 -208.79560647 436.84659565 -209.7357868 435.92470187 C-215.15023318 430.62056477 -220.58528596 425.33871589 -226.04009748 420.07610476 C-229.41395613 416.81897873 -232.77870034 413.55253377 -236.14218903 410.28470421 C-237.70468963 408.77156866 -239.27160474 407.26297663 -240.84317398 405.75926208 C-242.98405036 403.7102365 -245.10928194 401.64617468 -247.2315979 399.57795715 C-247.85929726 398.98528559 -248.48699662 398.39261403 -249.13371718 397.78198272 C-251.84691596 395.10971402 -253.34350891 393.38680675 -254.56770325 389.71907234 C-254.49258935 386.40728565 -254.04469851 385.56055388 -251.75546265 383.22938538 C-251.10186138 382.54758272 -250.44826012 381.86578007 -249.77485275 381.16331673 C-249.02544041 380.41848471 -248.27602806 379.67365269 -247.50390625 378.90625 C-246.30146208 377.6688548 -246.30146208 377.6688548 -245.0747261 376.40646172 C-242.23073286 373.49453807 -239.35789491 370.61339928 -236.47900391 367.73608398 C-235.37909016 366.63317224 -234.27937968 365.53005777 -233.17985535 364.42675781 C-230.2131696 361.45129543 -227.24330211 358.47902922 -224.27254534 355.50763202 C-222.41235202 353.64672486 -220.55287385 351.78510615 -218.69364548 349.92323494 C-212.19542186 343.41578058 -205.69464136 336.9108933 -199.19140625 330.40844727 C-193.14803505 324.36567702 -187.11026723 318.31734801 -181.07509387 312.26639122 C-175.87589333 307.05408294 -170.67281178 301.84567022 -165.46673429 296.64023072 C-162.36504462 293.53879497 -159.26489845 290.43585547 -156.16865921 287.32897758 C-153.25594288 284.40652505 -150.33839028 281.4889861 -147.41718483 278.57501984 C-146.35169959 277.51057342 -145.28788813 276.44444826 -144.22596931 275.37644386 C-138.87489104 269.99671305 -133.49496648 264.86120315 -127.38991356 260.32972813 C-123.59470648 257.46526719 -120.24351852 254.10776875 -116.7890625 250.84765625 C-114.50390625 248.90625 -114.50390625 248.90625 -112.50390625 248.90625 C-112.30023438 248.36613281 -112.0965625 247.82601562 -111.88671875 247.26953125 C-109.94576141 243.95235839 -107.21403833 241.62962702 -104.37890625 239.09375 C-103.79431641 238.56112549 -103.20972656 238.02850098 -102.60742188 237.47973633 C-98.91208788 234.12484264 -95.16163656 230.84445391 -91.28515625 227.69921875 C-86.08292021 222.46275747 -83.68095771 217.51493963 -82.1171875 210.4453125 C-81.92924118 209.65530853 -81.74129486 208.86530457 -81.5476532 208.05136108 C-80.95573523 205.54786149 -80.38579777 203.03995759 -79.81640625 200.53125 C-79.42396234 198.85643363 -79.03009359 197.18195046 -78.63476562 195.5078125 C-77.73869312 191.69511505 -76.85234037 187.88056394 -75.99382019 184.05921936 C-75.66401607 182.60986652 -75.32272528 181.16308503 -74.97065735 179.71897888 C-73.84524324 174.98832944 -73.20697774 170.37431604 -72.77488708 165.53434753 C-71.06337149 147.6160905 -65.96440536 130.52613448 -61.17401505 113.24435043 C-59.93282836 108.75370006 -58.70959922 104.25816521 -57.48510742 99.76293945 C-55.98184685 94.24819083 -54.47698167 88.73390594 -52.96388245 83.22184753 C-49.8572883 71.90177466 -46.79768317 60.57039931 -43.79117393 49.22333336 C-43.16054907 46.84346542 -42.52880506 44.46389747 -41.89668274 42.08442688 C-39.52618064 33.16192386 -39.52618064 33.16192386 -37.16793823 24.23617554 C-36.1073832 20.21116327 -35.03461455 16.18950027 -33.9609375 12.16796875 C-33.49831009 10.39885132 -33.49831009 10.39885132 -33.02633667 8.59399414 C-32.73638824 7.51456543 -32.44643982 6.43513672 -32.14770508 5.32299805 C-31.77758049 3.92527412 -31.77758049 3.92527412 -31.39997864 2.49931335 C-26.40459921 -11.95636626 -11.38317091 -3.08296501 0 0 Z " fill="#040403" transform="translate(299.50390625,111.09375)"/>
<path d="M0 0 C3.28704197 2.14249135 5.92795536 4.8827938 8.67551804 7.65706825 C9.32005346 8.29989482 9.96458888 8.94272139 10.62865567 9.60502756 C12.79068189 11.76375525 14.94547471 13.92956162 17.10038376 16.09539223 C18.64732259 17.64289509 20.19470173 19.18995791 21.74248886 20.73661232 C25.94702167 24.94057032 30.14535104 29.15067492 34.34261608 33.36188745 C38.72861929 37.76037653 43.1202709 42.15321844 47.51133347 46.54665565 C54.88196911 53.92280516 62.24910184 61.30243808 69.61356735 68.6847477 C77.19878794 76.28832813 84.78610762 83.8898038 92.37626266 91.48845863 C92.84417008 91.95689149 93.31207749 92.42532435 93.79416391 92.90795214 C96.14154613 95.25794445 98.48897197 97.60789319 100.83641386 99.9578259 C120.30865722 119.45098547 139.77375294 138.95126938 159.23417282 158.45623207 C157.58294379 162.68458642 154.45082154 165.53292579 151.3014946 168.67652321 C150.38035681 169.60763272 150.38035681 169.60763272 149.44061017 170.55755252 C147.3788555 172.63901322 145.30998543 174.71325053 143.24100876 176.7875309 C141.76240215 178.27703122 140.28418585 179.76691907 138.80633163 181.25716591 C134.78867357 185.30534092 130.76427517 189.34674707 126.73768139 193.38603234 C124.22384516 195.90794895 121.71106295 198.43091133 119.19856644 200.9541626 C111.34177765 208.84366631 103.4805942 216.72875539 95.61352992 224.60801297 C86.52268901 233.71312698 77.44687274 242.83287897 68.38360572 251.96543866 C61.38180397 259.01892694 54.36670292 266.05900559 47.34133935 273.08902568 C43.14296942 277.2908016 38.95058359 281.49817047 34.77200699 285.71963882 C30.84414374 289.6871124 26.90011191 293.63775072 22.94285011 297.57589531 C21.49114397 299.02633034 20.04544342 300.48280418 18.60617638 301.94558334 C16.64476477 303.93720209 14.66314276 305.90619601 12.67478561 307.87085915 C11.82174776 308.75243548 11.82174776 308.75243548 10.95147681 309.65182143 C9.32509613 311.23223019 9.32509613 311.23223019 6.23417282 313.45623207 C1.84740894 313.35150437 -1.17344656 311.9527862 -4.94160843 309.78826332 C-5.92145706 309.23195229 -6.90130569 308.67564125 -7.91084671 308.10247231 C-8.95611526 307.49733803 -10.00138382 306.89220375 -11.07832718 306.26873207 C-13.33208696 304.98462081 -15.58599743 303.70077398 -17.84004593 302.41716957 C-19.00208069 301.75163335 -20.16402725 301.08594311 -21.32588577 300.42009926 C-26.66040345 297.37461592 -32.02653917 294.38635137 -37.39082718 291.39373207 C-46.30868918 286.40403381 -55.20947603 281.38475863 -64.10225296 276.35051918 C-71.14558682 272.36564961 -78.20289302 268.4062434 -85.26582718 264.45623207 C-94.22516928 259.44563704 -103.16864692 254.40794156 -112.10176468 249.35076332 C-119.14529065 245.36586438 -126.20273435 241.40633214 -133.26582718 237.45623207 C-142.22516928 232.44563704 -151.16864692 227.40794156 -160.10176468 222.35076332 C-167.14529065 218.36586438 -174.20273435 214.40633214 -181.26582718 210.45623207 C-190.22603623 205.44515219 -199.17126135 200.40850872 -208.10396194 195.34856606 C-213.03376222 192.55823245 -217.96999269 189.78026949 -222.91817093 187.02263832 C-238.99883512 178.06015796 -254.98904514 168.94580161 -270.76582718 159.45623207 C-267.08422964 156.33517851 -263.24371088 153.93054618 -259.01582718 151.64373207 C-251.93930458 147.73829664 -244.99744148 143.63349225 -238.07832718 139.45623207 C-228.8465628 133.88711588 -219.57543916 128.39377286 -210.26582718 122.95623207 C-201.23183215 117.67821746 -192.2276703 112.35631703 -183.26582718 106.95623207 C-173.69095461 101.18675757 -164.06398929 95.51269244 -154.41231155 89.87322426 C-144.97099528 84.35498924 -135.57858425 78.76094645 -126.21236038 73.11590004 C-117.7257791 68.01010825 -109.1819755 63.00682989 -100.62755203 58.01604652 C-90.73772101 52.24216962 -80.93678562 46.33274286 -71.16402054 40.36327553 C-63.8663699 35.90845536 -56.53917903 31.5478859 -49.05879593 27.40764809 C-44.97536071 25.14678466 -40.94883863 22.80562273 -36.95332718 20.39373207 C-36.37631058 20.04786049 -35.79929398 19.70198891 -35.20479202 19.34563637 C-31.38029686 17.04885805 -27.5748487 14.72315264 -23.77887344 12.37949562 C-21.33461793 10.87537784 -18.88202746 9.38519242 -16.42808914 7.89693642 C-15.19824197 7.14682967 -13.97193715 6.39088288 -12.74931717 5.62905312 C-11.02045338 4.55274619 -9.2781145 3.49817735 -7.53535843 2.44451332 C-6.52062454 1.8210099 -5.50589066 1.19750648 -4.46040726 0.55510902 C-1.76582718 -0.54376793 -1.76582718 -0.54376793 0 0 Z " fill="#56E0FD" transform="translate(781.7658271789551,340.54376792907715)"/>
<path d="M0 0 C0.02377477 11.07995735 0.04123078 22.1599081 0.05181217 33.23988628 C0.05690528 38.39162316 0.06373506 43.54334193 0.07543945 48.69506836 C0.12839929 72.68313661 -0.03463968 96.65156169 -0.54183769 120.63454247 C-0.94242901 139.745495 -1.15398926 158.85444465 -1.28125 177.96875 C-1.29089387 179.39231177 -1.30054315 180.8158735 -1.31019783 182.2394352 C-1.3879486 193.79124089 -1.45759305 205.34309464 -1.52606201 216.8949585 C-1.58596769 226.98208593 -1.6492349 237.06918391 -1.71875 247.15625 C-1.72578194 248.18775806 -1.72578194 248.18775806 -1.73295593 249.24010468 C-1.88385224 271.16915508 -2.22023359 293.0836832 -3 315 C-4.06903564 315.26225121 -4.06903564 315.26225121 -5.15966797 315.52980042 C-16.93483806 318.42040458 -28.65517678 321.35543901 -40.24609375 324.921875 C-42.96625894 325.70310871 -45.6154282 326.37614676 -48.375 326.96875 C-53.17604333 328.0037788 -57.85437033 329.35896169 -62.5625 330.75 C-70.41746733 333.03714843 -78.3041923 335.11535094 -86.25 337.0625 C-93.72789338 338.89633193 -101.12446012 340.86319165 -108.48925781 343.10571289 C-115.64015296 345.25252037 -122.88723104 346.99101434 -130.13671875 348.76953125 C-135.97136999 350.21155532 -141.75072469 351.74923836 -147.5 353.5 C-155.29919324 355.87499991 -163.18675437 357.82025695 -171.10375977 359.76074219 C-177.97091752 361.45682429 -184.75450868 363.33666972 -191.52539062 365.38012695 C-196.31795583 366.82110264 -201.0967529 368.01552739 -206 369 C-207.68817053 369.37196978 -209.37567752 369.74696405 -211.0625 370.125 C-212.375 370.41666667 -213.6875 370.70833333 -215 371 C-215.62849414 368.85518747 -216.25260258 366.70908965 -216.875 364.5625 C-217.39707031 362.77005859 -217.39707031 362.77005859 -217.9296875 360.94140625 C-218.70483598 358.18536162 -219.36036266 355.42410776 -219.9609375 352.625 C-221.00274286 347.82565476 -222.35901175 343.14546022 -223.75 338.4375 C-226.03714843 330.58253267 -228.11535094 322.6958077 -230.0625 314.75 C-231.89633193 307.27210662 -233.86319165 299.87553988 -236.10571289 292.51074219 C-238.25252037 285.35984704 -239.99101434 278.11276896 -241.76953125 270.86328125 C-243.21155532 265.02863001 -244.74923836 259.24927531 -246.5 253.5 C-248.87588033 245.69791557 -250.82163232 237.80736306 -252.76293945 229.88745117 C-254.43685304 223.11023473 -256.2911616 216.41781485 -258.31640625 209.73828125 C-259.8436573 204.66066737 -261.04613611 199.55786015 -262.1875 194.3828125 C-263.15931177 190.33671156 -264.31194745 186.36202382 -265.5 182.375 C-265.71479004 181.65151367 -265.92958008 180.92802734 -266.15087891 180.18261719 C-267.09803628 177.00126994 -268.05402082 173.82309212 -269.0234375 170.6484375 C-269.30445313 169.69195313 -269.58546875 168.73546875 -269.875 167.75 C-270.11992187 166.94046875 -270.36484375 166.1309375 -270.6171875 165.296875 C-271.08757329 162.47456028 -270.96255802 160.70222711 -270 158 C-268.03125 156.375 -268.03125 156.375 -265.5 155 C-264.60152344 154.50242187 -263.70304688 154.00484375 -262.77734375 153.4921875 C-261.86082031 152.99976563 -260.94429687 152.50734375 -260 152 C-259.15566406 151.50757813 -258.31132812 151.01515625 -257.44140625 150.5078125 C-251.40677966 147 -251.40677966 147 -248 147 C-248 146.34 -248 145.68 -248 145 C-246.12890625 143.66796875 -246.12890625 143.66796875 -243.5625 142.1875 C-242.65242188 141.65898438 -241.74234375 141.13046875 -240.8046875 140.5859375 C-237.53767098 138.73857161 -234.26577433 136.9020327 -230.97265625 135.1015625 C-229.32655036 134.18235089 -227.71988153 133.19296879 -226.125 132.1875 C-224 131 -224 131 -221 131 C-221 130.34 -221 129.68 -221 129 C-219.12890625 127.66796875 -219.12890625 127.66796875 -216.5625 126.1875 C-215.19738281 125.39472656 -215.19738281 125.39472656 -213.8046875 124.5859375 C-210.53767098 122.73857161 -207.26577433 120.9020327 -203.97265625 119.1015625 C-202.32655036 118.18235089 -200.71988153 117.19296879 -199.125 116.1875 C-197 115 -197 115 -194 115 C-194 114.34 -194 113.68 -194 113 C-192.12890625 111.66796875 -192.12890625 111.66796875 -189.5625 110.1875 C-188.19738281 109.39472656 -188.19738281 109.39472656 -186.8046875 108.5859375 C-183.53767098 106.73857161 -180.26577433 104.9020327 -176.97265625 103.1015625 C-175.32655036 102.18235089 -173.71988153 101.19296879 -172.125 100.1875 C-170 99 -170 99 -167 99 C-167 98.34 -167 97.68 -167 97 C-165.12890625 95.66796875 -165.12890625 95.66796875 -162.5625 94.1875 C-161.655 93.66285156 -160.7475 93.13820313 -159.8125 92.59765625 C-158.884375 92.07042969 -157.95625 91.54320312 -157 91 C-155.7315625 90.25556641 -155.7315625 90.25556641 -154.4375 89.49609375 C-148.38158832 86 -148.38158832 86 -145 86 C-145 85.34 -145 84.68 -145 84 C-142.7140617 82.4670058 -140.44192427 81.06139469 -138.0625 79.6875 C-137.37897461 79.28668213 -136.69544922 78.88586426 -135.99121094 78.47290039 C-133.9982661 77.30799351 -131.99940865 76.15376391 -130 75 C-129.04480469 74.43796875 -128.08960938 73.8759375 -127.10546875 73.296875 C-121.39278017 70 -121.39278017 70 -118 70 C-118 69.34 -118 68.68 -118 68 C-116.12890625 66.66796875 -116.12890625 66.66796875 -113.5625 65.1875 C-112.65242187 64.65898438 -111.74234375 64.13046875 -110.8046875 63.5859375 C-107.53767098 61.73857161 -104.26577433 59.9020327 -100.97265625 58.1015625 C-99.32655036 57.18235089 -97.71988153 56.19296879 -96.125 55.1875 C-94 54 -94 54 -91 54 C-91 53.34 -91 52.68 -91 52 C-89.12890625 50.66796875 -89.12890625 50.66796875 -86.5625 49.1875 C-85.65242187 48.65898438 -84.74234375 48.13046875 -83.8046875 47.5859375 C-80.53767098 45.73857161 -77.26577433 43.9020327 -73.97265625 42.1015625 C-72.32655036 41.18235089 -70.71988153 40.19296879 -69.125 39.1875 C-67 38 -67 38 -64 38 C-64 37.34 -64 36.68 -64 36 C-62.12890625 34.66796875 -62.12890625 34.66796875 -59.5625 33.1875 C-58.65242187 32.65898438 -57.74234375 32.13046875 -56.8046875 31.5859375 C-53.53767098 29.73857161 -50.26577433 27.9020327 -46.97265625 26.1015625 C-45.32655036 25.18235089 -43.71988153 24.19296879 -42.125 23.1875 C-40 22 -40 22 -37 22 C-37 21.34 -37 20.68 -37 20 C-35.12890625 18.66796875 -35.12890625 18.66796875 -32.5625 17.1875 C-31.655 16.66285156 -30.7475 16.13820313 -29.8125 15.59765625 C-28.4203125 14.80681641 -28.4203125 14.80681641 -27 14 C-26.154375 13.50371094 -25.30875 13.00742187 -24.4375 12.49609375 C-18.38158832 9 -18.38158832 9 -15 9 C-15 8.34 -15 7.68 -15 7 C-12.87767021 5.82823482 -10.75242209 4.66245215 -8.625 3.5 C-7.72007812 2.99919922 -7.72007812 2.99919922 -6.796875 2.48828125 C-2.2265625 0 -2.2265625 0 0 0 Z " fill="#FE0000" transform="translate(494,511)"/>
<path d="M0 0 C3.54823215 1.39025746 6.82695785 2.92774571 10.1484375 4.80078125 C11.14166016 5.35894531 12.13488281 5.91710937 13.15820312 6.4921875 C14.21974609 7.09289062 15.28128906 7.69359375 16.375 8.3125 C17.48552734 8.93769531 18.59605469 9.56289063 19.74023438 10.20703125 C23.16208957 12.13461805 26.58140134 14.06664454 30 16 C31.49321777 16.84377197 31.49321777 16.84377197 33.01660156 17.70458984 C36.78887582 19.83621398 40.56083496 21.96838951 44.33154297 24.1027832 C51.37635198 28.08889971 58.43540991 32.04906258 65.5 36 C74.45133089 41.00611468 83.3873144 46.03842706 92.31176758 51.09228516 C100.59931386 55.78210924 108.90821669 60.4333942 117.2265625 65.06835938 C120.15570649 66.70408985 123.07844512 68.35075844 126 70 C127.1235791 70.62680664 128.2471582 71.25361328 129.40478516 71.89941406 C130.50483887 72.52299805 131.60489258 73.14658203 132.73828125 73.7890625 C133.74544189 74.3557666 134.75260254 74.9224707 135.7902832 75.50634766 C136.51948975 75.99925293 137.24869629 76.4921582 138 77 C138 77.66 138 78.32 138 79 C116.60504855 90.09990889 95.20974835 101.1993268 73.78125 112.234375 C72.74305367 112.76904388 72.74305367 112.76904388 71.68388367 113.31451416 C68.19833251 115.10934781 64.71236365 116.90336454 61.22583008 118.69628906 C54.46688186 122.1735119 47.7157116 125.66455358 40.98046875 129.1875 C39.71503029 129.84827146 38.4495686 130.50899842 37.18408203 131.16967773 C34.81938511 132.40435261 32.45764778 133.64419372 30.09716797 134.88696289 C29.0557666 135.4308667 28.01436523 135.97477051 26.94140625 136.53515625 C26.03076416 137.013479 25.12012207 137.49180176 24.18188477 137.98461914 C22 139 22 139 20 139 C22.31 143.95 24.62 148.9 27 154 C38.97773092 148.03535294 50.90620273 141.98081475 62.8125 135.875 C63.70940552 135.41534851 64.60631104 134.95569702 65.53039551 134.4821167 C78.55953084 127.80456202 91.57256419 121.09726672 104.5625 114.34375 C109.22530592 111.91955488 113.89253059 109.50410182 118.5625 107.09375 C119.20053055 106.76426361 119.8385611 106.43477722 120.4959259 106.0953064 C123.64827541 104.46745562 126.80135232 102.841046 129.95581055 101.21728516 C135.00754341 98.61307286 140.04926532 95.99967085 145.01953125 93.2421875 C145.72239258 92.85401855 146.42525391 92.46584961 147.14941406 92.06591797 C148.88851986 91.09693686 150.61862388 90.11184368 152.34765625 89.125 C155.39665253 87.83175857 155.96895725 87.96948695 159 89 C160.65610407 89.79560499 162.28851765 90.64133235 163.90234375 91.51953125 C164.86390381 92.04087646 165.82546387 92.56222168 166.81616211 93.09936523 C167.84620361 93.66469971 168.87624512 94.23003418 169.9375 94.8125 C171.0107251 95.39781494 172.0839502 95.98312988 173.18969727 96.58618164 C181.72194871 101.25724163 190.17404861 106.06025228 198.60546875 110.91015625 C204.46286142 114.27499541 210.35406528 117.57827961 216.25 120.875 C217.29446289 121.45942871 218.33892578 122.04385742 219.41503906 122.64599609 C224.73006256 125.61826683 230.04870551 128.58390721 235.37109375 131.54296875 C249.04115132 139.15416718 262.57437246 146.96522546 276 155 C273.33865944 157.05511094 270.6464314 158.87479464 267.74609375 160.57421875 C266.48539062 161.31575195 266.48539062 161.31575195 265.19921875 162.07226562 C264.28785156 162.60529297 263.37648438 163.13832031 262.4375 163.6875 C260.4464716 164.8578297 258.45559293 166.02841416 256.46484375 167.19921875 C255.41280762 167.81716309 254.36077148 168.43510742 253.27685547 169.07177734 C247.67635511 172.36731838 242.0888037 175.68467555 236.5 179 C228.33716906 183.83983735 220.17118139 188.67427424 212 193.5 C200.47797995 200.30505777 188.96656448 207.12798115 177.45556641 213.95166016 C171.80409916 217.30176185 166.1520027 220.6508018 160.5 224 C158.24999736 225.33332887 155.99999736 226.66666221 153.75 228 C149.25 230.66666667 144.75 233.33333333 140.25 236 C139.13584717 236.6602417 138.02169434 237.3204834 136.8737793 238.00073242 C134.62785889 239.3316422 132.38192793 240.66253418 130.13598633 241.9934082 C125.02685567 245.02094512 119.91780526 248.04861703 114.80917358 251.07699585 C102.98924603 258.08379219 91.16666387 265.08600739 79.33544922 272.07373047 C69.30678617 277.99802662 59.28736029 283.93789682 49.26786804 289.87768555 C45.05681721 292.3739558 40.8449457 294.86883788 36.6328125 297.36328125 C34.81829601 298.4379977 33.00379505 299.51274034 31.18930054 300.5874939 C29.49520688 301.59082303 27.80095102 302.59387826 26.10668945 303.59692383 C25.05956787 304.21720459 24.01244629 304.83748535 22.93359375 305.4765625 C21.93440918 306.0634082 20.93522461 306.65025391 19.90576172 307.25488281 C17.9634492 308.42138003 16.04266509 309.62446987 14.14501953 310.86230469 C12.82219971 311.71550293 12.82219971 311.71550293 11.47265625 312.5859375 C10.7031665 313.09946777 9.93367676 313.61299805 9.14086914 314.14208984 C7 315 7 315 5.26877975 314.44117165 C1.9461111 312.33054991 -0.68629137 309.58100226 -3.44134521 306.79916382 C-4.08588063 306.15633725 -4.73041605 305.51351068 -5.39448285 304.85120451 C-7.55650907 302.69247682 -9.71130189 300.52667045 -11.86621094 298.36083984 C-13.41314977 296.81333698 -14.96052891 295.26627416 -16.50831604 293.71961975 C-20.71284885 289.51566176 -24.91117822 285.30555716 -29.10844326 281.09434462 C-33.49444647 276.69585554 -37.88609808 272.30301363 -42.27716064 267.90957642 C-49.64779629 260.53342691 -57.01492902 253.15379399 -64.37939453 245.77148438 C-71.96461512 238.16790394 -79.55193479 230.56642827 -87.14208984 222.96777344 C-87.60999726 222.49934058 -88.07790467 222.03090772 -88.55999109 221.54827993 C-90.90737331 219.19828762 -93.25479915 216.84833888 -95.60224104 214.49840617 C-115.0744844 195.0052466 -134.53958012 175.50496269 -154 156 C-152.34828196 151.74238754 -149.16802712 148.89589215 -145.98898315 145.74847412 C-145.36657435 145.12435646 -144.74416554 144.5002388 -144.10289586 143.85720849 C-142.01326453 141.76427936 -139.91655845 139.67858492 -137.81982422 137.59277344 C-136.3215818 136.09509507 -134.82377946 134.59697636 -133.3263855 133.09844971 C-129.25672032 129.02820978 -125.18091 124.96417371 -121.10399008 120.9012022 C-116.84563664 116.65533563 -112.5929313 112.40381967 -108.33963013 108.15289307 C-100.28302218 100.10250589 -92.2213287 92.05723134 -84.15780747 84.01376939 C-74.97866661 74.85696891 -65.80519162 65.69450129 -56.63219428 56.53154707 C-37.76110544 37.68137377 -18.88289259 18.83834853 0 0 Z " fill="#FD8D01" transform="translate(213,345)"/>
<path d="M0 0 C0.16604736 0.64960693 0.33209473 1.29921387 0.50317383 1.96850586 C1.26961522 4.95903627 2.04102548 7.94826422 2.8125 10.9375 C3.07353516 11.95908203 3.33457031 12.98066406 3.60351562 14.03320312 C4.99621081 19.41485243 6.52622163 24.68536635 8.33227539 29.94165039 C9.37745171 33.16354493 10.08553142 36.44378673 10.8125 39.75 C12.30356056 46.3403842 14.04505085 52.82650068 15.9375 59.3125 C17.93921317 66.17730551 19.80586991 73.05283304 21.5 80 C23.15966569 86.7994262 24.97740117 93.53110453 26.9375 100.25 C29.42958115 108.79975532 31.6269616 117.40022747 33.74755859 126.04882812 C35.59564299 133.52796418 37.65345015 140.92708385 39.8137207 148.32128906 C41.81722098 155.22626859 43.5960942 162.17358431 45.26391602 169.16699219 C46.19612355 173.02255382 47.2276314 176.78204891 48.515625 180.53515625 C49.99960446 184.86496224 51.0750702 189.22171665 52.0625 193.6875 C52.9391793 197.62023406 53.81270294 201.45377129 55.12109375 205.26953125 C56 208 56 208 56 212 C53.515625 213.88671875 53.515625 213.88671875 50.25 215.6875 C49.18265625 216.28949219 48.1153125 216.89148438 47.015625 217.51171875 C44.59866405 218.70454533 42.6271391 219.52175866 40 220 C40 220.66 40 221.32 40 222 C38.6875 222.72916667 37.375 223.45833333 36.0625 224.1875 C35.24265625 224.64382813 34.4228125 225.10015625 33.578125 225.5703125 C31.92483837 226.48713509 30.26881306 227.39904647 28.609375 228.3046875 C25.17631032 230.18469911 21.83158817 232.06392953 18.625 234.3125 C16 236 16 236 13 236 C13 236.66 13 237.32 13 238 C11.82244141 238.56267578 11.82244141 238.56267578 10.62109375 239.13671875 C4.66337638 242.03882156 -0.71681447 245.01065582 -6 249 C-10.55172414 252 -10.55172414 252 -14 252 C-14 252.66 -14 253.32 -14 254 C-15.17755859 254.56267578 -15.17755859 254.56267578 -16.37890625 255.13671875 C-22.34441509 258.04261692 -27.68833177 261.04228642 -33 265 C-34.67861472 265.98183125 -36.35810859 266.96280409 -38.05859375 267.90625 C-40.36040393 269.20304447 -42.61542497 270.56848391 -44.875 271.9375 C-48.19018643 273.92863332 -51.51387905 275.89975683 -54.875 277.8125 C-55.57367187 278.21082031 -56.27234375 278.60914063 -56.9921875 279.01953125 C-58.98792806 279.99410495 -60.83153434 280.54783115 -63 281 C-63 281.66 -63 282.32 -63 283 C-64.3125 283.72916667 -65.625 284.45833333 -66.9375 285.1875 C-67.75734375 285.64382813 -68.5771875 286.10015625 -69.421875 286.5703125 C-71.07516163 287.48713509 -72.73118694 288.39904647 -74.390625 289.3046875 C-77.82368968 291.18469911 -81.16841183 293.06392953 -84.375 295.3125 C-87 297 -87 297 -90 297 C-90 297.66 -90 298.32 -90 299 C-90.78503906 299.37511719 -91.57007813 299.75023437 -92.37890625 300.13671875 C-98.33662362 303.03882156 -103.71681447 306.01065582 -109 310 C-113.55172414 313 -113.55172414 313 -117 313 C-117 313.66 -117 314.32 -117 315 C-117.78503906 315.37511719 -118.57007813 315.75023437 -119.37890625 316.13671875 C-125.33662362 319.03882156 -130.71681447 322.01065582 -136 326 C-140.55172414 329 -140.55172414 329 -144 329 C-144 329.66 -144 330.32 -144 331 C-144.78503906 331.37511719 -145.57007813 331.75023437 -146.37890625 332.13671875 C-153.47970918 335.56839662 -153.47970918 335.56839662 -160.0625 339.875 C-163 342 -163 342 -166 342 C-166 342.66 -166 343.32 -166 344 C-167.3125 344.72916667 -168.625 345.45833333 -169.9375 346.1875 C-170.75734375 346.64382813 -171.5771875 347.10015625 -172.421875 347.5703125 C-174.07516163 348.48713509 -175.73118694 349.39904647 -177.390625 350.3046875 C-180.82368968 352.18469911 -184.16841183 354.06392953 -187.375 356.3125 C-190 358 -190 358 -193 358 C-193 358.66 -193 359.32 -193 360 C-194.01707031 360.54527344 -194.01707031 360.54527344 -195.0546875 361.1015625 C-200.81118981 364.21103051 -206.45281586 367.4345571 -212.00390625 370.8984375 C-214 372 -214 372 -216 372 C-216.17766528 363.00019689 -216.34325269 354.00019004 -216.5 345 C-216.51187725 344.31839561 -216.5237545 343.63679123 -216.53599167 342.93453217 C-216.93212447 319.99720452 -217.09027316 297.06563312 -217.0625 274.125 C-217.06164398 273.41277283 -217.06078796 272.70054565 -217.05990601 271.96673584 C-217.04871225 263.3111325 -217.02894157 254.65556258 -217 246 C-186.70953475 230.29136497 -186.70953475 230.29136497 -175.875 224.6875 C-175.01252655 224.24133835 -175.01252655 224.24133835 -174.13262939 223.78616333 C-164.92011352 219.02090358 -155.7009664 214.26859497 -146.47937012 209.52093506 C-124.94174995 198.43229025 -103.41654982 187.3212943 -82 176 C-84.31 171.38 -86.62 166.76 -89 162 C-95.34644034 165.23325981 -101.69201635 168.46820811 -108.03686523 171.70458984 C-110.18637956 172.80073481 -112.33611194 173.89645229 -114.48608398 174.99169922 C-125.74231733 180.72625471 -136.98086219 186.48761524 -148.1486969 192.3927002 C-156.8081142 196.96688075 -165.5293385 201.41904844 -174.25 205.875 C-186.43642753 212.10787581 -198.61064142 218.35985817 -210.71582031 224.74951172 C-211.96637207 225.40717529 -211.96637207 225.40717529 -213.2421875 226.078125 C-213.9522998 226.45356445 -214.66241211 226.82900391 -215.39404297 227.21582031 C-217 228 -217 228 -218 228 C-218.17192464 210.91671684 -218.33838594 193.83338386 -218.5 176.75 C-218.51187725 175.49486351 -218.5237545 174.23972702 -218.53599167 172.94655609 C-218.89692932 134.62971053 -219.16162939 96.31859776 -219 58 C-215.53962465 57.04872416 -212.07847235 56.10030449 -208.6171875 55.15234375 C-207.65063232 54.88659546 -206.68407715 54.62084717 -205.68823242 54.3470459 C-199.52124555 52.65985138 -193.33877866 51.06759234 -187.125 49.5625 C-178.577206 47.46487657 -170.15405037 45.02458313 -161.71801758 42.51806641 C-155.28064329 40.62102982 -148.84093855 38.95051225 -142.29345703 37.48583984 C-135.78836207 36.00818934 -129.40952712 34.1476816 -123.00708008 32.28100586 C-117.03418251 30.55093643 -111.04105123 28.97328165 -105 27.5 C-96.22887433 25.35752765 -87.56349144 22.91347182 -78.890625 20.40625 C-69.94520351 17.82278464 -60.94417101 15.47337696 -51.90332031 13.24804688 C-42.18748126 10.85379994 -32.56946585 8.20431895 -22.95703125 5.42578125 C-18.43962537 4.12121953 -13.91415686 2.85172328 -9.375 1.625 C-8.20710937 1.30789062 -7.03921875 0.99078125 -5.8359375 0.6640625 C-3 0 -3 0 0 0 Z " fill="#15FD00" transform="translate(721,118)"/>
<path d="M0 0 C8.36888276 3.95052851 16.371466 8.43869932 24.38598633 13.05395508 C31.35443464 17.06598111 38.35469354 21.01696316 45.375 24.9375 C53.42855484 29.43756192 61.4720426 33.9544235 69.5 38.5 C77.48774107 43.02207659 85.48878029 47.5196512 93.5 52 C102.4593421 57.01059503 111.40281974 62.04829051 120.3359375 67.10546875 C127.37946347 71.09036769 134.43690717 75.04989994 141.5 79 C150.4593421 84.01059503 159.40281974 89.04829051 168.3359375 94.10546875 C175.37946347 98.09036769 182.43690717 102.04989994 189.5 106 C198.44847286 111.00451631 207.38216681 116.0342403 216.30297852 121.08789062 C221.43161783 123.99094417 226.56802726 126.87927745 231.71484375 129.75 C232.83632813 130.37583984 233.9578125 131.00167969 235.11328125 131.64648438 C237.26723646 132.84748525 239.42212695 134.04681086 241.578125 135.24414062 C247.15347117 138.35332778 252.62014054 141.56304569 258 145 C256.40596353 155.92745504 253.31582299 166.51537859 250.453125 177.16015625 C249.88759569 179.27583484 249.32244993 181.39161599 248.75765991 183.50749207 C247.24122751 189.18406988 245.71939136 194.85918572 244.19641876 200.53401184 C242.61155527 206.44278319 241.03140231 212.35281409 239.45068359 218.26269531 C236.88047632 227.86942339 234.30714545 237.47530966 231.73144531 247.08056641 C228.82227444 257.92942881 225.91810282 268.77961886 223.0168457 279.63059998 C220.78644662 287.97244878 218.55329257 296.31355961 216.31980896 304.65458298 C215.63218141 307.22317426 214.94501061 309.79188736 214.25793457 312.36062622 C209.64213896 329.61360149 205.00508798 346.85475124 200 364 C190.96806545 362.5726947 182.21050873 360.30160391 173.3984375 357.90625 C171.84128066 357.48662388 170.28401088 357.06741664 168.72663879 356.64859009 C165.37137106 355.74536656 162.01686354 354.83939088 158.66293335 353.93121338 C153.29247569 352.4770294 147.92043586 351.02875458 142.5480957 349.58154297 C136.80853175 348.03518308 131.06905321 346.48851162 125.33009338 344.93991089 C110.56441127 340.95608639 95.79321983 336.99308413 81.01953125 333.0390625 C78.8402081 332.45567507 76.66088681 331.87228071 74.48156738 331.28887939 C65.97775492 329.01256415 57.47385633 326.73657133 48.96966553 324.46166992 C43.97426157 323.12529257 38.97916541 321.78776982 33.98425865 320.44953537 C32.16748347 319.96298979 30.35060775 319.4768194 28.53360939 318.99110794 C12.66467744 314.74888406 -3.1693931 310.38262905 -19 306 C-19.15306337 254.55779505 -18.77500972 203.13001128 -18.16577756 151.69160771 C-18.08431785 144.79183146 -18.00618143 137.8920232 -17.92993164 130.9921875 C-16.99748604 46.64611036 -16.99748604 46.64611036 -16 9 C-13.63398519 12.09423108 -11.68792145 15.21021564 -9.8125 18.62890625 C-8.89670166 20.29034668 -8.89670166 20.29034668 -7.96240234 21.98535156 C-7.642453 22.56869263 -7.32250366 23.15203369 -6.99285889 23.75305176 C-5.30721556 26.82507377 -3.6109909 29.8912321 -1.9140625 32.95703125 C-1.57637848 33.56731171 -1.23869446 34.17759216 -0.89077759 34.80636597 C1.88981568 39.82199146 4.73510385 44.7967429 7.625 49.75 C16.86954799 65.60881217 25.80866566 81.64195376 34.76879883 97.66259766 C38.66096785 104.61879169 42.57312876 111.56334346 46.5 118.5 C50.99844928 126.44760197 55.47697149 134.40605134 59.9375 142.375 C60.8052002 143.92477539 60.8052002 143.92477539 61.69042969 145.50585938 C64.67999027 150.84756174 67.66489631 156.19181713 70.64453125 161.5390625 C71.8460255 163.69289171 73.04784405 165.84654005 74.25 168 C74.82758057 169.03503662 75.40516113 170.07007324 76.00024414 171.13647461 C79.94192073 178.17546407 83.97507411 185.15361616 88.15722656 192.05273438 C91 196.78988364 91 196.78988364 91 199 C91.98742187 198.4225 92.97484375 197.845 93.9921875 197.25 C95.28632735 196.499774 96.58060537 195.74978632 97.875 195 C98.52597656 194.6184375 99.17695312 194.236875 99.84765625 193.84375 C104.7734375 191 104.7734375 191 107 191 C100.19096016 178.81953837 93.37481683 166.64348741 86.5 154.5 C81.38263976 145.4606038 76.30066818 136.401857 71.23046875 127.3359375 C67.33841939 120.38030161 63.42658575 113.43619157 59.5 106.5 C54.91900798 98.40614465 50.35700722 90.30190038 45.8125 82.1875 C45.2251709 81.13916992 44.6378418 80.09083984 44.03271484 79.01074219 C41.40031288 74.30743855 38.7750088 69.60063495 36.17578125 64.87890625 C35.52355591 63.69615112 35.52355591 63.69615112 34.8581543 62.48950195 C34.08460198 61.08467214 33.31354155 59.67846423 32.54614258 58.27026367 C30.23099189 54.06642351 27.76076465 49.98359847 25.22265625 45.91015625 C20.82525295 38.80673761 16.80200046 31.52555229 12.8125 24.1875 C7.63626967 14.58268566 7.63626967 14.58268566 2.01171875 5.23828125 C0 2 0 2 0 0 Z " fill="#A53AFD" transform="translate(521,518)"/>
<path d="M0 0 C15.58669084 3.39956631 31.03080468 7.35253524 46.34472656 11.81933594 C52.19985185 13.51663448 58.07802201 15.05434067 64 16.5 C70.79938 18.15984865 77.53112621 19.97730205 84.25 21.9375 C92.89499513 24.45855173 101.59373137 26.67525675 110.33886719 28.82006836 C116.78224631 30.41216422 123.14113815 32.17276188 129.48925781 34.10571289 C135.60978802 35.94318914 141.79454722 37.47761619 148 39 C154.88301648 40.68861052 161.71977481 42.43543893 168.5 44.5 C176.3862421 46.89999111 184.35964267 48.89654866 192.36523438 50.85742188 C193.32494141 51.09267578 194.28464844 51.32792969 195.2734375 51.5703125 C196.11310059 51.77414551 196.95276367 51.97797852 197.81787109 52.18798828 C202.56158401 53.39848308 207.27941842 54.70262573 212 56 C212.77299499 82.82553063 213.25608437 109.64624118 213.53242874 136.48130035 C213.5629691 139.42014046 213.59467303 142.35896604 213.62667847 145.29779053 C213.94734622 174.86590256 214.15285911 204.4299939 214 234 C208.66594353 236.73925545 203.33145298 239.47766317 197.99658203 242.21533203 C196.18689611 243.14414328 194.37732301 244.07317437 192.56787109 245.00244141 C182.73638183 250.05133777 172.90366074 255.09366884 163 260 C155.7729327 247.45224193 148.66773544 234.84155433 141.65136719 222.17480469 C137.00843113 213.79852055 132.31368791 205.45303648 127.59130859 197.12133789 C122.67552859 188.44294755 117.82708189 179.72797426 113 171 C109.25837091 171.57614466 106.55701579 172.62901096 103.3125 174.5625 C99.20396601 177 99.20396601 177 97 177 C97.55288696 178.01271973 97.55288696 178.01271973 98.11694336 179.04589844 C100.66796857 183.7204118 103.21648583 188.39621077 105.75390625 193.078125 C112.46514253 205.44624641 119.33509618 217.71686178 126.27636719 229.95703125 C129.36118623 235.40309138 132.43352841 240.85609154 135.5 246.3125 C136.36310791 247.84161011 136.36310791 247.84161011 137.24365234 249.40161133 C140.67706257 255.51771992 143.92888256 261.69398374 147 268 C138.02439055 273.34554215 128.8526163 278.14115011 119.49023438 282.77050781 C110.86355529 287.04228731 102.34383868 291.50197078 93.84912109 296.02954102 C93.23891113 296.34979248 92.62870117 296.67004395 92 297 C91.38592285 297.39179443 90.7718457 297.78358887 90.13916016 298.18725586 C87.07801634 299.35029486 85.14356004 298.81758759 82 298 C79.20532227 296.71582031 79.20532227 296.71582031 76.31640625 295.078125 C75.23601074 294.47154053 74.15561523 293.86495605 73.04248047 293.23999023 C71.88239198 292.57682631 70.72240092 291.91349193 69.5625 291.25 C68.35088152 290.56567549 67.13879775 289.88217418 65.92626953 289.19946289 C62.85630228 287.46839581 59.79212044 285.72736274 56.72943115 283.98345947 C54.15247633 282.51804663 51.57043305 281.06169993 48.98828125 279.60546875 C45.23741611 277.48947996 41.48895137 275.36933551 37.7421875 273.24609375 C31.67286778 269.81029468 25.58727228 266.40386307 19.5 263 C10.54490981 257.99186478 1.60491204 252.95797172 -7.32275391 247.90112305 C-13.41898923 244.45071042 -19.52922969 241.02632694 -25.64672852 237.61376953 C-36.51670992 231.54867668 -47.3119744 225.38047195 -58 219 C-57.30895418 212.55326996 -55.55142743 206.52811221 -53.75 200.3125 C-51.51646645 192.48629876 -49.36133143 184.65819888 -47.4375 176.75 C-45.58459629 169.15362703 -43.4914639 161.65035436 -41.30273438 154.14453125 C-39.05629525 146.36530216 -37.10841015 138.52420406 -35.17993164 130.66113281 C-33.58783578 124.21775369 -31.82723812 117.85886185 -29.89428711 111.51074219 C-28.05681086 105.39021198 -26.52238381 99.20545278 -25 93 C-23.14508483 85.43910214 -21.16216649 77.95834029 -18.89453125 70.51171875 C-17.05709066 64.39081792 -15.52257797 58.20576118 -14 52 C-12.14199196 44.43180038 -10.16860327 36.93532507 -7.90551758 29.47875977 C-4.97412281 19.7354521 -2.52292873 9.85523119 0 0 Z " fill="#FDF000" transform="translate(279,118)"/>
<path d="M0 0 C1.34350586 1.98339844 1.34350586 1.98339844 2.71484375 4.609375 C3.48707275 6.06597534 3.48707275 6.06597534 4.27490234 7.55200195 C4.82355957 8.60734131 5.3722168 9.66268066 5.9375 10.75 C7.11385813 12.96852406 8.29228095 15.18595443 9.47265625 17.40234375 C10.06578613 18.51851074 10.65891602 19.63467773 11.27001953 20.78466797 C13.72232867 25.34251603 16.28574575 29.83143669 18.875 34.3125 C23.47225777 42.29180708 27.97577634 50.31912585 32.4375 58.375 C37.63097578 67.74989299 42.86335196 77.10084105 48.14941406 86.42382812 C52.78697315 94.60708689 57.3693039 102.82067323 61.94995117 111.03588867 C65.90680123 118.10940886 69.95524321 125.12109677 74.15698242 132.05224609 C77 136.79000396 77 136.79000396 77 139 C74.71125827 140.33858524 72.41930344 141.67101014 70.125 143 C69.47402344 143.3815625 68.82304688 143.763125 68.15234375 144.15625 C63.2265625 147 63.2265625 147 61 147 C60.64397705 146.36312256 60.2879541 145.72624512 59.92114258 145.07006836 C53.47049555 133.53359216 47.01172883 122.00213876 40.5 110.5 C35.38263976 101.4606038 30.30066818 92.401857 25.23046875 83.3359375 C21.33841939 76.38030161 17.42658575 69.43619157 13.5 62.5 C3.24571904 44.38238129 -6.90757148 26.20822933 -17 8 C-13.91118087 5.45145135 -10.85697438 3.16779814 -7.375 1.1875 C-6.24191406 0.52814453 -6.24191406 0.52814453 -5.0859375 -0.14453125 C-3 -1 -3 -1 0 0 Z " fill="#020003" transform="translate(551,570)"/>
<path d="M0 0 C1.4387207 2.17382812 1.4387207 2.17382812 2.92578125 5.03125 C3.47556641 6.07023437 4.02535156 7.10921875 4.59179688 8.1796875 C5.44354492 9.82324219 5.44354492 9.82324219 6.3125 11.5 C10.19923579 18.94019411 14.16077845 26.13100299 19 33 C20.32 32.67 21.64 32.34 23 32 C22.01 33.32 21.02 34.64 20 36 C27.75779574 50.48010329 35.66852737 64.84150543 44 79 C40.5425752 79 39.20200021 78.22266377 36.1953125 76.578125 C34.74813843 75.79127319 34.74813843 75.79127319 33.27172852 74.98852539 C32.23330811 74.41481201 31.1948877 73.84109863 30.125 73.25 C29.04726318 72.66017334 27.96952637 72.07034668 26.85913086 71.46264648 C18.31723654 66.77040795 9.84947102 61.95386048 1.40234375 57.09375 C-4.49786478 53.70415263 -10.43466318 50.38113159 -16.375 47.0625 C-28.27247276 40.41456686 -40.14140424 33.71700042 -52 27 C-52 26.01 -52 25.02 -52 24 C-51.49364014 23.74943848 -50.98728027 23.49887695 -50.46557617 23.24072266 C-40.88100001 18.49097764 -31.33066146 13.68974561 -21.875 8.6875 C-21.08504639 8.27089111 -20.29509277 7.85428223 -19.48120117 7.42504883 C-16.21406326 5.70154434 -12.95014431 3.97324529 -9.6953125 2.2265625 C-8.80585938 1.75992187 -7.91640625 1.29328125 -7 0.8125 C-6.278125 0.42707031 -5.55625 0.04164063 -4.8125 -0.35546875 C-3 -1 -3 -1 0 0 Z " fill="#FBED01" transform="translate(436,402)"/>
<path d="M0 0 C1.91498891 1.17001378 3.61734251 2.38935118 5.34765625 3.81591797 C5.97414063 4.32896484 6.600625 4.84201172 7.24609375 5.37060547 C7.91382813 5.92361328 8.5815625 6.47662109 9.26953125 7.04638672 C10.71215773 8.23008024 12.15486839 9.41367116 13.59765625 10.59716797 C14.33306641 11.20254395 15.06847656 11.80791992 15.82617188 12.43164062 C19.21204236 15.21375281 22.61609915 17.97331108 26.01953125 20.73388672 C27.34644888 21.81189515 28.6732714 22.89002066 30 23.96826172 C33.42507905 26.75119077 36.85086301 29.53325007 40.27734375 32.31445312 C41.6312046 33.41446506 42.98409405 34.51567381 44.3359375 35.61816406 C47.36172816 38.0849399 50.39519419 40.53772594 53.46875 42.94482422 C54.47550781 43.74146484 55.48226562 44.53810547 56.51953125 45.35888672 C57.39609375 46.04208984 58.27265625 46.72529297 59.17578125 47.42919922 C59.78421875 48.02474609 60.39265625 48.62029297 61.01953125 49.23388672 C61.01953125 50.22388672 61.01953125 51.21388672 61.01953125 52.23388672 C54.08953125 56.19388672 54.08953125 56.19388672 47.01953125 60.23388672 C42.99789126 57.82090273 40.24484893 55.75918544 36.89453125 52.60888672 C33.21451994 49.2047531 29.49037747 45.93550705 25.58203125 42.79638672 C20.83696611 38.97435298 16.34310433 34.94227162 11.90258789 30.77514648 C9.18038151 28.2028864 9.18038151 28.2028864 6.01953125 26.23388672 C6.88336746 34.18891574 7.97232649 42.09126316 9.265625 49.98779297 C9.43353798 51.01402519 9.43353798 51.01402519 9.60484314 52.06098938 C10.17606213 55.53936072 10.75525195 59.01624882 11.3425293 62.49194336 C11.55820557 63.79123779 11.77388184 65.09053223 11.99609375 66.42919922 C12.19283691 67.59467285 12.38958008 68.76014648 12.59228516 69.9609375 C13.0015817 73.09638289 13.09797479 76.07638469 13.01953125 79.23388672 C10.75308067 80.57519433 8.48193028 81.90704906 6.20703125 83.23388672 C5.56443359 83.61544922 4.92183594 83.99701172 4.25976562 84.39013672 C-0.640625 87.23388672 -0.640625 87.23388672 -3.98046875 87.23388672 C-4.1412793 85.96198486 -4.30208984 84.69008301 -4.46777344 83.37963867 C-5.21999217 77.43496535 -5.97487369 71.49063174 -6.73046875 65.54638672 C-6.86608215 64.47866028 -7.00169556 63.41093384 -7.14141846 62.31085205 C-8.95339042 48.06080839 -10.80736784 33.81956753 -12.86230469 19.60229492 C-13.08708496 18.02387817 -13.08708496 18.02387817 -13.31640625 16.41357422 C-13.4457959 15.52395996 -13.57518555 14.6343457 -13.70849609 13.71777344 C-13.98848717 11.16065566 -14.19940692 8.80057009 -13.98046875 6.23388672 C-11.49609375 4.14404297 -11.49609375 4.14404297 -8.23046875 2.29638672 C-7.163125 1.66861328 -6.09578125 1.04083984 -4.99609375 0.39404297 C-1.98046875 -0.76611328 -1.98046875 -0.76611328 0 0 Z " fill="#040400" transform="translate(347.98046875,215.76611328125)"/>
<path d="M0 0 C0.24121582 1.83268433 0.24121582 1.83268433 0.48730469 3.70239258 C1.23883329 9.40612028 1.99411093 15.10934876 2.75 20.8125 C2.8856134 21.83742554 3.02122681 22.86235107 3.16094971 23.91833496 C4.92925795 37.2643839 6.73633276 50.59831435 8.88183594 63.88989258 C9.30364926 66.5901782 9.67670827 69.28628503 10 72 C10.1021582 72.84038818 10.20431641 73.68077637 10.30957031 74.54663086 C10.46993239 76.85382857 10.52157064 78.74693271 10 81 C7.375 83.41015625 7.375 83.41015625 4 85.0625 C2.88625 85.63097656 1.7725 86.19945312 0.625 86.78515625 C-0.24125 87.18605469 -1.1075 87.58695313 -2 88 C-6.79032169 85.38539947 -10.77783462 81.99218638 -14.9375 78.5 C-20.3155539 74.02349298 -25.72248745 69.60321296 -31.25 65.3125 C-36.30578756 61.38093823 -41.22401732 57.31978828 -46.07788086 53.1418457 C-48.96904636 50.66795266 -51.90264421 48.28025639 -54.92578125 45.96875 C-55.57417969 45.47181641 -56.22257813 44.97488281 -56.890625 44.46289062 C-58.1486345 43.50532038 -59.41277867 42.55574366 -60.68359375 41.61523438 C-62.17680923 40.47827692 -63.59633641 39.24583035 -65 38 C-65 37.01 -65 36.02 -65 35 C-62.76046944 33.60478444 -60.5111339 32.23437216 -58.25 30.875 C-57.61578125 30.47667969 -56.9815625 30.07835937 -56.328125 29.66796875 C-51.60813727 26.86547603 -51.60813727 26.86547603 -48.86328125 27.47265625 C-46.47387016 29.43127205 -44.18839718 31.44420353 -41.9375 33.5625 C-38.22521409 37.01462571 -34.45183862 40.31925184 -30.5 43.5 C-25.66246358 47.40190975 -21.06531798 51.51408587 -16.5078125 55.73828125 C-14.07671969 57.93080888 -11.56408239 59.96620554 -9 62 C-10.2629119 50.83800445 -12.02365174 39.84520304 -14.125 28.8125 C-14.67446923 25.92412554 -15.21785535 23.03469708 -15.7578125 20.14453125 C-15.9964502 18.89003174 -16.23508789 17.63553223 -16.48095703 16.34301758 C-16.92513538 13.48218307 -17.10906228 10.88466296 -17 8 C-14.73354942 6.65869239 -12.46239903 5.32683766 -10.1875 4 C-9.54490234 3.6184375 -8.90230469 3.236875 -8.24023438 2.84375 C-3.33984375 0 -3.33984375 0 0 0 Z " fill="#020003" transform="translate(657,703)"/>
<path d="M0 0 C1.25250329 19.72657384 1.1192231 39.44925612 1.06866455 59.20489502 C1.05827664 63.70430016 1.05383442 68.20371123 1.04882812 72.703125 C1.03823074 81.46876588 1.02125449 90.2343785 1 99 C-1.44996474 95.79972453 -3.44936899 92.55245446 -5.3984375 89.01953125 C-5.71527496 88.44724289 -6.03211243 87.87495453 -6.35855103 87.2853241 C-7.36685435 85.46259094 -8.37100791 83.63761073 -9.375 81.8125 C-10.04138901 80.6059664 -10.7080533 79.39958479 -11.375 78.19335938 C-11.70050842 77.60416718 -12.02601685 77.01497498 -12.36138916 76.40792847 C-13.32067682 74.67214469 -14.28093608 72.93689799 -15.24121094 71.20166016 C-16.33603753 69.20866239 -17.41953208 67.20934339 -18.48535156 65.20068359 C-18.91557617 64.3958252 -19.34580078 63.5909668 -19.7890625 62.76171875 C-20.1495166 62.07424561 -20.5099707 61.38677246 -20.88134766 60.6784668 C-22.05354676 58.68643486 -22.05354676 58.68643486 -25 57 C-25.35596973 55.33802093 -25.6850875 53.67024519 -26 52 C-27.04765025 49.88093658 -28.1709955 47.79856731 -29.34375 45.74609375 C-29.67290405 45.16336197 -30.00205811 44.58063019 -30.34118652 43.98023987 C-31.38765761 42.12889955 -32.44297642 40.28283278 -33.5 38.4375 C-34.55626241 36.58819789 -35.61039458 34.73780952 -36.65881348 32.88404846 C-37.60922104 31.20421677 -38.56711475 29.52862709 -39.52539062 27.85327148 C-40.74614142 25.49119954 -41.53332413 23.59373126 -42 21 C-31.32851957 15.09928138 -20.6473325 9.22569001 -9.75 3.75 C-8.99477051 3.36787354 -8.23954102 2.98574707 -7.46142578 2.59204102 C-2.24828092 0 -2.24828092 0 0 0 Z " fill="#FAEC02" transform="translate(493,371)"/>
<path d="M0 0 C2.76418436 2.48025001 4.48248403 5.21859362 6.3125 8.4375 C7.14201172 9.85869141 7.14201172 9.85869141 7.98828125 11.30859375 C9 14 9 14 8.46484375 16.015625 C6.5451186 18.61621268 4.45873505 20.95019905 2.25 23.3125 C1.77409424 23.82449951 1.29818848 24.33649902 0.80786133 24.86401367 C-0.78988852 26.58062771 -2.39446986 28.29066203 -4 30 C-5.82866716 31.95190885 -7.65654075 33.90455174 -9.48339844 35.8581543 C-10.67095269 37.12702399 -11.86030406 38.39421501 -13.05175781 39.65942383 C-16.82163629 43.67760786 -20.44037297 47.79414718 -24 52 C-18.45361785 52.10876782 -13.24888068 51.75510745 -7.7734375 50.90625 C-7.02212555 50.79526978 -6.2708136 50.68428955 -5.49673462 50.56994629 C-3.12197256 50.21874235 -0.74842471 49.86012249 1.625 49.5 C4.00563091 49.14039537 6.38646871 48.78258449 8.76815796 48.43005371 C10.24244587 48.21172287 11.71614736 47.98938054 13.18911743 47.7623291 C17.156888 47.17342287 20.9894179 46.74625623 25 47 C26.57421875 48.5390625 26.57421875 48.5390625 27.6875 50.625 C28.08710938 51.35203125 28.48671875 52.0790625 28.8984375 52.828125 C29.26195312 53.54484375 29.62546875 54.2615625 30 55 C30.598125 56.11375 31.19625 57.2275 31.8125 58.375 C33 61 33 61 33 63 C24.27256995 63.91754553 15.54468598 64.83061147 6.81620026 65.73806 C2.76265203 66.15962331 -1.29072697 66.58269186 -5.34375 67.00927734 C-9.25966453 67.42137474 -13.17598277 67.82941758 -17.09260559 68.23472595 C-18.58216737 68.38957754 -20.0715815 68.54585659 -21.56083679 68.70362854 C-35.92836454 70.22398845 -35.92836454 70.22398845 -43 70 C-44.03572896 68.25877451 -45.0531252 66.50663405 -46.0625 64.75 C-46.63097656 63.77546875 -47.19945312 62.8009375 -47.78515625 61.796875 C-49 59 -49 59 -49.02734375 57.01953125 C-47.41174562 53.84362162 -44.96065071 51.46708489 -42.5 48.9375 C-38.67035465 44.90390903 -34.97467939 40.84973652 -31.5 36.5 C-28.15697048 32.33332552 -24.64875887 28.39589964 -21 24.5 C-16.45162032 19.64120958 -12.1523005 14.64712431 -7.98046875 9.45703125 C-5.38939188 6.24246053 -2.70389506 3.11987892 0 0 Z " fill="#050200" transform="translate(213,466)"/>
<path d="M0 0 C1.17175781 0.01353516 1.17175781 0.01353516 2.3671875 0.02734375 C2.94726562 0.03894531 3.52734375 0.05054688 4.125 0.0625 C5.18868149 1.77821224 6.22528172 3.51073601 7.25 5.25 C7.83007812 6.21292969 8.41015625 7.17585937 9.0078125 8.16796875 C10.125 11.0625 10.125 11.0625 9.65234375 13.54296875 C7.67055385 16.81216181 5.21227114 19.46229053 2.5625 22.1875 C-1.26554654 26.22138624 -4.957238 30.28097733 -8.4375 34.625 C-11.60978727 38.57745195 -14.92350787 42.3537538 -18.375 46.0625 C-22.73370043 50.74878543 -26.84209561 55.58483988 -30.859375 60.5703125 C-33.46599903 63.79323136 -36.16043427 66.93030877 -38.875 70.0625 C-42.0857419 67.39170269 -43.38477252 64.14056613 -45.0625 60.375 C-45.85720703 58.60576172 -45.85720703 58.60576172 -46.66796875 56.80078125 C-47.06628906 55.89714844 -47.46460938 54.99351562 -47.875 54.0625 C-46.45241867 52.53830572 -45.02982467 51.01412327 -43.60717773 49.48999023 C-42.35648119 48.14985253 -41.10599703 46.8095166 -39.85571289 45.46899414 C-36.57666262 41.95388176 -33.29435797 38.44194438 -30.00390625 34.9375 C-29.38467285 34.27693604 -28.76543945 33.61637207 -28.12744141 32.93579102 C-26.94744784 31.67722645 -25.7662002 30.4198361 -24.58349609 29.16381836 C-21.21137696 25.56366454 -17.99691767 21.88205291 -14.875 18.0625 C-20.01001456 17.94526222 -24.8897321 18.37110318 -29.96875 19.15625 C-30.71910522 19.26723022 -31.46946045 19.37821045 -32.24255371 19.49255371 C-34.62077881 19.8444207 -36.99797254 20.20263707 -39.375 20.5625 C-42.50958521 21.0370511 -45.64506583 21.50489713 -48.78125 21.96875 C-49.4887439 22.0781189 -50.19623779 22.18748779 -50.9251709 22.3001709 C-55.27705159 22.94308294 -59.47754442 23.29602388 -63.875 23.0625 C-65.546875 21.5234375 -65.546875 21.5234375 -66.625 19.4375 C-67.01558594 18.71046875 -67.40617188 17.9834375 -67.80859375 17.234375 C-68.16050781 16.51765625 -68.51242187 15.8009375 -68.875 15.0625 C-69.473125 13.94875 -70.07125 12.835 -70.6875 11.6875 C-71.875 9.0625 -71.875 9.0625 -71.875 7.0625 C-71.12411102 6.98955215 -70.37322205 6.91660431 -69.59957886 6.84144592 C-62.50806348 6.15214663 -55.41674467 5.46087245 -48.32563591 4.7674036 C-44.68041119 4.41099167 -41.0351164 4.05533203 -37.38964844 3.70141602 C-33.86871069 3.35956152 -30.34797422 3.01569906 -26.82736588 2.67046928 C-24.83677664 2.47579449 -22.84598663 2.28317608 -20.85519409 2.09059143 C-19.02397507 1.91051796 -19.02397507 1.91051796 -17.15576172 1.72680664 C-16.08542694 1.6224379 -15.01509216 1.51806915 -13.912323 1.41053772 C-1.41541308 -0.02144565 -1.41541308 -0.02144565 0 0 Z " fill="#000400" transform="translate(699.875,244.9375)"/>
</svg>
